M48
INCH
T01C0.012
T02C0.015
T03C0.0236
T04C0.0315
T05C0.0354
T06C0.0362
T07C0.0394
T08C0.0429
T09C0.0433
T10C0.0669
T11C0.07
T12C0.0866
T13C0.0906
T14C0.1339
T15C0.145
%
T01
X+028810Y+031590
X+029150Y+031580
X+029650Y+031580
X+028130Y+032380
X+028240Y+032940
X+028000Y+033150
X+028180Y+033460
X+029590Y+034500
X+025873Y+035385
X+025453Y+034275
X+025453Y+033555
X+025893Y+032195
X+025873Y+027325
X+025453Y+026215
X+025453Y+025495
X+025893Y+024135
X+028090Y+024270
X+028220Y+024860
X+028000Y+025090
X+028240Y+025390
X+029590Y+026440
X+029670Y+023500
X+029140Y+023510
X+028800Y+023540
X+025860Y+019345
X+025440Y+018235
X+025440Y+017515
X+025880Y+016155
X+028130Y+016320
X+028220Y+016870
X+027987Y+017109
X+028220Y+017400
X+029577Y+018459
X+029690Y+015550
X+029100Y+015540
X+028750Y+015550
X+025863Y+011365
X+025443Y+010255
X+025443Y+009535
X+025883Y+008175
X+027950Y+009125
X+028225Y+008900
X+028225Y+009350
X+028170Y+008420
X+028840Y+007580
X+029160Y+007560
X+029670Y+007580
X+029590Y+010470
X+023220Y+021340
X+023380Y+021590
X+023390Y+021880
X+023740Y+021850
X+023750Y+022150
X+023750Y+022450
X+018320Y+021400
X+018020Y+021400
X+017740Y+021400
X+017460Y+021400
X+017170Y+021400
X+016870Y+021400
X+013920Y+022660
X+013610Y+022670
X+013290Y+022670
X+012980Y+022670
X+012670Y+022680
X+012350Y+022670
X+009560Y+017360
X+009600Y+017030
T02
X+016900Y+035190
X+017750Y+034080
X+019290Y+034960
X+019320Y+035650
X+020110Y+034110
X+021625Y+033450
X+022530Y+034130
X+021650Y+035110
X+025720Y+033130
X+026380Y+031870
X+027510Y+032210
X+029220Y+032610
X+029230Y+033050
X+029690Y+033080
X+029690Y+033520
X+029210Y+033520
X+030170Y+033510
X+030170Y+033050
X+030150Y+032580
X+029680Y+032610
X+030260Y+031340
X+030350Y+030100
X+030400Y+028600
X+031483Y+028445
X+031843Y+028455
X+032213Y+028455
X+032863Y+029005
X+032883Y+029435
X+033333Y+029445
X+033753Y+029445
X+033733Y+029015
X+033313Y+029015
X+033113Y+029945
X+032713Y+029945
X+032723Y+030345
X+032733Y+030735
X+033133Y+030735
X+033123Y+030345
X+032620Y+032100
X+032630Y+033980
X+032040Y+035620
X+031670Y+035620
X+031230Y+035620
X+030500Y+034890
X+029400Y+035330
X+029400Y+035760
X+028850Y+035760
X+028850Y+035330
X+028290Y+035210
X+027360Y+034970
X+026730Y+035630
X+025180Y+039590
X+020230Y+039590
X+015270Y+039590
X+010320Y+039590
X+010770Y+035410
X+011100Y+035020
X+011470Y+035010
X+011860Y+035020
X+011900Y+032850
X+011410Y+032870
X+010940Y+032880
X+008840Y+033140
X+008490Y+033150
X+008140Y+033150
X+007790Y+033160
X+006525Y+032650
X+006100Y+032650
X+005700Y+032650
X+005675Y+031725
X+006075Y+031725
X+006525Y+031725
X+007610Y+031010
X+008030Y+031010
X+007710Y+030490
X+007700Y+030080
X+007700Y+029670
X+007590Y+029100
X+008060Y+029080
X+009440Y+029580
X+008870Y+031500
X+011930Y+030190
X+012610Y+030210
X+012600Y+029150
X+011540Y+027850
X+011130Y+027860
X+010730Y+027860
X+012870Y+027000
X+012550Y+025110
X+011720Y+025160
X+012550Y+024040
X+012025Y+022950
X+011725Y+022725
X+010725Y+022775
X+010310Y+021820
X+009900Y+021820
X+009125Y+022325
X+009025Y+023250
X+009370Y+024410
X+008525Y+026925
X+006700Y+027425
X+006700Y+027975
X+006675Y+028550
X+006330Y+025480
X+002370Y+025280
X+002370Y+025820
X+002370Y+024610
X+002370Y+024040
X+000410Y+024900
X+000410Y+020000
X+000410Y+015100
X+002325Y+015350
X+004930Y+015390
X+005375Y+016175
X+005700Y+016360
X+006900Y+016650
X+005980Y+014970
X+005360Y+014280
X+005000Y+013610
X+004430Y+012590
X+004520Y+011260
X+004493Y+010413
X+006430Y+009880
X+007420Y+009880
X+007410Y+011010
X+007210Y+011880
X+007371Y+012359
X+008540Y+013150
X+009575Y+014750
X+009675Y+015450
X+010325Y+015475
X+011075Y+015425
X+011390Y+015200
X+011700Y+015425
X+012025Y+015225
X+012350Y+015425
X+013300Y+014970
X+013600Y+015425
X+013900Y+015200
X+014120Y+014820
X+014850Y+014830
X+014560Y+015410
X+014330Y+013260
X+015140Y+012410
X+015510Y+012700
X+016040Y+013680
X+017640Y+014920
X+017950Y+015680
X+017350Y+016080
X+017040Y+016340
X+017680Y+016380
X+018550Y+017350
X+018200Y+017660
X+018830Y+017975
X+018475Y+018575
X+018175Y+018900
X+019050Y+019175
X+019240Y+018710
X+019560Y+019870
X+019740Y+021390
X+021860Y+021360
X+022080Y+019890
X+021350Y+019875
X+024325Y+019775
X+024325Y+020225
X+024325Y+020700
X+024395Y+021080
X+026193Y+021895
X+026953Y+020415
X+027313Y+020425
X+027683Y+020425
X+028410Y+020500
X+028410Y+020860
X+028770Y+020850
X+028770Y+020500
X+029180Y+020500
X+029180Y+020860
X+029387Y+019719
X+029387Y+019289
X+028837Y+019289
X+028837Y+019719
X+028277Y+019169
X+027290Y+018900
X+026717Y+019589
X+025710Y+017060
X+026367Y+015829
X+027480Y+016180
X+029207Y+016569
X+029217Y+017009
X+029677Y+017039
X+029677Y+017479
X+029197Y+017479
X+030157Y+017469
X+030157Y+017009
X+030137Y+016539
X+029667Y+016569
X+030247Y+015299
X+030210Y+014130
X+030250Y+012540
X+029167Y+012519
X+029167Y+012879
X+028757Y+012869
X+028757Y+012519
X+028397Y+012519
X+028397Y+012879
X+027670Y+012445
X+027300Y+012445
X+026940Y+012435
X+026720Y+011610
X+027300Y+011030
X+028280Y+011190
X+028840Y+011310
X+028840Y+011740
X+029390Y+011740
X+029390Y+011310
X+030490Y+010870
X+031220Y+011600
X+031660Y+011600
X+032030Y+011600
X+032200Y+012415
X+031830Y+012415
X+031470Y+012405
X+032850Y+012965
X+032870Y+013395
X+033320Y+013405
X+033740Y+013405
X+033720Y+012975
X+033300Y+012975
X+033100Y+013905
X+032700Y+013905
X+032710Y+014305
X+032720Y+014695
X+033120Y+014695
X+033110Y+014305
X+032607Y+016059
X+032617Y+017939
X+032027Y+019579
X+031657Y+019579
X+031217Y+019579
X+031483Y+020385
X+031843Y+020395
X+032213Y+020395
X+032863Y+020945
X+032883Y+021375
X+033333Y+021385
X+033753Y+021385
X+033733Y+020955
X+033313Y+020955
X+033113Y+021885
X+032713Y+021885
X+032723Y+022285
X+032733Y+022675
X+033133Y+022675
X+033123Y+022285
X+032620Y+024040
X+032630Y+025920
X+032040Y+027560
X+031670Y+027560
X+031230Y+027560
X+030500Y+026830
X+029400Y+027270
X+029400Y+027700
X+028850Y+027700
X+028850Y+027270
X+028290Y+027150
X+027340Y+026860
X+026730Y+027570
X+026953Y+028475
X+027313Y+028485
X+027683Y+028485
X+028410Y+028560
X+028770Y+028560
X+028770Y+028910
X+028410Y+028920
X+029180Y+028920
X+029180Y+028560
X+029210Y+025460
X+029230Y+024990
X+029220Y+024550
X+029680Y+024550
X+029690Y+025020
X+029690Y+025460
X+030170Y+025450
X+030170Y+024990
X+030150Y+024520
X+030260Y+023280
X+030390Y+022080
X+030460Y+020590
X+030487Y+018849
X+035090Y+020000
X+035090Y+024900
X+035090Y+029790
X+035090Y+034690
X+035090Y+039590
X+030130Y+039590
X+026193Y+029955
X+023490Y+028660
X+023500Y+027770
X+022125Y+027675
X+022125Y+027350
X+021800Y+027350
X+021475Y+027350
X+021150Y+027350
X+021150Y+027675
X+021475Y+027675
X+021800Y+027675
X+021500Y+028300
X+020575Y+029875
X+020575Y+030250
X+020575Y+030625
X+019625Y+030625
X+019625Y+030250
X+019625Y+029875
X+019625Y+025475
X+019625Y+025075
X+019625Y+024600
X+020600Y+024600
X+020600Y+025075
X+020600Y+025475
X+023450Y+023790
X+023470Y+023310
X+025700Y+025020
X+026380Y+023810
X+017050Y+022120
X+016475Y+022045
X+016070Y+023380
X+014575Y+023275
X+014220Y+022830
X+014070Y+020460
X+012960Y+019400
X+011910Y+020430
X+011870Y+018230
X+010830Y+016570
X+009460Y+017950
X+009475Y+018600
X+009180Y+018900
X+009475Y+019250
X+008410Y+018730
X+007460Y+019800
X+005640Y+018710
X+009180Y+021110
X+014070Y+018250
X+010675Y+014100
X+011230Y+013220
X+011660Y+012750
X+011700Y+011720
X+013200Y+010590
X+013860Y+011520
X+011680Y+009090
X+011100Y+009180
X+011130Y+008780
X+010250Y+008375
X+009825Y+008375
X+009850Y+007875
X+010250Y+007900
X+011275Y+007600
X+010880Y+006780
X+010390Y+006790
X+009890Y+006790
X+009400Y+006790
X+008790Y+005140
X+009300Y+004100
X+010030Y+003800
X+008255Y+004075
X+006990Y+003825
X+006020Y+005050
X+004930Y+005460
X+006970Y+005920
X+006700Y+007200
X+006760Y+008060
X+007670Y+008700
X+012850Y+006260
X+012870Y+005560
X+012925Y+004060
X+015225Y+005210
X+016340Y+005020
X+016730Y+006130
X+017700Y+006080
X+019100Y+006080
X+019960Y+005480
X+020775Y+006070
X+021500Y+006025
X+020570Y+006890
X+021555Y+004550
X+023460Y+005130
X+024040Y+005080
X+023100Y+006050
X+026183Y+005935
X+026943Y+004455
X+027303Y+004465
X+027673Y+004465
X+028400Y+004540
X+028760Y+004540
X+028760Y+004890
X+028400Y+004900
X+029170Y+004900
X+029170Y+004540
X+031473Y+004425
X+031833Y+004435
X+032203Y+004435
X+032853Y+004985
X+032873Y+005415
X+033323Y+005425
X+033743Y+005425
X+033723Y+004995
X+033303Y+004995
X+033103Y+005925
X+032703Y+005925
X+032713Y+006325
X+032723Y+006715
X+033123Y+006715
X+033113Y+006325
X+032610Y+008080
X+032620Y+009960
X+035090Y+010200
X+035090Y+005310
X+035090Y+000410
X+030130Y+000410
X+030260Y+002460
X+030250Y+007320
X+030140Y+008560
X+030160Y+009030
X+030160Y+009490
X+029680Y+009500
X+029680Y+009060
X+029220Y+009030
X+029210Y+008590
X+029670Y+008590
X+029200Y+009500
X+027560Y+008180
X+026370Y+007850
X+025700Y+009070
X+026180Y+013915
X+035090Y+015100
X+025180Y+000410
X+020230Y+000410
X+017610Y+004540
X+014110Y+007490
X+015270Y+000410
X+010320Y+000410
X+005360Y+000410
X+000410Y+000410
X+000410Y+005300
X+000410Y+034690
X+004910Y+035340
X+005140Y+034950
X+005540Y+034950
X+005930Y+034950
X+005260Y+035760
X+005360Y+039590
X+000410Y+039590
X+013210Y+031950
T03
X+003169Y+030984G85X+002342Y+030984
X+003169Y+029016G85X+002342Y+029016
X+005138Y+026929G85X+004311Y+026929
X+005138Y+033071G85X+004311Y+033071
X+005420Y+006160
X+004630Y+006150
T04
X+023900Y+027090
X+023900Y+026303
X+023900Y+025515
X+023900Y+024728
X+023900Y+023940
X+023900Y+029140
X+023900Y+029928
X+023900Y+030715
X+023900Y+031503
X+023900Y+032290
X+006775Y+022380
X+006775Y+021592
X+006775Y+020805
X+006775Y+020017
X+006775Y+019230
X+001520Y+015870
X+001520Y+015081
X+001520Y+014292
X+015580Y+011430
X+015580Y+010643
X+015580Y+009855
X+015580Y+009068
X+015580Y+008280
T05
X+033720Y+031550
X+033720Y+032550
X+033720Y+033550
X+033720Y+034550
X+033723Y+035555
X+033490Y+037990
X+032490Y+037990
X+031230Y+037980
X+030230Y+037980
X+024560Y+037990
X+023560Y+037990
X+021650Y+037970
X+020650Y+037970
X+019320Y+037970
X+018320Y+037970
X+017010Y+037950
X+016010Y+037950
X+005460Y+023020
X+004460Y+023020
X+007840Y+017300
X+007840Y+016300
X+007840Y+015300
X+008840Y+015300
X+008840Y+016300
X+008840Y+017300
X+008540Y+012010
X+009540Y+012010
X+010540Y+012010
X+010540Y+011010
X+009540Y+011010
X+008540Y+011010
X+011860Y+002430
X+012860Y+002430
X+014090Y+002440
X+015090Y+002440
X+016370Y+002450
X+017370Y+002450
X+018370Y+002450
X+019830Y+002450
X+020830Y+002450
X+021830Y+002450
X+023200Y+002480
X+024200Y+002480
X+025200Y+002480
X+031290Y+002450
X+032290Y+002450
X+033290Y+002450
X+033713Y+006525
X+033710Y+007530
X+033710Y+008530
X+033710Y+009530
X+033710Y+010530
X+033713Y+011535
X+033710Y+014505
X+033707Y+015509
X+033707Y+016509
X+033707Y+017509
X+033707Y+018509
X+033710Y+019515
X+033723Y+022485
X+033720Y+023490
X+033720Y+024490
X+033720Y+025490
X+033720Y+026490
X+033723Y+027495
X+033723Y+030545
X+021075Y+018925
X+020075Y+018925
T06
X+004285Y+019508
X+003498Y+019508
X+003498Y+020492
X+004285Y+020492
T07
X+000590Y+029764G85X+000590Y+030236
X+004527Y+028976G85X+003858Y+028976
X+004527Y+031024G85X+003858Y+031024
X+000799Y+011949
X+000799Y+008799
T08
X+008550Y+002750
X+007550Y+002750
X+006550Y+002750
T09
X+002953Y+027638
T10
X+001378Y+030984
X+001378Y+029016
T11
X+006240Y+038080
X+007800Y+038080
X+012850Y+038080
X+014410Y+038080
T12
X+001378Y+026929
X+001378Y+033071
T13
X+002431Y+022370
X+002431Y+017630
T14
X+010148Y+002451
X+004952Y+002451
T15
X+002500Y+002500
X+027500Y+002500
X+027500Y+037500
X+002500Y+037500
T00
M30
