G04 DipTrace 2.4.0.1*
%INTopDimension.gbr*%
%MOIN*%
%ADD13C,0.0014*%
%ADD254C,0.0062*%
%FSLAX44Y44*%
G04*
G70*
G90*
G75*
G01*
%LNTopDimension*%
%LPD*%
X0Y40000D2*
D13*
Y42277D1*
X35500Y40000D2*
Y42277D1*
X17750Y42080D2*
X394D1*
G36*
X0D2*
X394Y42159D1*
Y42001D1*
X0Y42080D1*
G37*
X17750D2*
D13*
X35106D1*
G36*
X35500D2*
X35106Y42001D1*
Y42159D1*
X35500Y42080D1*
G37*
Y40000D2*
D13*
X43617D1*
X35500Y0D2*
X43617D1*
X43420Y20000D2*
Y39606D1*
G36*
Y40000D2*
X43499Y39606D1*
X43341D1*
X43420Y40000D1*
G37*
Y20000D2*
D13*
Y394D1*
G36*
Y0D2*
X43341Y394D1*
X43499D1*
X43420Y0D1*
G37*
X-1575Y26850D2*
D13*
Y25153D1*
X0Y40000D2*
Y25153D1*
X-1575Y25350D2*
X0D1*
X-2166D2*
X-1969D1*
G36*
X-1575D2*
X-1969Y25271D1*
Y25429D1*
X-1575Y25350D1*
G37*
X591D2*
D13*
X394D1*
G36*
X0D2*
X394Y25429D1*
Y25271D1*
X0Y25350D1*
G37*
X-1575Y17680D2*
D13*
Y15503D1*
X0Y0D2*
Y15897D1*
X-1575Y15700D2*
X0D1*
X-2165D2*
X-1969D1*
G36*
X-1575D2*
X-1969Y15621D1*
Y15779D1*
X-1575Y15700D1*
G37*
X591D2*
D13*
X394D1*
G36*
X0D2*
X394Y15779D1*
Y15621D1*
X0Y15700D1*
G37*
Y0D2*
D13*
Y4377D1*
X2500Y2500D2*
Y4377D1*
X1250Y4180D2*
X394D1*
G36*
X0D2*
X394Y4259D1*
Y4101D1*
X0Y4180D1*
G37*
X1250D2*
D13*
X2106D1*
G36*
X2500D2*
X2106Y4101D1*
Y4259D1*
X2500Y4180D1*
G37*
X0Y40000D2*
D13*
Y35113D1*
X2500Y37500D2*
Y35113D1*
X1250Y35310D2*
X394D1*
G36*
X0D2*
X394Y35389D1*
Y35231D1*
X0Y35310D1*
G37*
X1250D2*
D13*
X2106D1*
G36*
X2500D2*
X2106Y35231D1*
Y35389D1*
X2500Y35310D1*
G37*
X0Y40000D2*
D13*
X4697D1*
X2500Y37500D2*
X4697D1*
X4500Y38750D2*
Y39606D1*
G36*
Y40000D2*
X4579Y39606D1*
X4421D1*
X4500Y40000D1*
G37*
Y38750D2*
D13*
Y37894D1*
G36*
Y37500D2*
X4421Y37894D1*
X4579D1*
X4500Y37500D1*
G37*
X0Y0D2*
D13*
X4337D1*
X2500Y2500D2*
X4337D1*
X4140Y1250D2*
Y394D1*
G36*
Y0D2*
X4061Y394D1*
X4219D1*
X4140Y0D1*
G37*
Y1250D2*
D13*
Y2106D1*
G36*
Y2500D2*
X4219Y2106D1*
X4061D1*
X4140Y2500D1*
G37*
X0Y0D2*
D13*
Y-1377D1*
X8666Y9955D2*
Y-1377D1*
X4333Y-1180D2*
X394D1*
G36*
X0D2*
X394Y-1101D1*
Y-1259D1*
X0Y-1180D1*
G37*
X4333D2*
D13*
X8272D1*
G36*
X8666D2*
X8272Y-1259D1*
Y-1101D1*
X8666Y-1180D1*
G37*
X17098Y42604D2*
D254*
X17308D1*
X17194Y42451D1*
X17251D1*
X17289Y42432D1*
X17308Y42413D1*
X17328Y42355D1*
Y42317D1*
X17308Y42260D1*
X17270Y42221D1*
X17213Y42202D1*
X17155D1*
X17098Y42221D1*
X17079Y42241D1*
X17060Y42279D1*
X17681Y42604D2*
X17490D1*
X17471Y42432D1*
X17490Y42451D1*
X17547Y42470D1*
X17604D1*
X17662Y42451D1*
X17700Y42413D1*
X17719Y42355D1*
Y42317D1*
X17700Y42260D1*
X17662Y42221D1*
X17604Y42202D1*
X17547D1*
X17490Y42221D1*
X17471Y42241D1*
X17451Y42279D1*
X18072Y42604D2*
X17881D1*
X17862Y42432D1*
X17881Y42451D1*
X17939Y42470D1*
X17996D1*
X18053Y42451D1*
X18092Y42413D1*
X18111Y42355D1*
Y42317D1*
X18092Y42260D1*
X18053Y42221D1*
X17996Y42202D1*
X17939D1*
X17881Y42221D1*
X17862Y42241D1*
X17843Y42279D1*
X18349Y42604D2*
X18292Y42585D1*
X18253Y42527D1*
X18234Y42432D1*
Y42374D1*
X18253Y42279D1*
X18292Y42221D1*
X18349Y42202D1*
X18387D1*
X18445Y42221D1*
X18483Y42279D1*
X18502Y42374D1*
Y42432D1*
X18483Y42527D1*
X18445Y42585D1*
X18387Y42604D1*
X18349D1*
X18483Y42527D2*
X18253Y42279D1*
X43542Y20508D2*
X43944D1*
X43676Y20700D1*
Y20413D1*
X43944Y20174D2*
X43925Y20232D1*
X43867Y20270D1*
X43772Y20289D1*
X43714D1*
X43619Y20270D1*
X43561Y20232D1*
X43542Y20174D1*
Y20136D1*
X43561Y20079D1*
X43619Y20041D1*
X43714Y20021D1*
X43772D1*
X43867Y20041D1*
X43925Y20079D1*
X43944Y20136D1*
Y20174D1*
X43867Y20041D2*
X43619Y20270D1*
X43944Y19783D2*
X43925Y19840D1*
X43867Y19879D1*
X43772Y19898D1*
X43714D1*
X43619Y19879D1*
X43561Y19840D1*
X43542Y19783D1*
Y19745D1*
X43561Y19687D1*
X43619Y19649D1*
X43714Y19630D1*
X43772D1*
X43867Y19649D1*
X43925Y19687D1*
X43944Y19745D1*
Y19783D1*
X43867Y19649D2*
X43619Y19879D1*
X43944Y19391D2*
X43925Y19449D1*
X43867Y19487D1*
X43772Y19506D1*
X43714D1*
X43619Y19487D1*
X43561Y19449D1*
X43542Y19391D1*
Y19353D1*
X43561Y19296D1*
X43619Y19258D1*
X43714Y19238D1*
X43772D1*
X43867Y19258D1*
X43925Y19296D1*
X43944Y19353D1*
Y19391D1*
X43867Y19258D2*
X43619Y19487D1*
X-1473Y25797D2*
X-1434Y25817D1*
X-1377Y25874D1*
Y25472D1*
X-1024Y25874D2*
X-1215D1*
X-1234Y25702D1*
X-1215Y25721D1*
X-1157Y25740D1*
X-1100D1*
X-1043Y25721D1*
X-1004Y25683D1*
X-985Y25625D1*
Y25587D1*
X-1004Y25530D1*
X-1043Y25491D1*
X-1100Y25472D1*
X-1157D1*
X-1215Y25491D1*
X-1234Y25511D1*
X-1253Y25549D1*
X-785Y25472D2*
X-594Y25874D1*
X-862D1*
X-451Y25511D2*
X-470Y25491D1*
X-451Y25472D1*
X-432Y25491D1*
X-451Y25511D1*
X-79Y25874D2*
X-270D1*
X-289Y25702D1*
X-270Y25721D1*
X-212Y25740D1*
X-155D1*
X-98Y25721D1*
X-59Y25683D1*
X-40Y25625D1*
Y25587D1*
X-59Y25530D1*
X-98Y25491D1*
X-155Y25472D1*
X-212D1*
X-270Y25491D1*
X-289Y25511D1*
X-308Y25549D1*
X-1473Y16147D2*
X-1434Y16167D1*
X-1377Y16224D1*
Y15822D1*
X-1024Y16224D2*
X-1215D1*
X-1234Y16052D1*
X-1215Y16071D1*
X-1157Y16090D1*
X-1100D1*
X-1043Y16071D1*
X-1004Y16033D1*
X-985Y15975D1*
Y15937D1*
X-1004Y15880D1*
X-1043Y15841D1*
X-1100Y15822D1*
X-1157D1*
X-1215Y15841D1*
X-1234Y15861D1*
X-1253Y15899D1*
X-785Y15822D2*
X-594Y16224D1*
X-862D1*
X-451Y15861D2*
X-470Y15841D1*
X-451Y15822D1*
X-432Y15841D1*
X-451Y15861D1*
X-79Y16224D2*
X-270D1*
X-289Y16052D1*
X-270Y16071D1*
X-212Y16090D1*
X-155D1*
X-98Y16071D1*
X-59Y16033D1*
X-40Y15975D1*
Y15937D1*
X-59Y15880D1*
X-98Y15841D1*
X-155Y15822D1*
X-212D1*
X-270Y15841D1*
X-289Y15861D1*
X-308Y15899D1*
X775Y4608D2*
Y4627D1*
X794Y4666D1*
X813Y4685D1*
X851Y4704D1*
X928D1*
X966Y4685D1*
X985Y4666D1*
X1004Y4627D1*
Y4589D1*
X985Y4551D1*
X947Y4494D1*
X755Y4302D1*
X1023D1*
X1376Y4704D2*
X1185D1*
X1166Y4532D1*
X1185Y4551D1*
X1243Y4570D1*
X1300D1*
X1357Y4551D1*
X1396Y4513D1*
X1415Y4455D1*
Y4417D1*
X1396Y4360D1*
X1357Y4321D1*
X1300Y4302D1*
X1243D1*
X1185Y4321D1*
X1166Y4341D1*
X1147Y4379D1*
X1653Y4704D2*
X1596Y4685D1*
X1557Y4627D1*
X1538Y4532D1*
Y4474D1*
X1557Y4379D1*
X1596Y4321D1*
X1653Y4302D1*
X1691D1*
X1749Y4321D1*
X1787Y4379D1*
X1806Y4474D1*
Y4532D1*
X1787Y4627D1*
X1749Y4685D1*
X1691Y4704D1*
X1653D1*
X1787Y4627D2*
X1557Y4379D1*
X775Y35738D2*
Y35757D1*
X794Y35796D1*
X813Y35815D1*
X851Y35834D1*
X928D1*
X966Y35815D1*
X985Y35796D1*
X1004Y35757D1*
Y35719D1*
X985Y35681D1*
X947Y35624D1*
X755Y35432D1*
X1023D1*
X1376Y35834D2*
X1185D1*
X1166Y35662D1*
X1185Y35681D1*
X1243Y35700D1*
X1300D1*
X1357Y35681D1*
X1396Y35643D1*
X1415Y35585D1*
Y35547D1*
X1396Y35490D1*
X1357Y35451D1*
X1300Y35432D1*
X1243D1*
X1185Y35451D1*
X1166Y35471D1*
X1147Y35509D1*
X1653Y35834D2*
X1596Y35815D1*
X1557Y35757D1*
X1538Y35662D1*
Y35604D1*
X1557Y35509D1*
X1596Y35451D1*
X1653Y35432D1*
X1691D1*
X1749Y35451D1*
X1787Y35509D1*
X1806Y35604D1*
Y35662D1*
X1787Y35757D1*
X1749Y35815D1*
X1691Y35834D1*
X1653D1*
X1787Y35757D2*
X1557Y35509D1*
X4928Y39225D2*
X4947D1*
X4986Y39206D1*
X5005Y39187D1*
X5024Y39149D1*
Y39072D1*
X5005Y39034D1*
X4986Y39015D1*
X4947Y38996D1*
X4909D1*
X4871Y39015D1*
X4814Y39053D1*
X4622Y39245D1*
Y38977D1*
X5024Y38624D2*
Y38815D1*
X4852Y38834D1*
X4871Y38815D1*
X4890Y38757D1*
Y38700D1*
X4871Y38643D1*
X4833Y38604D1*
X4775Y38585D1*
X4737D1*
X4680Y38604D1*
X4641Y38643D1*
X4622Y38700D1*
Y38757D1*
X4641Y38815D1*
X4661Y38834D1*
X4699Y38853D1*
X5024Y38347D2*
X5005Y38404D1*
X4947Y38443D1*
X4852Y38462D1*
X4794D1*
X4699Y38443D1*
X4641Y38404D1*
X4622Y38347D1*
Y38309D1*
X4641Y38251D1*
X4699Y38213D1*
X4794Y38194D1*
X4852D1*
X4947Y38213D1*
X5005Y38251D1*
X5024Y38309D1*
Y38347D1*
X4947Y38213D2*
X4699Y38443D1*
X4568Y1725D2*
X4587D1*
X4626Y1706D1*
X4645Y1687D1*
X4664Y1649D1*
Y1572D1*
X4645Y1534D1*
X4626Y1515D1*
X4587Y1496D1*
X4549D1*
X4511Y1515D1*
X4454Y1553D1*
X4262Y1745D1*
Y1477D1*
X4664Y1124D2*
Y1315D1*
X4492Y1334D1*
X4511Y1315D1*
X4530Y1257D1*
Y1200D1*
X4511Y1143D1*
X4473Y1104D1*
X4415Y1085D1*
X4377D1*
X4320Y1104D1*
X4281Y1143D1*
X4262Y1200D1*
Y1257D1*
X4281Y1315D1*
X4301Y1334D1*
X4339Y1353D1*
X4664Y847D2*
X4645Y904D1*
X4587Y943D1*
X4492Y962D1*
X4434D1*
X4339Y943D1*
X4281Y904D1*
X4262Y847D1*
Y809D1*
X4281Y751D1*
X4339Y713D1*
X4434Y694D1*
X4492D1*
X4587Y713D1*
X4645Y751D1*
X4664Y809D1*
Y847D1*
X4587Y713D2*
X4339Y943D1*
X3687Y-656D2*
X3630Y-675D1*
X3610Y-713D1*
Y-752D1*
X3630Y-790D1*
X3668Y-809D1*
X3744Y-828D1*
X3802Y-847D1*
X3840Y-886D1*
X3859Y-924D1*
Y-981D1*
X3840Y-1019D1*
X3821Y-1039D1*
X3763Y-1058D1*
X3687D1*
X3630Y-1039D1*
X3610Y-1019D1*
X3591Y-981D1*
Y-924D1*
X3610Y-886D1*
X3649Y-847D1*
X3706Y-828D1*
X3782Y-809D1*
X3821Y-790D1*
X3840Y-752D1*
Y-713D1*
X3821Y-675D1*
X3763Y-656D1*
X3687D1*
X4212Y-713D2*
X4193Y-675D1*
X4135Y-656D1*
X4097D1*
X4040Y-675D1*
X4001Y-733D1*
X3982Y-828D1*
Y-924D1*
X4001Y-1000D1*
X4040Y-1039D1*
X4097Y-1058D1*
X4116D1*
X4173Y-1039D1*
X4212Y-1000D1*
X4231Y-943D1*
Y-924D1*
X4212Y-866D1*
X4173Y-828D1*
X4116Y-809D1*
X4097D1*
X4040Y-828D1*
X4001Y-866D1*
X3982Y-924D1*
X4584Y-713D2*
X4565Y-675D1*
X4507Y-656D1*
X4469D1*
X4412Y-675D1*
X4373Y-733D1*
X4354Y-828D1*
Y-924D1*
X4373Y-1000D1*
X4412Y-1039D1*
X4469Y-1058D1*
X4488D1*
X4545Y-1039D1*
X4584Y-1000D1*
X4603Y-943D1*
Y-924D1*
X4584Y-866D1*
X4545Y-828D1*
X4488Y-809D1*
X4469D1*
X4412Y-828D1*
X4373Y-866D1*
X4354Y-924D1*
X4745Y-1019D2*
X4726Y-1039D1*
X4745Y-1058D1*
X4765Y-1039D1*
X4745Y-1019D1*
X5118Y-713D2*
X5099Y-675D1*
X5041Y-656D1*
X5003D1*
X4946Y-675D1*
X4907Y-733D1*
X4888Y-828D1*
Y-924D1*
X4907Y-1000D1*
X4946Y-1039D1*
X5003Y-1058D1*
X5022D1*
X5079Y-1039D1*
X5118Y-1000D1*
X5137Y-943D1*
Y-924D1*
X5118Y-866D1*
X5079Y-828D1*
X5022Y-809D1*
X5003D1*
X4946Y-828D1*
X4907Y-866D1*
X4888Y-924D1*
M02*
