G04 DipTrace 2.4.0.1*
%INTopMask.gbr*%
%MOIN*%
%ADD14C,0.04*%
%ADD25R,0.0551X0.1181*%
%ADD28R,0.1181X0.0551*%
%ADD44R,0.0591X0.0591*%
%ADD46C,0.0591*%
%ADD60R,0.0591X0.0394*%
%ADD61R,0.0709X0.0315*%
%ADD62R,0.061X0.0394*%
%ADD75R,0.05X0.025*%
%ADD90R,0.0413X0.0256*%
%ADD97R,0.0236X0.0787*%
%ADD102C,0.0669*%
%ADD103C,0.1339*%
%ADD104C,0.0394*%
%ADD105C,0.145*%
%ADD114C,0.03*%
%ADD117R,0.0828X0.108*%
%ADD119R,0.0316X0.0867*%
%ADD120R,0.2501X0.2265*%
%ADD122R,0.1163X0.0474*%
%ADD124R,0.1419X0.1419*%
%ADD126O,0.0474X0.0198*%
%ADD128O,0.0198X0.0474*%
%ADD133R,0.0997X0.0812*%
%ADD135R,0.0997X0.0966*%
%ADD137R,0.0336X0.0277*%
%ADD139R,0.0946X0.0395*%
%ADD141R,0.0237X0.0434*%
%ADD143R,0.1045X0.1045*%
%ADD145R,0.2993X0.2993*%
%ADD147O,0.0198X0.0415*%
%ADD149O,0.0415X0.0198*%
%ADD151R,0.0277X0.0789*%
%ADD153R,0.0789X0.0277*%
%ADD155C,0.0552*%
%ADD159R,0.0867X0.0867*%
%ADD161R,0.071X0.0867*%
%ADD163R,0.0592X0.0671*%
%ADD165R,0.1202X0.0572*%
%ADD167R,0.2639X0.2265*%
%ADD169R,0.0336X0.0493*%
%ADD171R,0.1104X0.1852*%
%ADD173C,0.0572*%
%ADD175C,0.0572*%
%ADD177R,0.0572X0.0572*%
%ADD185R,0.0552X0.0474*%
%ADD187R,0.0474X0.0552*%
%ADD189R,0.0867X0.1332*%
%ADD191R,0.071X0.0438*%
%ADD193R,0.071X0.1064*%
%ADD195R,0.0438X0.071*%
%ADD197R,0.1064X0.071*%
%ADD201C,0.0785*%
%ADD203C,0.108*%
%ADD207R,0.108X0.108*%
%ADD209C,0.0671*%
%ADD212R,0.0671X0.0671*%
%ADD216C,0.1379*%
%ADD220C,0.0639*%
%ADD223C,0.0907*%
%ADD227C,0.1261*%
%ADD229O,0.1458X0.0789*%
%ADD232O,0.1458X0.0631*%
%ADD236O,0.0789X0.1261*%
%ADD238R,0.0789X0.071*%
%ADD240R,0.0513X0.0474*%
%ADD244R,0.0474X0.0513*%
%ADD246R,0.071X0.0789*%
%FSLAX44Y44*%
G04*
G70*
G90*
G75*
G01*
%LNTopMask*%
%LPD*%
D14*
X4493Y10413D3*
X5000Y13610D3*
X7420Y9880D3*
X6330Y25480D3*
X19960Y5480D3*
X23460Y5130D3*
X19960Y5480D3*
X17040Y16340D3*
X24325Y19775D3*
Y20225D3*
X17350Y16080D3*
X18830Y17975D3*
X6020Y5050D3*
X6900Y16650D3*
X9460Y17950D3*
X11700Y11720D3*
X11660Y12750D3*
X4430Y12590D3*
X10830Y16570D3*
X17700Y6080D3*
X18200Y17660D3*
X17950Y15680D3*
X8870Y31500D3*
X17610Y4540D3*
X18550Y17350D3*
X17680Y16380D3*
X8525Y26925D3*
X6700Y7200D3*
X6760Y8060D3*
X5360Y14280D3*
X7371Y12359D3*
X23500Y27770D3*
X16475Y22045D3*
X23490Y28660D3*
X23470Y23310D3*
X17050Y22120D3*
X23450Y23790D3*
X24325Y20700D3*
X24395Y21080D3*
X16900Y35190D3*
X19290Y34960D3*
X21650Y35110D3*
X2370Y25820D3*
Y25280D3*
X4930Y15390D3*
X7790Y33160D3*
X30170Y33510D3*
Y33050D3*
X30150Y32580D3*
X29690Y33080D3*
Y33520D3*
X29680Y32610D3*
X29220D3*
X29230Y33050D3*
X29210Y33520D3*
D114*
X28810Y31590D3*
X29150Y31580D3*
X29650D3*
X28130Y32380D3*
X28240Y32940D3*
X28000Y33150D3*
X28180Y33460D3*
X29590Y34500D3*
D14*
X30500Y34890D3*
X28290Y35210D3*
X32630Y33980D3*
X32620Y32100D3*
X30260Y31340D3*
X28410Y28560D3*
Y28920D3*
X29180D3*
X28770Y28560D3*
Y28910D3*
X29180Y28560D3*
X29400Y35330D3*
X28850D3*
X29400Y35760D3*
X28850D3*
X32040Y35620D3*
X31670D3*
X31230D3*
X26730Y35630D3*
D114*
X25893Y32195D3*
X25453Y33555D3*
Y34275D3*
X25873Y35385D3*
D14*
X26380Y31870D3*
X9890Y6790D3*
X10940Y32880D3*
X11410Y32870D3*
X11900Y32850D3*
X13210Y31950D3*
X11930Y30190D3*
X12610Y30210D3*
X12600Y29150D3*
X9440Y29580D3*
X7610Y31010D3*
X8030D3*
X7590Y29100D3*
X8060Y29080D3*
X7700Y29670D3*
Y30080D3*
X7710Y30490D3*
X10770Y35410D3*
X11100Y35020D3*
X11470Y35010D3*
X11860Y35020D3*
X5140Y34950D3*
X5540D3*
X5930D3*
X4910Y35340D3*
X12550Y25110D3*
Y24040D3*
X11720Y25160D3*
X9370Y24410D3*
X9400Y6790D3*
X10730Y27860D3*
X11130D3*
X11540Y27850D3*
X12870Y27000D3*
X19320Y35650D3*
X17750Y34080D3*
X20110Y34110D3*
X33133Y30735D3*
X33123Y30345D3*
X33113Y29945D3*
X32733Y30735D3*
X32723Y30345D3*
X32713Y29945D3*
X32883Y29435D3*
X33753Y29445D3*
X33333D3*
X32863Y29005D3*
X33733Y29015D3*
X33313D3*
X31483Y28445D3*
X32213Y28455D3*
X31843D3*
X26953Y28475D3*
X27683Y28485D3*
X27313D3*
X33133Y22675D3*
X26193Y29955D3*
X33123Y22285D3*
X33113Y21885D3*
X32733Y22675D3*
X32723Y22285D3*
X32713Y21885D3*
X32883Y21375D3*
X33753Y21385D3*
X33333D3*
X30170Y25450D3*
Y24990D3*
X30150Y24520D3*
X29690Y25020D3*
Y25460D3*
X29680Y24550D3*
X29220D3*
X29230Y24990D3*
X29210Y25460D3*
D114*
X28800Y23540D3*
X29140Y23510D3*
X29670Y23500D3*
X28090Y24270D3*
X28220Y24860D3*
X28000Y25090D3*
X28240Y25390D3*
X29590Y26440D3*
D14*
X30500Y26830D3*
X28290Y27150D3*
X32630Y25920D3*
X32620Y24040D3*
X30260Y23280D3*
X28410Y20500D3*
Y20860D3*
X29180D3*
X28770Y20500D3*
Y20850D3*
X29180Y20500D3*
X29400Y27270D3*
X28850D3*
X29400Y27700D3*
X28850D3*
X32040Y27560D3*
X31670D3*
X31230D3*
X26730Y27570D3*
D114*
X25893Y24135D3*
X25453Y25495D3*
Y26215D3*
X25873Y27325D3*
D14*
X26380Y23810D3*
X32863Y20945D3*
X33733Y20955D3*
X33313D3*
X31483Y20385D3*
X32213Y20395D3*
X31843D3*
X26953Y20415D3*
X27683Y20425D3*
X27313D3*
X26193Y21895D3*
X33120Y14695D3*
X33110Y14305D3*
X33100Y13905D3*
X32720Y14695D3*
X32710Y14305D3*
X32700Y13905D3*
X32870Y13395D3*
X33740Y13405D3*
X33320D3*
X30157Y17469D3*
Y17009D3*
X30137Y16539D3*
X29677Y17039D3*
Y17479D3*
X29667Y16569D3*
X29207D3*
X29217Y17009D3*
X29197Y17479D3*
D114*
X28750Y15550D3*
X29100Y15540D3*
X29690Y15550D3*
X28130Y16320D3*
X28220Y16870D3*
X27987Y17109D3*
X28220Y17400D3*
X29577Y18459D3*
D14*
X30487Y18849D3*
X28277Y19169D3*
X32617Y17939D3*
X32607Y16059D3*
X30247Y15299D3*
X28397Y12519D3*
Y12879D3*
X29167D3*
X28757Y12519D3*
Y12869D3*
X29167Y12519D3*
X29387Y19289D3*
X28837D3*
X29387Y19719D3*
X28837D3*
X32027Y19579D3*
X31657D3*
X31217D3*
X26717Y19589D3*
D114*
X25880Y16155D3*
X25440Y17515D3*
Y18235D3*
X25860Y19345D3*
D14*
X26367Y15829D3*
X32850Y12965D3*
X33720Y12975D3*
X33300D3*
X31470Y12405D3*
X32200Y12415D3*
X31830D3*
X26940Y12435D3*
X27670Y12445D3*
X27300D3*
X26180Y13915D3*
X33123Y6715D3*
X33113Y6325D3*
X33103Y5925D3*
X32723Y6715D3*
X32713Y6325D3*
X32703Y5925D3*
X32873Y5415D3*
X33743Y5425D3*
X33323D3*
X30160Y9490D3*
Y9030D3*
X30140Y8560D3*
X29680Y9060D3*
Y9500D3*
X29670Y8590D3*
X29210D3*
X29220Y9030D3*
X29200Y9500D3*
D114*
X28840Y7580D3*
X29160Y7560D3*
X29670Y7580D3*
X28170Y8420D3*
X28225Y8900D3*
X27950Y9125D3*
X28225Y9350D3*
X29590Y10470D3*
D14*
X30490Y10870D3*
X28280Y11190D3*
X32620Y9960D3*
X32610Y8080D3*
X30250Y7320D3*
X28400Y4540D3*
Y4900D3*
X29170D3*
X28760Y4540D3*
Y4890D3*
X29170Y4540D3*
X29390Y11310D3*
X28840D3*
X29390Y11740D3*
X28840D3*
X32030Y11600D3*
X31660D3*
X31220D3*
X26720Y11610D3*
D114*
X25883Y8175D3*
X25443Y9535D3*
Y10255D3*
X25863Y11365D3*
D14*
X26370Y7850D3*
X32853Y4985D3*
X33723Y4995D3*
X33303D3*
X31473Y4425D3*
X32203Y4435D3*
X31833D3*
X26943Y4455D3*
X27673Y4465D3*
X27303D3*
X26183Y5935D3*
X22530Y34130D3*
X19625Y30250D3*
X20575D3*
Y29875D3*
X19625D3*
X20575Y30625D3*
X19625D3*
X21625Y33450D3*
X410Y39590D3*
X8140Y33150D3*
X19100Y6080D3*
X21500Y6025D3*
X10390Y6790D3*
X10880Y6780D3*
X8490Y33150D3*
X11275Y7600D3*
X11130Y8780D3*
X11680Y9090D3*
X11100Y9180D3*
X9825Y8375D3*
X4520Y11260D3*
X8840Y33140D3*
X15510Y12700D3*
X15140Y12410D3*
X14850Y14830D3*
X14560Y15410D3*
X14120Y14820D3*
X13900Y15200D3*
X13600Y15425D3*
X13300Y14970D3*
X11700Y15425D3*
X12350D3*
X12025Y15225D3*
X11230Y13220D3*
X14330Y13260D3*
X8540Y13150D3*
X20600Y25475D3*
Y25075D3*
Y24600D3*
X19625Y25475D3*
Y25075D3*
Y24600D3*
X21500Y28300D3*
X21150Y27675D3*
X21475D3*
X21800D3*
X22125D3*
X21150Y27350D3*
X21475D3*
X21800D3*
X22125D3*
X10310Y21820D3*
X9900D3*
X14575Y23275D3*
X10250Y8375D3*
Y7900D3*
X19050Y19175D3*
X18175Y18900D3*
X18475Y18575D3*
X9850Y7875D3*
X10725Y22775D3*
X11725Y22725D3*
X12025Y22950D3*
X14220Y22830D3*
X16070Y23380D3*
X9025Y23250D3*
X9475Y18600D3*
X9180Y18900D3*
X11390Y15200D3*
X11075Y15425D3*
X5375Y16175D3*
X20775Y6070D3*
X16730Y6130D3*
X15225Y5210D3*
X30260Y2460D3*
X24040Y5080D3*
X21555Y4550D3*
X16340Y5020D3*
X13200Y10590D3*
X12850Y6260D3*
X10030Y3800D3*
X12925Y4060D3*
X19560Y19870D3*
X21350Y19875D3*
X19740Y21390D3*
X9675Y15450D3*
X10325Y15475D3*
X9125Y22325D3*
X21860Y21360D3*
X5700Y16360D3*
X5980Y14970D3*
X5640Y18710D3*
X2325Y15350D3*
X23100Y6050D3*
X6990Y3825D3*
X8255Y4075D3*
X9300Y4100D3*
X7410Y11010D3*
X10675Y14100D3*
X9575Y14750D3*
X9180Y21110D3*
X9475Y19250D3*
X7670Y8700D3*
X6675Y28550D3*
X6700Y27975D3*
Y27425D3*
X6100Y32650D3*
X6075Y31725D3*
X6525D3*
Y32650D3*
X5700D3*
X5675Y31725D3*
X410Y410D3*
X35090Y39590D3*
Y410D3*
X4930Y5460D3*
X6970Y5920D3*
X8790Y5140D3*
X13860Y11520D3*
X12870Y5560D3*
X14110Y7490D3*
X6430Y9880D3*
X12960Y19400D3*
X11910Y20430D3*
X14070Y20460D3*
Y18250D3*
X11870Y18230D3*
X410Y5300D3*
Y15100D3*
Y20000D3*
Y24900D3*
Y34690D3*
X35090D3*
Y29790D3*
Y24900D3*
X5360Y39590D3*
X35090Y20000D3*
Y15100D3*
Y10200D3*
Y5310D3*
X10320Y39590D3*
X15270D3*
X20230D3*
X25180D3*
X30130D3*
X5360Y410D3*
X10320D3*
X15270D3*
X20230D3*
X25180D3*
X30130D3*
X20570Y6890D3*
X7210Y11880D3*
X16040Y13680D3*
X17640Y14920D3*
D114*
X16870Y21400D3*
D14*
X19240Y18710D3*
X22080Y19890D3*
X25700Y9070D3*
X27560Y8180D3*
X27300Y11030D3*
X25710Y17060D3*
X27290Y18900D3*
X30250Y12540D3*
X30210Y14130D3*
X27480Y16180D3*
X30460Y20590D3*
X30390Y22080D3*
X25700Y25020D3*
X27340Y26860D3*
X30350Y30100D3*
X30400Y28600D3*
X25720Y33130D3*
X27360Y34970D3*
X27510Y32210D3*
X5260Y35760D3*
X7460Y19800D3*
X8410Y18730D3*
X2370Y24610D3*
Y24040D3*
D114*
X12350Y22670D3*
X12670Y22680D3*
X12980Y22670D3*
X13290D3*
X13610D3*
X13920Y22660D3*
X9560Y17360D3*
X9600Y17030D3*
X17170Y21400D3*
X17460D3*
X18020D3*
X17740D3*
X18320D3*
X23750Y22450D3*
Y22150D3*
X23740Y21850D3*
X23390Y21880D3*
X23380Y21590D3*
X23220Y21340D3*
D25*
X20100Y26925D3*
Y25035D3*
X20110Y32120D3*
Y30230D3*
D246*
X11250Y23250D3*
X10148D3*
D244*
X8110Y14180D3*
Y13511D3*
D28*
X8410Y32200D3*
X6520D3*
D240*
X7850Y28530D3*
X7181D3*
X13180Y10180D3*
X13849D3*
X7850Y27970D3*
X7181D3*
X10700Y4170D3*
X10031D3*
X13605Y4510D3*
X12936D3*
D246*
X3975Y15875D3*
X2873D3*
D238*
X6995Y5425D3*
Y4323D3*
D240*
X10750Y14775D3*
X10081D3*
X15000Y23310D3*
X15669D3*
X7860Y27420D3*
X7191D3*
D246*
X11892Y29650D3*
X10790D3*
D238*
X22175Y26150D3*
Y25048D3*
D244*
X9805Y24425D3*
Y25095D3*
D240*
X10230Y28340D3*
X9561D3*
D244*
X13415Y26485D3*
Y25815D3*
D246*
X11770Y24570D3*
X10668D3*
D238*
X22030Y31410D3*
Y30308D3*
D244*
X9892Y29600D3*
Y30269D3*
D240*
X10690Y33460D3*
X10021D3*
D244*
X13672Y31520D3*
Y30851D3*
X9300Y5152D3*
Y4483D3*
X8250Y5127D3*
Y4458D3*
X13240Y5580D3*
Y6249D3*
X14425Y14300D3*
Y13631D3*
D246*
X3975Y14800D3*
X2873D3*
D244*
X9525Y22400D3*
Y23069D3*
D240*
X14140Y23290D3*
X13471D3*
D244*
X11225Y14250D3*
Y13581D3*
D240*
X6070Y18110D3*
X5401D3*
D244*
X28270Y31700D3*
Y31031D3*
D240*
X29050Y34700D3*
X28381D3*
D244*
X29960Y35250D3*
Y34581D3*
D240*
X27660Y33550D3*
X26991D3*
D244*
X27850Y35200D3*
Y34531D3*
D28*
X31220Y29540D3*
X29330D3*
D244*
X28270Y23640D3*
Y22971D3*
D240*
X29050Y26640D3*
X28381D3*
D244*
X29960Y27190D3*
Y26521D3*
D240*
X27660Y25490D3*
X26991D3*
D244*
X27850Y27140D3*
Y26471D3*
D28*
X31220Y21480D3*
X29330D3*
D244*
X28257Y15659D3*
Y14990D3*
D240*
X29037Y18659D3*
X28368D3*
D244*
X29947Y19209D3*
Y18540D3*
D240*
X27647Y17509D3*
X26978D3*
D244*
X27837Y19159D3*
Y18490D3*
D28*
X31207Y13499D3*
X29317D3*
D244*
X28260Y7680D3*
Y7011D3*
D240*
X29040Y10680D3*
X28371D3*
D244*
X29950Y11230D3*
Y10561D3*
D240*
X27650Y9530D3*
X26981D3*
D244*
X27840Y11180D3*
Y10511D3*
D28*
X31210Y5520D3*
X29320D3*
D236*
X590Y30000D3*
D232*
X2756Y30984D3*
D229*
X4193Y28976D3*
Y31024D3*
D232*
X2756Y29016D3*
D227*
X1378Y26929D3*
Y33071D3*
D232*
X4724Y26929D3*
Y33071D3*
D223*
X2953Y27638D3*
D102*
X1378Y30984D3*
Y29016D3*
D220*
X4285Y19508D3*
Y20492D3*
X3498D3*
Y19508D3*
D216*
X2431Y22370D3*
Y17630D3*
D212*
X33720Y31550D3*
D209*
Y32550D3*
Y33550D3*
Y34550D3*
D212*
Y23490D3*
D209*
Y24490D3*
Y25490D3*
Y26490D3*
D212*
X33707Y15509D3*
D209*
Y16509D3*
Y17509D3*
Y18509D3*
D212*
X33710Y7530D3*
D209*
Y8530D3*
Y9530D3*
Y10530D3*
D207*
X6240Y38080D3*
D203*
X7800D3*
D207*
X12850D3*
D203*
X14410D3*
D212*
X16010Y37950D3*
D209*
X17010D3*
D212*
X33290Y2450D3*
D209*
X32290D3*
X31290D3*
D212*
X25200Y2480D3*
D209*
X24200D3*
X23200D3*
D212*
X21830Y2450D3*
D209*
X20830D3*
X19830D3*
D212*
X18370D3*
D209*
X17370D3*
X16370D3*
D212*
X15090Y2440D3*
D209*
X14090D3*
D212*
X12860Y2430D3*
D209*
X11860D3*
D201*
X8550Y2750D3*
X7550D3*
X6550D3*
D103*
X10148Y2451D3*
X4952D3*
D212*
X20650Y37970D3*
D209*
X21650D3*
D212*
X18320D3*
D209*
X19320D3*
D212*
X32490Y37990D3*
D209*
X33490D3*
D212*
X30230Y37980D3*
D209*
X31230D3*
D212*
X23560Y37990D3*
D209*
X24560D3*
D240*
X21050Y28325D3*
X20381D3*
D197*
X13722Y29720D3*
D195*
X12611D3*
D197*
X13652Y24562D3*
D195*
X12540D3*
D240*
X21019Y33440D3*
X20350D3*
X11880Y11130D3*
X12549D3*
X12190Y12520D3*
X12859D3*
D193*
X6930Y9890D3*
D191*
Y11002D3*
D189*
X6360Y30030D3*
X8329D3*
D187*
X1522Y34350D3*
X2309D3*
D185*
X5380Y17578D3*
Y16791D3*
D187*
X2822Y34370D3*
X3609D3*
G36*
X4786Y12283D2*
X5474D1*
Y12008D1*
X4786D1*
Y12283D1*
G37*
G36*
Y11850D2*
X5474D1*
Y11575D1*
X4786D1*
Y11850D1*
G37*
G36*
Y11417D2*
X5474D1*
Y11142D1*
X4786D1*
Y11417D1*
G37*
G36*
Y10984D2*
X5474D1*
Y10709D1*
X4786D1*
Y10984D1*
G37*
G36*
Y10551D2*
X5474D1*
Y10276D1*
X4786D1*
Y10551D1*
G37*
G36*
Y10118D2*
X5474D1*
Y9843D1*
X4786D1*
Y10118D1*
G37*
G36*
Y9685D2*
X5474D1*
Y9409D1*
X4786D1*
Y9685D1*
G37*
G36*
Y9252D2*
X5474D1*
Y8976D1*
X4786D1*
Y9252D1*
G37*
G36*
Y12717D2*
X5474D1*
Y12441D1*
X4786D1*
Y12717D1*
G37*
D60*
X4894Y13071D3*
D61*
X957D3*
D62*
X4894Y7244D3*
D61*
X957Y6929D3*
D104*
X799Y11949D3*
Y8799D3*
D177*
X23900Y27090D3*
D173*
Y26303D3*
Y25515D3*
D175*
Y24728D3*
Y23940D3*
D177*
Y32290D3*
D173*
Y31503D3*
Y30715D3*
D175*
Y29928D3*
Y29140D3*
D177*
X1520Y15870D3*
D173*
Y15081D3*
Y14292D3*
D177*
X6775Y19230D3*
D173*
Y20017D3*
Y20805D3*
D175*
Y21592D3*
Y22380D3*
D44*
X7840Y17300D3*
D46*
X8840D3*
X7840Y16300D3*
X8840D3*
X7840Y15300D3*
X8840D3*
D212*
X20075Y18925D3*
D209*
X21075D3*
D44*
X8540Y11010D3*
D46*
Y12010D3*
X9540Y11010D3*
Y12010D3*
X10540Y11010D3*
Y12010D3*
D212*
X5460Y23020D3*
D209*
X4460D3*
D177*
X15580Y11430D3*
D173*
Y10643D3*
Y9855D3*
D175*
Y9068D3*
Y8280D3*
D171*
X14890Y26480D3*
X18040D3*
X14940Y31650D3*
X18090D3*
D169*
X21975Y6050D3*
X22723D3*
X22349Y6956D3*
X19675Y6075D3*
X20423D3*
X20049Y6981D3*
D167*
X14030Y35440D3*
D165*
X11510Y36338D3*
Y34542D3*
D167*
X8110Y35350D3*
D165*
X5590Y36248D3*
Y34452D3*
D169*
X5675Y5050D3*
X4927D3*
X5301Y4144D3*
X17720Y36140D3*
X16972D3*
X17346Y35234D3*
X22420Y36130D3*
X21672D3*
X22046Y35224D3*
X20080Y36110D3*
X19332D3*
X19706Y35204D3*
D240*
X13190Y11150D3*
X13859D3*
D244*
X4510Y35720D3*
Y36389D3*
X10400Y34410D3*
Y35079D3*
D240*
X19440Y34540D3*
X20109D3*
D163*
X31316Y32106D3*
X32064D3*
X31320Y33980D3*
X32068D3*
D240*
X10325Y15900D3*
X9656D3*
X20125Y19875D3*
X20794D3*
D244*
X11420Y4850D3*
Y4181D3*
D240*
X8920Y20110D3*
X8251D3*
D163*
X31316Y24046D3*
X32064D3*
D240*
X17120Y34560D3*
X17789D3*
X6140Y8720D3*
X6809D3*
D163*
X31320Y25920D3*
X32068D3*
X31303Y16065D3*
X32051D3*
X31307Y17939D3*
X32055D3*
X31306Y8086D3*
X32054D3*
X31310Y9960D3*
X32058D3*
D244*
X4510Y34370D3*
Y35039D3*
X30255Y2935D3*
Y3605D3*
D240*
X23990Y4510D3*
X23321D3*
X21124Y4525D3*
X20455D3*
X16400Y4580D3*
X17069D3*
X13100Y28290D3*
X13769D3*
X11740D3*
X12409D3*
D244*
X9050Y28310D3*
Y27641D3*
X9040Y26900D3*
Y26231D3*
D240*
X13260Y33380D3*
X13929D3*
X12040D3*
X12709D3*
D244*
X9430Y33390D3*
Y32721D3*
Y31940D3*
Y31271D3*
D240*
X19625Y28325D3*
X18956D3*
X19709Y33420D3*
X19040D3*
X22025Y5100D3*
X22694D3*
D244*
X10190Y13415D3*
Y14085D3*
D240*
X8040Y12910D3*
X7371D3*
D244*
X10400Y35740D3*
Y36409D3*
D240*
X21870Y34570D3*
X22539D3*
D244*
X13240Y9500D3*
Y8831D3*
X18805Y36000D3*
Y35330D3*
X13780Y9500D3*
Y8831D3*
D240*
X17700Y5480D3*
X18369D3*
X13410Y12530D3*
X14079D3*
X6840Y7640D3*
X6171D3*
X27000Y32740D3*
X27669D3*
X25150Y32550D3*
X25819D3*
X25171Y35010D3*
X25840D3*
X25710Y28480D3*
X25041D3*
D161*
X26170Y29250D3*
D159*
X25707Y31612D3*
D161*
X25245Y29250D3*
D240*
X6790Y6750D3*
X6121D3*
D244*
X14860Y5200D3*
Y4531D3*
D240*
X27000Y24680D3*
X27669D3*
X25150Y24490D3*
X25819D3*
X25171Y26950D3*
X25840D3*
X25710Y20420D3*
X25041D3*
D161*
X26170Y21190D3*
D159*
X25707Y23552D3*
D161*
X25245Y21190D3*
D240*
X8920Y20580D3*
X8251D3*
D244*
X8725Y22225D3*
Y21556D3*
D240*
X26987Y16699D3*
X27657D3*
X25137Y16509D3*
X25807D3*
X25158Y18969D3*
X25827D3*
X25697Y12439D3*
X25028D3*
D161*
X26157Y13209D3*
D159*
X25695Y15572D3*
D161*
X25232Y13209D3*
D240*
X21180Y21390D3*
X20511D3*
X26990Y8720D3*
X27659D3*
X25140Y8530D3*
X25809D3*
X25161Y10990D3*
X25830D3*
X25700Y4460D3*
X25031D3*
D161*
X26160Y5230D3*
D159*
X25697Y7592D3*
D161*
X25235Y5230D3*
D75*
X25830Y34260D3*
Y33910D3*
Y33560D3*
Y26200D3*
Y25850D3*
Y25500D3*
X25817Y18219D3*
Y17869D3*
Y17519D3*
X25820Y10240D3*
Y9890D3*
Y9540D3*
D155*
X4630Y6150D3*
X5420Y6160D3*
D153*
X10070Y21440D3*
Y21125D3*
Y20810D3*
Y20495D3*
Y20180D3*
Y19865D3*
Y19550D3*
Y19235D3*
Y18920D3*
Y18605D3*
Y18290D3*
Y17975D3*
Y17660D3*
Y17346D3*
Y17031D3*
Y16716D3*
D151*
X10779Y16007D3*
X11094D3*
X11409D3*
X11724D3*
X12039D3*
X12353D3*
X12668D3*
X12983D3*
X13298D3*
X13613D3*
X13928D3*
X14243D3*
X14558D3*
X14873D3*
X15188D3*
X15503D3*
D153*
X16212Y16716D3*
Y17031D3*
Y17346D3*
Y17660D3*
Y17975D3*
Y18290D3*
Y18605D3*
Y18920D3*
Y19235D3*
Y19550D3*
Y19865D3*
Y20180D3*
Y20495D3*
Y20810D3*
Y21125D3*
Y21440D3*
D151*
X15503Y22149D3*
X15188D3*
X14873D3*
X14558D3*
X14243D3*
X13928D3*
X13613D3*
X13298D3*
X12983D3*
X12668D3*
X12353D3*
X12039D3*
X11724D3*
X11409D3*
X11094D3*
X10779D3*
D149*
X11210Y20870D3*
Y20673D3*
Y20476D3*
Y20279D3*
Y20083D3*
Y19886D3*
Y19689D3*
Y19492D3*
Y19295D3*
Y19098D3*
Y18901D3*
Y18705D3*
Y18508D3*
Y18311D3*
Y18114D3*
Y17917D3*
D147*
X11486Y17642D3*
X11682D3*
X11879D3*
X12076D3*
X12273D3*
X12470D3*
X12667D3*
X12864D3*
X13060D3*
X13257D3*
X13454D3*
X13651D3*
X13848D3*
X14045D3*
X14241D3*
X14438D3*
D149*
X14714Y17917D3*
Y18114D3*
Y18311D3*
Y18508D3*
Y18705D3*
Y18901D3*
Y19098D3*
Y19295D3*
Y19492D3*
Y19689D3*
Y19886D3*
Y20083D3*
Y20279D3*
Y20476D3*
Y20673D3*
Y20870D3*
D147*
X14438Y21146D3*
X14241D3*
X14045D3*
X13848D3*
X13651D3*
X13454D3*
X13257D3*
X13060D3*
X12864D3*
X12667D3*
X12470D3*
X12273D3*
X12076D3*
X11879D3*
X11682D3*
X11486D3*
D145*
X12962Y19394D3*
D147*
X9675Y7375D3*
X9872D3*
X10069D3*
X10266D3*
X10462D3*
D149*
X10817Y7729D3*
Y7926D3*
Y8123D3*
Y8320D3*
Y8517D3*
D147*
X10462Y8871D3*
X10266D3*
X10069D3*
X9872D3*
X9675D3*
D149*
X9321Y8517D3*
Y8320D3*
Y8123D3*
Y7926D3*
Y7729D3*
D143*
X10069Y8123D3*
D141*
X13700Y7720D3*
X13444D3*
X13188D3*
Y6854D3*
X13700D3*
D139*
X12250Y25930D3*
Y26450D3*
Y26910D3*
Y27430D3*
X9990D3*
Y26910D3*
Y26450D3*
Y25930D3*
D137*
X11819Y26119D3*
Y26493D3*
Y26867D3*
Y27241D3*
X10421D3*
Y26867D3*
Y26493D3*
Y26119D3*
D135*
X11120Y26237D3*
D133*
Y27204D3*
D139*
X12530Y31000D3*
Y31520D3*
Y31980D3*
Y32500D3*
X10270D3*
Y31980D3*
Y31520D3*
Y31000D3*
D137*
X12099Y31189D3*
Y31563D3*
Y31937D3*
Y32311D3*
X10701D3*
Y31937D3*
Y31563D3*
Y31189D3*
D135*
X11400Y31307D3*
D133*
Y32274D3*
D90*
X9550Y13350D3*
Y14098D3*
X8644Y13724D3*
D97*
X5450Y13420D3*
X5706D3*
X5962D3*
X6218D3*
X6474D3*
X6730D3*
X6985D3*
Y15703D3*
X6730D3*
X6474D3*
X6218D3*
X5962D3*
X5706D3*
X5450D3*
D128*
X30383Y34035D3*
X30186D3*
X29990D3*
X29793D3*
X29596D3*
X29399D3*
X29202D3*
X29005D3*
D126*
X28710Y33740D3*
Y33543D3*
Y33346D3*
Y33149D3*
Y32953D3*
Y32756D3*
Y32559D3*
Y32362D3*
D128*
X29005Y32067D3*
X29202D3*
X29399D3*
X29596D3*
X29793D3*
X29990D3*
X30186D3*
X30383D3*
D126*
X30679Y32362D3*
Y32559D3*
Y32756D3*
Y32953D3*
Y33149D3*
Y33346D3*
Y33543D3*
Y33740D3*
D124*
X29694Y33051D3*
D128*
X30383Y25975D3*
X30186D3*
X29990D3*
X29793D3*
X29596D3*
X29399D3*
X29202D3*
X29005D3*
D126*
X28710Y25680D3*
Y25483D3*
Y25286D3*
Y25089D3*
Y24893D3*
Y24696D3*
Y24499D3*
Y24302D3*
D128*
X29005Y24007D3*
X29202D3*
X29399D3*
X29596D3*
X29793D3*
X29990D3*
X30186D3*
X30383D3*
D126*
X30679Y24302D3*
Y24499D3*
Y24696D3*
Y24893D3*
Y25089D3*
Y25286D3*
Y25483D3*
Y25680D3*
D124*
X29694Y24991D3*
D128*
X30370Y17995D3*
X30174D3*
X29977D3*
X29780D3*
X29583D3*
X29386D3*
X29189D3*
X28993D3*
D126*
X28697Y17699D3*
Y17502D3*
Y17306D3*
Y17109D3*
Y16912D3*
Y16715D3*
Y16518D3*
Y16321D3*
D128*
X28993Y16026D3*
X29189D3*
X29386D3*
X29583D3*
X29780D3*
X29977D3*
X30174D3*
X30370D3*
D126*
X30666Y16321D3*
Y16518D3*
Y16715D3*
Y16912D3*
Y17109D3*
Y17306D3*
Y17502D3*
Y17699D3*
D124*
X29681Y17010D3*
D128*
X30373Y10015D3*
X30176D3*
X29980D3*
X29783D3*
X29586D3*
X29389D3*
X29192D3*
X28995D3*
D126*
X28700Y9720D3*
Y9523D3*
Y9326D3*
Y9129D3*
Y8933D3*
Y8736D3*
Y8539D3*
Y8342D3*
D128*
X28995Y8047D3*
X29192D3*
X29389D3*
X29586D3*
X29783D3*
X29980D3*
X30176D3*
X30373D3*
D126*
X30669Y8342D3*
Y8539D3*
Y8736D3*
Y8933D3*
Y9129D3*
Y9326D3*
Y9523D3*
Y9720D3*
D124*
X29684Y9031D3*
D122*
X6430Y24030D3*
Y25825D3*
D120*
X3792Y24928D3*
D119*
X7890Y6210D3*
X8390D3*
X8890D3*
X9390D3*
X9890D3*
X10390D3*
X10890D3*
X11390D3*
X11890D3*
X12390D3*
Y9911D3*
X11890D3*
X11390D3*
X10890D3*
X10390D3*
X9890D3*
X9390D3*
X8890D3*
X8390D3*
X7890D3*
D117*
X13625Y14025D3*
X12011D3*
D105*
X2500Y2500D3*
X27500D3*
Y37500D3*
X2500D3*
D102*
X33723Y30545D3*
Y35555D3*
Y22485D3*
Y27495D3*
X33710Y14505D3*
Y19515D3*
X33713Y6525D3*
Y11535D3*
M02*
