G04 DipTrace 2.4.0.1*
%INVCC.gbr*%
%MOIN*%
%ADD15C,0.01*%
%ADD16C,0.02*%
%ADD17C,0.006*%
%ADD22C,0.025*%
%ADD23C,0.013*%
%ADD32C,0.0709*%
%ADD34C,0.0551*%
%ADD37C,0.1181*%
%ADD39C,0.0827*%
%ADD41C,0.0559*%
%ADD43C,0.1299*%
%ADD45C,0.0591*%
%ADD48C,0.1*%
%ADD51C,0.0705*%
%ADD64C,0.0492*%
%ADD77C,0.0472*%
%ADD99C,0.032*%
%ADD101C,0.022*%
%FSLAX44Y44*%
G04*
G70*
G90*
G75*
G01*
%LNInner2_Plane*%
%LPD*%
X9175Y22275D2*
D17*
X9125Y22325D1*
X6430Y9880D2*
D16*
Y9200D1*
X6630Y9000D1*
Y15200D1*
X6530Y15300D1*
Y15330D1*
X6330Y15530D1*
Y25480D1*
X19960Y5480D2*
D15*
Y6150D1*
X18910Y7200D1*
X14400D1*
X14110Y7490D1*
X23460Y5130D2*
X20310D1*
X19960Y5480D1*
D99*
X4493Y10413D3*
X5000Y13610D3*
X7420Y9880D3*
X6330Y25480D3*
X19960Y5480D3*
X23460Y5130D3*
X19960Y5480D3*
X17040Y16340D3*
X24325Y19775D3*
Y20225D3*
X17350Y16080D3*
X18830Y17975D3*
X6020Y5050D3*
X6900Y16650D3*
X9460Y17950D3*
X11700Y11720D3*
X11660Y12750D3*
X4430Y12590D3*
X10830Y16570D3*
X17700Y6080D3*
X18200Y17660D3*
X17950Y15680D3*
X8870Y31500D3*
X17610Y4540D3*
X18550Y17350D3*
X17680Y16380D3*
X8525Y26925D3*
X6700Y7200D3*
X6760Y8060D3*
X5360Y14280D3*
X7371Y12359D3*
X23500Y27770D3*
X16475Y22045D3*
X23490Y28660D3*
X23470Y23310D3*
X17050Y22120D3*
X23450Y23790D3*
X24325Y20700D3*
X24395Y21080D3*
X16900Y35190D3*
X19290Y34960D3*
X21650Y35110D3*
X2370Y25820D3*
Y25280D3*
X4930Y15390D3*
X7790Y33160D3*
X30170Y33510D3*
Y33050D3*
X30150Y32580D3*
X29690Y33080D3*
Y33520D3*
X29680Y32610D3*
X29220D3*
X29230Y33050D3*
X29210Y33520D3*
D101*
X28810Y31590D3*
X29150Y31580D3*
X29650D3*
X28130Y32380D3*
X28240Y32940D3*
X28000Y33150D3*
X28180Y33460D3*
X29590Y34500D3*
D99*
X30500Y34890D3*
X28290Y35210D3*
X32630Y33980D3*
X32620Y32100D3*
X30260Y31340D3*
X28410Y28560D3*
Y28920D3*
X29180D3*
X28770Y28560D3*
Y28910D3*
X29180Y28560D3*
X29400Y35330D3*
X28850D3*
X29400Y35760D3*
X28850D3*
X32040Y35620D3*
X31670D3*
X31230D3*
X26730Y35630D3*
D101*
X25893Y32195D3*
X25453Y33555D3*
Y34275D3*
X25873Y35385D3*
D99*
X26380Y31870D3*
X9890Y6790D3*
X10940Y32880D3*
X11410Y32870D3*
X11900Y32850D3*
X13210Y31950D3*
X11930Y30190D3*
X12610Y30210D3*
X12600Y29150D3*
X9440Y29580D3*
X7610Y31010D3*
X8030D3*
X7590Y29100D3*
X8060Y29080D3*
X7700Y29670D3*
Y30080D3*
X7710Y30490D3*
X10770Y35410D3*
X11100Y35020D3*
X11470Y35010D3*
X11860Y35020D3*
X5140Y34950D3*
X5540D3*
X5930D3*
X4910Y35340D3*
X12550Y25110D3*
Y24040D3*
X11720Y25160D3*
X9370Y24410D3*
X9400Y6790D3*
X10730Y27860D3*
X11130D3*
X11540Y27850D3*
X12870Y27000D3*
X19320Y35650D3*
X17750Y34080D3*
X20110Y34110D3*
X33133Y30735D3*
X33123Y30345D3*
X33113Y29945D3*
X32733Y30735D3*
X32723Y30345D3*
X32713Y29945D3*
X32883Y29435D3*
X33753Y29445D3*
X33333D3*
X32863Y29005D3*
X33733Y29015D3*
X33313D3*
X31483Y28445D3*
X32213Y28455D3*
X31843D3*
X26953Y28475D3*
X27683Y28485D3*
X27313D3*
X33133Y22675D3*
X26193Y29955D3*
X33123Y22285D3*
X33113Y21885D3*
X32733Y22675D3*
X32723Y22285D3*
X32713Y21885D3*
X32883Y21375D3*
X33753Y21385D3*
X33333D3*
X30170Y25450D3*
Y24990D3*
X30150Y24520D3*
X29690Y25020D3*
Y25460D3*
X29680Y24550D3*
X29220D3*
X29230Y24990D3*
X29210Y25460D3*
D101*
X28800Y23540D3*
X29140Y23510D3*
X29670Y23500D3*
X28090Y24270D3*
X28220Y24860D3*
X28000Y25090D3*
X28240Y25390D3*
X29590Y26440D3*
D99*
X30500Y26830D3*
X28290Y27150D3*
X32630Y25920D3*
X32620Y24040D3*
X30260Y23280D3*
X28410Y20500D3*
Y20860D3*
X29180D3*
X28770Y20500D3*
Y20850D3*
X29180Y20500D3*
X29400Y27270D3*
X28850D3*
X29400Y27700D3*
X28850D3*
X32040Y27560D3*
X31670D3*
X31230D3*
X26730Y27570D3*
D101*
X25893Y24135D3*
X25453Y25495D3*
Y26215D3*
X25873Y27325D3*
D99*
X26380Y23810D3*
X32863Y20945D3*
X33733Y20955D3*
X33313D3*
X31483Y20385D3*
X32213Y20395D3*
X31843D3*
X26953Y20415D3*
X27683Y20425D3*
X27313D3*
X26193Y21895D3*
X33120Y14695D3*
X33110Y14305D3*
X33100Y13905D3*
X32720Y14695D3*
X32710Y14305D3*
X32700Y13905D3*
X32870Y13395D3*
X33740Y13405D3*
X33320D3*
X30157Y17469D3*
Y17009D3*
X30137Y16539D3*
X29677Y17039D3*
Y17479D3*
X29667Y16569D3*
X29207D3*
X29217Y17009D3*
X29197Y17479D3*
D101*
X28750Y15550D3*
X29100Y15540D3*
X29690Y15550D3*
X28130Y16320D3*
X28220Y16870D3*
X27987Y17109D3*
X28220Y17400D3*
X29577Y18459D3*
D99*
X30487Y18849D3*
X28277Y19169D3*
X32617Y17939D3*
X32607Y16059D3*
X30247Y15299D3*
X28397Y12519D3*
Y12879D3*
X29167D3*
X28757Y12519D3*
Y12869D3*
X29167Y12519D3*
X29387Y19289D3*
X28837D3*
X29387Y19719D3*
X28837D3*
X32027Y19579D3*
X31657D3*
X31217D3*
X26717Y19589D3*
D101*
X25880Y16155D3*
X25440Y17515D3*
Y18235D3*
X25860Y19345D3*
D99*
X26367Y15829D3*
X32850Y12965D3*
X33720Y12975D3*
X33300D3*
X31470Y12405D3*
X32200Y12415D3*
X31830D3*
X26940Y12435D3*
X27670Y12445D3*
X27300D3*
X26180Y13915D3*
X33123Y6715D3*
X33113Y6325D3*
X33103Y5925D3*
X32723Y6715D3*
X32713Y6325D3*
X32703Y5925D3*
X32873Y5415D3*
X33743Y5425D3*
X33323D3*
X30160Y9490D3*
Y9030D3*
X30140Y8560D3*
X29680Y9060D3*
Y9500D3*
X29670Y8590D3*
X29210D3*
X29220Y9030D3*
X29200Y9500D3*
D101*
X28840Y7580D3*
X29160Y7560D3*
X29670Y7580D3*
X28170Y8420D3*
X28225Y8900D3*
X27950Y9125D3*
X28225Y9350D3*
X29590Y10470D3*
D99*
X30490Y10870D3*
X28280Y11190D3*
X32620Y9960D3*
X32610Y8080D3*
X30250Y7320D3*
X28400Y4540D3*
Y4900D3*
X29170D3*
X28760Y4540D3*
Y4890D3*
X29170Y4540D3*
X29390Y11310D3*
X28840D3*
X29390Y11740D3*
X28840D3*
X32030Y11600D3*
X31660D3*
X31220D3*
X26720Y11610D3*
D101*
X25883Y8175D3*
X25443Y9535D3*
Y10255D3*
X25863Y11365D3*
D99*
X26370Y7850D3*
X32853Y4985D3*
X33723Y4995D3*
X33303D3*
X31473Y4425D3*
X32203Y4435D3*
X31833D3*
X26943Y4455D3*
X27673Y4465D3*
X27303D3*
X26183Y5935D3*
X22530Y34130D3*
X19625Y30250D3*
X20575D3*
Y29875D3*
X19625D3*
X20575Y30625D3*
X19625D3*
X21625Y33450D3*
X410Y39590D3*
X8140Y33150D3*
X19100Y6080D3*
X21500Y6025D3*
X10390Y6790D3*
X10880Y6780D3*
X8490Y33150D3*
X11275Y7600D3*
X11130Y8780D3*
X11680Y9090D3*
X11100Y9180D3*
X9825Y8375D3*
X4520Y11260D3*
X8840Y33140D3*
X15510Y12700D3*
X15140Y12410D3*
X14850Y14830D3*
X14560Y15410D3*
X14120Y14820D3*
X13900Y15200D3*
X13600Y15425D3*
X13300Y14970D3*
X11700Y15425D3*
X12350D3*
X12025Y15225D3*
X11230Y13220D3*
X14330Y13260D3*
X8540Y13150D3*
X20600Y25475D3*
Y25075D3*
Y24600D3*
X19625Y25475D3*
Y25075D3*
Y24600D3*
X21500Y28300D3*
X21150Y27675D3*
X21475D3*
X21800D3*
X22125D3*
X21150Y27350D3*
X21475D3*
X21800D3*
X22125D3*
X10310Y21820D3*
X9900D3*
X14575Y23275D3*
X10250Y8375D3*
Y7900D3*
X19050Y19175D3*
X18175Y18900D3*
X18475Y18575D3*
X9850Y7875D3*
X10725Y22775D3*
X11725Y22725D3*
X12025Y22950D3*
X14220Y22830D3*
X16070Y23380D3*
X9025Y23250D3*
X9475Y18600D3*
X9180Y18900D3*
X11390Y15200D3*
X11075Y15425D3*
X5375Y16175D3*
X20775Y6070D3*
X16730Y6130D3*
X15225Y5210D3*
X30260Y2460D3*
X24040Y5080D3*
X21555Y4550D3*
X16340Y5020D3*
X13200Y10590D3*
X12850Y6260D3*
X10030Y3800D3*
X12925Y4060D3*
X19560Y19870D3*
X21350Y19875D3*
X19740Y21390D3*
X9675Y15450D3*
X10325Y15475D3*
X9125Y22325D3*
X21860Y21360D3*
X5700Y16360D3*
X5980Y14970D3*
X5640Y18710D3*
X2325Y15350D3*
X23100Y6050D3*
X6990Y3825D3*
X8255Y4075D3*
X9300Y4100D3*
X7410Y11010D3*
X10675Y14100D3*
X9575Y14750D3*
X9180Y21110D3*
X9475Y19250D3*
X7670Y8700D3*
X6675Y28550D3*
X6700Y27975D3*
Y27425D3*
X6100Y32650D3*
X6075Y31725D3*
X6525D3*
Y32650D3*
X5700D3*
X5675Y31725D3*
X410Y410D3*
X35090Y39590D3*
Y410D3*
X4930Y5460D3*
X6970Y5920D3*
X8790Y5140D3*
X13860Y11520D3*
X12870Y5560D3*
X14110Y7490D3*
X6430Y9880D3*
X12960Y19400D3*
X11910Y20430D3*
X14070Y20460D3*
Y18250D3*
X11870Y18230D3*
X410Y5300D3*
Y15100D3*
Y20000D3*
Y24900D3*
Y34690D3*
X35090D3*
Y29790D3*
Y24900D3*
X5360Y39590D3*
X35090Y20000D3*
Y15100D3*
Y10200D3*
Y5310D3*
X10320Y39590D3*
X15270D3*
X20230D3*
X25180D3*
X30130D3*
X5360Y410D3*
X10320D3*
X15270D3*
X20230D3*
X25180D3*
X30130D3*
X20570Y6890D3*
X7210Y11880D3*
X16040Y13680D3*
X17640Y14920D3*
D101*
X16870Y21400D3*
D99*
X19240Y18710D3*
X22080Y19890D3*
X25700Y9070D3*
X27560Y8180D3*
X27300Y11030D3*
X25710Y17060D3*
X27290Y18900D3*
X30250Y12540D3*
X30210Y14130D3*
X27480Y16180D3*
X30460Y20590D3*
X30390Y22080D3*
X25700Y25020D3*
X27340Y26860D3*
X30350Y30100D3*
X30400Y28600D3*
X25720Y33130D3*
X27360Y34970D3*
X27510Y32210D3*
X5260Y35760D3*
X7460Y19800D3*
X8410Y18730D3*
X2370Y24610D3*
Y24040D3*
D101*
X12350Y22670D3*
X12670Y22680D3*
X12980Y22670D3*
X13290D3*
X13610D3*
X13920Y22660D3*
X9560Y17360D3*
X9600Y17030D3*
X17170Y21400D3*
X17460D3*
X18020D3*
X17740D3*
X18320D3*
X23750Y22450D3*
Y22150D3*
X23740Y21850D3*
X23390Y21880D3*
X23380Y21590D3*
X23220Y21340D3*
X736Y39366D2*
D22*
X5034D1*
X5685D2*
X9995D1*
X10646D2*
X14944D1*
X15596D2*
X19905D1*
X20556D2*
X24854D1*
X25506D2*
X29803D1*
X30455D2*
X34764D1*
X410Y39118D2*
X35089D1*
X410Y38869D2*
X2335D1*
X2666D2*
X27335D1*
X27666D2*
X35089D1*
X410Y38620D2*
X1674D1*
X3326D2*
X5749D1*
X6732D2*
X7307D1*
X8295D2*
X12358D1*
X13342D2*
X13917D1*
X14904D2*
X26674D1*
X28326D2*
X35089D1*
X410Y38372D2*
X1409D1*
X3592D2*
X5561D1*
X6916D2*
X7124D1*
X8478D2*
X12171D1*
X13529D2*
X13733D1*
X15088D2*
X15698D1*
X16322D2*
X16698D1*
X17322D2*
X17979D1*
X18658D2*
X18979D1*
X19658D2*
X20311D1*
X20990D2*
X21311D1*
X21990D2*
X23198D1*
X23924D2*
X24198D1*
X24924D2*
X26409D1*
X28592D2*
X29878D1*
X30584D2*
X30878D1*
X31584D2*
X32128D1*
X32853D2*
X33128D1*
X33853D2*
X35089D1*
X410Y38123D2*
X1249D1*
X3752D2*
X5503D1*
X6978D2*
X7062D1*
X8537D2*
X12112D1*
X13588D2*
X13670D1*
X15150D2*
X15506D1*
X17514D2*
X17807D1*
X19830D2*
X20139D1*
X22162D2*
X23042D1*
X25076D2*
X26249D1*
X28752D2*
X29714D1*
X31744D2*
X31971D1*
X34006D2*
X35089D1*
X410Y37874D2*
X1151D1*
X3849D2*
X5530D1*
X6951D2*
X7087D1*
X8510D2*
X12139D1*
X13560D2*
X13703D1*
X15119D2*
X15479D1*
X17541D2*
X17796D1*
X19846D2*
X20124D1*
X22178D2*
X23038D1*
X25080D2*
X26151D1*
X28849D2*
X29706D1*
X31756D2*
X31967D1*
X34014D2*
X35089D1*
X410Y37625D2*
X1104D1*
X3896D2*
X5663D1*
X6818D2*
X7221D1*
X8377D2*
X12272D1*
X13428D2*
X13835D1*
X14986D2*
X15592D1*
X16428D2*
X16592D1*
X17428D2*
X17921D1*
X18721D2*
X18921D1*
X19721D2*
X20249D1*
X21053D2*
X21249D1*
X22053D2*
X23178D1*
X23943D2*
X24178D1*
X24943D2*
X26104D1*
X28896D2*
X29839D1*
X30623D2*
X30839D1*
X31623D2*
X32108D1*
X32873D2*
X33108D1*
X33873D2*
X35089D1*
X410Y37377D2*
X1104D1*
X3896D2*
X6085D1*
X6392D2*
X7647D1*
X7955D2*
X12698D1*
X13002D2*
X14256D1*
X14564D2*
X26104D1*
X28896D2*
X35089D1*
X410Y37128D2*
X1151D1*
X3849D2*
X26151D1*
X28849D2*
X35089D1*
X410Y36879D2*
X1245D1*
X3752D2*
X26245D1*
X28752D2*
X35089D1*
X410Y36631D2*
X1409D1*
X3592D2*
X26409D1*
X28592D2*
X35089D1*
X410Y36382D2*
X1671D1*
X3326D2*
X26671D1*
X28326D2*
X35089D1*
X410Y36133D2*
X2311D1*
X2685D2*
X5202D1*
X5319D2*
X27311D1*
X27685D2*
X29342D1*
X29457D2*
X35089D1*
X410Y35885D2*
X4881D1*
X5639D2*
X19003D1*
X19639D2*
X26428D1*
X27029D2*
X28471D1*
X29779D2*
X30940D1*
X32330D2*
X33307D1*
X34139D2*
X35089D1*
X410Y35636D2*
X4690D1*
X5639D2*
X10471D1*
X11068D2*
X18921D1*
X19721D2*
X25643D1*
X26103D2*
X26331D1*
X27131D2*
X28471D1*
X29779D2*
X30831D1*
X32439D2*
X33194D1*
X34252D2*
X35089D1*
X410Y35387D2*
X4534D1*
X5326D2*
X10389D1*
X11201D2*
X11760D1*
X11961D2*
X16557D1*
X17244D2*
X19026D1*
X19611D2*
X21374D1*
X21928D2*
X25522D1*
X26224D2*
X26421D1*
X27041D2*
X27936D1*
X29795D2*
X30913D1*
X32357D2*
X33217D1*
X34228D2*
X35089D1*
X410Y35139D2*
X4592D1*
X6279D2*
X10518D1*
X12240D2*
X16503D1*
X17295D2*
X18936D1*
X19646D2*
X21253D1*
X22049D2*
X25635D1*
X26111D2*
X26999D1*
X27721D2*
X27897D1*
X29748D2*
X30194D1*
X30806D2*
X33405D1*
X34041D2*
X35089D1*
X752Y34890D2*
X4745D1*
X6326D2*
X10725D1*
X12236D2*
X16651D1*
X17150D2*
X18897D1*
X19681D2*
X21323D1*
X21978D2*
X26967D1*
X27752D2*
X28069D1*
X28510D2*
X30100D1*
X30900D2*
X33315D1*
X34127D2*
X34749D1*
X806Y34641D2*
X4901D1*
X6166D2*
X11378D1*
X11562D2*
X19069D1*
X19514D2*
X27155D1*
X27564D2*
X29272D1*
X29908D2*
X30194D1*
X30806D2*
X33194D1*
X34248D2*
X34694D1*
X662Y34393D2*
X17557D1*
X17943D2*
X19870D1*
X20349D2*
X22268D1*
X22795D2*
X25124D1*
X25783D2*
X29256D1*
X29920D2*
X33210D1*
X34228D2*
X34839D1*
X410Y34144D2*
X17378D1*
X18123D2*
X19733D1*
X20490D2*
X22151D1*
X22908D2*
X25131D1*
X25775D2*
X32268D1*
X32994D2*
X33385D1*
X34053D2*
X35089D1*
X410Y33895D2*
X17421D1*
X18076D2*
X19803D1*
X20416D2*
X22241D1*
X22822D2*
X32241D1*
X33021D2*
X33319D1*
X34119D2*
X35089D1*
X410Y33646D2*
X788D1*
X1967D2*
X21280D1*
X21971D2*
X25116D1*
X25791D2*
X27889D1*
X28471D2*
X28831D1*
X30545D2*
X32432D1*
X32826D2*
X33194D1*
X34244D2*
X35089D1*
X410Y33398D2*
X616D1*
X2139D2*
X3854D1*
X5592D2*
X7475D1*
X9139D2*
X21229D1*
X22021D2*
X25143D1*
X26006D2*
X27764D1*
X28525D2*
X28831D1*
X30553D2*
X33210D1*
X34232D2*
X35089D1*
X410Y33149D2*
X549D1*
X2205D2*
X3753D1*
X5697D2*
X7389D1*
X9240D2*
X10655D1*
X12150D2*
X21378D1*
X21873D2*
X25319D1*
X26119D2*
X27651D1*
X28514D2*
X28842D1*
X30556D2*
X33378D1*
X34060D2*
X35089D1*
X410Y32900D2*
X565D1*
X2189D2*
X3772D1*
X6830D2*
X7495D1*
X9154D2*
X10542D1*
X12295D2*
X25397D1*
X26041D2*
X27768D1*
X28588D2*
X28862D1*
X30537D2*
X33323D1*
X34115D2*
X35089D1*
X410Y32652D2*
X667D1*
X2092D2*
X3944D1*
X6924D2*
X10616D1*
X12244D2*
X23589D1*
X24209D2*
X27928D1*
X28416D2*
X28823D1*
X30545D2*
X33194D1*
X34244D2*
X35089D1*
X410Y32403D2*
X901D1*
X1853D2*
X5393D1*
X6834D2*
X23428D1*
X24373D2*
X25620D1*
X26170D2*
X27163D1*
X28478D2*
X28881D1*
X30506D2*
X32374D1*
X32865D2*
X33206D1*
X34232D2*
X35089D1*
X410Y32154D2*
X12870D1*
X13549D2*
X23436D1*
X24365D2*
X25546D1*
X26650D2*
X27116D1*
X28389D2*
X32225D1*
X33017D2*
X33374D1*
X34068D2*
X35089D1*
X410Y31906D2*
X5323D1*
X6877D2*
X12811D1*
X13607D2*
X23620D1*
X24178D2*
X25721D1*
X26779D2*
X27264D1*
X27756D2*
X28710D1*
X28912D2*
X32276D1*
X32967D2*
X33331D1*
X34111D2*
X35089D1*
X410Y31657D2*
X5280D1*
X6920D2*
X8506D1*
X9236D2*
X12952D1*
X13471D2*
X23464D1*
X24338D2*
X26046D1*
X26713D2*
X28467D1*
X30486D2*
X33198D1*
X34244D2*
X35089D1*
X410Y31408D2*
X850D1*
X1904D2*
X2069D1*
X4971D2*
X5448D1*
X6752D2*
X8483D1*
X9260D2*
X23444D1*
X24357D2*
X28514D1*
X30654D2*
X33206D1*
X34236D2*
X35089D1*
X410Y31160D2*
X717D1*
X5103D2*
X7241D1*
X8400D2*
X8686D1*
X9053D2*
X23596D1*
X24201D2*
X29905D1*
X30615D2*
X33366D1*
X34072D2*
X35089D1*
X410Y30911D2*
X698D1*
X5111D2*
X7225D1*
X8416D2*
X19358D1*
X19892D2*
X20307D1*
X20842D2*
X23479D1*
X24318D2*
X32378D1*
X34103D2*
X35089D1*
X4994Y30662D2*
X7350D1*
X8193D2*
X19225D1*
X20021D2*
X20178D1*
X20974D2*
X23436D1*
X24361D2*
X32342D1*
X34244D2*
X35089D1*
X1728Y30414D2*
X7319D1*
X8103D2*
X11604D1*
X12951D2*
X19264D1*
X19986D2*
X20214D1*
X20935D2*
X23553D1*
X24248D2*
X30120D1*
X30580D2*
X32331D1*
X34240D2*
X35089D1*
X1185Y30165D2*
X7311D1*
X8092D2*
X11530D1*
X13006D2*
X19233D1*
X20014D2*
X20186D1*
X20967D2*
X23503D1*
X24299D2*
X25858D1*
X26529D2*
X29956D1*
X30744D2*
X32370D1*
X34088D2*
X35089D1*
X1185Y29916D2*
X7339D1*
X8060D2*
X9249D1*
X9631D2*
X11647D1*
X12213D2*
X12351D1*
X12869D2*
X19229D1*
X20021D2*
X20178D1*
X20974D2*
X23436D1*
X24365D2*
X25796D1*
X26592D2*
X29999D1*
X30701D2*
X32315D1*
X33514D2*
X34714D1*
X1178Y29667D2*
X1262D1*
X1490D2*
X7299D1*
X8099D2*
X9049D1*
X9830D2*
X19288D1*
X19963D2*
X20237D1*
X20912D2*
X23518D1*
X24279D2*
X25928D1*
X26459D2*
X32436D1*
X34080D2*
X34710D1*
X1924Y29419D2*
X2040D1*
X4912D2*
X7366D1*
X8244D2*
X9077D1*
X9803D2*
X12315D1*
X12885D2*
X23506D1*
X24291D2*
X32483D1*
X34150D2*
X35014D1*
X410Y29170D2*
X714D1*
X5088D2*
X7198D1*
X8447D2*
X12202D1*
X12998D2*
X23417D1*
X24385D2*
X28104D1*
X29486D2*
X32503D1*
X34099D2*
X35089D1*
X410Y28921D2*
X702D1*
X5119D2*
X6600D1*
X6749D2*
X7237D1*
X8424D2*
X12276D1*
X12924D2*
X23198D1*
X24330D2*
X28010D1*
X29580D2*
X30182D1*
X30619D2*
X32471D1*
X34123D2*
X35089D1*
X410Y28673D2*
X792D1*
X5033D2*
X6296D1*
X7053D2*
X21436D1*
X21565D2*
X23089D1*
X23889D2*
X28026D1*
X29564D2*
X30006D1*
X30791D2*
X31159D1*
X32545D2*
X32664D1*
X33912D2*
X35089D1*
X410Y28424D2*
X1065D1*
X1689D2*
X3694D1*
X4689D2*
X6296D1*
X7053D2*
X21120D1*
X21877D2*
X23174D1*
X23806D2*
X28034D1*
X29553D2*
X30046D1*
X30756D2*
X31085D1*
X32611D2*
X35089D1*
X410Y28175D2*
X2604D1*
X3303D2*
X6358D1*
X7041D2*
X10503D1*
X11752D2*
X21120D1*
X21877D2*
X31198D1*
X32486D2*
X35089D1*
X410Y27927D2*
X2370D1*
X3537D2*
X6303D1*
X7096D2*
X10335D1*
X11931D2*
X21440D1*
X21556D2*
X23135D1*
X23865D2*
X26589D1*
X26869D2*
X28526D1*
X29724D2*
X31128D1*
X31334D2*
X31569D1*
X31772D2*
X31936D1*
X32141D2*
X33424D1*
X34021D2*
X35089D1*
X410Y27678D2*
X940D1*
X1814D2*
X2299D1*
X3603D2*
X6397D1*
X7002D2*
X10378D1*
X11896D2*
X23112D1*
X23889D2*
X26346D1*
X27115D2*
X28452D1*
X29799D2*
X30850D1*
X32420D2*
X33221D1*
X34224D2*
X35089D1*
X410Y27429D2*
X659D1*
X2096D2*
X2335D1*
X3572D2*
X4081D1*
X5369D2*
X6299D1*
X7099D2*
X23319D1*
X24236D2*
X25542D1*
X26205D2*
X26357D1*
X27103D2*
X28014D1*
X29764D2*
X30854D1*
X32416D2*
X33194D1*
X34256D2*
X35089D1*
X410Y27181D2*
X534D1*
X2221D2*
X2495D1*
X3408D2*
X3807D1*
X5642D2*
X6389D1*
X7010D2*
X8225D1*
X8826D2*
X12518D1*
X13224D2*
X23424D1*
X24377D2*
X25557D1*
X26189D2*
X27120D1*
X27560D2*
X27893D1*
X29791D2*
X30342D1*
X30658D2*
X33296D1*
X34150D2*
X35089D1*
X410Y26932D2*
X499D1*
X2260D2*
X3745D1*
X5705D2*
X8124D1*
X8924D2*
X12475D1*
X13264D2*
X23440D1*
X24357D2*
X26948D1*
X27732D2*
X27960D1*
X29037D2*
X29216D1*
X29588D2*
X30116D1*
X30885D2*
X33440D1*
X34002D2*
X35089D1*
X410Y26683D2*
X534D1*
X2221D2*
X3803D1*
X5642D2*
X8214D1*
X8838D2*
X12643D1*
X13096D2*
X23651D1*
X24146D2*
X26983D1*
X27697D2*
X29350D1*
X29830D2*
X30131D1*
X30869D2*
X33221D1*
X34217D2*
X35089D1*
X410Y26435D2*
X655D1*
X2099D2*
X4069D1*
X5381D2*
X23456D1*
X24346D2*
X25190D1*
X25717D2*
X29241D1*
X29939D2*
X33186D1*
X34252D2*
X35089D1*
X410Y26186D2*
X928D1*
X1826D2*
X2264D1*
X2476D2*
X23448D1*
X24349D2*
X25104D1*
X25803D2*
X29362D1*
X29818D2*
X32342D1*
X32920D2*
X33284D1*
X34154D2*
X35089D1*
X410Y25937D2*
X1991D1*
X2752D2*
X23628D1*
X24174D2*
X25260D1*
X25646D2*
X32229D1*
X33029D2*
X33448D1*
X33990D2*
X35089D1*
X410Y25688D2*
X1995D1*
X2748D2*
X5995D1*
X6666D2*
X19292D1*
X19959D2*
X20268D1*
X20931D2*
X23471D1*
X24330D2*
X25167D1*
X25740D2*
X28089D1*
X28392D2*
X28889D1*
X30486D2*
X32311D1*
X32951D2*
X33225D1*
X34217D2*
X35089D1*
X410Y25440D2*
X2006D1*
X2732D2*
X5932D1*
X6728D2*
X11444D1*
X11994D2*
X12346D1*
X12752D2*
X19225D1*
X20021D2*
X20202D1*
X20998D2*
X23440D1*
X24361D2*
X25108D1*
X25799D2*
X27893D1*
X28588D2*
X28811D1*
X30568D2*
X33186D1*
X34252D2*
X35089D1*
X670Y25191D2*
X1979D1*
X2760D2*
X5991D1*
X6670D2*
X11323D1*
X12939D2*
X19245D1*
X20006D2*
X20217D1*
X20982D2*
X23577D1*
X24224D2*
X25315D1*
X26060D2*
X27667D1*
X28521D2*
X28889D1*
X30510D2*
X33280D1*
X34158D2*
X34831D1*
X806Y24942D2*
X2171D1*
X2568D2*
X5991D1*
X6670D2*
X11389D1*
X12049D2*
X12187D1*
X12912D2*
X19249D1*
X20002D2*
X20225D1*
X20974D2*
X23491D1*
X24310D2*
X25307D1*
X26092D2*
X27686D1*
X28560D2*
X28835D1*
X30568D2*
X33460D1*
X33982D2*
X34694D1*
X748Y24694D2*
X1979D1*
X2760D2*
X5991D1*
X6670D2*
X9100D1*
X9639D2*
X19237D1*
X20014D2*
X20214D1*
X20986D2*
X23436D1*
X24365D2*
X25491D1*
X25908D2*
X27917D1*
X28525D2*
X28850D1*
X30506D2*
X33229D1*
X34213D2*
X34753D1*
X410Y24445D2*
X2006D1*
X2732D2*
X5991D1*
X6670D2*
X8971D1*
X9767D2*
X19260D1*
X19990D2*
X20233D1*
X20967D2*
X23538D1*
X24264D2*
X25772D1*
X26018D2*
X27792D1*
X28389D2*
X28835D1*
X30541D2*
X33186D1*
X34252D2*
X35089D1*
X410Y24196D2*
X2003D1*
X2736D2*
X5991D1*
X6670D2*
X9038D1*
X9705D2*
X12186D1*
X12916D2*
X23491D1*
X24306D2*
X25549D1*
X26236D2*
X27749D1*
X28431D2*
X29069D1*
X29369D2*
X29530D1*
X29830D2*
X29937D1*
X30365D2*
X32253D1*
X32986D2*
X33276D1*
X34162D2*
X35089D1*
X410Y23948D2*
X1983D1*
X2760D2*
X5991D1*
X6670D2*
X12163D1*
X12939D2*
X23085D1*
X24385D2*
X25604D1*
X26752D2*
X32233D1*
X33010D2*
X33471D1*
X33971D2*
X35089D1*
X410Y23699D2*
X2190D1*
X2553D2*
X5991D1*
X6670D2*
X7659D1*
X21619D2*
X23061D1*
X24318D2*
X25999D1*
X26764D2*
X28491D1*
X29928D2*
X32440D1*
X32803D2*
X33229D1*
X34209D2*
X35089D1*
X410Y23450D2*
X4202D1*
X4721D2*
X5163D1*
X5760D2*
X5991D1*
X6670D2*
X7631D1*
X21646D2*
X23120D1*
X23822D2*
X26249D1*
X26509D2*
X28464D1*
X30619D2*
X33186D1*
X34252D2*
X35089D1*
X410Y23202D2*
X2171D1*
X2693D2*
X3979D1*
X6670D2*
X7631D1*
X21646D2*
X23108D1*
X23834D2*
X29014D1*
X29268D2*
X29581D1*
X29758D2*
X29870D1*
X30650D2*
X33276D1*
X34166D2*
X35089D1*
X410Y22953D2*
X1768D1*
X3096D2*
X3948D1*
X6670D2*
X7631D1*
X21646D2*
X30053D1*
X30467D2*
X32456D1*
X33412D2*
X33498D1*
X33951D2*
X35089D1*
X410Y22704D2*
X1608D1*
X3252D2*
X4061D1*
X4861D2*
X5034D1*
X5885D2*
X5991D1*
X7127D2*
X7631D1*
X21646D2*
X23557D1*
X23943D2*
X32335D1*
X34209D2*
X35089D1*
X410Y22456D2*
X1546D1*
X3318D2*
X5991D1*
X7256D2*
X7631D1*
X21646D2*
X23421D1*
X24080D2*
X32366D1*
X34256D2*
X35089D1*
X410Y22207D2*
X1557D1*
X3306D2*
X5991D1*
X7228D2*
X7631D1*
X21646D2*
X23424D1*
X24076D2*
X25960D1*
X26428D2*
X30010D1*
X30767D2*
X32331D1*
X34178D2*
X35089D1*
X410Y21958D2*
X1647D1*
X3217D2*
X5991D1*
X7080D2*
X7631D1*
X21646D2*
X23069D1*
X24049D2*
X25799D1*
X26588D2*
X30010D1*
X30771D2*
X32319D1*
X33506D2*
X35089D1*
X410Y21709D2*
X1850D1*
X3014D2*
X5991D1*
X7244D2*
X7631D1*
X21646D2*
X23073D1*
X24037D2*
X25842D1*
X26545D2*
X30307D1*
X30471D2*
X32358D1*
X33967D2*
X35089D1*
X410Y21461D2*
X5991D1*
X7240D2*
X7631D1*
X21646D2*
X22917D1*
X23681D2*
X32495D1*
X34146D2*
X35089D1*
X410Y21212D2*
X5991D1*
X7060D2*
X7631D1*
X21646D2*
X22917D1*
X23521D2*
X24042D1*
X24748D2*
X28256D1*
X28564D2*
X28649D1*
X28893D2*
X29026D1*
X29334D2*
X32522D1*
X34111D2*
X35089D1*
X410Y20963D2*
X3323D1*
X3674D2*
X4112D1*
X4459D2*
X5991D1*
X7232D2*
X7631D1*
X21646D2*
X24034D1*
X24756D2*
X28026D1*
X29564D2*
X32464D1*
X34135D2*
X35089D1*
X410Y20715D2*
X3030D1*
X4752D2*
X5991D1*
X7252D2*
X7631D1*
X21646D2*
X23944D1*
X24705D2*
X28038D1*
X29549D2*
X30081D1*
X30838D2*
X31280D1*
X32435D2*
X32543D1*
X34045D2*
X35089D1*
X410Y20466D2*
X2979D1*
X4803D2*
X5991D1*
X7111D2*
X7631D1*
X21646D2*
X24034D1*
X24615D2*
X28010D1*
X29580D2*
X30081D1*
X30838D2*
X31092D1*
X32607D2*
X35089D1*
X740Y20217D2*
X3061D1*
X4721D2*
X5991D1*
X7217D2*
X7631D1*
X21646D2*
X21874D1*
X22287D2*
X23944D1*
X24705D2*
X28139D1*
X29451D2*
X31124D1*
X32568D2*
X34760D1*
X810Y19969D2*
X3296D1*
X3701D2*
X4081D1*
X4490D2*
X5991D1*
X22471D2*
X24003D1*
X24646D2*
X28534D1*
X29693D2*
X33452D1*
X33967D2*
X34690D1*
X685Y19720D2*
X3026D1*
X4756D2*
X5991D1*
X22439D2*
X23948D1*
X24701D2*
X26342D1*
X27096D2*
X28436D1*
X29787D2*
X30846D1*
X32400D2*
X33217D1*
X34201D2*
X34815D1*
X410Y19471D2*
X2979D1*
X4803D2*
X5991D1*
X21646D2*
X24116D1*
X24533D2*
X25557D1*
X26162D2*
X26333D1*
X27099D2*
X28030D1*
X29740D2*
X30835D1*
X32412D2*
X33178D1*
X34244D2*
X35089D1*
X410Y19223D2*
X3069D1*
X4713D2*
X5991D1*
X7260D2*
X7631D1*
X21646D2*
X25557D1*
X26166D2*
X26616D1*
X26822D2*
X27073D1*
X27506D2*
X27881D1*
X29783D2*
X30428D1*
X30544D2*
X31077D1*
X31357D2*
X31518D1*
X31799D2*
X31885D1*
X32166D2*
X33268D1*
X34154D2*
X35089D1*
X410Y18974D2*
X5350D1*
X7181D2*
X7631D1*
X21646D2*
X26897D1*
X27681D2*
X27932D1*
X29064D2*
X29163D1*
X29615D2*
X30108D1*
X30865D2*
X33471D1*
X33943D2*
X35089D1*
X410Y18725D2*
X5241D1*
X6670D2*
X7631D1*
X21646D2*
X26932D1*
X27646D2*
X29405D1*
X29752D2*
X30108D1*
X30865D2*
X33221D1*
X34193D2*
X35089D1*
X410Y18477D2*
X2061D1*
X2803D2*
X5323D1*
X6670D2*
X7631D1*
X21646D2*
X25198D1*
X25681D2*
X29249D1*
X29908D2*
X30421D1*
X30550D2*
X33174D1*
X34240D2*
X35089D1*
X410Y18228D2*
X1714D1*
X3146D2*
X5991D1*
X6670D2*
X7631D1*
X21646D2*
X25092D1*
X25791D2*
X29354D1*
X29803D2*
X32354D1*
X32881D2*
X33256D1*
X34158D2*
X35089D1*
X410Y17979D2*
X1561D1*
X3303D2*
X5991D1*
X6670D2*
X7631D1*
X21646D2*
X25214D1*
X25666D2*
X32221D1*
X33014D2*
X33483D1*
X33931D2*
X35089D1*
X410Y17730D2*
X1499D1*
X3365D2*
X5991D1*
X6670D2*
X7542D1*
X21646D2*
X25174D1*
X25709D2*
X28893D1*
X30451D2*
X32280D1*
X32955D2*
X33221D1*
X34193D2*
X35089D1*
X410Y17482D2*
X1503D1*
X3357D2*
X5991D1*
X6670D2*
X7339D1*
X21646D2*
X25092D1*
X25787D2*
X27881D1*
X28560D2*
X28796D1*
X30556D2*
X33174D1*
X34240D2*
X35089D1*
X410Y17233D2*
X1581D1*
X3279D2*
X5991D1*
X6670D2*
X7311D1*
X21646D2*
X25253D1*
X26068D2*
X27663D1*
X28525D2*
X28889D1*
X30482D2*
X33253D1*
X34162D2*
X35089D1*
X410Y16984D2*
X1756D1*
X3103D2*
X5991D1*
X7096D2*
X7413D1*
X21646D2*
X25319D1*
X26103D2*
X27663D1*
X28549D2*
X28819D1*
X30556D2*
X33495D1*
X33920D2*
X35089D1*
X410Y16736D2*
X2214D1*
X2646D2*
X5991D1*
X7291D2*
X7549D1*
X21646D2*
X25499D1*
X25924D2*
X27901D1*
X28541D2*
X28846D1*
X30482D2*
X33225D1*
X34189D2*
X35089D1*
X410Y16487D2*
X5323D1*
X7264D2*
X7339D1*
X21646D2*
X27241D1*
X27721D2*
X27827D1*
X28435D2*
X28815D1*
X30533D2*
X33174D1*
X34240D2*
X35089D1*
X410Y16238D2*
X1217D1*
X1822D2*
X5319D1*
X6670D2*
X7307D1*
X21646D2*
X25542D1*
X26221D2*
X27085D1*
X28471D2*
X29006D1*
X30385D2*
X32253D1*
X32963D2*
X33249D1*
X34166D2*
X35089D1*
X410Y15990D2*
X1049D1*
X1990D2*
X5991D1*
X6670D2*
X7409D1*
X21646D2*
X25577D1*
X26732D2*
X27131D1*
X27826D2*
X32214D1*
X33002D2*
X33510D1*
X33904D2*
X35089D1*
X410Y15741D2*
X1053D1*
X1986D2*
X4772D1*
X5088D2*
X5991D1*
X6670D2*
X7600D1*
X21646D2*
X25979D1*
X26756D2*
X28487D1*
X29951D2*
X32385D1*
X32830D2*
X33229D1*
X34185D2*
X35089D1*
X410Y15492D2*
X1229D1*
X1810D2*
X1953D1*
X2697D2*
X4546D1*
X5314D2*
X5991D1*
X6826D2*
X7366D1*
X21646D2*
X26178D1*
X26556D2*
X28424D1*
X30596D2*
X33171D1*
X34244D2*
X35089D1*
X783Y15244D2*
X1065D1*
X2709D2*
X4561D1*
X5299D2*
X5698D1*
X6967D2*
X7327D1*
X21646D2*
X28940D1*
X29260D2*
X29850D1*
X30642D2*
X33249D1*
X34166D2*
X34717D1*
X795Y14995D2*
X1042D1*
X1998D2*
X2178D1*
X2471D2*
X5581D1*
X6971D2*
X7432D1*
X21646D2*
X30003D1*
X30490D2*
X32471D1*
X33369D2*
X33546D1*
X33877D2*
X34706D1*
X560Y14746D2*
X1178D1*
X1861D2*
X5655D1*
X6971D2*
X7631D1*
X21646D2*
X32323D1*
X34185D2*
X34940D1*
X410Y14498D2*
X1081D1*
X1959D2*
X5030D1*
X5689D2*
X6292D1*
X6971D2*
X7635D1*
X21639D2*
X30112D1*
X30305D2*
X32366D1*
X34244D2*
X35089D1*
X410Y14249D2*
X1038D1*
X2006D2*
X4960D1*
X5760D2*
X6292D1*
X6971D2*
X25987D1*
X26377D2*
X29831D1*
X30592D2*
X32315D1*
X34178D2*
X35089D1*
X410Y14000D2*
X1139D1*
X1900D2*
X5085D1*
X5635D2*
X6292D1*
X6971D2*
X15819D1*
X16260D2*
X25792D1*
X26572D2*
X29835D1*
X30588D2*
X32311D1*
X33486D2*
X33607D1*
X33810D2*
X35089D1*
X410Y13751D2*
X4628D1*
X5373D2*
X6292D1*
X6971D2*
X15647D1*
X16431D2*
X25819D1*
X26545D2*
X32335D1*
X33486D2*
X33575D1*
X33908D2*
X35089D1*
X410Y13503D2*
X4616D1*
X5385D2*
X6292D1*
X6971D2*
X8389D1*
X8693D2*
X10960D1*
X11502D2*
X14018D1*
X14642D2*
X15686D1*
X16396D2*
X32487D1*
X34127D2*
X35089D1*
X410Y13254D2*
X4858D1*
X5142D2*
X6292D1*
X6971D2*
X8155D1*
X8924D2*
X10831D1*
X11627D2*
X13928D1*
X14728D2*
X32499D1*
X34107D2*
X35089D1*
X410Y13005D2*
X6292D1*
X6971D2*
X7737D1*
X14631D2*
X15303D1*
X15717D2*
X28018D1*
X29545D2*
X32452D1*
X34119D2*
X35089D1*
X410Y12757D2*
X4092D1*
X4767D2*
X6292D1*
X6971D2*
X7710D1*
X14736D2*
X15038D1*
X15885D2*
X28018D1*
X29545D2*
X29921D1*
X30580D2*
X31315D1*
X32377D2*
X32514D1*
X34049D2*
X35089D1*
X410Y12508D2*
X4061D1*
X4799D2*
X6292D1*
X15834D2*
X27999D1*
X29568D2*
X29850D1*
X30650D2*
X31085D1*
X32588D2*
X35089D1*
X1240Y12259D2*
X4276D1*
X4584D2*
X6292D1*
X15486D2*
X28100D1*
X29463D2*
X29975D1*
X30525D2*
X31100D1*
X32568D2*
X35089D1*
X1342Y12011D2*
X6292D1*
X7588D2*
X7713D1*
X15041D2*
X28557D1*
X29674D2*
X33503D1*
X33924D2*
X35089D1*
X1310Y11762D2*
X6292D1*
X7592D2*
X7714D1*
X15146D2*
X15237D1*
X15924D2*
X26354D1*
X27088D2*
X28440D1*
X29791D2*
X30858D1*
X32392D2*
X33233D1*
X34197D2*
X35089D1*
X410Y11513D2*
X491D1*
X1107D2*
X4217D1*
X4822D2*
X6292D1*
X6971D2*
X7107D1*
X7314D2*
X7714D1*
X16056D2*
X25573D1*
X26154D2*
X26335D1*
X27107D2*
X28065D1*
X29728D2*
X30831D1*
X32420D2*
X33178D1*
X34248D2*
X35089D1*
X410Y11265D2*
X4120D1*
X4920D2*
X6292D1*
X6971D2*
X7717D1*
X16037D2*
X25549D1*
X26178D2*
X26549D1*
X26892D2*
X26983D1*
X27619D2*
X27889D1*
X29787D2*
X31026D1*
X32221D2*
X33256D1*
X34170D2*
X35089D1*
X410Y11016D2*
X4210D1*
X4830D2*
X6292D1*
X6971D2*
X7717D1*
X15838D2*
X26901D1*
X27701D2*
X27924D1*
X29646D2*
X30120D1*
X30861D2*
X33530D1*
X33889D2*
X35089D1*
X410Y10767D2*
X4346D1*
X4642D2*
X6292D1*
X6971D2*
X7717D1*
X16029D2*
X27006D1*
X27592D2*
X29499D1*
X29685D2*
X30104D1*
X30877D2*
X33233D1*
X34185D2*
X35089D1*
X410Y10519D2*
X4108D1*
X4877D2*
X6292D1*
X6971D2*
X7717D1*
X16029D2*
X25229D1*
X25658D2*
X29264D1*
X29916D2*
X30335D1*
X30646D2*
X33174D1*
X34244D2*
X34866D1*
X410Y10270D2*
X4124D1*
X4865D2*
X6292D1*
X6971D2*
X7717D1*
X15842D2*
X25092D1*
X25791D2*
X29335D1*
X29846D2*
X32385D1*
X32857D2*
X33245D1*
X34174D2*
X34698D1*
X410Y10021D2*
X4331D1*
X16014D2*
X25194D1*
X25693D2*
X32225D1*
X33014D2*
X33546D1*
X33873D2*
X34737D1*
X410Y9772D2*
X4319D1*
X16037D2*
X25198D1*
X25689D2*
X28917D1*
X30431D2*
X32272D1*
X32971D2*
X33237D1*
X34185D2*
X35089D1*
X410Y9524D2*
X4319D1*
X15900D2*
X25092D1*
X25795D2*
X27924D1*
X28525D2*
X28799D1*
X30556D2*
X33174D1*
X34244D2*
X35089D1*
X410Y9275D2*
X565D1*
X1033D2*
X4319D1*
X16017D2*
X25225D1*
X26037D2*
X27635D1*
X28564D2*
X28874D1*
X30494D2*
X33245D1*
X34178D2*
X35089D1*
X1291Y9026D2*
X4319D1*
X16064D2*
X25303D1*
X26096D2*
X27616D1*
X28549D2*
X28819D1*
X30560D2*
X33569D1*
X33853D2*
X35089D1*
X1346Y8778D2*
X4319D1*
X15963D2*
X25440D1*
X25959D2*
X27897D1*
X28553D2*
X28862D1*
X30471D2*
X33241D1*
X34181D2*
X35089D1*
X1267Y8529D2*
X4319D1*
X15994D2*
X27397D1*
X27721D2*
X27839D1*
X28502D2*
X28815D1*
X30537D2*
X33174D1*
X34244D2*
X35089D1*
X410Y8280D2*
X4319D1*
X16064D2*
X25549D1*
X26217D2*
X27174D1*
X28490D2*
X28975D1*
X30416D2*
X32268D1*
X32951D2*
X33241D1*
X34181D2*
X35089D1*
X410Y8032D2*
X4319D1*
X15994D2*
X25565D1*
X26724D2*
X27190D1*
X27928D2*
X32214D1*
X33006D2*
X33577D1*
X33846D2*
X35089D1*
X410Y7783D2*
X4319D1*
X15908D2*
X25975D1*
X26764D2*
X28589D1*
X29924D2*
X32358D1*
X32865D2*
X33241D1*
X34178D2*
X35089D1*
X410Y7534D2*
X4319D1*
X15908D2*
X26143D1*
X26596D2*
X28514D1*
X30584D2*
X33174D1*
X34244D2*
X35089D1*
X410Y7286D2*
X4319D1*
X19224D2*
X28737D1*
X29357D2*
X29565D1*
X29772D2*
X29854D1*
X30650D2*
X33237D1*
X34181D2*
X35089D1*
X410Y7037D2*
X4319D1*
X19474D2*
X20202D1*
X20939D2*
X29979D1*
X30521D2*
X32506D1*
X33342D2*
X33553D1*
X33865D2*
X35089D1*
X410Y6788D2*
X4319D1*
X15908D2*
X18921D1*
X19721D2*
X20182D1*
X20955D2*
X32331D1*
X34174D2*
X35089D1*
X410Y6540D2*
X4319D1*
X15904D2*
X19171D1*
X19971D2*
X20413D1*
X20728D2*
X32366D1*
X34248D2*
X35089D1*
X410Y6291D2*
X4178D1*
X14002D2*
X17389D1*
X18010D2*
X18788D1*
X20209D2*
X20448D1*
X21103D2*
X21241D1*
X21760D2*
X22788D1*
X23412D2*
X26038D1*
X26326D2*
X32315D1*
X34193D2*
X35089D1*
X410Y6042D2*
X4167D1*
X14002D2*
X17323D1*
X18076D2*
X18721D1*
X19478D2*
X19667D1*
X20252D2*
X20378D1*
X21881D2*
X22702D1*
X23498D2*
X25799D1*
X26568D2*
X32323D1*
X33900D2*
X35089D1*
X410Y5793D2*
X4319D1*
X14002D2*
X17467D1*
X17935D2*
X18866D1*
X19334D2*
X19671D1*
X20252D2*
X20499D1*
X21053D2*
X21210D1*
X21795D2*
X22803D1*
X23400D2*
X25811D1*
X26556D2*
X32327D1*
X33478D2*
X33647D1*
X33840D2*
X35089D1*
X721Y5545D2*
X4319D1*
X14002D2*
X19565D1*
X20353D2*
X32495D1*
X34123D2*
X34772D1*
X810Y5296D2*
X4319D1*
X14002D2*
X19608D1*
X23822D2*
X32491D1*
X34119D2*
X34690D1*
X713Y5047D2*
X4319D1*
X14002D2*
X19995D1*
X23849D2*
X28030D1*
X29541D2*
X32460D1*
X34119D2*
X34796D1*
X410Y4799D2*
X4319D1*
X14002D2*
X17342D1*
X17877D2*
X23260D1*
X23662D2*
X28014D1*
X29556D2*
X31717D1*
X31951D2*
X32087D1*
X32318D2*
X32503D1*
X34068D2*
X35089D1*
X410Y4550D2*
X4456D1*
X13885D2*
X17229D1*
X17990D2*
X27999D1*
X29568D2*
X31096D1*
X32584D2*
X35089D1*
X410Y4301D2*
X7932D1*
X8580D2*
X8960D1*
X9642D2*
X12612D1*
X13236D2*
X17323D1*
X17896D2*
X28085D1*
X29482D2*
X31096D1*
X32580D2*
X35089D1*
X410Y4053D2*
X6667D1*
X7314D2*
X7854D1*
X8654D2*
X8905D1*
X10334D2*
X12526D1*
X13326D2*
X31409D1*
X31537D2*
X35089D1*
X410Y3804D2*
X2034D1*
X2967D2*
X6592D1*
X7389D2*
X7971D1*
X8541D2*
X9046D1*
X10431D2*
X12628D1*
X13224D2*
X27034D1*
X27967D2*
X35089D1*
X410Y3555D2*
X1592D1*
X3408D2*
X6706D1*
X7275D2*
X9721D1*
X10338D2*
X26592D1*
X28408D2*
X35089D1*
X410Y3307D2*
X1358D1*
X3639D2*
X4424D1*
X5478D2*
X6417D1*
X6685D2*
X7417D1*
X7685D2*
X8417D1*
X8685D2*
X9620D1*
X10678D2*
X26358D1*
X28639D2*
X35089D1*
X410Y3058D2*
X1217D1*
X3783D2*
X4143D1*
X5760D2*
X6049D1*
X9053D2*
X9339D1*
X10959D2*
X26217D1*
X28783D2*
X35089D1*
X410Y2809D2*
X1135D1*
X3865D2*
X4003D1*
X11099D2*
X11495D1*
X12224D2*
X12495D1*
X13224D2*
X13714D1*
X14467D2*
X14714D1*
X15467D2*
X15983D1*
X16756D2*
X16983D1*
X17756D2*
X18010D1*
X18728D2*
X19444D1*
X20217D2*
X20444D1*
X21217D2*
X21471D1*
X22189D2*
X22784D1*
X23615D2*
X23784D1*
X24615D2*
X24784D1*
X25615D2*
X26135D1*
X28865D2*
X30901D1*
X31678D2*
X31901D1*
X32678D2*
X32901D1*
X33678D2*
X35089D1*
X410Y2561D2*
X1100D1*
X11158D2*
X11342D1*
X13377D2*
X13569D1*
X15611D2*
X15846D1*
X18873D2*
X19307D1*
X22334D2*
X22671D1*
X25728D2*
X26100D1*
X28900D2*
X30768D1*
X33814D2*
X35089D1*
X410Y2312D2*
X1112D1*
X5959D2*
X6167D1*
X6935D2*
X7167D1*
X7935D2*
X8167D1*
X8935D2*
X9139D1*
X11154D2*
X11339D1*
X13381D2*
X13573D1*
X15607D2*
X15854D1*
X18865D2*
X19315D1*
X22326D2*
X22694D1*
X25705D2*
X26112D1*
X28889D2*
X30772D1*
X33806D2*
X35089D1*
X410Y2063D2*
X1171D1*
X3830D2*
X4014D1*
X5889D2*
X9210D1*
X11088D2*
X11479D1*
X12240D2*
X12479D1*
X13240D2*
X13721D1*
X14459D2*
X14721D1*
X15459D2*
X16014D1*
X16728D2*
X17014D1*
X17728D2*
X18046D1*
X18697D2*
X19471D1*
X20189D2*
X20471D1*
X21189D2*
X21503D1*
X22154D2*
X22881D1*
X23517D2*
X23881D1*
X24517D2*
X24881D1*
X25517D2*
X26171D1*
X28830D2*
X30932D1*
X31646D2*
X31932D1*
X32646D2*
X32932D1*
X33646D2*
X35089D1*
X410Y1814D2*
X1280D1*
X3717D2*
X4167D1*
X5736D2*
X9362D1*
X10935D2*
X26280D1*
X28717D2*
X35089D1*
X410Y1566D2*
X1464D1*
X3537D2*
X4479D1*
X5424D2*
X9674D1*
X10623D2*
X26464D1*
X28537D2*
X35089D1*
X410Y1317D2*
X1772D1*
X3228D2*
X26772D1*
X28228D2*
X35089D1*
X410Y1068D2*
X35089D1*
X410Y820D2*
X35089D1*
X775Y571D2*
X4995D1*
X5724D2*
X9956D1*
X10685D2*
X14905D1*
X15635D2*
X19866D1*
X20592D2*
X24815D1*
X25545D2*
X29768D1*
X30494D2*
X34725D1*
X1146Y29640D2*
X1142Y29629D1*
X1278Y29666D1*
X1403Y29673D1*
X1527Y29656D1*
X1645Y29617D1*
X1754Y29556D1*
X1849Y29475D1*
X1927Y29378D1*
X1961Y29324D1*
X2051Y29411D1*
X2160Y29471D1*
X2300Y29502D1*
X2717Y29506D1*
X3232Y29502D1*
X3353Y29471D1*
X3475Y29396D1*
X3565Y29464D1*
X3678Y29517D1*
X3820Y29543D1*
X4527Y29546D1*
X4594Y29542D1*
X4716Y29514D1*
X4828Y29460D1*
X4926Y29383D1*
X5005Y29286D1*
X5061Y29174D1*
X5091Y29053D1*
X5097Y28976D1*
X5083Y28852D1*
X5043Y28734D1*
X4978Y28628D1*
X4891Y28538D1*
X4787Y28470D1*
X4670Y28425D1*
X4527Y28407D1*
X3854Y28408D1*
X3753Y28417D1*
X3634Y28453D1*
X3525Y28515D1*
X3426Y28598D1*
X3313Y28547D1*
X3169Y28525D1*
X2339Y28526D1*
X2239Y28536D1*
X2121Y28578D1*
X2018Y28648D1*
X1959Y28715D1*
X1932Y28661D1*
X1855Y28563D1*
X1760Y28481D1*
X1652Y28418D1*
X1535Y28377D1*
X1411Y28359D1*
X1286Y28364D1*
X1165Y28393D1*
X1051Y28445D1*
X949Y28517D1*
X863Y28607D1*
X795Y28711D1*
X748Y28827D1*
X723Y28949D1*
Y29074D1*
X752Y29215D1*
X610Y29195D1*
X485Y29204D1*
X385Y29235D1*
Y25275D1*
X516Y25260D1*
X628Y25205D1*
X716Y25117D1*
X770Y25005D1*
X785Y24900D1*
X764Y24777D1*
X705Y24668D1*
X613Y24584D1*
X498Y24536D1*
X386Y24528D1*
X385Y20377D1*
X516Y20360D1*
X628Y20305D1*
X716Y20217D1*
X770Y20105D1*
X785Y20000D1*
X764Y19877D1*
X705Y19768D1*
X613Y19684D1*
X498Y19636D1*
X386Y19628D1*
X385Y15470D1*
X516Y15460D1*
X628Y15405D1*
X716Y15317D1*
X770Y15205D1*
X785Y15100D1*
X764Y14977D1*
X705Y14868D1*
X613Y14784D1*
X498Y14736D1*
X386Y14728D1*
X385Y12260D1*
X495Y12370D1*
X604Y12431D1*
X724Y12463D1*
X849Y12466D1*
X971Y12440D1*
X1083Y12385D1*
X1178Y12305D1*
X1252Y12205D1*
X1300Y12089D1*
X1319Y11949D1*
X1304Y11825D1*
X1260Y11708D1*
X1190Y11605D1*
X1097Y11522D1*
X987Y11464D1*
X866Y11433D1*
X741Y11432D1*
X620Y11461D1*
X509Y11517D1*
X415Y11599D1*
X385Y11640D1*
Y9111D1*
X495Y9221D1*
X604Y9281D1*
X724Y9314D1*
X849Y9317D1*
X971Y9290D1*
X1083Y9235D1*
X1178Y9155D1*
X1252Y9055D1*
X1300Y8940D1*
X1319Y8799D1*
X1304Y8675D1*
X1260Y8559D1*
X1190Y8456D1*
X1097Y8373D1*
X987Y8314D1*
X866Y8283D1*
X741Y8282D1*
X620Y8311D1*
X509Y8368D1*
X415Y8449D1*
X385Y8491D1*
Y5674D1*
X516Y5660D1*
X628Y5605D1*
X716Y5517D1*
X770Y5405D1*
X785Y5300D1*
X764Y5177D1*
X705Y5068D1*
X613Y4984D1*
X498Y4936D1*
X386Y4928D1*
X385Y783D1*
X516Y770D1*
X628Y715D1*
X716Y627D1*
X770Y515D1*
X785Y410D1*
X780Y383D1*
X4983Y385D1*
X4992Y481D1*
X5036Y598D1*
X5115Y694D1*
X5221Y758D1*
X5343Y785D1*
X5466Y770D1*
X5578Y715D1*
X5666Y627D1*
X5720Y515D1*
X5735Y410D1*
X5730Y383D1*
X8510Y385D1*
X9944D1*
X9952Y481D1*
X9996Y598D1*
X10075Y694D1*
X10181Y758D1*
X10303Y785D1*
X10426Y770D1*
X10538Y715D1*
X10626Y627D1*
X10680Y515D1*
X10695Y410D1*
X10690Y383D1*
X14635Y385D1*
X14897D1*
X14902Y481D1*
X14946Y598D1*
X15025Y694D1*
X15131Y758D1*
X15253Y785D1*
X15376Y770D1*
X15488Y715D1*
X15576Y627D1*
X15630Y515D1*
X15645Y410D1*
X15640Y383D1*
X19858Y385D1*
X19862Y481D1*
X19906Y598D1*
X19985Y694D1*
X20091Y758D1*
X20213Y785D1*
X20336Y770D1*
X20448Y715D1*
X20536Y627D1*
X20590Y515D1*
X20605Y410D1*
X20600Y383D1*
X23510Y385D1*
X24803D1*
X24812Y481D1*
X24856Y598D1*
X24935Y694D1*
X25041Y758D1*
X25163Y785D1*
X25286Y770D1*
X25398Y715D1*
X25486Y627D1*
X25540Y515D1*
X25555Y410D1*
X25550Y383D1*
X29756Y385D1*
X29762Y481D1*
X29806Y598D1*
X29885Y694D1*
X29991Y758D1*
X30113Y785D1*
X30236Y770D1*
X30348Y715D1*
X30436Y627D1*
X30490Y515D1*
X30505Y410D1*
X30500Y383D1*
X32760Y385D1*
X34717D1*
X34722Y481D1*
X34766Y598D1*
X34845Y694D1*
X34951Y758D1*
X35073Y785D1*
X35115Y779D1*
Y4936D1*
X35054Y4937D1*
X34934Y4969D1*
X34831Y5039D1*
X34757Y5139D1*
X34719Y5257D1*
X34722Y5381D1*
X34766Y5498D1*
X34845Y5594D1*
X34951Y5658D1*
X35073Y5685D1*
X35115Y5679D1*
Y9826D1*
X35054Y9827D1*
X34934Y9859D1*
X34831Y9929D1*
X34757Y10029D1*
X34719Y10147D1*
X34722Y10271D1*
X34766Y10388D1*
X34845Y10484D1*
X34951Y10548D1*
X35073Y10575D1*
X35115Y10569D1*
Y14725D1*
X35054Y14727D1*
X34934Y14759D1*
X34831Y14829D1*
X34757Y14929D1*
X34719Y15047D1*
X34722Y15171D1*
X34766Y15288D1*
X34845Y15384D1*
X34951Y15448D1*
X35073Y15475D1*
X35115Y15469D1*
Y19623D1*
X35054Y19627D1*
X34934Y19659D1*
X34831Y19729D1*
X34757Y19829D1*
X34719Y19947D1*
X34722Y20071D1*
X34766Y20188D1*
X34845Y20284D1*
X34951Y20348D1*
X35073Y20375D1*
X35115Y20369D1*
Y24530D1*
X35054Y24527D1*
X34934Y24559D1*
X34831Y24629D1*
X34757Y24729D1*
X34719Y24847D1*
X34722Y24971D1*
X34766Y25088D1*
X34845Y25184D1*
X34951Y25248D1*
X35073Y25275D1*
X35115Y25269D1*
Y29412D1*
X35054Y29417D1*
X34934Y29449D1*
X34831Y29519D1*
X34757Y29619D1*
X34719Y29737D1*
X34722Y29861D1*
X34766Y29978D1*
X34845Y30074D1*
X34951Y30138D1*
X35073Y30165D1*
X35115Y30159D1*
Y34319D1*
X35054Y34317D1*
X34934Y34349D1*
X34831Y34419D1*
X34757Y34519D1*
X34719Y34637D1*
X34722Y34761D1*
X34766Y34878D1*
X34845Y34974D1*
X34951Y35038D1*
X35073Y35065D1*
X35115Y35059D1*
Y39217D1*
X35054D1*
X34934Y39249D1*
X34831Y39319D1*
X34757Y39419D1*
X34719Y39537D1*
X34721Y39619D1*
X33865Y39615D1*
X30502D1*
X30484Y39467D1*
X30425Y39358D1*
X30333Y39274D1*
X30218Y39226D1*
X30094Y39217D1*
X29974Y39249D1*
X29871Y39319D1*
X29797Y39419D1*
X29759Y39537D1*
X29761Y39619D1*
X29365Y39615D1*
X25556D1*
X25534Y39467D1*
X25475Y39358D1*
X25383Y39274D1*
X25268Y39226D1*
X25144Y39217D1*
X25024Y39249D1*
X24921Y39319D1*
X24847Y39419D1*
X24809Y39537D1*
X24811Y39619D1*
X24240Y39615D1*
X20603D1*
X20584Y39467D1*
X20525Y39358D1*
X20433Y39274D1*
X20318Y39226D1*
X20194Y39217D1*
X20074Y39249D1*
X19971Y39319D1*
X19897Y39419D1*
X19859Y39537D1*
X19861Y39619D1*
X18990Y39615D1*
X15642D1*
X15624Y39467D1*
X15565Y39358D1*
X15473Y39274D1*
X15358Y39226D1*
X15234Y39217D1*
X15114Y39249D1*
X15011Y39319D1*
X14937Y39419D1*
X14899Y39537D1*
X14901Y39619D1*
X14490Y39615D1*
X10697D1*
X10674Y39467D1*
X10615Y39358D1*
X10523Y39274D1*
X10408Y39226D1*
X10284Y39217D1*
X10164Y39249D1*
X10061Y39319D1*
X9987Y39419D1*
X9949Y39537D1*
X9951Y39619D1*
X9240Y39615D1*
X5736D1*
X5714Y39467D1*
X5655Y39358D1*
X5563Y39274D1*
X5448Y39226D1*
X5324Y39217D1*
X5204Y39249D1*
X5101Y39319D1*
X5027Y39419D1*
X4989Y39537D1*
X4991Y39619D1*
X4115Y39615D1*
X783D1*
X764Y39467D1*
X705Y39358D1*
X613Y39274D1*
X498Y39226D1*
X386Y39218D1*
X385Y35064D1*
X516Y35050D1*
X628Y34995D1*
X716Y34907D1*
X770Y34795D1*
X785Y34690D1*
X764Y34567D1*
X705Y34458D1*
X613Y34374D1*
X498Y34326D1*
X386Y34318D1*
X385Y30767D1*
X533Y30803D1*
X657Y30802D1*
X752Y30780D1*
X723Y30918D1*
Y31043D1*
X745Y31165D1*
X791Y31282D1*
X858Y31387D1*
X943Y31478D1*
X1044Y31551D1*
X1157Y31604D1*
X1278Y31634D1*
X1403Y31642D1*
X1527Y31625D1*
X1645Y31585D1*
X1754Y31524D1*
X1849Y31443D1*
X1927Y31346D1*
X1961Y31293D1*
X2051Y31379D1*
X2160Y31440D1*
X2300Y31471D1*
X2717Y31475D1*
X3232Y31471D1*
X3353Y31439D1*
X3431Y31395D1*
X3466Y31436D1*
X3565Y31512D1*
X3678Y31564D1*
X3820Y31590D1*
X4527Y31593D1*
X4594Y31589D1*
X4716Y31561D1*
X4828Y31507D1*
X4926Y31430D1*
X5005Y31333D1*
X5061Y31222D1*
X5091Y31101D1*
X5097Y31024D1*
X5083Y30900D1*
X5043Y30782D1*
X4978Y30675D1*
X4891Y30585D1*
X4787Y30517D1*
X4670Y30472D1*
X4527Y30454D1*
X3854Y30455D1*
X3753Y30464D1*
X3634Y30500D1*
X3525Y30562D1*
X3476Y30606D1*
X3426Y30566D1*
X3313Y30515D1*
X3169Y30494D1*
X2339Y30495D1*
X2239Y30505D1*
X2121Y30546D1*
X2018Y30616D1*
X1959Y30683D1*
X1932Y30629D1*
X1855Y30531D1*
X1760Y30449D1*
X1652Y30387D1*
X1535Y30345D1*
X1411Y30327D1*
X1286Y30333D1*
X1140Y30373D1*
X1160Y30236D1*
Y29764D1*
X1146Y29640D1*
X2224Y26805D2*
X2197Y26683D1*
X2152Y26566D1*
X2091Y26457D1*
X2015Y26358D1*
X1925Y26272D1*
X1824Y26199D1*
X1712Y26142D1*
X1594Y26101D1*
X1471Y26079D1*
X1347Y26074D1*
X1223Y26088D1*
X1102Y26119D1*
X987Y26168D1*
X880Y26233D1*
X784Y26313D1*
X701Y26406D1*
X632Y26510D1*
X579Y26623D1*
X543Y26743D1*
X525Y26866D1*
X524Y26991D1*
X543Y27115D1*
X579Y27234D1*
X632Y27348D1*
X700Y27452D1*
X784Y27545D1*
X880Y27625D1*
X986Y27690D1*
X1101Y27739D1*
X1222Y27770D1*
X1346Y27784D1*
X1471Y27780D1*
X1594Y27757D1*
X1712Y27717D1*
X1823Y27660D1*
X1925Y27587D1*
X2015Y27500D1*
X2091Y27402D1*
X2152Y27293D1*
X2197Y27176D1*
X2224Y27054D1*
X2233Y26929D1*
X2224Y26805D1*
X2174Y32946D2*
X2145Y32825D1*
X2098Y32709D1*
X2033Y32602D1*
X1953Y32507D1*
X1859Y32425D1*
X1753Y32358D1*
X1638Y32309D1*
X1517Y32278D1*
X1393Y32265D1*
X1268Y32273D1*
X1146Y32299D1*
X1030Y32344D1*
X922Y32407D1*
X825Y32485D1*
X741Y32578D1*
X672Y32682D1*
X621Y32796D1*
X587Y32916D1*
X573Y33040D1*
X578Y33165D1*
X602Y33287D1*
X645Y33405D1*
X705Y33514D1*
X782Y33613D1*
X873Y33698D1*
X976Y33769D1*
X1088Y33823D1*
X1208Y33858D1*
X1332Y33875D1*
X1457Y33873D1*
X1580Y33851D1*
X1698Y33810D1*
X1808Y33752D1*
X1908Y33677D1*
X1995Y33588D1*
X2068Y33486D1*
X2124Y33375D1*
X2162Y33256D1*
X2183Y33071D1*
X2174Y32946D1*
X5664Y26805D2*
X5621Y26688D1*
X5553Y26583D1*
X5463Y26497D1*
X5355Y26434D1*
X5236Y26398D1*
X5013Y26389D1*
X4285D1*
X4162Y26409D1*
X4047Y26457D1*
X3946Y26530D1*
X3864Y26625D1*
X3806Y26735D1*
X3775Y26856D1*
X3773Y26981D1*
X3799Y27103D1*
X3852Y27215D1*
X3930Y27313D1*
X4028Y27390D1*
X4141Y27442D1*
X4311Y27470D1*
X5215Y27464D1*
X5335Y27432D1*
X5445Y27374D1*
X5539Y27291D1*
X5611Y27189D1*
X5658Y27074D1*
X5678Y26929D1*
X5664Y26805D1*
X5337Y32570D2*
X5236Y32539D1*
X5013Y32530D1*
X4285Y32531D1*
X4162Y32551D1*
X4047Y32599D1*
X3946Y32672D1*
X3864Y32766D1*
X3806Y32877D1*
X3775Y32998D1*
X3773Y33122D1*
X3799Y33244D1*
X3852Y33357D1*
X3930Y33455D1*
X4028Y33532D1*
X4141Y33584D1*
X4311Y33611D1*
X5215Y33606D1*
X5335Y33574D1*
X5445Y33515D1*
X5539Y33433D1*
X5611Y33331D1*
X5658Y33216D1*
X5678Y33071D1*
X5672Y33021D1*
X5806Y33010D1*
X5894Y32967D1*
X5961Y32998D1*
X6083Y33025D1*
X6206Y33010D1*
X6315Y32957D1*
X6386Y32998D1*
X6508Y33025D1*
X6631Y33010D1*
X6743Y32955D1*
X6831Y32867D1*
X6885Y32755D1*
X6900Y32650D1*
X6879Y32527D1*
X6820Y32418D1*
X6728Y32334D1*
X6613Y32286D1*
X6489Y32277D1*
X6369Y32309D1*
X6314Y32346D1*
X6188Y32286D1*
X6064Y32277D1*
X5944Y32309D1*
X5902Y32337D1*
X5788Y32286D1*
X5664Y32277D1*
X5544Y32309D1*
X5441Y32379D1*
X5367Y32479D1*
X5337Y32571D1*
X3569Y27514D2*
X3532Y27394D1*
X3472Y27285D1*
X3392Y27189D1*
X3295Y27111D1*
X3184Y27054D1*
X3064Y27019D1*
X2940Y27010D1*
X2816Y27024D1*
X2697Y27064D1*
X2589Y27125D1*
X2495Y27207D1*
X2419Y27306D1*
X2364Y27418D1*
X2332Y27539D1*
X2325Y27664D1*
X2342Y27787D1*
X2384Y27905D1*
X2448Y28012D1*
X2532Y28104D1*
X2632Y28178D1*
X2745Y28231D1*
X2867Y28260D1*
X2991Y28265D1*
X3115Y28245D1*
X3231Y28201D1*
X3337Y28135D1*
X3428Y28049D1*
X3500Y27947D1*
X3550Y27833D1*
X3577Y27711D1*
X3581Y27638D1*
X3569Y27514D1*
X4764Y19384D2*
X4718Y19268D1*
X4644Y19168D1*
X4548Y19089D1*
X4435Y19036D1*
X4312Y19014D1*
X4188Y19023D1*
X4070Y19063D1*
X3965Y19131D1*
X3894Y19209D1*
X3761Y19089D1*
X3647Y19036D1*
X3525Y19014D1*
X3400Y19023D1*
X3282Y19063D1*
X3178Y19131D1*
X3094Y19223D1*
X3035Y19333D1*
X3006Y19454D1*
X3009Y19579D1*
X3042Y19699D1*
X3104Y19807D1*
X3192Y19896D1*
X3298Y19960D1*
X3418Y19996D1*
X3476Y19998D1*
X3400Y20007D1*
X3282Y20047D1*
X3178Y20115D1*
X3094Y20207D1*
X3035Y20317D1*
X3006Y20439D1*
X3009Y20563D1*
X3042Y20683D1*
X3104Y20791D1*
X3192Y20880D1*
X3298Y20945D1*
X3418Y20980D1*
X3543Y20985D1*
X3664Y20958D1*
X3776Y20901D1*
X3869Y20819D1*
X3892Y20791D1*
X3979Y20880D1*
X4086Y20945D1*
X4205Y20980D1*
X4330Y20985D1*
X4452Y20958D1*
X4563Y20901D1*
X4656Y20819D1*
X4726Y20716D1*
X4768Y20598D1*
X4780Y20492D1*
X4764Y20368D1*
X4718Y20253D1*
X4644Y20152D1*
X4548Y20073D1*
X4435Y20021D1*
X4324Y20000D1*
X4188Y20007D1*
X4070Y20047D1*
X3965Y20115D1*
X3894Y20193D1*
X3761Y20073D1*
X3647Y20021D1*
X3536Y20000D1*
X3664Y19974D1*
X3776Y19917D1*
X3869Y19835D1*
X3892Y19807D1*
X3979Y19896D1*
X4086Y19960D1*
X4205Y19996D1*
X4334Y20000D1*
X4452Y19974D1*
X4563Y19917D1*
X4656Y19835D1*
X4726Y19732D1*
X4768Y19614D1*
X4780Y19508D1*
X4764Y19384D1*
X3287Y22246D2*
X3260Y22124D1*
X3216Y22007D1*
X3155Y21897D1*
X3079Y21798D1*
X2990Y21711D1*
X2889Y21637D1*
X2779Y21579D1*
X2661Y21537D1*
X2539Y21512D1*
X2414Y21506D1*
X2290Y21517D1*
X2168Y21546D1*
X2053Y21593D1*
X1944Y21655D1*
X1847Y21733D1*
X1761Y21824D1*
X1689Y21926D1*
X1633Y22038D1*
X1593Y22156D1*
X1571Y22279D1*
X1567Y22404D1*
X1581Y22528D1*
X1613Y22649D1*
X1661Y22764D1*
X1726Y22871D1*
X1806Y22967D1*
X1898Y23051D1*
X2002Y23121D1*
X2114Y23175D1*
X2234Y23212D1*
X2357Y23231D1*
X2482Y23233D1*
X2606Y23217D1*
X2726Y23183D1*
X2840Y23132D1*
X2945Y23065D1*
X3040Y22984D1*
X3122Y22890D1*
X3190Y22785D1*
X3242Y22671D1*
X3277Y22551D1*
X3296Y22370D1*
X3287Y22246D1*
X3337Y17505D2*
X3312Y17383D1*
X3270Y17265D1*
X3212Y17154D1*
X3140Y17052D1*
X3055Y16961D1*
X2958Y16882D1*
X2851Y16818D1*
X2737Y16768D1*
X2616Y16734D1*
X2493Y16717D1*
X2368Y16718D1*
X2244Y16735D1*
X2124Y16768D1*
X2009Y16818D1*
X1903Y16883D1*
X1806Y16962D1*
X1721Y17054D1*
X1649Y17156D1*
X1592Y17267D1*
X1550Y17385D1*
X1525Y17507D1*
X1516Y17632D1*
X1525Y17756D1*
X1551Y17878D1*
X1593Y17996D1*
X1651Y18107D1*
X1723Y18209D1*
X1808Y18300D1*
X1905Y18378D1*
X2012Y18443D1*
X2127Y18492D1*
X2247Y18526D1*
X2371Y18543D1*
X2496Y18542D1*
X2620Y18525D1*
X2740Y18491D1*
X2854Y18441D1*
X2961Y18375D1*
X3058Y18296D1*
X3142Y18205D1*
X3214Y18103D1*
X3271Y17991D1*
X3313Y17874D1*
X3338Y17751D1*
X3346Y17630D1*
X3337Y17505D1*
X34215Y31426D2*
X34170Y31310D1*
X34099Y31208D1*
X34004Y31126D1*
X33893Y31070D1*
X33806Y31050D1*
X33937Y31009D1*
X34043Y30943D1*
X34130Y30854D1*
X34192Y30746D1*
X34227Y30626D1*
X34234Y30545D1*
X34218Y30422D1*
X34173Y30305D1*
X34102Y30203D1*
X34008Y30122D1*
X33896Y30065D1*
X33775Y30038D1*
X33650Y30040D1*
X33530Y30073D1*
X33445Y30121D1*
X33473Y30050D1*
X33488Y29945D1*
X33468Y29823D1*
X33455Y29799D1*
X33614Y29794D1*
X33736Y29820D1*
X33860Y29805D1*
X33971Y29750D1*
X34059Y29662D1*
X34113Y29550D1*
X34128Y29445D1*
X34108Y29323D1*
X34050Y29217D1*
X34093Y29120D1*
X34108Y29015D1*
X34088Y28893D1*
X34028Y28783D1*
X33936Y28700D1*
X33821Y28651D1*
X33697Y28642D1*
X33577Y28674D1*
X33529Y28707D1*
X33401Y28651D1*
X33277Y28642D1*
X33157Y28674D1*
X33096Y28716D1*
X33066Y28690D1*
X32951Y28641D1*
X32827Y28632D1*
X32707Y28664D1*
X32604Y28734D1*
X32530Y28834D1*
X32492Y28952D1*
X32495Y29077D1*
X32539Y29193D1*
X32571Y29232D1*
X32550Y29264D1*
X32512Y29382D1*
X32515Y29507D1*
X32552Y29605D1*
X32454Y29674D1*
X32380Y29774D1*
X32342Y29892D1*
X32345Y30017D1*
X32401Y30148D1*
X32352Y30292D1*
X32355Y30417D1*
X32411Y30548D1*
X32362Y30682D1*
X32365Y30807D1*
X32409Y30923D1*
X32488Y31019D1*
X32594Y31084D1*
X32716Y31110D1*
X32840Y31095D1*
X32927Y31052D1*
X32994Y31084D1*
X33116Y31110D1*
X33240Y31095D1*
X33351Y31040D1*
X33431Y30960D1*
X33571Y31032D1*
X33644Y31046D1*
X33527Y31078D1*
X33418Y31139D1*
X33327Y31224D1*
X33260Y31329D1*
X33220Y31448D1*
X33210Y31572D1*
X33231Y31695D1*
X33280Y31809D1*
X33356Y31908D1*
X33454Y31986D1*
X33568Y32037D1*
X33625Y32048D1*
X33527Y32078D1*
X33418Y32139D1*
X33327Y32224D1*
X33260Y32329D1*
X33220Y32448D1*
X33210Y32572D1*
X33231Y32695D1*
X33280Y32809D1*
X33356Y32908D1*
X33454Y32986D1*
X33568Y33037D1*
X33625Y33048D1*
X33527Y33078D1*
X33418Y33139D1*
X33327Y33224D1*
X33260Y33329D1*
X33220Y33448D1*
X33210Y33572D1*
X33231Y33695D1*
X33280Y33809D1*
X33356Y33908D1*
X33454Y33986D1*
X33568Y34037D1*
X33625Y34048D1*
X33527Y34078D1*
X33418Y34139D1*
X33327Y34224D1*
X33260Y34329D1*
X33220Y34448D1*
X33210Y34572D1*
X33231Y34695D1*
X33280Y34809D1*
X33356Y34908D1*
X33454Y34986D1*
X33568Y35037D1*
X33648Y35052D1*
X33530Y35083D1*
X33421Y35144D1*
X33330Y35230D1*
X33263Y35335D1*
X33223Y35453D1*
X33213Y35577D1*
X33234Y35700D1*
X33284Y35815D1*
X33360Y35913D1*
X33457Y35991D1*
X33571Y36042D1*
X33694Y36065D1*
X33818Y36057D1*
X33937Y36019D1*
X34043Y35953D1*
X34130Y35864D1*
X34192Y35756D1*
X34227Y35636D1*
X34234Y35555D1*
X34218Y35432D1*
X34173Y35315D1*
X34102Y35213D1*
X34008Y35132D1*
X33896Y35075D1*
X33815Y35051D1*
X33934Y35013D1*
X34040Y34948D1*
X34127Y34858D1*
X34189Y34751D1*
X34224Y34631D1*
X34230Y34550D1*
X34215Y34426D1*
X34170Y34310D1*
X34099Y34208D1*
X34004Y34126D1*
X33893Y34070D1*
X33813Y34052D1*
X33934Y34013D1*
X34040Y33948D1*
X34127Y33858D1*
X34189Y33751D1*
X34224Y33631D1*
X34230Y33550D1*
X34215Y33426D1*
X34170Y33310D1*
X34099Y33208D1*
X34004Y33126D1*
X33893Y33070D1*
X33813Y33052D1*
X33934Y33013D1*
X34040Y32948D1*
X34127Y32858D1*
X34189Y32751D1*
X34224Y32631D1*
X34230Y32550D1*
X34215Y32426D1*
X34170Y32310D1*
X34099Y32208D1*
X34004Y32126D1*
X33893Y32070D1*
X33813Y32052D1*
X33934Y32013D1*
X34040Y31948D1*
X34127Y31858D1*
X34189Y31751D1*
X34224Y31631D1*
X34230Y31550D1*
X34215Y31426D1*
Y23366D2*
X34170Y23250D1*
X34099Y23148D1*
X34004Y23066D1*
X33893Y23010D1*
X33806Y22990D1*
X33937Y22949D1*
X34043Y22883D1*
X34130Y22794D1*
X34192Y22686D1*
X34227Y22566D1*
X34234Y22485D1*
X34218Y22362D1*
X34173Y22245D1*
X34102Y22143D1*
X34008Y22062D1*
X33896Y22005D1*
X33775Y21978D1*
X33650Y21980D1*
X33530Y22013D1*
X33445Y22061D1*
X33473Y21990D1*
X33488Y21885D1*
X33468Y21763D1*
X33455Y21739D1*
X33614Y21734D1*
X33736Y21760D1*
X33860Y21745D1*
X33971Y21690D1*
X34059Y21602D1*
X34113Y21490D1*
X34128Y21385D1*
X34108Y21263D1*
X34050Y21157D1*
X34093Y21060D1*
X34108Y20955D1*
X34088Y20833D1*
X34028Y20723D1*
X33936Y20640D1*
X33821Y20591D1*
X33697Y20582D1*
X33577Y20614D1*
X33529Y20647D1*
X33401Y20591D1*
X33277Y20582D1*
X33157Y20614D1*
X33096Y20656D1*
X33066Y20630D1*
X32951Y20581D1*
X32827Y20572D1*
X32707Y20604D1*
X32604Y20674D1*
X32530Y20774D1*
X32492Y20892D1*
X32495Y21017D1*
X32539Y21133D1*
X32571Y21172D1*
X32550Y21204D1*
X32512Y21322D1*
X32515Y21447D1*
X32552Y21545D1*
X32454Y21614D1*
X32380Y21714D1*
X32342Y21832D1*
X32345Y21957D1*
X32401Y22088D1*
X32352Y22232D1*
X32355Y22357D1*
X32411Y22488D1*
X32362Y22622D1*
X32365Y22747D1*
X32409Y22863D1*
X32488Y22959D1*
X32594Y23024D1*
X32716Y23050D1*
X32840Y23035D1*
X32927Y22992D1*
X32994Y23024D1*
X33116Y23050D1*
X33240Y23035D1*
X33351Y22980D1*
X33431Y22900D1*
X33571Y22972D1*
X33644Y22986D1*
X33527Y23018D1*
X33418Y23079D1*
X33327Y23164D1*
X33260Y23269D1*
X33220Y23388D1*
X33210Y23512D1*
X33231Y23635D1*
X33280Y23749D1*
X33356Y23848D1*
X33454Y23926D1*
X33568Y23977D1*
X33625Y23988D1*
X33527Y24018D1*
X33418Y24079D1*
X33327Y24164D1*
X33260Y24269D1*
X33220Y24388D1*
X33210Y24512D1*
X33231Y24635D1*
X33280Y24749D1*
X33356Y24848D1*
X33454Y24926D1*
X33568Y24977D1*
X33625Y24988D1*
X33527Y25018D1*
X33418Y25079D1*
X33327Y25164D1*
X33260Y25269D1*
X33220Y25388D1*
X33210Y25512D1*
X33231Y25635D1*
X33280Y25749D1*
X33356Y25848D1*
X33454Y25926D1*
X33568Y25977D1*
X33625Y25988D1*
X33527Y26018D1*
X33418Y26079D1*
X33327Y26164D1*
X33260Y26269D1*
X33220Y26388D1*
X33210Y26512D1*
X33231Y26635D1*
X33280Y26749D1*
X33356Y26848D1*
X33454Y26926D1*
X33568Y26977D1*
X33648Y26992D1*
X33530Y27023D1*
X33421Y27084D1*
X33330Y27170D1*
X33263Y27275D1*
X33223Y27393D1*
X33213Y27517D1*
X33234Y27640D1*
X33284Y27755D1*
X33360Y27853D1*
X33457Y27931D1*
X33571Y27982D1*
X33694Y28005D1*
X33818Y27997D1*
X33937Y27959D1*
X34043Y27893D1*
X34130Y27804D1*
X34192Y27696D1*
X34227Y27576D1*
X34234Y27495D1*
X34218Y27372D1*
X34173Y27255D1*
X34102Y27153D1*
X34008Y27072D1*
X33896Y27015D1*
X33815Y26991D1*
X33934Y26953D1*
X34040Y26888D1*
X34127Y26798D1*
X34189Y26691D1*
X34224Y26571D1*
X34230Y26490D1*
X34215Y26366D1*
X34170Y26250D1*
X34099Y26148D1*
X34004Y26066D1*
X33893Y26010D1*
X33813Y25992D1*
X33934Y25953D1*
X34040Y25888D1*
X34127Y25798D1*
X34189Y25691D1*
X34224Y25571D1*
X34230Y25490D1*
X34215Y25366D1*
X34170Y25250D1*
X34099Y25148D1*
X34004Y25066D1*
X33893Y25010D1*
X33813Y24992D1*
X33934Y24953D1*
X34040Y24888D1*
X34127Y24798D1*
X34189Y24691D1*
X34224Y24571D1*
X34230Y24490D1*
X34215Y24366D1*
X34170Y24250D1*
X34099Y24148D1*
X34004Y24066D1*
X33893Y24010D1*
X33813Y23992D1*
X33934Y23953D1*
X34040Y23888D1*
X34127Y23798D1*
X34189Y23691D1*
X34224Y23571D1*
X34230Y23490D1*
X34215Y23366D1*
X34202Y15386D2*
X34157Y15269D1*
X34086Y15167D1*
X33992Y15086D1*
X33880Y15029D1*
X33793Y15009D1*
X33924Y14968D1*
X34030Y14902D1*
X34117Y14813D1*
X34180Y14705D1*
X34214Y14585D1*
X34221Y14505D1*
X34206Y14381D1*
X34161Y14264D1*
X34089Y14162D1*
X33995Y14081D1*
X33884Y14025D1*
X33762Y13997D1*
X33637Y14000D1*
X33517Y14032D1*
X33432Y14080D1*
X33461Y14009D1*
X33475Y13905D1*
X33455Y13782D1*
X33442Y13758D1*
X33602Y13753D1*
X33723Y13779D1*
X33847Y13764D1*
X33959Y13710D1*
X34046Y13621D1*
X34101Y13509D1*
X34115Y13405D1*
X34095Y13282D1*
X34037Y13176D1*
X34081Y13079D1*
X34095Y12975D1*
X34075Y12852D1*
X34015Y12743D1*
X33923Y12659D1*
X33809Y12610D1*
X33685Y12601D1*
X33564Y12634D1*
X33516Y12666D1*
X33389Y12610D1*
X33265Y12601D1*
X33144Y12634D1*
X33083Y12675D1*
X33053Y12649D1*
X32939Y12600D1*
X32815Y12591D1*
X32694Y12624D1*
X32591Y12693D1*
X32517Y12793D1*
X32479Y12912D1*
X32482Y13036D1*
X32526Y13153D1*
X32558Y13191D1*
X32537Y13223D1*
X32499Y13342D1*
X32502Y13466D1*
X32539Y13564D1*
X32441Y13633D1*
X32367Y13733D1*
X32329Y13852D1*
X32332Y13976D1*
X32388Y14108D1*
X32339Y14252D1*
X32342Y14376D1*
X32398Y14508D1*
X32349Y14642D1*
X32352Y14766D1*
X32396Y14883D1*
X32475Y14978D1*
X32582Y15043D1*
X32703Y15069D1*
X32827Y15054D1*
X32914Y15012D1*
X32982Y15043D1*
X33103Y15069D1*
X33227Y15054D1*
X33339Y15000D1*
X33418Y14920D1*
X33558Y14992D1*
X33631Y15005D1*
X33514Y15037D1*
X33405Y15098D1*
X33314Y15184D1*
X33247Y15289D1*
X33207Y15407D1*
X33197Y15531D1*
X33218Y15654D1*
X33268Y15769D1*
X33344Y15867D1*
X33441Y15945D1*
X33555Y15996D1*
X33612Y16007D1*
X33514Y16037D1*
X33405Y16098D1*
X33314Y16184D1*
X33247Y16289D1*
X33207Y16407D1*
X33197Y16531D1*
X33218Y16654D1*
X33268Y16769D1*
X33344Y16867D1*
X33441Y16945D1*
X33555Y16996D1*
X33612Y17007D1*
X33514Y17037D1*
X33405Y17098D1*
X33314Y17184D1*
X33247Y17289D1*
X33207Y17407D1*
X33197Y17531D1*
X33218Y17654D1*
X33268Y17769D1*
X33344Y17867D1*
X33441Y17945D1*
X33555Y17996D1*
X33612Y18007D1*
X33514Y18037D1*
X33405Y18098D1*
X33314Y18184D1*
X33247Y18289D1*
X33207Y18407D1*
X33197Y18531D1*
X33218Y18654D1*
X33268Y18769D1*
X33344Y18867D1*
X33441Y18945D1*
X33555Y18996D1*
X33635Y19011D1*
X33517Y19042D1*
X33408Y19103D1*
X33318Y19189D1*
X33250Y19294D1*
X33211Y19412D1*
X33201Y19536D1*
X33221Y19659D1*
X33271Y19774D1*
X33347Y19873D1*
X33445Y19950D1*
X33558Y20002D1*
X33681Y20024D1*
X33805Y20016D1*
X33924Y19978D1*
X34030Y19912D1*
X34117Y19823D1*
X34180Y19715D1*
X34214Y19595D1*
X34221Y19515D1*
X34206Y19391D1*
X34161Y19274D1*
X34089Y19172D1*
X33995Y19091D1*
X33884Y19035D1*
X33802Y19011D1*
X33921Y18973D1*
X34027Y18907D1*
X34114Y18818D1*
X34176Y18710D1*
X34211Y18590D1*
X34218Y18509D1*
X34202Y18386D1*
X34157Y18269D1*
X34086Y18167D1*
X33992Y18086D1*
X33880Y18029D1*
X33800Y18011D1*
X33921Y17973D1*
X34027Y17907D1*
X34114Y17818D1*
X34176Y17710D1*
X34211Y17590D1*
X34218Y17509D1*
X34202Y17386D1*
X34157Y17269D1*
X34086Y17167D1*
X33992Y17086D1*
X33880Y17029D1*
X33800Y17011D1*
X33921Y16973D1*
X34027Y16907D1*
X34114Y16818D1*
X34176Y16710D1*
X34211Y16590D1*
X34218Y16509D1*
X34202Y16386D1*
X34157Y16269D1*
X34086Y16167D1*
X33992Y16086D1*
X33880Y16029D1*
X33800Y16011D1*
X33921Y15973D1*
X34027Y15907D1*
X34114Y15818D1*
X34176Y15710D1*
X34211Y15590D1*
X34218Y15509D1*
X34202Y15386D1*
X34205Y7406D2*
X34160Y7290D1*
X34089Y7188D1*
X33994Y7106D1*
X33883Y7050D1*
X33796Y7030D1*
X33927Y6989D1*
X34033Y6923D1*
X34120Y6834D1*
X34182Y6726D1*
X34217Y6606D1*
X34224Y6525D1*
X34208Y6402D1*
X34163Y6285D1*
X34092Y6183D1*
X33998Y6102D1*
X33886Y6045D1*
X33765Y6018D1*
X33640Y6020D1*
X33520Y6053D1*
X33435Y6101D1*
X33463Y6030D1*
X33478Y5925D1*
X33458Y5803D1*
X33445Y5779D1*
X33604Y5774D1*
X33726Y5800D1*
X33850Y5785D1*
X33961Y5730D1*
X34049Y5642D1*
X34103Y5530D1*
X34118Y5425D1*
X34098Y5303D1*
X34040Y5197D1*
X34083Y5100D1*
X34098Y4995D1*
X34078Y4873D1*
X34018Y4763D1*
X33926Y4680D1*
X33811Y4631D1*
X33687Y4622D1*
X33567Y4654D1*
X33519Y4687D1*
X33391Y4631D1*
X33267Y4622D1*
X33147Y4654D1*
X33086Y4696D1*
X33056Y4670D1*
X32941Y4621D1*
X32817Y4612D1*
X32697Y4644D1*
X32594Y4714D1*
X32520Y4814D1*
X32482Y4932D1*
X32485Y5057D1*
X32529Y5173D1*
X32561Y5212D1*
X32540Y5244D1*
X32502Y5362D1*
X32505Y5487D1*
X32542Y5585D1*
X32444Y5654D1*
X32370Y5754D1*
X32332Y5872D1*
X32335Y5997D1*
X32391Y6128D1*
X32342Y6272D1*
X32345Y6397D1*
X32401Y6528D1*
X32352Y6662D1*
X32355Y6787D1*
X32399Y6903D1*
X32478Y6999D1*
X32584Y7064D1*
X32706Y7090D1*
X32830Y7075D1*
X32917Y7032D1*
X32984Y7064D1*
X33106Y7090D1*
X33230Y7075D1*
X33341Y7020D1*
X33421Y6940D1*
X33561Y7012D1*
X33634Y7026D1*
X33517Y7058D1*
X33408Y7119D1*
X33317Y7204D1*
X33250Y7309D1*
X33210Y7428D1*
X33200Y7552D1*
X33221Y7675D1*
X33270Y7789D1*
X33346Y7888D1*
X33444Y7966D1*
X33558Y8017D1*
X33615Y8028D1*
X33517Y8058D1*
X33408Y8119D1*
X33317Y8204D1*
X33250Y8309D1*
X33210Y8428D1*
X33200Y8552D1*
X33221Y8675D1*
X33270Y8789D1*
X33346Y8888D1*
X33444Y8966D1*
X33558Y9017D1*
X33615Y9028D1*
X33517Y9058D1*
X33408Y9119D1*
X33317Y9204D1*
X33250Y9309D1*
X33210Y9428D1*
X33200Y9552D1*
X33221Y9675D1*
X33270Y9789D1*
X33346Y9888D1*
X33444Y9966D1*
X33558Y10017D1*
X33615Y10028D1*
X33517Y10058D1*
X33408Y10119D1*
X33317Y10204D1*
X33250Y10309D1*
X33210Y10428D1*
X33200Y10552D1*
X33221Y10675D1*
X33270Y10789D1*
X33346Y10888D1*
X33444Y10966D1*
X33558Y11017D1*
X33638Y11032D1*
X33520Y11063D1*
X33411Y11124D1*
X33320Y11210D1*
X33253Y11315D1*
X33213Y11433D1*
X33203Y11557D1*
X33224Y11680D1*
X33274Y11795D1*
X33350Y11893D1*
X33447Y11971D1*
X33561Y12022D1*
X33684Y12045D1*
X33808Y12037D1*
X33927Y11999D1*
X34033Y11933D1*
X34120Y11844D1*
X34182Y11736D1*
X34217Y11616D1*
X34224Y11535D1*
X34208Y11412D1*
X34163Y11295D1*
X34092Y11193D1*
X33998Y11112D1*
X33886Y11055D1*
X33805Y11031D1*
X33924Y10993D1*
X34030Y10928D1*
X34117Y10838D1*
X34179Y10731D1*
X34214Y10611D1*
X34220Y10530D1*
X34205Y10406D1*
X34160Y10290D1*
X34089Y10188D1*
X33994Y10106D1*
X33883Y10050D1*
X33803Y10032D1*
X33924Y9993D1*
X34030Y9928D1*
X34117Y9838D1*
X34179Y9731D1*
X34214Y9611D1*
X34220Y9530D1*
X34205Y9406D1*
X34160Y9290D1*
X34089Y9188D1*
X33994Y9106D1*
X33883Y9050D1*
X33803Y9032D1*
X33924Y8993D1*
X34030Y8928D1*
X34117Y8838D1*
X34179Y8731D1*
X34214Y8611D1*
X34220Y8530D1*
X34205Y8406D1*
X34160Y8290D1*
X34089Y8188D1*
X33994Y8106D1*
X33883Y8050D1*
X33803Y8032D1*
X33924Y7993D1*
X34030Y7928D1*
X34117Y7838D1*
X34179Y7731D1*
X34214Y7611D1*
X34220Y7530D1*
X34205Y7406D1*
X6944Y37956D2*
X6912Y37835D1*
X6859Y37722D1*
X6787Y37620D1*
X6699Y37532D1*
X6596Y37460D1*
X6483Y37408D1*
X6363Y37376D1*
X6238Y37365D1*
X6114Y37376D1*
X5993Y37409D1*
X5880Y37462D1*
X5778Y37534D1*
X5690Y37623D1*
X5619Y37725D1*
X5567Y37839D1*
X5535Y37959D1*
X5525Y38084D1*
X5537Y38208D1*
X5570Y38328D1*
X5623Y38441D1*
X5695Y38543D1*
X5784Y38631D1*
X5887Y38702D1*
X6000Y38754D1*
X6121Y38785D1*
X6246Y38795D1*
X6370Y38783D1*
X6490Y38750D1*
X6603Y38696D1*
X6705Y38624D1*
X6792Y38534D1*
X6863Y38432D1*
X6914Y38318D1*
X6945Y38197D1*
X6955Y38080D1*
X6944Y37956D1*
X8504D2*
X8472Y37835D1*
X8419Y37722D1*
X8347Y37620D1*
X8259Y37532D1*
X8156Y37460D1*
X8043Y37408D1*
X7923Y37376D1*
X7798Y37365D1*
X7674Y37376D1*
X7553Y37409D1*
X7440Y37462D1*
X7338Y37534D1*
X7250Y37623D1*
X7179Y37725D1*
X7127Y37839D1*
X7095Y37959D1*
X7085Y38084D1*
X7097Y38208D1*
X7130Y38328D1*
X7183Y38441D1*
X7255Y38543D1*
X7344Y38631D1*
X7447Y38702D1*
X7560Y38754D1*
X7681Y38785D1*
X7806Y38795D1*
X7930Y38783D1*
X8050Y38750D1*
X8163Y38696D1*
X8265Y38624D1*
X8352Y38534D1*
X8423Y38432D1*
X8474Y38318D1*
X8505Y38197D1*
X8515Y38080D1*
X8504Y37956D1*
X13554D2*
X13522Y37835D1*
X13469Y37722D1*
X13397Y37620D1*
X13309Y37532D1*
X13206Y37460D1*
X13093Y37408D1*
X12973Y37376D1*
X12848Y37365D1*
X12724Y37376D1*
X12603Y37409D1*
X12490Y37462D1*
X12388Y37534D1*
X12300Y37623D1*
X12229Y37725D1*
X12177Y37839D1*
X12145Y37959D1*
X12135Y38084D1*
X12147Y38208D1*
X12180Y38328D1*
X12233Y38441D1*
X12305Y38543D1*
X12394Y38631D1*
X12497Y38702D1*
X12610Y38754D1*
X12731Y38785D1*
X12856Y38795D1*
X12980Y38783D1*
X13100Y38750D1*
X13213Y38696D1*
X13315Y38624D1*
X13402Y38534D1*
X13473Y38432D1*
X13524Y38318D1*
X13555Y38197D1*
X13565Y38080D1*
X13554Y37956D1*
X15114D2*
X15082Y37835D1*
X15029Y37722D1*
X14957Y37620D1*
X14869Y37532D1*
X14766Y37460D1*
X14653Y37408D1*
X14533Y37376D1*
X14408Y37365D1*
X14284Y37376D1*
X14163Y37409D1*
X14050Y37462D1*
X13948Y37534D1*
X13860Y37623D1*
X13789Y37725D1*
X13737Y37839D1*
X13705Y37959D1*
X13695Y38084D1*
X13707Y38208D1*
X13740Y38328D1*
X13793Y38441D1*
X13865Y38543D1*
X13954Y38631D1*
X14057Y38702D1*
X14170Y38754D1*
X14291Y38785D1*
X14416Y38795D1*
X14540Y38783D1*
X14660Y38750D1*
X14773Y38696D1*
X14875Y38624D1*
X14962Y38534D1*
X15033Y38432D1*
X15084Y38318D1*
X15115Y38197D1*
X15125Y38080D1*
X15114Y37956D1*
X16508Y37853D2*
X16460Y37710D1*
X16389Y37608D1*
X16294Y37526D1*
X16183Y37470D1*
X16061Y37442D1*
X15937Y37445D1*
X15817Y37478D1*
X15708Y37539D1*
X15617Y37624D1*
X15550Y37729D1*
X15510Y37848D1*
X15500Y37972D1*
X15521Y38095D1*
X15570Y38209D1*
X15646Y38308D1*
X15744Y38386D1*
X15858Y38437D1*
X15980Y38459D1*
X16105Y38451D1*
X16224Y38413D1*
X16330Y38348D1*
X16417Y38258D1*
X16479Y38151D1*
X16508Y38050D1*
X16570Y38209D1*
X16646Y38308D1*
X16744Y38386D1*
X16858Y38437D1*
X16980Y38459D1*
X17105Y38451D1*
X17224Y38413D1*
X17330Y38348D1*
X17417Y38258D1*
X17479Y38151D1*
X17514Y38031D1*
X17520Y37950D1*
X17505Y37826D1*
X17460Y37710D1*
X17389Y37608D1*
X17294Y37526D1*
X17183Y37470D1*
X17061Y37442D1*
X16937Y37445D1*
X16817Y37478D1*
X16708Y37539D1*
X16617Y37624D1*
X16550Y37729D1*
X16510Y37852D1*
X33785Y2326D2*
X33740Y2210D1*
X33669Y2108D1*
X33574Y2026D1*
X33463Y1970D1*
X33341Y1942D1*
X33217Y1945D1*
X33097Y1978D1*
X32988Y2039D1*
X32897Y2124D1*
X32830Y2229D1*
X32790Y2352D1*
X32740Y2210D1*
X32669Y2108D1*
X32574Y2026D1*
X32463Y1970D1*
X32341Y1942D1*
X32217Y1945D1*
X32097Y1978D1*
X31988Y2039D1*
X31897Y2124D1*
X31830Y2229D1*
X31790Y2352D1*
X31740Y2210D1*
X31669Y2108D1*
X31574Y2026D1*
X31463Y1970D1*
X31341Y1942D1*
X31217Y1945D1*
X31097Y1978D1*
X30988Y2039D1*
X30897Y2124D1*
X30830Y2229D1*
X30790Y2348D1*
X30780Y2472D1*
X30801Y2595D1*
X30850Y2709D1*
X30926Y2808D1*
X31024Y2886D1*
X31138Y2937D1*
X31260Y2959D1*
X31385Y2951D1*
X31504Y2913D1*
X31610Y2848D1*
X31697Y2758D1*
X31759Y2651D1*
X31788Y2550D1*
X31850Y2709D1*
X31926Y2808D1*
X32024Y2886D1*
X32138Y2937D1*
X32260Y2959D1*
X32385Y2951D1*
X32504Y2913D1*
X32610Y2848D1*
X32697Y2758D1*
X32759Y2651D1*
X32788Y2550D1*
X32850Y2709D1*
X32926Y2808D1*
X33024Y2886D1*
X33138Y2937D1*
X33260Y2959D1*
X33385Y2951D1*
X33504Y2913D1*
X33610Y2848D1*
X33697Y2758D1*
X33759Y2651D1*
X33794Y2531D1*
X33800Y2450D1*
X33785Y2326D1*
X25695Y2356D2*
X25650Y2240D1*
X25579Y2138D1*
X25484Y2056D1*
X25373Y2000D1*
X25251Y1972D1*
X25127Y1975D1*
X25007Y2008D1*
X24898Y2069D1*
X24807Y2154D1*
X24740Y2259D1*
X24700Y2382D1*
X24650Y2240D1*
X24579Y2138D1*
X24484Y2056D1*
X24373Y2000D1*
X24251Y1972D1*
X24127Y1975D1*
X24007Y2008D1*
X23898Y2069D1*
X23807Y2154D1*
X23740Y2259D1*
X23700Y2382D1*
X23650Y2240D1*
X23579Y2138D1*
X23484Y2056D1*
X23373Y2000D1*
X23251Y1972D1*
X23127Y1975D1*
X23007Y2008D1*
X22898Y2069D1*
X22807Y2154D1*
X22740Y2259D1*
X22700Y2378D1*
X22690Y2502D1*
X22711Y2625D1*
X22760Y2739D1*
X22836Y2838D1*
X22934Y2916D1*
X23048Y2967D1*
X23170Y2989D1*
X23295Y2981D1*
X23414Y2943D1*
X23520Y2878D1*
X23607Y2788D1*
X23669Y2681D1*
X23698Y2580D1*
X23760Y2739D1*
X23836Y2838D1*
X23934Y2916D1*
X24048Y2967D1*
X24170Y2989D1*
X24295Y2981D1*
X24414Y2943D1*
X24520Y2878D1*
X24607Y2788D1*
X24669Y2681D1*
X24698Y2580D1*
X24760Y2739D1*
X24836Y2838D1*
X24934Y2916D1*
X25048Y2967D1*
X25170Y2989D1*
X25295Y2981D1*
X25414Y2943D1*
X25520Y2878D1*
X25607Y2788D1*
X25669Y2681D1*
X25704Y2561D1*
X25710Y2480D1*
X25695Y2356D1*
X22304Y2326D2*
X22258Y2211D1*
X22184Y2111D1*
X22087Y2032D1*
X21973Y1981D1*
X21850Y1960D1*
X21726Y1971D1*
X21608Y2013D1*
X21505Y2083D1*
X21423Y2176D1*
X21367Y2288D1*
X21341Y2410D1*
X21347Y2534D1*
X21384Y2653D1*
X21450Y2759D1*
X21540Y2845D1*
X21649Y2906D1*
X21770Y2937D1*
X21894Y2936D1*
X22015Y2904D1*
X22123Y2843D1*
X22213Y2756D1*
X22278Y2650D1*
X22314Y2530D1*
X22320Y2450D1*
X22304Y2326D1*
X21340Y2446D2*
X21325Y2326D1*
X21280Y2210D1*
X21209Y2108D1*
X21114Y2026D1*
X21003Y1970D1*
X20881Y1942D1*
X20757Y1945D1*
X20637Y1978D1*
X20528Y2039D1*
X20437Y2124D1*
X20370Y2229D1*
X20330Y2352D1*
X20280Y2210D1*
X20209Y2108D1*
X20114Y2026D1*
X20003Y1970D1*
X19881Y1942D1*
X19757Y1945D1*
X19637Y1978D1*
X19528Y2039D1*
X19437Y2124D1*
X19370Y2229D1*
X19330Y2348D1*
X19320Y2472D1*
X19341Y2595D1*
X19390Y2709D1*
X19466Y2808D1*
X19564Y2886D1*
X19678Y2937D1*
X19800Y2959D1*
X19925Y2951D1*
X20044Y2913D1*
X20150Y2848D1*
X20237Y2758D1*
X20299Y2651D1*
X20328Y2550D1*
X20390Y2709D1*
X20466Y2808D1*
X20564Y2886D1*
X20678Y2937D1*
X20800Y2959D1*
X20925Y2951D1*
X21044Y2913D1*
X21150Y2848D1*
X21237Y2758D1*
X21299Y2651D1*
X21334Y2531D1*
X21340Y2453D1*
X18844Y2326D2*
X18798Y2211D1*
X18724Y2111D1*
X18627Y2032D1*
X18513Y1981D1*
X18390Y1960D1*
X18266Y1971D1*
X18148Y2013D1*
X18045Y2083D1*
X17963Y2176D1*
X17907Y2288D1*
X17881Y2410D1*
X17887Y2534D1*
X17924Y2653D1*
X17990Y2759D1*
X18080Y2845D1*
X18189Y2906D1*
X18310Y2937D1*
X18434Y2936D1*
X18555Y2904D1*
X18663Y2843D1*
X18753Y2756D1*
X18818Y2650D1*
X18854Y2530D1*
X18860Y2450D1*
X18844Y2326D1*
X17880Y2446D2*
X17865Y2326D1*
X17820Y2210D1*
X17749Y2108D1*
X17654Y2026D1*
X17543Y1970D1*
X17421Y1942D1*
X17297Y1945D1*
X17177Y1978D1*
X17068Y2039D1*
X16977Y2124D1*
X16910Y2229D1*
X16870Y2352D1*
X16820Y2210D1*
X16749Y2108D1*
X16654Y2026D1*
X16543Y1970D1*
X16421Y1942D1*
X16297Y1945D1*
X16177Y1978D1*
X16068Y2039D1*
X15977Y2124D1*
X15910Y2229D1*
X15870Y2348D1*
X15860Y2472D1*
X15881Y2595D1*
X15930Y2709D1*
X16006Y2808D1*
X16104Y2886D1*
X16218Y2937D1*
X16340Y2959D1*
X16465Y2951D1*
X16584Y2913D1*
X16690Y2848D1*
X16777Y2758D1*
X16839Y2651D1*
X16868Y2550D1*
X16930Y2709D1*
X17006Y2808D1*
X17104Y2886D1*
X17218Y2937D1*
X17340Y2959D1*
X17465Y2951D1*
X17584Y2913D1*
X17690Y2848D1*
X17777Y2758D1*
X17839Y2651D1*
X17874Y2531D1*
X17880Y2453D1*
X15585Y2316D2*
X15540Y2200D1*
X15469Y2098D1*
X15374Y2016D1*
X15263Y1960D1*
X15141Y1932D1*
X15017Y1935D1*
X14897Y1968D1*
X14788Y2029D1*
X14697Y2114D1*
X14630Y2219D1*
X14590Y2342D1*
X14540Y2200D1*
X14469Y2098D1*
X14374Y2016D1*
X14263Y1960D1*
X14141Y1932D1*
X14017Y1935D1*
X13897Y1968D1*
X13788Y2029D1*
X13697Y2114D1*
X13630Y2219D1*
X13590Y2338D1*
X13580Y2462D1*
X13601Y2585D1*
X13650Y2699D1*
X13726Y2798D1*
X13824Y2876D1*
X13938Y2927D1*
X14060Y2949D1*
X14185Y2941D1*
X14304Y2903D1*
X14410Y2838D1*
X14497Y2748D1*
X14559Y2641D1*
X14588Y2540D1*
X14650Y2699D1*
X14726Y2798D1*
X14824Y2876D1*
X14938Y2927D1*
X15060Y2949D1*
X15185Y2941D1*
X15304Y2903D1*
X15410Y2838D1*
X15497Y2748D1*
X15559Y2641D1*
X15594Y2521D1*
X15600Y2440D1*
X15585Y2316D1*
X13355Y2306D2*
X13310Y2190D1*
X13239Y2088D1*
X13144Y2006D1*
X13033Y1950D1*
X12911Y1922D1*
X12787Y1925D1*
X12667Y1958D1*
X12558Y2019D1*
X12467Y2104D1*
X12400Y2209D1*
X12360Y2332D1*
X12310Y2190D1*
X12239Y2088D1*
X12144Y2006D1*
X12033Y1950D1*
X11911Y1922D1*
X11787Y1925D1*
X11667Y1958D1*
X11558Y2019D1*
X11467Y2104D1*
X11400Y2209D1*
X11360Y2328D1*
X11350Y2452D1*
X11371Y2575D1*
X11420Y2689D1*
X11496Y2788D1*
X11594Y2866D1*
X11708Y2917D1*
X11830Y2939D1*
X11955Y2931D1*
X12074Y2893D1*
X12180Y2828D1*
X12267Y2738D1*
X12329Y2631D1*
X12358Y2530D1*
X12420Y2689D1*
X12496Y2788D1*
X12594Y2866D1*
X12708Y2917D1*
X12830Y2939D1*
X12955Y2931D1*
X13074Y2893D1*
X13180Y2828D1*
X13267Y2738D1*
X13329Y2631D1*
X13364Y2511D1*
X13370Y2430D1*
X13355Y2306D1*
X9104Y2626D2*
X9063Y2508D1*
X8998Y2402D1*
X8911Y2312D1*
X8807Y2244D1*
X8690Y2200D1*
X8566Y2183D1*
X8442Y2193D1*
X8323Y2230D1*
X8215Y2292D1*
X8123Y2377D1*
X8050Y2483D1*
X7998Y2402D1*
X7911Y2312D1*
X7807Y2244D1*
X7690Y2200D1*
X7566Y2183D1*
X7442Y2193D1*
X7323Y2230D1*
X7215Y2292D1*
X7123Y2377D1*
X7050Y2483D1*
X6998Y2402D1*
X6911Y2312D1*
X6807Y2244D1*
X6690Y2200D1*
X6566Y2183D1*
X6442Y2193D1*
X6323Y2230D1*
X6215Y2292D1*
X6123Y2377D1*
X6051Y2479D1*
X6004Y2595D1*
X5984Y2718D1*
X5990Y2842D1*
X6024Y2962D1*
X6083Y3072D1*
X6165Y3166D1*
X6265Y3241D1*
X6379Y3291D1*
X6501Y3315D1*
X6626Y3312D1*
X6747Y3282D1*
X6859Y3226D1*
X6955Y3147D1*
X7047Y3017D1*
X7165Y3166D1*
X7265Y3241D1*
X7379Y3291D1*
X7501Y3315D1*
X7626Y3312D1*
X7747Y3282D1*
X7859Y3226D1*
X7955Y3147D1*
X8047Y3017D1*
X8165Y3166D1*
X8265Y3241D1*
X8379Y3291D1*
X8501Y3315D1*
X8626Y3312D1*
X8747Y3282D1*
X8859Y3226D1*
X8955Y3147D1*
X9032Y3049D1*
X9086Y2936D1*
X9114Y2815D1*
X9117Y2750D1*
X9104Y2626D1*
X11133Y2326D2*
X11110Y2203D1*
X11071Y2085D1*
X11018Y1972D1*
X10951Y1866D1*
X10871Y1770D1*
X10780Y1685D1*
X10678Y1612D1*
X10569Y1552D1*
X10452Y1506D1*
X10331Y1475D1*
X10207Y1460D1*
X10082Y1461D1*
X9959Y1477D1*
X9838Y1508D1*
X9722Y1555D1*
X9613Y1615D1*
X9512Y1689D1*
X9421Y1775D1*
X9342Y1872D1*
X9276Y1978D1*
X9223Y2091D1*
X9186Y2210D1*
X9163Y2333D1*
X9156Y2458D1*
X9165Y2583D1*
X9189Y2705D1*
X9229Y2824D1*
X9283Y2936D1*
X9351Y3041D1*
X9431Y3137D1*
X9523Y3221D1*
X9625Y3294D1*
X9735Y3353D1*
X9851Y3398D1*
X9984Y3429D1*
X9874Y3459D1*
X9771Y3529D1*
X9697Y3629D1*
X9659Y3747D1*
X9662Y3871D1*
X9706Y3988D1*
X9785Y4084D1*
X9891Y4148D1*
X10013Y4175D1*
X10136Y4160D1*
X10248Y4105D1*
X10336Y4017D1*
X10390Y3905D1*
X10405Y3800D1*
X10384Y3677D1*
X10325Y3568D1*
X10233Y3484D1*
X10136Y3443D1*
X10345Y3424D1*
X10466Y3391D1*
X10582Y3344D1*
X10690Y3282D1*
X10790Y3208D1*
X10880Y3121D1*
X10959Y3024D1*
X11024Y2917D1*
X11076Y2804D1*
X11113Y2684D1*
X11135Y2561D1*
X11141Y2451D1*
X11133Y2326D1*
X5936D2*
X5913Y2203D1*
X5874Y2085D1*
X5821Y1972D1*
X5754Y1866D1*
X5674Y1770D1*
X5583Y1685D1*
X5481Y1612D1*
X5372Y1552D1*
X5256Y1506D1*
X5134Y1475D1*
X5010Y1460D1*
X4886Y1461D1*
X4762Y1477D1*
X4641Y1508D1*
X4525Y1555D1*
X4416Y1615D1*
X4315Y1689D1*
X4224Y1775D1*
X4145Y1872D1*
X4079Y1978D1*
X4027Y2091D1*
X3989Y2210D1*
X3966Y2333D1*
X3959Y2458D1*
X3968Y2583D1*
X3992Y2705D1*
X4032Y2824D1*
X4086Y2936D1*
X4154Y3041D1*
X4234Y3137D1*
X4326Y3221D1*
X4428Y3294D1*
X4538Y3353D1*
X4654Y3398D1*
X4776Y3428D1*
X4900Y3442D1*
X5025Y3441D1*
X5148Y3424D1*
X5269Y3391D1*
X5385Y3344D1*
X5493Y3282D1*
X5594Y3208D1*
X5684Y3121D1*
X5762Y3024D1*
X5827Y2917D1*
X5879Y2804D1*
X5916Y2684D1*
X5938Y2561D1*
X5944Y2451D1*
X5936Y2326D1*
X21148Y37873D2*
X21100Y37730D1*
X21029Y37628D1*
X20934Y37546D1*
X20823Y37490D1*
X20701Y37462D1*
X20577Y37465D1*
X20457Y37498D1*
X20348Y37559D1*
X20257Y37644D1*
X20190Y37749D1*
X20150Y37868D1*
X20140Y37992D1*
X20161Y38115D1*
X20210Y38229D1*
X20286Y38328D1*
X20384Y38406D1*
X20498Y38457D1*
X20620Y38479D1*
X20745Y38471D1*
X20864Y38433D1*
X20970Y38368D1*
X21057Y38278D1*
X21119Y38171D1*
X21148Y38070D1*
X21210Y38229D1*
X21286Y38328D1*
X21384Y38406D1*
X21498Y38457D1*
X21620Y38479D1*
X21745Y38471D1*
X21864Y38433D1*
X21970Y38368D1*
X22057Y38278D1*
X22119Y38171D1*
X22154Y38051D1*
X22160Y37970D1*
X22145Y37846D1*
X22100Y37730D1*
X22029Y37628D1*
X21934Y37546D1*
X21823Y37490D1*
X21701Y37462D1*
X21577Y37465D1*
X21457Y37498D1*
X21348Y37559D1*
X21257Y37644D1*
X21190Y37749D1*
X21150Y37872D1*
X18818Y37873D2*
X18770Y37730D1*
X18699Y37628D1*
X18604Y37546D1*
X18493Y37490D1*
X18371Y37462D1*
X18247Y37465D1*
X18127Y37498D1*
X18018Y37559D1*
X17927Y37644D1*
X17860Y37749D1*
X17820Y37868D1*
X17810Y37992D1*
X17831Y38115D1*
X17880Y38229D1*
X17956Y38328D1*
X18054Y38406D1*
X18168Y38457D1*
X18290Y38479D1*
X18415Y38471D1*
X18534Y38433D1*
X18640Y38368D1*
X18727Y38278D1*
X18789Y38171D1*
X18818Y38070D1*
X18880Y38229D1*
X18956Y38328D1*
X19054Y38406D1*
X19168Y38457D1*
X19290Y38479D1*
X19415Y38471D1*
X19534Y38433D1*
X19640Y38368D1*
X19727Y38278D1*
X19789Y38171D1*
X19824Y38051D1*
X19830Y37970D1*
X19815Y37846D1*
X19770Y37730D1*
X19699Y37628D1*
X19604Y37546D1*
X19493Y37490D1*
X19371Y37462D1*
X19247Y37465D1*
X19127Y37498D1*
X19018Y37559D1*
X18927Y37644D1*
X18860Y37749D1*
X18820Y37872D1*
X32988Y37893D2*
X32940Y37750D1*
X32869Y37648D1*
X32774Y37566D1*
X32663Y37510D1*
X32541Y37482D1*
X32417Y37485D1*
X32297Y37518D1*
X32188Y37579D1*
X32097Y37664D1*
X32030Y37769D1*
X31990Y37888D1*
X31980Y38012D1*
X32001Y38135D1*
X32050Y38249D1*
X32126Y38348D1*
X32224Y38426D1*
X32338Y38477D1*
X32460Y38499D1*
X32585Y38491D1*
X32704Y38453D1*
X32810Y38388D1*
X32897Y38298D1*
X32959Y38191D1*
X32988Y38090D1*
X33050Y38249D1*
X33126Y38348D1*
X33224Y38426D1*
X33338Y38477D1*
X33460Y38499D1*
X33585Y38491D1*
X33704Y38453D1*
X33810Y38388D1*
X33897Y38298D1*
X33959Y38191D1*
X33994Y38071D1*
X34000Y37990D1*
X33985Y37866D1*
X33940Y37750D1*
X33869Y37648D1*
X33774Y37566D1*
X33663Y37510D1*
X33541Y37482D1*
X33417Y37485D1*
X33297Y37518D1*
X33188Y37579D1*
X33097Y37664D1*
X33030Y37769D1*
X32990Y37892D1*
X30728Y37883D2*
X30680Y37740D1*
X30609Y37638D1*
X30514Y37556D1*
X30403Y37500D1*
X30281Y37472D1*
X30157Y37475D1*
X30037Y37508D1*
X29928Y37569D1*
X29837Y37654D1*
X29770Y37759D1*
X29730Y37878D1*
X29720Y38002D1*
X29741Y38125D1*
X29790Y38239D1*
X29866Y38338D1*
X29964Y38416D1*
X30078Y38467D1*
X30200Y38489D1*
X30325Y38481D1*
X30444Y38443D1*
X30550Y38378D1*
X30637Y38288D1*
X30699Y38181D1*
X30728Y38080D1*
X30790Y38239D1*
X30866Y38338D1*
X30964Y38416D1*
X31078Y38467D1*
X31200Y38489D1*
X31325Y38481D1*
X31444Y38443D1*
X31550Y38378D1*
X31637Y38288D1*
X31699Y38181D1*
X31734Y38061D1*
X31740Y37980D1*
X31725Y37856D1*
X31680Y37740D1*
X31609Y37638D1*
X31514Y37556D1*
X31403Y37500D1*
X31281Y37472D1*
X31157Y37475D1*
X31037Y37508D1*
X30928Y37569D1*
X30837Y37654D1*
X30770Y37759D1*
X30730Y37882D1*
X24058Y37893D2*
X24010Y37750D1*
X23939Y37648D1*
X23844Y37566D1*
X23733Y37510D1*
X23611Y37482D1*
X23487Y37485D1*
X23367Y37518D1*
X23258Y37579D1*
X23167Y37664D1*
X23100Y37769D1*
X23060Y37888D1*
X23050Y38012D1*
X23071Y38135D1*
X23120Y38249D1*
X23196Y38348D1*
X23294Y38426D1*
X23408Y38477D1*
X23530Y38499D1*
X23655Y38491D1*
X23774Y38453D1*
X23880Y38388D1*
X23967Y38298D1*
X24029Y38191D1*
X24058Y38090D1*
X24120Y38249D1*
X24196Y38348D1*
X24294Y38426D1*
X24408Y38477D1*
X24530Y38499D1*
X24655Y38491D1*
X24774Y38453D1*
X24880Y38388D1*
X24967Y38298D1*
X25029Y38191D1*
X25064Y38071D1*
X25070Y37990D1*
X25055Y37866D1*
X25010Y37750D1*
X24939Y37648D1*
X24844Y37566D1*
X24733Y37510D1*
X24611Y37482D1*
X24487Y37485D1*
X24367Y37518D1*
X24258Y37579D1*
X24167Y37664D1*
X24100Y37769D1*
X24060Y37892D1*
X24360Y27065D2*
X24344Y26967D1*
X24307Y26874D1*
X24251Y26791D1*
X24179Y26723D1*
X24120Y26685D1*
X24175Y26648D1*
X24260Y26557D1*
X24317Y26446D1*
X24341Y26303D1*
X24323Y26179D1*
X24272Y26066D1*
X24191Y25971D1*
X24097Y25909D1*
X24175Y25860D1*
X24260Y25770D1*
X24317Y25659D1*
X24341Y25515D1*
X24323Y25392D1*
X24272Y25278D1*
X24191Y25184D1*
X24097Y25122D1*
X24175Y25073D1*
X24260Y24982D1*
X24317Y24871D1*
X24341Y24728D1*
X24323Y24604D1*
X24272Y24491D1*
X24191Y24396D1*
X24116Y24347D1*
X24200Y24290D1*
X24283Y24197D1*
X24338Y24085D1*
X24361Y23940D1*
X24344Y23817D1*
X24295Y23702D1*
X24217Y23605D1*
X24116Y23533D1*
X23998Y23490D1*
X23874Y23480D1*
X23771Y23500D1*
X23809Y23414D1*
X23825Y23310D1*
X23803Y23188D1*
X23741Y23080D1*
X23645Y23001D1*
X23527Y22960D1*
X23403Y22961D1*
X23287Y23006D1*
X23193Y23088D1*
X23134Y23197D1*
X23115Y23320D1*
X23140Y23442D1*
X23187Y23517D1*
X23117Y23619D1*
X23079Y23737D1*
X23082Y23861D1*
X23126Y23978D1*
X23205Y24074D1*
X23311Y24138D1*
X23433Y24165D1*
X23491Y24158D1*
X23534Y24221D1*
X23623Y24309D1*
X23687Y24345D1*
X23617Y24389D1*
X23534Y24482D1*
X23480Y24594D1*
X23459Y24717D1*
X23474Y24841D1*
X23522Y24956D1*
X23601Y25052D1*
X23700Y25121D1*
X23617Y25177D1*
X23534Y25269D1*
X23480Y25382D1*
X23459Y25505D1*
X23474Y25628D1*
X23522Y25743D1*
X23601Y25840D1*
X23700Y25908D1*
X23617Y25964D1*
X23534Y26057D1*
X23480Y26169D1*
X23459Y26292D1*
X23474Y26416D1*
X23522Y26530D1*
X23601Y26627D1*
X23681Y26682D1*
X23582Y26756D1*
X23518Y26832D1*
X23471Y26921D1*
X23445Y27017D1*
X23440Y27117D1*
X23456Y27215D1*
X23493Y27308D1*
X23559Y27400D1*
X23464Y27397D1*
X23344Y27429D1*
X23241Y27499D1*
X23167Y27599D1*
X23129Y27717D1*
X23132Y27841D1*
X23176Y27958D1*
X23255Y28054D1*
X23361Y28118D1*
X23483Y28145D1*
X23606Y28130D1*
X23718Y28075D1*
X23806Y27987D1*
X23860Y27875D1*
X23875Y27770D1*
X23854Y27647D1*
X23803Y27541D1*
X23902Y27551D1*
X24001Y27540D1*
X24096Y27507D1*
X24181Y27455D1*
X24253Y27386D1*
X24309Y27303D1*
X24345Y27211D1*
X24361Y27112D1*
X24360Y27065D1*
Y32265D2*
X24344Y32167D1*
X24307Y32074D1*
X24251Y31991D1*
X24179Y31923D1*
X24120Y31885D1*
X24175Y31848D1*
X24260Y31757D1*
X24317Y31646D1*
X24341Y31503D1*
X24323Y31379D1*
X24272Y31266D1*
X24191Y31171D1*
X24097Y31109D1*
X24175Y31060D1*
X24260Y30970D1*
X24317Y30859D1*
X24341Y30715D1*
X24323Y30592D1*
X24272Y30478D1*
X24191Y30384D1*
X24097Y30322D1*
X24175Y30273D1*
X24260Y30182D1*
X24317Y30071D1*
X24341Y29928D1*
X24323Y29804D1*
X24272Y29691D1*
X24191Y29596D1*
X24116Y29547D1*
X24200Y29490D1*
X24283Y29397D1*
X24338Y29285D1*
X24361Y29140D1*
X24344Y29017D1*
X24295Y28902D1*
X24217Y28805D1*
X24116Y28733D1*
X23998Y28690D1*
X23863Y28682D1*
X23844Y28537D1*
X23785Y28428D1*
X23693Y28344D1*
X23578Y28296D1*
X23454Y28287D1*
X23334Y28319D1*
X23231Y28389D1*
X23157Y28489D1*
X23119Y28607D1*
X23122Y28731D1*
X23166Y28848D1*
X23245Y28944D1*
X23351Y29008D1*
X23454Y29031D1*
X23445Y29067D1*
X23442Y29192D1*
X23472Y29313D1*
X23534Y29421D1*
X23623Y29509D1*
X23687Y29545D1*
X23617Y29589D1*
X23534Y29682D1*
X23480Y29794D1*
X23459Y29917D1*
X23474Y30041D1*
X23522Y30156D1*
X23601Y30252D1*
X23700Y30321D1*
X23617Y30377D1*
X23534Y30469D1*
X23480Y30582D1*
X23459Y30705D1*
X23474Y30828D1*
X23522Y30943D1*
X23601Y31040D1*
X23700Y31108D1*
X23617Y31164D1*
X23534Y31257D1*
X23480Y31369D1*
X23459Y31492D1*
X23474Y31616D1*
X23522Y31730D1*
X23601Y31827D1*
X23681Y31882D1*
X23582Y31956D1*
X23518Y32032D1*
X23471Y32121D1*
X23445Y32217D1*
X23440Y32317D1*
X23456Y32415D1*
X23493Y32508D1*
X23550Y32590D1*
X23623Y32658D1*
X23708Y32709D1*
X23803Y32741D1*
X23902Y32751D1*
X24001Y32740D1*
X24096Y32707D1*
X24181Y32655D1*
X24253Y32586D1*
X24309Y32503D1*
X24345Y32411D1*
X24361Y32312D1*
X24360Y32265D1*
X1964Y15747D2*
X1915Y15632D1*
X1837Y15535D1*
X1758Y15478D1*
X1820Y15431D1*
X1903Y15337D1*
X1958Y15225D1*
X1981Y15081D1*
X1964Y14958D1*
X1915Y14843D1*
X1837Y14746D1*
X1758Y14689D1*
X1820Y14642D1*
X1903Y14548D1*
X1958Y14437D1*
X1981Y14292D1*
X1964Y14169D1*
X1915Y14054D1*
X1837Y13957D1*
X1736Y13884D1*
X1618Y13842D1*
X1494Y13832D1*
X1372Y13855D1*
X1260Y13911D1*
X1168Y13994D1*
X1101Y14100D1*
X1065Y14219D1*
X1062Y14343D1*
X1092Y14464D1*
X1154Y14573D1*
X1243Y14660D1*
X1287Y14685D1*
X1168Y14783D1*
X1101Y14889D1*
X1065Y15008D1*
X1062Y15132D1*
X1092Y15253D1*
X1154Y15362D1*
X1243Y15449D1*
X1287Y15474D1*
X1168Y15572D1*
X1101Y15678D1*
X1065Y15797D1*
X1062Y15921D1*
X1092Y16042D1*
X1154Y16150D1*
X1243Y16238D1*
X1351Y16299D1*
X1472Y16329D1*
X1597Y16325D1*
X1716Y16287D1*
X1820Y16220D1*
X1903Y16126D1*
X1958Y16014D1*
X1981Y15870D1*
X1964Y15747D1*
X7235Y19205D2*
X7219Y19107D1*
X7182Y19014D1*
X7126Y18931D1*
X7054Y18863D1*
X6968Y18811D1*
X6873Y18780D1*
X6774Y18769D1*
X6675Y18780D1*
X6646Y18788D1*
X6645Y16921D1*
X6761Y16998D1*
X6883Y17025D1*
X7006Y17010D1*
X7118Y16955D1*
X7206Y16867D1*
X7260Y16755D1*
X7275Y16650D1*
X7254Y16527D1*
X7195Y16418D1*
X7103Y16334D1*
X6988Y16286D1*
X6864Y16277D1*
X6744Y16309D1*
X6644Y16377D1*
X6645Y15664D1*
X6790Y15508D1*
X6819Y15456D1*
X6909Y15347D1*
X6940Y15256D1*
X6945Y14950D1*
Y12141D1*
X6965Y12164D1*
X7028Y12202D1*
X6999Y12306D1*
X7003Y12431D1*
X7046Y12547D1*
X7126Y12643D1*
X7232Y12708D1*
X7354Y12734D1*
X7477Y12719D1*
X7589Y12664D1*
X7677Y12576D1*
X7731Y12464D1*
X7737Y12422D1*
X7735Y12899D1*
X7770Y13017D1*
X7868Y13098D1*
X7948Y13115D1*
X8163Y13117D1*
X8172Y13221D1*
X8216Y13338D1*
X8295Y13434D1*
X8401Y13498D1*
X8523Y13525D1*
X8646Y13510D1*
X8758Y13455D1*
X8846Y13367D1*
X8900Y13255D1*
X8915Y13150D1*
X8910Y13123D1*
X10000Y13127D1*
X10863Y13128D1*
X10862Y13291D1*
X10906Y13408D1*
X10985Y13504D1*
X11091Y13568D1*
X11213Y13595D1*
X11336Y13580D1*
X11448Y13525D1*
X11536Y13437D1*
X11590Y13325D1*
X11605Y13220D1*
X11590Y13132D1*
X13750Y13134D1*
X13980D1*
X13959Y13207D1*
X13962Y13331D1*
X14006Y13448D1*
X14085Y13544D1*
X14191Y13608D1*
X14313Y13635D1*
X14436Y13620D1*
X14548Y13565D1*
X14636Y13477D1*
X14690Y13365D1*
X14705Y13260D1*
X14684Y13137D1*
X14625Y13028D1*
X14607Y13006D1*
X14804Y12529D1*
X14876Y12647D1*
X14974Y12724D1*
X15092Y12762D1*
X15158Y12759D1*
X15180Y12832D1*
X15246Y12937D1*
X15344Y13014D1*
X15462Y13052D1*
X15586Y13047D1*
X15701Y12999D1*
X15793Y12915D1*
X15849Y12804D1*
X15865Y12700D1*
X15843Y12578D1*
X15781Y12470D1*
X15685Y12391D1*
X15567Y12350D1*
X15494Y12351D1*
X15473Y12288D1*
X15411Y12180D1*
X15315Y12101D1*
X15197Y12060D1*
X15073Y12061D1*
X14982Y12096D1*
X15173Y11648D1*
X15230Y11730D1*
X15303Y11798D1*
X15388Y11849D1*
X15483Y11881D1*
X15582Y11891D1*
X15681Y11880D1*
X15776Y11847D1*
X15861Y11795D1*
X15933Y11726D1*
X15989Y11643D1*
X16025Y11551D1*
X16041Y11452D1*
X16035Y11355D1*
X16008Y11259D1*
X15961Y11171D1*
X15897Y11095D1*
X15817Y11035D1*
X15800Y11025D1*
X15855Y10988D1*
X15940Y10897D1*
X15997Y10786D1*
X16021Y10643D1*
X16003Y10519D1*
X15952Y10406D1*
X15871Y10311D1*
X15777Y10249D1*
X15855Y10200D1*
X15940Y10110D1*
X15997Y9999D1*
X16021Y9855D1*
X16003Y9732D1*
X15952Y9618D1*
X15874Y9527D1*
X15876Y9418D1*
X15963Y9324D1*
X16018Y9212D1*
X16041Y9068D1*
X16024Y8944D1*
X15975Y8830D1*
X15881Y8721D1*
X15880Y8630D1*
X15963Y8537D1*
X16018Y8425D1*
X16041Y8280D1*
X16024Y8157D1*
X15975Y8042D1*
X15881Y7934D1*
X15882Y7465D1*
X18910D1*
X19031Y7436D1*
X19097Y7387D1*
X20147Y6337D1*
X20212Y6231D1*
X20225Y6150D1*
Y5748D1*
X20266Y5697D1*
X20320Y5585D1*
X20334Y5476D1*
X20421Y5394D1*
X23197Y5395D1*
X23321Y5478D1*
X23443Y5505D1*
X23566Y5490D1*
X23678Y5435D1*
X23766Y5347D1*
X23820Y5235D1*
X23835Y5130D1*
X23814Y5007D1*
X23755Y4898D1*
X23663Y4814D1*
X23548Y4766D1*
X23424Y4757D1*
X23304Y4789D1*
X23194Y4868D1*
X22085Y4865D1*
X20310D1*
X20189Y4894D1*
X20123Y4943D1*
X19960Y5106D1*
X19924Y5107D1*
X19804Y5139D1*
X19701Y5209D1*
X19627Y5309D1*
X19589Y5427D1*
X19592Y5551D1*
X19636Y5668D1*
X19698Y5743D1*
X19695Y6039D1*
X18798Y6937D1*
X17660Y6935D1*
X15883D1*
X15885Y6581D1*
X15850Y6462D1*
X15752Y6382D1*
X15671Y6365D1*
X13972Y6356D1*
X13975Y5695D1*
Y4740D1*
X13940Y4622D1*
X13841Y4542D1*
X13760Y4525D1*
X4560Y4535D1*
X4442Y4570D1*
X4362Y4669D1*
X4345Y4750D1*
Y5801D1*
X4270Y5878D1*
X4210Y5986D1*
X4181Y6108D1*
X4186Y6232D1*
X4226Y6350D1*
X4296Y6453D1*
X4345Y6500D1*
X4350Y9991D1*
X4337Y10072D1*
X4234Y10142D1*
X4160Y10242D1*
X4122Y10360D1*
X4125Y10485D1*
X4169Y10601D1*
X4248Y10697D1*
X4355Y10762D1*
X4476Y10788D1*
X4600Y10773D1*
X4712Y10718D1*
X4799Y10630D1*
X4853Y10518D1*
X4868Y10413D1*
X4848Y10291D1*
X4788Y10181D1*
X4768Y10163D1*
X6182Y10160D1*
X6291Y10228D1*
X6318Y10234D1*
X6315Y10875D1*
Y14801D1*
X6275Y14738D1*
X6183Y14654D1*
X6068Y14606D1*
X5944Y14597D1*
X5824Y14629D1*
X5721Y14699D1*
X5647Y14799D1*
X5609Y14917D1*
X5612Y15041D1*
X5656Y15158D1*
X5735Y15254D1*
X5841Y15318D1*
X5963Y15345D1*
X6090Y15328D1*
X6038Y15411D1*
X6015Y15530D1*
Y16159D1*
X5995Y16128D1*
X5903Y16044D1*
X5788Y15996D1*
X5664Y15987D1*
X5544Y16019D1*
X5441Y16089D1*
X5367Y16189D1*
X5329Y16307D1*
X5332Y16431D1*
X5376Y16548D1*
X5455Y16644D1*
X5561Y16708D1*
X5683Y16735D1*
X5806Y16720D1*
X5918Y16665D1*
X6014Y16559D1*
X6015Y25276D1*
X5959Y25427D1*
X5962Y25551D1*
X6006Y25668D1*
X6085Y25764D1*
X6191Y25828D1*
X6313Y25855D1*
X6436Y25840D1*
X6548Y25785D1*
X6636Y25697D1*
X6690Y25585D1*
X6705Y25480D1*
X6684Y25357D1*
X6645Y25286D1*
Y22820D1*
X6727Y22838D1*
X6852Y22834D1*
X6971Y22797D1*
X7075Y22729D1*
X7158Y22636D1*
X7213Y22524D1*
X7236Y22380D1*
X7219Y22256D1*
X7170Y22142D1*
X7092Y22045D1*
X7013Y21988D1*
X7075Y21942D1*
X7158Y21849D1*
X7213Y21737D1*
X7236Y21592D1*
X7219Y21469D1*
X7170Y21354D1*
X7092Y21257D1*
X7013Y21200D1*
X7075Y21154D1*
X7158Y21061D1*
X7213Y20949D1*
X7236Y20805D1*
X7219Y20681D1*
X7170Y20567D1*
X7092Y20470D1*
X7013Y20413D1*
X7075Y20367D1*
X7158Y20274D1*
X7213Y20162D1*
X7226Y20089D1*
X7321Y20148D1*
X7443Y20175D1*
X7566Y20160D1*
X7654Y20117D1*
X7655Y23600D1*
X7694Y23717D1*
X7798Y23787D1*
X7975Y23795D1*
X12268D1*
X12217Y23869D1*
X12179Y23987D1*
X12182Y24111D1*
X12226Y24228D1*
X12305Y24324D1*
X12411Y24388D1*
X12533Y24415D1*
X12656Y24400D1*
X12768Y24345D1*
X12856Y24257D1*
X12910Y24145D1*
X12925Y24040D1*
X12904Y23917D1*
X12830Y23795D1*
X21425D1*
X21542Y23756D1*
X21612Y23652D1*
X21620Y23475D1*
Y20104D1*
X21689Y19979D1*
X21705Y19875D1*
X21683Y19753D1*
X21618Y19643D1*
X21620Y18350D1*
Y14550D1*
X21581Y14433D1*
X21477Y14363D1*
X21300Y14355D1*
X7850D1*
X7733Y14394D1*
X7663Y14498D1*
X7655Y14675D1*
Y14843D1*
X7515Y14933D1*
X7433Y15026D1*
X7377Y15138D1*
X7351Y15260D1*
X7357Y15384D1*
X7394Y15503D1*
X7460Y15609D1*
X7550Y15695D1*
X7656Y15754D1*
X7655Y15827D1*
X7538Y15889D1*
X7447Y15974D1*
X7380Y16079D1*
X7340Y16198D1*
X7330Y16322D1*
X7351Y16445D1*
X7400Y16559D1*
X7476Y16658D1*
X7574Y16736D1*
X7656Y16773D1*
X7655Y16827D1*
X7538Y16889D1*
X7447Y16974D1*
X7380Y17079D1*
X7340Y17198D1*
X7330Y17322D1*
X7351Y17445D1*
X7400Y17559D1*
X7476Y17658D1*
X7574Y17736D1*
X7656Y17773D1*
X7655Y19484D1*
X7548Y19436D1*
X7424Y19427D1*
X7304Y19459D1*
X7201Y19529D1*
X7127Y19629D1*
X7104Y19699D1*
X7013Y19626D1*
X7094Y19563D1*
X7158Y19486D1*
X7204Y19398D1*
X7230Y19302D1*
X7235Y19205D1*
X5955Y22896D2*
X5910Y22780D1*
X5839Y22678D1*
X5744Y22596D1*
X5633Y22540D1*
X5511Y22512D1*
X5387Y22515D1*
X5267Y22548D1*
X5158Y22609D1*
X5067Y22694D1*
X5000Y22799D1*
X4960Y22918D1*
X4950Y23042D1*
X4971Y23165D1*
X5020Y23279D1*
X5096Y23378D1*
X5194Y23456D1*
X5308Y23507D1*
X5430Y23529D1*
X5555Y23521D1*
X5674Y23483D1*
X5780Y23418D1*
X5867Y23328D1*
X5929Y23221D1*
X5964Y23101D1*
X5970Y23020D1*
X5955Y22896D1*
X4950Y23016D2*
X4934Y22896D1*
X4888Y22781D1*
X4814Y22681D1*
X4717Y22602D1*
X4603Y22551D1*
X4480Y22530D1*
X4356Y22541D1*
X4238Y22583D1*
X4135Y22653D1*
X4053Y22746D1*
X3997Y22858D1*
X3971Y22980D1*
X3977Y23104D1*
X4014Y23223D1*
X4080Y23329D1*
X4170Y23415D1*
X4279Y23476D1*
X4400Y23507D1*
X4524Y23506D1*
X4645Y23474D1*
X4753Y23413D1*
X4843Y23326D1*
X4908Y23220D1*
X4944Y23100D1*
X4950Y23023D1*
X17254Y35067D2*
X17195Y34958D1*
X17103Y34874D1*
X16988Y34826D1*
X16864Y34817D1*
X16744Y34849D1*
X16641Y34919D1*
X16567Y35019D1*
X16529Y35137D1*
X16532Y35261D1*
X16576Y35378D1*
X16655Y35474D1*
X16761Y35538D1*
X16883Y35565D1*
X17006Y35550D1*
X17118Y35495D1*
X17206Y35407D1*
X17260Y35295D1*
X17275Y35190D1*
X17254Y35067D1*
X19644Y34837D2*
X19585Y34728D1*
X19493Y34644D1*
X19378Y34596D1*
X19254Y34587D1*
X19134Y34619D1*
X19031Y34689D1*
X18957Y34789D1*
X18919Y34907D1*
X18922Y35031D1*
X18966Y35148D1*
X19045Y35244D1*
X19163Y35311D1*
X19061Y35379D1*
X18987Y35479D1*
X18949Y35597D1*
X18952Y35721D1*
X18996Y35838D1*
X19075Y35934D1*
X19181Y35998D1*
X19303Y36025D1*
X19426Y36010D1*
X19538Y35955D1*
X19626Y35867D1*
X19680Y35755D1*
X19695Y35650D1*
X19674Y35527D1*
X19615Y35418D1*
X19523Y35334D1*
X19448Y35302D1*
X19508Y35265D1*
X19596Y35177D1*
X19650Y35065D1*
X19665Y34960D1*
X19644Y34837D1*
X22004Y34987D2*
X21945Y34878D1*
X21853Y34794D1*
X21738Y34746D1*
X21614Y34737D1*
X21494Y34769D1*
X21391Y34839D1*
X21317Y34939D1*
X21279Y35057D1*
X21282Y35181D1*
X21326Y35298D1*
X21405Y35394D1*
X21511Y35458D1*
X21633Y35485D1*
X21756Y35470D1*
X21868Y35415D1*
X21956Y35327D1*
X22010Y35215D1*
X22025Y35110D1*
X22004Y34987D1*
X3871Y2375D2*
X3826Y2130D1*
X3737Y1896D1*
X3607Y1683D1*
X3442Y1496D1*
X3245Y1343D1*
X3023Y1227D1*
X2785Y1153D1*
X2537Y1124D1*
X2288Y1140D1*
X2046Y1201D1*
X1818Y1304D1*
X1614Y1447D1*
X1438Y1625D1*
X1297Y1831D1*
X1196Y2059D1*
X1138Y2302D1*
X1125Y2551D1*
X1157Y2799D1*
X1233Y3037D1*
X1350Y3257D1*
X1506Y3452D1*
X1694Y3616D1*
X1909Y3743D1*
X2143Y3829D1*
X2389Y3872D1*
X2639Y3869D1*
X2884Y3822D1*
X3117Y3730D1*
X3329Y3599D1*
X3514Y3431D1*
X3665Y3233D1*
X3778Y3010D1*
X3849Y2771D1*
X3876Y2523D1*
X3871Y2375D1*
X28871D2*
X28826Y2130D1*
X28737Y1896D1*
X28607Y1683D1*
X28442Y1496D1*
X28245Y1343D1*
X28023Y1227D1*
X27785Y1153D1*
X27537Y1124D1*
X27288Y1140D1*
X27046Y1201D1*
X26818Y1304D1*
X26614Y1447D1*
X26438Y1625D1*
X26297Y1831D1*
X26196Y2059D1*
X26138Y2302D1*
X26125Y2551D1*
X26157Y2799D1*
X26233Y3037D1*
X26350Y3257D1*
X26506Y3452D1*
X26694Y3616D1*
X26909Y3743D1*
X27143Y3829D1*
X27389Y3872D1*
X27639Y3869D1*
X27884Y3822D1*
X28117Y3730D1*
X28329Y3599D1*
X28514Y3431D1*
X28665Y3233D1*
X28778Y3010D1*
X28849Y2771D1*
X28876Y2523D1*
X28871Y2375D1*
Y37375D2*
X28826Y37130D1*
X28737Y36896D1*
X28607Y36683D1*
X28442Y36496D1*
X28245Y36343D1*
X28023Y36227D1*
X27785Y36153D1*
X27537Y36124D1*
X27288Y36140D1*
X27046Y36201D1*
X26818Y36304D1*
X26614Y36447D1*
X26438Y36625D1*
X26297Y36831D1*
X26196Y37059D1*
X26138Y37302D1*
X26125Y37551D1*
X26157Y37799D1*
X26233Y38037D1*
X26350Y38257D1*
X26506Y38452D1*
X26694Y38616D1*
X26909Y38743D1*
X27143Y38829D1*
X27389Y38872D1*
X27639Y38869D1*
X27884Y38822D1*
X28117Y38730D1*
X28329Y38599D1*
X28514Y38431D1*
X28665Y38233D1*
X28778Y38010D1*
X28849Y37771D1*
X28876Y37523D1*
X28871Y37375D1*
X3871D2*
X3826Y37130D1*
X3737Y36896D1*
X3607Y36683D1*
X3442Y36496D1*
X3245Y36343D1*
X3023Y36227D1*
X2785Y36153D1*
X2537Y36124D1*
X2288Y36140D1*
X2046Y36201D1*
X1818Y36304D1*
X1614Y36447D1*
X1438Y36625D1*
X1297Y36831D1*
X1196Y37059D1*
X1138Y37302D1*
X1125Y37551D1*
X1157Y37799D1*
X1233Y38037D1*
X1350Y38257D1*
X1506Y38452D1*
X1694Y38616D1*
X1909Y38743D1*
X2143Y38829D1*
X2389Y38872D1*
X2639Y38869D1*
X2884Y38822D1*
X3117Y38730D1*
X3329Y38599D1*
X3514Y38431D1*
X3665Y38233D1*
X3778Y38010D1*
X3849Y37771D1*
X3876Y37523D1*
X3871Y37375D1*
X2724Y25697D2*
X2665Y25588D1*
X2627Y25554D1*
X2676Y25497D1*
X2730Y25385D1*
X2745Y25280D1*
X2724Y25157D1*
X2665Y25048D1*
X2573Y24964D1*
X2533Y24948D1*
X2588Y24915D1*
X2676Y24827D1*
X2730Y24715D1*
X2745Y24610D1*
X2724Y24487D1*
X2665Y24378D1*
X2610Y24328D1*
X2676Y24257D1*
X2730Y24145D1*
X2745Y24040D1*
X2724Y23917D1*
X2665Y23808D1*
X2573Y23724D1*
X2458Y23676D1*
X2334Y23667D1*
X2214Y23699D1*
X2111Y23769D1*
X2037Y23869D1*
X1999Y23987D1*
X2002Y24111D1*
X2046Y24228D1*
X2128Y24326D1*
X2037Y24439D1*
X1999Y24557D1*
X2002Y24681D1*
X2046Y24798D1*
X2125Y24894D1*
X2208Y24944D1*
X2111Y25009D1*
X2037Y25109D1*
X1999Y25227D1*
X2002Y25351D1*
X2046Y25468D1*
X2112Y25549D1*
X2037Y25649D1*
X1999Y25767D1*
X2002Y25891D1*
X2046Y26008D1*
X2125Y26104D1*
X2231Y26168D1*
X2353Y26195D1*
X2476Y26180D1*
X2588Y26125D1*
X2676Y26037D1*
X2730Y25925D1*
X2745Y25820D1*
X2724Y25697D1*
X5284Y15267D2*
X5225Y15158D1*
X5133Y15074D1*
X5018Y15026D1*
X4894Y15017D1*
X4774Y15049D1*
X4671Y15119D1*
X4597Y15219D1*
X4559Y15337D1*
X4562Y15461D1*
X4606Y15578D1*
X4685Y15674D1*
X4791Y15738D1*
X4913Y15765D1*
X5036Y15750D1*
X5148Y15695D1*
X5236Y15607D1*
X5290Y15495D1*
X5305Y15390D1*
X5284Y15267D1*
X7953Y32828D2*
X7878Y32796D1*
X7754Y32787D1*
X7634Y32819D1*
X7531Y32889D1*
X7457Y32989D1*
X7419Y33107D1*
X7422Y33231D1*
X7466Y33348D1*
X7545Y33444D1*
X7651Y33508D1*
X7773Y33535D1*
X7896Y33520D1*
X7970Y33484D1*
X8123Y33525D1*
X8246Y33510D1*
X8313Y33477D1*
X8351Y33498D1*
X8473Y33525D1*
X8596Y33510D1*
X8670Y33474D1*
X8823Y33515D1*
X8946Y33500D1*
X9058Y33445D1*
X9146Y33357D1*
X9200Y33245D1*
X9215Y33140D1*
X9194Y33017D1*
X9135Y32908D1*
X9043Y32824D1*
X8928Y32776D1*
X8804Y32767D1*
X8684Y32799D1*
X8661Y32814D1*
X8578Y32786D1*
X8454Y32777D1*
X8318Y32820D1*
X8228Y32786D1*
X8104Y32777D1*
X7984Y32809D1*
X7961Y32824D1*
X30524Y33387D2*
X30467Y33282D1*
X30530Y33155D1*
X30545Y33050D1*
X30524Y32927D1*
X30450Y32805D1*
X30510Y32685D1*
X30525Y32580D1*
X30504Y32457D1*
X30445Y32348D1*
X30353Y32264D1*
X30238Y32216D1*
X30114Y32207D1*
X29994Y32239D1*
X29894Y32307D1*
X29768Y32246D1*
X29644Y32237D1*
X29524Y32269D1*
X29456Y32315D1*
X29308Y32246D1*
X29184Y32237D1*
X29064Y32269D1*
X28961Y32339D1*
X28887Y32439D1*
X28849Y32557D1*
X28852Y32681D1*
X28896Y32798D1*
X28923Y32831D1*
X28897Y32879D1*
X28859Y32997D1*
X28862Y33121D1*
X28906Y33238D1*
X28933Y33271D1*
X28877Y33349D1*
X28839Y33467D1*
X28842Y33591D1*
X28886Y33708D1*
X28965Y33804D1*
X29071Y33868D1*
X29193Y33895D1*
X29316Y33880D1*
X29428Y33825D1*
X29447Y33806D1*
X29551Y33868D1*
X29673Y33895D1*
X29796Y33880D1*
X29908Y33825D1*
X29933Y33800D1*
X30031Y33858D1*
X30153Y33885D1*
X30276Y33870D1*
X30388Y33815D1*
X30476Y33727D1*
X30530Y33615D1*
X30545Y33510D1*
X30524Y33387D1*
X28970Y31313D2*
X28942Y31293D1*
X28821Y31265D1*
X28698Y31285D1*
X28592Y31349D1*
X28517Y31449D1*
X28486Y31569D1*
X28501Y31692D1*
X28562Y31801D1*
X28659Y31878D1*
X28779Y31913D1*
X28902Y31902D1*
X28981Y31860D1*
X29119Y31903D1*
X29242Y31892D1*
X29352Y31834D1*
X29395Y31784D1*
X29499Y31868D1*
X29619Y31903D1*
X29742Y31892D1*
X29852Y31834D1*
X29933Y31740D1*
X29972Y31622D1*
X29975Y31584D1*
X30015Y31624D1*
X30121Y31688D1*
X30243Y31715D1*
X30366Y31700D1*
X30478Y31645D1*
X30566Y31557D1*
X30620Y31445D1*
X30635Y31340D1*
X30614Y31217D1*
X30555Y31108D1*
X30463Y31024D1*
X30348Y30976D1*
X30224Y30967D1*
X30104Y30999D1*
X30001Y31069D1*
X29927Y31169D1*
X29889Y31287D1*
X29891Y31361D1*
X29782Y31283D1*
X29661Y31255D1*
X29538Y31275D1*
X29432Y31339D1*
X29401Y31380D1*
X29383Y31354D1*
X29282Y31283D1*
X29161Y31255D1*
X29038Y31275D1*
X28975Y31313D1*
X28431Y32258D2*
X28363Y32154D1*
X28262Y32083D1*
X28141Y32055D1*
X28018Y32075D1*
X27912Y32139D1*
X27881Y32180D1*
X27864Y32087D1*
X27805Y31978D1*
X27713Y31894D1*
X27598Y31846D1*
X27474Y31837D1*
X27354Y31869D1*
X27251Y31939D1*
X27177Y32039D1*
X27139Y32157D1*
X27142Y32281D1*
X27186Y32398D1*
X27265Y32494D1*
X27371Y32558D1*
X27493Y32585D1*
X27616Y32570D1*
X27728Y32515D1*
X27808Y32435D1*
X27821Y32482D1*
X27882Y32591D1*
X27979Y32668D1*
X28035Y32685D1*
X27947Y32799D1*
X27938Y32833D1*
X27888Y32845D1*
X27782Y32909D1*
X27707Y33009D1*
X27676Y33129D1*
X27691Y33252D1*
X27752Y33361D1*
X27853Y33439D1*
X27871Y33562D1*
X27932Y33671D1*
X28029Y33748D1*
X28149Y33783D1*
X28272Y33772D1*
X28382Y33714D1*
X28463Y33620D1*
X28502Y33502D1*
X28505Y33460D1*
X28481Y33338D1*
X28413Y33234D1*
X28398Y33223D1*
X28442Y33194D1*
X28523Y33100D1*
X28562Y32982D1*
X28565Y32940D1*
X28541Y32818D1*
X28473Y32714D1*
X28372Y32643D1*
X28330Y32633D1*
X28413Y32540D1*
X28452Y32422D1*
X28455Y32380D1*
X28431Y32258D1*
X29891Y34378D2*
X29823Y34274D1*
X29722Y34203D1*
X29601Y34175D1*
X29478Y34195D1*
X29372Y34259D1*
X29297Y34359D1*
X29266Y34479D1*
X29281Y34602D1*
X29342Y34711D1*
X29439Y34788D1*
X29559Y34823D1*
X29682Y34812D1*
X29792Y34754D1*
X29873Y34660D1*
X29912Y34542D1*
X29915Y34500D1*
X29891Y34378D1*
X30854Y34767D2*
X30795Y34658D1*
X30703Y34574D1*
X30588Y34526D1*
X30464Y34517D1*
X30344Y34549D1*
X30241Y34619D1*
X30167Y34719D1*
X30129Y34837D1*
X30132Y34961D1*
X30176Y35078D1*
X30255Y35174D1*
X30361Y35238D1*
X30483Y35265D1*
X30606Y35250D1*
X30718Y35195D1*
X30806Y35107D1*
X30860Y34995D1*
X30875Y34890D1*
X30854Y34767D1*
X28616Y35036D2*
X28585Y34978D1*
X28493Y34894D1*
X28378Y34846D1*
X28254Y34837D1*
X28134Y34869D1*
X28031Y34939D1*
X27957Y35039D1*
X27919Y35157D1*
X27922Y35281D1*
X27966Y35398D1*
X28045Y35494D1*
X28151Y35558D1*
X28273Y35585D1*
X28396Y35570D1*
X28516Y35507D1*
X28543Y35539D1*
X28517Y35589D1*
X28479Y35707D1*
X28482Y35831D1*
X28526Y35948D1*
X28605Y36044D1*
X28711Y36108D1*
X28833Y36135D1*
X28956Y36120D1*
X29068Y36065D1*
X29120Y36013D1*
X29155Y36044D1*
X29261Y36108D1*
X29383Y36135D1*
X29506Y36120D1*
X29618Y36065D1*
X29706Y35977D1*
X29760Y35865D1*
X29775Y35760D1*
X29754Y35637D1*
X29704Y35545D1*
X29760Y35435D1*
X29775Y35330D1*
X29754Y35207D1*
X29695Y35098D1*
X29603Y35014D1*
X29488Y34966D1*
X29364Y34957D1*
X29244Y34989D1*
X29129Y35074D1*
X29053Y35014D1*
X28938Y34966D1*
X28814Y34957D1*
X28694Y34989D1*
X28620Y35039D1*
X32984Y33857D2*
X32925Y33748D1*
X32833Y33664D1*
X32718Y33616D1*
X32594Y33607D1*
X32474Y33639D1*
X32371Y33709D1*
X32297Y33809D1*
X32259Y33927D1*
X32262Y34051D1*
X32306Y34168D1*
X32385Y34264D1*
X32491Y34328D1*
X32613Y34355D1*
X32736Y34340D1*
X32848Y34285D1*
X32936Y34197D1*
X32990Y34085D1*
X33005Y33980D1*
X32984Y33857D1*
X32974Y31977D2*
X32915Y31868D1*
X32823Y31784D1*
X32708Y31736D1*
X32584Y31727D1*
X32464Y31759D1*
X32361Y31829D1*
X32287Y31929D1*
X32249Y32047D1*
X32252Y32171D1*
X32296Y32288D1*
X32375Y32384D1*
X32481Y32448D1*
X32603Y32475D1*
X32726Y32460D1*
X32838Y32405D1*
X32926Y32317D1*
X32980Y32205D1*
X32995Y32100D1*
X32974Y31977D1*
X28588Y28234D2*
X28498Y28196D1*
X28374Y28187D1*
X28254Y28219D1*
X28151Y28289D1*
X28077Y28389D1*
X28039Y28507D1*
X28042Y28631D1*
X28081Y28737D1*
X28039Y28867D1*
X28042Y28991D1*
X28086Y29108D1*
X28165Y29204D1*
X28271Y29268D1*
X28393Y29295D1*
X28516Y29280D1*
X28597Y29240D1*
X28631Y29258D1*
X28753Y29285D1*
X28876Y29270D1*
X28964Y29227D1*
X29041Y29268D1*
X29163Y29295D1*
X29286Y29280D1*
X29398Y29225D1*
X29486Y29137D1*
X29540Y29025D1*
X29555Y28920D1*
X29534Y28797D1*
X29506Y28746D1*
X29540Y28665D1*
X29555Y28560D1*
X29534Y28437D1*
X29475Y28328D1*
X29383Y28244D1*
X29268Y28196D1*
X29144Y28187D1*
X29024Y28219D1*
X28982Y28247D1*
X28858Y28196D1*
X28734Y28187D1*
X28614Y28219D1*
X28591Y28234D1*
X32394Y35497D2*
X32335Y35388D1*
X32243Y35304D1*
X32128Y35256D1*
X32004Y35247D1*
X31884Y35279D1*
X31861Y35294D1*
X31758Y35256D1*
X31634Y35247D1*
X31514Y35279D1*
X31453Y35320D1*
X31318Y35256D1*
X31194Y35247D1*
X31074Y35279D1*
X30971Y35349D1*
X30897Y35449D1*
X30859Y35567D1*
X30862Y35691D1*
X30906Y35808D1*
X30985Y35904D1*
X31091Y35968D1*
X31213Y35995D1*
X31336Y35980D1*
X31451Y35922D1*
X31531Y35968D1*
X31653Y35995D1*
X31776Y35980D1*
X31850Y35944D1*
X31901Y35968D1*
X32023Y35995D1*
X32146Y35980D1*
X32258Y35925D1*
X32346Y35837D1*
X32400Y35725D1*
X32415Y35620D1*
X32394Y35497D1*
X27084Y35507D2*
X27025Y35398D1*
X26933Y35314D1*
X26818Y35266D1*
X26694Y35257D1*
X26574Y35289D1*
X26471Y35359D1*
X26397Y35459D1*
X26359Y35577D1*
X26362Y35701D1*
X26406Y35818D1*
X26485Y35914D1*
X26591Y35978D1*
X26713Y36005D1*
X26836Y35990D1*
X26948Y35935D1*
X27036Y35847D1*
X27090Y35735D1*
X27105Y35630D1*
X27084Y35507D1*
X26006Y31894D2*
X25904Y31870D1*
X25781Y31890D1*
X25675Y31955D1*
X25600Y32054D1*
X25569Y32174D1*
X25585Y32298D1*
X25646Y32406D1*
X25743Y32483D1*
X25862Y32519D1*
X25985Y32507D1*
X26096Y32450D1*
X26176Y32355D1*
X26217Y32207D1*
X26363Y32245D1*
X26486Y32230D1*
X26598Y32175D1*
X26686Y32087D1*
X26740Y31975D1*
X26755Y31870D1*
X26734Y31747D1*
X26675Y31638D1*
X26583Y31554D1*
X26468Y31506D1*
X26344Y31497D1*
X26224Y31529D1*
X26121Y31599D1*
X26047Y31699D1*
X26009Y31817D1*
X26011Y31891D1*
X25360Y33247D2*
X25341Y33250D1*
X25235Y33315D1*
X25160Y33414D1*
X25129Y33534D1*
X25145Y33658D1*
X25206Y33766D1*
X25303Y33843D1*
X25422Y33879D1*
X25545Y33867D1*
X25656Y33810D1*
X25736Y33715D1*
X25776Y33597D1*
X25778Y33555D1*
X25767Y33498D1*
X25826Y33490D1*
X25938Y33435D1*
X26026Y33347D1*
X26080Y33235D1*
X26095Y33130D1*
X26074Y33007D1*
X26015Y32898D1*
X25923Y32814D1*
X25808Y32766D1*
X25684Y32757D1*
X25564Y32789D1*
X25461Y32859D1*
X25387Y32959D1*
X25349Y33077D1*
X25352Y33201D1*
X25367Y33242D1*
X25754Y34153D2*
X25687Y34049D1*
X25585Y33978D1*
X25464Y33950D1*
X25341Y33970D1*
X25235Y34035D1*
X25160Y34134D1*
X25129Y34254D1*
X25145Y34378D1*
X25206Y34486D1*
X25303Y34563D1*
X25422Y34599D1*
X25545Y34587D1*
X25656Y34530D1*
X25736Y34435D1*
X25776Y34317D1*
X25778Y34275D1*
X25754Y34153D1*
X26174Y35263D2*
X26107Y35159D1*
X26005Y35088D1*
X25884Y35060D1*
X25761Y35080D1*
X25655Y35145D1*
X25580Y35244D1*
X25549Y35364D1*
X25565Y35488D1*
X25626Y35596D1*
X25723Y35673D1*
X25842Y35709D1*
X25965Y35697D1*
X26076Y35640D1*
X26156Y35545D1*
X26196Y35427D1*
X26198Y35385D1*
X26174Y35263D1*
X11169Y32588D2*
X11143Y32564D1*
X11028Y32516D1*
X10904Y32507D1*
X10784Y32539D1*
X10681Y32609D1*
X10607Y32709D1*
X10569Y32827D1*
X10572Y32951D1*
X10616Y33068D1*
X10695Y33164D1*
X10801Y33228D1*
X10923Y33255D1*
X11046Y33240D1*
X11158Y33185D1*
X11177Y33166D1*
X11271Y33218D1*
X11393Y33245D1*
X11516Y33230D1*
X11628Y33175D1*
X11664Y33139D1*
X11761Y33198D1*
X11883Y33225D1*
X12006Y33210D1*
X12118Y33155D1*
X12206Y33067D1*
X12260Y32955D1*
X12275Y32850D1*
X12254Y32727D1*
X12195Y32618D1*
X12103Y32534D1*
X11988Y32486D1*
X11864Y32477D1*
X11744Y32509D1*
X11644Y32577D1*
X11498Y32506D1*
X11374Y32497D1*
X11254Y32529D1*
X11173Y32584D1*
X13564Y31827D2*
X13505Y31718D1*
X13413Y31634D1*
X13298Y31586D1*
X13174Y31577D1*
X13054Y31609D1*
X12951Y31679D1*
X12877Y31779D1*
X12839Y31897D1*
X12842Y32021D1*
X12886Y32138D1*
X12965Y32234D1*
X13071Y32298D1*
X13193Y32325D1*
X13316Y32310D1*
X13428Y32255D1*
X13516Y32167D1*
X13570Y32055D1*
X13585Y31950D1*
X13564Y31827D1*
X12271Y30043D2*
X12225Y29958D1*
X12133Y29874D1*
X12018Y29826D1*
X11894Y29817D1*
X11774Y29849D1*
X11671Y29919D1*
X11597Y30019D1*
X11559Y30137D1*
X11562Y30261D1*
X11606Y30378D1*
X11685Y30474D1*
X11791Y30538D1*
X11913Y30565D1*
X12036Y30550D1*
X12148Y30495D1*
X12236Y30407D1*
X12261Y30354D1*
X12286Y30398D1*
X12365Y30494D1*
X12471Y30558D1*
X12593Y30585D1*
X12716Y30570D1*
X12828Y30515D1*
X12916Y30427D1*
X12970Y30315D1*
X12985Y30210D1*
X12964Y30087D1*
X12905Y29978D1*
X12813Y29894D1*
X12698Y29846D1*
X12574Y29837D1*
X12454Y29869D1*
X12351Y29939D1*
X12275Y30042D1*
X12954Y29027D2*
X12895Y28918D1*
X12803Y28834D1*
X12688Y28786D1*
X12564Y28777D1*
X12444Y28809D1*
X12341Y28879D1*
X12267Y28979D1*
X12229Y29097D1*
X12232Y29221D1*
X12276Y29338D1*
X12355Y29434D1*
X12461Y29498D1*
X12583Y29525D1*
X12706Y29510D1*
X12818Y29455D1*
X12906Y29367D1*
X12960Y29255D1*
X12975Y29150D1*
X12954Y29027D1*
X9794Y29457D2*
X9735Y29348D1*
X9643Y29264D1*
X9528Y29216D1*
X9404Y29207D1*
X9284Y29239D1*
X9181Y29309D1*
X9107Y29409D1*
X9069Y29527D1*
X9072Y29651D1*
X9116Y29768D1*
X9195Y29864D1*
X9301Y29928D1*
X9423Y29955D1*
X9546Y29940D1*
X9658Y29885D1*
X9746Y29797D1*
X9800Y29685D1*
X9815Y29580D1*
X9794Y29457D1*
X7399Y30706D2*
X7351Y30739D1*
X7277Y30839D1*
X7239Y30957D1*
X7242Y31081D1*
X7286Y31198D1*
X7365Y31294D1*
X7471Y31358D1*
X7593Y31385D1*
X7716Y31370D1*
X7818Y31320D1*
X7891Y31358D1*
X8013Y31385D1*
X8136Y31370D1*
X8248Y31315D1*
X8336Y31227D1*
X8390Y31115D1*
X8405Y31010D1*
X8384Y30887D1*
X8325Y30778D1*
X8233Y30694D1*
X8118Y30646D1*
X8052Y30641D1*
X8070Y30595D1*
X8085Y30490D1*
X8064Y30367D1*
X8018Y30282D1*
X8060Y30185D1*
X8075Y30080D1*
X8054Y29957D1*
X8011Y29879D1*
X8060Y29775D1*
X8075Y29670D1*
X8054Y29547D1*
X8000Y29448D1*
X8043Y29455D1*
X8166Y29440D1*
X8278Y29385D1*
X8366Y29297D1*
X8420Y29185D1*
X8435Y29080D1*
X8414Y28957D1*
X8355Y28848D1*
X8263Y28764D1*
X8148Y28716D1*
X8024Y28707D1*
X7904Y28739D1*
X7817Y28798D1*
X7678Y28736D1*
X7554Y28727D1*
X7434Y28759D1*
X7331Y28829D1*
X7257Y28929D1*
X7219Y29047D1*
X7222Y29171D1*
X7266Y29288D1*
X7345Y29384D1*
X7415Y29426D1*
X7367Y29499D1*
X7329Y29617D1*
X7332Y29741D1*
X7388Y29873D1*
X7367Y29909D1*
X7329Y30027D1*
X7332Y30151D1*
X7376Y30268D1*
X7393Y30289D1*
X7339Y30437D1*
X7342Y30561D1*
X7386Y30678D1*
X7403Y30699D1*
X10730Y35061D2*
X10703D1*
X10587Y35106D1*
X10493Y35188D1*
X10434Y35297D1*
X10415Y35420D1*
X10440Y35542D1*
X10506Y35647D1*
X10604Y35724D1*
X10722Y35762D1*
X10846Y35757D1*
X10961Y35709D1*
X11053Y35625D1*
X11109Y35514D1*
X11122Y35391D1*
X11206Y35380D1*
X11287Y35340D1*
X11453Y35385D1*
X11576Y35370D1*
X11650Y35334D1*
X11721Y35368D1*
X11843Y35395D1*
X11966Y35380D1*
X12078Y35325D1*
X12166Y35237D1*
X12220Y35125D1*
X12235Y35020D1*
X12214Y34897D1*
X12155Y34788D1*
X12063Y34704D1*
X11948Y34656D1*
X11824Y34647D1*
X11704Y34679D1*
X11673Y34694D1*
X11558Y34646D1*
X11434Y34637D1*
X11314Y34669D1*
X11279Y34693D1*
X11188Y34656D1*
X11064Y34647D1*
X10944Y34679D1*
X10841Y34749D1*
X10767Y34849D1*
X10729Y34967D1*
X10731Y35056D1*
X5339Y34633D2*
X5228Y34586D1*
X5104Y34577D1*
X4984Y34609D1*
X4881Y34679D1*
X4807Y34779D1*
X4769Y34897D1*
X4772Y35010D1*
X4727Y35036D1*
X4633Y35118D1*
X4574Y35227D1*
X4555Y35350D1*
X4580Y35472D1*
X4646Y35577D1*
X4744Y35654D1*
X4862Y35692D1*
X4889Y35691D1*
X4892Y35831D1*
X4936Y35948D1*
X5015Y36044D1*
X5121Y36108D1*
X5243Y36135D1*
X5366Y36120D1*
X5478Y36065D1*
X5566Y35977D1*
X5620Y35865D1*
X5635Y35760D1*
X5614Y35637D1*
X5555Y35528D1*
X5463Y35444D1*
X5348Y35396D1*
X5259Y35389D1*
Y35306D1*
X5401Y35298D1*
X5523Y35325D1*
X5646Y35310D1*
X5734Y35267D1*
X5791Y35298D1*
X5913Y35325D1*
X6036Y35310D1*
X6148Y35255D1*
X6236Y35167D1*
X6290Y35055D1*
X6305Y34950D1*
X6284Y34827D1*
X6225Y34718D1*
X6133Y34634D1*
X6018Y34586D1*
X5894Y34577D1*
X5774Y34609D1*
X5739Y34633D1*
X5628Y34586D1*
X5504Y34577D1*
X5384Y34609D1*
X5342Y34637D1*
X12904Y24987D2*
X12845Y24878D1*
X12753Y24794D1*
X12638Y24746D1*
X12514Y24737D1*
X12394Y24769D1*
X12291Y24839D1*
X12217Y24939D1*
X12179Y25057D1*
X12182Y25181D1*
X12226Y25298D1*
X12305Y25394D1*
X12411Y25458D1*
X12533Y25485D1*
X12656Y25470D1*
X12768Y25415D1*
X12856Y25327D1*
X12910Y25215D1*
X12925Y25110D1*
X12904Y24987D1*
X12074Y25037D2*
X12015Y24928D1*
X11923Y24844D1*
X11808Y24796D1*
X11684Y24787D1*
X11564Y24819D1*
X11461Y24889D1*
X11387Y24989D1*
X11349Y25107D1*
X11352Y25231D1*
X11396Y25348D1*
X11475Y25444D1*
X11581Y25508D1*
X11703Y25535D1*
X11826Y25520D1*
X11938Y25465D1*
X12026Y25377D1*
X12080Y25265D1*
X12095Y25160D1*
X12074Y25037D1*
X9724Y24287D2*
X9665Y24178D1*
X9573Y24094D1*
X9458Y24046D1*
X9334Y24037D1*
X9214Y24069D1*
X9111Y24139D1*
X9037Y24239D1*
X8999Y24357D1*
X9002Y24481D1*
X9046Y24598D1*
X9125Y24694D1*
X9231Y24758D1*
X9353Y24785D1*
X9476Y24770D1*
X9588Y24715D1*
X9676Y24627D1*
X9730Y24515D1*
X9745Y24410D1*
X9724Y24287D1*
X10929Y27543D2*
X10818Y27496D1*
X10694Y27487D1*
X10574Y27519D1*
X10471Y27589D1*
X10397Y27689D1*
X10359Y27807D1*
X10362Y27931D1*
X10406Y28048D1*
X10485Y28144D1*
X10591Y28208D1*
X10713Y28235D1*
X10836Y28220D1*
X10924Y28177D1*
X10991Y28208D1*
X11113Y28235D1*
X11236Y28220D1*
X11345Y28167D1*
X11401Y28198D1*
X11523Y28225D1*
X11646Y28210D1*
X11758Y28155D1*
X11846Y28067D1*
X11900Y27955D1*
X11915Y27850D1*
X11894Y27727D1*
X11835Y27618D1*
X11743Y27534D1*
X11628Y27486D1*
X11504Y27477D1*
X11384Y27509D1*
X11329Y27546D1*
X11218Y27496D1*
X11094Y27487D1*
X10974Y27519D1*
X10932Y27547D1*
X13224Y26877D2*
X13165Y26768D1*
X13073Y26684D1*
X12958Y26636D1*
X12834Y26627D1*
X12714Y26659D1*
X12611Y26729D1*
X12537Y26829D1*
X12499Y26947D1*
X12502Y27071D1*
X12546Y27188D1*
X12625Y27284D1*
X12731Y27348D1*
X12853Y27375D1*
X12976Y27360D1*
X13088Y27305D1*
X13176Y27217D1*
X13230Y27105D1*
X13245Y27000D1*
X13224Y26877D1*
X18083Y33958D2*
X18021Y33850D1*
X17925Y33771D1*
X17807Y33730D1*
X17683Y33731D1*
X17567Y33776D1*
X17473Y33858D1*
X17414Y33967D1*
X17395Y34090D1*
X17420Y34212D1*
X17486Y34317D1*
X17584Y34394D1*
X17702Y34432D1*
X17826Y34427D1*
X17941Y34379D1*
X18033Y34295D1*
X18089Y34184D1*
X18105Y34080D1*
X18083Y33958D1*
X20443Y33988D2*
X20381Y33880D1*
X20285Y33801D1*
X20167Y33760D1*
X20043Y33761D1*
X19927Y33806D1*
X19833Y33888D1*
X19774Y33997D1*
X19755Y34120D1*
X19780Y34242D1*
X19846Y34347D1*
X19944Y34424D1*
X20062Y34462D1*
X20186Y34457D1*
X20301Y34409D1*
X20393Y34325D1*
X20449Y34214D1*
X20465Y34110D1*
X20443Y33988D1*
X31668Y28122D2*
X31571Y28081D1*
X31447Y28072D1*
X31327Y28104D1*
X31224Y28174D1*
X31150Y28274D1*
X31112Y28392D1*
X31115Y28517D1*
X31159Y28633D1*
X31238Y28729D1*
X31344Y28794D1*
X31466Y28820D1*
X31590Y28805D1*
X31649Y28776D1*
X31704Y28804D1*
X31826Y28830D1*
X31950Y28815D1*
X32023Y28779D1*
X32074Y28804D1*
X32196Y28830D1*
X32320Y28815D1*
X32431Y28760D1*
X32519Y28672D1*
X32573Y28560D1*
X32588Y28455D1*
X32568Y28333D1*
X32508Y28223D1*
X32416Y28140D1*
X32301Y28091D1*
X32177Y28082D1*
X32057Y28114D1*
X32035Y28130D1*
X31931Y28091D1*
X31807Y28082D1*
X31678Y28121D1*
X26548Y29833D2*
X26488Y29723D1*
X26396Y29640D1*
X26281Y29591D1*
X26157Y29582D1*
X26037Y29614D1*
X25934Y29684D1*
X25860Y29784D1*
X25822Y29902D1*
X25825Y30027D1*
X25869Y30143D1*
X25948Y30239D1*
X26054Y30304D1*
X26176Y30330D1*
X26300Y30315D1*
X26411Y30260D1*
X26499Y30172D1*
X26553Y30060D1*
X26568Y29955D1*
X26548Y29833D1*
X30524Y25327D2*
X30467Y25222D1*
X30530Y25095D1*
X30545Y24990D1*
X30524Y24867D1*
X30450Y24745D1*
X30510Y24625D1*
X30525Y24520D1*
X30504Y24397D1*
X30445Y24288D1*
X30353Y24204D1*
X30238Y24156D1*
X30114Y24147D1*
X29994Y24179D1*
X29894Y24247D1*
X29768Y24186D1*
X29644Y24177D1*
X29524Y24209D1*
X29456Y24255D1*
X29308Y24186D1*
X29184Y24177D1*
X29064Y24209D1*
X28961Y24279D1*
X28887Y24379D1*
X28849Y24497D1*
X28852Y24621D1*
X28896Y24738D1*
X28923Y24771D1*
X28897Y24819D1*
X28859Y24937D1*
X28862Y25061D1*
X28906Y25178D1*
X28933Y25211D1*
X28877Y25289D1*
X28839Y25407D1*
X28842Y25531D1*
X28886Y25648D1*
X28965Y25744D1*
X29071Y25808D1*
X29193Y25835D1*
X29316Y25820D1*
X29428Y25765D1*
X29447Y25746D1*
X29551Y25808D1*
X29673Y25835D1*
X29796Y25820D1*
X29908Y25765D1*
X29933Y25740D1*
X30031Y25798D1*
X30153Y25825D1*
X30276Y25810D1*
X30388Y25755D1*
X30476Y25667D1*
X30530Y25555D1*
X30545Y25450D1*
X30524Y25327D1*
X28941Y23250D2*
X28811Y23215D1*
X28688Y23235D1*
X28582Y23299D1*
X28507Y23399D1*
X28476Y23519D1*
X28491Y23642D1*
X28552Y23751D1*
X28649Y23828D1*
X28769Y23863D1*
X28892Y23852D1*
X28992Y23800D1*
X29109Y23833D1*
X29232Y23822D1*
X29342Y23764D1*
X29420Y23673D1*
X29494Y23749D1*
X29608Y23799D1*
X29732D1*
X29846Y23749D1*
X29931Y23658D1*
X29974Y23522D1*
X30015Y23564D1*
X30121Y23628D1*
X30243Y23655D1*
X30366Y23640D1*
X30478Y23585D1*
X30566Y23497D1*
X30620Y23385D1*
X30635Y23280D1*
X30614Y23157D1*
X30555Y23048D1*
X30463Y22964D1*
X30348Y22916D1*
X30224Y22907D1*
X30104Y22939D1*
X30001Y23009D1*
X29927Y23109D1*
X29889Y23227D1*
X29890Y23285D1*
X29772Y23213D1*
X29649Y23196D1*
X29530Y23229D1*
X29433Y23308D1*
X29417Y23339D1*
X29373Y23284D1*
X29272Y23213D1*
X29151Y23185D1*
X29028Y23205D1*
X28951Y23251D1*
X28391Y24148D2*
X28323Y24044D1*
X28222Y23973D1*
X28101Y23945D1*
X27978Y23965D1*
X27872Y24029D1*
X27797Y24129D1*
X27766Y24249D1*
X27781Y24372D1*
X27842Y24481D1*
X27939Y24558D1*
X28040Y24588D1*
X28002Y24619D1*
X27927Y24719D1*
X27912Y24775D1*
X27782Y24849D1*
X27707Y24949D1*
X27676Y25069D1*
X27691Y25192D1*
X27752Y25301D1*
X27849Y25378D1*
X27913Y25397D1*
X27931Y25492D1*
X27992Y25601D1*
X28089Y25678D1*
X28209Y25713D1*
X28332Y25702D1*
X28442Y25644D1*
X28523Y25550D1*
X28562Y25432D1*
X28565Y25390D1*
X28541Y25268D1*
X28473Y25164D1*
X28413Y25122D1*
X28503Y25020D1*
X28542Y24902D1*
X28545Y24860D1*
X28521Y24738D1*
X28453Y24634D1*
X28352Y24563D1*
X28265Y24543D1*
X28292Y24524D1*
X28373Y24430D1*
X28412Y24312D1*
X28415Y24270D1*
X28391Y24148D1*
X29891Y26318D2*
X29823Y26214D1*
X29722Y26143D1*
X29601Y26115D1*
X29478Y26135D1*
X29372Y26199D1*
X29297Y26299D1*
X29266Y26419D1*
X29281Y26542D1*
X29342Y26651D1*
X29439Y26728D1*
X29559Y26763D1*
X29682Y26752D1*
X29792Y26694D1*
X29873Y26600D1*
X29912Y26482D1*
X29915Y26440D1*
X29891Y26318D1*
X30854Y26707D2*
X30795Y26598D1*
X30703Y26514D1*
X30588Y26466D1*
X30464Y26457D1*
X30344Y26489D1*
X30241Y26559D1*
X30167Y26659D1*
X30129Y26777D1*
X30132Y26901D1*
X30176Y27018D1*
X30255Y27114D1*
X30361Y27178D1*
X30483Y27205D1*
X30606Y27190D1*
X30718Y27135D1*
X30806Y27047D1*
X30860Y26935D1*
X30875Y26830D1*
X30854Y26707D1*
X28616Y26976D2*
X28585Y26918D1*
X28493Y26834D1*
X28378Y26786D1*
X28254Y26777D1*
X28134Y26809D1*
X28031Y26879D1*
X27957Y26979D1*
X27919Y27097D1*
X27922Y27221D1*
X27966Y27338D1*
X28045Y27434D1*
X28151Y27498D1*
X28273Y27525D1*
X28396Y27510D1*
X28516Y27447D1*
X28543Y27479D1*
X28517Y27529D1*
X28479Y27647D1*
X28482Y27771D1*
X28526Y27888D1*
X28605Y27984D1*
X28711Y28048D1*
X28833Y28075D1*
X28956Y28060D1*
X29068Y28005D1*
X29120Y27953D1*
X29155Y27984D1*
X29261Y28048D1*
X29383Y28075D1*
X29506Y28060D1*
X29618Y28005D1*
X29706Y27917D1*
X29760Y27805D1*
X29775Y27700D1*
X29754Y27577D1*
X29704Y27485D1*
X29760Y27375D1*
X29775Y27270D1*
X29754Y27147D1*
X29695Y27038D1*
X29603Y26954D1*
X29488Y26906D1*
X29364Y26897D1*
X29244Y26929D1*
X29129Y27014D1*
X29053Y26954D1*
X28938Y26906D1*
X28814Y26897D1*
X28694Y26929D1*
X28620Y26979D1*
X32984Y25797D2*
X32925Y25688D1*
X32833Y25604D1*
X32718Y25556D1*
X32594Y25547D1*
X32474Y25579D1*
X32371Y25649D1*
X32297Y25749D1*
X32259Y25867D1*
X32262Y25991D1*
X32306Y26108D1*
X32385Y26204D1*
X32491Y26268D1*
X32613Y26295D1*
X32736Y26280D1*
X32848Y26225D1*
X32936Y26137D1*
X32990Y26025D1*
X33005Y25920D1*
X32984Y25797D1*
X32974Y23917D2*
X32915Y23808D1*
X32823Y23724D1*
X32708Y23676D1*
X32584Y23667D1*
X32464Y23699D1*
X32361Y23769D1*
X32287Y23869D1*
X32249Y23987D1*
X32252Y24111D1*
X32296Y24228D1*
X32375Y24324D1*
X32481Y24388D1*
X32603Y24415D1*
X32726Y24400D1*
X32838Y24345D1*
X32926Y24257D1*
X32980Y24145D1*
X32995Y24040D1*
X32974Y23917D1*
X28588Y20174D2*
X28498Y20136D1*
X28374Y20127D1*
X28254Y20159D1*
X28151Y20229D1*
X28077Y20329D1*
X28039Y20447D1*
X28042Y20571D1*
X28081Y20677D1*
X28039Y20807D1*
X28042Y20931D1*
X28086Y21048D1*
X28165Y21144D1*
X28271Y21208D1*
X28393Y21235D1*
X28516Y21220D1*
X28597Y21180D1*
X28631Y21198D1*
X28753Y21225D1*
X28876Y21210D1*
X28964Y21167D1*
X29041Y21208D1*
X29163Y21235D1*
X29286Y21220D1*
X29398Y21165D1*
X29486Y21077D1*
X29540Y20965D1*
X29555Y20860D1*
X29534Y20737D1*
X29506Y20686D1*
X29540Y20605D1*
X29555Y20500D1*
X29534Y20377D1*
X29475Y20268D1*
X29383Y20184D1*
X29268Y20136D1*
X29144Y20127D1*
X29024Y20159D1*
X28982Y20187D1*
X28858Y20136D1*
X28734Y20127D1*
X28614Y20159D1*
X28698Y20068D1*
X28820Y20094D1*
X28944Y20079D1*
X29055Y20024D1*
X29108Y19972D1*
X29142Y20003D1*
X29248Y20068D1*
X29370Y20094D1*
X29494Y20079D1*
X29605Y20024D1*
X29693Y19936D1*
X29747Y19824D1*
X29762Y19719D1*
X29742Y19597D1*
X29691Y19504D1*
X29747Y19394D1*
X29762Y19289D1*
X29742Y19167D1*
X29682Y19057D1*
X29590Y18974D1*
X29475Y18925D1*
X29351Y18916D1*
X29231Y18948D1*
X29117Y19034D1*
X29040Y18974D1*
X28925Y18925D1*
X28801Y18916D1*
X28681Y18948D1*
X28607Y18999D1*
X28572Y18937D1*
X28480Y18854D1*
X28365Y18805D1*
X28241Y18796D1*
X28121Y18828D1*
X28018Y18898D1*
X27944Y18998D1*
X27906Y19116D1*
X27909Y19241D1*
X27953Y19357D1*
X28032Y19453D1*
X28138Y19518D1*
X28260Y19544D1*
X28384Y19529D1*
X28504Y19466D1*
X28530Y19498D1*
X28504Y19548D1*
X28466Y19666D1*
X28469Y19791D1*
X28513Y19907D1*
X28592Y20003D1*
X28698Y20068D1*
X32394Y27437D2*
X32335Y27328D1*
X32243Y27244D1*
X32128Y27196D1*
X32004Y27187D1*
X31884Y27219D1*
X31861Y27234D1*
X31758Y27196D1*
X31634Y27187D1*
X31514Y27219D1*
X31453Y27260D1*
X31318Y27196D1*
X31194Y27187D1*
X31074Y27219D1*
X30971Y27289D1*
X30897Y27389D1*
X30859Y27507D1*
X30862Y27631D1*
X30906Y27748D1*
X30985Y27844D1*
X31091Y27908D1*
X31213Y27935D1*
X31336Y27920D1*
X31451Y27862D1*
X31531Y27908D1*
X31653Y27935D1*
X31776Y27920D1*
X31850Y27884D1*
X31901Y27908D1*
X32023Y27935D1*
X32146Y27920D1*
X32258Y27865D1*
X32346Y27777D1*
X32400Y27665D1*
X32415Y27560D1*
X32394Y27437D1*
X27084Y27447D2*
X27025Y27338D1*
X26933Y27254D1*
X26818Y27206D1*
X26694Y27197D1*
X26574Y27229D1*
X26471Y27299D1*
X26397Y27399D1*
X26359Y27517D1*
X26362Y27641D1*
X26406Y27758D1*
X26485Y27854D1*
X26591Y27918D1*
X26713Y27945D1*
X26836Y27930D1*
X26948Y27875D1*
X27036Y27787D1*
X27090Y27675D1*
X27105Y27570D1*
X27084Y27447D1*
X26006Y23834D2*
X25904Y23810D1*
X25781Y23830D1*
X25675Y23895D1*
X25600Y23994D1*
X25569Y24114D1*
X25585Y24237D1*
X25646Y24346D1*
X25743Y24423D1*
X25862Y24459D1*
X25985Y24447D1*
X26096Y24390D1*
X26176Y24295D1*
X26217Y24147D1*
X26363Y24185D1*
X26486Y24170D1*
X26598Y24115D1*
X26686Y24027D1*
X26740Y23915D1*
X26755Y23810D1*
X26734Y23687D1*
X26675Y23578D1*
X26583Y23494D1*
X26468Y23446D1*
X26344Y23437D1*
X26224Y23469D1*
X26121Y23539D1*
X26047Y23639D1*
X26009Y23757D1*
X26011Y23831D1*
X25368Y25186D2*
X25341Y25190D1*
X25235Y25255D1*
X25160Y25354D1*
X25129Y25474D1*
X25145Y25597D1*
X25206Y25706D1*
X25303Y25783D1*
X25422Y25819D1*
X25545Y25807D1*
X25656Y25750D1*
X25736Y25655D1*
X25776Y25537D1*
X25778Y25495D1*
X25758Y25392D1*
X25806Y25380D1*
X25918Y25325D1*
X26006Y25237D1*
X26060Y25125D1*
X26075Y25020D1*
X26054Y24897D1*
X25995Y24788D1*
X25903Y24704D1*
X25788Y24656D1*
X25664Y24647D1*
X25544Y24679D1*
X25441Y24749D1*
X25367Y24849D1*
X25329Y24967D1*
X25332Y25091D1*
X25366Y25182D1*
X25754Y26093D2*
X25687Y25989D1*
X25585Y25918D1*
X25464Y25890D1*
X25341Y25910D1*
X25235Y25975D1*
X25160Y26074D1*
X25129Y26194D1*
X25145Y26317D1*
X25206Y26426D1*
X25303Y26503D1*
X25422Y26539D1*
X25545Y26527D1*
X25656Y26470D1*
X25736Y26375D1*
X25776Y26257D1*
X25778Y26215D1*
X25754Y26093D1*
X26174Y27203D2*
X26107Y27099D1*
X26005Y27028D1*
X25884Y27000D1*
X25761Y27020D1*
X25655Y27085D1*
X25580Y27184D1*
X25549Y27304D1*
X25565Y27427D1*
X25626Y27536D1*
X25723Y27613D1*
X25842Y27649D1*
X25965Y27637D1*
X26076Y27580D1*
X26156Y27485D1*
X26196Y27367D1*
X26198Y27325D1*
X26174Y27203D1*
X31668Y20062D2*
X31571Y20021D1*
X31447Y20012D1*
X31327Y20044D1*
X31224Y20114D1*
X31150Y20214D1*
X31112Y20332D1*
X31115Y20457D1*
X31159Y20573D1*
X31238Y20669D1*
X31344Y20734D1*
X31466Y20760D1*
X31590Y20745D1*
X31649Y20716D1*
X31704Y20744D1*
X31826Y20770D1*
X31950Y20755D1*
X32023Y20719D1*
X32074Y20744D1*
X32196Y20770D1*
X32320Y20755D1*
X32431Y20700D1*
X32519Y20612D1*
X32573Y20500D1*
X32588Y20395D1*
X32568Y20273D1*
X32508Y20163D1*
X32416Y20080D1*
X32301Y20031D1*
X32177Y20022D1*
X32057Y20054D1*
X32035Y20070D1*
X31931Y20031D1*
X31807Y20022D1*
X31678Y20061D1*
X31640Y19954D1*
X31764Y19939D1*
X31837Y19903D1*
X31888Y19928D1*
X32010Y19954D1*
X32134Y19939D1*
X32245Y19884D1*
X32333Y19796D1*
X32387Y19684D1*
X32402Y19579D1*
X32382Y19457D1*
X32322Y19347D1*
X32230Y19264D1*
X32115Y19215D1*
X31991Y19206D1*
X31871Y19238D1*
X31849Y19254D1*
X31745Y19215D1*
X31621Y19206D1*
X31501Y19238D1*
X31440Y19280D1*
X31305Y19215D1*
X31181Y19206D1*
X31061Y19238D1*
X30958Y19308D1*
X30884Y19408D1*
X30846Y19526D1*
X30849Y19651D1*
X30893Y19767D1*
X30972Y19863D1*
X31078Y19928D1*
X31200Y19954D1*
X31324Y19939D1*
X31438Y19882D1*
X31518Y19928D1*
X31640Y19954D1*
X26548Y21773D2*
X26488Y21663D1*
X26396Y21580D1*
X26281Y21531D1*
X26157Y21522D1*
X26037Y21554D1*
X25934Y21624D1*
X25860Y21724D1*
X25822Y21842D1*
X25825Y21967D1*
X25869Y22083D1*
X25948Y22179D1*
X26054Y22244D1*
X26176Y22270D1*
X26300Y22255D1*
X26411Y22200D1*
X26499Y22112D1*
X26553Y22000D1*
X26568Y21895D1*
X26548Y21773D1*
X30512Y17347D2*
X30454Y17241D1*
X30517Y17114D1*
X30532Y17009D1*
X30512Y16887D1*
X30438Y16764D1*
X30497Y16644D1*
X30512Y16539D1*
X30492Y16417D1*
X30432Y16307D1*
X30340Y16224D1*
X30225Y16175D1*
X30101Y16166D1*
X29981Y16198D1*
X29881Y16266D1*
X29755Y16205D1*
X29631Y16196D1*
X29511Y16228D1*
X29444Y16274D1*
X29295Y16205D1*
X29171Y16196D1*
X29051Y16228D1*
X28948Y16298D1*
X28874Y16398D1*
X28836Y16516D1*
X28839Y16641D1*
X28883Y16757D1*
X28910Y16790D1*
X28884Y16838D1*
X28846Y16956D1*
X28849Y17081D1*
X28893Y17197D1*
X28920Y17230D1*
X28864Y17308D1*
X28826Y17426D1*
X28829Y17551D1*
X28873Y17667D1*
X28952Y17763D1*
X29058Y17828D1*
X29180Y17854D1*
X29304Y17839D1*
X29415Y17784D1*
X29435Y17765D1*
X29538Y17828D1*
X29660Y17854D1*
X29784Y17839D1*
X29895Y17784D1*
X29920Y17760D1*
X30018Y17818D1*
X30140Y17844D1*
X30264Y17829D1*
X30375Y17774D1*
X30463Y17686D1*
X30517Y17574D1*
X30532Y17469D1*
X30512Y17347D1*
X28895Y15289D2*
X28852Y15263D1*
X28729Y15246D1*
X28610Y15279D1*
X28513Y15358D1*
X28456Y15468D1*
X28448Y15592D1*
X28489Y15709D1*
X28574Y15799D1*
X28688Y15849D1*
X28812D1*
X28915Y15804D1*
X28949Y15828D1*
X29069Y15863D1*
X29192Y15852D1*
X29302Y15794D1*
X29383Y15700D1*
X29401Y15645D1*
X29429Y15709D1*
X29514Y15799D1*
X29628Y15849D1*
X29752D1*
X29866Y15799D1*
X29951Y15708D1*
X29993Y15574D1*
X30108Y15648D1*
X30230Y15674D1*
X30354Y15659D1*
X30465Y15604D1*
X30553Y15516D1*
X30607Y15404D1*
X30622Y15299D1*
X30602Y15177D1*
X30542Y15067D1*
X30450Y14984D1*
X30335Y14935D1*
X30211Y14926D1*
X30091Y14958D1*
X29988Y15028D1*
X29914Y15128D1*
X29876Y15246D1*
X29878Y15312D1*
X29792Y15263D1*
X29669Y15246D1*
X29550Y15279D1*
X29453Y15358D1*
X29409Y15444D1*
X29401Y15418D1*
X29333Y15314D1*
X29232Y15243D1*
X29111Y15215D1*
X28988Y15235D1*
X28905Y15285D1*
X28431Y16198D2*
X28363Y16094D1*
X28262Y16023D1*
X28141Y15995D1*
X28018Y16015D1*
X27912Y16079D1*
X27854Y16157D1*
X27834Y16057D1*
X27775Y15948D1*
X27683Y15864D1*
X27568Y15816D1*
X27444Y15807D1*
X27324Y15839D1*
X27221Y15909D1*
X27147Y16009D1*
X27109Y16127D1*
X27112Y16251D1*
X27156Y16368D1*
X27235Y16464D1*
X27341Y16528D1*
X27463Y16555D1*
X27586Y16540D1*
X27698Y16485D1*
X27786Y16397D1*
X27808Y16351D1*
X27821Y16422D1*
X27882Y16531D1*
X27979Y16608D1*
X28013Y16618D1*
X27927Y16729D1*
X27910Y16793D1*
X27875Y16804D1*
X27769Y16869D1*
X27694Y16968D1*
X27663Y17088D1*
X27679Y17212D1*
X27740Y17320D1*
X27837Y17397D1*
X27893Y17414D1*
X27911Y17502D1*
X27972Y17611D1*
X28069Y17688D1*
X28189Y17723D1*
X28312Y17712D1*
X28422Y17654D1*
X28503Y17560D1*
X28542Y17442D1*
X28545Y17400D1*
X28521Y17278D1*
X28453Y17174D1*
X28406Y17141D1*
X28503Y17030D1*
X28542Y16912D1*
X28545Y16870D1*
X28521Y16748D1*
X28453Y16644D1*
X28340Y16570D1*
X28413Y16480D1*
X28452Y16362D1*
X28455Y16320D1*
X28431Y16198D1*
X29857Y18338D2*
X29785Y18236D1*
X29679Y18172D1*
X29556Y18155D1*
X29437Y18189D1*
X29341Y18267D1*
X29284Y18377D1*
X29275Y18501D1*
X29317Y18618D1*
X29402Y18709D1*
X29515Y18758D1*
X29640D1*
X29753Y18708D1*
X29838Y18618D1*
X29879Y18501D1*
X29882Y18459D1*
X29857Y18338D1*
X30842Y18727D2*
X30782Y18617D1*
X30690Y18534D1*
X30575Y18485D1*
X30451Y18476D1*
X30331Y18508D1*
X30228Y18578D1*
X30154Y18678D1*
X30116Y18796D1*
X30119Y18921D1*
X30163Y19037D1*
X30242Y19133D1*
X30348Y19198D1*
X30470Y19224D1*
X30594Y19209D1*
X30705Y19154D1*
X30793Y19066D1*
X30847Y18954D1*
X30862Y18849D1*
X30842Y18727D1*
X32972Y17817D2*
X32912Y17707D1*
X32820Y17624D1*
X32705Y17575D1*
X32581Y17566D1*
X32461Y17598D1*
X32358Y17668D1*
X32284Y17768D1*
X32246Y17886D1*
X32249Y18011D1*
X32293Y18127D1*
X32372Y18223D1*
X32478Y18288D1*
X32600Y18314D1*
X32724Y18299D1*
X32835Y18244D1*
X32923Y18156D1*
X32977Y18044D1*
X32992Y17939D1*
X32972Y17817D1*
X32962Y15937D2*
X32902Y15827D1*
X32810Y15744D1*
X32695Y15695D1*
X32571Y15686D1*
X32451Y15718D1*
X32348Y15788D1*
X32274Y15888D1*
X32236Y16006D1*
X32239Y16131D1*
X32283Y16247D1*
X32362Y16343D1*
X32468Y16408D1*
X32590Y16434D1*
X32714Y16419D1*
X32825Y16364D1*
X32913Y16276D1*
X32967Y16164D1*
X32982Y16059D1*
X32962Y15937D1*
X28575Y12193D2*
X28485Y12155D1*
X28361Y12146D1*
X28241Y12178D1*
X28138Y12248D1*
X28064Y12348D1*
X28026Y12466D1*
X28029Y12591D1*
X28069Y12696D1*
X28026Y12826D1*
X28029Y12951D1*
X28073Y13067D1*
X28152Y13163D1*
X28258Y13228D1*
X28380Y13254D1*
X28504Y13239D1*
X28584Y13200D1*
X28618Y13218D1*
X28740Y13244D1*
X28864Y13229D1*
X28951Y13186D1*
X29028Y13228D1*
X29150Y13254D1*
X29274Y13239D1*
X29385Y13184D1*
X29473Y13096D1*
X29527Y12984D1*
X29542Y12879D1*
X29522Y12757D1*
X29494Y12705D1*
X29527Y12624D1*
X29542Y12519D1*
X29522Y12397D1*
X29462Y12287D1*
X29370Y12204D1*
X29255Y12155D1*
X29131Y12146D1*
X29011Y12178D1*
X28969Y12207D1*
X28845Y12155D1*
X28721Y12146D1*
X28601Y12178D1*
X28701Y12088D1*
X28823Y12115D1*
X28946Y12100D1*
X29058Y12045D1*
X29110Y11993D1*
X29145Y12024D1*
X29251Y12088D1*
X29373Y12115D1*
X29496Y12100D1*
X29608Y12045D1*
X29696Y11957D1*
X29750Y11845D1*
X29765Y11740D1*
X29744Y11617D1*
X29694Y11525D1*
X29750Y11415D1*
X29765Y11310D1*
X29744Y11187D1*
X29685Y11078D1*
X29593Y10994D1*
X29478Y10946D1*
X29354Y10937D1*
X29234Y10969D1*
X29119Y11054D1*
X29043Y10994D1*
X28928Y10946D1*
X28804Y10937D1*
X28684Y10969D1*
X28610Y11019D1*
X28575Y10958D1*
X28483Y10874D1*
X28368Y10826D1*
X28244Y10817D1*
X28124Y10849D1*
X28021Y10919D1*
X27947Y11019D1*
X27909Y11137D1*
X27912Y11261D1*
X27956Y11378D1*
X28035Y11474D1*
X28141Y11538D1*
X28263Y11565D1*
X28386Y11550D1*
X28506Y11487D1*
X28533Y11519D1*
X28507Y11569D1*
X28469Y11687D1*
X28472Y11811D1*
X28516Y11928D1*
X28595Y12024D1*
X28701Y12088D1*
X27072Y19467D2*
X27012Y19357D1*
X26920Y19274D1*
X26805Y19225D1*
X26681Y19216D1*
X26561Y19248D1*
X26458Y19318D1*
X26384Y19418D1*
X26346Y19536D1*
X26349Y19661D1*
X26393Y19777D1*
X26472Y19873D1*
X26578Y19938D1*
X26700Y19964D1*
X26824Y19949D1*
X26935Y19894D1*
X27023Y19806D1*
X27077Y19694D1*
X27092Y19589D1*
X27072Y19467D1*
X25993Y15853D2*
X25891Y15830D1*
X25768Y15850D1*
X25662Y15914D1*
X25588Y16013D1*
X25556Y16134D1*
X25572Y16257D1*
X25633Y16365D1*
X25730Y16443D1*
X25849Y16478D1*
X25973Y16466D1*
X26083Y16409D1*
X26163Y16314D1*
X26205Y16166D1*
X26350Y16204D1*
X26474Y16189D1*
X26585Y16134D1*
X26673Y16046D1*
X26727Y15934D1*
X26742Y15829D1*
X26722Y15707D1*
X26662Y15597D1*
X26570Y15514D1*
X26455Y15465D1*
X26331Y15456D1*
X26211Y15488D1*
X26108Y15558D1*
X26034Y15658D1*
X25996Y15776D1*
X25998Y15850D1*
X25363Y17204D2*
X25328Y17210D1*
X25222Y17274D1*
X25148Y17373D1*
X25116Y17494D1*
X25132Y17617D1*
X25193Y17725D1*
X25290Y17803D1*
X25409Y17838D1*
X25533Y17826D1*
X25643Y17769D1*
X25723Y17674D1*
X25763Y17556D1*
X25765Y17515D1*
X25750Y17435D1*
X25816Y17420D1*
X25928Y17365D1*
X26016Y17277D1*
X26070Y17165D1*
X26085Y17060D1*
X26064Y16937D1*
X26005Y16828D1*
X25913Y16744D1*
X25798Y16696D1*
X25674Y16687D1*
X25554Y16719D1*
X25451Y16789D1*
X25377Y16889D1*
X25339Y17007D1*
X25342Y17131D1*
X25368Y17201D1*
X25742Y18113D2*
X25674Y18009D1*
X25572Y17937D1*
X25451Y17910D1*
X25328Y17930D1*
X25222Y17994D1*
X25148Y18093D1*
X25116Y18214D1*
X25132Y18337D1*
X25193Y18445D1*
X25290Y18523D1*
X25409Y18558D1*
X25533Y18546D1*
X25643Y18489D1*
X25723Y18394D1*
X25763Y18276D1*
X25765Y18235D1*
X25742Y18113D1*
X26140Y19223D2*
X26069Y19122D1*
X25963Y19057D1*
X25840Y19040D1*
X25720Y19074D1*
X25624Y19152D1*
X25567Y19262D1*
X25558Y19386D1*
X25600Y19503D1*
X25685Y19594D1*
X25799Y19643D1*
X25923D1*
X26037Y19594D1*
X26121Y19503D1*
X26163Y19386D1*
X26165Y19345D1*
X26140Y19223D1*
X31655Y12081D2*
X31559Y12040D1*
X31435Y12031D1*
X31314Y12064D1*
X31211Y12133D1*
X31137Y12233D1*
X31099Y12352D1*
X31102Y12476D1*
X31146Y12593D1*
X31225Y12688D1*
X31332Y12753D1*
X31453Y12779D1*
X31577Y12764D1*
X31636Y12735D1*
X31692Y12763D1*
X31813Y12789D1*
X31937Y12774D1*
X32010Y12738D1*
X32062Y12763D1*
X32183Y12789D1*
X32307Y12774D1*
X32419Y12720D1*
X32506Y12631D1*
X32561Y12519D1*
X32575Y12415D1*
X32555Y12292D1*
X32495Y12183D1*
X32403Y12099D1*
X32289Y12050D1*
X32165Y12041D1*
X32044Y12074D1*
X32022Y12089D1*
X31919Y12050D1*
X31795Y12041D1*
X31665Y12080D1*
X31643Y11975D1*
X31766Y11960D1*
X31840Y11924D1*
X31891Y11948D1*
X32013Y11975D1*
X32136Y11960D1*
X32248Y11905D1*
X32336Y11817D1*
X32390Y11705D1*
X32405Y11600D1*
X32384Y11477D1*
X32325Y11368D1*
X32233Y11284D1*
X32118Y11236D1*
X31994Y11227D1*
X31874Y11259D1*
X31851Y11274D1*
X31748Y11236D1*
X31624Y11227D1*
X31504Y11259D1*
X31443Y11300D1*
X31308Y11236D1*
X31184Y11227D1*
X31064Y11259D1*
X30961Y11329D1*
X30887Y11429D1*
X30849Y11547D1*
X30852Y11671D1*
X30896Y11788D1*
X30975Y11884D1*
X31081Y11948D1*
X31203Y11975D1*
X31326Y11960D1*
X31441Y11902D1*
X31521Y11948D1*
X31643Y11975D1*
X26535Y13792D2*
X26475Y13683D1*
X26383Y13599D1*
X26269Y13550D1*
X26145Y13541D1*
X26024Y13574D1*
X25921Y13643D1*
X25847Y13743D1*
X25809Y13862D1*
X25812Y13986D1*
X25856Y14103D1*
X25935Y14198D1*
X26042Y14263D1*
X26163Y14289D1*
X26287Y14274D1*
X26399Y14220D1*
X26486Y14131D1*
X26541Y14019D1*
X26555Y13915D1*
X26535Y13792D1*
X30514Y9367D2*
X30457Y9262D1*
X30520Y9135D1*
X30535Y9030D1*
X30514Y8907D1*
X30440Y8785D1*
X30500Y8665D1*
X30515Y8560D1*
X30494Y8437D1*
X30435Y8328D1*
X30343Y8244D1*
X30228Y8196D1*
X30104Y8187D1*
X29984Y8219D1*
X29884Y8287D1*
X29758Y8226D1*
X29634Y8217D1*
X29514Y8249D1*
X29446Y8295D1*
X29298Y8226D1*
X29174Y8217D1*
X29054Y8249D1*
X28951Y8319D1*
X28877Y8419D1*
X28839Y8537D1*
X28842Y8661D1*
X28886Y8778D1*
X28913Y8811D1*
X28887Y8859D1*
X28849Y8977D1*
X28852Y9101D1*
X28896Y9218D1*
X28923Y9251D1*
X28867Y9329D1*
X28829Y9447D1*
X28832Y9571D1*
X28876Y9688D1*
X28955Y9784D1*
X29061Y9848D1*
X29183Y9875D1*
X29306Y9860D1*
X29418Y9805D1*
X29437Y9786D1*
X29541Y9848D1*
X29663Y9875D1*
X29786Y9860D1*
X29898Y9805D1*
X29923Y9780D1*
X30021Y9838D1*
X30143Y9865D1*
X30266Y9850D1*
X30378Y9795D1*
X30466Y9707D1*
X30520Y9595D1*
X30535Y9490D1*
X30514Y9367D1*
X28959Y7303D2*
X28942Y7293D1*
X28819Y7276D1*
X28700Y7309D1*
X28603Y7388D1*
X28546Y7498D1*
X28538Y7622D1*
X28579Y7739D1*
X28664Y7829D1*
X28778Y7879D1*
X28902D1*
X28991Y7840D1*
X29129Y7883D1*
X29252Y7872D1*
X29362Y7814D1*
X29415Y7752D1*
X29494Y7829D1*
X29608Y7879D1*
X29732D1*
X29846Y7829D1*
X29931Y7738D1*
X29972Y7621D1*
X29974Y7576D1*
X30111Y7668D1*
X30233Y7695D1*
X30356Y7680D1*
X30468Y7625D1*
X30556Y7537D1*
X30610Y7425D1*
X30625Y7320D1*
X30604Y7197D1*
X30545Y7088D1*
X30453Y7004D1*
X30338Y6956D1*
X30214Y6947D1*
X30094Y6979D1*
X29991Y7049D1*
X29917Y7149D1*
X29879Y7267D1*
X29881Y7356D1*
X29772Y7293D1*
X29649Y7276D1*
X29530Y7309D1*
X29436Y7385D1*
X29393Y7334D1*
X29292Y7263D1*
X29171Y7235D1*
X29048Y7255D1*
X28965Y7305D1*
X28471Y8298D2*
X28403Y8194D1*
X28302Y8123D1*
X28181Y8095D1*
X28058Y8115D1*
X27952Y8179D1*
X27935Y8201D1*
X27914Y8057D1*
X27855Y7948D1*
X27763Y7864D1*
X27648Y7816D1*
X27524Y7807D1*
X27404Y7839D1*
X27301Y7909D1*
X27227Y8009D1*
X27189Y8127D1*
X27192Y8251D1*
X27236Y8368D1*
X27315Y8464D1*
X27421Y8528D1*
X27543Y8555D1*
X27666Y8540D1*
X27778Y8485D1*
X27847Y8416D1*
X27861Y8522D1*
X27922Y8631D1*
X27986Y8681D1*
X27932Y8759D1*
X27921Y8800D1*
X27838Y8820D1*
X27732Y8884D1*
X27657Y8984D1*
X27626Y9104D1*
X27641Y9227D1*
X27702Y9336D1*
X27799Y9413D1*
X27916Y9452D1*
X27977Y9561D1*
X28074Y9638D1*
X28194Y9673D1*
X28317Y9662D1*
X28427Y9604D1*
X28508Y9510D1*
X28547Y9392D1*
X28550Y9350D1*
X28526Y9228D1*
X28461Y9127D1*
X28508Y9060D1*
X28547Y8942D1*
X28550Y8900D1*
X28526Y8778D1*
X28458Y8674D1*
X28411Y8641D1*
X28453Y8580D1*
X28492Y8462D1*
X28495Y8420D1*
X28471Y8298D1*
X29870Y10348D2*
X29798Y10247D1*
X29692Y10183D1*
X29569Y10166D1*
X29450Y10199D1*
X29353Y10278D1*
X29296Y10388D1*
X29288Y10512D1*
X29329Y10629D1*
X29414Y10719D1*
X29528Y10769D1*
X29652D1*
X29766Y10719D1*
X29851Y10628D1*
X29892Y10511D1*
X29895Y10470D1*
X29870Y10348D1*
X30844Y10747D2*
X30785Y10638D1*
X30693Y10554D1*
X30578Y10506D1*
X30454Y10497D1*
X30334Y10529D1*
X30231Y10599D1*
X30157Y10699D1*
X30119Y10817D1*
X30122Y10941D1*
X30166Y11058D1*
X30245Y11154D1*
X30351Y11218D1*
X30473Y11245D1*
X30596Y11230D1*
X30708Y11175D1*
X30796Y11087D1*
X30850Y10975D1*
X30865Y10870D1*
X30844Y10747D1*
X32974Y9837D2*
X32915Y9728D1*
X32823Y9644D1*
X32708Y9596D1*
X32584Y9587D1*
X32464Y9619D1*
X32361Y9689D1*
X32287Y9789D1*
X32249Y9907D1*
X32252Y10031D1*
X32296Y10148D1*
X32375Y10244D1*
X32481Y10308D1*
X32603Y10335D1*
X32726Y10320D1*
X32838Y10265D1*
X32926Y10177D1*
X32980Y10065D1*
X32995Y9960D1*
X32974Y9837D1*
X32964Y7957D2*
X32905Y7848D1*
X32813Y7764D1*
X32698Y7716D1*
X32574Y7707D1*
X32454Y7739D1*
X32351Y7809D1*
X32277Y7909D1*
X32239Y8027D1*
X32242Y8151D1*
X32286Y8268D1*
X32365Y8364D1*
X32471Y8428D1*
X32593Y8455D1*
X32716Y8440D1*
X32828Y8385D1*
X32916Y8297D1*
X32970Y8185D1*
X32985Y8080D1*
X32964Y7957D1*
X28578Y4214D2*
X28488Y4176D1*
X28364Y4167D1*
X28244Y4199D1*
X28141Y4269D1*
X28067Y4369D1*
X28029Y4487D1*
X28032Y4611D1*
X28071Y4717D1*
X28029Y4847D1*
X28032Y4971D1*
X28076Y5088D1*
X28155Y5184D1*
X28261Y5248D1*
X28383Y5275D1*
X28506Y5260D1*
X28587Y5220D1*
X28621Y5238D1*
X28743Y5265D1*
X28866Y5250D1*
X28954Y5207D1*
X29031Y5248D1*
X29153Y5275D1*
X29276Y5260D1*
X29388Y5205D1*
X29476Y5117D1*
X29530Y5005D1*
X29545Y4900D1*
X29524Y4777D1*
X29496Y4726D1*
X29530Y4645D1*
X29545Y4540D1*
X29524Y4417D1*
X29465Y4308D1*
X29373Y4224D1*
X29258Y4176D1*
X29134Y4167D1*
X29014Y4199D1*
X28972Y4227D1*
X28848Y4176D1*
X28724Y4167D1*
X28604Y4199D1*
X28581Y4214D1*
X27074Y11487D2*
X27015Y11378D1*
X26923Y11294D1*
X26808Y11246D1*
X26684Y11237D1*
X26564Y11269D1*
X26461Y11339D1*
X26387Y11439D1*
X26349Y11557D1*
X26352Y11681D1*
X26396Y11798D1*
X26475Y11894D1*
X26581Y11958D1*
X26703Y11985D1*
X26826Y11970D1*
X26938Y11915D1*
X27026Y11827D1*
X27080Y11715D1*
X27095Y11610D1*
X27074Y11487D1*
X25996Y7874D2*
X25894Y7850D1*
X25771Y7870D1*
X25665Y7935D1*
X25590Y8034D1*
X25559Y8154D1*
X25575Y8277D1*
X25636Y8386D1*
X25733Y8463D1*
X25852Y8499D1*
X25975Y8487D1*
X26086Y8430D1*
X26166Y8335D1*
X26207Y8187D1*
X26353Y8225D1*
X26476Y8210D1*
X26588Y8155D1*
X26676Y8067D1*
X26730Y7955D1*
X26745Y7850D1*
X26724Y7727D1*
X26665Y7618D1*
X26573Y7534D1*
X26458Y7486D1*
X26334Y7477D1*
X26214Y7509D1*
X26111Y7579D1*
X26037Y7679D1*
X25999Y7797D1*
X26001Y7871D1*
X25358Y9226D2*
X25331Y9230D1*
X25225Y9295D1*
X25150Y9394D1*
X25119Y9514D1*
X25135Y9637D1*
X25196Y9746D1*
X25293Y9823D1*
X25412Y9859D1*
X25535Y9847D1*
X25646Y9790D1*
X25726Y9695D1*
X25766Y9577D1*
X25768Y9535D1*
X25750Y9440D1*
X25806Y9430D1*
X25918Y9375D1*
X26006Y9287D1*
X26060Y9175D1*
X26075Y9070D1*
X26054Y8947D1*
X25995Y8838D1*
X25903Y8754D1*
X25788Y8706D1*
X25664Y8697D1*
X25544Y8729D1*
X25441Y8799D1*
X25367Y8899D1*
X25329Y9017D1*
X25332Y9141D1*
X25361Y9218D1*
X25744Y10133D2*
X25677Y10029D1*
X25575Y9958D1*
X25454Y9930D1*
X25331Y9950D1*
X25225Y10015D1*
X25150Y10114D1*
X25119Y10234D1*
X25135Y10357D1*
X25196Y10466D1*
X25293Y10543D1*
X25412Y10579D1*
X25535Y10567D1*
X25646Y10510D1*
X25726Y10415D1*
X25766Y10297D1*
X25768Y10255D1*
X25744Y10133D1*
X26143Y11244D2*
X26071Y11142D1*
X25965Y11078D1*
X25842Y11061D1*
X25723Y11095D1*
X25627Y11173D1*
X25570Y11283D1*
X25561Y11407D1*
X25603Y11524D1*
X25687Y11615D1*
X25801Y11664D1*
X25926D1*
X26039Y11614D1*
X26124Y11524D1*
X26165Y11407D1*
X26168Y11365D1*
X26143Y11244D1*
X31658Y4102D2*
X31561Y4061D1*
X31437Y4052D1*
X31317Y4084D1*
X31214Y4154D1*
X31140Y4254D1*
X31102Y4372D1*
X31105Y4497D1*
X31149Y4613D1*
X31228Y4709D1*
X31334Y4774D1*
X31456Y4800D1*
X31580Y4785D1*
X31639Y4756D1*
X31694Y4784D1*
X31816Y4810D1*
X31940Y4795D1*
X32013Y4759D1*
X32064Y4784D1*
X32186Y4810D1*
X32310Y4795D1*
X32421Y4740D1*
X32509Y4652D1*
X32563Y4540D1*
X32578Y4435D1*
X32558Y4313D1*
X32498Y4203D1*
X32406Y4120D1*
X32291Y4071D1*
X32167Y4062D1*
X32047Y4094D1*
X32025Y4110D1*
X31921Y4071D1*
X31797Y4062D1*
X31668Y4101D1*
X26538Y5813D2*
X26478Y5703D1*
X26386Y5620D1*
X26271Y5571D1*
X26147Y5562D1*
X26027Y5594D1*
X25924Y5664D1*
X25850Y5764D1*
X25812Y5882D1*
X25815Y6007D1*
X25859Y6123D1*
X25938Y6219D1*
X26044Y6284D1*
X26166Y6310D1*
X26290Y6295D1*
X26401Y6240D1*
X26489Y6152D1*
X26543Y6040D1*
X26558Y5935D1*
X26538Y5813D1*
X22863Y34008D2*
X22801Y33900D1*
X22705Y33821D1*
X22587Y33780D1*
X22463Y33781D1*
X22347Y33826D1*
X22253Y33908D1*
X22194Y34017D1*
X22175Y34140D1*
X22200Y34262D1*
X22266Y34367D1*
X22364Y34444D1*
X22482Y34482D1*
X22606Y34477D1*
X22721Y34429D1*
X22813Y34345D1*
X22869Y34234D1*
X22885Y34130D1*
X22863Y34008D1*
X19979Y30127D2*
X19948Y30069D1*
X19985Y29980D1*
X20000Y29875D1*
X19979Y29752D1*
X19920Y29643D1*
X19828Y29559D1*
X19713Y29511D1*
X19589Y29502D1*
X19469Y29534D1*
X19366Y29604D1*
X19292Y29704D1*
X19254Y29822D1*
X19257Y29946D1*
X19299Y30059D1*
X19254Y30197D1*
X19257Y30321D1*
X19299Y30434D1*
X19254Y30572D1*
X19257Y30696D1*
X19301Y30813D1*
X19380Y30909D1*
X19486Y30973D1*
X19608Y31000D1*
X19731Y30985D1*
X19843Y30930D1*
X19931Y30842D1*
X19985Y30730D1*
X20000Y30625D1*
X19979Y30502D1*
X19948Y30444D1*
X19985Y30355D1*
X20000Y30250D1*
X19979Y30127D1*
X20929D2*
X20898Y30069D1*
X20935Y29980D1*
X20950Y29875D1*
X20929Y29752D1*
X20870Y29643D1*
X20778Y29559D1*
X20663Y29511D1*
X20539Y29502D1*
X20419Y29534D1*
X20316Y29604D1*
X20242Y29704D1*
X20204Y29822D1*
X20207Y29946D1*
X20249Y30059D1*
X20204Y30197D1*
X20207Y30321D1*
X20249Y30434D1*
X20204Y30572D1*
X20207Y30696D1*
X20251Y30813D1*
X20330Y30909D1*
X20436Y30973D1*
X20558Y31000D1*
X20681Y30985D1*
X20793Y30930D1*
X20881Y30842D1*
X20935Y30730D1*
X20950Y30625D1*
X20929Y30502D1*
X20898Y30444D1*
X20935Y30355D1*
X20950Y30250D1*
X20929Y30127D1*
X21979Y33327D2*
X21920Y33218D1*
X21828Y33134D1*
X21713Y33086D1*
X21589Y33077D1*
X21469Y33109D1*
X21366Y33179D1*
X21292Y33279D1*
X21254Y33397D1*
X21257Y33521D1*
X21301Y33638D1*
X21380Y33734D1*
X21486Y33798D1*
X21608Y33825D1*
X21731Y33810D1*
X21843Y33755D1*
X21931Y33667D1*
X21985Y33555D1*
X22000Y33450D1*
X21979Y33327D1*
X19433Y5958D2*
X19371Y5850D1*
X19275Y5771D1*
X19157Y5730D1*
X19033Y5731D1*
X18917Y5776D1*
X18823Y5858D1*
X18764Y5967D1*
X18745Y6090D1*
X18770Y6212D1*
X18836Y6317D1*
X18934Y6394D1*
X19052Y6432D1*
X19176Y6427D1*
X19291Y6379D1*
X19383Y6295D1*
X19439Y6184D1*
X19455Y6080D1*
X19433Y5958D1*
X21833Y5903D2*
X21771Y5795D1*
X21675Y5716D1*
X21557Y5675D1*
X21433Y5676D1*
X21317Y5721D1*
X21223Y5803D1*
X21164Y5912D1*
X21147Y6023D1*
X21129Y5947D1*
X21070Y5838D1*
X20978Y5754D1*
X20863Y5706D1*
X20739Y5697D1*
X20619Y5729D1*
X20516Y5799D1*
X20442Y5899D1*
X20404Y6017D1*
X20407Y6141D1*
X20451Y6258D1*
X20530Y6354D1*
X20636Y6418D1*
X20758Y6445D1*
X20881Y6430D1*
X20993Y6375D1*
X21081Y6287D1*
X21135Y6175D1*
X21149Y6080D1*
X21170Y6157D1*
X21236Y6262D1*
X21334Y6339D1*
X21452Y6377D1*
X21576Y6372D1*
X21691Y6324D1*
X21783Y6240D1*
X21839Y6129D1*
X21855Y6025D1*
X21833Y5903D1*
X4874Y11137D2*
X4815Y11028D1*
X4723Y10944D1*
X4608Y10896D1*
X4484Y10887D1*
X4364Y10919D1*
X4261Y10989D1*
X4187Y11089D1*
X4149Y11207D1*
X4152Y11331D1*
X4196Y11448D1*
X4275Y11544D1*
X4381Y11608D1*
X4503Y11635D1*
X4626Y11620D1*
X4738Y11565D1*
X4826Y11477D1*
X4880Y11365D1*
X4895Y11260D1*
X4874Y11137D1*
X20954Y25352D2*
X20915Y25281D1*
X20960Y25180D1*
X20975Y25075D1*
X20954Y24952D1*
X20892Y24840D1*
X20960Y24705D1*
X20975Y24600D1*
X20954Y24477D1*
X20895Y24368D1*
X20803Y24284D1*
X20688Y24236D1*
X20564Y24227D1*
X20444Y24259D1*
X20341Y24329D1*
X20267Y24429D1*
X20229Y24547D1*
X20232Y24671D1*
X20276Y24788D1*
X20313Y24833D1*
X20267Y24904D1*
X20229Y25022D1*
X20232Y25146D1*
X20283Y25272D1*
X20229Y25422D1*
X20232Y25546D1*
X20276Y25663D1*
X20355Y25759D1*
X20461Y25823D1*
X20583Y25850D1*
X20706Y25835D1*
X20818Y25780D1*
X20906Y25692D1*
X20960Y25580D1*
X20975Y25475D1*
X20954Y25352D1*
X19979D2*
X19940Y25281D1*
X19985Y25180D1*
X20000Y25075D1*
X19979Y24952D1*
X19917Y24840D1*
X19985Y24705D1*
X20000Y24600D1*
X19979Y24477D1*
X19920Y24368D1*
X19828Y24284D1*
X19713Y24236D1*
X19589Y24227D1*
X19469Y24259D1*
X19366Y24329D1*
X19292Y24429D1*
X19254Y24547D1*
X19257Y24671D1*
X19301Y24788D1*
X19338Y24833D1*
X19292Y24904D1*
X19254Y25022D1*
X19257Y25146D1*
X19308Y25272D1*
X19254Y25422D1*
X19257Y25546D1*
X19301Y25663D1*
X19380Y25759D1*
X19486Y25823D1*
X19608Y25850D1*
X19731Y25835D1*
X19843Y25780D1*
X19931Y25692D1*
X19985Y25580D1*
X20000Y25475D1*
X19979Y25352D1*
X21854Y28177D2*
X21795Y28068D1*
X21703Y27984D1*
X21588Y27936D1*
X21464Y27927D1*
X21344Y27959D1*
X21241Y28029D1*
X21167Y28129D1*
X21129Y28247D1*
X21132Y28371D1*
X21176Y28488D1*
X21255Y28584D1*
X21361Y28648D1*
X21483Y28675D1*
X21606Y28660D1*
X21718Y28605D1*
X21806Y28517D1*
X21860Y28405D1*
X21875Y28300D1*
X21854Y28177D1*
X13279Y3937D2*
X13220Y3828D1*
X13128Y3744D1*
X13013Y3696D1*
X12889Y3687D1*
X12769Y3719D1*
X12666Y3789D1*
X12592Y3889D1*
X12554Y4007D1*
X12557Y4131D1*
X12601Y4248D1*
X12680Y4344D1*
X12786Y4408D1*
X12908Y4435D1*
X13031Y4420D1*
X13143Y4365D1*
X13231Y4277D1*
X13285Y4165D1*
X13300Y4060D1*
X13279Y3937D1*
X5994Y18587D2*
X5935Y18478D1*
X5843Y18394D1*
X5728Y18346D1*
X5604Y18337D1*
X5484Y18369D1*
X5381Y18439D1*
X5307Y18539D1*
X5269Y18657D1*
X5272Y18781D1*
X5316Y18898D1*
X5395Y18994D1*
X5501Y19058D1*
X5623Y19085D1*
X5746Y19070D1*
X5858Y19015D1*
X5946Y18927D1*
X6000Y18815D1*
X6015Y18710D1*
X5994Y18587D1*
X2679Y15227D2*
X2620Y15118D1*
X2528Y15034D1*
X2413Y14986D1*
X2289Y14977D1*
X2169Y15009D1*
X2066Y15079D1*
X1992Y15179D1*
X1954Y15297D1*
X1957Y15421D1*
X2001Y15538D1*
X2080Y15634D1*
X2186Y15698D1*
X2308Y15725D1*
X2431Y15710D1*
X2543Y15655D1*
X2631Y15567D1*
X2685Y15455D1*
X2700Y15350D1*
X2679Y15227D1*
X23454Y5927D2*
X23395Y5818D1*
X23303Y5734D1*
X23188Y5686D1*
X23064Y5677D1*
X22944Y5709D1*
X22841Y5779D1*
X22767Y5879D1*
X22729Y5997D1*
X22732Y6121D1*
X22776Y6238D1*
X22855Y6334D1*
X22961Y6398D1*
X23083Y6425D1*
X23206Y6410D1*
X23318Y6355D1*
X23406Y6267D1*
X23460Y6155D1*
X23475Y6050D1*
X23454Y5927D1*
X7344Y3702D2*
X7285Y3593D1*
X7193Y3509D1*
X7078Y3461D1*
X6954Y3452D1*
X6834Y3484D1*
X6731Y3554D1*
X6657Y3654D1*
X6619Y3772D1*
X6622Y3896D1*
X6666Y4013D1*
X6745Y4109D1*
X6851Y4173D1*
X6973Y4200D1*
X7096Y4185D1*
X7208Y4130D1*
X7296Y4042D1*
X7350Y3930D1*
X7365Y3825D1*
X7344Y3702D1*
X8609Y3952D2*
X8550Y3843D1*
X8458Y3759D1*
X8343Y3711D1*
X8219Y3702D1*
X8099Y3734D1*
X7996Y3804D1*
X7922Y3904D1*
X7884Y4022D1*
X7887Y4146D1*
X7931Y4263D1*
X8010Y4359D1*
X8116Y4423D1*
X8238Y4450D1*
X8361Y4435D1*
X8473Y4380D1*
X8561Y4292D1*
X8615Y4180D1*
X8630Y4075D1*
X8609Y3952D1*
X9654Y3977D2*
X9595Y3868D1*
X9503Y3784D1*
X9388Y3736D1*
X9264Y3727D1*
X9144Y3759D1*
X9041Y3829D1*
X8967Y3929D1*
X8929Y4047D1*
X8932Y4171D1*
X8976Y4288D1*
X9055Y4384D1*
X9161Y4448D1*
X9283Y4475D1*
X9406Y4460D1*
X9518Y4405D1*
X9606Y4317D1*
X9660Y4205D1*
X9675Y4100D1*
X9654Y3977D1*
X7029Y28427D2*
X6970Y28318D1*
X6921Y28274D1*
X7006Y28192D1*
X7060Y28080D1*
X7075Y27975D1*
X7054Y27852D1*
X6995Y27743D1*
X6952Y27704D1*
X7006Y27642D1*
X7060Y27530D1*
X7075Y27425D1*
X7054Y27302D1*
X6995Y27193D1*
X6903Y27109D1*
X6788Y27061D1*
X6664Y27052D1*
X6544Y27084D1*
X6441Y27154D1*
X6367Y27254D1*
X6329Y27372D1*
X6332Y27496D1*
X6376Y27613D1*
X6447Y27700D1*
X6367Y27804D1*
X6329Y27922D1*
X6332Y28046D1*
X6376Y28163D1*
X6447Y28250D1*
X6342Y28379D1*
X6304Y28497D1*
X6307Y28621D1*
X6351Y28738D1*
X6430Y28834D1*
X6536Y28898D1*
X6658Y28925D1*
X6781Y28910D1*
X6893Y28855D1*
X6981Y28767D1*
X7035Y28655D1*
X7050Y28550D1*
X7029Y28427D1*
X6298Y31428D2*
X6278Y31409D1*
X6163Y31361D1*
X6039Y31352D1*
X5919Y31384D1*
X5877Y31412D1*
X5763Y31361D1*
X5639Y31352D1*
X5519Y31384D1*
X5416Y31454D1*
X5342Y31554D1*
X5304Y31672D1*
X5307Y31796D1*
X5351Y31913D1*
X5430Y32009D1*
X5536Y32073D1*
X5658Y32100D1*
X5781Y32085D1*
X5869Y32042D1*
X5936Y32073D1*
X6058Y32100D1*
X6181Y32085D1*
X6301Y32022D1*
X6386Y32073D1*
X6508Y32100D1*
X6631Y32085D1*
X6743Y32030D1*
X6831Y31942D1*
X6885Y31830D1*
X6900Y31725D1*
X6879Y31602D1*
X6820Y31493D1*
X6728Y31409D1*
X6613Y31361D1*
X6489Y31352D1*
X6369Y31384D1*
X6301Y31430D1*
X20924Y6767D2*
X20865Y6658D1*
X20773Y6574D1*
X20658Y6526D1*
X20534Y6517D1*
X20414Y6549D1*
X20311Y6619D1*
X20237Y6719D1*
X20199Y6837D1*
X20202Y6961D1*
X20246Y7078D1*
X20325Y7174D1*
X20431Y7238D1*
X20553Y7265D1*
X20676Y7250D1*
X20788Y7195D1*
X20876Y7107D1*
X20930Y6995D1*
X20945Y6890D1*
X20924Y6767D1*
X7564Y11757D2*
X7505Y11648D1*
X7413Y11564D1*
X7298Y11516D1*
X7174Y11507D1*
X7054Y11539D1*
X6944Y11618D1*
X6945Y10157D1*
X7166D1*
X7281Y10228D1*
X7403Y10255D1*
X7526Y10240D1*
X7638Y10185D1*
X7668Y10155D1*
X7744Y10156D1*
X7737Y12279D1*
X7725Y12237D1*
X7665Y12127D1*
X7573Y12044D1*
X7548Y12033D1*
X7570Y11985D1*
X7585Y11880D1*
X7564Y11757D1*
X16394Y13557D2*
X16335Y13448D1*
X16243Y13364D1*
X16128Y13316D1*
X16004Y13307D1*
X15884Y13339D1*
X15781Y13409D1*
X15707Y13509D1*
X15669Y13627D1*
X15672Y13751D1*
X15716Y13868D1*
X15795Y13964D1*
X15901Y14028D1*
X16023Y14055D1*
X16146Y14040D1*
X16258Y13985D1*
X16346Y13897D1*
X16400Y13785D1*
X16415Y13680D1*
X16394Y13557D1*
X22434Y19767D2*
X22375Y19658D1*
X22283Y19574D1*
X22168Y19526D1*
X22044Y19517D1*
X21924Y19549D1*
X21821Y19619D1*
X21747Y19719D1*
X21709Y19837D1*
X21712Y19961D1*
X21756Y20078D1*
X21835Y20174D1*
X21941Y20238D1*
X22063Y20265D1*
X22186Y20250D1*
X22298Y20195D1*
X22386Y20107D1*
X22440Y19995D1*
X22455Y19890D1*
X22434Y19767D1*
X27654Y10907D2*
X27595Y10798D1*
X27503Y10714D1*
X27388Y10666D1*
X27264Y10657D1*
X27144Y10689D1*
X27041Y10759D1*
X26967Y10859D1*
X26929Y10977D1*
X26932Y11101D1*
X26976Y11218D1*
X27055Y11314D1*
X27161Y11378D1*
X27283Y11405D1*
X27406Y11390D1*
X27518Y11335D1*
X27606Y11247D1*
X27660Y11135D1*
X27675Y11030D1*
X27654Y10907D1*
X27644Y18777D2*
X27585Y18668D1*
X27493Y18584D1*
X27378Y18536D1*
X27254Y18527D1*
X27134Y18559D1*
X27031Y18629D1*
X26957Y18729D1*
X26919Y18847D1*
X26922Y18971D1*
X26966Y19088D1*
X27045Y19184D1*
X27151Y19248D1*
X27273Y19275D1*
X27396Y19260D1*
X27508Y19205D1*
X27596Y19117D1*
X27650Y19005D1*
X27665Y18900D1*
X27644Y18777D1*
X30604Y12417D2*
X30545Y12308D1*
X30453Y12224D1*
X30338Y12176D1*
X30214Y12167D1*
X30094Y12199D1*
X29991Y12269D1*
X29917Y12369D1*
X29879Y12487D1*
X29882Y12611D1*
X29926Y12728D1*
X30005Y12824D1*
X30111Y12888D1*
X30233Y12915D1*
X30356Y12900D1*
X30468Y12845D1*
X30556Y12757D1*
X30610Y12645D1*
X30625Y12540D1*
X30604Y12417D1*
X30564Y14007D2*
X30505Y13898D1*
X30413Y13814D1*
X30298Y13766D1*
X30174Y13757D1*
X30054Y13789D1*
X29951Y13859D1*
X29877Y13959D1*
X29839Y14077D1*
X29842Y14201D1*
X29886Y14318D1*
X29965Y14414D1*
X30071Y14478D1*
X30193Y14505D1*
X30316Y14490D1*
X30428Y14435D1*
X30516Y14347D1*
X30570Y14235D1*
X30585Y14130D1*
X30564Y14007D1*
X30814Y20467D2*
X30755Y20358D1*
X30663Y20274D1*
X30548Y20226D1*
X30424Y20217D1*
X30304Y20249D1*
X30201Y20319D1*
X30127Y20419D1*
X30089Y20537D1*
X30092Y20661D1*
X30136Y20778D1*
X30215Y20874D1*
X30321Y20938D1*
X30443Y20965D1*
X30566Y20950D1*
X30678Y20895D1*
X30766Y20807D1*
X30820Y20695D1*
X30835Y20590D1*
X30814Y20467D1*
X30744Y21957D2*
X30685Y21848D1*
X30593Y21764D1*
X30478Y21716D1*
X30354Y21707D1*
X30234Y21739D1*
X30131Y21809D1*
X30057Y21909D1*
X30019Y22027D1*
X30022Y22151D1*
X30066Y22268D1*
X30145Y22364D1*
X30251Y22428D1*
X30373Y22455D1*
X30496Y22440D1*
X30608Y22385D1*
X30696Y22297D1*
X30750Y22185D1*
X30765Y22080D1*
X30744Y21957D1*
X27694Y26737D2*
X27635Y26628D1*
X27543Y26544D1*
X27428Y26496D1*
X27304Y26487D1*
X27184Y26519D1*
X27081Y26589D1*
X27007Y26689D1*
X26969Y26807D1*
X26972Y26931D1*
X27016Y27048D1*
X27095Y27144D1*
X27201Y27208D1*
X27323Y27235D1*
X27446Y27220D1*
X27558Y27165D1*
X27646Y27077D1*
X27700Y26965D1*
X27715Y26860D1*
X27694Y26737D1*
X30704Y29977D2*
X30645Y29868D1*
X30553Y29784D1*
X30438Y29736D1*
X30314Y29727D1*
X30194Y29759D1*
X30091Y29829D1*
X30017Y29929D1*
X29979Y30047D1*
X29982Y30171D1*
X30026Y30288D1*
X30105Y30384D1*
X30211Y30448D1*
X30333Y30475D1*
X30456Y30460D1*
X30568Y30405D1*
X30656Y30317D1*
X30710Y30205D1*
X30725Y30100D1*
X30704Y29977D1*
X30754Y28477D2*
X30695Y28368D1*
X30603Y28284D1*
X30488Y28236D1*
X30364Y28227D1*
X30244Y28259D1*
X30141Y28329D1*
X30067Y28429D1*
X30029Y28547D1*
X30032Y28671D1*
X30076Y28788D1*
X30155Y28884D1*
X30261Y28948D1*
X30383Y28975D1*
X30506Y28960D1*
X30618Y28905D1*
X30706Y28817D1*
X30760Y28705D1*
X30775Y28600D1*
X30754Y28477D1*
X27714Y34847D2*
X27655Y34738D1*
X27563Y34654D1*
X27448Y34606D1*
X27324Y34597D1*
X27204Y34629D1*
X27101Y34699D1*
X27027Y34799D1*
X26989Y34917D1*
X26992Y35041D1*
X27036Y35158D1*
X27115Y35254D1*
X27221Y35318D1*
X27343Y35345D1*
X27466Y35330D1*
X27578Y35275D1*
X27666Y35187D1*
X27720Y35075D1*
X27735Y34970D1*
X27714Y34847D1*
X24030Y22328D2*
X24014Y22306D1*
X24052Y22191D1*
X24055Y22150D1*
X24030Y22028D1*
X24005Y21994D1*
X24042Y21891D1*
X24045Y21850D1*
X24020Y21728D1*
X23948Y21627D1*
X23842Y21563D1*
X23719Y21546D1*
X23685Y21555D1*
X23660Y21468D1*
X23588Y21367D1*
X23525Y21329D1*
X23500Y21218D1*
X23428Y21117D1*
X23322Y21053D1*
X23199Y21036D1*
X23080Y21069D1*
X22983Y21148D1*
X22926Y21258D1*
X22918Y21382D1*
X22959Y21499D1*
X23044Y21589D1*
X23076Y21603D1*
X23078Y21632D1*
X23118Y21745D1*
X23096Y21798D1*
X23088Y21922D1*
X23129Y22039D1*
X23214Y22129D1*
X23328Y22179D1*
X23448D1*
X23486Y22298D1*
X23456Y22368D1*
X23448Y22492D1*
X23489Y22609D1*
X23574Y22699D1*
X23688Y22749D1*
X23812D1*
X23926Y22699D1*
X24011Y22608D1*
X24052Y22491D1*
X24055Y22450D1*
X24030Y22328D1*
X5354Y13487D2*
X5295Y13378D1*
X5203Y13294D1*
X5088Y13246D1*
X4964Y13237D1*
X4844Y13269D1*
X4741Y13339D1*
X4667Y13439D1*
X4629Y13557D1*
X4632Y13681D1*
X4676Y13798D1*
X4755Y13894D1*
X4861Y13958D1*
X4983Y13985D1*
X5106Y13970D1*
X5218Y13915D1*
X5306Y13827D1*
X5360Y13715D1*
X5375Y13610D1*
X5354Y13487D1*
X19959Y5109D2*
X19924Y5107D1*
X19804Y5139D1*
X19701Y5209D1*
X19627Y5309D1*
X19589Y5427D1*
X19592Y5551D1*
X19636Y5668D1*
X19698Y5743D1*
X24658Y19653D2*
X24596Y19545D1*
X24500Y19466D1*
X24382Y19425D1*
X24258Y19426D1*
X24142Y19471D1*
X24048Y19553D1*
X23989Y19662D1*
X23970Y19785D1*
X23995Y19907D1*
X24048Y20003D1*
X23989Y20112D1*
X23970Y20235D1*
X23995Y20357D1*
X24064Y20465D1*
X24048Y20478D1*
X23989Y20587D1*
X23970Y20710D1*
X23995Y20832D1*
X24070Y20944D1*
X24059Y20967D1*
X24040Y21090D1*
X24065Y21212D1*
X24131Y21317D1*
X24229Y21394D1*
X24347Y21432D1*
X24471Y21427D1*
X24586Y21379D1*
X24678Y21295D1*
X24734Y21184D1*
X24750Y21080D1*
X24728Y20958D1*
X24651Y20838D1*
X24664Y20804D1*
X24680Y20700D1*
X24658Y20578D1*
X24587Y20463D1*
X24608Y20440D1*
X24664Y20329D1*
X24680Y20225D1*
X24658Y20103D1*
X24598Y19999D1*
X24664Y19879D1*
X24680Y19775D1*
X24658Y19653D1*
X4763Y12468D2*
X4701Y12360D1*
X4605Y12281D1*
X4487Y12240D1*
X4363Y12241D1*
X4247Y12286D1*
X4153Y12368D1*
X4094Y12477D1*
X4075Y12600D1*
X4100Y12722D1*
X4166Y12827D1*
X4264Y12904D1*
X4382Y12942D1*
X4506Y12937D1*
X4621Y12889D1*
X4713Y12805D1*
X4769Y12694D1*
X4785Y12590D1*
X4763Y12468D1*
X18033Y5958D2*
X17971Y5850D1*
X17875Y5771D1*
X17757Y5730D1*
X17633Y5731D1*
X17517Y5776D1*
X17423Y5858D1*
X17364Y5967D1*
X17345Y6090D1*
X17370Y6212D1*
X17436Y6317D1*
X17534Y6394D1*
X17652Y6432D1*
X17776Y6427D1*
X17891Y6379D1*
X17983Y6295D1*
X18039Y6184D1*
X18055Y6080D1*
X18033Y5958D1*
X9224Y31377D2*
X9165Y31268D1*
X9073Y31184D1*
X8958Y31136D1*
X8834Y31127D1*
X8714Y31159D1*
X8611Y31229D1*
X8537Y31329D1*
X8499Y31447D1*
X8502Y31571D1*
X8546Y31688D1*
X8625Y31784D1*
X8731Y31848D1*
X8853Y31875D1*
X8976Y31860D1*
X9088Y31805D1*
X9176Y31717D1*
X9230Y31605D1*
X9245Y31500D1*
X9224Y31377D1*
X17943Y4418D2*
X17881Y4310D1*
X17785Y4231D1*
X17667Y4190D1*
X17543Y4191D1*
X17427Y4236D1*
X17333Y4318D1*
X17274Y4427D1*
X17255Y4550D1*
X17280Y4672D1*
X17346Y4777D1*
X17444Y4854D1*
X17562Y4892D1*
X17686Y4887D1*
X17801Y4839D1*
X17893Y4755D1*
X17949Y4644D1*
X17965Y4540D1*
X17943Y4418D1*
X8879Y26802D2*
X8820Y26693D1*
X8728Y26609D1*
X8613Y26561D1*
X8489Y26552D1*
X8369Y26584D1*
X8266Y26654D1*
X8192Y26754D1*
X8154Y26872D1*
X8157Y26996D1*
X8201Y27113D1*
X8280Y27209D1*
X8386Y27273D1*
X8508Y27300D1*
X8631Y27285D1*
X8743Y27230D1*
X8831Y27142D1*
X8885Y27030D1*
X8900Y26925D1*
X8879Y26802D1*
X5714Y14157D2*
X5655Y14048D1*
X5563Y13964D1*
X5448Y13916D1*
X5324Y13907D1*
X5204Y13939D1*
X5101Y14009D1*
X5027Y14109D1*
X4989Y14227D1*
X4992Y14351D1*
X5036Y14468D1*
X5115Y14564D1*
X5221Y14628D1*
X5343Y14655D1*
X5466Y14640D1*
X5578Y14585D1*
X5666Y14497D1*
X5720Y14385D1*
X5735Y14280D1*
X5714Y14157D1*
X23574Y27416D2*
D23*
X24226Y26764D1*
Y27416D2*
X23574Y26764D1*
Y32616D2*
X24226Y31964D1*
Y32616D2*
X23574Y31964D1*
X6775Y19230D2*
X7101Y18904D1*
Y19556D2*
X6775Y19230D1*
X15254Y11756D2*
X15906Y11104D1*
Y11756D2*
X15580Y11430D1*
X8103Y12546D2*
D22*
X8353D1*
X8728D2*
X9353D1*
X9728D2*
X10353D1*
X10728D2*
X11264D1*
X12060D2*
X14404D1*
X11044Y12298D2*
X14506D1*
X11122Y12049D2*
X11404D1*
X11993D2*
X14607D1*
X11083Y11800D2*
X11260D1*
X12142D2*
X14713D1*
X8888Y11552D2*
X9193D1*
X9888D2*
X10193D1*
X10888D2*
X11283D1*
X12114D2*
X14814D1*
X11044Y11303D2*
X11596D1*
X11808D2*
X14916D1*
X11122Y11054D2*
X15021D1*
X11087Y10805D2*
X12810D1*
X13591D2*
X15072D1*
X8106Y10557D2*
X8189D1*
X8896D2*
X9185D1*
X9896D2*
X10185D1*
X10896D2*
X12752D1*
X13649D2*
X15053D1*
X8110Y10308D2*
X12857D1*
X13544D2*
X15170D1*
X8110Y10059D2*
X15088D1*
X4710Y9811D2*
X15045D1*
X4710Y9562D2*
X10889D1*
X11310D2*
X15135D1*
X4710Y9313D2*
X10670D1*
X12067D2*
X15107D1*
X4710Y9065D2*
X10666D1*
X12130D2*
X15045D1*
X4710Y8816D2*
X10681D1*
X12028D2*
X15111D1*
X4710Y8567D2*
X9420D1*
X10653D2*
X10737D1*
X11524D2*
X15131D1*
X4710Y8319D2*
X6396D1*
X7122D2*
X9381D1*
X10696D2*
X15045D1*
X4710Y8070D2*
X6310D1*
X7208D2*
X9447D1*
X10665D2*
X15088D1*
X4710Y7821D2*
X6385D1*
X7138D2*
X9404D1*
X10692D2*
X10889D1*
X11661D2*
X15330D1*
X4710Y7573D2*
X6471D1*
X6931D2*
X9525D1*
X10544D2*
X10826D1*
X11724D2*
X15517D1*
X4710Y7324D2*
X6267D1*
X7130D2*
X10928D1*
X11622D2*
X15517D1*
X4710Y7075D2*
X6267D1*
X7130D2*
X9060D1*
X11212D2*
X15517D1*
X4710Y6826D2*
X6471D1*
X6927D2*
X8951D1*
X11329D2*
X15517D1*
X4915Y6578D2*
X5119D1*
X5720D2*
X9006D1*
X11278D2*
X12545D1*
X13157D2*
X13611D1*
X5915Y6329D2*
X12404D1*
X13294D2*
X13611D1*
X5939Y6080D2*
X12439D1*
X13259D2*
X13611D1*
X5825Y5832D2*
X13611D1*
X4710Y5583D2*
X13611D1*
X4710Y5334D2*
X5678D1*
X6360D2*
X13611D1*
X4710Y5086D2*
X5572D1*
X6470D2*
X13611D1*
X9039Y10758D2*
X8979Y10662D1*
X8892Y10574D1*
X8786Y10507D1*
X8669Y10465D1*
X8545Y10450D1*
X8421Y10463D1*
X8303Y10502D1*
X8196Y10567D1*
X8107Y10654D1*
X8084Y10690D1*
X8085Y9940D1*
X8024Y9835D1*
X7960Y9815D1*
X4682Y9825D1*
X4685Y8075D1*
Y6649D1*
X4766Y6632D1*
X4881Y6584D1*
X4980Y6508D1*
X5017Y6463D1*
X5089Y6536D1*
X5192Y6606D1*
X5309Y6649D1*
X5433Y6661D1*
X5556Y6642D1*
X5671Y6594D1*
X5770Y6518D1*
X5848Y6421D1*
X5899Y6307D1*
X5921Y6160D1*
X5906Y6036D1*
X5860Y5920D1*
X5787Y5819D1*
X5692Y5739D1*
X5579Y5685D1*
X5457Y5660D1*
X5333Y5666D1*
X5214Y5703D1*
X5107Y5768D1*
X5028Y5849D1*
X4997Y5809D1*
X4902Y5729D1*
X4789Y5675D1*
X4686Y5654D1*
X4685Y4875D1*
X5634Y4874D1*
X5604Y4965D1*
X5597Y5090D1*
X5627Y5211D1*
X5690Y5318D1*
X5782Y5402D1*
X5894Y5456D1*
X6017Y5475D1*
X6141Y5458D1*
X6254Y5405D1*
X6346Y5322D1*
X6411Y5216D1*
X6443Y5095D1*
X6445Y5050D1*
X6427Y4927D1*
X6402Y4874D1*
X13634Y4865D1*
X13635Y6570D1*
X13696Y6675D1*
X13759Y6695D1*
X15545Y6705D1*
X15541Y7771D1*
X15388Y7807D1*
X15279Y7868D1*
X15188Y7953D1*
X15120Y8058D1*
X15080Y8176D1*
X15069Y8300D1*
X15089Y8423D1*
X15138Y8538D1*
X15214Y8637D1*
X15259Y8673D1*
X15188Y8740D1*
X15120Y8845D1*
X15080Y8963D1*
X15069Y9087D1*
X15089Y9210D1*
X15138Y9325D1*
X15214Y9424D1*
X15259Y9461D1*
X15188Y9528D1*
X15120Y9632D1*
X15080Y9750D1*
X15069Y9875D1*
X15089Y9998D1*
X15138Y10112D1*
X15214Y10212D1*
X15259Y10248D1*
X15188Y10315D1*
X15120Y10420D1*
X15080Y10538D1*
X15069Y10662D1*
X15089Y10785D1*
X15125Y10868D1*
X14877Y11460D1*
X14327Y12793D1*
X12785Y12792D1*
X12086Y12791D1*
X12067Y12627D1*
X12014Y12514D1*
X11930Y12422D1*
X11823Y12358D1*
X11703Y12327D1*
X11578Y12333D1*
X11461Y12375D1*
X11360Y12449D1*
X11286Y12548D1*
X11244Y12665D1*
X11237Y12786D1*
X10410Y12788D1*
X8755Y12783D1*
X8703Y12758D1*
X8583Y12727D1*
X8458Y12733D1*
X8338Y12777D1*
X8075Y12775D1*
X8080Y12329D1*
X8162Y12423D1*
X8263Y12497D1*
X8377Y12546D1*
X8500Y12569D1*
X8624Y12564D1*
X8745Y12531D1*
X8855Y12473D1*
X8950Y12392D1*
X9024Y12292D1*
X9040Y12262D1*
X9094Y12350D1*
X9181Y12440D1*
X9285Y12509D1*
X9401Y12553D1*
X9525Y12570D1*
X9649Y12560D1*
X9768Y12522D1*
X9876Y12459D1*
X9967Y12373D1*
X10041Y12259D1*
X10094Y12350D1*
X10181Y12440D1*
X10285Y12509D1*
X10401Y12553D1*
X10525Y12570D1*
X10649Y12560D1*
X10768Y12522D1*
X10876Y12459D1*
X10967Y12373D1*
X11036Y12270D1*
X11082Y12154D1*
X11100Y12010D1*
X11086Y11886D1*
X11045Y11768D1*
X10979Y11662D1*
X10892Y11574D1*
X10790Y11509D1*
X10876Y11459D1*
X10967Y11373D1*
X11036Y11270D1*
X11082Y11154D1*
X11100Y11010D1*
X11086Y10886D1*
X11045Y10768D1*
X10979Y10662D1*
X10892Y10574D1*
X10786Y10507D1*
X10669Y10465D1*
X10545Y10450D1*
X10421Y10463D1*
X10303Y10502D1*
X10196Y10567D1*
X10107Y10654D1*
X10041Y10756D1*
X9979Y10662D1*
X9892Y10574D1*
X9786Y10507D1*
X9669Y10465D1*
X9545Y10450D1*
X9421Y10463D1*
X9303Y10502D1*
X9196Y10567D1*
X9107Y10654D1*
X9041Y10756D1*
X8791Y11508D2*
X8876Y11459D1*
X8967Y11373D1*
X9041Y11259D1*
X9094Y11350D1*
X9181Y11440D1*
X9288Y11510D1*
X9196Y11567D1*
X9107Y11654D1*
X9041Y11756D1*
X8963Y11643D1*
X8872Y11559D1*
X8793Y11510D1*
X9791Y11508D2*
X9876Y11459D1*
X9967Y11373D1*
X10041Y11259D1*
X10094Y11350D1*
X10181Y11440D1*
X10288Y11510D1*
X10196Y11567D1*
X10107Y11654D1*
X10041Y11756D1*
X9979Y11662D1*
X9892Y11574D1*
X9790Y11509D1*
X10137Y6448D2*
X10053Y6398D1*
X9933Y6367D1*
X9808Y6373D1*
X9691Y6415D1*
X9650Y6445D1*
X9563Y6398D1*
X9443Y6367D1*
X9318Y6373D1*
X9201Y6415D1*
X9100Y6489D1*
X9026Y6588D1*
X8984Y6705D1*
X8977Y6830D1*
X9007Y6951D1*
X9070Y7058D1*
X9162Y7142D1*
X9274Y7196D1*
X9397Y7215D1*
X9521Y7198D1*
X9642Y7137D1*
X9764Y7196D1*
X9887Y7215D1*
X10011Y7198D1*
X10138Y7132D1*
X10264Y7196D1*
X10387Y7215D1*
X10511Y7198D1*
X10638Y7132D1*
X10754Y7186D1*
X10877Y7205D1*
X11001Y7188D1*
X11114Y7135D1*
X11206Y7052D1*
X11271Y6946D1*
X11303Y6825D1*
X11305Y6780D1*
X11287Y6657D1*
X11234Y6544D1*
X11150Y6452D1*
X11043Y6388D1*
X10923Y6357D1*
X10798Y6363D1*
X10681Y6405D1*
X10634Y6439D1*
X10553Y6398D1*
X10433Y6367D1*
X10308Y6373D1*
X10191Y6415D1*
X10144Y6449D1*
X11682Y7477D2*
X11629Y7364D1*
X11545Y7272D1*
X11438Y7208D1*
X11318Y7177D1*
X11193Y7183D1*
X11076Y7225D1*
X10975Y7299D1*
X10901Y7398D1*
X10859Y7515D1*
X10852Y7640D1*
X10882Y7761D1*
X10945Y7868D1*
X11037Y7952D1*
X11149Y8006D1*
X11272Y8025D1*
X11396Y8008D1*
X11509Y7955D1*
X11601Y7872D1*
X11666Y7766D1*
X11698Y7645D1*
X11700Y7600D1*
X11682Y7477D1*
X11542Y8691D2*
X11537Y8657D1*
X11484Y8544D1*
X11400Y8452D1*
X11293Y8388D1*
X11173Y8357D1*
X11048Y8363D1*
X10931Y8405D1*
X10830Y8479D1*
X10756Y8578D1*
X10714Y8695D1*
X10707Y8820D1*
X10743Y8951D1*
X10684Y9095D1*
X10677Y9220D1*
X10707Y9341D1*
X10770Y9448D1*
X10862Y9532D1*
X10974Y9586D1*
X11097Y9605D1*
X11221Y9588D1*
X11334Y9535D1*
X11437Y9436D1*
X11554Y9496D1*
X11677Y9515D1*
X11801Y9498D1*
X11914Y9445D1*
X12006Y9362D1*
X12071Y9256D1*
X12103Y9135D1*
X12105Y9090D1*
X12087Y8967D1*
X12034Y8854D1*
X11950Y8762D1*
X11843Y8698D1*
X11723Y8667D1*
X11598Y8673D1*
X11543Y8692D1*
X9495Y8114D2*
X9451Y8173D1*
X9409Y8290D1*
X9402Y8415D1*
X9432Y8536D1*
X9495Y8643D1*
X9587Y8727D1*
X9699Y8781D1*
X9822Y8800D1*
X9946Y8783D1*
X10034Y8742D1*
X10124Y8781D1*
X10247Y8800D1*
X10371Y8783D1*
X10484Y8730D1*
X10576Y8647D1*
X10641Y8541D1*
X10673Y8420D1*
X10675Y8375D1*
X10657Y8252D1*
X10601Y8136D1*
X10641Y8066D1*
X10673Y7945D1*
X10675Y7900D1*
X10657Y7777D1*
X10604Y7664D1*
X10520Y7572D1*
X10413Y7508D1*
X10293Y7477D1*
X10168Y7483D1*
X10076Y7515D1*
X10013Y7483D1*
X9893Y7452D1*
X9768Y7458D1*
X9651Y7500D1*
X9550Y7574D1*
X9476Y7673D1*
X9434Y7790D1*
X9427Y7915D1*
X9457Y8036D1*
X9498Y8106D1*
X13607Y10467D2*
X13554Y10354D1*
X13470Y10262D1*
X13363Y10198D1*
X13243Y10167D1*
X13118Y10173D1*
X13001Y10215D1*
X12900Y10289D1*
X12826Y10388D1*
X12784Y10505D1*
X12777Y10630D1*
X12807Y10751D1*
X12870Y10858D1*
X12962Y10942D1*
X13074Y10996D1*
X13197Y11015D1*
X13321Y10998D1*
X13434Y10945D1*
X13526Y10862D1*
X13591Y10756D1*
X13623Y10635D1*
X13625Y10590D1*
X13607Y10467D1*
X13257Y6137D2*
X13204Y6024D1*
X13120Y5932D1*
X13013Y5868D1*
X12893Y5837D1*
X12768Y5843D1*
X12651Y5885D1*
X12550Y5959D1*
X12476Y6058D1*
X12434Y6175D1*
X12427Y6300D1*
X12457Y6421D1*
X12520Y6528D1*
X12612Y6612D1*
X12724Y6666D1*
X12847Y6685D1*
X12971Y6668D1*
X13084Y6615D1*
X13176Y6532D1*
X13241Y6426D1*
X13273Y6305D1*
X13275Y6260D1*
X13257Y6137D1*
X12107Y11597D2*
X12054Y11484D1*
X11970Y11392D1*
X11863Y11328D1*
X11743Y11297D1*
X11618Y11303D1*
X11501Y11345D1*
X11400Y11419D1*
X11326Y11518D1*
X11284Y11635D1*
X11277Y11760D1*
X11307Y11881D1*
X11370Y11988D1*
X11462Y12072D1*
X11574Y12126D1*
X11697Y12145D1*
X11821Y12128D1*
X11934Y12075D1*
X12026Y11992D1*
X12091Y11886D1*
X12123Y11765D1*
X12125Y11720D1*
X12107Y11597D1*
X7107Y7077D2*
X7054Y6964D1*
X6970Y6872D1*
X6863Y6808D1*
X6743Y6777D1*
X6618Y6783D1*
X6501Y6825D1*
X6400Y6899D1*
X6326Y6998D1*
X6284Y7115D1*
X6277Y7240D1*
X6307Y7361D1*
X6370Y7468D1*
X6462Y7552D1*
X6574Y7606D1*
X6697Y7625D1*
X6821Y7608D1*
X6934Y7555D1*
X7026Y7472D1*
X7091Y7366D1*
X7123Y7245D1*
X7125Y7200D1*
X7107Y7077D1*
X7167Y7937D2*
X7114Y7824D1*
X7030Y7732D1*
X6923Y7668D1*
X6803Y7637D1*
X6678Y7643D1*
X6561Y7685D1*
X6460Y7759D1*
X6386Y7858D1*
X6344Y7975D1*
X6337Y8100D1*
X6367Y8221D1*
X6430Y8328D1*
X6522Y8412D1*
X6634Y8466D1*
X6757Y8485D1*
X6881Y8468D1*
X6994Y8415D1*
X7086Y8332D1*
X7151Y8226D1*
X7183Y8105D1*
X7185Y8060D1*
X7167Y7937D1*
X8144Y12406D2*
D23*
X8936Y11614D1*
Y12406D2*
X8540Y12010D1*
X8000Y23226D2*
D22*
X8577D1*
X9475D2*
X11679D1*
X12373D2*
X14042D1*
X14396D2*
X15647D1*
X16490D2*
X21276D1*
X8000Y22978D2*
X8675D1*
X9377D2*
X10327D1*
X11123D2*
X11358D1*
X14643D2*
X15909D1*
X16232D2*
X21276D1*
X8000Y22729D2*
X10276D1*
X11174D2*
X11278D1*
X14658D2*
X21276D1*
X8000Y22480D2*
X10393D1*
X11057D2*
X11354D1*
X14486D2*
X16800D1*
X17299D2*
X21276D1*
X8000Y22232D2*
X9768D1*
X10029D2*
X10183D1*
X10439D2*
X16069D1*
X17486D2*
X21276D1*
X8000Y21983D2*
X9483D1*
X10729D2*
X16030D1*
X17479D2*
X21276D1*
X8000Y21734D2*
X9460D1*
X10752D2*
X16159D1*
X18514D2*
X21276D1*
X8000Y21485D2*
X8956D1*
X9404D2*
X9612D1*
X10596D2*
X16479D1*
X18709D2*
X21276D1*
X8000Y21237D2*
X8749D1*
X9611D2*
X16507D1*
X18682D2*
X21276D1*
X8000Y20988D2*
X8749D1*
X9611D2*
X21276D1*
X8000Y20739D2*
X8948D1*
X9412D2*
X11593D1*
X12225D2*
X13725D1*
X14416D2*
X21276D1*
X8000Y20491D2*
X11464D1*
X12357D2*
X13620D1*
X14518D2*
X21276D1*
X8000Y20242D2*
X11503D1*
X12314D2*
X13679D1*
X14459D2*
X19331D1*
X19791D2*
X21276D1*
X8000Y19993D2*
X19128D1*
X19990D2*
X21276D1*
X8000Y19745D2*
X12686D1*
X13232D2*
X19128D1*
X19990D2*
X21276D1*
X8000Y19496D2*
X9104D1*
X9846D2*
X12522D1*
X13400D2*
X18745D1*
X19787D2*
X21276D1*
X8000Y19247D2*
X8909D1*
X9924D2*
X12538D1*
X13381D2*
X17905D1*
X18443D2*
X18608D1*
X19494D2*
X19593D1*
X9842Y18999D2*
X12796D1*
X13123D2*
X17737D1*
X9896Y18750D2*
X17753D1*
X8795Y18501D2*
X9007D1*
X9912D2*
X11518D1*
X12221D2*
X13702D1*
X14439D2*
X18003D1*
X20467D2*
X20682D1*
X8000Y18253D2*
X9136D1*
X9783D2*
X11421D1*
X12318D2*
X13620D1*
X14521D2*
X18175D1*
X19178D2*
X21276D1*
X8000Y18004D2*
X9014D1*
X9908D2*
X11487D1*
X12256D2*
X13698D1*
X14439D2*
X17925D1*
X19279D2*
X21276D1*
X8193Y17755D2*
X8487D1*
X9861D2*
X17761D1*
X19217D2*
X21276D1*
X9932Y17506D2*
X17780D1*
X18971D2*
X21276D1*
X9947Y17258D2*
X18038D1*
X18990D2*
X21276D1*
X9998Y17009D2*
X18272D1*
X18830D2*
X21276D1*
X8186Y16760D2*
X8495D1*
X9186D2*
X9316D1*
X9885D2*
X10425D1*
X11236D2*
X16952D1*
X17130D2*
X17468D1*
X17893D2*
X21276D1*
X9385Y16512D2*
X10386D1*
X11275D2*
X16628D1*
X18107D2*
X21276D1*
X9424Y16263D2*
X10511D1*
X11150D2*
X16596D1*
X18115D2*
X21276D1*
X9346Y16014D2*
X16741D1*
X18236D2*
X21276D1*
X8178Y15766D2*
X8503D1*
X9178D2*
X9991D1*
X10658D2*
X10795D1*
X11979D2*
X12073D1*
X12627D2*
X13323D1*
X13877D2*
X14304D1*
X14818D2*
X17038D1*
X18393D2*
X21276D1*
X9381Y15517D2*
X9878D1*
X12791D2*
X13159D1*
X14998D2*
X17534D1*
X18369D2*
X21276D1*
X9424Y15268D2*
X9929D1*
X12771D2*
X12971D1*
X14986D2*
X17370D1*
X18080D2*
X21276D1*
X9928Y15020D2*
X10925D1*
X11854D2*
X12198D1*
X12502D2*
X12854D1*
X15256D2*
X17202D1*
X18076D2*
X21276D1*
X8049Y14771D2*
X8632D1*
X9049D2*
X9128D1*
X10025D2*
X12901D1*
X15295D2*
X17218D1*
X18064D2*
X21276D1*
X8339Y17048D2*
X8279Y16952D1*
X8192Y16864D1*
X8090Y16799D1*
X8176Y16749D1*
X8267Y16663D1*
X8341Y16549D1*
X8394Y16640D1*
X8481Y16730D1*
X8588Y16800D1*
X8496Y16857D1*
X8407Y16944D1*
X8340Y17047D1*
X7975Y17841D2*
X8068Y17812D1*
X8176Y17749D1*
X8267Y17663D1*
X8341Y17549D1*
X8380Y17619D1*
X8462Y17713D1*
X8563Y17787D1*
X8677Y17836D1*
X8800Y17859D1*
X8924Y17854D1*
X9045Y17821D1*
X9057Y17816D1*
X9044Y17865D1*
X9037Y17990D1*
X9067Y18111D1*
X9130Y18218D1*
X9196Y18278D1*
X9101Y18398D1*
X9068Y18490D1*
X8981Y18525D1*
X8880Y18599D1*
X8832Y18664D1*
X8817Y18607D1*
X8764Y18494D1*
X8680Y18402D1*
X8573Y18338D1*
X8453Y18307D1*
X8328Y18313D1*
X8211Y18355D1*
X8110Y18429D1*
X8036Y18528D1*
X7994Y18645D1*
X7987Y18770D1*
X8017Y18891D1*
X8080Y18998D1*
X8172Y19082D1*
X8284Y19136D1*
X8407Y19155D1*
X8531Y19138D1*
X8644Y19085D1*
X8736Y19002D1*
X8759Y18966D1*
X8787Y19061D1*
X8850Y19168D1*
X8942Y19252D1*
X9051Y19304D1*
X9082Y19411D1*
X9145Y19518D1*
X9237Y19602D1*
X9349Y19656D1*
X9472Y19675D1*
X9596Y19658D1*
X9709Y19605D1*
X9801Y19522D1*
X9866Y19416D1*
X9898Y19295D1*
X9900Y19250D1*
X9882Y19127D1*
X9829Y19014D1*
X9748Y18925D1*
X9801Y18872D1*
X9866Y18766D1*
X9898Y18645D1*
X9900Y18600D1*
X9882Y18477D1*
X9829Y18364D1*
X9742Y18270D1*
X9786Y18222D1*
X9851Y18116D1*
X9883Y17995D1*
X9885Y17950D1*
X9867Y17827D1*
X9814Y17714D1*
X9774Y17671D1*
X9866Y17577D1*
X9920Y17465D1*
X9935Y17360D1*
X9912Y17234D1*
X9960Y17135D1*
X9975Y17030D1*
X9954Y16907D1*
X9895Y16798D1*
X9803Y16714D1*
X9688Y16666D1*
X9564Y16657D1*
X9444Y16689D1*
X9341Y16759D1*
X9266Y16859D1*
X9249Y16914D1*
X9151Y16834D1*
X9093Y16800D1*
X9176Y16749D1*
X9267Y16663D1*
X9336Y16560D1*
X9382Y16444D1*
X9400Y16300D1*
X9386Y16176D1*
X9345Y16058D1*
X9279Y15952D1*
X9192Y15864D1*
X9090Y15799D1*
X9176Y15749D1*
X9267Y15663D1*
X9336Y15560D1*
X9382Y15444D1*
X9400Y15300D1*
X9386Y15176D1*
X9367Y15121D1*
X9449Y15156D1*
X9572Y15175D1*
X9696Y15158D1*
X9809Y15105D1*
X9901Y15022D1*
X9966Y14916D1*
X9998Y14795D1*
X9989Y14677D1*
X12995Y14675D1*
X12926Y14768D1*
X12884Y14885D1*
X12877Y15010D1*
X12907Y15131D1*
X12970Y15238D1*
X13062Y15322D1*
X13178Y15377D1*
X13177Y15465D1*
X13207Y15586D1*
X13270Y15693D1*
X13362Y15777D1*
X13474Y15831D1*
X13597Y15850D1*
X13721Y15833D1*
X13834Y15780D1*
X13926Y15697D1*
X13973Y15621D1*
X14134Y15555D1*
X14154Y15537D1*
X14230Y15678D1*
X14322Y15762D1*
X14434Y15816D1*
X14557Y15835D1*
X14681Y15818D1*
X14794Y15765D1*
X14886Y15682D1*
X14951Y15576D1*
X14983Y15455D1*
X14985Y15410D1*
X14967Y15287D1*
X14945Y15241D1*
X14971Y15238D1*
X15084Y15185D1*
X15176Y15102D1*
X15241Y14996D1*
X15273Y14875D1*
X15275Y14830D1*
X15257Y14707D1*
X15242Y14675D1*
X17291D1*
X17266Y14718D1*
X17224Y14835D1*
X17217Y14960D1*
X17247Y15081D1*
X17310Y15188D1*
X17402Y15272D1*
X17514Y15326D1*
X17637Y15345D1*
X17703Y15336D1*
X17650Y15379D1*
X17576Y15478D1*
X17534Y15595D1*
X17528Y15693D1*
X17393Y15657D1*
X17268Y15663D1*
X17151Y15705D1*
X17050Y15779D1*
X16976Y15878D1*
X16959Y15926D1*
X16841Y15965D1*
X16740Y16039D1*
X16666Y16138D1*
X16624Y16255D1*
X16617Y16380D1*
X16647Y16501D1*
X16710Y16608D1*
X16802Y16692D1*
X16914Y16746D1*
X17037Y16765D1*
X17161Y16748D1*
X17274Y16695D1*
X17340Y16635D1*
X17442Y16732D1*
X17554Y16786D1*
X17677Y16805D1*
X17801Y16788D1*
X17914Y16735D1*
X18006Y16652D1*
X18071Y16546D1*
X18103Y16425D1*
X18105Y16380D1*
X18087Y16257D1*
X18034Y16144D1*
X17994Y16101D1*
X18071Y16088D1*
X18184Y16035D1*
X18276Y15952D1*
X18341Y15846D1*
X18373Y15725D1*
X18375Y15680D1*
X18357Y15557D1*
X18304Y15444D1*
X18220Y15352D1*
X18113Y15288D1*
X17993Y15257D1*
X17895Y15262D1*
X17966Y15192D1*
X18031Y15086D1*
X18063Y14965D1*
X18065Y14920D1*
X18047Y14797D1*
X17986Y14676D1*
X21300Y14675D1*
Y18413D1*
X21204Y18380D1*
X21080Y18365D1*
X20956Y18378D1*
X20838Y18418D1*
X20731Y18483D1*
X20642Y18570D1*
X20576Y18671D1*
X20514Y18578D1*
X20427Y18489D1*
X20321Y18422D1*
X20204Y18380D1*
X20080Y18365D1*
X19956Y18378D1*
X19838Y18418D1*
X19731Y18483D1*
X19640Y18573D1*
X19594Y18474D1*
X19510Y18382D1*
X19403Y18318D1*
X19283Y18287D1*
X19158Y18293D1*
X19074Y18323D1*
X19156Y18247D1*
X19221Y18141D1*
X19253Y18020D1*
X19255Y17975D1*
X19237Y17852D1*
X19184Y17739D1*
X19100Y17647D1*
X18993Y17583D1*
X18914Y17563D1*
X18941Y17516D1*
X18973Y17395D1*
X18975Y17350D1*
X18957Y17227D1*
X18904Y17114D1*
X18820Y17022D1*
X18713Y16958D1*
X18593Y16927D1*
X18468Y16933D1*
X18351Y16975D1*
X18250Y17049D1*
X18176Y17148D1*
X18143Y17240D1*
X18001Y17285D1*
X17900Y17359D1*
X17826Y17459D1*
X17784Y17576D1*
X17777Y17700D1*
X17807Y17821D1*
X17870Y17928D1*
X17962Y18012D1*
X18074Y18066D1*
X18197Y18085D1*
X18321Y18068D1*
X18409Y18027D1*
X18446Y18152D1*
X18393Y18158D1*
X18276Y18200D1*
X18175Y18274D1*
X18101Y18373D1*
X18058Y18494D1*
X17976Y18525D1*
X17875Y18599D1*
X17801Y18698D1*
X17759Y18815D1*
X17752Y18940D1*
X17782Y19061D1*
X17845Y19168D1*
X17937Y19252D1*
X18049Y19306D1*
X18172Y19325D1*
X18296Y19308D1*
X18409Y19255D1*
X18501Y19172D1*
X18566Y19066D1*
X18587Y18987D1*
X18698Y18935D1*
X18634Y19090D1*
X18627Y19215D1*
X18657Y19336D1*
X18720Y19443D1*
X18812Y19527D1*
X18924Y19581D1*
X19047Y19600D1*
X19171Y19583D1*
X19284Y19530D1*
X19376Y19447D1*
X19441Y19341D1*
X19473Y19220D1*
X19475Y19175D1*
X19460Y19071D1*
X19523Y19021D1*
X19565Y19158D1*
X19629Y19265D1*
X19716Y19355D1*
X19820Y19424D1*
X19936Y19468D1*
X20060Y19485D1*
X20184Y19475D1*
X20303Y19437D1*
X20411Y19374D1*
X20502Y19289D1*
X20576Y19174D1*
X20629Y19265D1*
X20716Y19355D1*
X20820Y19424D1*
X20936Y19468D1*
X21060Y19485D1*
X21184Y19475D1*
X21299Y19438D1*
X21300Y23475D1*
X16484D1*
X16495Y23380D1*
X16477Y23257D1*
X16424Y23144D1*
X16340Y23052D1*
X16233Y22988D1*
X16113Y22957D1*
X15988Y22963D1*
X15871Y23005D1*
X15770Y23079D1*
X15696Y23178D1*
X15654Y23295D1*
X15647Y23420D1*
X15661Y23476D1*
X9382Y23475D1*
X9416Y23416D1*
X9448Y23295D1*
X9450Y23250D1*
X9432Y23127D1*
X9379Y23014D1*
X9295Y22922D1*
X9188Y22858D1*
X9068Y22827D1*
X8943Y22833D1*
X8826Y22875D1*
X8725Y22949D1*
X8651Y23048D1*
X8609Y23165D1*
X8602Y23290D1*
X8632Y23411D1*
X8669Y23474D1*
X7975Y23475D1*
Y17846D1*
X8339Y16048D2*
X8279Y15952D1*
X8192Y15864D1*
X8090Y15799D1*
X8176Y15749D1*
X8267Y15663D1*
X8341Y15549D1*
X8394Y15640D1*
X8481Y15730D1*
X8588Y15800D1*
X8496Y15857D1*
X8407Y15944D1*
X8341Y16046D1*
X8339Y15048D2*
X8279Y14952D1*
X8192Y14864D1*
X8086Y14797D1*
X7973Y14756D1*
X7975Y14675D1*
X9159D1*
X9152Y14790D1*
X9166Y14846D1*
X9086Y14797D1*
X8969Y14755D1*
X8845Y14740D1*
X8721Y14753D1*
X8603Y14792D1*
X8496Y14857D1*
X8407Y14944D1*
X8341Y15046D1*
X12025Y15157D2*
X11970Y15097D1*
X11863Y15033D1*
X11769Y15009D1*
X11744Y14964D1*
X11660Y14872D1*
X11553Y14808D1*
X11433Y14777D1*
X11308Y14783D1*
X11191Y14825D1*
X11090Y14899D1*
X11015Y15002D1*
X10876Y15050D1*
X10775Y15124D1*
X10701Y15223D1*
X10689Y15256D1*
X10595Y15147D1*
X10488Y15083D1*
X10368Y15052D1*
X10243Y15058D1*
X10126Y15100D1*
X10025Y15174D1*
X9951Y15273D1*
X9909Y15390D1*
X9902Y15515D1*
X9932Y15636D1*
X9995Y15743D1*
X10087Y15827D1*
X10199Y15881D1*
X10322Y15900D1*
X10446Y15883D1*
X10559Y15830D1*
X10651Y15747D1*
X10714Y15644D1*
X10745Y15693D1*
X10837Y15777D1*
X10949Y15831D1*
X11072Y15850D1*
X11196Y15833D1*
X11309Y15780D1*
X11387Y15710D1*
X11462Y15777D1*
X11574Y15831D1*
X11697Y15850D1*
X11821Y15833D1*
X11934Y15780D1*
X12024Y15700D1*
X12112Y15777D1*
X12224Y15831D1*
X12347Y15850D1*
X12471Y15833D1*
X12584Y15780D1*
X12676Y15697D1*
X12741Y15591D1*
X12773Y15470D1*
X12775Y15425D1*
X12757Y15302D1*
X12704Y15189D1*
X12620Y15097D1*
X12513Y15033D1*
X12393Y15002D1*
X12268Y15008D1*
X12151Y15050D1*
X12050Y15124D1*
X12029Y15152D1*
X10717Y21697D2*
X10664Y21584D1*
X10580Y21492D1*
X10473Y21428D1*
X10353Y21397D1*
X10228Y21403D1*
X10108Y21447D1*
X9943Y21397D1*
X9818Y21403D1*
X9701Y21445D1*
X9600Y21519D1*
X9526Y21618D1*
X9484Y21735D1*
X9477Y21860D1*
X9507Y21981D1*
X9570Y22088D1*
X9662Y22172D1*
X9774Y22226D1*
X9897Y22245D1*
X10021Y22228D1*
X10102Y22190D1*
X10184Y22226D1*
X10307Y22245D1*
X10431Y22228D1*
X10544Y22175D1*
X10636Y22092D1*
X10701Y21986D1*
X10733Y21865D1*
X10735Y21820D1*
X10717Y21697D1*
X11132Y22652D2*
X11079Y22539D1*
X10995Y22447D1*
X10888Y22383D1*
X10768Y22352D1*
X10643Y22358D1*
X10526Y22400D1*
X10425Y22474D1*
X10351Y22573D1*
X10309Y22690D1*
X10302Y22815D1*
X10332Y22936D1*
X10395Y23043D1*
X10487Y23127D1*
X10599Y23181D1*
X10722Y23200D1*
X10846Y23183D1*
X10959Y23130D1*
X11051Y23047D1*
X11116Y22941D1*
X11148Y22820D1*
X11150Y22775D1*
X11132Y22652D1*
X12045Y22452D2*
X11995Y22397D1*
X11888Y22333D1*
X11768Y22302D1*
X11643Y22308D1*
X11526Y22350D1*
X11425Y22424D1*
X11351Y22523D1*
X11309Y22640D1*
X11302Y22765D1*
X11332Y22886D1*
X11395Y22993D1*
X11487Y23077D1*
X11599Y23131D1*
X11641Y23137D1*
X11695Y23218D1*
X11787Y23302D1*
X11899Y23356D1*
X12022Y23375D1*
X12146Y23358D1*
X12259Y23305D1*
X12351Y23222D1*
X12416Y23116D1*
X12437Y23037D1*
X12495Y23011D1*
X12531Y23028D1*
X12653Y23055D1*
X12776Y23040D1*
X12829Y23014D1*
X12963Y23045D1*
X13086Y23030D1*
X13132Y23007D1*
X13273Y23045D1*
X13396Y23030D1*
X13442Y23007D1*
X13593Y23045D1*
X13716Y23030D1*
X13769Y23004D1*
X13838Y23021D1*
X13890Y23098D1*
X13982Y23182D1*
X14094Y23236D1*
X14217Y23255D1*
X14341Y23238D1*
X14454Y23185D1*
X14546Y23102D1*
X14611Y22996D1*
X14643Y22875D1*
X14645Y22830D1*
X14627Y22707D1*
X14574Y22594D1*
X14490Y22502D1*
X14383Y22438D1*
X14263Y22407D1*
X14196Y22410D1*
X14123Y22344D1*
X14008Y22296D1*
X13884Y22287D1*
X13754Y22326D1*
X13698Y22306D1*
X13574Y22297D1*
X13451Y22331D1*
X13378Y22306D1*
X13254Y22297D1*
X13138Y22328D1*
X13068Y22306D1*
X12944Y22297D1*
X12814Y22336D1*
X12758Y22316D1*
X12634Y22307D1*
X12525Y22336D1*
X12438Y22306D1*
X12314Y22297D1*
X12194Y22329D1*
X12091Y22399D1*
X12051Y22452D1*
X19967Y19747D2*
X19914Y19634D1*
X19830Y19542D1*
X19723Y19478D1*
X19603Y19447D1*
X19478Y19453D1*
X19361Y19495D1*
X19260Y19569D1*
X19186Y19668D1*
X19144Y19785D1*
X19137Y19910D1*
X19167Y20031D1*
X19230Y20138D1*
X19322Y20222D1*
X19434Y20276D1*
X19557Y20295D1*
X19681Y20278D1*
X19794Y20225D1*
X19886Y20142D1*
X19951Y20036D1*
X19983Y19915D1*
X19985Y19870D1*
X19967Y19747D1*
X9587Y20987D2*
X9534Y20874D1*
X9450Y20782D1*
X9343Y20718D1*
X9223Y20687D1*
X9098Y20693D1*
X8981Y20735D1*
X8880Y20809D1*
X8806Y20908D1*
X8764Y21025D1*
X8757Y21150D1*
X8787Y21271D1*
X8850Y21378D1*
X8942Y21462D1*
X9054Y21516D1*
X9177Y21535D1*
X9301Y21518D1*
X9414Y21465D1*
X9506Y21382D1*
X9571Y21276D1*
X9603Y21155D1*
X9605Y21110D1*
X9587Y20987D1*
X13367Y19277D2*
X13314Y19164D1*
X13230Y19072D1*
X13123Y19008D1*
X13003Y18977D1*
X12878Y18983D1*
X12761Y19025D1*
X12660Y19099D1*
X12586Y19198D1*
X12544Y19315D1*
X12537Y19440D1*
X12567Y19561D1*
X12630Y19668D1*
X12722Y19752D1*
X12834Y19806D1*
X12957Y19825D1*
X13081Y19808D1*
X13194Y19755D1*
X13286Y19672D1*
X13351Y19566D1*
X13383Y19445D1*
X13385Y19400D1*
X13367Y19277D1*
X12317Y20307D2*
X12264Y20194D1*
X12180Y20102D1*
X12073Y20038D1*
X11953Y20007D1*
X11828Y20013D1*
X11711Y20055D1*
X11610Y20129D1*
X11536Y20228D1*
X11494Y20345D1*
X11487Y20470D1*
X11517Y20591D1*
X11580Y20698D1*
X11672Y20782D1*
X11784Y20836D1*
X11907Y20855D1*
X12031Y20838D1*
X12144Y20785D1*
X12236Y20702D1*
X12301Y20596D1*
X12333Y20475D1*
X12335Y20430D1*
X12317Y20307D1*
X14477Y20337D2*
X14424Y20224D1*
X14340Y20132D1*
X14233Y20068D1*
X14113Y20037D1*
X13988Y20043D1*
X13871Y20085D1*
X13770Y20159D1*
X13696Y20258D1*
X13654Y20375D1*
X13647Y20500D1*
X13677Y20621D1*
X13740Y20728D1*
X13832Y20812D1*
X13944Y20866D1*
X14067Y20885D1*
X14191Y20868D1*
X14304Y20815D1*
X14396Y20732D1*
X14461Y20626D1*
X14493Y20505D1*
X14495Y20460D1*
X14477Y20337D1*
Y18127D2*
X14424Y18014D1*
X14340Y17922D1*
X14233Y17858D1*
X14113Y17827D1*
X13988Y17833D1*
X13871Y17875D1*
X13770Y17949D1*
X13696Y18048D1*
X13654Y18165D1*
X13647Y18290D1*
X13677Y18411D1*
X13740Y18518D1*
X13832Y18602D1*
X13944Y18656D1*
X14067Y18675D1*
X14191Y18658D1*
X14304Y18605D1*
X14396Y18522D1*
X14461Y18416D1*
X14493Y18295D1*
X14495Y18250D1*
X14477Y18127D1*
X12277Y18107D2*
X12224Y17994D1*
X12140Y17902D1*
X12033Y17838D1*
X11913Y17807D1*
X11788Y17813D1*
X11671Y17855D1*
X11570Y17929D1*
X11496Y18028D1*
X11454Y18145D1*
X11447Y18270D1*
X11477Y18391D1*
X11540Y18498D1*
X11632Y18582D1*
X11744Y18636D1*
X11867Y18655D1*
X11991Y18638D1*
X12104Y18585D1*
X12196Y18502D1*
X12261Y18396D1*
X12293Y18275D1*
X12295Y18230D1*
X12277Y18107D1*
X17012Y21058D2*
X16958Y21036D1*
X16834Y21027D1*
X16714Y21059D1*
X16611Y21129D1*
X16536Y21229D1*
X16499Y21347D1*
X16502Y21471D1*
X16546Y21588D1*
X16583Y21633D1*
X16518Y21622D1*
X16393Y21628D1*
X16276Y21670D1*
X16175Y21744D1*
X16101Y21843D1*
X16059Y21960D1*
X16052Y22085D1*
X16082Y22206D1*
X16145Y22313D1*
X16237Y22397D1*
X16349Y22451D1*
X16472Y22470D1*
X16596Y22453D1*
X16723Y22387D1*
X16812Y22472D1*
X16924Y22526D1*
X17047Y22545D1*
X17171Y22528D1*
X17284Y22475D1*
X17376Y22392D1*
X17441Y22286D1*
X17473Y22165D1*
X17475Y22120D1*
X17457Y21997D1*
X17404Y21884D1*
X17320Y21792D1*
X17276Y21760D1*
X17308Y21744D1*
X17443Y21775D1*
X17566Y21760D1*
X17601Y21748D1*
X17723Y21775D1*
X17846Y21760D1*
X17881Y21748D1*
X18003Y21775D1*
X18126Y21760D1*
X18165Y21741D1*
X18303Y21775D1*
X18426Y21760D1*
X18538Y21705D1*
X18626Y21617D1*
X18680Y21505D1*
X18695Y21400D1*
X18674Y21277D1*
X18615Y21168D1*
X18523Y21084D1*
X18408Y21036D1*
X18284Y21027D1*
X18168Y21058D1*
X18108Y21036D1*
X17984Y21027D1*
X17883Y21054D1*
X17828Y21036D1*
X17704Y21027D1*
X17603Y21054D1*
X17548Y21036D1*
X17424Y21027D1*
X17315Y21056D1*
X17258Y21036D1*
X17134Y21027D1*
X17018Y21058D1*
X11237Y16447D2*
X11184Y16334D1*
X11100Y16242D1*
X10993Y16178D1*
X10873Y16147D1*
X10748Y16153D1*
X10631Y16195D1*
X10530Y16269D1*
X10456Y16368D1*
X10414Y16485D1*
X10407Y16610D1*
X10437Y16731D1*
X10500Y16838D1*
X10592Y16922D1*
X10704Y16976D1*
X10827Y16995D1*
X10951Y16978D1*
X11064Y16925D1*
X11156Y16842D1*
X11221Y16736D1*
X11253Y16615D1*
X11255Y16570D1*
X11237Y16447D1*
X8444Y17696D2*
D23*
X9236Y16904D1*
X8840Y17300D2*
X8444Y16904D1*
X590Y29764D2*
D32*
Y30236D1*
X3169Y30984D2*
D34*
X2342D1*
X4527Y28976D2*
D32*
X3858D1*
X4527Y31024D2*
X3858D1*
X3169Y29016D2*
D34*
X2342D1*
D37*
X1378Y26929D3*
Y33071D3*
X5138Y26929D2*
D34*
X4311D1*
X5138Y33071D2*
X4311D1*
D39*
X2953Y27638D3*
D41*
X4285Y19508D3*
Y20492D3*
X3498D3*
Y19508D3*
D43*
X2431Y22370D3*
Y17630D3*
D45*
X33720Y31550D3*
Y32550D3*
Y33550D3*
Y34550D3*
Y23490D3*
Y24490D3*
Y25490D3*
Y26490D3*
X33707Y15509D3*
Y16509D3*
Y17509D3*
Y18509D3*
X33710Y7530D3*
Y8530D3*
Y9530D3*
Y10530D3*
D48*
X6240Y38080D3*
X7800D3*
X12850D3*
X14410D3*
D45*
X16010Y37950D3*
X17010D3*
X33290Y2450D3*
X32290D3*
X31290D3*
X25200Y2480D3*
X24200D3*
X23200D3*
X21830Y2450D3*
X20830D3*
X19830D3*
X18370D3*
X17370D3*
X16370D3*
X15090Y2440D3*
X14090D3*
X12860Y2430D3*
X11860D3*
D51*
X8550Y2750D3*
X7550D3*
X6550D3*
D45*
X20650Y37970D3*
X21650D3*
X18320D3*
X19320D3*
X32490Y37990D3*
X33490D3*
X30230Y37980D3*
X31230D3*
X23560Y37990D3*
X24560D3*
D64*
X23900Y27090D3*
Y26303D3*
Y25515D3*
Y24728D3*
Y23940D3*
Y32290D3*
Y31503D3*
Y30715D3*
Y29928D3*
Y29140D3*
X1520Y15870D3*
Y15081D3*
Y14292D3*
X6775Y19230D3*
Y20017D3*
Y20805D3*
Y21592D3*
Y22380D3*
D45*
X7840Y17300D3*
X8840D3*
X7840Y16300D3*
X8840D3*
X7840Y15300D3*
X8840D3*
X20075Y18925D3*
X21075D3*
X8540Y11010D3*
Y12010D3*
X9540Y11010D3*
Y12010D3*
X10540Y11010D3*
Y12010D3*
X5460Y23020D3*
X4460D3*
D64*
X15580Y11430D3*
Y10643D3*
Y9855D3*
Y9068D3*
Y8280D3*
D77*
X4630Y6150D3*
X5420Y6160D3*
D45*
X33723Y30545D3*
Y35555D3*
Y22485D3*
Y27495D3*
X33710Y14505D3*
Y19515D3*
X33713Y6525D3*
Y11535D3*
M02*
