%FSLAX24Y24*%
%MOIN*%
G70*
G01*
G75*
G04 Layer_Color=2752767*
%ADD10C,0.0300*%
%ADD11R,0.0650X0.2100*%
G04:AMPARAMS|DCode=12|XSize=51.2mil|YSize=59.1mil|CornerRadius=0mil|HoleSize=0mil|Usage=FLASHONLY|Rotation=192.850|XOffset=0mil|YOffset=0mil|HoleType=Round|Shape=Rectangle|*
%AMROTATEDRECTD12*
4,1,4,0.0184,0.0345,0.0315,-0.0231,-0.0184,-0.0345,-0.0315,0.0231,0.0184,0.0345,0.0*
%
%ADD12ROTATEDRECTD12*%

G04:AMPARAMS|DCode=13|XSize=51.2mil|YSize=59.1mil|CornerRadius=0mil|HoleSize=0mil|Usage=FLASHONLY|Rotation=321.250|XOffset=0mil|YOffset=0mil|HoleType=Round|Shape=Rectangle|*
%AMROTATEDRECTD13*
4,1,4,-0.0384,-0.0070,-0.0015,0.0390,0.0384,0.0070,0.0015,-0.0390,-0.0384,-0.0070,0.0*
%
%ADD13ROTATEDRECTD13*%

G04:AMPARAMS|DCode=14|XSize=51.2mil|YSize=59.1mil|CornerRadius=0mil|HoleSize=0mil|Usage=FLASHONLY|Rotation=346.950|XOffset=0mil|YOffset=0mil|HoleType=Round|Shape=Rectangle|*
%AMROTATEDRECTD14*
4,1,4,-0.0316,-0.0230,-0.0183,0.0345,0.0316,0.0230,0.0183,-0.0345,-0.0316,-0.0230,0.0*
%
%ADD14ROTATEDRECTD14*%

G04:AMPARAMS|DCode=15|XSize=51.2mil|YSize=59.1mil|CornerRadius=0mil|HoleSize=0mil|Usage=FLASHONLY|Rotation=64.250|XOffset=0mil|YOffset=0mil|HoleType=Round|Shape=Rectangle|*
%AMROTATEDRECTD15*
4,1,4,0.0155,-0.0359,-0.0377,-0.0102,-0.0155,0.0359,0.0377,0.0102,0.0155,-0.0359,0.0*
%
%ADD15ROTATEDRECTD15*%

%ADD16R,0.0591X0.0512*%
G04:AMPARAMS|DCode=17|XSize=63mil|YSize=70.9mil|CornerRadius=0mil|HoleSize=0mil|Usage=FLASHONLY|Rotation=141.250|XOffset=0mil|YOffset=0mil|HoleType=Round|Shape=Rectangle|*
%AMROTATEDRECTD17*
4,1,4,0.0467,0.0079,0.0024,-0.0473,-0.0467,-0.0079,-0.0024,0.0473,0.0467,0.0079,0.0*
%
%ADD17ROTATEDRECTD17*%

G04:AMPARAMS|DCode=18|XSize=63mil|YSize=70.9mil|CornerRadius=0mil|HoleSize=0mil|Usage=FLASHONLY|Rotation=166.950|XOffset=0mil|YOffset=0mil|HoleType=Round|Shape=Rectangle|*
%AMROTATEDRECTD18*
4,1,4,0.0387,0.0274,0.0227,-0.0416,-0.0387,-0.0274,-0.0227,0.0416,0.0387,0.0274,0.0*
%
%ADD18ROTATEDRECTD18*%

G04:AMPARAMS|DCode=19|XSize=63mil|YSize=70.9mil|CornerRadius=0mil|HoleSize=0mil|Usage=FLASHONLY|Rotation=192.850|XOffset=0mil|YOffset=0mil|HoleType=Round|Shape=Rectangle|*
%AMROTATEDRECTD19*
4,1,4,0.0228,0.0416,0.0386,-0.0275,-0.0228,-0.0416,-0.0386,0.0275,0.0228,0.0416,0.0*
%
%ADD19ROTATEDRECTD19*%

G04:AMPARAMS|DCode=20|XSize=63mil|YSize=70.9mil|CornerRadius=0mil|HoleSize=0mil|Usage=FLASHONLY|Rotation=218.550|XOffset=0mil|YOffset=0mil|HoleType=Round|Shape=Rectangle|*
%AMROTATEDRECTD20*
4,1,4,0.0026,0.0473,0.0467,-0.0081,-0.0026,-0.0473,-0.0467,0.0081,0.0026,0.0473,0.0*
%
%ADD20ROTATEDRECTD20*%

G04:AMPARAMS|DCode=21|XSize=63mil|YSize=70.9mil|CornerRadius=0mil|HoleSize=0mil|Usage=FLASHONLY|Rotation=244.100|XOffset=0mil|YOffset=0mil|HoleType=Round|Shape=Rectangle|*
%AMROTATEDRECTD21*
4,1,4,-0.0181,0.0438,0.0456,0.0129,0.0181,-0.0438,-0.0456,-0.0129,-0.0181,0.0438,0.0*
%
%ADD21ROTATEDRECTD21*%

G04:AMPARAMS|DCode=22|XSize=63mil|YSize=70.9mil|CornerRadius=0mil|HoleSize=0mil|Usage=FLASHONLY|Rotation=269.850|XOffset=0mil|YOffset=0mil|HoleType=Round|Shape=Rectangle|*
%AMROTATEDRECTD22*
4,1,4,-0.0354,0.0316,0.0355,0.0314,0.0354,-0.0316,-0.0355,-0.0314,-0.0354,0.0316,0.0*
%
%ADD22ROTATEDRECTD22*%

G04:AMPARAMS|DCode=23|XSize=63mil|YSize=70.9mil|CornerRadius=0mil|HoleSize=0mil|Usage=FLASHONLY|Rotation=295.550|XOffset=0mil|YOffset=0mil|HoleType=Round|Shape=Rectangle|*
%AMROTATEDRECTD23*
4,1,4,-0.0456,0.0131,0.0184,0.0437,0.0456,-0.0131,-0.0184,-0.0437,-0.0456,0.0131,0.0*
%
%ADD23ROTATEDRECTD23*%

%ADD24R,0.1260X0.0394*%
%ADD25R,0.1260X0.0394*%
G04:AMPARAMS|DCode=26|XSize=51.2mil|YSize=59.1mil|CornerRadius=0mil|HoleSize=0mil|Usage=FLASHONLY|Rotation=38.550|XOffset=0mil|YOffset=0mil|HoleType=Round|Shape=Rectangle|*
%AMROTATEDRECTD26*
4,1,4,-0.0016,-0.0390,-0.0384,0.0071,0.0016,0.0390,0.0384,-0.0071,-0.0016,-0.0390,0.0*
%
%ADD26ROTATEDRECTD26*%

G04:AMPARAMS|DCode=27|XSize=51.2mil|YSize=59.1mil|CornerRadius=0mil|HoleSize=0mil|Usage=FLASHONLY|Rotation=295.550|XOffset=0mil|YOffset=0mil|HoleType=Round|Shape=Rectangle|*
%AMROTATEDRECTD27*
4,1,4,-0.0377,0.0104,0.0156,0.0358,0.0377,-0.0104,-0.0156,-0.0358,-0.0377,0.0104,0.0*
%
%ADD27ROTATEDRECTD27*%

G04:AMPARAMS|DCode=28|XSize=51.2mil|YSize=59.1mil|CornerRadius=0mil|HoleSize=0mil|Usage=FLASHONLY|Rotation=115.150|XOffset=0mil|YOffset=0mil|HoleType=Round|Shape=Rectangle|*
%AMROTATEDRECTD28*
4,1,4,0.0376,-0.0106,-0.0159,-0.0357,-0.0376,0.0106,0.0159,0.0357,0.0376,-0.0106,0.0*
%
%ADD28ROTATEDRECTD28*%

G04:AMPARAMS|DCode=29|XSize=63mil|YSize=70.9mil|CornerRadius=0mil|HoleSize=0mil|Usage=FLASHONLY|Rotation=115.150|XOffset=0mil|YOffset=0mil|HoleType=Round|Shape=Rectangle|*
%AMROTATEDRECTD29*
4,1,4,0.0455,-0.0135,-0.0187,-0.0436,-0.0455,0.0135,0.0187,0.0436,0.0455,-0.0135,0.0*
%
%ADD29ROTATEDRECTD29*%

%ADD30C,0.0200*%
%ADD31C,0.0049*%
%ADD32C,0.0100*%
%ADD33C,0.1400*%
%ADD34C,0.0079*%
%ADD35C,0.0098*%
%ADD36C,0.0010*%
%ADD37C,0.0080*%
%ADD38C,0.0039*%
%ADD39C,0.0120*%
%ADD40R,0.3900X0.0630*%
%ADD41R,0.0730X0.2180*%
G04:AMPARAMS|DCode=42|XSize=59.2mil|YSize=67.1mil|CornerRadius=0mil|HoleSize=0mil|Usage=FLASHONLY|Rotation=192.850|XOffset=0mil|YOffset=0mil|HoleType=Round|Shape=Rectangle|*
%AMROTATEDRECTD42*
4,1,4,0.0214,0.0393,0.0363,-0.0261,-0.0214,-0.0393,-0.0363,0.0261,0.0214,0.0393,0.0*
%
%ADD42ROTATEDRECTD42*%

G04:AMPARAMS|DCode=43|XSize=59.2mil|YSize=67.1mil|CornerRadius=0mil|HoleSize=0mil|Usage=FLASHONLY|Rotation=321.250|XOffset=0mil|YOffset=0mil|HoleType=Round|Shape=Rectangle|*
%AMROTATEDRECTD43*
4,1,4,-0.0441,-0.0076,-0.0021,0.0447,0.0441,0.0076,0.0021,-0.0447,-0.0441,-0.0076,0.0*
%
%ADD43ROTATEDRECTD43*%

G04:AMPARAMS|DCode=44|XSize=59.2mil|YSize=67.1mil|CornerRadius=0mil|HoleSize=0mil|Usage=FLASHONLY|Rotation=346.950|XOffset=0mil|YOffset=0mil|HoleType=Round|Shape=Rectangle|*
%AMROTATEDRECTD44*
4,1,4,-0.0364,-0.0260,-0.0213,0.0393,0.0364,0.0260,0.0213,-0.0393,-0.0364,-0.0260,0.0*
%
%ADD44ROTATEDRECTD44*%

G04:AMPARAMS|DCode=45|XSize=59.2mil|YSize=67.1mil|CornerRadius=0mil|HoleSize=0mil|Usage=FLASHONLY|Rotation=64.250|XOffset=0mil|YOffset=0mil|HoleType=Round|Shape=Rectangle|*
%AMROTATEDRECTD45*
4,1,4,0.0173,-0.0412,-0.0431,-0.0121,-0.0173,0.0412,0.0431,0.0121,0.0173,-0.0412,0.0*
%
%ADD45ROTATEDRECTD45*%

%ADD46R,0.0671X0.0592*%
G04:AMPARAMS|DCode=47|XSize=71mil|YSize=78.9mil|CornerRadius=0mil|HoleSize=0mil|Usage=FLASHONLY|Rotation=141.250|XOffset=0mil|YOffset=0mil|HoleType=Round|Shape=Rectangle|*
%AMROTATEDRECTD47*
4,1,4,0.0524,0.0085,0.0030,-0.0530,-0.0524,-0.0085,-0.0030,0.0530,0.0524,0.0085,0.0*
%
%ADD47ROTATEDRECTD47*%

G04:AMPARAMS|DCode=48|XSize=71mil|YSize=78.9mil|CornerRadius=0mil|HoleSize=0mil|Usage=FLASHONLY|Rotation=166.950|XOffset=0mil|YOffset=0mil|HoleType=Round|Shape=Rectangle|*
%AMROTATEDRECTD48*
4,1,4,0.0435,0.0304,0.0257,-0.0464,-0.0435,-0.0304,-0.0257,0.0464,0.0435,0.0304,0.0*
%
%ADD48ROTATEDRECTD48*%

G04:AMPARAMS|DCode=49|XSize=71mil|YSize=78.9mil|CornerRadius=0mil|HoleSize=0mil|Usage=FLASHONLY|Rotation=192.850|XOffset=0mil|YOffset=0mil|HoleType=Round|Shape=Rectangle|*
%AMROTATEDRECTD49*
4,1,4,0.0258,0.0463,0.0434,-0.0306,-0.0258,-0.0463,-0.0434,0.0306,0.0258,0.0463,0.0*
%
%ADD49ROTATEDRECTD49*%

G04:AMPARAMS|DCode=50|XSize=71mil|YSize=78.9mil|CornerRadius=0mil|HoleSize=0mil|Usage=FLASHONLY|Rotation=218.550|XOffset=0mil|YOffset=0mil|HoleType=Round|Shape=Rectangle|*
%AMROTATEDRECTD50*
4,1,4,0.0032,0.0530,0.0523,-0.0087,-0.0032,-0.0530,-0.0523,0.0087,0.0032,0.0530,0.0*
%
%ADD50ROTATEDRECTD50*%

G04:AMPARAMS|DCode=51|XSize=71mil|YSize=78.9mil|CornerRadius=0mil|HoleSize=0mil|Usage=FLASHONLY|Rotation=244.100|XOffset=0mil|YOffset=0mil|HoleType=Round|Shape=Rectangle|*
%AMROTATEDRECTD51*
4,1,4,-0.0200,0.0492,0.0510,0.0147,0.0200,-0.0492,-0.0510,-0.0147,-0.0200,0.0492,0.0*
%
%ADD51ROTATEDRECTD51*%

G04:AMPARAMS|DCode=52|XSize=71mil|YSize=78.9mil|CornerRadius=0mil|HoleSize=0mil|Usage=FLASHONLY|Rotation=269.850|XOffset=0mil|YOffset=0mil|HoleType=Round|Shape=Rectangle|*
%AMROTATEDRECTD52*
4,1,4,-0.0393,0.0356,0.0395,0.0354,0.0393,-0.0356,-0.0395,-0.0354,-0.0393,0.0356,0.0*
%
%ADD52ROTATEDRECTD52*%

G04:AMPARAMS|DCode=53|XSize=71mil|YSize=78.9mil|CornerRadius=0mil|HoleSize=0mil|Usage=FLASHONLY|Rotation=295.550|XOffset=0mil|YOffset=0mil|HoleType=Round|Shape=Rectangle|*
%AMROTATEDRECTD53*
4,1,4,-0.0509,0.0150,0.0203,0.0490,0.0509,-0.0150,-0.0203,-0.0490,-0.0509,0.0150,0.0*
%
%ADD53ROTATEDRECTD53*%

%ADD54R,0.1340X0.0474*%
%ADD55R,0.1340X0.0474*%
G04:AMPARAMS|DCode=56|XSize=59.2mil|YSize=67.1mil|CornerRadius=0mil|HoleSize=0mil|Usage=FLASHONLY|Rotation=38.550|XOffset=0mil|YOffset=0mil|HoleType=Round|Shape=Rectangle|*
%AMROTATEDRECTD56*
4,1,4,-0.0022,-0.0447,-0.0440,0.0078,0.0022,0.0447,0.0440,-0.0078,-0.0022,-0.0447,0.0*
%
%ADD56ROTATEDRECTD56*%

G04:AMPARAMS|DCode=57|XSize=59.2mil|YSize=67.1mil|CornerRadius=0mil|HoleSize=0mil|Usage=FLASHONLY|Rotation=295.550|XOffset=0mil|YOffset=0mil|HoleType=Round|Shape=Rectangle|*
%AMROTATEDRECTD57*
4,1,4,-0.0430,0.0122,0.0175,0.0412,0.0430,-0.0122,-0.0175,-0.0412,-0.0430,0.0122,0.0*
%
%ADD57ROTATEDRECTD57*%

G04:AMPARAMS|DCode=58|XSize=59.2mil|YSize=67.1mil|CornerRadius=0mil|HoleSize=0mil|Usage=FLASHONLY|Rotation=115.150|XOffset=0mil|YOffset=0mil|HoleType=Round|Shape=Rectangle|*
%AMROTATEDRECTD58*
4,1,4,0.0429,-0.0125,-0.0178,-0.0410,-0.0429,0.0125,0.0178,0.0410,0.0429,-0.0125,0.0*
%
%ADD58ROTATEDRECTD58*%

G04:AMPARAMS|DCode=59|XSize=71mil|YSize=78.9mil|CornerRadius=0mil|HoleSize=0mil|Usage=FLASHONLY|Rotation=115.150|XOffset=0mil|YOffset=0mil|HoleType=Round|Shape=Rectangle|*
%AMROTATEDRECTD59*
4,1,4,0.0508,-0.0154,-0.0206,-0.0489,-0.0508,0.0154,0.0206,0.0489,0.0508,-0.0154,0.0*
%
%ADD59ROTATEDRECTD59*%

%ADD60C,0.1480*%
%ADD61C,0.0050*%
%ADD62C,0.0160*%
D31*
X-3351Y46852D02*
X-3042D01*
X-3211Y46627D01*
X-3127D01*
X-3070Y46599D01*
X-3042Y46571D01*
X-3014Y46486D01*
Y46430D01*
X-3042Y46346D01*
X-3098Y46290D01*
X-3183Y46262D01*
X-3267D01*
X-3351Y46290D01*
X-3380Y46318D01*
X-3408Y46374D01*
X-2854Y46318D02*
X-2882Y46290D01*
X-2854Y46262D01*
X-2826Y46290D01*
X-2854Y46318D01*
X-2036Y46852D02*
Y46262D01*
X-2232Y46852D02*
X-1839D01*
X-1769D02*
Y46262D01*
Y46852D02*
X-1516D01*
X-1431Y46824D01*
X-1403Y46796D01*
X-1375Y46739D01*
Y46683D01*
X-1403Y46627D01*
X-1431Y46599D01*
X-1516Y46571D01*
X-1769D01*
X-1572D02*
X-1375Y46262D01*
X-793D02*
X-1018Y46852D01*
X-1243Y46262D01*
X-1158Y46458D02*
X-877D01*
X-233Y46711D02*
X-262Y46768D01*
X-318Y46824D01*
X-374Y46852D01*
X-487D01*
X-543Y46824D01*
X-599Y46768D01*
X-627Y46711D01*
X-655Y46627D01*
Y46486D01*
X-627Y46402D01*
X-599Y46346D01*
X-543Y46290D01*
X-487Y46262D01*
X-374D01*
X-318Y46290D01*
X-262Y46346D01*
X-233Y46402D01*
X298Y46852D02*
X-68D01*
Y46262D01*
X298D01*
X-68Y46571D02*
X157D01*
X860Y46177D02*
X1254Y46852D01*
X2151Y46768D02*
X2094Y46824D01*
X2010Y46852D01*
X1898D01*
X1813Y46824D01*
X1757Y46768D01*
Y46711D01*
X1785Y46655D01*
X1813Y46627D01*
X1870Y46599D01*
X2038Y46543D01*
X2094Y46515D01*
X2123Y46486D01*
X2151Y46430D01*
Y46346D01*
X2094Y46290D01*
X2010Y46262D01*
X1898D01*
X1813Y46290D01*
X1757Y46346D01*
X2283Y46543D02*
X2536D01*
X2620Y46571D01*
X2648Y46599D01*
X2676Y46655D01*
Y46739D01*
X2648Y46796D01*
X2620Y46824D01*
X2536Y46852D01*
X2283D01*
Y46262D01*
X3258D02*
X3034Y46852D01*
X2809Y46262D01*
X2893Y46458D02*
X3174D01*
X3818Y46711D02*
X3790Y46768D01*
X3734Y46824D01*
X3677Y46852D01*
X3565D01*
X3509Y46824D01*
X3452Y46768D01*
X3424Y46711D01*
X3396Y46627D01*
Y46486D01*
X3424Y46402D01*
X3452Y46346D01*
X3509Y46290D01*
X3565Y46262D01*
X3677D01*
X3734Y46290D01*
X3790Y46346D01*
X3818Y46402D01*
X4349Y46852D02*
X3984D01*
Y46262D01*
X4349D01*
X3984Y46571D02*
X4209D01*
X4912Y46852D02*
Y46262D01*
Y46852D02*
X5137Y46262D01*
X5361Y46852D02*
X5137Y46262D01*
X5361Y46852D02*
Y46262D01*
X5530Y46852D02*
Y46262D01*
X5654Y46852D02*
Y46262D01*
Y46852D02*
X6048Y46262D01*
Y46852D02*
Y46262D01*
X6211Y46852D02*
Y46262D01*
X6334Y46852D02*
Y46262D01*
Y46852D02*
X6559Y46262D01*
X6784Y46852D02*
X6559Y46262D01*
X6784Y46852D02*
Y46262D01*
X6953Y46852D02*
Y46430D01*
X6981Y46346D01*
X7037Y46290D01*
X7122Y46262D01*
X7178D01*
X7262Y46290D01*
X7318Y46346D01*
X7346Y46430D01*
Y46852D01*
X7510D02*
Y46262D01*
Y46852D02*
X7734Y46262D01*
X7959Y46852D02*
X7734Y46262D01*
X7959Y46852D02*
Y46262D01*
X8156Y46655D02*
X8128Y46627D01*
X8156Y46599D01*
X8184Y46627D01*
X8156Y46655D01*
Y46318D02*
X8128Y46290D01*
X8156Y46262D01*
X8184Y46290D01*
X8156Y46318D01*
X8946Y46852D02*
X8862Y46824D01*
X8806Y46739D01*
X8778Y46599D01*
Y46515D01*
X8806Y46374D01*
X8862Y46290D01*
X8946Y46262D01*
X9002D01*
X9087Y46290D01*
X9143Y46374D01*
X9171Y46515D01*
Y46599D01*
X9143Y46739D01*
X9087Y46824D01*
X9002Y46852D01*
X8946D01*
X9331Y46318D02*
X9303Y46290D01*
X9331Y46262D01*
X9360Y46290D01*
X9331Y46318D01*
X9658Y46852D02*
X9573Y46824D01*
X9517Y46739D01*
X9489Y46599D01*
Y46515D01*
X9517Y46374D01*
X9573Y46290D01*
X9658Y46262D01*
X9714D01*
X9798Y46290D01*
X9854Y46374D01*
X9882Y46515D01*
Y46599D01*
X9854Y46739D01*
X9798Y46824D01*
X9714Y46852D01*
X9658D01*
X10043Y46711D02*
Y46739D01*
X10071Y46796D01*
X10099Y46824D01*
X10155Y46852D01*
X10268D01*
X10324Y46824D01*
X10352Y46796D01*
X10380Y46739D01*
Y46683D01*
X10352Y46627D01*
X10296Y46543D01*
X10015Y46262D01*
X10408D01*
X10709Y46852D02*
X10625Y46824D01*
X10568Y46739D01*
X10540Y46599D01*
Y46515D01*
X10568Y46374D01*
X10625Y46290D01*
X10709Y46262D01*
X10765D01*
X10850Y46290D01*
X10906Y46374D01*
X10934Y46515D01*
Y46599D01*
X10906Y46739D01*
X10850Y46824D01*
X10765Y46852D01*
X10709D01*
X11094D02*
X11066Y46824D01*
Y46655D01*
X11094Y46824D02*
X11066Y46655D01*
X11094Y46852D02*
X11122Y46824D01*
X11066Y46655D01*
X11347Y46852D02*
X11319Y46824D01*
Y46655D01*
X11347Y46824D02*
X11319Y46655D01*
X11347Y46852D02*
X11375Y46824D01*
X11319Y46655D01*
X11963Y46177D02*
X12357Y46852D01*
X13029D02*
X12944Y46824D01*
X12888Y46739D01*
X12860Y46599D01*
Y46515D01*
X12888Y46374D01*
X12944Y46290D01*
X13029Y46262D01*
X13085D01*
X13169Y46290D01*
X13225Y46374D01*
X13254Y46515D01*
Y46599D01*
X13225Y46739D01*
X13169Y46824D01*
X13085Y46852D01*
X13029D01*
X13414Y46318D02*
X13386Y46290D01*
X13414Y46262D01*
X13442Y46290D01*
X13414Y46318D01*
X13740Y46852D02*
X13656Y46824D01*
X13599Y46739D01*
X13571Y46599D01*
Y46515D01*
X13599Y46374D01*
X13656Y46290D01*
X13740Y46262D01*
X13796D01*
X13880Y46290D01*
X13937Y46374D01*
X13965Y46515D01*
Y46599D01*
X13937Y46739D01*
X13880Y46824D01*
X13796Y46852D01*
X13740D01*
X14125Y46711D02*
Y46739D01*
X14153Y46796D01*
X14181Y46824D01*
X14238Y46852D01*
X14350D01*
X14406Y46824D01*
X14434Y46796D01*
X14462Y46739D01*
Y46683D01*
X14434Y46627D01*
X14378Y46543D01*
X14097Y46262D01*
X14491D01*
X14791Y46852D02*
X14707Y46824D01*
X14651Y46739D01*
X14623Y46599D01*
Y46515D01*
X14651Y46374D01*
X14707Y46290D01*
X14791Y46262D01*
X14848D01*
X14932Y46290D01*
X14988Y46374D01*
X15016Y46515D01*
Y46599D01*
X14988Y46739D01*
X14932Y46824D01*
X14848Y46852D01*
X14791D01*
X15177D02*
X15148Y46824D01*
Y46655D01*
X15177Y46824D02*
X15148Y46655D01*
X15177Y46852D02*
X15205Y46824D01*
X15148Y46655D01*
X15430Y46852D02*
X15402Y46824D01*
Y46655D01*
X15430Y46824D02*
X15402Y46655D01*
X15430Y46852D02*
X15458Y46824D01*
X15402Y46655D01*
X16242Y46964D02*
X16186Y46908D01*
X16130Y46824D01*
X16073Y46711D01*
X16045Y46571D01*
Y46458D01*
X16073Y46318D01*
X16130Y46205D01*
X16186Y46121D01*
X16242Y46065D01*
X16186Y46908D02*
X16130Y46796D01*
X16102Y46711D01*
X16073Y46571D01*
Y46458D01*
X16102Y46318D01*
X16130Y46233D01*
X16186Y46121D01*
X16804Y46262D02*
X16580Y46852D01*
X16355Y46262D01*
X16439Y46458D02*
X16720D01*
X16942Y46852D02*
Y46262D01*
X17280D01*
X17344Y46852D02*
Y46262D01*
X17682D01*
X18210Y46852D02*
Y46262D01*
X18548D01*
X19062D02*
X18837Y46852D01*
X18612Y46262D01*
X18697Y46458D02*
X18978D01*
X19200Y46852D02*
X19425Y46571D01*
Y46262D01*
X19650Y46852D02*
X19425Y46571D01*
X20091Y46852D02*
X19726D01*
Y46262D01*
X20091D01*
X19726Y46571D02*
X19951D01*
X20190Y46852D02*
Y46262D01*
Y46852D02*
X20443D01*
X20527Y46824D01*
X20555Y46796D01*
X20583Y46739D01*
Y46683D01*
X20555Y46627D01*
X20527Y46599D01*
X20443Y46571D01*
X20190D01*
X20386D02*
X20583Y46262D01*
X21109Y46768D02*
X21053Y46824D01*
X20968Y46852D01*
X20856D01*
X20772Y46824D01*
X20715Y46768D01*
Y46711D01*
X20743Y46655D01*
X20772Y46627D01*
X20828Y46599D01*
X20996Y46543D01*
X21053Y46515D01*
X21081Y46486D01*
X21109Y46430D01*
Y46346D01*
X21053Y46290D01*
X20968Y46262D01*
X20856D01*
X20772Y46290D01*
X20715Y46346D01*
X21241Y46964D02*
X21297Y46908D01*
X21354Y46824D01*
X21410Y46711D01*
X21438Y46571D01*
Y46458D01*
X21410Y46318D01*
X21354Y46205D01*
X21297Y46121D01*
X21241Y46065D01*
X21297Y46908D02*
X21354Y46796D01*
X21382Y46711D01*
X21410Y46571D01*
Y46458D01*
X21382Y46318D01*
X21354Y46233D01*
X21297Y46121D01*
X-3247Y34462D02*
X-3331Y34434D01*
X-3360Y34378D01*
Y34321D01*
X-3331Y34265D01*
X-3275Y34237D01*
X-3163Y34209D01*
X-3078Y34181D01*
X-3022Y34125D01*
X-2994Y34068D01*
Y33984D01*
X-3022Y33928D01*
X-3050Y33900D01*
X-3135Y33871D01*
X-3247D01*
X-3331Y33900D01*
X-3360Y33928D01*
X-3388Y33984D01*
Y34068D01*
X-3360Y34125D01*
X-3303Y34181D01*
X-3219Y34209D01*
X-3107Y34237D01*
X-3050Y34265D01*
X-3022Y34321D01*
Y34378D01*
X-3050Y34434D01*
X-3135Y34462D01*
X-3247D01*
X-2834Y33928D02*
X-2862Y33900D01*
X-2834Y33871D01*
X-2806Y33900D01*
X-2834Y33928D01*
X-2212Y34462D02*
Y33871D01*
Y34462D02*
X-1959D01*
X-1875Y34434D01*
X-1847Y34406D01*
X-1819Y34349D01*
Y34293D01*
X-1847Y34237D01*
X-1875Y34209D01*
X-1959Y34181D01*
X-2212D01*
X-2016D02*
X-1819Y33871D01*
X-1546Y34265D02*
X-1602Y34237D01*
X-1659Y34181D01*
X-1687Y34096D01*
Y34040D01*
X-1659Y33956D01*
X-1602Y33900D01*
X-1546Y33871D01*
X-1462D01*
X-1406Y33900D01*
X-1349Y33956D01*
X-1321Y34040D01*
Y34096D01*
X-1349Y34181D01*
X-1406Y34237D01*
X-1462Y34265D01*
X-1546D01*
X-1192Y34462D02*
Y33871D01*
X-798Y34462D02*
Y33871D01*
X-1192Y34181D02*
X-798D01*
X-242Y34378D02*
X-298Y34434D01*
X-382Y34462D01*
X-495D01*
X-579Y34434D01*
X-635Y34378D01*
Y34321D01*
X-607Y34265D01*
X-579Y34237D01*
X-523Y34209D01*
X-354Y34153D01*
X-298Y34125D01*
X-270Y34096D01*
X-242Y34040D01*
Y33956D01*
X-298Y33900D01*
X-382Y33871D01*
X-495D01*
X-579Y33900D01*
X-635Y33956D01*
X-81Y34265D02*
X-109Y34237D01*
X-81Y34209D01*
X-53Y34237D01*
X-81Y34265D01*
Y33928D02*
X-109Y33900D01*
X-81Y33871D01*
X-53Y33900D01*
X-81Y33928D01*
X540Y34153D02*
X793D01*
X877Y34181D01*
X906Y34209D01*
X934Y34265D01*
Y34349D01*
X906Y34406D01*
X877Y34434D01*
X793Y34462D01*
X540D01*
Y33871D01*
X1516D02*
X1291Y34462D01*
X1066Y33871D01*
X1150Y34068D02*
X1431D01*
X1653Y34462D02*
Y33871D01*
Y34462D02*
X1906D01*
X1991Y34434D01*
X2019Y34406D01*
X2047Y34349D01*
Y34293D01*
X2019Y34237D01*
X1991Y34209D01*
X1906Y34181D01*
X1653D01*
X1850D02*
X2047Y33871D01*
X2376Y34462D02*
Y33871D01*
X2179Y34462D02*
X2573D01*
X3037Y34378D02*
X2980Y34434D01*
X2896Y34462D01*
X2784D01*
X2699Y34434D01*
X2643Y34378D01*
Y34321D01*
X2671Y34265D01*
X2699Y34237D01*
X2756Y34209D01*
X2924Y34153D01*
X2980Y34125D01*
X3009Y34096D01*
X3037Y34040D01*
Y33956D01*
X2980Y33900D01*
X2896Y33871D01*
X2784D01*
X2699Y33900D01*
X2643Y33956D01*
X4026Y34378D02*
X3970Y34434D01*
X3886Y34462D01*
X3773D01*
X3689Y34434D01*
X3633Y34378D01*
Y34321D01*
X3661Y34265D01*
X3689Y34237D01*
X3745Y34209D01*
X3914Y34153D01*
X3970Y34125D01*
X3998Y34096D01*
X4026Y34040D01*
Y33956D01*
X3970Y33900D01*
X3886Y33871D01*
X3773D01*
X3689Y33900D01*
X3633Y33956D01*
X4158Y34462D02*
Y33871D01*
X4552Y34462D02*
Y33871D01*
X4158Y34181D02*
X4552D01*
X5165Y33871D02*
X4940Y34462D01*
X4715Y33871D01*
X4800Y34068D02*
X5081D01*
X5303Y34462D02*
Y33871D01*
X5640D01*
X5705Y34462D02*
Y33871D01*
X6042D01*
X6571Y34462D02*
Y33871D01*
Y34462D02*
X6824D01*
X6908Y34434D01*
X6936Y34406D01*
X6964Y34349D01*
Y34293D01*
X6936Y34237D01*
X6908Y34209D01*
X6824Y34181D01*
X6571D02*
X6824D01*
X6908Y34153D01*
X6936Y34125D01*
X6964Y34068D01*
Y33984D01*
X6936Y33928D01*
X6908Y33900D01*
X6824Y33871D01*
X6571D01*
X7462Y34462D02*
X7097D01*
Y33871D01*
X7462D01*
X7097Y34181D02*
X7321D01*
X8024Y34462D02*
Y33871D01*
Y34462D02*
X8277D01*
X8362Y34434D01*
X8390Y34406D01*
X8418Y34349D01*
Y34293D01*
X8390Y34237D01*
X8362Y34209D01*
X8277Y34181D01*
X8024D01*
X8221D02*
X8418Y33871D01*
X8691Y34265D02*
X8634Y34237D01*
X8578Y34181D01*
X8550Y34096D01*
Y34040D01*
X8578Y33956D01*
X8634Y33900D01*
X8691Y33871D01*
X8775D01*
X8831Y33900D01*
X8887Y33956D01*
X8916Y34040D01*
Y34096D01*
X8887Y34181D01*
X8831Y34237D01*
X8775Y34265D01*
X8691D01*
X9045Y34462D02*
Y33871D01*
X9439Y34462D02*
Y33871D01*
X9045Y34181D02*
X9439D01*
X9995Y34378D02*
X9939Y34434D01*
X9855Y34462D01*
X9742D01*
X9658Y34434D01*
X9602Y34378D01*
Y34321D01*
X9630Y34265D01*
X9658Y34237D01*
X9714Y34209D01*
X9883Y34153D01*
X9939Y34125D01*
X9967Y34096D01*
X9995Y34040D01*
Y33956D01*
X9939Y33900D01*
X9855Y33871D01*
X9742D01*
X9658Y33900D01*
X9602Y33956D01*
X11013Y34321D02*
X10985Y34378D01*
X10929Y34434D01*
X10872Y34462D01*
X10760D01*
X10704Y34434D01*
X10648Y34378D01*
X10619Y34321D01*
X10591Y34237D01*
Y34096D01*
X10619Y34012D01*
X10648Y33956D01*
X10704Y33900D01*
X10760Y33871D01*
X10872D01*
X10929Y33900D01*
X10985Y33956D01*
X11013Y34012D01*
X11348Y34462D02*
X11291Y34434D01*
X11235Y34378D01*
X11207Y34321D01*
X11179Y34237D01*
Y34096D01*
X11207Y34012D01*
X11235Y33956D01*
X11291Y33900D01*
X11348Y33871D01*
X11460D01*
X11516Y33900D01*
X11573Y33956D01*
X11601Y34012D01*
X11629Y34096D01*
Y34237D01*
X11601Y34321D01*
X11573Y34378D01*
X11516Y34434D01*
X11460Y34462D01*
X11348D01*
X11767D02*
Y33871D01*
Y34462D02*
X11991Y33871D01*
X12216Y34462D02*
X11991Y33871D01*
X12216Y34462D02*
Y33871D01*
X12385Y34153D02*
X12638D01*
X12722Y34181D01*
X12751Y34209D01*
X12779Y34265D01*
Y34349D01*
X12751Y34406D01*
X12722Y34434D01*
X12638Y34462D01*
X12385D01*
Y33871D01*
X12911Y34462D02*
Y33871D01*
X13248D01*
X13313Y34462D02*
Y33871D01*
X13886D02*
X13661Y34462D01*
X13437Y33871D01*
X13521Y34068D02*
X13802D01*
X14024Y34462D02*
Y33871D01*
Y34462D02*
X14418Y33871D01*
Y34462D02*
Y33871D01*
X14778Y34462D02*
Y33871D01*
X14581Y34462D02*
X14974D01*
X15509Y34153D02*
X15762D01*
X15846Y34181D01*
X15874Y34209D01*
X15902Y34265D01*
Y34349D01*
X15874Y34406D01*
X15846Y34434D01*
X15762Y34462D01*
X15509D01*
Y33871D01*
X16400Y34462D02*
X16034D01*
Y33871D01*
X16400D01*
X16034Y34181D02*
X16259D01*
X16498Y34462D02*
Y33871D01*
Y34462D02*
X16751D01*
X16836Y34434D01*
X16864Y34406D01*
X16892Y34349D01*
Y34293D01*
X16864Y34237D01*
X16836Y34209D01*
X16751Y34181D01*
X16498D01*
X16695D02*
X16892Y33871D01*
X17854Y34462D02*
X17488D01*
Y33871D01*
X17854D01*
X17488Y34181D02*
X17713D01*
X17952Y34462D02*
Y34040D01*
X17980Y33956D01*
X18036Y33900D01*
X18121Y33871D01*
X18177D01*
X18261Y33900D01*
X18317Y33956D01*
X18346Y34040D01*
Y34462D01*
X18509D02*
Y33871D01*
Y34462D02*
X18762D01*
X18846Y34434D01*
X18874Y34406D01*
X18902Y34349D01*
Y34293D01*
X18874Y34237D01*
X18846Y34209D01*
X18762Y34181D01*
X18509D01*
X18705D02*
X18902Y33871D01*
X19203Y34462D02*
X19147Y34434D01*
X19091Y34378D01*
X19062Y34321D01*
X19034Y34237D01*
Y34096D01*
X19062Y34012D01*
X19091Y33956D01*
X19147Y33900D01*
X19203Y33871D01*
X19316D01*
X19372Y33900D01*
X19428Y33956D01*
X19456Y34012D01*
X19484Y34096D01*
Y34237D01*
X19456Y34321D01*
X19428Y34378D01*
X19372Y34434D01*
X19316Y34462D01*
X19203D01*
X19622Y34153D02*
X19875D01*
X19959Y34181D01*
X19987Y34209D01*
X20016Y34265D01*
Y34349D01*
X19987Y34406D01*
X19959Y34434D01*
X19875Y34462D01*
X19622D01*
Y33871D01*
X20513Y34462D02*
X20148D01*
Y33871D01*
X20513D01*
X20148Y34181D02*
X20373D01*
X21061Y33871D02*
X20837Y34462D01*
X20612Y33871D01*
X20696Y34068D02*
X20977D01*
X21199Y34462D02*
Y33871D01*
Y34462D02*
X21593Y33871D01*
Y34462D02*
Y33871D01*
X22220Y34462D02*
Y34040D01*
X22248Y33956D01*
X22304Y33900D01*
X22389Y33871D01*
X22445D01*
X22529Y33900D01*
X22585Y33956D01*
X22613Y34040D01*
Y34462D01*
X22777D02*
Y33871D01*
Y34462D02*
X23170Y33871D01*
Y34462D02*
Y33871D01*
X23333Y34462D02*
Y33871D01*
X23626Y34462D02*
X23569Y34434D01*
X23513Y34378D01*
X23485Y34321D01*
X23457Y34237D01*
Y34096D01*
X23485Y34012D01*
X23513Y33956D01*
X23569Y33900D01*
X23626Y33871D01*
X23738D01*
X23794Y33900D01*
X23851Y33956D01*
X23879Y34012D01*
X23907Y34096D01*
Y34237D01*
X23879Y34321D01*
X23851Y34378D01*
X23794Y34434D01*
X23738Y34462D01*
X23626D01*
X24045D02*
Y33871D01*
Y34462D02*
X24438Y33871D01*
Y34462D02*
Y33871D01*
X25065Y34462D02*
Y33871D01*
Y34462D02*
X25262D01*
X25346Y34434D01*
X25403Y34378D01*
X25431Y34321D01*
X25459Y34237D01*
Y34096D01*
X25431Y34012D01*
X25403Y33956D01*
X25346Y33900D01*
X25262Y33871D01*
X25065D01*
X25591Y34462D02*
Y33871D01*
X25715Y34462D02*
Y33871D01*
Y34462D02*
X25968D01*
X26052Y34434D01*
X26080Y34406D01*
X26108Y34349D01*
Y34293D01*
X26080Y34237D01*
X26052Y34209D01*
X25968Y34181D01*
X25715D01*
X25911D02*
X26108Y33871D01*
X26606Y34462D02*
X26240D01*
Y33871D01*
X26606D01*
X26240Y34181D02*
X26465D01*
X27126Y34321D02*
X27098Y34378D01*
X27042Y34434D01*
X26985Y34462D01*
X26873D01*
X26817Y34434D01*
X26760Y34378D01*
X26732Y34321D01*
X26704Y34237D01*
Y34096D01*
X26732Y34012D01*
X26760Y33956D01*
X26817Y33900D01*
X26873Y33871D01*
X26985D01*
X27042Y33900D01*
X27098Y33956D01*
X27126Y34012D01*
X27489Y34462D02*
Y33871D01*
X27292Y34462D02*
X27685D01*
X27756D02*
Y33871D01*
X27879Y34462D02*
X28104Y33871D01*
X28329Y34462D02*
X28104Y33871D01*
X28771Y34462D02*
X28405D01*
Y33871D01*
X28771D01*
X28405Y34181D02*
X28630D01*
X29361Y34321D02*
Y34349D01*
X29389Y34406D01*
X29417Y34434D01*
X29474Y34462D01*
X29586D01*
X29642Y34434D01*
X29670Y34406D01*
X29699Y34349D01*
Y34293D01*
X29670Y34237D01*
X29614Y34153D01*
X29333Y33871D01*
X29727D01*
X30027Y34462D02*
X29943Y34434D01*
X29887Y34349D01*
X29859Y34209D01*
Y34125D01*
X29887Y33984D01*
X29943Y33900D01*
X30027Y33871D01*
X30084D01*
X30168Y33900D01*
X30224Y33984D01*
X30252Y34125D01*
Y34209D01*
X30224Y34349D01*
X30168Y34434D01*
X30084Y34462D01*
X30027D01*
X30553D02*
X30469Y34434D01*
X30413Y34349D01*
X30385Y34209D01*
Y34125D01*
X30413Y33984D01*
X30469Y33900D01*
X30553Y33871D01*
X30609D01*
X30694Y33900D01*
X30750Y33984D01*
X30778Y34125D01*
Y34209D01*
X30750Y34349D01*
X30694Y34434D01*
X30609Y34462D01*
X30553D01*
X30938Y34321D02*
Y34349D01*
X30967Y34406D01*
X30995Y34434D01*
X31051Y34462D01*
X31163D01*
X31220Y34434D01*
X31248Y34406D01*
X31276Y34349D01*
Y34293D01*
X31248Y34237D01*
X31191Y34153D01*
X30910Y33871D01*
X31304D01*
X31436Y33787D02*
X31830Y34462D01*
X32235Y34265D02*
X32206Y34181D01*
X32150Y34125D01*
X32066Y34096D01*
X32038D01*
X31953Y34125D01*
X31897Y34181D01*
X31869Y34265D01*
Y34293D01*
X31897Y34378D01*
X31953Y34434D01*
X32038Y34462D01*
X32066D01*
X32150Y34434D01*
X32206Y34378D01*
X32235Y34265D01*
Y34125D01*
X32206Y33984D01*
X32150Y33900D01*
X32066Y33871D01*
X32010D01*
X31925Y33900D01*
X31897Y33956D01*
X32732Y34462D02*
X32451D01*
X32423Y34209D01*
X32451Y34237D01*
X32535Y34265D01*
X32620D01*
X32704Y34237D01*
X32760Y34181D01*
X32788Y34096D01*
Y34040D01*
X32760Y33956D01*
X32704Y33900D01*
X32620Y33871D01*
X32535D01*
X32451Y33900D01*
X32423Y33928D01*
X32395Y33984D01*
X32921Y33787D02*
X33314Y34462D01*
X33719D02*
X33354D01*
Y33871D01*
X33719D01*
X33354Y34181D02*
X33578D01*
X34239Y34321D02*
X34211Y34378D01*
X34155Y34434D01*
X34099Y34462D01*
X33986D01*
X33930Y34434D01*
X33874Y34378D01*
X33846Y34321D01*
X33817Y34237D01*
Y34096D01*
X33846Y34012D01*
X33874Y33956D01*
X33930Y33900D01*
X33986Y33871D01*
X34099D01*
X34155Y33900D01*
X34211Y33956D01*
X34239Y34012D01*
X34433Y33928D02*
X34405Y33900D01*
X34433Y33871D01*
X34461Y33900D01*
X34433Y33928D01*
X-3022Y32265D02*
X-3050Y32181D01*
X-3107Y32125D01*
X-3191Y32096D01*
X-3219D01*
X-3303Y32125D01*
X-3360Y32181D01*
X-3388Y32265D01*
Y32293D01*
X-3360Y32378D01*
X-3303Y32434D01*
X-3219Y32462D01*
X-3191D01*
X-3107Y32434D01*
X-3050Y32378D01*
X-3022Y32265D01*
Y32125D01*
X-3050Y31984D01*
X-3107Y31900D01*
X-3191Y31871D01*
X-3247D01*
X-3331Y31900D01*
X-3360Y31956D01*
X-2834Y31928D02*
X-2862Y31900D01*
X-2834Y31871D01*
X-2806Y31900D01*
X-2834Y31928D01*
X-2016Y32462D02*
Y31871D01*
X-2212Y32462D02*
X-1819D01*
X-1749D02*
Y31871D01*
X-1355Y32462D02*
Y31871D01*
X-1749Y32181D02*
X-1355D01*
X-826Y32462D02*
X-1192D01*
Y31871D01*
X-826D01*
X-1192Y32181D02*
X-967D01*
X-264Y32462D02*
Y31871D01*
Y32462D02*
X-11D01*
X73Y32434D01*
X101Y32406D01*
X130Y32349D01*
Y32293D01*
X101Y32237D01*
X73Y32209D01*
X-11Y32181D01*
X-264D02*
X-11D01*
X73Y32153D01*
X101Y32125D01*
X130Y32068D01*
Y31984D01*
X101Y31928D01*
X73Y31900D01*
X-11Y31871D01*
X-264D01*
X430Y32462D02*
X374Y32434D01*
X318Y32378D01*
X290Y32321D01*
X262Y32237D01*
Y32096D01*
X290Y32012D01*
X318Y31956D01*
X374Y31900D01*
X430Y31871D01*
X543D01*
X599Y31900D01*
X655Y31956D01*
X683Y32012D01*
X712Y32096D01*
Y32237D01*
X683Y32321D01*
X655Y32378D01*
X599Y32434D01*
X543Y32462D01*
X430D01*
X1299Y31871D02*
X1074Y32462D01*
X849Y31871D01*
X934Y32068D02*
X1215D01*
X1437Y32462D02*
Y31871D01*
Y32462D02*
X1690D01*
X1774Y32434D01*
X1802Y32406D01*
X1831Y32349D01*
Y32293D01*
X1802Y32237D01*
X1774Y32209D01*
X1690Y32181D01*
X1437D01*
X1634D02*
X1831Y31871D01*
X1963Y32462D02*
Y31871D01*
Y32462D02*
X2159D01*
X2244Y32434D01*
X2300Y32378D01*
X2328Y32321D01*
X2356Y32237D01*
Y32096D01*
X2328Y32012D01*
X2300Y31956D01*
X2244Y31900D01*
X2159Y31871D01*
X1963D01*
X2952Y32462D02*
Y31871D01*
Y32462D02*
X3177Y31871D01*
X3402Y32462D02*
X3177Y31871D01*
X3402Y32462D02*
Y31871D01*
X3571Y32462D02*
Y32040D01*
X3599Y31956D01*
X3655Y31900D01*
X3740Y31871D01*
X3796D01*
X3880Y31900D01*
X3936Y31956D01*
X3964Y32040D01*
Y32462D01*
X4521Y32378D02*
X4465Y32434D01*
X4381Y32462D01*
X4268D01*
X4184Y32434D01*
X4128Y32378D01*
Y32321D01*
X4156Y32265D01*
X4184Y32237D01*
X4240Y32209D01*
X4409Y32153D01*
X4465Y32125D01*
X4493Y32096D01*
X4521Y32040D01*
Y31956D01*
X4465Y31900D01*
X4381Y31871D01*
X4268D01*
X4184Y31900D01*
X4128Y31956D01*
X4850Y32462D02*
Y31871D01*
X4653Y32462D02*
X5047D01*
X5581D02*
Y31871D01*
Y32462D02*
X5834D01*
X5918Y32434D01*
X5947Y32406D01*
X5975Y32349D01*
Y32293D01*
X5947Y32237D01*
X5918Y32209D01*
X5834Y32181D01*
X5581D02*
X5834D01*
X5918Y32153D01*
X5947Y32125D01*
X5975Y32068D01*
Y31984D01*
X5947Y31928D01*
X5918Y31900D01*
X5834Y31871D01*
X5581D01*
X6472Y32462D02*
X6107D01*
Y31871D01*
X6472D01*
X6107Y32181D02*
X6332D01*
X7035Y32462D02*
Y31871D01*
X7372D01*
X7802Y32462D02*
X7437D01*
Y31871D01*
X7802D01*
X7437Y32181D02*
X7662D01*
X8350Y31871D02*
X8126Y32462D01*
X7901Y31871D01*
X7985Y32068D02*
X8266D01*
X8488Y32462D02*
Y31871D01*
Y32462D02*
X8685D01*
X8769Y32434D01*
X8826Y32378D01*
X8854Y32321D01*
X8882Y32237D01*
Y32096D01*
X8854Y32012D01*
X8826Y31956D01*
X8769Y31900D01*
X8685Y31871D01*
X8488D01*
X9014Y32125D02*
X9520D01*
X9694Y32462D02*
Y31871D01*
Y32462D02*
X10060D01*
X9694Y32181D02*
X9919D01*
X10127Y32462D02*
Y31871D01*
Y32462D02*
X10380D01*
X10465Y32434D01*
X10493Y32406D01*
X10521Y32349D01*
Y32293D01*
X10493Y32237D01*
X10465Y32209D01*
X10380Y32181D01*
X10127D01*
X10324D02*
X10521Y31871D01*
X11019Y32462D02*
X10653D01*
Y31871D01*
X11019D01*
X10653Y32181D02*
X10878D01*
X11483Y32462D02*
X11117D01*
Y31871D01*
X11483D01*
X11117Y32181D02*
X11342D01*
X12495Y31871D02*
X12270Y32462D01*
X12045Y31871D01*
X12129Y32068D02*
X12410D01*
X13026Y32378D02*
X12970Y32434D01*
X12886Y32462D01*
X12773D01*
X12689Y32434D01*
X12632Y32378D01*
Y32321D01*
X12661Y32265D01*
X12689Y32237D01*
X12745Y32209D01*
X12914Y32153D01*
X12970Y32125D01*
X12998Y32096D01*
X13026Y32040D01*
Y31956D01*
X12970Y31900D01*
X12886Y31871D01*
X12773D01*
X12689Y31900D01*
X12632Y31956D01*
X13552Y32378D02*
X13496Y32434D01*
X13411Y32462D01*
X13299D01*
X13214Y32434D01*
X13158Y32378D01*
Y32321D01*
X13186Y32265D01*
X13214Y32237D01*
X13271Y32209D01*
X13439Y32153D01*
X13496Y32125D01*
X13524Y32096D01*
X13552Y32040D01*
Y31956D01*
X13496Y31900D01*
X13411Y31871D01*
X13299D01*
X13214Y31900D01*
X13158Y31956D01*
X14049Y32462D02*
X13684D01*
Y31871D01*
X14049D01*
X13684Y32181D02*
X13909D01*
X14148Y32462D02*
Y31871D01*
Y32462D02*
X14373Y31871D01*
X14598Y32462D02*
X14373Y31871D01*
X14598Y32462D02*
Y31871D01*
X14766Y32462D02*
Y31871D01*
Y32462D02*
X15019D01*
X15104Y32434D01*
X15132Y32406D01*
X15160Y32349D01*
Y32293D01*
X15132Y32237D01*
X15104Y32209D01*
X15019Y32181D01*
X14766D02*
X15019D01*
X15104Y32153D01*
X15132Y32125D01*
X15160Y32068D01*
Y31984D01*
X15132Y31928D01*
X15104Y31900D01*
X15019Y31871D01*
X14766D01*
X15292Y32462D02*
Y31871D01*
X15630D01*
X15694Y32462D02*
X15919Y32181D01*
Y31871D01*
X16144Y32462D02*
X15919Y32181D01*
X16684Y32153D02*
X16937D01*
X17021Y32181D01*
X17049Y32209D01*
X17078Y32265D01*
Y32349D01*
X17049Y32406D01*
X17021Y32434D01*
X16937Y32462D01*
X16684D01*
Y31871D01*
X17210Y32462D02*
Y31871D01*
Y32462D02*
X17463D01*
X17547Y32434D01*
X17575Y32406D01*
X17603Y32349D01*
Y32293D01*
X17575Y32237D01*
X17547Y32209D01*
X17463Y32181D01*
X17210D01*
X17406D02*
X17603Y31871D01*
X17904Y32462D02*
X17848Y32434D01*
X17792Y32378D01*
X17764Y32321D01*
X17735Y32237D01*
Y32096D01*
X17764Y32012D01*
X17792Y31956D01*
X17848Y31900D01*
X17904Y31871D01*
X18017D01*
X18073Y31900D01*
X18129Y31956D01*
X18157Y32012D01*
X18185Y32096D01*
Y32237D01*
X18157Y32321D01*
X18129Y32378D01*
X18073Y32434D01*
X18017Y32462D01*
X17904D01*
X18745Y32321D02*
X18717Y32378D01*
X18660Y32434D01*
X18604Y32462D01*
X18492D01*
X18435Y32434D01*
X18379Y32378D01*
X18351Y32321D01*
X18323Y32237D01*
Y32096D01*
X18351Y32012D01*
X18379Y31956D01*
X18435Y31900D01*
X18492Y31871D01*
X18604D01*
X18660Y31900D01*
X18717Y31956D01*
X18745Y32012D01*
X19276Y32462D02*
X18911D01*
Y31871D01*
X19276D01*
X18911Y32181D02*
X19136D01*
X19768Y32378D02*
X19712Y32434D01*
X19628Y32462D01*
X19515D01*
X19431Y32434D01*
X19375Y32378D01*
Y32321D01*
X19403Y32265D01*
X19431Y32237D01*
X19487Y32209D01*
X19656Y32153D01*
X19712Y32125D01*
X19740Y32096D01*
X19768Y32040D01*
Y31956D01*
X19712Y31900D01*
X19628Y31871D01*
X19515D01*
X19431Y31900D01*
X19375Y31956D01*
X20294Y32378D02*
X20238Y32434D01*
X20153Y32462D01*
X20041D01*
X19957Y32434D01*
X19900Y32378D01*
Y32321D01*
X19928Y32265D01*
X19957Y32237D01*
X20013Y32209D01*
X20181Y32153D01*
X20238Y32125D01*
X20266Y32096D01*
X20294Y32040D01*
Y31956D01*
X20238Y31900D01*
X20153Y31871D01*
X20041D01*
X19957Y31900D01*
X19900Y31956D01*
X21312Y32321D02*
X21284Y32378D01*
X21227Y32434D01*
X21171Y32462D01*
X21059D01*
X21002Y32434D01*
X20946Y32378D01*
X20918Y32321D01*
X20890Y32237D01*
Y32096D01*
X20918Y32012D01*
X20946Y31956D01*
X21002Y31900D01*
X21059Y31871D01*
X21171D01*
X21227Y31900D01*
X21284Y31956D01*
X21312Y32012D01*
X21646Y32462D02*
X21590Y32434D01*
X21534Y32378D01*
X21506Y32321D01*
X21478Y32237D01*
Y32096D01*
X21506Y32012D01*
X21534Y31956D01*
X21590Y31900D01*
X21646Y31871D01*
X21759D01*
X21815Y31900D01*
X21871Y31956D01*
X21899Y32012D01*
X21927Y32096D01*
Y32237D01*
X21899Y32321D01*
X21871Y32378D01*
X21815Y32434D01*
X21759Y32462D01*
X21646D01*
X22065D02*
Y31871D01*
Y32462D02*
X22290Y31871D01*
X22515Y32462D02*
X22290Y31871D01*
X22515Y32462D02*
Y31871D01*
X22684Y32153D02*
X22937D01*
X23021Y32181D01*
X23049Y32209D01*
X23077Y32265D01*
Y32349D01*
X23049Y32406D01*
X23021Y32434D01*
X22937Y32462D01*
X22684D01*
Y31871D01*
X23659D02*
X23434Y32462D01*
X23210Y31871D01*
X23294Y32068D02*
X23575D01*
X23994Y32462D02*
Y31871D01*
X23797Y32462D02*
X24191D01*
X24261D02*
Y31871D01*
X24385Y32462D02*
Y31871D01*
Y32462D02*
X24638D01*
X24722Y32434D01*
X24750Y32406D01*
X24778Y32349D01*
Y32293D01*
X24750Y32237D01*
X24722Y32209D01*
X24638Y32181D01*
X24385D02*
X24638D01*
X24722Y32153D01*
X24750Y32125D01*
X24778Y32068D01*
Y31984D01*
X24750Y31928D01*
X24722Y31900D01*
X24638Y31871D01*
X24385D01*
X24910Y32462D02*
Y31871D01*
X25248D01*
X25678Y32462D02*
X25313D01*
Y31871D01*
X25678D01*
X25313Y32181D02*
X25537D01*
X26690Y31871D02*
X26465Y32462D01*
X26240Y31871D01*
X26325Y32068D02*
X26606D01*
X26828Y32462D02*
Y31871D01*
Y32462D02*
X27222Y31871D01*
Y32462D02*
Y31871D01*
X27385Y32462D02*
Y31871D01*
Y32462D02*
X27581D01*
X27666Y32434D01*
X27722Y32378D01*
X27750Y32321D01*
X27778Y32237D01*
Y32096D01*
X27750Y32012D01*
X27722Y31956D01*
X27666Y31900D01*
X27581Y31871D01*
X27385D01*
X28374Y32462D02*
Y31871D01*
Y32462D02*
X28627D01*
X28712Y32434D01*
X28740Y32406D01*
X28768Y32349D01*
Y32293D01*
X28740Y32237D01*
X28712Y32209D01*
X28627Y32181D01*
X28374D02*
X28627D01*
X28712Y32153D01*
X28740Y32125D01*
X28768Y32068D01*
Y31984D01*
X28740Y31928D01*
X28712Y31900D01*
X28627Y31871D01*
X28374D01*
X29266Y32462D02*
X28900D01*
Y31871D01*
X29266D01*
X28900Y32181D02*
X29125D01*
X30278Y31871D02*
X30053Y32462D01*
X29828Y31871D01*
X29912Y32068D02*
X30193D01*
X30415Y32462D02*
Y31871D01*
Y32462D02*
X30669D01*
X30753Y32434D01*
X30781Y32406D01*
X30809Y32349D01*
Y32293D01*
X30781Y32237D01*
X30753Y32209D01*
X30669Y32181D01*
X30415D02*
X30669D01*
X30753Y32153D01*
X30781Y32125D01*
X30809Y32068D01*
Y31984D01*
X30781Y31928D01*
X30753Y31900D01*
X30669Y31871D01*
X30415D01*
X30941Y32462D02*
Y31871D01*
X31279D01*
X31709Y32462D02*
X31343D01*
Y31871D01*
X31709D01*
X31343Y32181D02*
X31568D01*
X32468Y32462D02*
Y31871D01*
X32271Y32462D02*
X32665D01*
X32904D02*
X32847Y32434D01*
X32791Y32378D01*
X32763Y32321D01*
X32735Y32237D01*
Y32096D01*
X32763Y32012D01*
X32791Y31956D01*
X32847Y31900D01*
X32904Y31871D01*
X33016D01*
X33072Y31900D01*
X33129Y31956D01*
X33157Y32012D01*
X33185Y32096D01*
Y32237D01*
X33157Y32321D01*
X33129Y32378D01*
X33072Y32434D01*
X33016Y32462D01*
X32904D01*
X33787D02*
Y31871D01*
X34180Y32462D02*
Y31871D01*
X33787Y32181D02*
X34180D01*
X34793Y31871D02*
X34568Y32462D01*
X34343Y31871D01*
X34428Y32068D02*
X34709D01*
X34931Y32462D02*
Y31871D01*
Y32462D02*
X35324Y31871D01*
Y32462D02*
Y31871D01*
X35488Y32462D02*
Y31871D01*
Y32462D02*
X35684D01*
X35769Y32434D01*
X35825Y32378D01*
X35853Y32321D01*
X35881Y32237D01*
Y32096D01*
X35853Y32012D01*
X35825Y31956D01*
X35769Y31900D01*
X35684Y31871D01*
X35488D01*
X36013Y32462D02*
Y31871D01*
X36351D01*
X36781Y32462D02*
X36415D01*
Y31871D01*
X36781D01*
X36415Y32181D02*
X36640D01*
X37793Y31871D02*
X37568Y32462D01*
X37343Y31871D01*
X37427Y32068D02*
X37709D01*
X38395Y32462D02*
Y31871D01*
Y32462D02*
X38620Y31871D01*
X38845Y32462D02*
X38620Y31871D01*
X38845Y32462D02*
Y31871D01*
X39013Y32462D02*
Y31871D01*
X39137Y32462D02*
Y31871D01*
Y32462D02*
X39531Y31871D01*
Y32462D02*
Y31871D01*
X39694Y32462D02*
Y31871D01*
X39817Y32462D02*
Y31871D01*
Y32462D02*
X40042Y31871D01*
X40267Y32462D02*
X40042Y31871D01*
X40267Y32462D02*
Y31871D01*
X40436Y32462D02*
Y32040D01*
X40464Y31956D01*
X40520Y31900D01*
X40605Y31871D01*
X40661D01*
X40745Y31900D01*
X40801Y31956D01*
X40829Y32040D01*
Y32462D01*
X40993D02*
Y31871D01*
Y32462D02*
X41217Y31871D01*
X41442Y32462D02*
X41217Y31871D01*
X41442Y32462D02*
Y31871D01*
X-1219Y31462D02*
X-1275Y31434D01*
X-1331Y31378D01*
X-1360Y31321D01*
X-1388Y31237D01*
Y31096D01*
X-1360Y31012D01*
X-1331Y30956D01*
X-1275Y30900D01*
X-1219Y30871D01*
X-1107D01*
X-1050Y30900D01*
X-994Y30956D01*
X-966Y31012D01*
X-938Y31096D01*
Y31237D01*
X-966Y31321D01*
X-994Y31378D01*
X-1050Y31434D01*
X-1107Y31462D01*
X-1219D01*
X-800D02*
Y30871D01*
Y31462D02*
X-435D01*
X-800Y31181D02*
X-575D01*
X434Y31462D02*
X153D01*
X125Y31209D01*
X153Y31237D01*
X237Y31265D01*
X322D01*
X406Y31237D01*
X462Y31181D01*
X490Y31096D01*
Y31040D01*
X462Y30956D01*
X406Y30900D01*
X322Y30871D01*
X237D01*
X153Y30900D01*
X125Y30928D01*
X97Y30984D01*
X1508Y31321D02*
X1480Y31378D01*
X1424Y31434D01*
X1368Y31462D01*
X1255D01*
X1199Y31434D01*
X1143Y31378D01*
X1115Y31321D01*
X1086Y31237D01*
Y31096D01*
X1115Y31012D01*
X1143Y30956D01*
X1199Y30900D01*
X1255Y30871D01*
X1368D01*
X1424Y30900D01*
X1480Y30956D01*
X1508Y31012D01*
X1674Y31462D02*
X1899Y31181D01*
Y30871D01*
X2124Y31462D02*
X1899Y31181D01*
X2622Y31321D02*
X2593Y31378D01*
X2537Y31434D01*
X2481Y31462D01*
X2369D01*
X2312Y31434D01*
X2256Y31378D01*
X2228Y31321D01*
X2200Y31237D01*
Y31096D01*
X2228Y31012D01*
X2256Y30956D01*
X2312Y30900D01*
X2369Y30871D01*
X2481D01*
X2537Y30900D01*
X2593Y30956D01*
X2622Y31012D01*
X2787Y31462D02*
Y30871D01*
X3125D01*
X3555Y31462D02*
X3189D01*
Y30871D01*
X3555D01*
X3189Y31181D02*
X3414D01*
X4047Y31378D02*
X3991Y31434D01*
X3906Y31462D01*
X3794D01*
X3710Y31434D01*
X3653Y31378D01*
Y31321D01*
X3681Y31265D01*
X3710Y31237D01*
X3766Y31209D01*
X3935Y31153D01*
X3991Y31125D01*
X4019Y31096D01*
X4047Y31040D01*
Y30956D01*
X3991Y30900D01*
X3906Y30871D01*
X3794D01*
X3710Y30900D01*
X3653Y30956D01*
X5093Y30871D02*
X4868Y31462D01*
X4643Y30871D01*
X4727Y31068D02*
X5009D01*
X5427Y31462D02*
Y30871D01*
X5231Y31462D02*
X5624D01*
X6187Y31321D02*
Y31349D01*
X6215Y31406D01*
X6243Y31434D01*
X6299Y31462D01*
X6412D01*
X6468Y31434D01*
X6496Y31406D01*
X6524Y31349D01*
Y31293D01*
X6496Y31237D01*
X6440Y31153D01*
X6158Y30871D01*
X6552D01*
X7022Y31378D02*
X6993Y31434D01*
X6909Y31462D01*
X6853D01*
X6769Y31434D01*
X6712Y31349D01*
X6684Y31209D01*
Y31068D01*
X6712Y30956D01*
X6769Y30900D01*
X6853Y30871D01*
X6881D01*
X6965Y30900D01*
X7022Y30956D01*
X7050Y31040D01*
Y31068D01*
X7022Y31153D01*
X6965Y31209D01*
X6881Y31237D01*
X6853D01*
X6769Y31209D01*
X6712Y31153D01*
X6684Y31068D01*
X7348Y31462D02*
X7263Y31434D01*
X7207Y31349D01*
X7179Y31209D01*
Y31125D01*
X7207Y30984D01*
X7263Y30900D01*
X7348Y30871D01*
X7404D01*
X7488Y30900D01*
X7545Y30984D01*
X7573Y31125D01*
Y31209D01*
X7545Y31349D01*
X7488Y31434D01*
X7404Y31462D01*
X7348D01*
X8169D02*
Y30871D01*
Y31462D02*
X8366D01*
X8450Y31434D01*
X8506Y31378D01*
X8534Y31321D01*
X8562Y31237D01*
Y31096D01*
X8534Y31012D01*
X8506Y30956D01*
X8450Y30900D01*
X8366Y30871D01*
X8169D01*
X9060Y31462D02*
X8694D01*
Y30871D01*
X9060D01*
X8694Y31181D02*
X8919D01*
X9580Y31321D02*
X9552Y31378D01*
X9496Y31434D01*
X9440Y31462D01*
X9327D01*
X9271Y31434D01*
X9215Y31378D01*
X9186Y31321D01*
X9158Y31237D01*
Y31096D01*
X9186Y31012D01*
X9215Y30956D01*
X9271Y30900D01*
X9327Y30871D01*
X9440D01*
X9496Y30900D01*
X9552Y30956D01*
X9580Y31012D01*
Y31096D01*
X9440D02*
X9580D01*
X9715Y31462D02*
Y30871D01*
Y31462D02*
X9968D01*
X10052Y31434D01*
X10081Y31406D01*
X10109Y31349D01*
Y31293D01*
X10081Y31237D01*
X10052Y31209D01*
X9968Y31181D01*
X9715D01*
X9912D02*
X10109Y30871D01*
X10606Y31462D02*
X10241D01*
Y30871D01*
X10606D01*
X10241Y31181D02*
X10466D01*
X11070Y31462D02*
X10705D01*
Y30871D01*
X11070D01*
X10705Y31181D02*
X10930D01*
X11562Y31378D02*
X11506Y31434D01*
X11422Y31462D01*
X11309D01*
X11225Y31434D01*
X11169Y31378D01*
Y31321D01*
X11197Y31265D01*
X11225Y31237D01*
X11281Y31209D01*
X11450Y31153D01*
X11506Y31125D01*
X11534Y31096D01*
X11562Y31040D01*
Y30956D01*
X11506Y30900D01*
X11422Y30871D01*
X11309D01*
X11225Y30900D01*
X11169Y30956D01*
X12580Y31321D02*
X12552Y31378D01*
X12496Y31434D01*
X12439Y31462D01*
X12327D01*
X12271Y31434D01*
X12215Y31378D01*
X12186Y31321D01*
X12158Y31237D01*
Y31096D01*
X12186Y31012D01*
X12215Y30956D01*
X12271Y30900D01*
X12327Y30871D01*
X12439D01*
X12496Y30900D01*
X12552Y30956D01*
X12580Y31012D01*
X13111Y31462D02*
X12746D01*
Y30871D01*
X13111D01*
X12746Y31181D02*
X12971D01*
X13210Y31462D02*
Y30871D01*
X13547D01*
X14005Y31378D02*
X13949Y31434D01*
X13865Y31462D01*
X13752D01*
X13668Y31434D01*
X13612Y31378D01*
Y31321D01*
X13640Y31265D01*
X13668Y31237D01*
X13724Y31209D01*
X13893Y31153D01*
X13949Y31125D01*
X13977Y31096D01*
X14005Y31040D01*
Y30956D01*
X13949Y30900D01*
X13865Y30871D01*
X13752D01*
X13668Y30900D01*
X13612Y30956D01*
X14138Y31462D02*
Y30871D01*
X14261Y31462D02*
Y31040D01*
X14289Y30956D01*
X14346Y30900D01*
X14430Y30871D01*
X14486D01*
X14571Y30900D01*
X14627Y30956D01*
X14655Y31040D01*
Y31462D01*
X15212Y31378D02*
X15155Y31434D01*
X15071Y31462D01*
X14959D01*
X14874Y31434D01*
X14818Y31378D01*
Y31321D01*
X14846Y31265D01*
X14874Y31237D01*
X14930Y31209D01*
X15099Y31153D01*
X15155Y31125D01*
X15184Y31096D01*
X15212Y31040D01*
Y30956D01*
X15155Y30900D01*
X15071Y30871D01*
X14959D01*
X14874Y30900D01*
X14818Y30956D01*
X-3030Y40768D02*
X-3058Y40824D01*
X-3143Y40852D01*
X-3199D01*
X-3283Y40824D01*
X-3340Y40739D01*
X-3368Y40599D01*
Y40458D01*
X-3340Y40346D01*
X-3283Y40290D01*
X-3199Y40261D01*
X-3171D01*
X-3087Y40290D01*
X-3030Y40346D01*
X-3002Y40430D01*
Y40458D01*
X-3030Y40543D01*
X-3087Y40599D01*
X-3171Y40627D01*
X-3199D01*
X-3283Y40599D01*
X-3340Y40543D01*
X-3368Y40458D01*
X-2845Y40318D02*
X-2873Y40290D01*
X-2845Y40261D01*
X-2817Y40290D01*
X-2845Y40318D01*
X-1830Y40768D02*
X-1886Y40824D01*
X-1970Y40852D01*
X-2083D01*
X-2167Y40824D01*
X-2223Y40768D01*
Y40711D01*
X-2195Y40655D01*
X-2167Y40627D01*
X-2111Y40599D01*
X-1942Y40543D01*
X-1886Y40515D01*
X-1858Y40486D01*
X-1830Y40430D01*
Y40346D01*
X-1886Y40290D01*
X-1970Y40261D01*
X-2083D01*
X-2167Y40290D01*
X-2223Y40346D01*
X-1529Y40852D02*
X-1585Y40824D01*
X-1641Y40768D01*
X-1670Y40711D01*
X-1698Y40627D01*
Y40486D01*
X-1670Y40402D01*
X-1641Y40346D01*
X-1585Y40290D01*
X-1529Y40261D01*
X-1417D01*
X-1360Y40290D01*
X-1304Y40346D01*
X-1276Y40402D01*
X-1248Y40486D01*
Y40627D01*
X-1276Y40711D01*
X-1304Y40768D01*
X-1360Y40824D01*
X-1417Y40852D01*
X-1529D01*
X-1110D02*
Y40261D01*
X-773D01*
X-708Y40852D02*
Y40261D01*
Y40852D02*
X-511D01*
X-427Y40824D01*
X-371Y40768D01*
X-342Y40711D01*
X-314Y40627D01*
Y40486D01*
X-342Y40402D01*
X-371Y40346D01*
X-427Y40290D01*
X-511Y40261D01*
X-708D01*
X183Y40852D02*
X-182D01*
Y40261D01*
X183D01*
X-182Y40571D02*
X43D01*
X282Y40852D02*
Y40261D01*
Y40852D02*
X535D01*
X619Y40824D01*
X647Y40796D01*
X675Y40739D01*
Y40683D01*
X647Y40627D01*
X619Y40599D01*
X535Y40571D01*
X282D01*
X478D02*
X675Y40261D01*
X1271Y40852D02*
Y40261D01*
Y40852D02*
X1496Y40261D01*
X1721Y40852D02*
X1496Y40261D01*
X1721Y40852D02*
Y40261D01*
X2340D02*
X2115Y40852D01*
X1890Y40261D01*
X1974Y40458D02*
X2255D01*
X2871Y40768D02*
X2815Y40824D01*
X2731Y40852D01*
X2618D01*
X2534Y40824D01*
X2477Y40768D01*
Y40711D01*
X2506Y40655D01*
X2534Y40627D01*
X2590Y40599D01*
X2759Y40543D01*
X2815Y40515D01*
X2843Y40486D01*
X2871Y40430D01*
Y40346D01*
X2815Y40290D01*
X2731Y40261D01*
X2618D01*
X2534Y40290D01*
X2477Y40346D01*
X3003Y40852D02*
Y40261D01*
X3397Y40852D02*
X3003Y40458D01*
X3144Y40599D02*
X3397Y40261D01*
X3557Y40655D02*
X3529Y40627D01*
X3557Y40599D01*
X3585Y40627D01*
X3557Y40655D01*
Y40318D02*
X3529Y40290D01*
X3557Y40261D01*
X3585Y40290D01*
X3557Y40318D01*
X4178Y40852D02*
Y40261D01*
X4516D01*
X4581Y40852D02*
Y40261D01*
X4873Y40852D02*
X4817Y40824D01*
X4760Y40768D01*
X4732Y40711D01*
X4704Y40627D01*
Y40486D01*
X4732Y40402D01*
X4760Y40346D01*
X4817Y40290D01*
X4873Y40261D01*
X4985D01*
X5042Y40290D01*
X5098Y40346D01*
X5126Y40402D01*
X5154Y40486D01*
Y40627D01*
X5126Y40711D01*
X5098Y40768D01*
X5042Y40824D01*
X4985Y40852D01*
X4873D01*
X4957Y40374D02*
X5126Y40205D01*
X5292Y40852D02*
Y40430D01*
X5320Y40346D01*
X5376Y40290D01*
X5461Y40261D01*
X5517D01*
X5601Y40290D01*
X5657Y40346D01*
X5685Y40430D01*
Y40852D01*
X5849D02*
Y40261D01*
X5972Y40852D02*
Y40261D01*
Y40852D02*
X6169D01*
X6253Y40824D01*
X6310Y40768D01*
X6338Y40711D01*
X6366Y40627D01*
Y40486D01*
X6338Y40402D01*
X6310Y40346D01*
X6253Y40290D01*
X6169Y40261D01*
X5972D01*
X6962Y40543D02*
X7215D01*
X7299Y40571D01*
X7327Y40599D01*
X7356Y40655D01*
Y40739D01*
X7327Y40796D01*
X7299Y40824D01*
X7215Y40852D01*
X6962D01*
Y40261D01*
X7488Y40852D02*
Y40261D01*
X7881Y40852D02*
Y40261D01*
X7488Y40571D02*
X7881D01*
X8213Y40852D02*
X8157Y40824D01*
X8101Y40768D01*
X8072Y40711D01*
X8044Y40627D01*
Y40486D01*
X8072Y40402D01*
X8101Y40346D01*
X8157Y40290D01*
X8213Y40261D01*
X8325D01*
X8382Y40290D01*
X8438Y40346D01*
X8466Y40402D01*
X8494Y40486D01*
Y40627D01*
X8466Y40711D01*
X8438Y40768D01*
X8382Y40824D01*
X8325Y40852D01*
X8213D01*
X8829D02*
Y40261D01*
X8632Y40852D02*
X9026D01*
X9265D02*
X9208Y40824D01*
X9152Y40768D01*
X9124Y40711D01*
X9096Y40627D01*
Y40486D01*
X9124Y40402D01*
X9152Y40346D01*
X9208Y40290D01*
X9265Y40261D01*
X9377D01*
X9433Y40290D01*
X9489Y40346D01*
X9518Y40402D01*
X9546Y40486D01*
Y40627D01*
X9518Y40711D01*
X9489Y40768D01*
X9433Y40824D01*
X9377Y40852D01*
X9265D01*
X9683D02*
Y40261D01*
X9807Y40852D02*
Y40261D01*
Y40852D02*
X10032Y40261D01*
X10257Y40852D02*
X10032Y40261D01*
X10257Y40852D02*
Y40261D01*
X10876D02*
X10651Y40852D01*
X10426Y40261D01*
X10510Y40458D02*
X10791D01*
X11435Y40711D02*
X11407Y40768D01*
X11351Y40824D01*
X11294Y40852D01*
X11182D01*
X11126Y40824D01*
X11070Y40768D01*
X11041Y40711D01*
X11013Y40627D01*
Y40486D01*
X11041Y40402D01*
X11070Y40346D01*
X11126Y40290D01*
X11182Y40261D01*
X11294D01*
X11351Y40290D01*
X11407Y40346D01*
X11435Y40402D01*
Y40486D01*
X11294D02*
X11435D01*
X11936Y40852D02*
X11570D01*
Y40261D01*
X11936D01*
X11570Y40571D02*
X11795D01*
X12484Y40261D02*
X12259Y40852D01*
X12034Y40261D01*
X12118Y40458D02*
X12399D01*
X12622Y40852D02*
Y40261D01*
Y40852D02*
X12875D01*
X12959Y40824D01*
X12987Y40796D01*
X13015Y40739D01*
Y40683D01*
X12987Y40627D01*
X12959Y40599D01*
X12875Y40571D01*
X12622D02*
X12875D01*
X12959Y40543D01*
X12987Y40515D01*
X13015Y40458D01*
Y40374D01*
X12987Y40318D01*
X12959Y40290D01*
X12875Y40261D01*
X12622D01*
X13147Y40852D02*
Y40261D01*
X13485D01*
X13915Y40852D02*
X13549D01*
Y40261D01*
X13915D01*
X13549Y40571D02*
X13774D01*
X14871Y40768D02*
X14815Y40824D01*
X14730Y40852D01*
X14618D01*
X14533Y40824D01*
X14477Y40768D01*
Y40711D01*
X14505Y40655D01*
X14533Y40627D01*
X14590Y40599D01*
X14758Y40543D01*
X14815Y40515D01*
X14843Y40486D01*
X14871Y40430D01*
Y40346D01*
X14815Y40290D01*
X14730Y40261D01*
X14618D01*
X14533Y40290D01*
X14477Y40346D01*
X15172Y40852D02*
X15115Y40824D01*
X15059Y40768D01*
X15031Y40711D01*
X15003Y40627D01*
Y40486D01*
X15031Y40402D01*
X15059Y40346D01*
X15115Y40290D01*
X15172Y40261D01*
X15284D01*
X15340Y40290D01*
X15397Y40346D01*
X15425Y40402D01*
X15453Y40486D01*
Y40627D01*
X15425Y40711D01*
X15397Y40768D01*
X15340Y40824D01*
X15284Y40852D01*
X15172D01*
X15591D02*
Y40261D01*
X15928D01*
X15993Y40852D02*
Y40261D01*
Y40852D02*
X16189D01*
X16274Y40824D01*
X16330Y40768D01*
X16358Y40711D01*
X16386Y40627D01*
Y40486D01*
X16358Y40402D01*
X16330Y40346D01*
X16274Y40290D01*
X16189Y40261D01*
X15993D01*
X16884Y40852D02*
X16518D01*
Y40261D01*
X16884D01*
X16518Y40571D02*
X16743D01*
X16982Y40852D02*
Y40261D01*
Y40852D02*
X17235D01*
X17320Y40824D01*
X17348Y40796D01*
X17376Y40739D01*
Y40683D01*
X17348Y40627D01*
X17320Y40599D01*
X17235Y40571D01*
X16982D01*
X17179D02*
X17376Y40261D01*
X17972Y40852D02*
Y40261D01*
Y40852D02*
X18197Y40261D01*
X18422Y40852D02*
X18197Y40261D01*
X18422Y40852D02*
Y40261D01*
X19040D02*
X18815Y40852D01*
X18590Y40261D01*
X18675Y40458D02*
X18956D01*
X19572Y40768D02*
X19515Y40824D01*
X19431Y40852D01*
X19319D01*
X19234Y40824D01*
X19178Y40768D01*
Y40711D01*
X19206Y40655D01*
X19234Y40627D01*
X19291Y40599D01*
X19459Y40543D01*
X19515Y40515D01*
X19544Y40486D01*
X19572Y40430D01*
Y40346D01*
X19515Y40290D01*
X19431Y40261D01*
X19319D01*
X19234Y40290D01*
X19178Y40346D01*
X19704Y40852D02*
Y40261D01*
X20097Y40852D02*
X19704Y40458D01*
X19844Y40599D02*
X20097Y40261D01*
X20693Y40543D02*
X20947D01*
X21031Y40571D01*
X21059Y40599D01*
X21087Y40655D01*
Y40739D01*
X21059Y40796D01*
X21031Y40824D01*
X20947Y40852D01*
X20693D01*
Y40261D01*
X21585Y40852D02*
X21219D01*
Y40261D01*
X21585D01*
X21219Y40571D02*
X21444D01*
X21683Y40852D02*
Y40261D01*
Y40852D02*
X21936D01*
X22021Y40824D01*
X22049Y40796D01*
X22077Y40739D01*
Y40683D01*
X22049Y40627D01*
X22021Y40599D01*
X21936Y40571D01*
X21683D01*
X21880D02*
X22077Y40261D01*
X22673Y40852D02*
Y40261D01*
X22797Y40543D02*
X23050D01*
X23134Y40571D01*
X23162Y40599D01*
X23190Y40655D01*
Y40739D01*
X23162Y40796D01*
X23134Y40824D01*
X23050Y40852D01*
X22797D01*
Y40261D01*
X23744Y40711D02*
X23716Y40768D01*
X23660Y40824D01*
X23603Y40852D01*
X23491D01*
X23435Y40824D01*
X23379Y40768D01*
X23350Y40711D01*
X23322Y40627D01*
Y40486D01*
X23350Y40402D01*
X23379Y40346D01*
X23435Y40290D01*
X23491Y40261D01*
X23603D01*
X23660Y40290D01*
X23716Y40346D01*
X23744Y40402D01*
X23910Y40515D02*
X24416D01*
X24984Y40768D02*
X24928Y40824D01*
X24843Y40852D01*
X24731D01*
X24647Y40824D01*
X24590Y40768D01*
Y40711D01*
X24618Y40655D01*
X24647Y40627D01*
X24703Y40599D01*
X24871Y40543D01*
X24928Y40515D01*
X24956Y40486D01*
X24984Y40430D01*
Y40346D01*
X24928Y40290D01*
X24843Y40261D01*
X24731D01*
X24647Y40290D01*
X24590Y40346D01*
X25116Y40852D02*
Y40261D01*
Y40852D02*
X25341Y40261D01*
X25566Y40852D02*
X25341Y40261D01*
X25566Y40852D02*
Y40261D01*
X25735Y40515D02*
X26241D01*
X26556Y40852D02*
X26471Y40824D01*
X26443Y40768D01*
Y40711D01*
X26471Y40655D01*
X26527Y40627D01*
X26640Y40599D01*
X26724Y40571D01*
X26780Y40515D01*
X26809Y40458D01*
Y40374D01*
X26780Y40318D01*
X26752Y40290D01*
X26668Y40261D01*
X26556D01*
X26471Y40290D01*
X26443Y40318D01*
X26415Y40374D01*
Y40458D01*
X26443Y40515D01*
X26499Y40571D01*
X26584Y40599D01*
X26696Y40627D01*
X26752Y40655D01*
X26780Y40711D01*
Y40768D01*
X26752Y40824D01*
X26668Y40852D01*
X26556D01*
X27222D02*
X26941Y40458D01*
X27362D01*
X27222Y40852D02*
Y40261D01*
X27635Y40852D02*
X27551Y40824D01*
X27495Y40739D01*
X27466Y40599D01*
Y40515D01*
X27495Y40374D01*
X27551Y40290D01*
X27635Y40261D01*
X27691D01*
X27776Y40290D01*
X27832Y40374D01*
X27860Y40515D01*
Y40599D01*
X27832Y40739D01*
X27776Y40824D01*
X27691Y40852D01*
X27635D01*
X-2974Y36852D02*
X-3255Y36261D01*
X-3368Y36852D02*
X-2974D01*
X-2814Y36318D02*
X-2842Y36290D01*
X-2814Y36261D01*
X-2786Y36290D01*
X-2814Y36318D01*
X-1799Y36768D02*
X-1855Y36824D01*
X-1939Y36852D01*
X-2052D01*
X-2136Y36824D01*
X-2192Y36768D01*
Y36711D01*
X-2164Y36655D01*
X-2136Y36627D01*
X-2080Y36599D01*
X-1911Y36543D01*
X-1855Y36515D01*
X-1827Y36486D01*
X-1799Y36430D01*
Y36346D01*
X-1855Y36290D01*
X-1939Y36261D01*
X-2052D01*
X-2136Y36290D01*
X-2192Y36346D01*
X-1667Y36852D02*
Y36261D01*
X-1543Y36852D02*
Y36261D01*
X-1206D01*
X-1141Y36852D02*
Y36261D01*
X-747Y36852D02*
X-1141Y36458D01*
X-1000Y36599D02*
X-747Y36261D01*
X-222Y36768D02*
X-278Y36824D01*
X-362Y36852D01*
X-475D01*
X-559Y36824D01*
X-615Y36768D01*
Y36711D01*
X-587Y36655D01*
X-559Y36627D01*
X-503Y36599D01*
X-334Y36543D01*
X-278Y36515D01*
X-250Y36486D01*
X-222Y36430D01*
Y36346D01*
X-278Y36290D01*
X-362Y36261D01*
X-475D01*
X-559Y36290D01*
X-615Y36346D01*
X332Y36711D02*
X304Y36768D01*
X248Y36824D01*
X192Y36852D01*
X79D01*
X23Y36824D01*
X-33Y36768D01*
X-61Y36711D01*
X-89Y36627D01*
Y36486D01*
X-61Y36402D01*
X-33Y36346D01*
X23Y36290D01*
X79Y36261D01*
X192D01*
X248Y36290D01*
X304Y36346D01*
X332Y36402D01*
X498Y36852D02*
Y36261D01*
Y36852D02*
X751D01*
X836Y36824D01*
X864Y36796D01*
X892Y36739D01*
Y36683D01*
X864Y36627D01*
X836Y36599D01*
X751Y36571D01*
X498D01*
X695D02*
X892Y36261D01*
X1389Y36852D02*
X1024D01*
Y36261D01*
X1389D01*
X1024Y36571D02*
X1249D01*
X1853Y36852D02*
X1488D01*
Y36261D01*
X1853D01*
X1488Y36571D02*
X1713D01*
X1952Y36852D02*
Y36261D01*
Y36852D02*
X2345Y36261D01*
Y36852D02*
Y36261D01*
X2537Y36655D02*
X2508Y36627D01*
X2537Y36599D01*
X2565Y36627D01*
X2537Y36655D01*
Y36318D02*
X2508Y36290D01*
X2537Y36261D01*
X2565Y36290D01*
X2537Y36318D01*
X3552Y36768D02*
X3495Y36824D01*
X3411Y36852D01*
X3298D01*
X3214Y36824D01*
X3158Y36768D01*
Y36711D01*
X3186Y36655D01*
X3214Y36627D01*
X3270Y36599D01*
X3439Y36543D01*
X3495Y36515D01*
X3523Y36486D01*
X3552Y36430D01*
Y36346D01*
X3495Y36290D01*
X3411Y36261D01*
X3298D01*
X3214Y36290D01*
X3158Y36346D01*
X3684Y36852D02*
Y36261D01*
X3807Y36852D02*
Y36261D01*
X4145D01*
X4209Y36852D02*
Y36261D01*
X4603Y36852D02*
X4209Y36458D01*
X4350Y36599D02*
X4603Y36261D01*
X5129Y36768D02*
X5073Y36824D01*
X4988Y36852D01*
X4876D01*
X4791Y36824D01*
X4735Y36768D01*
Y36711D01*
X4763Y36655D01*
X4791Y36627D01*
X4848Y36599D01*
X5016Y36543D01*
X5073Y36515D01*
X5101Y36486D01*
X5129Y36430D01*
Y36346D01*
X5073Y36290D01*
X4988Y36261D01*
X4876D01*
X4791Y36290D01*
X4735Y36346D01*
X5683Y36711D02*
X5655Y36768D01*
X5598Y36824D01*
X5542Y36852D01*
X5430D01*
X5373Y36824D01*
X5317Y36768D01*
X5289Y36711D01*
X5261Y36627D01*
Y36486D01*
X5289Y36402D01*
X5317Y36346D01*
X5373Y36290D01*
X5430Y36261D01*
X5542D01*
X5598Y36290D01*
X5655Y36346D01*
X5683Y36402D01*
X5849Y36852D02*
Y36261D01*
Y36852D02*
X6102D01*
X6186Y36824D01*
X6214Y36796D01*
X6242Y36739D01*
Y36683D01*
X6214Y36627D01*
X6186Y36599D01*
X6102Y36571D01*
X5849D01*
X6045D02*
X6242Y36261D01*
X6740Y36852D02*
X6374D01*
Y36261D01*
X6740D01*
X6374Y36571D02*
X6599D01*
X7204Y36852D02*
X6838D01*
Y36261D01*
X7204D01*
X6838Y36571D02*
X7063D01*
X7302Y36852D02*
Y36261D01*
Y36852D02*
X7696Y36261D01*
Y36852D02*
Y36261D01*
X8519Y36852D02*
Y36261D01*
X8323Y36852D02*
X8716D01*
X8955D02*
X8899Y36824D01*
X8843Y36768D01*
X8815Y36711D01*
X8787Y36627D01*
Y36486D01*
X8815Y36402D01*
X8843Y36346D01*
X8899Y36290D01*
X8955Y36261D01*
X9068D01*
X9124Y36290D01*
X9180Y36346D01*
X9208Y36402D01*
X9236Y36486D01*
Y36627D01*
X9208Y36711D01*
X9180Y36768D01*
X9124Y36824D01*
X9068Y36852D01*
X8955D01*
X9374Y36543D02*
X9627D01*
X9712Y36571D01*
X9740Y36599D01*
X9768Y36655D01*
Y36739D01*
X9740Y36796D01*
X9712Y36824D01*
X9627Y36852D01*
X9374D01*
Y36261D01*
X10757Y36768D02*
X10701Y36824D01*
X10617Y36852D01*
X10504D01*
X10420Y36824D01*
X10364Y36768D01*
Y36711D01*
X10392Y36655D01*
X10420Y36627D01*
X10476Y36599D01*
X10645Y36543D01*
X10701Y36515D01*
X10729Y36486D01*
X10757Y36430D01*
Y36346D01*
X10701Y36290D01*
X10617Y36261D01*
X10504D01*
X10420Y36290D01*
X10364Y36346D01*
X10890Y36852D02*
Y36261D01*
X11013Y36852D02*
Y36261D01*
Y36852D02*
X11210D01*
X11294Y36824D01*
X11351Y36768D01*
X11379Y36711D01*
X11407Y36627D01*
Y36486D01*
X11379Y36402D01*
X11351Y36346D01*
X11294Y36290D01*
X11210Y36261D01*
X11013D01*
X11905Y36852D02*
X11539D01*
Y36261D01*
X11905D01*
X11539Y36571D02*
X11764D01*
X12467Y36852D02*
Y36430D01*
X12495Y36346D01*
X12551Y36290D01*
X12636Y36261D01*
X12692D01*
X12776Y36290D01*
X12832Y36346D01*
X12861Y36430D01*
Y36852D01*
X13417Y36768D02*
X13361Y36824D01*
X13277Y36852D01*
X13164D01*
X13080Y36824D01*
X13024Y36768D01*
Y36711D01*
X13052Y36655D01*
X13080Y36627D01*
X13136Y36599D01*
X13305Y36543D01*
X13361Y36515D01*
X13389Y36486D01*
X13417Y36430D01*
Y36346D01*
X13361Y36290D01*
X13277Y36261D01*
X13164D01*
X13080Y36290D01*
X13024Y36346D01*
X13549Y36852D02*
Y36261D01*
X13673Y36852D02*
Y36261D01*
Y36852D02*
X14067Y36261D01*
Y36852D02*
Y36261D01*
X14651Y36711D02*
X14623Y36768D01*
X14567Y36824D01*
X14511Y36852D01*
X14398D01*
X14342Y36824D01*
X14286Y36768D01*
X14258Y36711D01*
X14230Y36627D01*
Y36486D01*
X14258Y36402D01*
X14286Y36346D01*
X14342Y36290D01*
X14398Y36261D01*
X14511D01*
X14567Y36290D01*
X14623Y36346D01*
X14651Y36402D01*
Y36486D01*
X14511D02*
X14651D01*
X15250Y36852D02*
X15391Y36261D01*
X15531Y36852D02*
X15391Y36261D01*
X15531Y36852D02*
X15672Y36261D01*
X15813Y36852D02*
X15672Y36261D01*
X15931Y36852D02*
Y36261D01*
X16324Y36852D02*
Y36261D01*
X15931Y36571D02*
X16324D01*
X16487Y36852D02*
Y36261D01*
X16808Y36852D02*
Y36261D01*
X16611Y36852D02*
X17005D01*
X17441D02*
X17075D01*
Y36261D01*
X17441D01*
X17075Y36571D02*
X17300D01*
X18003Y36852D02*
Y36261D01*
Y36852D02*
X18396Y36261D01*
Y36852D02*
Y36261D01*
X18728Y36852D02*
X18672Y36824D01*
X18616Y36768D01*
X18588Y36711D01*
X18560Y36627D01*
Y36486D01*
X18588Y36402D01*
X18616Y36346D01*
X18672Y36290D01*
X18728Y36261D01*
X18841D01*
X18897Y36290D01*
X18953Y36346D01*
X18981Y36402D01*
X19009Y36486D01*
Y36627D01*
X18981Y36711D01*
X18953Y36768D01*
X18897Y36824D01*
X18841Y36852D01*
X18728D01*
X19147D02*
Y36261D01*
Y36852D02*
X19541Y36261D01*
Y36852D02*
Y36261D01*
X20126Y36711D02*
X20097Y36768D01*
X20041Y36824D01*
X19985Y36852D01*
X19873D01*
X19816Y36824D01*
X19760Y36768D01*
X19732Y36711D01*
X19704Y36627D01*
Y36486D01*
X19732Y36402D01*
X19760Y36346D01*
X19816Y36290D01*
X19873Y36261D01*
X19985D01*
X20041Y36290D01*
X20097Y36346D01*
X20126Y36402D01*
X20460Y36852D02*
X20404Y36824D01*
X20348Y36768D01*
X20320Y36711D01*
X20291Y36627D01*
Y36486D01*
X20320Y36402D01*
X20348Y36346D01*
X20404Y36290D01*
X20460Y36261D01*
X20573D01*
X20629Y36290D01*
X20685Y36346D01*
X20713Y36402D01*
X20741Y36486D01*
Y36627D01*
X20713Y36711D01*
X20685Y36768D01*
X20629Y36824D01*
X20573Y36852D01*
X20460D01*
X20879D02*
Y36261D01*
Y36852D02*
X21273Y36261D01*
Y36852D02*
Y36261D01*
X21436Y36852D02*
Y36261D01*
Y36852D02*
X21633D01*
X21717Y36824D01*
X21773Y36768D01*
X21801Y36711D01*
X21829Y36627D01*
Y36486D01*
X21801Y36402D01*
X21773Y36346D01*
X21717Y36290D01*
X21633Y36261D01*
X21436D01*
X21962Y36852D02*
Y36430D01*
X21990Y36346D01*
X22046Y36290D01*
X22130Y36261D01*
X22186D01*
X22271Y36290D01*
X22327Y36346D01*
X22355Y36430D01*
Y36852D01*
X22940Y36711D02*
X22912Y36768D01*
X22856Y36824D01*
X22799Y36852D01*
X22687D01*
X22631Y36824D01*
X22574Y36768D01*
X22546Y36711D01*
X22518Y36627D01*
Y36486D01*
X22546Y36402D01*
X22574Y36346D01*
X22631Y36290D01*
X22687Y36261D01*
X22799D01*
X22856Y36290D01*
X22912Y36346D01*
X22940Y36402D01*
X23303Y36852D02*
Y36261D01*
X23106Y36852D02*
X23499D01*
X23570D02*
Y36261D01*
X23693Y36852D02*
X23918Y36261D01*
X24143Y36852D02*
X23918Y36261D01*
X24585Y36852D02*
X24219D01*
Y36261D01*
X24585D01*
X24219Y36571D02*
X24444D01*
X25147Y36852D02*
Y36261D01*
X25271Y36852D02*
Y36261D01*
Y36852D02*
X25664Y36261D01*
Y36852D02*
Y36261D01*
X25827Y36852D02*
Y36261D01*
X26221Y36852D02*
X25827Y36458D01*
X25968Y36599D02*
X26221Y36261D01*
X26381Y36318D02*
X26353Y36290D01*
X26381Y36261D01*
X26409Y36290D01*
X26381Y36318D01*
X-1946Y39711D02*
X-1974Y39768D01*
X-2030Y39824D01*
X-2087Y39852D01*
X-2199D01*
X-2255Y39824D01*
X-2311Y39768D01*
X-2340Y39711D01*
X-2368Y39627D01*
Y39486D01*
X-2340Y39402D01*
X-2311Y39346D01*
X-2255Y39290D01*
X-2199Y39261D01*
X-2087D01*
X-2030Y39290D01*
X-1974Y39346D01*
X-1946Y39402D01*
X-1611Y39852D02*
X-1668Y39824D01*
X-1724Y39768D01*
X-1752Y39711D01*
X-1780Y39627D01*
Y39486D01*
X-1752Y39402D01*
X-1724Y39346D01*
X-1668Y39290D01*
X-1611Y39261D01*
X-1499D01*
X-1443Y39290D01*
X-1386Y39346D01*
X-1358Y39402D01*
X-1330Y39486D01*
Y39627D01*
X-1358Y39711D01*
X-1386Y39768D01*
X-1443Y39824D01*
X-1499Y39852D01*
X-1611D01*
X-1192D02*
Y39261D01*
X-855D01*
X-622Y39852D02*
X-678Y39824D01*
X-734Y39768D01*
X-762Y39711D01*
X-790Y39627D01*
Y39486D01*
X-762Y39402D01*
X-734Y39346D01*
X-678Y39290D01*
X-622Y39261D01*
X-509D01*
X-453Y39290D01*
X-397Y39346D01*
X-369Y39402D01*
X-341Y39486D01*
Y39627D01*
X-369Y39711D01*
X-397Y39768D01*
X-453Y39824D01*
X-509Y39852D01*
X-622D01*
X-203D02*
Y39261D01*
Y39852D02*
X50D01*
X135Y39824D01*
X163Y39796D01*
X191Y39739D01*
Y39683D01*
X163Y39627D01*
X135Y39599D01*
X50Y39571D01*
X-203D01*
X-6D02*
X191Y39261D01*
X1209Y39711D02*
X1180Y39768D01*
X1124Y39824D01*
X1068Y39852D01*
X956D01*
X899Y39824D01*
X843Y39768D01*
X815Y39711D01*
X787Y39627D01*
Y39486D01*
X815Y39402D01*
X843Y39346D01*
X899Y39290D01*
X956Y39261D01*
X1068D01*
X1124Y39290D01*
X1180Y39346D01*
X1209Y39402D01*
Y39486D01*
X1068D02*
X1209D01*
X1344Y39852D02*
Y39261D01*
Y39852D02*
X1597D01*
X1681Y39824D01*
X1709Y39796D01*
X1737Y39739D01*
Y39683D01*
X1709Y39627D01*
X1681Y39599D01*
X1597Y39571D01*
X1344D01*
X1540D02*
X1737Y39261D01*
X2235Y39852D02*
X1869D01*
Y39261D01*
X2235D01*
X1869Y39571D02*
X2094D01*
X2699Y39852D02*
X2333D01*
Y39261D01*
X2699D01*
X2333Y39571D02*
X2558D01*
X2797Y39852D02*
Y39261D01*
Y39852D02*
X3191Y39261D01*
Y39852D02*
Y39261D01*
X3410Y39290D02*
X3382Y39261D01*
X3354Y39290D01*
X3382Y39318D01*
X3410Y39290D01*
Y39233D01*
X3382Y39177D01*
X3354Y39149D01*
X4003Y39739D02*
X4059Y39768D01*
X4144Y39852D01*
Y39261D01*
X4605Y39852D02*
X4521Y39824D01*
X4464Y39739D01*
X4436Y39599D01*
Y39515D01*
X4464Y39374D01*
X4521Y39290D01*
X4605Y39261D01*
X4661D01*
X4745Y39290D01*
X4802Y39374D01*
X4830Y39515D01*
Y39599D01*
X4802Y39739D01*
X4745Y39824D01*
X4661Y39852D01*
X4605D01*
X4962Y39177D02*
X5356Y39852D01*
X6196D02*
X5915D01*
X5887Y39599D01*
X5915Y39627D01*
X5999Y39655D01*
X6084D01*
X6168Y39627D01*
X6224Y39571D01*
X6252Y39486D01*
Y39430D01*
X6224Y39346D01*
X6168Y39290D01*
X6084Y39261D01*
X5999D01*
X5915Y39290D01*
X5887Y39318D01*
X5859Y39374D01*
X6553Y39852D02*
X6469Y39824D01*
X6413Y39739D01*
X6385Y39599D01*
Y39515D01*
X6413Y39374D01*
X6469Y39290D01*
X6553Y39261D01*
X6610D01*
X6694Y39290D01*
X6750Y39374D01*
X6778Y39515D01*
Y39599D01*
X6750Y39739D01*
X6694Y39824D01*
X6610Y39852D01*
X6553D01*
X6910Y39655D02*
Y39374D01*
X6938Y39290D01*
X6995Y39261D01*
X7079D01*
X7135Y39290D01*
X7220Y39374D01*
Y39655D02*
Y39261D01*
X7374Y39655D02*
Y39261D01*
Y39543D02*
X7459Y39627D01*
X7515Y39655D01*
X7599D01*
X7655Y39627D01*
X7684Y39543D01*
Y39261D01*
Y39543D02*
X7768Y39627D01*
X7824Y39655D01*
X7908D01*
X7965Y39627D01*
X7993Y39543D01*
Y39261D01*
X8839Y39852D02*
Y39261D01*
X8642Y39852D02*
X9036D01*
X9106D02*
Y39261D01*
X9500Y39852D02*
Y39261D01*
X9106Y39571D02*
X9500D01*
X9663Y39852D02*
Y39261D01*
X10057Y39852D02*
X9663Y39458D01*
X9803Y39599D02*
X10057Y39261D01*
X10245Y39290D02*
X10217Y39261D01*
X10189Y39290D01*
X10217Y39318D01*
X10245Y39290D01*
Y39233D01*
X10217Y39177D01*
X10189Y39149D01*
X11035Y39852D02*
Y39261D01*
X10838Y39852D02*
X11232D01*
X11471D02*
X11414Y39824D01*
X11358Y39768D01*
X11330Y39711D01*
X11302Y39627D01*
Y39486D01*
X11330Y39402D01*
X11358Y39346D01*
X11414Y39290D01*
X11471Y39261D01*
X11583D01*
X11639Y39290D01*
X11696Y39346D01*
X11724Y39402D01*
X11752Y39486D01*
Y39627D01*
X11724Y39711D01*
X11696Y39768D01*
X11639Y39824D01*
X11583Y39852D01*
X11471D01*
X11890Y39543D02*
X12143D01*
X12227Y39571D01*
X12255Y39599D01*
X12283Y39655D01*
Y39739D01*
X12255Y39796D01*
X12227Y39824D01*
X12143Y39852D01*
X11890D01*
Y39261D01*
X13273Y39768D02*
X13217Y39824D01*
X13132Y39852D01*
X13020D01*
X12936Y39824D01*
X12879Y39768D01*
Y39711D01*
X12907Y39655D01*
X12936Y39627D01*
X12992Y39599D01*
X13160Y39543D01*
X13217Y39515D01*
X13245Y39486D01*
X13273Y39430D01*
Y39346D01*
X13217Y39290D01*
X13132Y39261D01*
X13020D01*
X12936Y39290D01*
X12879Y39346D01*
X13405Y39852D02*
Y39261D01*
X13529Y39852D02*
Y39261D01*
Y39852D02*
X13726D01*
X13810Y39824D01*
X13866Y39768D01*
X13894Y39711D01*
X13922Y39627D01*
Y39486D01*
X13894Y39402D01*
X13866Y39346D01*
X13810Y39290D01*
X13726Y39261D01*
X13529D01*
X14420Y39852D02*
X14055D01*
Y39261D01*
X14420D01*
X14055Y39571D02*
X14279D01*
X14575Y39290D02*
X14547Y39261D01*
X14518Y39290D01*
X14547Y39318D01*
X14575Y39290D01*
Y39233D01*
X14547Y39177D01*
X14518Y39149D01*
X15618Y39261D02*
X15393Y39852D01*
X15168Y39261D01*
X15252Y39458D02*
X15533D01*
X15756Y39852D02*
Y39261D01*
Y39852D02*
X16121D01*
X15756Y39571D02*
X15980D01*
X16385Y39852D02*
Y39261D01*
X16188Y39852D02*
X16582D01*
X17018D02*
X16652D01*
Y39261D01*
X17018D01*
X16652Y39571D02*
X16877D01*
X17116Y39852D02*
Y39261D01*
Y39852D02*
X17369D01*
X17454Y39824D01*
X17482Y39796D01*
X17510Y39739D01*
Y39683D01*
X17482Y39627D01*
X17454Y39599D01*
X17369Y39571D01*
X17116D01*
X17313D02*
X17510Y39261D01*
X18106Y39543D02*
X18359D01*
X18443Y39571D01*
X18471Y39599D01*
X18500Y39655D01*
Y39739D01*
X18471Y39796D01*
X18443Y39824D01*
X18359Y39852D01*
X18106D01*
Y39261D01*
X18632Y39852D02*
Y39261D01*
X18969D01*
X19484D02*
X19259Y39852D01*
X19034Y39261D01*
X19118Y39458D02*
X19399D01*
X19818Y39852D02*
Y39261D01*
X19621Y39852D02*
X20015D01*
X20085D02*
Y39261D01*
X20209Y39852D02*
Y39261D01*
Y39852D02*
X20603Y39261D01*
Y39852D02*
Y39261D01*
X21187Y39711D02*
X21159Y39768D01*
X21103Y39824D01*
X21047Y39852D01*
X20934D01*
X20878Y39824D01*
X20822Y39768D01*
X20794Y39711D01*
X20766Y39627D01*
Y39486D01*
X20794Y39402D01*
X20822Y39346D01*
X20878Y39290D01*
X20934Y39261D01*
X21047D01*
X21103Y39290D01*
X21159Y39346D01*
X21187Y39402D01*
Y39486D01*
X21047D02*
X21187D01*
X21350Y39318D02*
X21322Y39290D01*
X21350Y39261D01*
X21379Y39290D01*
X21350Y39318D01*
X21972Y39852D02*
Y39261D01*
Y39852D02*
X22225D01*
X22309Y39824D01*
X22337Y39796D01*
X22365Y39739D01*
Y39683D01*
X22337Y39627D01*
X22309Y39599D01*
X22225Y39571D01*
X21972D01*
X22169D02*
X22365Y39261D01*
X22863Y39852D02*
X22498D01*
Y39261D01*
X22863D01*
X22498Y39571D02*
X22723D01*
X23383Y39711D02*
X23355Y39768D01*
X23299Y39824D01*
X23243Y39852D01*
X23130D01*
X23074Y39824D01*
X23018Y39768D01*
X22990Y39711D01*
X22961Y39627D01*
Y39486D01*
X22990Y39402D01*
X23018Y39346D01*
X23074Y39290D01*
X23130Y39261D01*
X23243D01*
X23299Y39290D01*
X23355Y39346D01*
X23383Y39402D01*
Y39486D01*
X23243D02*
X23383D01*
X23518Y39852D02*
Y39261D01*
X24036Y39768D02*
X23979Y39824D01*
X23895Y39852D01*
X23782D01*
X23698Y39824D01*
X23642Y39768D01*
Y39711D01*
X23670Y39655D01*
X23698Y39627D01*
X23754Y39599D01*
X23923Y39543D01*
X23979Y39515D01*
X24007Y39486D01*
X24036Y39430D01*
Y39346D01*
X23979Y39290D01*
X23895Y39261D01*
X23782D01*
X23698Y39290D01*
X23642Y39346D01*
X24364Y39852D02*
Y39261D01*
X24168Y39852D02*
X24561D01*
X24632D02*
Y39261D01*
Y39852D02*
X24885D01*
X24969Y39824D01*
X24997Y39796D01*
X25025Y39739D01*
Y39683D01*
X24997Y39627D01*
X24969Y39599D01*
X24885Y39571D01*
X24632D01*
X24828D02*
X25025Y39261D01*
X25607D02*
X25382Y39852D01*
X25157Y39261D01*
X25242Y39458D02*
X25523D01*
X25942Y39852D02*
Y39261D01*
X25745Y39852D02*
X26139D01*
X26209D02*
Y39261D01*
X26501Y39852D02*
X26445Y39824D01*
X26389Y39768D01*
X26361Y39711D01*
X26333Y39627D01*
Y39486D01*
X26361Y39402D01*
X26389Y39346D01*
X26445Y39290D01*
X26501Y39261D01*
X26614D01*
X26670Y39290D01*
X26726Y39346D01*
X26754Y39402D01*
X26782Y39486D01*
Y39627D01*
X26754Y39711D01*
X26726Y39768D01*
X26670Y39824D01*
X26614Y39852D01*
X26501D01*
X26920D02*
Y39261D01*
Y39852D02*
X27314Y39261D01*
Y39852D02*
Y39261D01*
X28138Y39852D02*
Y39261D01*
X27941Y39852D02*
X28334D01*
X28573D02*
X28517Y39824D01*
X28461Y39768D01*
X28433Y39711D01*
X28405Y39627D01*
Y39486D01*
X28433Y39402D01*
X28461Y39346D01*
X28517Y39290D01*
X28573Y39261D01*
X28686D01*
X28742Y39290D01*
X28798Y39346D01*
X28826Y39402D01*
X28854Y39486D01*
Y39627D01*
X28826Y39711D01*
X28798Y39768D01*
X28742Y39824D01*
X28686Y39852D01*
X28573D01*
X29456D02*
Y39261D01*
Y39852D02*
X29709D01*
X29794Y39824D01*
X29822Y39796D01*
X29850Y39739D01*
Y39683D01*
X29822Y39627D01*
X29794Y39599D01*
X29709Y39571D01*
X29456D02*
X29709D01*
X29794Y39543D01*
X29822Y39515D01*
X29850Y39458D01*
Y39374D01*
X29822Y39318D01*
X29794Y39290D01*
X29709Y39261D01*
X29456D01*
X30347Y39852D02*
X29982D01*
Y39261D01*
X30347D01*
X29982Y39571D02*
X30207D01*
X30910Y39852D02*
X31050Y39261D01*
X31191Y39852D02*
X31050Y39261D01*
X31191Y39852D02*
X31331Y39261D01*
X31472Y39852D02*
X31331Y39261D01*
X31590Y39852D02*
Y39261D01*
X31911Y39852D02*
Y39261D01*
X31714Y39852D02*
X32107D01*
X32178D02*
Y39261D01*
X32571Y39852D02*
Y39261D01*
X32178Y39571D02*
X32571D01*
X32734Y39852D02*
Y39261D01*
X32858Y39852D02*
Y39261D01*
Y39852D02*
X33252Y39261D01*
Y39852D02*
Y39261D01*
X34132Y39768D02*
Y39261D01*
X33879Y39515D02*
X34385D01*
X34559Y39177D02*
X34953Y39852D01*
X34992Y39515D02*
X35498D01*
X36474Y39852D02*
X36193D01*
X36165Y39599D01*
X36193Y39627D01*
X36277Y39655D01*
X36361D01*
X36446Y39627D01*
X36502Y39571D01*
X36530Y39486D01*
Y39430D01*
X36502Y39346D01*
X36446Y39290D01*
X36361Y39261D01*
X36277D01*
X36193Y39290D01*
X36165Y39318D01*
X36136Y39374D01*
X36831Y39852D02*
X36746Y39824D01*
X36690Y39739D01*
X36662Y39599D01*
Y39515D01*
X36690Y39374D01*
X36746Y39290D01*
X36831Y39261D01*
X36887D01*
X36971Y39290D01*
X37028Y39374D01*
X37056Y39515D01*
Y39599D01*
X37028Y39739D01*
X36971Y39824D01*
X36887Y39852D01*
X36831D01*
X37188Y39655D02*
Y39374D01*
X37216Y39290D01*
X37272Y39261D01*
X37357D01*
X37413Y39290D01*
X37497Y39374D01*
Y39655D02*
Y39261D01*
X37652Y39655D02*
Y39261D01*
Y39543D02*
X37736Y39627D01*
X37792Y39655D01*
X37877D01*
X37933Y39627D01*
X37961Y39543D01*
Y39261D01*
Y39543D02*
X38045Y39627D01*
X38102Y39655D01*
X38186D01*
X38242Y39627D01*
X38270Y39543D01*
Y39261D01*
X-2199Y38852D02*
X-2255Y38824D01*
X-2311Y38768D01*
X-2340Y38711D01*
X-2368Y38627D01*
Y38486D01*
X-2340Y38402D01*
X-2311Y38346D01*
X-2255Y38290D01*
X-2199Y38261D01*
X-2087D01*
X-2030Y38290D01*
X-1974Y38346D01*
X-1946Y38402D01*
X-1918Y38486D01*
Y38627D01*
X-1946Y38711D01*
X-1974Y38768D01*
X-2030Y38824D01*
X-2087Y38852D01*
X-2199D01*
X-1780D02*
Y38261D01*
Y38852D02*
X-1415D01*
X-1780Y38571D02*
X-1555D01*
X-686Y38852D02*
Y38261D01*
X-883Y38852D02*
X-490D01*
X-419D02*
Y38261D01*
X-26Y38852D02*
Y38261D01*
X-419Y38571D02*
X-26D01*
X503Y38852D02*
X137D01*
Y38261D01*
X503D01*
X137Y38571D02*
X362D01*
X1515Y38261D02*
X1290Y38852D01*
X1065Y38261D01*
X1150Y38458D02*
X1431D01*
X2046Y38768D02*
X1990Y38824D01*
X1906Y38852D01*
X1793D01*
X1709Y38824D01*
X1653Y38768D01*
Y38711D01*
X1681Y38655D01*
X1709Y38627D01*
X1765Y38599D01*
X1934Y38543D01*
X1990Y38515D01*
X2018Y38486D01*
X2046Y38430D01*
Y38346D01*
X1990Y38290D01*
X1906Y38261D01*
X1793D01*
X1709Y38290D01*
X1653Y38346D01*
X2572Y38768D02*
X2516Y38824D01*
X2432Y38852D01*
X2319D01*
X2235Y38824D01*
X2179Y38768D01*
Y38711D01*
X2207Y38655D01*
X2235Y38627D01*
X2291Y38599D01*
X2460Y38543D01*
X2516Y38515D01*
X2544Y38486D01*
X2572Y38430D01*
Y38346D01*
X2516Y38290D01*
X2432Y38261D01*
X2319D01*
X2235Y38290D01*
X2179Y38346D01*
X2873Y38852D02*
X2817Y38824D01*
X2761Y38768D01*
X2732Y38711D01*
X2704Y38627D01*
Y38486D01*
X2732Y38402D01*
X2761Y38346D01*
X2817Y38290D01*
X2873Y38261D01*
X2985D01*
X3042Y38290D01*
X3098Y38346D01*
X3126Y38402D01*
X3154Y38486D01*
Y38627D01*
X3126Y38711D01*
X3098Y38768D01*
X3042Y38824D01*
X2985Y38852D01*
X2873D01*
X3714Y38711D02*
X3686Y38768D01*
X3629Y38824D01*
X3573Y38852D01*
X3461D01*
X3404Y38824D01*
X3348Y38768D01*
X3320Y38711D01*
X3292Y38627D01*
Y38486D01*
X3320Y38402D01*
X3348Y38346D01*
X3404Y38290D01*
X3461Y38261D01*
X3573D01*
X3629Y38290D01*
X3686Y38346D01*
X3714Y38402D01*
X3880Y38852D02*
Y38261D01*
X4453D02*
X4228Y38852D01*
X4003Y38261D01*
X4088Y38458D02*
X4369D01*
X4788Y38852D02*
Y38261D01*
X4591Y38852D02*
X4984D01*
X5420D02*
X5055D01*
Y38261D01*
X5420D01*
X5055Y38571D02*
X5280D01*
X5519Y38852D02*
Y38261D01*
Y38852D02*
X5715D01*
X5800Y38824D01*
X5856Y38768D01*
X5884Y38711D01*
X5912Y38627D01*
Y38486D01*
X5884Y38402D01*
X5856Y38346D01*
X5800Y38290D01*
X5715Y38261D01*
X5519D01*
X6930Y38711D02*
X6902Y38768D01*
X6846Y38824D01*
X6789Y38852D01*
X6677D01*
X6621Y38824D01*
X6565Y38768D01*
X6536Y38711D01*
X6508Y38627D01*
Y38486D01*
X6536Y38402D01*
X6565Y38346D01*
X6621Y38290D01*
X6677Y38261D01*
X6789D01*
X6846Y38290D01*
X6902Y38346D01*
X6930Y38402D01*
X7096Y38852D02*
Y38261D01*
X7220Y38852D02*
Y38261D01*
Y38852D02*
X7473D01*
X7557Y38824D01*
X7585Y38796D01*
X7613Y38739D01*
Y38683D01*
X7585Y38627D01*
X7557Y38599D01*
X7473Y38571D01*
X7220D01*
X7416D02*
X7613Y38261D01*
X8167Y38711D02*
X8139Y38768D01*
X8083Y38824D01*
X8027Y38852D01*
X7914D01*
X7858Y38824D01*
X7802Y38768D01*
X7774Y38711D01*
X7745Y38627D01*
Y38486D01*
X7774Y38402D01*
X7802Y38346D01*
X7858Y38290D01*
X7914Y38261D01*
X8027D01*
X8083Y38290D01*
X8139Y38346D01*
X8167Y38402D01*
X8333Y38852D02*
Y38430D01*
X8361Y38346D01*
X8417Y38290D01*
X8502Y38261D01*
X8558D01*
X8642Y38290D01*
X8699Y38346D01*
X8727Y38430D01*
Y38852D01*
X8890D02*
Y38261D01*
X9210Y38852D02*
Y38261D01*
X9013Y38852D02*
X9407D01*
X9941D02*
Y38261D01*
X10279D01*
X10793D02*
X10568Y38852D01*
X10343Y38261D01*
X10428Y38458D02*
X10709D01*
X10931Y38852D02*
X11156Y38571D01*
Y38261D01*
X11381Y38852D02*
X11156Y38571D01*
X11822Y38852D02*
X11457D01*
Y38261D01*
X11822D01*
X11457Y38571D02*
X11682D01*
X11921Y38852D02*
Y38261D01*
Y38852D02*
X12174D01*
X12258Y38824D01*
X12286Y38796D01*
X12314Y38739D01*
Y38683D01*
X12286Y38627D01*
X12258Y38599D01*
X12174Y38571D01*
X11921D01*
X12117D02*
X12314Y38261D01*
X12474Y38318D02*
X12446Y38290D01*
X12474Y38261D01*
X12503Y38290D01*
X12474Y38318D01*
X-3030Y42852D02*
X-3311D01*
X-3340Y42599D01*
X-3311Y42627D01*
X-3227Y42655D01*
X-3143D01*
X-3058Y42627D01*
X-3002Y42571D01*
X-2974Y42486D01*
Y42430D01*
X-3002Y42346D01*
X-3058Y42290D01*
X-3143Y42262D01*
X-3227D01*
X-3311Y42290D01*
X-3340Y42318D01*
X-3368Y42374D01*
X-2814Y42318D02*
X-2842Y42290D01*
X-2814Y42262D01*
X-2786Y42290D01*
X-2814Y42318D01*
X-2192Y42852D02*
Y42262D01*
Y42852D02*
X-1827D01*
X-2192Y42571D02*
X-1968D01*
X-1760Y42852D02*
Y42262D01*
X-1636Y42852D02*
Y42262D01*
Y42852D02*
X-1242Y42262D01*
Y42852D02*
Y42262D01*
X-1079Y42852D02*
Y42262D01*
X-562Y42768D02*
X-618Y42824D01*
X-702Y42852D01*
X-815D01*
X-899Y42824D01*
X-955Y42768D01*
Y42711D01*
X-927Y42655D01*
X-899Y42627D01*
X-843Y42599D01*
X-674Y42543D01*
X-618Y42515D01*
X-590Y42486D01*
X-562Y42430D01*
Y42346D01*
X-618Y42290D01*
X-702Y42262D01*
X-815D01*
X-899Y42290D01*
X-955Y42346D01*
X-430Y42852D02*
Y42262D01*
X-36Y42852D02*
Y42262D01*
X-430Y42571D02*
X-36D01*
X155Y42655D02*
X127Y42627D01*
X155Y42599D01*
X183Y42627D01*
X155Y42655D01*
Y42318D02*
X127Y42290D01*
X155Y42262D01*
X183Y42290D01*
X155Y42318D01*
X777Y42852D02*
Y42262D01*
X900Y42852D02*
Y42262D01*
Y42852D02*
X1125Y42262D01*
X1350Y42852D02*
X1125Y42262D01*
X1350Y42852D02*
Y42262D01*
X1519Y42852D02*
Y42262D01*
Y42852D02*
X1744Y42262D01*
X1969Y42852D02*
X1744Y42262D01*
X1969Y42852D02*
Y42262D01*
X2503Y42852D02*
X2137D01*
Y42262D01*
X2503D01*
X2137Y42571D02*
X2362D01*
X2601Y42852D02*
Y42262D01*
Y42852D02*
X2854D01*
X2939Y42824D01*
X2967Y42796D01*
X2995Y42739D01*
Y42683D01*
X2967Y42627D01*
X2939Y42599D01*
X2854Y42571D01*
X2601D01*
X2798D02*
X2995Y42262D01*
X3521Y42768D02*
X3464Y42824D01*
X3380Y42852D01*
X3268D01*
X3183Y42824D01*
X3127Y42768D01*
Y42711D01*
X3155Y42655D01*
X3183Y42627D01*
X3239Y42599D01*
X3408Y42543D01*
X3464Y42515D01*
X3492Y42486D01*
X3521Y42430D01*
Y42346D01*
X3464Y42290D01*
X3380Y42262D01*
X3268D01*
X3183Y42290D01*
X3127Y42346D01*
X3653Y42852D02*
Y42262D01*
X3945Y42852D02*
X3889Y42824D01*
X3833Y42768D01*
X3805Y42711D01*
X3776Y42627D01*
Y42486D01*
X3805Y42402D01*
X3833Y42346D01*
X3889Y42290D01*
X3945Y42262D01*
X4058D01*
X4114Y42290D01*
X4170Y42346D01*
X4198Y42402D01*
X4226Y42486D01*
Y42627D01*
X4198Y42711D01*
X4170Y42768D01*
X4114Y42824D01*
X4058Y42852D01*
X3945D01*
X4364D02*
Y42262D01*
Y42852D02*
X4758Y42262D01*
Y42852D02*
Y42262D01*
X5385Y42543D02*
X5638D01*
X5722Y42571D01*
X5750Y42599D01*
X5778Y42655D01*
Y42739D01*
X5750Y42796D01*
X5722Y42824D01*
X5638Y42852D01*
X5385D01*
Y42262D01*
X5910Y42852D02*
Y42262D01*
X6248D01*
X6762D02*
X6537Y42852D01*
X6312Y42262D01*
X6397Y42458D02*
X6678D01*
X7097Y42852D02*
Y42262D01*
X6900Y42852D02*
X7294D01*
X7729D02*
X7364D01*
Y42262D01*
X7729D01*
X7364Y42571D02*
X7589D01*
X8657Y42852D02*
X8292D01*
Y42262D01*
X8657D01*
X8292Y42571D02*
X8517D01*
X8756Y42852D02*
X9149Y42262D01*
Y42852D02*
X8756Y42262D01*
X9281Y42543D02*
X9534D01*
X9619Y42571D01*
X9647Y42599D01*
X9675Y42655D01*
Y42739D01*
X9647Y42796D01*
X9619Y42824D01*
X9534Y42852D01*
X9281D01*
Y42262D01*
X9976Y42852D02*
X9920Y42824D01*
X9863Y42768D01*
X9835Y42711D01*
X9807Y42627D01*
Y42486D01*
X9835Y42402D01*
X9863Y42346D01*
X9920Y42290D01*
X9976Y42262D01*
X10088D01*
X10145Y42290D01*
X10201Y42346D01*
X10229Y42402D01*
X10257Y42486D01*
Y42627D01*
X10229Y42711D01*
X10201Y42768D01*
X10145Y42824D01*
X10088Y42852D01*
X9976D01*
X10788Y42768D02*
X10732Y42824D01*
X10648Y42852D01*
X10535D01*
X10451Y42824D01*
X10395Y42768D01*
Y42711D01*
X10423Y42655D01*
X10451Y42627D01*
X10507Y42599D01*
X10676Y42543D01*
X10732Y42515D01*
X10760Y42486D01*
X10788Y42430D01*
Y42346D01*
X10732Y42290D01*
X10648Y42262D01*
X10535D01*
X10451Y42290D01*
X10395Y42346D01*
X11286Y42852D02*
X10921D01*
Y42262D01*
X11286D01*
X10921Y42571D02*
X11145D01*
X11384Y42852D02*
Y42262D01*
Y42852D02*
X11581D01*
X11666Y42824D01*
X11722Y42768D01*
X11750Y42711D01*
X11778Y42627D01*
Y42486D01*
X11750Y42402D01*
X11722Y42346D01*
X11666Y42290D01*
X11581Y42262D01*
X11384D01*
X12824D02*
X12599Y42852D01*
X12374Y42262D01*
X12458Y42458D02*
X12740D01*
X12962Y42852D02*
Y42262D01*
Y42852D02*
X13215D01*
X13299Y42824D01*
X13327Y42796D01*
X13355Y42739D01*
Y42683D01*
X13327Y42627D01*
X13299Y42599D01*
X13215Y42571D01*
X12962D01*
X13159D02*
X13355Y42262D01*
X13853Y42852D02*
X13487D01*
Y42262D01*
X13853D01*
X13487Y42571D02*
X13712D01*
X14401Y42262D02*
X14176Y42852D01*
X13951Y42262D01*
X14036Y42458D02*
X14317D01*
X14933Y42768D02*
X14876Y42824D01*
X14792Y42852D01*
X14680D01*
X14595Y42824D01*
X14539Y42768D01*
Y42711D01*
X14567Y42655D01*
X14595Y42627D01*
X14651Y42599D01*
X14820Y42543D01*
X14876Y42515D01*
X14905Y42486D01*
X14933Y42430D01*
Y42346D01*
X14876Y42290D01*
X14792Y42262D01*
X14680D01*
X14595Y42290D01*
X14539Y42346D01*
X15979Y42262D02*
X15754Y42852D01*
X15529Y42262D01*
X15613Y42458D02*
X15894D01*
X16116Y42852D02*
Y42262D01*
Y42852D02*
X16482D01*
X16116Y42571D02*
X16341D01*
X16746Y42852D02*
Y42262D01*
X16549Y42852D02*
X16943D01*
X17379D02*
X17013D01*
Y42262D01*
X17379D01*
X17013Y42571D02*
X17238D01*
X17477Y42852D02*
Y42262D01*
Y42852D02*
X17730D01*
X17814Y42824D01*
X17843Y42796D01*
X17871Y42739D01*
Y42683D01*
X17843Y42627D01*
X17814Y42599D01*
X17730Y42571D01*
X17477D01*
X17674D02*
X17871Y42262D01*
X18917D02*
X18692Y42852D01*
X18467Y42262D01*
X18551Y42458D02*
X18832D01*
X19054Y42543D02*
X19307D01*
X19392Y42571D01*
X19420Y42599D01*
X19448Y42655D01*
Y42739D01*
X19420Y42796D01*
X19392Y42824D01*
X19307Y42852D01*
X19054D01*
Y42262D01*
X19580Y42543D02*
X19833D01*
X19918Y42571D01*
X19946Y42599D01*
X19974Y42655D01*
Y42739D01*
X19946Y42796D01*
X19918Y42824D01*
X19833Y42852D01*
X19580D01*
Y42262D01*
X20106Y42852D02*
Y42262D01*
X20443D01*
X20508Y42852D02*
X20733Y42571D01*
Y42262D01*
X20958Y42852D02*
X20733Y42571D01*
X21034Y42852D02*
Y42262D01*
X21157Y42852D02*
Y42262D01*
Y42852D02*
X21551Y42262D01*
Y42852D02*
Y42262D01*
X22136Y42711D02*
X22108Y42768D01*
X22051Y42824D01*
X21995Y42852D01*
X21883D01*
X21827Y42824D01*
X21770Y42768D01*
X21742Y42711D01*
X21714Y42627D01*
Y42486D01*
X21742Y42402D01*
X21770Y42346D01*
X21827Y42290D01*
X21883Y42262D01*
X21995D01*
X22051Y42290D01*
X22108Y42346D01*
X22136Y42402D01*
Y42486D01*
X21995D02*
X22136D01*
X23128Y42768D02*
X23072Y42824D01*
X22988Y42852D01*
X22875D01*
X22791Y42824D01*
X22735Y42768D01*
Y42711D01*
X22763Y42655D01*
X22791Y42627D01*
X22847Y42599D01*
X23016Y42543D01*
X23072Y42515D01*
X23100Y42486D01*
X23128Y42430D01*
Y42346D01*
X23072Y42290D01*
X22988Y42262D01*
X22875D01*
X22791Y42290D01*
X22735Y42346D01*
X23429Y42852D02*
X23373Y42824D01*
X23317Y42768D01*
X23289Y42711D01*
X23260Y42627D01*
Y42486D01*
X23289Y42402D01*
X23317Y42346D01*
X23373Y42290D01*
X23429Y42262D01*
X23542D01*
X23598Y42290D01*
X23654Y42346D01*
X23682Y42402D01*
X23710Y42486D01*
Y42627D01*
X23682Y42711D01*
X23654Y42768D01*
X23598Y42824D01*
X23542Y42852D01*
X23429D01*
X23848D02*
Y42262D01*
X24185D01*
X24250Y42852D02*
Y42262D01*
Y42852D02*
X24447D01*
X24531Y42824D01*
X24587Y42768D01*
X24616Y42711D01*
X24644Y42627D01*
Y42486D01*
X24616Y42402D01*
X24587Y42346D01*
X24531Y42290D01*
X24447Y42262D01*
X24250D01*
X25141Y42852D02*
X24776D01*
Y42262D01*
X25141D01*
X24776Y42571D02*
X25001D01*
X25240Y42852D02*
Y42262D01*
Y42852D02*
X25493D01*
X25577Y42824D01*
X25605Y42796D01*
X25633Y42739D01*
Y42683D01*
X25605Y42627D01*
X25577Y42599D01*
X25493Y42571D01*
X25240D01*
X25437D02*
X25633Y42262D01*
X26229Y42852D02*
Y42262D01*
Y42852D02*
X26454Y42262D01*
X26679Y42852D02*
X26454Y42262D01*
X26679Y42852D02*
Y42262D01*
X27298D02*
X27073Y42852D01*
X26848Y42262D01*
X26932Y42458D02*
X27213D01*
X27829Y42768D02*
X27773Y42824D01*
X27689Y42852D01*
X27576D01*
X27492Y42824D01*
X27436Y42768D01*
Y42711D01*
X27464Y42655D01*
X27492Y42627D01*
X27548Y42599D01*
X27717Y42543D01*
X27773Y42515D01*
X27801Y42486D01*
X27829Y42430D01*
Y42346D01*
X27773Y42290D01*
X27689Y42262D01*
X27576D01*
X27492Y42290D01*
X27436Y42346D01*
X27961Y42852D02*
Y42262D01*
X28355Y42852D02*
X27961Y42458D01*
X28102Y42599D02*
X28355Y42262D01*
X28951Y42852D02*
X29092Y42262D01*
X29232Y42852D02*
X29092Y42262D01*
X29232Y42852D02*
X29373Y42262D01*
X29513Y42852D02*
X29373Y42262D01*
X29631Y42852D02*
Y42262D01*
X29952Y42852D02*
Y42262D01*
X29755Y42852D02*
X30149D01*
X30219D02*
Y42262D01*
X30613Y42852D02*
Y42262D01*
X30219Y42571D02*
X30613D01*
X31605Y42852D02*
X31240D01*
Y42262D01*
X31605D01*
X31240Y42571D02*
X31465D01*
X31704Y42852D02*
Y42262D01*
X32041D01*
X32471Y42852D02*
X32106D01*
Y42262D01*
X32471D01*
X32106Y42571D02*
X32330D01*
X32991Y42711D02*
X32963Y42768D01*
X32907Y42824D01*
X32851Y42852D01*
X32738D01*
X32682Y42824D01*
X32626Y42768D01*
X32598Y42711D01*
X32569Y42627D01*
Y42486D01*
X32598Y42402D01*
X32626Y42346D01*
X32682Y42290D01*
X32738Y42262D01*
X32851D01*
X32907Y42290D01*
X32963Y42346D01*
X32991Y42402D01*
X33354Y42852D02*
Y42262D01*
X33157Y42852D02*
X33551D01*
X33621D02*
Y42262D01*
Y42852D02*
X33874D01*
X33958Y42824D01*
X33986Y42796D01*
X34015Y42739D01*
Y42683D01*
X33986Y42627D01*
X33958Y42599D01*
X33874Y42571D01*
X33621D01*
X33818D02*
X34015Y42262D01*
X34315Y42852D02*
X34259Y42824D01*
X34203Y42768D01*
X34175Y42711D01*
X34147Y42627D01*
Y42486D01*
X34175Y42402D01*
X34203Y42346D01*
X34259Y42290D01*
X34315Y42262D01*
X34428D01*
X34484Y42290D01*
X34540Y42346D01*
X34568Y42402D01*
X34597Y42486D01*
Y42627D01*
X34568Y42711D01*
X34540Y42768D01*
X34484Y42824D01*
X34428Y42852D01*
X34315D01*
X34734D02*
Y42262D01*
X35072D01*
X35502Y42852D02*
X35136D01*
Y42262D01*
X35502D01*
X35136Y42571D02*
X35361D01*
X35994Y42768D02*
X35938Y42824D01*
X35853Y42852D01*
X35741D01*
X35657Y42824D01*
X35600Y42768D01*
Y42711D01*
X35628Y42655D01*
X35657Y42627D01*
X35713Y42599D01*
X35881Y42543D01*
X35938Y42515D01*
X35966Y42486D01*
X35994Y42430D01*
Y42346D01*
X35938Y42290D01*
X35853Y42262D01*
X35741D01*
X35657Y42290D01*
X35600Y42346D01*
X36520Y42768D02*
X36463Y42824D01*
X36379Y42852D01*
X36267D01*
X36182Y42824D01*
X36126Y42768D01*
Y42711D01*
X36154Y42655D01*
X36182Y42627D01*
X36239Y42599D01*
X36407Y42543D01*
X36463Y42515D01*
X36492Y42486D01*
X36520Y42430D01*
Y42346D01*
X36463Y42290D01*
X36379Y42262D01*
X36267D01*
X36182Y42290D01*
X36126Y42346D01*
X37116Y42852D02*
Y42262D01*
Y42852D02*
X37509Y42262D01*
Y42852D02*
Y42262D01*
X37672Y42852D02*
Y42262D01*
X38218Y42711D02*
X38190Y42768D01*
X38134Y42824D01*
X38077Y42852D01*
X37965D01*
X37909Y42824D01*
X37852Y42768D01*
X37824Y42711D01*
X37796Y42627D01*
Y42486D01*
X37824Y42402D01*
X37852Y42346D01*
X37909Y42290D01*
X37965Y42262D01*
X38077D01*
X38134Y42290D01*
X38190Y42346D01*
X38218Y42402D01*
X38384Y42852D02*
Y42262D01*
X38777Y42852D02*
X38384Y42458D01*
X38524Y42599D02*
X38777Y42262D01*
X39275Y42852D02*
X38909D01*
Y42262D01*
X39275D01*
X38909Y42571D02*
X39134D01*
X39373Y42852D02*
Y42262D01*
X39711D01*
X40239Y42852D02*
Y42262D01*
X40363Y42852D02*
Y42262D01*
Y42852D02*
X40588Y42262D01*
X40813Y42852D02*
X40588Y42262D01*
X40813Y42852D02*
Y42262D01*
X40982Y42852D02*
Y42262D01*
Y42852D02*
X41207Y42262D01*
X41431Y42852D02*
X41207Y42262D01*
X41431Y42852D02*
Y42262D01*
X41966Y42852D02*
X41600D01*
Y42262D01*
X41966D01*
X41600Y42571D02*
X41825D01*
X42064Y42852D02*
Y42262D01*
Y42852D02*
X42317D01*
X42401Y42824D01*
X42430Y42796D01*
X42458Y42739D01*
Y42683D01*
X42430Y42627D01*
X42401Y42599D01*
X42317Y42571D01*
X42064D01*
X42261D02*
X42458Y42262D01*
X42983Y42768D02*
X42927Y42824D01*
X42843Y42852D01*
X42730D01*
X42646Y42824D01*
X42590Y42768D01*
Y42711D01*
X42618Y42655D01*
X42646Y42627D01*
X42702Y42599D01*
X42871Y42543D01*
X42927Y42515D01*
X42955Y42486D01*
X42983Y42430D01*
Y42346D01*
X42927Y42290D01*
X42843Y42262D01*
X42730D01*
X42646Y42290D01*
X42590Y42346D01*
X43116Y42852D02*
Y42262D01*
X43408Y42852D02*
X43352Y42824D01*
X43295Y42768D01*
X43267Y42711D01*
X43239Y42627D01*
Y42486D01*
X43267Y42402D01*
X43295Y42346D01*
X43352Y42290D01*
X43408Y42262D01*
X43520D01*
X43577Y42290D01*
X43633Y42346D01*
X43661Y42402D01*
X43689Y42486D01*
Y42627D01*
X43661Y42711D01*
X43633Y42768D01*
X43577Y42824D01*
X43520Y42852D01*
X43408D01*
X43827D02*
Y42262D01*
Y42852D02*
X44220Y42262D01*
Y42852D02*
Y42262D01*
X45269Y42711D02*
X45241Y42768D01*
X45185Y42824D01*
X45129Y42852D01*
X45016D01*
X44960Y42824D01*
X44904Y42768D01*
X44876Y42711D01*
X44847Y42627D01*
Y42486D01*
X44876Y42402D01*
X44904Y42346D01*
X44960Y42290D01*
X45016Y42262D01*
X45129D01*
X45185Y42290D01*
X45241Y42346D01*
X45269Y42402D01*
Y42486D01*
X45129D02*
X45269D01*
X45573Y42852D02*
X45517Y42824D01*
X45460Y42768D01*
X45432Y42711D01*
X45404Y42627D01*
Y42486D01*
X45432Y42402D01*
X45460Y42346D01*
X45517Y42290D01*
X45573Y42262D01*
X45685D01*
X45742Y42290D01*
X45798Y42346D01*
X45826Y42402D01*
X45854Y42486D01*
Y42627D01*
X45826Y42711D01*
X45798Y42768D01*
X45742Y42824D01*
X45685Y42852D01*
X45573D01*
X45992D02*
Y42262D01*
X46329D01*
X46394Y42852D02*
Y42262D01*
Y42852D02*
X46591D01*
X46675Y42824D01*
X46731Y42768D01*
X46759Y42711D01*
X46787Y42627D01*
Y42486D01*
X46759Y42402D01*
X46731Y42346D01*
X46675Y42290D01*
X46591Y42262D01*
X46394D01*
X-3087Y44852D02*
X-3368Y44458D01*
X-2946D01*
X-3087Y44852D02*
Y44261D01*
X-2814Y44318D02*
X-2842Y44290D01*
X-2814Y44261D01*
X-2786Y44290D01*
X-2814Y44318D01*
X-1996Y44852D02*
Y44261D01*
X-2192Y44852D02*
X-1799D01*
X-1729D02*
Y44261D01*
X-1335Y44852D02*
Y44261D01*
X-1729Y44571D02*
X-1335D01*
X-1172Y44852D02*
Y44261D01*
X-626Y44711D02*
X-655Y44768D01*
X-711Y44824D01*
X-767Y44852D01*
X-879D01*
X-936Y44824D01*
X-992Y44768D01*
X-1020Y44711D01*
X-1048Y44627D01*
Y44486D01*
X-1020Y44402D01*
X-992Y44346D01*
X-936Y44290D01*
X-879Y44261D01*
X-767D01*
X-711Y44290D01*
X-655Y44346D01*
X-626Y44402D01*
X-461Y44852D02*
Y44261D01*
X-67Y44852D02*
X-461Y44458D01*
X-320Y44599D02*
X-67Y44261D01*
X65Y44852D02*
Y44261D01*
Y44852D02*
X459Y44261D01*
Y44852D02*
Y44261D01*
X987Y44852D02*
X622D01*
Y44261D01*
X987D01*
X622Y44571D02*
X847D01*
X1479Y44768D02*
X1423Y44824D01*
X1339Y44852D01*
X1226D01*
X1142Y44824D01*
X1086Y44768D01*
Y44711D01*
X1114Y44655D01*
X1142Y44627D01*
X1198Y44599D01*
X1367Y44543D01*
X1423Y44515D01*
X1451Y44486D01*
X1479Y44430D01*
Y44346D01*
X1423Y44290D01*
X1339Y44261D01*
X1226D01*
X1142Y44290D01*
X1086Y44346D01*
X2005Y44768D02*
X1949Y44824D01*
X1865Y44852D01*
X1752D01*
X1668Y44824D01*
X1612Y44768D01*
Y44711D01*
X1640Y44655D01*
X1668Y44627D01*
X1724Y44599D01*
X1893Y44543D01*
X1949Y44515D01*
X1977Y44486D01*
X2005Y44430D01*
Y44346D01*
X1949Y44290D01*
X1865Y44261D01*
X1752D01*
X1668Y44290D01*
X1612Y44346D01*
X2165Y44655D02*
X2137Y44627D01*
X2165Y44599D01*
X2194Y44627D01*
X2165Y44655D01*
Y44318D02*
X2137Y44290D01*
X2165Y44261D01*
X2194Y44290D01*
X2165Y44318D01*
X2955Y44852D02*
X2871Y44824D01*
X2815Y44739D01*
X2787Y44599D01*
Y44515D01*
X2815Y44374D01*
X2871Y44290D01*
X2955Y44261D01*
X3012D01*
X3096Y44290D01*
X3152Y44374D01*
X3180Y44515D01*
Y44599D01*
X3152Y44739D01*
X3096Y44824D01*
X3012Y44852D01*
X2955D01*
X3341Y44318D02*
X3313Y44290D01*
X3341Y44261D01*
X3369Y44290D01*
X3341Y44318D01*
X3667Y44852D02*
X3582Y44824D01*
X3526Y44739D01*
X3498Y44599D01*
Y44515D01*
X3526Y44374D01*
X3582Y44290D01*
X3667Y44261D01*
X3723D01*
X3807Y44290D01*
X3864Y44374D01*
X3892Y44515D01*
Y44599D01*
X3864Y44739D01*
X3807Y44824D01*
X3723Y44852D01*
X3667D01*
X4361Y44768D02*
X4333Y44824D01*
X4249Y44852D01*
X4193D01*
X4108Y44824D01*
X4052Y44739D01*
X4024Y44599D01*
Y44458D01*
X4052Y44346D01*
X4108Y44290D01*
X4193Y44261D01*
X4221D01*
X4305Y44290D01*
X4361Y44346D01*
X4389Y44430D01*
Y44458D01*
X4361Y44543D01*
X4305Y44599D01*
X4221Y44627D01*
X4193D01*
X4108Y44599D01*
X4052Y44543D01*
X4024Y44458D01*
X4547Y44711D02*
Y44739D01*
X4575Y44796D01*
X4603Y44824D01*
X4659Y44852D01*
X4772D01*
X4828Y44824D01*
X4856Y44796D01*
X4884Y44739D01*
Y44683D01*
X4856Y44627D01*
X4800Y44543D01*
X4519Y44261D01*
X4912D01*
X5073Y44852D02*
X5044Y44824D01*
Y44655D01*
X5073Y44824D02*
X5044Y44655D01*
X5073Y44852D02*
X5101Y44824D01*
X5044Y44655D01*
X5326Y44852D02*
X5297Y44824D01*
Y44655D01*
X5326Y44824D02*
X5297Y44655D01*
X5326Y44852D02*
X5354Y44824D01*
X5297Y44655D01*
X6138Y44964D02*
X6082Y44908D01*
X6026Y44824D01*
X5969Y44711D01*
X5941Y44571D01*
Y44458D01*
X5969Y44318D01*
X6026Y44205D01*
X6082Y44121D01*
X6138Y44065D01*
X6082Y44908D02*
X6026Y44796D01*
X5998Y44711D01*
X5969Y44571D01*
Y44458D01*
X5998Y44318D01*
X6026Y44233D01*
X6082Y44121D01*
X6251Y44852D02*
Y44261D01*
Y44852D02*
X6616D01*
X6251Y44571D02*
X6475D01*
X6684Y44852D02*
Y44261D01*
X6807Y44852D02*
Y44261D01*
Y44852D02*
X7201Y44261D01*
Y44852D02*
Y44261D01*
X7364Y44852D02*
Y44261D01*
X7881Y44768D02*
X7825Y44824D01*
X7741Y44852D01*
X7628D01*
X7544Y44824D01*
X7488Y44768D01*
Y44711D01*
X7516Y44655D01*
X7544Y44627D01*
X7600Y44599D01*
X7769Y44543D01*
X7825Y44515D01*
X7853Y44486D01*
X7881Y44430D01*
Y44346D01*
X7825Y44290D01*
X7741Y44261D01*
X7628D01*
X7544Y44290D01*
X7488Y44346D01*
X8013Y44852D02*
Y44261D01*
X8407Y44852D02*
Y44261D01*
X8013Y44571D02*
X8407D01*
X8936Y44852D02*
X8570D01*
Y44261D01*
X8936D01*
X8570Y44571D02*
X8795D01*
X9034Y44852D02*
Y44261D01*
Y44852D02*
X9231D01*
X9315Y44824D01*
X9371Y44768D01*
X9400Y44711D01*
X9428Y44627D01*
Y44486D01*
X9400Y44402D01*
X9371Y44346D01*
X9315Y44290D01*
X9231Y44261D01*
X9034D01*
X9560Y44964D02*
X9616Y44908D01*
X9672Y44824D01*
X9728Y44711D01*
X9757Y44571D01*
Y44458D01*
X9728Y44318D01*
X9672Y44205D01*
X9616Y44121D01*
X9560Y44065D01*
X9616Y44908D02*
X9672Y44796D01*
X9700Y44711D01*
X9728Y44571D01*
Y44458D01*
X9700Y44318D01*
X9672Y44233D01*
X9616Y44121D01*
X-3369Y48439D02*
Y48467D01*
X-3341Y48523D01*
X-3313Y48551D01*
X-3257Y48579D01*
X-3145D01*
X-3088Y48551D01*
X-3060Y48523D01*
X-3032Y48467D01*
Y48410D01*
X-3060Y48354D01*
X-3116Y48270D01*
X-3398Y47989D01*
X-3004D01*
X-2844Y48045D02*
X-2872Y48017D01*
X-2844Y47989D01*
X-2816Y48017D01*
X-2844Y48045D01*
X-2222Y48579D02*
Y47989D01*
Y48579D02*
X-1829Y47989D01*
Y48579D02*
Y47989D01*
X-1666Y48579D02*
Y48157D01*
X-1638Y48073D01*
X-1581Y48017D01*
X-1497Y47989D01*
X-1441D01*
X-1356Y48017D01*
X-1300Y48073D01*
X-1272Y48157D01*
Y48579D01*
X-1109D02*
Y47989D01*
Y48579D02*
X-884Y47989D01*
X-659Y48579D02*
X-884Y47989D01*
X-659Y48579D02*
Y47989D01*
X-490Y48579D02*
Y47989D01*
Y48579D02*
X-237D01*
X-153Y48551D01*
X-125Y48523D01*
X-97Y48467D01*
Y48410D01*
X-125Y48354D01*
X-153Y48326D01*
X-237Y48298D01*
X-490D02*
X-237D01*
X-153Y48270D01*
X-125Y48242D01*
X-97Y48185D01*
Y48101D01*
X-125Y48045D01*
X-153Y48017D01*
X-237Y47989D01*
X-490D01*
X401Y48579D02*
X35D01*
Y47989D01*
X401D01*
X35Y48298D02*
X260D01*
X499Y48579D02*
Y47989D01*
Y48579D02*
X752D01*
X837Y48551D01*
X865Y48523D01*
X893Y48467D01*
Y48410D01*
X865Y48354D01*
X837Y48326D01*
X752Y48298D01*
X499D01*
X696D02*
X893Y47989D01*
X1658Y48579D02*
X1601Y48551D01*
X1545Y48495D01*
X1517Y48439D01*
X1489Y48354D01*
Y48214D01*
X1517Y48129D01*
X1545Y48073D01*
X1601Y48017D01*
X1658Y47989D01*
X1770D01*
X1826Y48017D01*
X1883Y48073D01*
X1911Y48129D01*
X1939Y48214D01*
Y48354D01*
X1911Y48439D01*
X1883Y48495D01*
X1826Y48551D01*
X1770Y48579D01*
X1658D01*
X2077D02*
Y47989D01*
Y48579D02*
X2442D01*
X2077Y48298D02*
X2301D01*
X3339Y48579D02*
X2973D01*
Y47989D01*
X3339D01*
X2973Y48298D02*
X3198D01*
X3437Y48579D02*
Y47989D01*
X3775D01*
X4205Y48579D02*
X3839D01*
Y47989D01*
X4205D01*
X3839Y48298D02*
X4064D01*
X4725Y48439D02*
X4697Y48495D01*
X4641Y48551D01*
X4584Y48579D01*
X4472D01*
X4416Y48551D01*
X4360Y48495D01*
X4331Y48439D01*
X4303Y48354D01*
Y48214D01*
X4331Y48129D01*
X4360Y48073D01*
X4416Y48017D01*
X4472Y47989D01*
X4584D01*
X4641Y48017D01*
X4697Y48073D01*
X4725Y48129D01*
X5088Y48579D02*
Y47989D01*
X4891Y48579D02*
X5284D01*
X5355D02*
Y47989D01*
Y48579D02*
X5608D01*
X5692Y48551D01*
X5720Y48523D01*
X5748Y48467D01*
Y48410D01*
X5720Y48354D01*
X5692Y48326D01*
X5608Y48298D01*
X5355D01*
X5552D02*
X5748Y47989D01*
X5881Y48579D02*
Y47989D01*
X6426Y48439D02*
X6398Y48495D01*
X6342Y48551D01*
X6285Y48579D01*
X6173D01*
X6117Y48551D01*
X6060Y48495D01*
X6032Y48439D01*
X6004Y48354D01*
Y48214D01*
X6032Y48129D01*
X6060Y48073D01*
X6117Y48017D01*
X6173Y47989D01*
X6285D01*
X6342Y48017D01*
X6398Y48073D01*
X6426Y48129D01*
X7042Y47989D02*
X6817Y48579D01*
X6592Y47989D01*
X6676Y48185D02*
X6957D01*
X7179Y48579D02*
Y47989D01*
X7517D01*
X8045Y48579D02*
Y47989D01*
X8383D01*
X8897D02*
X8672Y48579D01*
X8447Y47989D01*
X8532Y48185D02*
X8813D01*
X9035Y48579D02*
X9260Y48298D01*
Y47989D01*
X9485Y48579D02*
X9260Y48298D01*
X9926Y48579D02*
X9561D01*
Y47989D01*
X9926D01*
X9561Y48298D02*
X9786D01*
X10025Y48579D02*
Y47989D01*
Y48579D02*
X10278D01*
X10362Y48551D01*
X10390Y48523D01*
X10418Y48467D01*
Y48410D01*
X10390Y48354D01*
X10362Y48326D01*
X10278Y48298D01*
X10025D01*
X10222D02*
X10418Y47989D01*
X10944Y48495D02*
X10888Y48551D01*
X10804Y48579D01*
X10691D01*
X10607Y48551D01*
X10551Y48495D01*
Y48439D01*
X10579Y48382D01*
X10607Y48354D01*
X10663Y48326D01*
X10832Y48270D01*
X10888Y48242D01*
X10916Y48214D01*
X10944Y48157D01*
Y48073D01*
X10888Y48017D01*
X10804Y47989D01*
X10691D01*
X10607Y48017D01*
X10551Y48073D01*
X11104Y48382D02*
X11076Y48354D01*
X11104Y48326D01*
X11133Y48354D01*
X11104Y48382D01*
Y48045D02*
X11076Y48017D01*
X11104Y47989D01*
X11133Y48017D01*
X11104Y48045D01*
X11726Y48467D02*
X11782Y48495D01*
X11866Y48579D01*
Y47989D01*
X-3360Y51063D02*
X-3303Y51091D01*
X-3219Y51175D01*
Y50585D01*
X-2898Y50641D02*
X-2927Y50613D01*
X-2898Y50585D01*
X-2870Y50613D01*
X-2898Y50641D01*
X-2277Y51175D02*
Y50585D01*
Y51175D02*
X-2052Y50585D01*
X-1827Y51175D02*
X-2052Y50585D01*
X-1827Y51175D02*
Y50585D01*
X-1209D02*
X-1434Y51175D01*
X-1659Y50585D01*
X-1574Y50781D02*
X-1293D01*
X-874Y51175D02*
Y50585D01*
X-1071Y51175D02*
X-677D01*
X-242D02*
X-607D01*
Y50585D01*
X-242D01*
X-607Y50894D02*
X-382D01*
X-143Y51175D02*
Y50585D01*
Y51175D02*
X110D01*
X194Y51147D01*
X222Y51119D01*
X250Y51063D01*
Y51006D01*
X222Y50950D01*
X194Y50922D01*
X110Y50894D01*
X-143D01*
X54D02*
X250Y50585D01*
X383Y51175D02*
Y50585D01*
X956D02*
X731Y51175D01*
X506Y50585D01*
X591Y50781D02*
X872D01*
X1094Y51175D02*
Y50585D01*
X1431D01*
X1524Y50978D02*
X1496Y50950D01*
X1524Y50922D01*
X1552Y50950D01*
X1524Y50978D01*
Y50641D02*
X1496Y50613D01*
X1524Y50585D01*
X1552Y50613D01*
X1524Y50641D01*
X2511Y51175D02*
X2145D01*
Y50585D01*
X2511D01*
X2145Y50894D02*
X2370D01*
X2609Y50866D02*
X2862D01*
X2947Y50894D01*
X2975Y50922D01*
X3003Y50978D01*
Y51063D01*
X2975Y51119D01*
X2947Y51147D01*
X2862Y51175D01*
X2609D01*
Y50585D01*
X3304Y51175D02*
X3248Y51147D01*
X3191Y51091D01*
X3163Y51034D01*
X3135Y50950D01*
Y50809D01*
X3163Y50725D01*
X3191Y50669D01*
X3248Y50613D01*
X3304Y50585D01*
X3416D01*
X3473Y50613D01*
X3529Y50669D01*
X3557Y50725D01*
X3585Y50809D01*
Y50950D01*
X3557Y51034D01*
X3529Y51091D01*
X3473Y51147D01*
X3416Y51175D01*
X3304D01*
X3723D02*
X4116Y50585D01*
Y51175D02*
X3723Y50585D01*
X4249Y51175D02*
X4473Y50894D01*
Y50585D01*
X4698Y51175D02*
X4473Y50894D01*
X5660Y51034D02*
X5632Y51091D01*
X5576Y51147D01*
X5519Y51175D01*
X5407D01*
X5351Y51147D01*
X5294Y51091D01*
X5266Y51034D01*
X5238Y50950D01*
Y50809D01*
X5266Y50725D01*
X5294Y50669D01*
X5351Y50613D01*
X5407Y50585D01*
X5519D01*
X5576Y50613D01*
X5632Y50669D01*
X5660Y50725D01*
Y50809D01*
X5519D02*
X5660D01*
X5795Y51175D02*
Y50585D01*
X6132D01*
X6647D02*
X6422Y51175D01*
X6197Y50585D01*
X6281Y50781D02*
X6562D01*
X7178Y51091D02*
X7122Y51147D01*
X7038Y51175D01*
X6925D01*
X6841Y51147D01*
X6785Y51091D01*
Y51034D01*
X6813Y50978D01*
X6841Y50950D01*
X6897Y50922D01*
X7066Y50866D01*
X7122Y50838D01*
X7150Y50809D01*
X7178Y50753D01*
Y50669D01*
X7122Y50613D01*
X7038Y50585D01*
X6925D01*
X6841Y50613D01*
X6785Y50669D01*
X7704Y51091D02*
X7648Y51147D01*
X7563Y51175D01*
X7451D01*
X7367Y51147D01*
X7310Y51091D01*
Y51034D01*
X7338Y50978D01*
X7367Y50950D01*
X7423Y50922D01*
X7591Y50866D01*
X7648Y50838D01*
X7676Y50809D01*
X7704Y50753D01*
Y50669D01*
X7648Y50613D01*
X7563Y50585D01*
X7451D01*
X7367Y50613D01*
X7310Y50669D01*
X8300Y51175D02*
Y50585D01*
X8637D01*
X9152D02*
X8927Y51175D01*
X8702Y50585D01*
X8786Y50781D02*
X9068D01*
X9290Y51175D02*
Y50585D01*
Y51175D02*
X9515Y50585D01*
X9739Y51175D02*
X9515Y50585D01*
X9739Y51175D02*
Y50585D01*
X9908Y51175D02*
Y50585D01*
X10032Y51175D02*
Y50585D01*
Y51175D02*
X10425Y50585D01*
Y51175D02*
Y50585D01*
X11038D02*
X10813Y51175D01*
X10589Y50585D01*
X10673Y50781D02*
X10954D01*
X11373Y51175D02*
Y50585D01*
X11176Y51175D02*
X11570D01*
X12006D02*
X11640D01*
Y50585D01*
X12006D01*
X11640Y50894D02*
X11865D01*
X12568Y51175D02*
Y50585D01*
Y51175D02*
X12933D01*
X12568Y50894D02*
X12793D01*
X13001Y51175D02*
Y50585D01*
Y51175D02*
X13254D01*
X13338Y51147D01*
X13366Y51119D01*
X13394Y51063D01*
Y51006D01*
X13366Y50950D01*
X13338Y50922D01*
X13254Y50894D01*
X13001D01*
X13198D02*
X13394Y50585D01*
X13527Y50838D02*
X14033D01*
X14488Y51175D02*
X14207Y50781D01*
X14629D01*
X14488Y51175D02*
Y50585D01*
X-3360Y54718D02*
Y54128D01*
Y54718D02*
X-2994D01*
X-3360Y54437D02*
X-3135D01*
X-2477Y54128D02*
X-2702Y54718D01*
X-2927Y54128D01*
X-2842Y54325D02*
X-2561D01*
X-2339Y54718D02*
Y54128D01*
Y54718D02*
X-2086D01*
X-2002Y54690D01*
X-1973Y54662D01*
X-1945Y54606D01*
Y54550D01*
X-1973Y54493D01*
X-2002Y54465D01*
X-2086Y54437D01*
X-2339D02*
X-2086D01*
X-2002Y54409D01*
X-1973Y54381D01*
X-1945Y54325D01*
Y54240D01*
X-1973Y54184D01*
X-2002Y54156D01*
X-2086Y54128D01*
X-2339D01*
X-1813Y54718D02*
Y54128D01*
Y54718D02*
X-1560D01*
X-1476Y54690D01*
X-1448Y54662D01*
X-1420Y54606D01*
Y54550D01*
X-1448Y54493D01*
X-1476Y54465D01*
X-1560Y54437D01*
X-1813D01*
X-1616D02*
X-1420Y54128D01*
X-1287Y54718D02*
Y54128D01*
X-742Y54578D02*
X-770Y54634D01*
X-826Y54690D01*
X-883Y54718D01*
X-995D01*
X-1051Y54690D01*
X-1107Y54634D01*
X-1136Y54578D01*
X-1164Y54493D01*
Y54353D01*
X-1136Y54268D01*
X-1107Y54212D01*
X-1051Y54156D01*
X-995Y54128D01*
X-883D01*
X-826Y54156D01*
X-770Y54212D01*
X-742Y54268D01*
X-126Y54128D02*
X-351Y54718D01*
X-576Y54128D01*
X-492Y54325D02*
X-211D01*
X208Y54718D02*
Y54128D01*
X12Y54718D02*
X405D01*
X475D02*
Y54128D01*
X768Y54718D02*
X712Y54690D01*
X655Y54634D01*
X627Y54578D01*
X599Y54493D01*
Y54353D01*
X627Y54268D01*
X655Y54212D01*
X712Y54156D01*
X768Y54128D01*
X880D01*
X937Y54156D01*
X993Y54212D01*
X1021Y54268D01*
X1049Y54353D01*
Y54493D01*
X1021Y54578D01*
X993Y54634D01*
X937Y54690D01*
X880Y54718D01*
X768D01*
X1187D02*
Y54128D01*
Y54718D02*
X1580Y54128D01*
Y54718D02*
Y54128D01*
X2207Y54044D02*
X2601Y54718D01*
X3554Y54128D02*
X3329Y54718D01*
X3104Y54128D01*
X3189Y54325D02*
X3470D01*
X4085Y54634D02*
X4029Y54690D01*
X3945Y54718D01*
X3832D01*
X3748Y54690D01*
X3692Y54634D01*
Y54578D01*
X3720Y54521D01*
X3748Y54493D01*
X3804Y54465D01*
X3973Y54409D01*
X4029Y54381D01*
X4057Y54353D01*
X4085Y54297D01*
Y54212D01*
X4029Y54156D01*
X3945Y54128D01*
X3832D01*
X3748Y54156D01*
X3692Y54212D01*
X4611Y54634D02*
X4555Y54690D01*
X4471Y54718D01*
X4358D01*
X4274Y54690D01*
X4218Y54634D01*
Y54578D01*
X4246Y54521D01*
X4274Y54493D01*
X4330Y54465D01*
X4499Y54409D01*
X4555Y54381D01*
X4583Y54353D01*
X4611Y54297D01*
Y54212D01*
X4555Y54156D01*
X4471Y54128D01*
X4358D01*
X4274Y54156D01*
X4218Y54212D01*
X5109Y54718D02*
X4743D01*
Y54128D01*
X5109D01*
X4743Y54437D02*
X4968D01*
X5207Y54718D02*
Y54128D01*
Y54718D02*
X5432Y54128D01*
X5657Y54718D02*
X5432Y54128D01*
X5657Y54718D02*
Y54128D01*
X5826Y54718D02*
Y54128D01*
Y54718D02*
X6079D01*
X6163Y54690D01*
X6191Y54662D01*
X6219Y54606D01*
Y54550D01*
X6191Y54493D01*
X6163Y54465D01*
X6079Y54437D01*
X5826D02*
X6079D01*
X6163Y54409D01*
X6191Y54381D01*
X6219Y54325D01*
Y54240D01*
X6191Y54184D01*
X6163Y54156D01*
X6079Y54128D01*
X5826D01*
X6352Y54718D02*
Y54128D01*
X6689D01*
X6754Y54718D02*
X6979Y54437D01*
Y54128D01*
X7203Y54718D02*
X6979Y54437D01*
X7743Y54718D02*
Y54128D01*
Y54718D02*
X8137Y54128D01*
Y54718D02*
Y54128D01*
X8469Y54718D02*
X8412Y54690D01*
X8356Y54634D01*
X8328Y54578D01*
X8300Y54493D01*
Y54353D01*
X8328Y54268D01*
X8356Y54212D01*
X8412Y54156D01*
X8469Y54128D01*
X8581D01*
X8637Y54156D01*
X8694Y54212D01*
X8722Y54268D01*
X8750Y54353D01*
Y54493D01*
X8722Y54578D01*
X8694Y54634D01*
X8637Y54690D01*
X8581Y54718D01*
X8469D01*
X9084D02*
Y54128D01*
X8888Y54718D02*
X9281D01*
X9717D02*
X9351D01*
Y54128D01*
X9717D01*
X9351Y54437D02*
X9576D01*
X10209Y54634D02*
X10153Y54690D01*
X10068Y54718D01*
X9956D01*
X9872Y54690D01*
X9815Y54634D01*
Y54578D01*
X9843Y54521D01*
X9872Y54493D01*
X9928Y54465D01*
X10097Y54409D01*
X10153Y54381D01*
X10181Y54353D01*
X10209Y54297D01*
Y54212D01*
X10153Y54156D01*
X10068Y54128D01*
X9956D01*
X9872Y54156D01*
X9815Y54212D01*
X10369Y54521D02*
X10341Y54493D01*
X10369Y54465D01*
X10397Y54493D01*
X10369Y54521D01*
Y54184D02*
X10341Y54156D01*
X10369Y54128D01*
X10397Y54156D01*
X10369Y54184D01*
X-3163Y53650D02*
X-3219Y53593D01*
X-3275Y53509D01*
X-3331Y53397D01*
X-3360Y53256D01*
Y53144D01*
X-3331Y53003D01*
X-3275Y52891D01*
X-3219Y52806D01*
X-3163Y52750D01*
X-3219Y53593D02*
X-3275Y53481D01*
X-3303Y53397D01*
X-3331Y53256D01*
Y53144D01*
X-3303Y53003D01*
X-3275Y52919D01*
X-3219Y52806D01*
X-3050Y53537D02*
Y53115D01*
X-3022Y53031D01*
X-2966Y52975D01*
X-2882Y52947D01*
X-2825D01*
X-2741Y52975D01*
X-2685Y53031D01*
X-2657Y53115D01*
Y53537D01*
X-2494D02*
Y52947D01*
Y53537D02*
X-2100Y52947D01*
Y53537D02*
Y52947D01*
X-1937Y53537D02*
Y52947D01*
X-1600D01*
X-1169Y53537D02*
X-1535D01*
Y52947D01*
X-1169D01*
X-1535Y53256D02*
X-1310D01*
X-677Y53453D02*
X-734Y53509D01*
X-818Y53537D01*
X-930D01*
X-1015Y53509D01*
X-1071Y53453D01*
Y53397D01*
X-1043Y53340D01*
X-1015Y53312D01*
X-958Y53284D01*
X-790Y53228D01*
X-734Y53200D01*
X-705Y53172D01*
X-677Y53115D01*
Y53031D01*
X-734Y52975D01*
X-818Y52947D01*
X-930D01*
X-1015Y52975D01*
X-1071Y53031D01*
X-152Y53453D02*
X-208Y53509D01*
X-292Y53537D01*
X-405D01*
X-489Y53509D01*
X-545Y53453D01*
Y53397D01*
X-517Y53340D01*
X-489Y53312D01*
X-433Y53284D01*
X-264Y53228D01*
X-208Y53200D01*
X-180Y53172D01*
X-152Y53115D01*
Y53031D01*
X-208Y52975D01*
X-292Y52947D01*
X-405D01*
X-489Y52975D01*
X-545Y53031D01*
X613Y53537D02*
X557Y53509D01*
X501Y53453D01*
X473Y53397D01*
X444Y53312D01*
Y53172D01*
X473Y53087D01*
X501Y53031D01*
X557Y52975D01*
X613Y52947D01*
X726D01*
X782Y52975D01*
X838Y53031D01*
X866Y53087D01*
X894Y53172D01*
Y53312D01*
X866Y53397D01*
X838Y53453D01*
X782Y53509D01*
X726Y53537D01*
X613D01*
X1229D02*
Y52947D01*
X1032Y53537D02*
X1426D01*
X1496D02*
Y52947D01*
X1890Y53537D02*
Y52947D01*
X1496Y53256D02*
X1890D01*
X2418Y53537D02*
X2053D01*
Y52947D01*
X2418D01*
X2053Y53256D02*
X2278D01*
X2517Y53537D02*
Y52947D01*
Y53537D02*
X2770D01*
X2854Y53509D01*
X2882Y53481D01*
X2910Y53425D01*
Y53369D01*
X2882Y53312D01*
X2854Y53284D01*
X2770Y53256D01*
X2517D01*
X2713D02*
X2910Y52947D01*
X3042Y53537D02*
X3183Y52947D01*
X3324Y53537D02*
X3183Y52947D01*
X3324Y53537D02*
X3464Y52947D01*
X3605Y53537D02*
X3464Y52947D01*
X3723Y53537D02*
Y52947D01*
X4240Y53453D02*
X4184Y53509D01*
X4099Y53537D01*
X3987D01*
X3903Y53509D01*
X3846Y53453D01*
Y53397D01*
X3875Y53340D01*
X3903Y53312D01*
X3959Y53284D01*
X4128Y53228D01*
X4184Y53200D01*
X4212Y53172D01*
X4240Y53115D01*
Y53031D01*
X4184Y52975D01*
X4099Y52947D01*
X3987D01*
X3903Y52975D01*
X3846Y53031D01*
X4738Y53537D02*
X4372D01*
Y52947D01*
X4738D01*
X4372Y53256D02*
X4597D01*
X5694Y53453D02*
X5637Y53509D01*
X5553Y53537D01*
X5441D01*
X5356Y53509D01*
X5300Y53453D01*
Y53397D01*
X5328Y53340D01*
X5356Y53312D01*
X5412Y53284D01*
X5581Y53228D01*
X5637Y53200D01*
X5666Y53172D01*
X5694Y53115D01*
Y53031D01*
X5637Y52975D01*
X5553Y52947D01*
X5441D01*
X5356Y52975D01*
X5300Y53031D01*
X5826Y53228D02*
X6079D01*
X6163Y53256D01*
X6191Y53284D01*
X6219Y53340D01*
Y53425D01*
X6191Y53481D01*
X6163Y53509D01*
X6079Y53537D01*
X5826D01*
Y52947D01*
X6717Y53537D02*
X6352D01*
Y52947D01*
X6717D01*
X6352Y53256D02*
X6576D01*
X7237Y53397D02*
X7209Y53453D01*
X7153Y53509D01*
X7097Y53537D01*
X6984D01*
X6928Y53509D01*
X6872Y53453D01*
X6844Y53397D01*
X6815Y53312D01*
Y53172D01*
X6844Y53087D01*
X6872Y53031D01*
X6928Y52975D01*
X6984Y52947D01*
X7097D01*
X7153Y52975D01*
X7209Y53031D01*
X7237Y53087D01*
X7403Y53537D02*
Y52947D01*
X7527Y53537D02*
Y52947D01*
Y53537D02*
X7892D01*
X7527Y53256D02*
X7752D01*
X7960Y53537D02*
Y52947D01*
X8449Y53537D02*
X8083D01*
Y52947D01*
X8449D01*
X8083Y53256D02*
X8308D01*
X8547Y53537D02*
Y52947D01*
Y53537D02*
X8744D01*
X8829Y53509D01*
X8885Y53453D01*
X8913Y53397D01*
X8941Y53312D01*
Y53172D01*
X8913Y53087D01*
X8885Y53031D01*
X8829Y52975D01*
X8744Y52947D01*
X8547D01*
X9073Y53650D02*
X9129Y53593D01*
X9186Y53509D01*
X9242Y53397D01*
X9270Y53256D01*
Y53144D01*
X9242Y53003D01*
X9186Y52891D01*
X9129Y52806D01*
X9073Y52750D01*
X9129Y53593D02*
X9186Y53481D01*
X9214Y53397D01*
X9242Y53256D01*
Y53144D01*
X9214Y53003D01*
X9186Y52919D01*
X9129Y52806D01*
X-2178Y49994D02*
Y49403D01*
Y49994D02*
X-1813D01*
X-2178Y49713D02*
X-1954D01*
X-1745Y49994D02*
Y49403D01*
X-1622Y49994D02*
Y49403D01*
Y49994D02*
X-1228Y49403D01*
Y49994D02*
Y49403D01*
X-1065Y49994D02*
Y49403D01*
X-548Y49910D02*
X-604Y49966D01*
X-688Y49994D01*
X-801D01*
X-885Y49966D01*
X-941Y49910D01*
Y49853D01*
X-913Y49797D01*
X-885Y49769D01*
X-829Y49741D01*
X-660Y49685D01*
X-604Y49657D01*
X-576Y49628D01*
X-548Y49572D01*
Y49488D01*
X-604Y49432D01*
X-688Y49403D01*
X-801D01*
X-885Y49432D01*
X-941Y49488D01*
X-416Y49994D02*
Y49403D01*
X-22Y49994D02*
Y49403D01*
X-416Y49713D02*
X-22D01*
X507Y49994D02*
X141D01*
Y49403D01*
X507D01*
X141Y49713D02*
X366D01*
X605Y49994D02*
Y49403D01*
Y49994D02*
X802D01*
X886Y49966D01*
X942Y49910D01*
X971Y49853D01*
X999Y49769D01*
Y49628D01*
X971Y49544D01*
X942Y49488D01*
X886Y49432D01*
X802Y49403D01*
X605D01*
X2016Y49853D02*
X1988Y49910D01*
X1932Y49966D01*
X1876Y49994D01*
X1763D01*
X1707Y49966D01*
X1651Y49910D01*
X1623Y49853D01*
X1595Y49769D01*
Y49628D01*
X1623Y49544D01*
X1651Y49488D01*
X1707Y49432D01*
X1763Y49403D01*
X1876D01*
X1932Y49432D01*
X1988Y49488D01*
X2016Y49544D01*
X2351Y49994D02*
X2295Y49966D01*
X2239Y49910D01*
X2210Y49853D01*
X2182Y49769D01*
Y49628D01*
X2210Y49544D01*
X2239Y49488D01*
X2295Y49432D01*
X2351Y49403D01*
X2463D01*
X2520Y49432D01*
X2576Y49488D01*
X2604Y49544D01*
X2632Y49628D01*
Y49769D01*
X2604Y49853D01*
X2576Y49910D01*
X2520Y49966D01*
X2463Y49994D01*
X2351D01*
X2770Y49685D02*
X3023D01*
X3107Y49713D01*
X3135Y49741D01*
X3164Y49797D01*
Y49881D01*
X3135Y49938D01*
X3107Y49966D01*
X3023Y49994D01*
X2770D01*
Y49403D01*
X3296Y49685D02*
X3549D01*
X3633Y49713D01*
X3661Y49741D01*
X3689Y49797D01*
Y49881D01*
X3661Y49938D01*
X3633Y49966D01*
X3549Y49994D01*
X3296D01*
Y49403D01*
X4187Y49994D02*
X3821D01*
Y49403D01*
X4187D01*
X3821Y49713D02*
X4046D01*
X4285Y49994D02*
Y49403D01*
Y49994D02*
X4538D01*
X4623Y49966D01*
X4651Y49938D01*
X4679Y49881D01*
Y49825D01*
X4651Y49769D01*
X4623Y49741D01*
X4538Y49713D01*
X4285D01*
X4482D02*
X4679Y49403D01*
X5275Y49994D02*
X5416Y49403D01*
X5556Y49994D02*
X5416Y49403D01*
X5556Y49994D02*
X5697Y49403D01*
X5837Y49994D02*
X5697Y49403D01*
X6321Y49994D02*
X5955D01*
Y49403D01*
X6321D01*
X5955Y49713D02*
X6180D01*
X6419Y49994D02*
Y49403D01*
X6965Y49853D02*
X6937Y49910D01*
X6880Y49966D01*
X6824Y49994D01*
X6712D01*
X6655Y49966D01*
X6599Y49910D01*
X6571Y49853D01*
X6543Y49769D01*
Y49628D01*
X6571Y49544D01*
X6599Y49488D01*
X6655Y49432D01*
X6712Y49403D01*
X6824D01*
X6880Y49432D01*
X6937Y49488D01*
X6965Y49544D01*
Y49628D01*
X6824D02*
X6965D01*
X7100Y49994D02*
Y49403D01*
X7493Y49994D02*
Y49403D01*
X7100Y49713D02*
X7493D01*
X7853Y49994D02*
Y49403D01*
X7656Y49994D02*
X8050D01*
X8978Y49910D02*
X8922Y49966D01*
X8837Y49994D01*
X8725D01*
X8640Y49966D01*
X8584Y49910D01*
Y49853D01*
X8612Y49797D01*
X8640Y49769D01*
X8697Y49741D01*
X8865Y49685D01*
X8922Y49657D01*
X8950Y49628D01*
X8978Y49572D01*
Y49488D01*
X8922Y49432D01*
X8837Y49403D01*
X8725D01*
X8640Y49432D01*
X8584Y49488D01*
X9110Y49994D02*
Y49403D01*
X9504Y49994D02*
Y49403D01*
X9110Y49713D02*
X9504D01*
X10116Y49403D02*
X9892Y49994D01*
X9667Y49403D01*
X9751Y49600D02*
X10032D01*
X10254Y49994D02*
Y49403D01*
X10592D01*
X10656Y49994D02*
Y49403D01*
X10994D01*
X11522Y49994D02*
Y49403D01*
Y49994D02*
X11775D01*
X11860Y49966D01*
X11888Y49938D01*
X11916Y49881D01*
Y49825D01*
X11888Y49769D01*
X11860Y49741D01*
X11775Y49713D01*
X11522D02*
X11775D01*
X11860Y49685D01*
X11888Y49657D01*
X11916Y49600D01*
Y49516D01*
X11888Y49460D01*
X11860Y49432D01*
X11775Y49403D01*
X11522D01*
X12414Y49994D02*
X12048D01*
Y49403D01*
X12414D01*
X12048Y49713D02*
X12273D01*
X12976Y49881D02*
X13032Y49910D01*
X13116Y49994D01*
Y49403D01*
X14041Y49994D02*
X13985Y49966D01*
X13929Y49910D01*
X13901Y49853D01*
X13873Y49769D01*
Y49628D01*
X13901Y49544D01*
X13929Y49488D01*
X13985Y49432D01*
X14041Y49403D01*
X14154D01*
X14210Y49432D01*
X14266Y49488D01*
X14294Y49544D01*
X14323Y49628D01*
Y49769D01*
X14294Y49853D01*
X14266Y49910D01*
X14210Y49966D01*
X14154Y49994D01*
X14041D01*
X14854D02*
X14460Y49403D01*
Y49994D02*
X14854D01*
X14460Y49403D02*
X14854D01*
X15619Y49994D02*
X15562Y49966D01*
X15506Y49910D01*
X15478Y49853D01*
X15450Y49769D01*
Y49628D01*
X15478Y49544D01*
X15506Y49488D01*
X15562Y49432D01*
X15619Y49403D01*
X15731D01*
X15787Y49432D01*
X15844Y49488D01*
X15872Y49544D01*
X15900Y49628D01*
Y49769D01*
X15872Y49853D01*
X15844Y49910D01*
X15787Y49966D01*
X15731Y49994D01*
X15619D01*
X16038D02*
Y49403D01*
Y49994D02*
X16431Y49403D01*
Y49994D02*
Y49403D01*
X17255Y49994D02*
Y49403D01*
X17058Y49994D02*
X17452D01*
X17691D02*
X17635Y49966D01*
X17578Y49910D01*
X17550Y49853D01*
X17522Y49769D01*
Y49628D01*
X17550Y49544D01*
X17578Y49488D01*
X17635Y49432D01*
X17691Y49403D01*
X17803D01*
X17859Y49432D01*
X17916Y49488D01*
X17944Y49544D01*
X17972Y49628D01*
Y49769D01*
X17944Y49853D01*
X17916Y49910D01*
X17859Y49966D01*
X17803Y49994D01*
X17691D01*
X18110Y49685D02*
X18363D01*
X18447Y49713D01*
X18475Y49741D01*
X18503Y49797D01*
Y49881D01*
X18475Y49938D01*
X18447Y49966D01*
X18363Y49994D01*
X18110D01*
Y49403D01*
X19099Y49994D02*
Y49403D01*
X19437D01*
X19951D02*
X19726Y49994D01*
X19501Y49403D01*
X19586Y49600D02*
X19867D01*
X20089Y49994D02*
X20314Y49713D01*
Y49403D01*
X20539Y49994D02*
X20314Y49713D01*
X20980Y49994D02*
X20615D01*
Y49403D01*
X20980D01*
X20615Y49713D02*
X20840D01*
X21079Y49994D02*
Y49403D01*
Y49994D02*
X21332D01*
X21416Y49966D01*
X21444Y49938D01*
X21472Y49881D01*
Y49825D01*
X21444Y49769D01*
X21416Y49741D01*
X21332Y49713D01*
X21079D01*
X21275D02*
X21472Y49403D01*
X30470Y-4600D02*
Y-5092D01*
Y-4600D02*
X30634D01*
X30705Y-4623D01*
X30751Y-4670D01*
X30775Y-4717D01*
X30798Y-4787D01*
Y-4904D01*
X30775Y-4975D01*
X30751Y-5021D01*
X30705Y-5068D01*
X30634Y-5092D01*
X30470D01*
X30908Y-4600D02*
Y-5092D01*
Y-4600D02*
X31119D01*
X31190Y-4623D01*
X31213Y-4647D01*
X31236Y-4693D01*
Y-4740D01*
X31213Y-4787D01*
X31190Y-4811D01*
X31119Y-4834D01*
X30908D01*
X31072D02*
X31236Y-5092D01*
X31346Y-4600D02*
Y-5092D01*
X31450Y-4600D02*
Y-5092D01*
X31731D01*
X31785Y-4600D02*
Y-5092D01*
X32066D01*
X32506Y-4600D02*
Y-5092D01*
Y-4600D02*
X32670D01*
X32741Y-4623D01*
X32787Y-4670D01*
X32811Y-4717D01*
X32834Y-4787D01*
Y-4904D01*
X32811Y-4975D01*
X32787Y-5021D01*
X32741Y-5068D01*
X32670Y-5092D01*
X32506D01*
X32944Y-4600D02*
Y-5092D01*
Y-4600D02*
X33155D01*
X33226Y-4623D01*
X33249Y-4647D01*
X33272Y-4693D01*
Y-4740D01*
X33249Y-4787D01*
X33226Y-4811D01*
X33155Y-4834D01*
X32944D01*
X33108D02*
X33272Y-5092D01*
X33757D02*
X33570Y-4600D01*
X33383Y-5092D01*
X33453Y-4928D02*
X33687D01*
X33872Y-4600D02*
X33989Y-5092D01*
X34107Y-4600D02*
X33989Y-5092D01*
X34107Y-4600D02*
X34224Y-5092D01*
X34341Y-4600D02*
X34224Y-5092D01*
X34439Y-4600D02*
Y-5092D01*
X34542Y-4600D02*
Y-5092D01*
Y-4600D02*
X34870Y-5092D01*
Y-4600D02*
Y-5092D01*
X35358Y-4717D02*
X35334Y-4670D01*
X35287Y-4623D01*
X35240Y-4600D01*
X35147D01*
X35100Y-4623D01*
X35053Y-4670D01*
X35030Y-4717D01*
X35006Y-4787D01*
Y-4904D01*
X35030Y-4975D01*
X35053Y-5021D01*
X35100Y-5068D01*
X35147Y-5092D01*
X35240D01*
X35287Y-5068D01*
X35334Y-5021D01*
X35358Y-4975D01*
Y-4904D01*
X35240D02*
X35358D01*
D32*
X13091Y18902D02*
G03*
X15209Y16783I2118J0D01*
G01*
X-2118D02*
G03*
X-0Y18902I0J2118D01*
G01*
X0Y1575D02*
G03*
X-2118Y3693I-2118J0D01*
G01*
X15209D02*
G03*
X13091Y1575I0J-2118D01*
G01*
X9301Y20476D02*
Y25988D01*
X3789Y20476D02*
Y25988D01*
X9301Y20476D02*
X13091D01*
X-0D02*
X3789D01*
X15209Y16783D02*
X16783D01*
X13091Y18902D02*
Y20476D01*
X-0Y18902D02*
Y20476D01*
X-3693Y16783D02*
X-2118D01*
X-3693D02*
X-3693Y3693D01*
X-2118D01*
X0Y0D02*
Y1575D01*
X13091Y0D02*
Y1575D01*
X15209Y3693D02*
X16783D01*
X3789Y25988D02*
X9301D01*
X16783Y3693D02*
X16783Y16783D01*
X0Y0D02*
X13091D01*
X34789Y4615D02*
X34389D01*
X34789Y5015D01*
Y5115D01*
X34689Y5215D01*
X34489D01*
X34389Y5115D01*
X41347Y4615D02*
X41547D01*
X41447D01*
Y5215D01*
X41347Y5115D01*
X42147Y4615D02*
Y5215D01*
X41847Y4915D01*
X42247D01*
X42447Y5115D02*
X42547Y5215D01*
X42747D01*
X42847Y5115D01*
Y4715D01*
X42747Y4615D01*
X42547D01*
X42447Y4715D01*
Y5115D01*
X43047Y4615D02*
Y5015D01*
X43147D01*
X43247Y4915D01*
Y4615D01*
Y4915D01*
X43347Y5015D01*
X43447Y4915D01*
Y4615D01*
X43647D02*
X43846D01*
X43747D01*
Y5015D01*
X43647D01*
X44146Y4615D02*
X44346D01*
X44246D01*
Y5215D01*
X44146D01*
X45446Y4615D02*
X45246Y4815D01*
Y5015D01*
X45446Y5215D01*
X45746Y5115D02*
X45846Y5215D01*
X46046D01*
X46146Y5115D01*
Y5015D01*
X46046Y4915D01*
X45946D01*
X46046D01*
X46146Y4815D01*
Y4715D01*
X46046Y4615D01*
X45846D01*
X45746Y4715D01*
X46346Y4615D02*
Y4715D01*
X46446D01*
Y4615D01*
X46346D01*
X47245Y5215D02*
X46846D01*
Y4915D01*
X47045Y5015D01*
X47145D01*
X47245Y4915D01*
Y4715D01*
X47145Y4615D01*
X46945D01*
X46846Y4715D01*
X47845Y5215D02*
X47445D01*
Y4915D01*
X47645Y5015D01*
X47745D01*
X47845Y4915D01*
Y4715D01*
X47745Y4615D01*
X47545D01*
X47445Y4715D01*
X48445Y5215D02*
X48245Y5115D01*
X48045Y4915D01*
Y4715D01*
X48145Y4615D01*
X48345D01*
X48445Y4715D01*
Y4815D01*
X48345Y4915D01*
X48045D01*
X48645Y4615D02*
Y5015D01*
X48745D01*
X48845Y4915D01*
Y4615D01*
Y4915D01*
X48945Y5015D01*
X49045Y4915D01*
Y4615D01*
X49245D02*
Y5015D01*
X49345D01*
X49445Y4915D01*
Y4615D01*
Y4915D01*
X49545Y5015D01*
X49645Y4915D01*
Y4615D01*
X49845D02*
X50044Y4815D01*
Y5015D01*
X49845Y5215D01*
X54783Y4615D02*
Y5215D01*
X55183Y4615D01*
Y5215D01*
X55383Y4615D02*
Y5215D01*
X55683D01*
X55783Y5115D01*
Y4915D01*
X55683Y4815D01*
X55383D01*
X55983Y5215D02*
X56383D01*
X56183D01*
Y4615D01*
X56583Y5215D02*
Y4615D01*
Y4915D01*
X56983D01*
Y5215D01*
Y4615D01*
X59822D02*
Y5215D01*
X60122D01*
X60222Y5115D01*
Y4915D01*
X60122Y4815D01*
X59822D01*
X60022D02*
X60222Y4615D01*
X60522D02*
X60722D01*
X60822Y4715D01*
Y4915D01*
X60722Y5015D01*
X60522D01*
X60422Y4915D01*
Y4715D01*
X60522Y4615D01*
X61022Y5015D02*
Y4715D01*
X61122Y4615D01*
X61422D01*
Y5015D01*
X61621Y4615D02*
Y5015D01*
X61921D01*
X62021Y4915D01*
Y4615D01*
X62621Y5215D02*
Y4615D01*
X62321D01*
X62221Y4715D01*
Y4915D01*
X62321Y5015D01*
X62621D01*
X34789Y3415D02*
X34389D01*
X34789Y3815D01*
Y3915D01*
X34689Y4015D01*
X34489D01*
X34389Y3915D01*
X35869Y4015D02*
X36269D01*
X36069D01*
Y3415D01*
X36569D02*
X36769D01*
X36869Y3515D01*
Y3715D01*
X36769Y3815D01*
X36569D01*
X36469Y3715D01*
Y3515D01*
X36569Y3415D01*
X37169Y3915D02*
Y3815D01*
X37069D01*
X37269D01*
X37169D01*
Y3515D01*
X37269Y3415D01*
X37668Y3815D02*
X37868D01*
X37968Y3715D01*
Y3415D01*
X37668D01*
X37568Y3515D01*
X37668Y3615D01*
X37968D01*
X38168Y3415D02*
X38368D01*
X38268D01*
Y4015D01*
X38168D01*
D61*
X4793Y24121D02*
Y24521D01*
X5193D01*
Y24121D01*
X4793D01*
X7893D02*
Y24521D01*
X8293D01*
Y24121D01*
X7893D01*
X29350Y4675D02*
Y5155D01*
X29830D01*
Y4675D01*
X29350D01*
D62*
X29830Y6655D02*
X29710Y6775D01*
X29470D01*
X29350Y6655D01*
Y6535D01*
X29470Y6415D01*
X29710D01*
X29830Y6295D01*
Y6175D01*
X29710Y6055D01*
X29470D01*
X29350Y6175D01*
X30070Y6535D02*
Y6175D01*
X30190Y6055D01*
X30550D01*
Y5935D01*
X30430Y5815D01*
X30310D01*
X30550Y6055D02*
Y6535D01*
X30790Y6055D02*
Y6535D01*
X30910D01*
X31030Y6415D01*
Y6055D01*
Y6415D01*
X31150Y6535D01*
X31270Y6415D01*
Y6055D01*
X31510Y6775D02*
Y6055D01*
X31870D01*
X31990Y6175D01*
Y6295D01*
Y6415D01*
X31870Y6535D01*
X31510D01*
X32349Y6055D02*
X32589D01*
X32709Y6175D01*
Y6415D01*
X32589Y6535D01*
X32349D01*
X32229Y6415D01*
Y6175D01*
X32349Y6055D01*
X32949D02*
X33189D01*
X33069D01*
Y6775D01*
X32949D01*
X34389D02*
Y6055D01*
Y6415D01*
X34869D01*
Y6775D01*
Y6055D01*
X35109D02*
X35349D01*
X35229D01*
Y6535D01*
X35109D01*
X35829Y6655D02*
Y6535D01*
X35709D01*
X35949D01*
X35829D01*
Y6175D01*
X35949Y6055D01*
X37508Y6655D02*
X37388Y6775D01*
X37148D01*
X37028Y6655D01*
Y6175D01*
X37148Y6055D01*
X37388D01*
X37508Y6175D01*
X37868Y6055D02*
X38108D01*
X38228Y6175D01*
Y6415D01*
X38108Y6535D01*
X37868D01*
X37748Y6415D01*
Y6175D01*
X37868Y6055D01*
X38468Y6535D02*
Y6175D01*
X38588Y6055D01*
X38948D01*
Y6535D01*
X39188Y6055D02*
Y6535D01*
X39547D01*
X39667Y6415D01*
Y6055D01*
X40027Y6655D02*
Y6535D01*
X39907D01*
X40147D01*
X40027D01*
Y6175D01*
X40147Y6055D01*
X41827Y6775D02*
X41347D01*
Y6415D01*
X41587D01*
X41347D01*
Y6055D01*
X42067D02*
X42307D01*
X42187D01*
Y6535D01*
X42067D01*
X42667Y6055D02*
Y6535D01*
X43027D01*
X43147Y6415D01*
Y6055D01*
X43387D02*
X43627D01*
X43507D01*
Y6535D01*
X43387D01*
X43986Y6055D02*
X44346D01*
X44466Y6175D01*
X44346Y6295D01*
X44106D01*
X43986Y6415D01*
X44106Y6535D01*
X44466D01*
X44706Y6775D02*
Y6055D01*
Y6415D01*
X44826Y6535D01*
X45066D01*
X45186Y6415D01*
Y6055D01*
X45786D02*
X45546D01*
X45426Y6175D01*
Y6415D01*
X45546Y6535D01*
X45786D01*
X45906Y6415D01*
Y6295D01*
X45426D01*
X46626Y6775D02*
Y6055D01*
X46266D01*
X46146Y6175D01*
Y6415D01*
X46266Y6535D01*
X46626D01*
X47585Y6775D02*
Y6055D01*
Y6415D01*
X48065D01*
Y6775D01*
Y6055D01*
X48425D02*
X48665D01*
X48785Y6175D01*
Y6415D01*
X48665Y6535D01*
X48425D01*
X48305Y6415D01*
Y6175D01*
X48425Y6055D01*
X49025D02*
X49265D01*
X49145D01*
Y6775D01*
X49025D01*
X49984Y6055D02*
X49745D01*
X49625Y6175D01*
Y6415D01*
X49745Y6535D01*
X49984D01*
X50104Y6415D01*
Y6295D01*
X49625D01*
X51544Y6655D02*
X51424Y6775D01*
X51184D01*
X51064Y6655D01*
Y6535D01*
X51184Y6415D01*
X51424D01*
X51544Y6295D01*
Y6175D01*
X51424Y6055D01*
X51184D01*
X51064Y6175D01*
X51784Y6055D02*
X52024D01*
X51904D01*
Y6535D01*
X51784D01*
X52384D02*
X52864D01*
X52384Y6055D01*
X52864D01*
X53463D02*
X53223D01*
X53103Y6175D01*
Y6415D01*
X53223Y6535D01*
X53463D01*
X53583Y6415D01*
Y6295D01*
X53103D01*
X54783Y6055D02*
Y6775D01*
X55143D01*
X55263Y6655D01*
Y6415D01*
X55143Y6295D01*
X54783D01*
X55503Y6055D02*
X55743D01*
X55623D01*
Y6775D01*
X55503D01*
X56223Y6535D02*
X56463D01*
X56583Y6415D01*
Y6055D01*
X56223D01*
X56103Y6175D01*
X56223Y6295D01*
X56583D01*
X56943Y6655D02*
Y6535D01*
X56823D01*
X57063D01*
X56943D01*
Y6175D01*
X57063Y6055D01*
X57782D02*
X57542D01*
X57422Y6175D01*
Y6415D01*
X57542Y6535D01*
X57782D01*
X57902Y6415D01*
Y6295D01*
X57422D01*
X58622Y6775D02*
Y6055D01*
X58262D01*
X58142Y6175D01*
Y6415D01*
X58262Y6535D01*
X58622D01*
X59822Y6775D02*
Y6055D01*
Y6415D01*
X60302D01*
Y6775D01*
Y6055D01*
X60662D02*
X60902D01*
X61022Y6175D01*
Y6415D01*
X60902Y6535D01*
X60662D01*
X60542Y6415D01*
Y6175D01*
X60662Y6055D01*
X61262D02*
X61502D01*
X61382D01*
Y6775D01*
X61262D01*
X62221Y6055D02*
X61981D01*
X61861Y6175D01*
Y6415D01*
X61981Y6535D01*
X62221D01*
X62341Y6415D01*
Y6295D01*
X61861D01*
X63301Y6775D02*
X63781D01*
X63541D01*
Y6055D01*
X64021Y6535D02*
Y6175D01*
X64141Y6055D01*
X64501D01*
Y5935D01*
X64381Y5815D01*
X64261D01*
X64501Y6055D02*
Y6535D01*
X64740Y5815D02*
Y6535D01*
X65100D01*
X65220Y6415D01*
Y6175D01*
X65100Y6055D01*
X64740D01*
X65820D02*
X65580D01*
X65460Y6175D01*
Y6415D01*
X65580Y6535D01*
X65820D01*
X65940Y6415D01*
Y6295D01*
X65460D01*
X28470Y7135D02*
X67140D01*
X28470Y5515D02*
X67140D01*
X28470Y7135D02*
Y3115D01*
X67140Y7135D02*
Y3115D01*
X33949Y7135D02*
Y3115D01*
X40907Y7135D02*
Y3115D01*
X54343Y7135D02*
Y3115D01*
X59382Y7135D02*
Y3115D01*
X28470Y4315D02*
X67140D01*
X28470Y3115D02*
X67140D01*
M02*
