%FSLAX24Y24*%
%MOIN*%
G70*
G01*
G75*
G04 Layer_Color=65535*
%ADD10C,0.0300*%
%ADD11R,0.0650X0.2100*%
G04:AMPARAMS|DCode=12|XSize=51.2mil|YSize=59.1mil|CornerRadius=0mil|HoleSize=0mil|Usage=FLASHONLY|Rotation=192.850|XOffset=0mil|YOffset=0mil|HoleType=Round|Shape=Rectangle|*
%AMROTATEDRECTD12*
4,1,4,0.0184,0.0345,0.0315,-0.0231,-0.0184,-0.0345,-0.0315,0.0231,0.0184,0.0345,0.0*
%
%ADD12ROTATEDRECTD12*%

G04:AMPARAMS|DCode=13|XSize=51.2mil|YSize=59.1mil|CornerRadius=0mil|HoleSize=0mil|Usage=FLASHONLY|Rotation=321.250|XOffset=0mil|YOffset=0mil|HoleType=Round|Shape=Rectangle|*
%AMROTATEDRECTD13*
4,1,4,-0.0384,-0.0070,-0.0015,0.0390,0.0384,0.0070,0.0015,-0.0390,-0.0384,-0.0070,0.0*
%
%ADD13ROTATEDRECTD13*%

G04:AMPARAMS|DCode=14|XSize=51.2mil|YSize=59.1mil|CornerRadius=0mil|HoleSize=0mil|Usage=FLASHONLY|Rotation=346.950|XOffset=0mil|YOffset=0mil|HoleType=Round|Shape=Rectangle|*
%AMROTATEDRECTD14*
4,1,4,-0.0316,-0.0230,-0.0183,0.0345,0.0316,0.0230,0.0183,-0.0345,-0.0316,-0.0230,0.0*
%
%ADD14ROTATEDRECTD14*%

G04:AMPARAMS|DCode=15|XSize=51.2mil|YSize=59.1mil|CornerRadius=0mil|HoleSize=0mil|Usage=FLASHONLY|Rotation=64.250|XOffset=0mil|YOffset=0mil|HoleType=Round|Shape=Rectangle|*
%AMROTATEDRECTD15*
4,1,4,0.0155,-0.0359,-0.0377,-0.0102,-0.0155,0.0359,0.0377,0.0102,0.0155,-0.0359,0.0*
%
%ADD15ROTATEDRECTD15*%

%ADD16R,0.0591X0.0512*%
G04:AMPARAMS|DCode=17|XSize=63mil|YSize=70.9mil|CornerRadius=0mil|HoleSize=0mil|Usage=FLASHONLY|Rotation=141.250|XOffset=0mil|YOffset=0mil|HoleType=Round|Shape=Rectangle|*
%AMROTATEDRECTD17*
4,1,4,0.0467,0.0079,0.0024,-0.0473,-0.0467,-0.0079,-0.0024,0.0473,0.0467,0.0079,0.0*
%
%ADD17ROTATEDRECTD17*%

G04:AMPARAMS|DCode=18|XSize=63mil|YSize=70.9mil|CornerRadius=0mil|HoleSize=0mil|Usage=FLASHONLY|Rotation=166.950|XOffset=0mil|YOffset=0mil|HoleType=Round|Shape=Rectangle|*
%AMROTATEDRECTD18*
4,1,4,0.0387,0.0274,0.0227,-0.0416,-0.0387,-0.0274,-0.0227,0.0416,0.0387,0.0274,0.0*
%
%ADD18ROTATEDRECTD18*%

G04:AMPARAMS|DCode=19|XSize=63mil|YSize=70.9mil|CornerRadius=0mil|HoleSize=0mil|Usage=FLASHONLY|Rotation=192.850|XOffset=0mil|YOffset=0mil|HoleType=Round|Shape=Rectangle|*
%AMROTATEDRECTD19*
4,1,4,0.0228,0.0416,0.0386,-0.0275,-0.0228,-0.0416,-0.0386,0.0275,0.0228,0.0416,0.0*
%
%ADD19ROTATEDRECTD19*%

G04:AMPARAMS|DCode=20|XSize=63mil|YSize=70.9mil|CornerRadius=0mil|HoleSize=0mil|Usage=FLASHONLY|Rotation=218.550|XOffset=0mil|YOffset=0mil|HoleType=Round|Shape=Rectangle|*
%AMROTATEDRECTD20*
4,1,4,0.0026,0.0473,0.0467,-0.0081,-0.0026,-0.0473,-0.0467,0.0081,0.0026,0.0473,0.0*
%
%ADD20ROTATEDRECTD20*%

G04:AMPARAMS|DCode=21|XSize=63mil|YSize=70.9mil|CornerRadius=0mil|HoleSize=0mil|Usage=FLASHONLY|Rotation=244.100|XOffset=0mil|YOffset=0mil|HoleType=Round|Shape=Rectangle|*
%AMROTATEDRECTD21*
4,1,4,-0.0181,0.0438,0.0456,0.0129,0.0181,-0.0438,-0.0456,-0.0129,-0.0181,0.0438,0.0*
%
%ADD21ROTATEDRECTD21*%

G04:AMPARAMS|DCode=22|XSize=63mil|YSize=70.9mil|CornerRadius=0mil|HoleSize=0mil|Usage=FLASHONLY|Rotation=269.850|XOffset=0mil|YOffset=0mil|HoleType=Round|Shape=Rectangle|*
%AMROTATEDRECTD22*
4,1,4,-0.0354,0.0316,0.0355,0.0314,0.0354,-0.0316,-0.0355,-0.0314,-0.0354,0.0316,0.0*
%
%ADD22ROTATEDRECTD22*%

G04:AMPARAMS|DCode=23|XSize=63mil|YSize=70.9mil|CornerRadius=0mil|HoleSize=0mil|Usage=FLASHONLY|Rotation=295.550|XOffset=0mil|YOffset=0mil|HoleType=Round|Shape=Rectangle|*
%AMROTATEDRECTD23*
4,1,4,-0.0456,0.0131,0.0184,0.0437,0.0456,-0.0131,-0.0184,-0.0437,-0.0456,0.0131,0.0*
%
%ADD23ROTATEDRECTD23*%

%ADD24R,0.1260X0.0394*%
%ADD25R,0.1260X0.0394*%
G04:AMPARAMS|DCode=26|XSize=51.2mil|YSize=59.1mil|CornerRadius=0mil|HoleSize=0mil|Usage=FLASHONLY|Rotation=38.550|XOffset=0mil|YOffset=0mil|HoleType=Round|Shape=Rectangle|*
%AMROTATEDRECTD26*
4,1,4,-0.0016,-0.0390,-0.0384,0.0071,0.0016,0.0390,0.0384,-0.0071,-0.0016,-0.0390,0.0*
%
%ADD26ROTATEDRECTD26*%

G04:AMPARAMS|DCode=27|XSize=51.2mil|YSize=59.1mil|CornerRadius=0mil|HoleSize=0mil|Usage=FLASHONLY|Rotation=295.550|XOffset=0mil|YOffset=0mil|HoleType=Round|Shape=Rectangle|*
%AMROTATEDRECTD27*
4,1,4,-0.0377,0.0104,0.0156,0.0358,0.0377,-0.0104,-0.0156,-0.0358,-0.0377,0.0104,0.0*
%
%ADD27ROTATEDRECTD27*%

G04:AMPARAMS|DCode=28|XSize=51.2mil|YSize=59.1mil|CornerRadius=0mil|HoleSize=0mil|Usage=FLASHONLY|Rotation=115.150|XOffset=0mil|YOffset=0mil|HoleType=Round|Shape=Rectangle|*
%AMROTATEDRECTD28*
4,1,4,0.0376,-0.0106,-0.0159,-0.0357,-0.0376,0.0106,0.0159,0.0357,0.0376,-0.0106,0.0*
%
%ADD28ROTATEDRECTD28*%

G04:AMPARAMS|DCode=29|XSize=63mil|YSize=70.9mil|CornerRadius=0mil|HoleSize=0mil|Usage=FLASHONLY|Rotation=115.150|XOffset=0mil|YOffset=0mil|HoleType=Round|Shape=Rectangle|*
%AMROTATEDRECTD29*
4,1,4,0.0455,-0.0135,-0.0187,-0.0436,-0.0455,0.0135,0.0187,0.0436,0.0455,-0.0135,0.0*
%
%ADD29ROTATEDRECTD29*%

%ADD30C,0.0200*%
%ADD31C,0.0049*%
%ADD32C,0.0100*%
%ADD33C,0.1400*%
%ADD34C,0.0079*%
%ADD35C,0.0098*%
%ADD36C,0.0010*%
%ADD37C,0.0080*%
%ADD38C,0.0039*%
%ADD39C,0.0120*%
%ADD40R,0.3900X0.0630*%
D31*
X30764Y-7068D02*
X30717Y-7021D01*
X30647Y-6998D01*
X30553D01*
X30483Y-7021D01*
X30436Y-7068D01*
Y-7115D01*
X30459Y-7162D01*
X30483Y-7185D01*
X30530Y-7208D01*
X30670Y-7255D01*
X30717Y-7279D01*
X30740Y-7302D01*
X30764Y-7349D01*
Y-7419D01*
X30717Y-7466D01*
X30647Y-7490D01*
X30553D01*
X30483Y-7466D01*
X30436Y-7419D01*
X30874Y-6998D02*
Y-7490D01*
X30977Y-6998D02*
Y-7490D01*
X31258D01*
X31312Y-6998D02*
Y-7490D01*
X31640Y-6998D02*
X31312Y-7326D01*
X31429Y-7208D02*
X31640Y-7490D01*
X32078Y-7068D02*
X32031Y-7021D01*
X31961Y-6998D01*
X31867D01*
X31797Y-7021D01*
X31750Y-7068D01*
Y-7115D01*
X31774Y-7162D01*
X31797Y-7185D01*
X31844Y-7208D01*
X31985Y-7255D01*
X32031Y-7279D01*
X32055Y-7302D01*
X32078Y-7349D01*
Y-7419D01*
X32031Y-7466D01*
X31961Y-7490D01*
X31867D01*
X31797Y-7466D01*
X31750Y-7419D01*
X32540Y-7115D02*
X32516Y-7068D01*
X32470Y-7021D01*
X32423Y-6998D01*
X32329D01*
X32282Y-7021D01*
X32235Y-7068D01*
X32212Y-7115D01*
X32188Y-7185D01*
Y-7302D01*
X32212Y-7372D01*
X32235Y-7419D01*
X32282Y-7466D01*
X32329Y-7490D01*
X32423D01*
X32470Y-7466D01*
X32516Y-7419D01*
X32540Y-7372D01*
X32678Y-6998D02*
Y-7490D01*
Y-6998D02*
X32889D01*
X32959Y-7021D01*
X32983Y-7044D01*
X33006Y-7091D01*
Y-7138D01*
X32983Y-7185D01*
X32959Y-7208D01*
X32889Y-7232D01*
X32678D01*
X32842D02*
X33006Y-7490D01*
X33421Y-6998D02*
X33116D01*
Y-7490D01*
X33421D01*
X33116Y-7232D02*
X33304D01*
X33807Y-6998D02*
X33503D01*
Y-7490D01*
X33807D01*
X33503Y-7232D02*
X33690D01*
X33889Y-6998D02*
Y-7490D01*
Y-6998D02*
X34217Y-7490D01*
Y-6998D02*
Y-7490D01*
X34904Y-6998D02*
Y-7490D01*
X34740Y-6998D02*
X35068D01*
X35267D02*
X35220Y-7021D01*
X35173Y-7068D01*
X35150Y-7115D01*
X35126Y-7185D01*
Y-7302D01*
X35150Y-7372D01*
X35173Y-7419D01*
X35220Y-7466D01*
X35267Y-7490D01*
X35361D01*
X35408Y-7466D01*
X35454Y-7419D01*
X35478Y-7372D01*
X35501Y-7302D01*
Y-7185D01*
X35478Y-7115D01*
X35454Y-7068D01*
X35408Y-7021D01*
X35361Y-6998D01*
X35267D01*
X35616Y-7255D02*
X35827D01*
X35897Y-7232D01*
X35921Y-7208D01*
X35944Y-7162D01*
Y-7091D01*
X35921Y-7044D01*
X35897Y-7021D01*
X35827Y-6998D01*
X35616D01*
Y-7490D01*
D32*
X13091Y18902D02*
G03*
X15209Y16783I2118J0D01*
G01*
X-2118D02*
G03*
X-0Y18902I0J2118D01*
G01*
X0Y1575D02*
G03*
X-2118Y3693I-2118J0D01*
G01*
X15209D02*
G03*
X13091Y1575I0J-2118D01*
G01*
X9301Y20476D02*
Y25988D01*
X3789Y20476D02*
Y25988D01*
X9301Y20476D02*
X13091D01*
X-0D02*
X3789D01*
X15209Y16783D02*
X16783D01*
X13091Y18902D02*
Y20476D01*
X-0Y18902D02*
Y20476D01*
X-3693Y16783D02*
X-2118D01*
X-3693D02*
X-3693Y3693D01*
X-2118D01*
X0Y0D02*
Y1575D01*
X13091Y0D02*
Y1575D01*
X15209Y3693D02*
X16783D01*
X3789Y25988D02*
X9301D01*
X16783Y3693D02*
X16783Y16783D01*
X0Y0D02*
X13091D01*
D34*
X1365Y8595D02*
X2901Y8945D01*
X1164Y9478D02*
X1365Y8595D01*
X1164Y9478D02*
X2699Y9828D01*
X2901Y8945D01*
X9828Y8196D02*
X11056Y7210D01*
X10489Y6504D02*
X11056Y7210D01*
X9261Y7490D02*
X10489Y6504D01*
X9261Y7490D02*
X9828Y8196D01*
X10388Y9822D02*
X11922Y9467D01*
X11717Y8585D02*
X11922Y9467D01*
X10183Y8940D02*
X11717Y8585D01*
X10183Y8940D02*
X10388Y9822D01*
X7807Y13889D02*
X8491Y15307D01*
X9307Y14914D01*
X8622Y13495D02*
X9307Y14914D01*
X7807Y13889D02*
X8622Y13495D01*
X6091Y15650D02*
X6091Y14075D01*
X6091Y15650D02*
X6996D01*
X6996Y14075D01*
X6091D02*
X6996D01*
X116Y15028D02*
X454Y15449D01*
X149Y14691D02*
X732Y14223D01*
X789Y15490D02*
X1373Y15021D01*
X1803Y14676D02*
X2386Y14208D01*
X1745Y13410D02*
X2386Y14208D01*
X1162Y13878D02*
X1745Y13410D01*
X-1365Y11774D02*
X-1243Y12300D01*
X-1189Y11485D02*
X-461Y11316D01*
X-958Y12482D02*
X-230Y12313D01*
X307Y12189D02*
X1036Y12020D01*
X805Y11023D02*
X1036Y12020D01*
X76Y11192D02*
X805Y11023D01*
X-1368Y8715D02*
X-1248Y8188D01*
X-963Y8005D02*
X-234Y8171D01*
X-1191Y9003D02*
X-462Y9169D01*
X76Y9292D02*
X805Y9458D01*
X1033Y8460D01*
X303Y8294D02*
X1033Y8460D01*
X75Y5434D02*
X411Y5012D01*
X747Y4970D02*
X1332Y5437D01*
X109Y5771D02*
X694Y6237D01*
X1125Y6581D02*
X1710Y7047D01*
X2348Y6246D01*
X1763Y5780D02*
X2348Y6246D01*
X2794Y3106D02*
X3280Y2870D01*
X3601Y2977D02*
X3928Y3650D01*
X2680Y3425D02*
X3007Y4098D01*
X3247Y4593D02*
X3574Y5266D01*
X4495Y4819D01*
X4168Y4146D02*
X4495Y4819D01*
X6270Y2186D02*
X6810Y2184D01*
X7052Y2420D02*
X7054Y3168D01*
X6029Y2423D02*
X6031Y3171D01*
X6032Y3722D02*
X6034Y4470D01*
X7058Y4467D01*
X7056Y3719D02*
X7058Y4467D01*
X9788Y2863D02*
X10275Y3096D01*
X10069Y4089D02*
X10392Y3414D01*
X9146Y3647D02*
X9468Y2972D01*
X8585Y4819D02*
X8908Y4145D01*
X8585Y4819D02*
X9509Y5261D01*
X9831Y4586D01*
X12665Y5000D02*
X13003Y5421D01*
X12386Y6226D02*
X12970Y5758D01*
X11745Y5428D02*
X12329Y4959D01*
X10732Y6241D02*
X11316Y5773D01*
X10732Y6241D02*
X11373Y7039D01*
X11956Y6571D01*
X14330Y8173D02*
X14452Y8699D01*
X13547Y9156D02*
X14276Y8988D01*
X13316Y8159D02*
X14045Y7990D01*
X12050Y8453D02*
X12779Y8284D01*
X12050Y8453D02*
X12282Y9450D01*
X13010Y9281D01*
X14334Y12284D02*
X14454Y11758D01*
X13321Y12301D02*
X14050Y12467D01*
X13548Y11303D02*
X14278Y11469D01*
X12282Y11014D02*
X13011Y11181D01*
X12054Y12012D02*
X12282Y11014D01*
X12054Y12012D02*
X12783Y12179D01*
X12675Y15460D02*
X13012Y15038D01*
X11755Y15036D02*
X12340Y15502D01*
X12393Y14235D02*
X12978Y14702D01*
X11377Y13426D02*
X11962Y13892D01*
X10739Y14226D02*
X11377Y13426D01*
X10739Y14226D02*
X11324Y14692D01*
X9803Y17603D02*
X10290Y17368D01*
X9158Y16821D02*
X9483Y17495D01*
X10080Y16376D02*
X10405Y17050D01*
X9515Y15206D02*
X9840Y15880D01*
X8593Y15651D02*
X9515Y15206D01*
X8593Y15651D02*
X8918Y16325D01*
X6273Y18288D02*
X6813D01*
X6032Y18051D02*
X6032Y17303D01*
X7055D02*
Y18051D01*
Y16752D02*
X7055Y16004D01*
X6032D02*
X7055D01*
X6032D02*
Y16752D01*
X4305Y8929D02*
X5992Y8929D01*
X4315Y11549D02*
X5995D01*
X4305Y8929D02*
Y11549D01*
X8782Y8929D02*
Y11549D01*
X7092D02*
X8772D01*
X7094Y8929D02*
X8782D01*
X9266Y12979D02*
X10497Y13961D01*
X11062Y13253D01*
X9830Y12271D02*
X11062Y13253D01*
X9266Y12979D02*
X9830Y12271D01*
X10186Y11527D02*
X11721Y11878D01*
X11923Y10995D01*
X10387Y10645D02*
X11923Y10995D01*
X10186Y11527D02*
X10387Y10645D01*
X2589Y6512D02*
X3821Y7493D01*
X2025Y7220D02*
X2589Y6512D01*
X2025Y7220D02*
X3257Y8201D01*
X3821Y7493D01*
X1165Y11006D02*
X2699Y10650D01*
X1165Y11006D02*
X1369Y11888D01*
X2903Y11532D01*
X2699Y10650D02*
X2903Y11532D01*
X2047Y13251D02*
X3275Y12265D01*
X2047Y13251D02*
X2613Y13957D01*
X3841Y12971D01*
X3275Y12265D02*
X3841Y12971D01*
X6986Y4822D02*
X6990Y6396D01*
X6080Y4824D02*
X6986Y4822D01*
X6080Y4824D02*
X6085Y6399D01*
X6990Y6396D01*
X8618Y6974D02*
X9297Y5553D01*
X8481Y5162D02*
X9297Y5553D01*
X7801Y6583D02*
X8481Y5162D01*
X7801Y6583D02*
X8618Y6974D01*
X4593Y5165D02*
X5281Y6582D01*
X3779Y5561D02*
X4593Y5165D01*
X3779Y5561D02*
X4467Y6977D01*
X5281Y6582D01*
X3793Y14925D02*
X4462Y13499D01*
X3793Y14925D02*
X4612Y15310D01*
X5282Y13884D01*
X4462Y13499D02*
X5282Y13884D01*
X2818Y17382D02*
X3307Y17611D01*
X2700Y17065D02*
X3018Y16388D01*
X3626Y17500D02*
X3944Y16823D01*
X4179Y16324D02*
X4496Y15647D01*
X3570Y15212D02*
X4496Y15647D01*
X3252Y15889D02*
X3570Y15212D01*
D36*
X6454Y22102D02*
X6554D01*
X6434Y22111D02*
X6574D01*
X6414Y22122D02*
X6594D01*
X6404Y22132D02*
X6604D01*
X6394Y22141D02*
X6614D01*
X6384Y22152D02*
X6624D01*
X6384Y22162D02*
X6634D01*
X6374Y22171D02*
X6634D01*
X6374Y22181D02*
X6694D01*
X6324Y22192D02*
X6754D01*
X6274Y22201D02*
X6804D01*
X6244Y22211D02*
X6834D01*
X6214Y22222D02*
X6864D01*
X6194Y22232D02*
X6884D01*
X6164Y22241D02*
X6904D01*
X6154Y22252D02*
X6914D01*
X6134Y22262D02*
X6934D01*
X6124Y22271D02*
X6944D01*
X6104Y22281D02*
X6964D01*
X6094Y22292D02*
X6974D01*
X6084Y22301D02*
X6984D01*
X6654Y22311D02*
X6994D01*
X6074D02*
X6634D01*
X6724Y22322D02*
X6994D01*
X6384D02*
X6624D01*
X6064D02*
X6374D01*
X6764Y22332D02*
X7004D01*
X6394D02*
X6624D01*
X6064D02*
X6324D01*
X6784Y22341D02*
X7014D01*
X6404D02*
X6614D01*
X6054D02*
X6294D01*
X6804Y22352D02*
X7014D01*
X6414D02*
X6604D01*
X6054D02*
X6264D01*
X6824Y22362D02*
X7024D01*
X6424D02*
X6594D01*
X6044D02*
X6244D01*
X6834Y22371D02*
X7024D01*
X6444D02*
X6574D01*
X6044D02*
X6234D01*
X6844Y22381D02*
X7024D01*
X6474D02*
X6544D01*
X6034D02*
X6214D01*
X6854Y22392D02*
X7034D01*
X6034D02*
X6214D01*
X6854Y22401D02*
X7034D01*
X6034D02*
X6204D01*
X6864Y22411D02*
X7034D01*
X6034D02*
X6194D01*
X6864Y22422D02*
X7034D01*
X6034D02*
X6194D01*
X6864Y22431D02*
X7034D01*
X6034D02*
X6194D01*
X6874Y22441D02*
X7034D01*
X6034D02*
X6194D01*
X6874Y22452D02*
X7034D01*
X6034D02*
X6194D01*
X6874Y22462D02*
X7034D01*
X6034D02*
X6194D01*
X6864Y22471D02*
X7034D01*
X6034D02*
X6204D01*
X6864Y22482D02*
X7034D01*
X6034D02*
X6204D01*
X6864Y22492D02*
X7034D01*
X6464D02*
X6554D01*
X6034D02*
X6214D01*
X6854Y22501D02*
X7034D01*
X6454D02*
X6554D01*
X6044D02*
X6214D01*
X6844Y22511D02*
X7024D01*
X6454D02*
X6554D01*
X6044D02*
X6224D01*
X6834Y22522D02*
X7024D01*
X6454D02*
X6554D01*
X6044D02*
X6244D01*
X6814Y22531D02*
X7024D01*
X6454D02*
X6554D01*
X6054D02*
X6254D01*
X6794Y22541D02*
X7014D01*
X6454D02*
X6554D01*
X6054D02*
X6274D01*
X6764Y22552D02*
X7014D01*
X6454D02*
X6564D01*
X6064D02*
X6294D01*
X6724Y22562D02*
X7004D01*
X6454D02*
X6564D01*
X6074D02*
X6324D01*
X6664Y22571D02*
X7004D01*
X6454D02*
X6564D01*
X6084D02*
X6354D01*
X6444Y22582D02*
X6994D01*
X6094D02*
X6434D01*
X6104Y22592D02*
X6984D01*
X6114Y22601D02*
X6974D01*
X6124Y22611D02*
X6964D01*
X6144Y22622D02*
X6954D01*
X6164Y22631D02*
X6934D01*
X6184Y22641D02*
X6924D01*
X6174Y22652D02*
X6904D01*
X6154Y22661D02*
X6874D01*
X6144Y22671D02*
X6854D01*
X6134Y22682D02*
X6814D01*
X6124Y22692D02*
X6764D01*
X6114Y22701D02*
X6694D01*
X6104Y22712D02*
X6604D01*
X6104Y22722D02*
X6584D01*
X6434Y22731D02*
X6584D01*
X6104D02*
X6404D01*
X6434Y22741D02*
X6584D01*
X6094D02*
X6334D01*
X6434Y22752D02*
X6584D01*
X6094D02*
X6294D01*
X6434Y22761D02*
X6584D01*
X6094D02*
X6274D01*
X6434Y22771D02*
X6584D01*
X6094D02*
X6254D01*
X6434Y22782D02*
X6584D01*
X6094D02*
X6254D01*
X6434Y22792D02*
X6584D01*
X6094D02*
X6254D01*
X6434Y22801D02*
X6584D01*
X6094D02*
X6254D01*
X6434Y22812D02*
X6594D01*
X6094D02*
X6264D01*
X6394Y22822D02*
X6644D01*
X6104D02*
X6274D01*
X6354Y22831D02*
X6674D01*
X6104D02*
X6294D01*
X6324Y22841D02*
X6704D01*
X6114D02*
X6304D01*
X6114Y22852D02*
X6724D01*
X6124Y22861D02*
X6744D01*
X6134Y22871D02*
X6764D01*
X6144Y22882D02*
X6784D01*
X6154Y22891D02*
X6794D01*
X6164Y22901D02*
X6804D01*
X6174Y22912D02*
X6814D01*
X6184Y22922D02*
X6824D01*
X6194Y22931D02*
X6834D01*
X6184Y22942D02*
X6844D01*
X6174Y22952D02*
X6854D01*
X6614Y22961D02*
X6864D01*
X6414D02*
X6604D01*
X6164D02*
X6404D01*
X6634Y22971D02*
X6874D01*
X6414D02*
X6604D01*
X6154D02*
X6374D01*
X6654Y22982D02*
X6874D01*
X6414D02*
X6614D01*
X6154D02*
X6364D01*
X6674Y22991D02*
X6884D01*
X6404D02*
X6614D01*
X6144D02*
X6344D01*
X6694Y23001D02*
X6894D01*
X6404D02*
X6614D01*
X6134D02*
X6334D01*
X6704Y23012D02*
X6894D01*
X6404D02*
X6614D01*
X6134D02*
X6324D01*
X6714Y23022D02*
X6904D01*
X6404D02*
X6614D01*
X6124D02*
X6314D01*
X6724Y23031D02*
X6904D01*
X6404D02*
X6614D01*
X6124D02*
X6304D01*
X6734Y23042D02*
X6914D01*
X6404D02*
X6614D01*
X6114D02*
X6294D01*
X6734Y23052D02*
X6914D01*
X6404D02*
X6614D01*
X6114D02*
X6294D01*
X6744Y23061D02*
X6914D01*
X6394D02*
X6614D01*
X6114D02*
X6284D01*
X6744Y23071D02*
X6924D01*
X6394D02*
X6624D01*
X6104D02*
X6284D01*
X6754Y23082D02*
X6924D01*
X6394D02*
X6624D01*
X6104D02*
X6274D01*
X6754Y23091D02*
X6924D01*
X6394D02*
X6624D01*
X6104D02*
X6274D01*
X6754Y23101D02*
X6924D01*
X6394D02*
X6624D01*
X6094D02*
X6274D01*
X6764Y23112D02*
X6934D01*
X6394D02*
X6624D01*
X6094D02*
X6264D01*
X6764Y23122D02*
X6934D01*
X6394D02*
X6624D01*
X6094D02*
X6264D01*
X6764Y23131D02*
X6934D01*
X6394D02*
X6624D01*
X6094D02*
X6264D01*
X6764Y23142D02*
X6934D01*
X6384D02*
X6624D01*
X6094D02*
X6264D01*
X6764Y23152D02*
X6934D01*
X6384D02*
X6634D01*
X6094D02*
X6264D01*
X6764Y23161D02*
X6934D01*
X6384D02*
X6634D01*
X6094D02*
X6264D01*
X6764Y23172D02*
X6934D01*
X6384D02*
X6634D01*
X6094D02*
X6264D01*
X6764Y23182D02*
X6934D01*
X6384D02*
X6634D01*
X6094D02*
X6264D01*
X6764Y23191D02*
X6934D01*
X6384D02*
X6634D01*
X6094D02*
X6264D01*
X6764Y23201D02*
X6934D01*
X6384D02*
X6634D01*
X6094D02*
X6264D01*
X6754Y23212D02*
X6934D01*
X6374D02*
X6634D01*
X6094D02*
X6264D01*
X6754Y23221D02*
X6934D01*
X6374D02*
X6634D01*
X6094D02*
X6264D01*
X6754Y23231D02*
X6924D01*
X6374D02*
X6634D01*
X6094D02*
X6274D01*
X6744Y23242D02*
X6924D01*
X6374D02*
X6644D01*
X6104D02*
X6274D01*
X6744Y23252D02*
X6924D01*
X6374D02*
X6644D01*
X6104D02*
X6274D01*
X6744Y23261D02*
X6924D01*
X6374D02*
X6644D01*
X6104D02*
X6284D01*
X6734Y23272D02*
X6914D01*
X6374D02*
X6644D01*
X6104D02*
X6284D01*
X6724Y23282D02*
X6914D01*
X6374D02*
X6644D01*
X6114D02*
X6294D01*
X6724Y23291D02*
X6914D01*
X6364D02*
X6644D01*
X6114D02*
X6304D01*
X6714Y23301D02*
X6904D01*
X6364D02*
X6644D01*
X6114D02*
X6304D01*
X6704Y23312D02*
X6904D01*
X6364D02*
X6644D01*
X6124D02*
X6314D01*
X6694Y23321D02*
X6894D01*
X6364D02*
X6654D01*
X6124D02*
X6324D01*
X6684Y23331D02*
X6894D01*
X6364D02*
X6654D01*
X6134D02*
X6334D01*
X6674Y23342D02*
X6884D01*
X6364D02*
X6654D01*
X6144D02*
X6354D01*
X6144Y23352D02*
X6884D01*
X6154Y23361D02*
X6874D01*
X6164Y23372D02*
X6864D01*
X6174Y23382D02*
X6854D01*
X6174Y23391D02*
X6854D01*
X6184Y23402D02*
X6844D01*
X6194Y23412D02*
X6834D01*
X6204Y23421D02*
X6824D01*
X6224Y23431D02*
X6804D01*
X6234Y23442D02*
X6794D01*
X6244Y23451D02*
X6774D01*
X6264Y23461D02*
X6764D01*
X6274Y23472D02*
X6744D01*
X6294Y23482D02*
X6724D01*
X6324Y23491D02*
X6694D01*
X6344Y23502D02*
X6664D01*
X6384Y23512D02*
X6634D01*
X6384Y23521D02*
X6634D01*
X6394Y23531D02*
X6624D01*
X6394Y23542D02*
X6614D01*
X6404Y23551D02*
X6614D01*
X6414Y23561D02*
X6604D01*
X6424Y23572D02*
X6594D01*
X6444Y23582D02*
X6574D01*
X6464Y23591D02*
X6554D01*
D37*
X9013Y21771D02*
Y25991D01*
X4073Y25990D02*
X9003D01*
X8173Y21771D02*
X9003D01*
X4073D02*
X4923D01*
X4073D02*
Y25991D01*
X116Y15028D02*
X153Y14690D01*
X454Y15449D02*
X791Y15486D01*
X-1365Y11774D02*
X-1185Y11486D01*
X-1243Y12300D02*
X-955Y12480D01*
X-1248Y8188D02*
X-960Y8008D01*
X-1368Y8715D02*
X-1187Y9002D01*
X411Y5012D02*
X748Y4974D01*
X75Y5434D02*
X113Y5772D01*
X3280Y2870D02*
X3601Y2982D01*
X2683Y3427D02*
X2794Y3106D01*
X6810Y2184D02*
X7051Y2424D01*
X6031Y2426D02*
X6270Y2186D01*
X10275Y3096D02*
X10388Y3416D01*
X9468Y2977D02*
X9788Y2863D01*
X12966Y5759D02*
X13003Y5421D01*
X12327Y4963D02*
X12665Y5000D01*
X14272Y8987D02*
X14452Y8699D01*
X14042Y7993D02*
X14330Y8173D01*
X14047Y12465D02*
X14334Y12284D01*
X14274Y11470D02*
X14454Y11758D01*
X12338Y15498D02*
X12675Y15460D01*
X12974Y14701D02*
X13012Y15038D01*
X9483Y17491D02*
X9803Y17603D01*
X10290Y17368D02*
X10402Y17048D01*
X6033Y18048D02*
X6273Y18288D01*
X6813D02*
X7053Y18048D01*
X2703Y17062D02*
X2818Y17382D01*
X3307Y17611D02*
X3626Y17496D01*
X6367Y8633D02*
X6300Y8700D01*
X6167D01*
X6100Y8633D01*
Y8567D01*
X6167Y8500D01*
X6300D01*
X6367Y8433D01*
Y8367D01*
X6300Y8300D01*
X6167D01*
X6100Y8367D01*
X6500Y8700D02*
Y8300D01*
X6633Y8433D01*
X6766Y8300D01*
Y8700D01*
X6900Y8300D02*
X7033D01*
X6966D01*
Y8700D01*
X6900Y8633D01*
X6280Y18835D02*
Y18435D01*
X6479D01*
X6546Y18502D01*
Y18768D01*
X6479Y18835D01*
X6280D01*
X6679Y18435D02*
X6813D01*
X6746D01*
Y18835D01*
X6679Y18768D01*
X9969Y17769D02*
X10329Y17595D01*
X10416Y17775D01*
X10385Y17864D01*
X10144Y17980D01*
X10055Y17949D01*
X9969Y17769D01*
X10618Y18195D02*
X10502Y17955D01*
X10378Y18311D01*
X10318Y18340D01*
X10229Y18309D01*
X10171Y18189D01*
X10202Y18100D01*
X12903Y15497D02*
X13152Y15185D01*
X13308Y15309D01*
X13319Y15403D01*
X13153Y15611D01*
X13059Y15622D01*
X12903Y15497D01*
X13257Y15695D02*
X13268Y15788D01*
X13372Y15871D01*
X13465Y15861D01*
X13507Y15809D01*
X13496Y15715D01*
X13444Y15673D01*
X13496Y15715D01*
X13590Y15704D01*
X13632Y15652D01*
X13621Y15559D01*
X13517Y15475D01*
X13423Y15486D01*
X14550Y12250D02*
X14639Y11860D01*
X14834Y11905D01*
X14884Y11985D01*
X14825Y12245D01*
X14745Y12295D01*
X14550Y12250D01*
X15224Y11994D02*
X15135Y12384D01*
X14984Y12144D01*
X15244Y12204D01*
X14639Y8597D02*
X14549Y8208D01*
X14743Y8163D01*
X14823Y8213D01*
X14884Y8472D01*
X14834Y8552D01*
X14639Y8597D01*
X15288Y8447D02*
X15029Y8507D01*
X14983Y8312D01*
X15128Y8347D01*
X15193Y8332D01*
X15243Y8252D01*
X15213Y8122D01*
X15133Y8072D01*
X15003Y8102D01*
X14953Y8182D01*
X13112Y5196D02*
X12862Y4885D01*
X13018Y4759D01*
X13111Y4770D01*
X13278Y4978D01*
X13268Y5071D01*
X13112Y5196D01*
X13632Y4779D02*
X13486Y4811D01*
X13299Y4790D01*
X13215Y4686D01*
X13225Y4593D01*
X13329Y4509D01*
X13423Y4519D01*
X13465Y4571D01*
X13455Y4665D01*
X13299Y4790D01*
X10308Y2872D02*
X9947Y2699D01*
X10033Y2519D01*
X10122Y2487D01*
X10363Y2602D01*
X10394Y2691D01*
X10308Y2872D01*
X10480Y2511D02*
X10595Y2270D01*
X10535Y2242D01*
X10180Y2367D01*
X10120Y2338D01*
X6226Y1975D02*
X6220Y1575D01*
X6420Y1572D01*
X6488Y1638D01*
X6492Y1904D01*
X6426Y1972D01*
X6226Y1975D01*
X6625Y1902D02*
X6693Y1968D01*
X6826Y1966D01*
X6892Y1899D01*
X6891Y1832D01*
X6823Y1766D01*
X6889Y1699D01*
X6888Y1632D01*
X6820Y1566D01*
X6687Y1568D01*
X6621Y1636D01*
X6622Y1702D01*
X6690Y1768D01*
X6624Y1836D01*
X6625Y1902D01*
X6690Y1768D02*
X6823Y1766D01*
X2455Y2271D02*
X2815Y2096D01*
X2902Y2276D01*
X2872Y2365D01*
X2632Y2482D01*
X2543Y2451D01*
X2455Y2271D01*
X2930Y2485D02*
X3019Y2516D01*
X3077Y2636D01*
X3047Y2725D01*
X2807Y2842D01*
X2718Y2811D01*
X2660Y2691D01*
X2690Y2602D01*
X2750Y2573D01*
X2839Y2603D01*
X2927Y2783D01*
X-859Y4639D02*
X-610Y4326D01*
X-454Y4451D01*
X-443Y4545D01*
X-609Y4753D01*
X-703Y4764D01*
X-859Y4639D01*
X-297Y4576D02*
X-193Y4659D01*
X-245Y4617D01*
X-494Y4930D01*
X-505Y4836D01*
X-244Y5044D02*
X-234Y5137D01*
X-130Y5221D01*
X-36Y5210D01*
X130Y5001D01*
X120Y4908D01*
X15Y4825D01*
X-78Y4835D01*
X-244Y5044D01*
X-2422Y8431D02*
X-2333Y8041D01*
X-2138Y8086D01*
X-2088Y8166D01*
X-2148Y8425D01*
X-2227Y8476D01*
X-2422Y8431D01*
X-1944Y8130D02*
X-1814Y8160D01*
X-1879Y8145D01*
X-1967Y8535D01*
X-2018Y8455D01*
X-1619Y8204D02*
X-1489Y8234D01*
X-1554Y8219D01*
X-1643Y8609D01*
X-1693Y8529D01*
X-2453Y12507D02*
X-2543Y12117D01*
X-2348Y12072D01*
X-2268Y12122D01*
X-2208Y12382D01*
X-2258Y12462D01*
X-2453Y12507D01*
X-2154Y12027D02*
X-2024Y11997D01*
X-2089Y12012D01*
X-1998Y12401D01*
X-2078Y12352D01*
X-1569Y11891D02*
X-1829Y11952D01*
X-1509Y12151D01*
X-1494Y12216D01*
X-1544Y12296D01*
X-1674Y12326D01*
X-1754Y12276D01*
X-550Y16182D02*
X-800Y15871D01*
X-644Y15745D01*
X-551Y15756D01*
X-384Y15964D01*
X-394Y16057D01*
X-550Y16182D01*
X-489Y15620D02*
X-385Y15537D01*
X-437Y15579D01*
X-186Y15890D01*
X-280Y15880D01*
X-20Y15672D02*
X74Y15682D01*
X178Y15598D01*
X188Y15505D01*
X146Y15453D01*
X52Y15442D01*
X0Y15484D01*
X52Y15442D01*
X63Y15349D01*
X21Y15297D01*
X-73Y15287D01*
X-177Y15370D01*
X-187Y15464D01*
X4281Y20699D02*
Y21099D01*
X4481D01*
X4548Y21032D01*
Y20899D01*
X4481Y20832D01*
X4281D01*
X4681Y20699D02*
X4815D01*
X4748D01*
Y21099D01*
X4681Y21032D01*
X6300Y13450D02*
Y13850D01*
X6500D01*
X6567Y13783D01*
Y13650D01*
X6500Y13583D01*
X6300D01*
X6433D02*
X6567Y13450D01*
X6700D02*
X6833D01*
X6767D01*
Y13850D01*
X6700Y13783D01*
X8003Y12820D02*
X7642Y12994D01*
X7729Y13174D01*
X7818Y13205D01*
X7938Y13147D01*
X7969Y13058D01*
X7883Y12878D01*
X7940Y12998D02*
X8118Y13060D01*
X8292Y13420D02*
X8176Y13180D01*
X8052Y13536D01*
X7992Y13565D01*
X7903Y13534D01*
X7845Y13414D01*
X7876Y13325D01*
X8959Y11937D02*
X8710Y12249D01*
X8866Y12374D01*
X8960Y12363D01*
X9043Y12259D01*
X9032Y12165D01*
X8876Y12041D01*
X8980Y12124D02*
X9168Y12103D01*
X9064Y12446D02*
X9075Y12540D01*
X9179Y12623D01*
X9273Y12612D01*
X9314Y12560D01*
X9304Y12467D01*
X9252Y12425D01*
X9304Y12467D01*
X9397Y12456D01*
X9439Y12404D01*
X9428Y12310D01*
X9324Y12227D01*
X9230Y12238D01*
X9464Y10663D02*
X9375Y11053D01*
X9570Y11097D01*
X9650Y11047D01*
X9680Y10917D01*
X9630Y10837D01*
X9435Y10793D01*
X9565Y10822D02*
X9724Y10722D01*
X10049Y10796D02*
X9960Y11186D01*
X9810Y10947D01*
X10070Y11006D01*
X9384Y9399D02*
X9475Y9789D01*
X9669Y9743D01*
X9719Y9663D01*
X9689Y9534D01*
X9609Y9484D01*
X9414Y9529D01*
X9544Y9499D02*
X9644Y9339D01*
X10124Y9638D02*
X9864Y9698D01*
X9819Y9503D01*
X9964Y9538D01*
X10029Y9523D01*
X10079Y9443D01*
X10049Y9313D01*
X9969Y9264D01*
X9839Y9294D01*
X9789Y9374D01*
X8755Y8315D02*
X9006Y8627D01*
X9162Y8502D01*
X9172Y8408D01*
X9089Y8304D01*
X8995Y8294D01*
X8839Y8419D01*
X8943Y8336D02*
X8963Y8149D01*
X9526Y8210D02*
X9380Y8242D01*
X9193Y8221D01*
X9109Y8117D01*
X9119Y8023D01*
X9223Y7940D01*
X9317Y7950D01*
X9359Y8002D01*
X9348Y8096D01*
X9193Y8221D01*
X7655Y7481D02*
X8015Y7654D01*
X8102Y7473D01*
X8070Y7385D01*
X7950Y7327D01*
X7861Y7358D01*
X7775Y7539D01*
X7832Y7419D02*
X7770Y7241D01*
X8188Y7293D02*
X8303Y7053D01*
X8243Y7024D01*
X7887Y7149D01*
X7827Y7121D01*
X6211Y6585D02*
X6212Y6985D01*
X6412Y6984D01*
X6478Y6917D01*
X6478Y6784D01*
X6411Y6717D01*
X6211Y6718D01*
X6344Y6717D02*
X6477Y6584D01*
X6612Y6916D02*
X6679Y6983D01*
X6812Y6982D01*
X6878Y6916D01*
X6878Y6849D01*
X6811Y6782D01*
X6878Y6716D01*
X6877Y6649D01*
X6810Y6583D01*
X6677Y6583D01*
X6611Y6650D01*
X6611Y6717D01*
X6678Y6783D01*
X6611Y6850D01*
X6612Y6916D01*
X6678Y6783D02*
X6811Y6782D01*
X5138Y6880D02*
X4779Y7056D01*
X4867Y7236D01*
X4956Y7266D01*
X5076Y7207D01*
X5106Y7118D01*
X5018Y6939D01*
X5077Y7058D02*
X5255Y7119D01*
X5254Y7268D02*
X5343Y7299D01*
X5402Y7418D01*
X5372Y7508D01*
X5132Y7625D01*
X5043Y7595D01*
X4984Y7475D01*
X5015Y7386D01*
X5075Y7356D01*
X5164Y7387D01*
X5252Y7566D01*
X3833Y7810D02*
X3584Y8123D01*
X3740Y8247D01*
X3834Y8237D01*
X3917Y8133D01*
X3907Y8039D01*
X3750Y7914D01*
X3854Y7997D02*
X4042Y7976D01*
X4146Y8059D02*
X4250Y8142D01*
X4198Y8101D01*
X3949Y8414D01*
X3938Y8320D01*
X4199Y8528D02*
X4210Y8621D01*
X4314Y8704D01*
X4407Y8694D01*
X4574Y8485D01*
X4563Y8392D01*
X4459Y8309D01*
X4365Y8319D01*
X4199Y8528D01*
X3044Y9266D02*
X2955Y9656D01*
X3150Y9700D01*
X3230Y9650D01*
X3260Y9520D01*
X3210Y9440D01*
X3015Y9396D01*
X3145Y9426D02*
X3304Y9325D01*
X3434Y9355D02*
X3564Y9385D01*
X3499Y9370D01*
X3410Y9760D01*
X3360Y9680D01*
X3759Y9429D02*
X3889Y9459D01*
X3824Y9444D01*
X3735Y9834D01*
X3685Y9754D01*
X2939Y10849D02*
X3029Y11238D01*
X3224Y11193D01*
X3274Y11113D01*
X3244Y10983D01*
X3164Y10933D01*
X2969Y10978D01*
X3099Y10948D02*
X3199Y10788D01*
X3328Y10758D02*
X3458Y10728D01*
X3393Y10743D01*
X3484Y11133D01*
X3404Y11083D01*
X3913Y10623D02*
X3653Y10683D01*
X3973Y10883D01*
X3988Y10948D01*
X3938Y11027D01*
X3808Y11058D01*
X3728Y11008D01*
X3594Y12350D02*
X3844Y12662D01*
X4000Y12537D01*
X4010Y12443D01*
X3927Y12340D01*
X3833Y12329D01*
X3677Y12454D01*
X3781Y12371D02*
X3802Y12184D01*
X3906Y12100D02*
X4010Y12017D01*
X3958Y12058D01*
X4208Y12370D01*
X4114Y12360D01*
X4374Y12151D02*
X4468Y12162D01*
X4572Y12078D01*
X4582Y11985D01*
X4540Y11933D01*
X4447Y11922D01*
X4395Y11964D01*
X4447Y11922D01*
X4457Y11829D01*
X4415Y11777D01*
X4321Y11766D01*
X4218Y11850D01*
X4207Y11944D01*
X4786Y13436D02*
X5148Y13606D01*
X5233Y13425D01*
X5201Y13336D01*
X5081Y13280D01*
X4992Y13312D01*
X4907Y13493D01*
X4964Y13372D02*
X4900Y13195D01*
X4956Y13074D02*
X5013Y12953D01*
X4985Y13014D01*
X5347Y13184D01*
X5258Y13216D01*
X5183Y12591D02*
X5545Y12761D01*
X5279Y12857D01*
X5392Y12616D01*
X2728Y18711D02*
X2366Y18541D01*
X2451Y18360D01*
X2540Y18328D01*
X2781Y18442D01*
X2813Y18530D01*
X2728Y18711D01*
X2536Y18179D02*
X2593Y18059D01*
X2565Y18119D01*
X2927Y18289D01*
X2838Y18321D01*
X2763Y17697D02*
X3125Y17867D01*
X2859Y17963D01*
X2972Y17721D01*
X767Y843D02*
X700Y910D01*
X567D01*
X500Y843D01*
Y777D01*
X567Y710D01*
X700D01*
X767Y643D01*
Y577D01*
X700Y510D01*
X567D01*
X500Y577D01*
X967Y510D02*
X1100D01*
X1166Y577D01*
Y710D01*
X1100Y777D01*
X967D01*
X900Y710D01*
Y577D01*
X967Y510D01*
X1300D02*
X1433D01*
X1366D01*
Y910D01*
X1300D01*
X1633Y510D02*
X1766D01*
X1700D01*
Y777D01*
X1633D01*
X2233Y910D02*
Y510D01*
X2033D01*
X1966Y577D01*
Y710D01*
X2033Y777D01*
X2233D01*
X2433Y510D02*
X2566D01*
X2633Y577D01*
Y710D01*
X2566Y777D01*
X2433D01*
X2366Y710D01*
Y577D01*
X2433Y510D01*
X2833D02*
X2966D01*
X3033Y577D01*
Y710D01*
X2966Y777D01*
X2833D01*
X2766Y710D01*
Y577D01*
X2833Y510D01*
X3432Y910D02*
Y510D01*
X3232D01*
X3166Y577D01*
Y710D01*
X3232Y777D01*
X3432D01*
X3566Y510D02*
X3699D01*
X3632D01*
Y910D01*
X3566D01*
X4099Y510D02*
X3966D01*
X3899Y577D01*
Y710D01*
X3966Y777D01*
X4099D01*
X4165Y710D01*
Y643D01*
X3899D01*
X4699Y910D02*
Y510D01*
X4899D01*
X4965Y577D01*
Y643D01*
X4899Y710D01*
X4699D01*
X4899D01*
X4965Y777D01*
Y843D01*
X4899Y910D01*
X4699D01*
X5099Y777D02*
Y577D01*
X5165Y510D01*
X5365D01*
Y777D01*
X5565Y843D02*
Y777D01*
X5498D01*
X5632D01*
X5565D01*
Y577D01*
X5632Y510D01*
X5898Y843D02*
Y777D01*
X5832D01*
X5965D01*
X5898D01*
Y577D01*
X5965Y510D01*
X6231D02*
X6365D01*
X6431Y577D01*
Y710D01*
X6365Y777D01*
X6231D01*
X6165Y710D01*
Y577D01*
X6231Y510D01*
X6565D02*
Y777D01*
X6765D01*
X6831Y710D01*
Y510D01*
X7364D02*
Y910D01*
X7564D01*
X7631Y843D01*
Y710D01*
X7564Y643D01*
X7364D01*
X8031Y843D02*
X7964Y910D01*
X7831D01*
X7764Y843D01*
Y577D01*
X7831Y510D01*
X7964D01*
X8031Y577D01*
X8164Y910D02*
Y510D01*
X8364D01*
X8431Y577D01*
Y643D01*
X8364Y710D01*
X8164D01*
X8364D01*
X8431Y777D01*
Y843D01*
X8364Y910D01*
X8164D01*
D39*
X7507Y22832D02*
G03*
X7507Y22832I-980J0D01*
G01*
D40*
X10710Y715D02*
D03*
M02*
