G04 DipTrace Beta 2.3.5.2*
%INBottomMask.gbr*%
%MOIN*%
%ADD44R,0.0591X0.0591*%
%ADD46C,0.0591*%
%ADD100C,0.0669*%
%ADD101C,0.1339*%
%ADD102C,0.145*%
%ADD155C,0.0553*%
%ADD173C,0.0572*%
%ADD175C,0.0572*%
%ADD177R,0.0572X0.0572*%
%ADD199C,0.0785*%
%ADD201C,0.108*%
%ADD205R,0.108X0.108*%
%ADD207C,0.0671*%
%ADD209C,0.0671*%
%ADD211R,0.0671X0.0671*%
%ADD215C,0.138*%
%ADD219C,0.0639*%
%ADD223C,0.0907*%
%ADD227C,0.1261*%
%ADD229O,0.1458X0.0789*%
%ADD233O,0.1458X0.0632*%
%ADD237O,0.0789X0.1261*%
%FSLAX44Y44*%
G04*
G70*
G90*
G75*
G01*
%LNBotMask*%
%LPD*%
D237*
X4531Y33940D3*
D233*
X6696Y34924D3*
D229*
X8133Y32917D3*
Y34964D3*
D233*
X6696Y32956D3*
D227*
X5318Y30869D3*
Y37011D3*
D233*
X8664Y30869D3*
Y37011D3*
D223*
X6893Y31578D3*
D100*
X5318Y34924D3*
Y32956D3*
D219*
X8226Y23448D3*
Y24432D3*
X7438D3*
Y23448D3*
D215*
X6371Y26310D3*
Y21570D3*
D211*
X37660Y35490D3*
D207*
Y36490D3*
Y37490D3*
Y38490D3*
D211*
Y27430D3*
D207*
Y28430D3*
Y29430D3*
Y30430D3*
D211*
X37647Y19449D3*
D207*
Y20449D3*
Y21449D3*
Y22449D3*
D211*
X37650Y11470D3*
D207*
Y12470D3*
Y13470D3*
Y14470D3*
D205*
X10180Y42020D3*
D201*
X11740D3*
D205*
X16790D3*
D201*
X18350D3*
D211*
X19950Y41890D3*
D207*
X20950D3*
D211*
X37230Y6390D3*
D207*
X36230D3*
X35230D3*
D211*
X29140Y6420D3*
D207*
X28140D3*
X27140D3*
D211*
X25770Y6390D3*
D207*
X24770D3*
X23770D3*
D211*
X22310D3*
D207*
X21310D3*
X20310D3*
D211*
X19030Y6380D3*
D207*
X18030D3*
D211*
X16800Y6370D3*
D207*
X15800D3*
D199*
X12490Y6690D3*
X11490D3*
X10490D3*
D101*
X14089Y6391D3*
X8892D3*
D211*
X24590Y41910D3*
D207*
X25590D3*
D211*
X22260D3*
D207*
X23260D3*
D211*
X36430Y41930D3*
D207*
X37430D3*
D211*
X34170Y41920D3*
D207*
X35170D3*
D211*
X27500Y41930D3*
D207*
X28500D3*
D102*
X6440Y6440D3*
X31440D3*
Y41440D3*
X6440D3*
D177*
X27840Y31030D3*
D173*
Y30243D3*
Y29455D3*
D175*
Y28668D3*
Y27881D3*
D177*
Y36230D3*
D173*
Y35443D3*
Y34655D3*
D175*
Y33868D3*
Y33081D3*
D177*
X5460Y19810D3*
D173*
Y19021D3*
Y18232D3*
D177*
X10715Y23100D3*
D173*
Y23888D3*
Y24675D3*
D175*
Y25462D3*
Y26250D3*
D44*
X11740Y21490D3*
D46*
X12740D3*
X11740Y20490D3*
X12740D3*
X11740Y19490D3*
X12740D3*
D211*
X24015Y22865D3*
D207*
X25015D3*
D44*
X12605Y13895D3*
D46*
Y14895D3*
X13605Y13895D3*
Y14895D3*
X14605Y13895D3*
Y14895D3*
D211*
X9420Y26960D3*
D207*
X8420D3*
D177*
X19520Y15370D3*
D173*
Y14583D3*
Y13795D3*
D175*
Y13008D3*
Y12221D3*
D209*
X37663Y34485D3*
Y39495D3*
Y26425D3*
Y31435D3*
X37651Y18445D3*
Y23455D3*
X37653Y10465D3*
Y15475D3*
D155*
X5260Y17000D3*
X5490Y10570D3*
M02*
