G04 DipTrace Beta 2.3.5.2*
%INBottom.gbr*%
%MOIN*%
%ADD14C,0.04*%
%ADD15C,0.01*%
%ADD16C,0.02*%
%ADD17C,0.006*%
%ADD19C,0.012*%
%ADD22C,0.025*%
%ADD23C,0.013*%
%ADD31O,0.0709X0.1181*%
%ADD33O,0.1378X0.0551*%
%ADD35O,0.1378X0.0709*%
%ADD36C,0.1181*%
%ADD38C,0.0827*%
%ADD40C,0.0559*%
%ADD42C,0.1299*%
%ADD44R,0.0591X0.0591*%
%ADD45C,0.0591*%
%ADD46C,0.0591*%
%ADD47R,0.1X0.1*%
%ADD49C,0.1*%
%ADD50C,0.0705*%
%ADD62R,0.0492X0.0492*%
%ADD63C,0.0492*%
%ADD64C,0.0492*%
%ADD75C,0.0472*%
%ADD97C,0.032*%
%ADD99C,0.022*%
%FSLAX44Y44*%
G04*
G70*
G90*
G75*
G01*
%LNBottom*%
%LPD*%
X5460Y14260D2*
D15*
Y14280D1*
X5490D1*
Y14220D1*
X5700Y14430D1*
Y16630D1*
X6580Y17510D1*
X12515Y13315D2*
X11565D1*
X34440Y38830D2*
D16*
X32550D1*
X32230Y39150D1*
X34440Y38830D2*
X36180D1*
X36920Y38090D1*
Y35910D1*
X36300Y35290D1*
X34210D1*
X34200Y35280D1*
X34440Y30770D2*
X32550D1*
X32230Y31090D1*
X34440Y30770D2*
X36180D1*
X36910Y30040D1*
Y27840D1*
X36300Y27230D1*
X34210D1*
X34200Y27220D1*
X34427Y22789D2*
X32537D1*
X32217Y23109D1*
X34427Y22789D2*
X36167D1*
X36930Y22027D1*
Y19892D1*
X36287Y19249D1*
X34197D1*
X34187Y19239D1*
X34430Y14810D2*
X32540D1*
X32220Y15130D1*
X34430Y14810D2*
X36170D1*
X36930Y14050D1*
Y11910D1*
X36290Y11270D1*
X34200D1*
X34190Y11260D1*
X23500Y23810D2*
D15*
Y23130D1*
X23765Y22865D1*
X24015D1*
X20970Y20400D2*
X20980Y20390D1*
Y20630D1*
X15640Y25970D1*
Y26665D1*
X15665D1*
X4531Y33940D2*
D14*
X4510D1*
Y36203D1*
X5318Y37011D1*
D16*
X8664D1*
X4531Y33940D2*
D14*
Y31657D1*
X5318Y30869D1*
D16*
X8664D1*
X38970Y4350D2*
D15*
X39030D1*
X4350Y43530D2*
D16*
Y43600D1*
X39030D1*
Y43530D1*
X4350Y4350D2*
X4250D1*
Y13137D1*
Y23730D1*
Y43530D1*
X4350D1*
X39030Y4350D2*
Y4240D1*
X4350D1*
Y4350D1*
X39030Y43530D2*
X39130D1*
Y4350D1*
X39030D1*
X6371Y26310D2*
D14*
X4350Y24289D1*
Y23940D1*
X10715Y26250D2*
X6432D1*
X6371Y26310D1*
X8290Y13050D2*
D16*
X4337D1*
X4250Y13137D1*
X6371Y21570D2*
D17*
Y21709D1*
D14*
X4350Y23730D1*
D17*
X4250D1*
X7438Y24432D2*
D15*
X7530Y24220D1*
X7840Y23860D1*
X10120D1*
X10430Y24170D1*
X10520D1*
X10600Y24160D1*
X10650Y24110D1*
X10715Y23888D1*
X8226Y24432D2*
X7882D1*
X7820Y24370D1*
Y24120D1*
X7930Y24010D1*
X10010D1*
X10675Y24675D1*
X10715D1*
X28265Y23715D2*
Y23690D1*
X28415Y23540D1*
Y12815D1*
X30040Y11190D1*
X33280D1*
X33610Y11520D1*
X29803Y15305D2*
D19*
Y15252D1*
X30615Y14440D1*
X33500D1*
X33530Y14410D1*
X32165Y13290D2*
D15*
Y13325D1*
X31310Y14180D1*
X29399D1*
X29383Y14195D1*
Y13475D2*
X31480D1*
X31890Y13065D1*
X33100Y11500D2*
Y11670D1*
X33005Y11765D1*
X30335D1*
X30310Y11790D1*
X32110Y12360D2*
Y12785D1*
X32165Y12840D1*
X29823Y12115D2*
Y12173D1*
X30190Y12540D1*
X31930D1*
X32110Y12360D1*
X28265Y24165D2*
X28240D1*
X28615Y23790D1*
Y12915D1*
X30115Y11415D1*
X32675D1*
X32780Y11520D1*
X22310Y6390D2*
Y6310D1*
X22080D1*
Y16670D1*
X19020Y19730D1*
X15510D1*
X15360Y19580D1*
Y19160D1*
X15340Y19140D1*
X21250Y20065D2*
X21265D1*
Y20675D1*
X15990Y25950D1*
Y26915D1*
X15965Y26890D1*
X18790Y18770D2*
Y18800D1*
X19270D1*
X21590Y16480D1*
Y12480D1*
X18270Y9160D1*
X16400D1*
X14880Y10680D1*
X34110Y37450D2*
X36100D1*
X36570Y37920D1*
X34090Y36520D2*
X36080D1*
X36560Y36040D1*
X34110Y29390D2*
X36100D1*
X36570Y29860D1*
X34090Y28460D2*
X36080D1*
X36560Y27980D1*
X34097Y21409D2*
X36087D1*
X36557Y21879D1*
X34077Y20479D2*
X36067D1*
X36547Y19999D1*
X34100Y13430D2*
X36090D1*
X36560Y13900D1*
X34080Y12500D2*
X36070D1*
X36550Y12020D1*
X22415Y22515D2*
Y24605D1*
X25190Y27380D1*
Y29840D1*
X23439Y31591D1*
X21914D1*
X15190Y38315D1*
X15165D1*
X14690Y38790D1*
Y39330D1*
X14710Y39350D1*
X22115Y22840D2*
Y24575D1*
X22666Y25126D1*
X22616D1*
X24960Y27470D1*
Y29630D1*
X23370Y31220D1*
X20035D1*
X14865Y36390D1*
X11065D1*
X8650Y38805D1*
Y39080D1*
X8850Y39280D1*
X22770Y21915D2*
X22710D1*
Y23310D1*
X22965Y23565D1*
Y24175D1*
X25430Y26640D1*
Y30050D1*
X22965Y32515D1*
Y37915D1*
X22860Y38020D1*
X21690D1*
X15040Y13120D2*
Y13130D1*
X14020D1*
X13780Y12890D1*
X10610D1*
X10010Y12290D1*
Y9040D1*
X9960Y8990D1*
X12740Y19490D2*
Y19540D1*
X13860Y20660D1*
Y21420D1*
X13660Y21620D1*
X13340D1*
X13320Y21600D1*
X9660Y18390D2*
Y18280D1*
X11455D1*
X12703Y19528D1*
X12740Y19490D1*
X10210Y18600D2*
X10850D1*
X11740Y19490D1*
X19450Y16640D2*
X19440D1*
X19420Y16660D1*
X18000D1*
X16410Y15070D1*
Y13650D1*
X15480Y12720D1*
X15070D1*
X19080Y16350D2*
Y16300D1*
X19020D1*
Y16410D1*
X18060D1*
X16630Y14980D1*
Y13350D1*
X15215Y11935D1*
Y11540D1*
X5460Y19810D2*
X8230D1*
X9510Y21090D1*
X13330D1*
X13520Y21280D1*
X13540Y20970D2*
Y20900D1*
X9570D1*
X8280Y19610D1*
X6040D1*
X5880Y19450D1*
Y18652D1*
X5460Y18232D1*
X22260Y25340D2*
D17*
Y25220D1*
X21290Y24250D1*
X19390D1*
X18280Y25360D1*
X17540D1*
X16290Y26610D1*
X27160Y25280D2*
X27100D1*
X25930Y26450D1*
Y29630D1*
X26640Y30340D1*
Y34243D1*
X27840Y35443D1*
X21960Y25340D2*
Y25220D1*
X21190Y24450D1*
X19460D1*
X18350Y25560D1*
X17630D1*
X16610Y26580D1*
Y26620D1*
X27320Y25530D2*
X27280D1*
X26150Y26660D1*
Y29420D1*
X26830Y30100D1*
Y33645D1*
X27840Y34655D1*
X16920Y26610D2*
Y26570D1*
X17740Y25750D1*
X18430D1*
X19530Y24650D1*
X21080D1*
X21680Y25250D1*
Y25340D1*
X27330Y25820D2*
X26390Y26760D1*
Y29340D1*
X27100Y30050D1*
Y33470D1*
X27498Y33868D1*
X27840D1*
X17230Y26610D2*
Y26570D1*
X17860Y25940D1*
X18540D1*
X19640Y24840D1*
X20990D1*
X21400Y25250D1*
Y25340D1*
X27680Y25790D2*
Y25800D1*
X26590Y26890D1*
Y29270D1*
X27563Y30243D1*
X27840D1*
X17550Y26610D2*
Y26560D1*
X17980Y26130D1*
X18630D1*
X19710Y25050D1*
X20890D1*
X21110Y25270D1*
Y25340D1*
X27690Y26090D2*
X27660D1*
X26800Y26950D1*
Y29110D1*
X27145Y29455D1*
X27840D1*
X17860Y26600D2*
X17790D1*
X18060Y26330D1*
X18720D1*
X19810Y25240D1*
X20700D1*
X20790Y25330D1*
X20800D1*
X27690Y26390D2*
Y26440D1*
X27010Y27120D1*
Y28470D1*
X27208Y28668D1*
X27840D1*
X14440Y10640D2*
D15*
Y10590D1*
X16190Y8840D1*
X18330D1*
X21850Y12360D1*
Y16560D1*
X19060Y19350D1*
X18500D1*
X22990Y23115D2*
X22940D1*
X23165Y23340D1*
Y23975D1*
X25670Y26480D1*
Y30270D1*
X23165Y32775D1*
Y37890D1*
X23325Y38050D1*
X24050D1*
X26450D1*
X26470Y38070D1*
X15410Y13050D2*
X15390Y13070D1*
Y15340D1*
X15640Y15590D1*
Y15660D1*
Y16590D2*
Y18084D1*
Y19365D1*
X14265Y19415D2*
X14309D1*
X15640Y18084D1*
X12740Y21490D2*
Y21515D1*
X13165Y21940D1*
X13940D1*
X14265Y21615D1*
Y19415D1*
X9920Y18910D2*
X10435D1*
X11515Y19990D1*
X12240D1*
X12740Y20490D1*
X12605Y14895D2*
Y15105D1*
X13800Y16300D1*
X15790D1*
X17130Y17640D1*
Y19165D1*
X17215D1*
X14605Y13895D2*
X14040Y14460D1*
Y15040D1*
X15100Y16100D1*
X15900D1*
X17390Y17590D1*
Y18940D1*
X17540Y19090D1*
Y19365D1*
X13940Y20300D2*
D17*
Y18330D1*
X13160Y17550D1*
Y16480D1*
X11000Y14320D1*
X9670D1*
X8400Y15590D1*
X13580Y10660D2*
D15*
X13500D1*
X16620Y7540D1*
X21290D1*
X21840Y8090D1*
Y9820D1*
X21640Y10020D1*
X22140Y21601D2*
Y20990D1*
X23230Y19900D1*
Y10270D1*
X22980Y10020D1*
X23040D1*
X21920Y19560D2*
Y19400D1*
X21090D1*
X20350Y20140D1*
Y20570D1*
X15822Y25098D1*
X13612D1*
X11940Y26770D1*
Y30910D1*
X12880Y31850D1*
Y35890D1*
X13990Y10670D2*
X13910D1*
X16100Y8480D1*
X21550D1*
X25440Y9965D2*
X25415D1*
Y10665D1*
X23470Y12610D1*
Y20310D1*
X22490Y21290D1*
X21565Y20340D2*
Y19730D1*
X21050D1*
X20580Y20200D1*
Y20660D1*
X15870Y25370D1*
X13830D1*
X13450Y25750D1*
Y27670D1*
X12880Y28240D1*
Y30450D1*
X12465Y30865D1*
X17840Y19140D2*
D17*
X17870D1*
X17900Y19170D1*
X18180D1*
X18480Y18870D1*
Y18610D1*
X20150Y16940D1*
Y14425D1*
X19520Y13795D1*
X18655D1*
X15900Y11040D1*
X11350D1*
X11050Y10740D1*
X18060Y18760D2*
Y18600D1*
X19210Y17450D1*
X19200D1*
X19920Y16730D1*
Y14710D1*
X19810Y14600D1*
X19538D1*
X19520Y14583D1*
X19043D1*
X15720Y11260D1*
X11330D1*
X11020Y11570D1*
X7950Y17790D2*
D16*
Y17730D1*
X10081Y15599D1*
X13120Y25050D2*
Y23485D1*
X13415Y23190D1*
X27440Y31710D2*
D15*
X27470D1*
Y31790D1*
X30670Y34990D1*
X33060D1*
X33590Y35520D1*
X33530Y38440D2*
X30699D1*
X29813Y39325D1*
X13840Y25760D2*
Y28000D1*
X14390Y28550D1*
X19480D1*
X20415Y27615D1*
Y25985D1*
X32120Y37400D2*
X31320Y38200D1*
X29409D1*
X29393Y38215D1*
Y37495D2*
X31535D1*
X31940Y37090D1*
X33090Y35520D2*
Y35710D1*
X33015Y35785D1*
X30345D1*
X30320Y35810D1*
X32070Y36320D2*
X31890Y36500D1*
X30050D1*
X29833Y36283D1*
Y36135D1*
X32070Y36320D2*
Y36770D1*
X32180Y36880D1*
X27430Y32600D2*
X27850D1*
X30565Y35315D1*
X32535D1*
X32750Y35530D1*
X37230Y6390D2*
Y6220D1*
X37260D1*
Y6690D1*
X36700Y7250D1*
X34140D1*
X33500Y7890D1*
X24690D1*
X22760Y9820D1*
Y17130D1*
X18837Y21053D1*
X18517D1*
X16720Y22850D1*
X13130D1*
X13120Y22840D1*
X33610Y27440D2*
X33490D1*
X33210Y27160D1*
X27500D1*
X27410Y27250D1*
X33530Y30380D2*
X30699D1*
X29813Y31265D1*
X14250Y25760D2*
Y27975D1*
X14565Y28290D1*
X18940D1*
X19415Y27815D1*
Y25915D1*
X19740Y25590D1*
X20715D1*
X20990Y25865D1*
Y26060D1*
X32180Y29330D2*
X32130D1*
X31320Y30140D1*
X29409D1*
X29393Y30155D1*
X33080Y27450D2*
Y27660D1*
X33015Y27725D1*
X30345D1*
X30320Y27750D1*
X32030Y28210D2*
X29860D1*
X29833Y28183D1*
Y28075D1*
X32030Y28210D2*
Y28670D1*
X32160Y28800D1*
X27390Y27730D2*
Y27540D1*
X27560D1*
X27735Y27365D1*
X32715D1*
X32790Y27440D1*
X32780D1*
X32740Y27480D1*
X29140Y6420D2*
X29100D1*
Y6900D1*
X28540Y7460D1*
X24690D1*
X22530Y9620D1*
Y17000D1*
X18764Y20767D1*
X18444D1*
X16700Y22510D1*
X13445D1*
X13415Y22540D1*
X29393Y29435D2*
X31535D1*
X31940Y29030D1*
X28265Y24640D2*
X28240D1*
X28840Y24040D1*
Y20165D1*
X29815Y19190D1*
X33330D1*
X33630Y19490D1*
X33517Y22399D2*
X30686D1*
X29801Y23285D1*
X32160Y21340D2*
X32127D1*
X31307Y22159D1*
X29396D1*
X29381Y22175D1*
Y21455D2*
X31522D1*
X31927Y21049D1*
X33040Y19480D2*
Y19707D1*
X33002Y19745D1*
X30332D1*
X30307Y19769D1*
X32070Y20260D2*
Y20220D1*
X31880Y20410D1*
X29985D1*
X29821Y20246D1*
Y20095D1*
X32070Y20260D2*
Y20720D1*
X32160Y20810D1*
X28335Y25020D2*
X29065Y24290D1*
Y20290D1*
X29890Y19465D1*
X32665D1*
X32690Y19490D1*
X25770Y6390D2*
X25790D1*
Y6730D1*
X25450Y7070D1*
X24610D1*
X22290Y9390D1*
Y16860D1*
X19160Y19990D1*
X15280D1*
X15000Y19710D1*
Y19380D1*
X15015Y19365D1*
D97*
X6580Y17510D3*
X11565Y13315D3*
X10270Y29420D3*
X23900Y9420D3*
X27400Y9070D3*
X23900Y9420D3*
X20970Y20400D3*
X28265Y23715D3*
Y24165D3*
X21250Y20065D3*
X22770Y21915D3*
X9960Y8990D3*
X15640Y15660D3*
Y16590D3*
X13940Y20300D3*
X21640Y10020D3*
X22140Y21601D3*
X21920Y19560D3*
X12880Y35890D3*
X21550Y8480D3*
X22490Y21290D3*
X21565Y20340D3*
X12465Y30865D3*
X11050Y10740D3*
X11020Y11570D3*
X7950Y17790D3*
X10081Y15599D3*
X27440Y31710D3*
X20415Y25985D3*
X27430Y32600D3*
X27410Y27250D3*
X20990Y26060D3*
X27390Y27730D3*
X28265Y24640D3*
X28335Y25020D3*
X6310Y29760D3*
Y29220D3*
X13320Y21600D3*
X9660Y18390D3*
X34110Y37450D3*
Y36990D3*
X34090Y36520D3*
X33630Y37020D3*
Y37460D3*
X33620Y36550D3*
X33160D3*
X33170Y36990D3*
X33150Y37460D3*
D99*
X32750Y35530D3*
X33090Y35520D3*
X33590D3*
X32070Y36320D3*
X32180Y36880D3*
X31940Y37090D3*
X32120Y37400D3*
X33530Y38440D3*
D97*
X34440Y38830D3*
X32230Y39150D3*
X36570Y37920D3*
X36560Y36040D3*
X34200Y35280D3*
X32350Y32500D3*
Y32860D3*
X33120D3*
X32710Y32500D3*
Y32850D3*
X33120Y32500D3*
X33340Y39270D3*
X32790D3*
X33340Y39700D3*
X32790D3*
X35980Y39560D3*
X35610D3*
X35170D3*
X30670Y39570D3*
D99*
X29833Y36135D3*
X29393Y37495D3*
Y38215D3*
X29813Y39325D3*
D97*
X30320Y35810D3*
X13990Y10670D3*
X14880Y36820D3*
X15350Y36810D3*
X15840Y36790D3*
X17150Y35890D3*
X15870Y34130D3*
X16550Y34150D3*
X16540Y33090D3*
X13380Y33520D3*
X11550Y34950D3*
X11970D3*
X11530Y33040D3*
X12000Y33020D3*
X12440Y33420D3*
Y33950D3*
Y34470D3*
X14710Y39350D3*
X15040Y38960D3*
X15410Y38950D3*
X15800Y38960D3*
X9080Y38890D3*
X9480D3*
X9870D3*
X8850Y39280D3*
X16490Y29050D3*
Y27980D3*
X15660Y29100D3*
X13310Y28350D3*
X13580Y10660D3*
X14670Y31800D3*
X15070D3*
X15480Y31790D3*
X16810Y30940D3*
X22750Y38830D3*
X23660Y39540D3*
X21280Y39630D3*
X20950Y39190D3*
X25980Y39610D3*
X25640Y39170D3*
X21690Y38020D3*
X24050Y38050D3*
X37073Y34675D3*
X37063Y34285D3*
X37053Y33885D3*
X36673Y34675D3*
X36663Y34285D3*
X36653Y33885D3*
X36823Y33375D3*
X37693Y33385D3*
X37273D3*
X36803Y32945D3*
X37673Y32955D3*
X37253D3*
X35423Y32385D3*
X36153Y32395D3*
X35783D3*
X30893Y32415D3*
X31623Y32425D3*
X31253D3*
X37073Y26615D3*
X30133Y33895D3*
X37063Y26225D3*
X37053Y25825D3*
X36673Y26615D3*
X36663Y26225D3*
X36653Y25825D3*
X36823Y25315D3*
X37693Y25325D3*
X37273D3*
X34110Y29390D3*
Y28930D3*
X34090Y28460D3*
X33630Y28960D3*
Y29400D3*
X33620Y28490D3*
X33160D3*
X33170Y28930D3*
X33150Y29400D3*
D99*
X32740Y27480D3*
X33080Y27450D3*
X33610Y27440D3*
X32030Y28210D3*
X32160Y28800D3*
X31940Y29030D3*
X32180Y29330D3*
X33530Y30380D3*
D97*
X34440Y30770D3*
X32230Y31090D3*
X36570Y29860D3*
X36560Y27980D3*
X34200Y27220D3*
X32350Y24440D3*
Y24800D3*
X33120D3*
X32710Y24440D3*
Y24790D3*
X33120Y24440D3*
X33340Y31210D3*
X32790D3*
X33340Y31640D3*
X32790D3*
X35980Y31500D3*
X35610D3*
X35170D3*
X30670Y31510D3*
D99*
X29833Y28075D3*
X29393Y29435D3*
Y30155D3*
X29813Y31265D3*
D97*
X30320Y27750D3*
X36803Y24885D3*
X37673Y24895D3*
X37253D3*
X35423Y24325D3*
X36153Y24335D3*
X35783D3*
X30893Y24355D3*
X31623Y24365D3*
X31253D3*
X30133Y25835D3*
X37061Y18635D3*
X37051Y18245D3*
X37041Y17845D3*
X36661Y18635D3*
X36651Y18245D3*
X36641Y17845D3*
X36811Y17335D3*
X37681Y17345D3*
X37261D3*
X34097Y21409D3*
Y20949D3*
X34077Y20479D3*
X33617Y20979D3*
Y21419D3*
X33607Y20509D3*
X33147D3*
X33157Y20949D3*
X33137Y21419D3*
D99*
X32690Y19490D3*
X33040Y19480D3*
X33630Y19490D3*
X32070Y20260D3*
X32160Y20810D3*
X31927Y21049D3*
X32160Y21340D3*
X33517Y22399D3*
D97*
X34427Y22789D3*
X32217Y23109D3*
X36557Y21879D3*
X36547Y19999D3*
X34187Y19239D3*
X32337Y16459D3*
Y16819D3*
X33107D3*
X32697Y16459D3*
Y16809D3*
X33107Y16459D3*
X33327Y23229D3*
X32777D3*
X33327Y23659D3*
X32777D3*
X35967Y23519D3*
X35597D3*
X35157D3*
X30657Y23529D3*
D99*
X29821Y20095D3*
X29381Y21455D3*
Y22175D3*
X29801Y23285D3*
D97*
X30307Y19769D3*
X36791Y16905D3*
X37661Y16915D3*
X37241D3*
X35411Y16345D3*
X36141Y16355D3*
X35771D3*
X30881Y16375D3*
X31611Y16385D3*
X31241D3*
X30121Y17855D3*
X37063Y10655D3*
X37053Y10265D3*
X37043Y9865D3*
X36663Y10655D3*
X36653Y10265D3*
X36643Y9865D3*
X36813Y9355D3*
X37683Y9365D3*
X37263D3*
X34100Y13430D3*
Y12970D3*
X34080Y12500D3*
X33620Y13000D3*
Y13440D3*
X33610Y12530D3*
X33150D3*
X33160Y12970D3*
X33140Y13440D3*
D99*
X32780Y11520D3*
X33100Y11500D3*
X33610Y11520D3*
X32110Y12360D3*
X32165Y12840D3*
X31890Y13065D3*
X32165Y13290D3*
X33530Y14410D3*
D97*
X34430Y14810D3*
X32220Y15130D3*
X36560Y13900D3*
X36550Y12020D3*
X34190Y11260D3*
X32340Y8480D3*
Y8840D3*
X33110D3*
X32700Y8480D3*
Y8830D3*
X33110Y8480D3*
X33330Y15250D3*
X32780D3*
X33330Y15680D3*
X32780D3*
X35970Y15540D3*
X35600D3*
X35160D3*
X30660Y15550D3*
D99*
X29823Y12115D3*
X29383Y13475D3*
Y14195D3*
X29803Y15305D3*
D97*
X30310Y11790D3*
X36793Y8925D3*
X37663Y8935D3*
X37243D3*
X35413Y8365D3*
X36143Y8375D3*
X35773D3*
X30883Y8395D3*
X31613Y8405D3*
X31243D3*
X30123Y9875D3*
X26470Y38070D3*
X23565Y34190D3*
X24515D3*
Y33815D3*
X23565D3*
X24515Y34565D3*
X23565D3*
X25565Y37390D3*
X4350Y43530D3*
X23040Y10020D3*
X25440Y9965D3*
X14440Y10640D3*
X14880Y10680D3*
X15215Y11540D3*
X15070Y12720D3*
X15410Y13050D3*
X15040Y13120D3*
X13765Y12315D3*
X5360Y15030D3*
X5460Y14260D3*
X19450Y16640D3*
X19080Y16350D3*
X18790Y18770D3*
X18500Y19350D3*
X18060Y18760D3*
X17840Y19140D3*
X17540Y19365D3*
X17215Y19165D3*
X15640Y19365D3*
X16290D3*
X15965Y19165D3*
X15170Y17160D3*
X18270Y17200D3*
X11940Y17015D3*
X24540Y29415D3*
Y29015D3*
Y28540D3*
X23565Y29415D3*
Y29015D3*
Y28540D3*
X25440Y32240D3*
X25090Y31615D3*
X25415D3*
X25740D3*
X26065D3*
X25090Y31290D3*
X25415D3*
X25740D3*
X26065D3*
X14250Y25760D3*
X13840D3*
X18515Y27215D3*
X14190Y12315D3*
Y11840D3*
X22990Y23115D3*
X22115Y22840D3*
X22415Y22515D3*
X13790Y11815D3*
X14665Y26715D3*
X15665Y26665D3*
X15965Y26890D3*
X18160Y26770D3*
X20010Y27320D3*
X12965Y27190D3*
X13415Y22540D3*
X13120Y22840D3*
X15340Y19140D3*
X15015Y19365D3*
X9315Y20115D3*
X24715Y10010D3*
X18360Y10090D3*
X19165Y9150D3*
X34200Y6400D3*
X27980Y9020D3*
X25495Y8490D3*
X20280Y8960D3*
X15690Y13890D3*
X15600Y10720D3*
X14340Y8025D3*
X16865Y8000D3*
X23500Y23810D3*
X25290Y23815D3*
X23680Y25330D3*
X13615Y19390D3*
X14265Y19415D3*
X13065Y26265D3*
X25800Y25300D3*
X10210Y18600D3*
X9920Y18910D3*
X9580Y22650D3*
X6265Y19290D3*
X27040Y9990D3*
X11040Y7665D3*
X12215Y8015D3*
X13240Y8040D3*
X10915Y15140D3*
X14615Y18040D3*
X13515Y18690D3*
X13120Y25050D3*
X13415Y23190D3*
X12515Y13315D3*
X10615Y32490D3*
X10640Y31915D3*
Y31365D3*
X10040Y36590D3*
X10015Y35665D3*
X10465D3*
Y36590D3*
X9640D3*
X9615Y35665D3*
X4350Y4350D3*
X39030Y43530D3*
Y4350D3*
X8870Y9400D3*
X11070Y9860D3*
X12200Y9610D3*
X13240D3*
X16950Y14800D3*
X16530Y10120D3*
X18050Y11430D3*
X9000Y12320D3*
X10920Y12570D3*
X16900Y23340D3*
X15850Y24370D3*
X18010Y24400D3*
Y22190D3*
X15810Y22170D3*
X4350Y9240D3*
Y19040D3*
Y23940D3*
Y28840D3*
Y38630D3*
X39030D3*
Y33730D3*
Y28840D3*
X9300Y43530D3*
X39030Y23940D3*
Y19040D3*
Y14140D3*
Y9250D3*
X14260Y43530D3*
X19210D3*
X24170D3*
X29120D3*
X34070D3*
X9300Y4350D3*
X14260D3*
X19210D3*
X24170D3*
X29120D3*
X34070D3*
X24510Y10830D3*
X11620Y15810D3*
X14100Y15740D3*
X8800Y18110D3*
X19980Y17620D3*
X21580Y18860D3*
D99*
X20810Y25340D3*
D97*
X23180Y22650D3*
X26020Y23830D3*
X29640Y13010D3*
X31500Y12120D3*
X31240Y14970D3*
X29650Y21000D3*
X31230Y22840D3*
X34190Y16480D3*
X34150Y18070D3*
X31420Y20120D3*
X34400Y24530D3*
X34330Y26020D3*
X29640Y28960D3*
X31280Y30800D3*
X34290Y34040D3*
X34340Y32540D3*
X29660Y37070D3*
X31300Y38910D3*
X31450Y36150D3*
X9200Y39700D3*
X11400Y23740D3*
X12350Y22670D3*
X6310Y28550D3*
Y27980D3*
X8400Y15590D3*
X8290Y13050D3*
D99*
X16290Y26610D3*
X16610Y26620D3*
X16920Y26610D3*
X17230D3*
X17550D3*
X17860Y26600D3*
X13520Y21280D3*
X13540Y20970D3*
X21110Y25340D3*
X21400D3*
X21960D3*
X21680D3*
X22260D3*
X27690Y26390D3*
Y26090D3*
X27680Y25790D3*
X27330Y25820D3*
X27320Y25530D3*
X27160Y25280D3*
X8817Y43138D2*
D22*
X9111D1*
X9489D2*
X14072D1*
X14450D2*
X19021D1*
X19399D2*
X23982D1*
X24356D2*
X28931D1*
X29309D2*
X33880D1*
X34259D2*
X38740D1*
X8821Y42889D2*
X38740D1*
X8821Y42640D2*
X9392D1*
X10969D2*
X11267D1*
X12212D2*
X16001D1*
X17579D2*
X17876D1*
X18821D2*
X30744D1*
X32137D2*
X38740D1*
X8821Y42392D2*
X9392D1*
X10969D2*
X11047D1*
X12434D2*
X16001D1*
X17579D2*
X17658D1*
X19044D2*
X19365D1*
X20536D2*
X20677D1*
X21223D2*
X21673D1*
X22844D2*
X22950D1*
X23571D2*
X24005D1*
X25176D2*
X25279D1*
X25903D2*
X26916D1*
X28844D2*
X30419D1*
X32458D2*
X33584D1*
X34755D2*
X34841D1*
X35497D2*
X35845D1*
X37774D2*
X38740D1*
X8825Y42143D2*
X9392D1*
X12520D2*
X16001D1*
X19130D2*
X19365D1*
X21473D2*
X21673D1*
X23794D2*
X24005D1*
X26126D2*
X26916D1*
X29044D2*
X30232D1*
X32649D2*
X33584D1*
X35708D2*
X35843D1*
X37973D2*
X38740D1*
X8825Y41894D2*
X9392D1*
X12520D2*
X16001D1*
X19130D2*
X19365D1*
X21536D2*
X21673D1*
X23844D2*
X24005D1*
X26176D2*
X26916D1*
X29083D2*
X30115D1*
X32762D2*
X33584D1*
X35755D2*
X35847D1*
X38012D2*
X38740D1*
X8829Y41646D2*
X9392D1*
X10969D2*
X11047D1*
X12430D2*
X16001D1*
X17579D2*
X17658D1*
X19044D2*
X19365D1*
X21477D2*
X21673D1*
X23778D2*
X24005D1*
X26110D2*
X26916D1*
X29009D2*
X30056D1*
X32825D2*
X33584D1*
X35684D2*
X35845D1*
X37938D2*
X38740D1*
X8829Y41397D2*
X9392D1*
X10969D2*
X11271D1*
X12208D2*
X16001D1*
X17579D2*
X17880D1*
X18817D2*
X19365D1*
X20536D2*
X20658D1*
X21239D2*
X21673D1*
X22844D2*
X23012D1*
X23509D2*
X24005D1*
X25176D2*
X25341D1*
X25841D2*
X26916D1*
X28087D2*
X28302D1*
X28696D2*
X30041D1*
X32841D2*
X33584D1*
X34755D2*
X34947D1*
X35395D2*
X35845D1*
X37016D2*
X37232D1*
X37626D2*
X38740D1*
X8829Y41148D2*
X30072D1*
X32809D2*
X38740D1*
X8833Y40900D2*
X30150D1*
X32731D2*
X38740D1*
X8833Y40651D2*
X30287D1*
X32594D2*
X38740D1*
X8837Y40402D2*
X30513D1*
X32368D2*
X38740D1*
X8837Y40154D2*
X30927D1*
X31954D2*
X38740D1*
X9598Y39905D2*
X20931D1*
X21630D2*
X23416D1*
X23903D2*
X25650D1*
X26309D2*
X30384D1*
X30958D2*
X32392D1*
X33739D2*
X34896D1*
X36255D2*
X37255D1*
X38071D2*
X38740D1*
X34540Y39656D2*
X34732D1*
X36419D2*
X37103D1*
X38223D2*
X38740D1*
X34540Y39407D2*
X34748D1*
X36403D2*
X37084D1*
X38243D2*
X38740D1*
X34540Y39159D2*
X35005D1*
X35333D2*
X35446D1*
X36145D2*
X37189D1*
X38137D2*
X38740D1*
X34540Y38910D2*
X37263D1*
X38055D2*
X38685D1*
X34540Y38661D2*
X37103D1*
X38219D2*
X38580D1*
X34540Y38413D2*
X37080D1*
X38239D2*
X38638D1*
X34540Y38164D2*
X36197D1*
X36942D2*
X37181D1*
X38141D2*
X38740D1*
X34540Y37915D2*
X36095D1*
X37020D2*
X37271D1*
X38051D2*
X38740D1*
X36934Y37667D2*
X37103D1*
X38216D2*
X38740D1*
X36540Y37418D2*
X37080D1*
X38239D2*
X38740D1*
X36266Y37169D2*
X37177D1*
X38145D2*
X38740D1*
X34555Y36921D2*
X37275D1*
X38044D2*
X38740D1*
X36399Y36672D2*
X37107D1*
X38216D2*
X38740D1*
X36770Y36423D2*
X37080D1*
X38243D2*
X38740D1*
X34540Y36175D2*
X35955D1*
X36989D2*
X37173D1*
X38149D2*
X38740D1*
X34540Y35926D2*
X36126D1*
X36993D2*
X37075D1*
X38247D2*
X38740D1*
X34540Y35677D2*
X36314D1*
X36805D2*
X37076D1*
X38247D2*
X38740D1*
X34540Y35428D2*
X37076D1*
X38247D2*
X38740D1*
X34540Y35180D2*
X37076D1*
X38247D2*
X38740D1*
X34540Y34931D2*
X36310D1*
X38247D2*
X38740D1*
X34540Y34682D2*
X36224D1*
X38212D2*
X38740D1*
X34540Y34434D2*
X36240D1*
X38247D2*
X38740D1*
X34716Y34185D2*
X36224D1*
X38161D2*
X38740D1*
X34727Y33936D2*
X36209D1*
X37797D2*
X38634D1*
X34551Y33688D2*
X36251D1*
X38016D2*
X38584D1*
X34540Y33439D2*
X36376D1*
X38141D2*
X38697D1*
X34540Y33190D2*
X36416D1*
X38094D2*
X38740D1*
X34540Y32942D2*
X36353D1*
X38122D2*
X38740D1*
X34762Y32693D2*
X36435D1*
X38032D2*
X38740D1*
X34778Y32444D2*
X38740D1*
X34614Y32196D2*
X38740D1*
X34540Y31947D2*
X37412D1*
X37919D2*
X38740D1*
X34540Y31698D2*
X34771D1*
X36380D2*
X37142D1*
X38184D2*
X38740D1*
X34540Y31449D2*
X34724D1*
X36426D2*
X37080D1*
X38247D2*
X38740D1*
X34540Y31201D2*
X34845D1*
X36305D2*
X37130D1*
X38196D2*
X38740D1*
X34540Y30952D2*
X37357D1*
X37973D2*
X38740D1*
X34540Y30703D2*
X37146D1*
X38173D2*
X38740D1*
X34540Y30455D2*
X37076D1*
X38243D2*
X38740D1*
X34540Y30206D2*
X36298D1*
X36841D2*
X37123D1*
X38200D2*
X38740D1*
X34540Y29957D2*
X36130D1*
X37009D2*
X37334D1*
X37985D2*
X38740D1*
X34540Y29709D2*
X35947D1*
X36993D2*
X37150D1*
X38173D2*
X38740D1*
X36739Y29460D2*
X37076D1*
X38243D2*
X38740D1*
X36391Y29211D2*
X37119D1*
X38200D2*
X38740D1*
X34559Y28963D2*
X37326D1*
X37993D2*
X38599D1*
X36290Y28714D2*
X37154D1*
X38169D2*
X38599D1*
X36544Y28465D2*
X37076D1*
X38243D2*
X38740D1*
X36938Y28217D2*
X37119D1*
X38204D2*
X38740D1*
X34540Y27968D2*
X36103D1*
X38247D2*
X38740D1*
X34540Y27719D2*
X36201D1*
X36919D2*
X37076D1*
X38247D2*
X38740D1*
X34540Y27470D2*
X37076D1*
X38247D2*
X38740D1*
X34540Y27222D2*
X37076D1*
X38247D2*
X38740D1*
X34540Y26973D2*
X36419D1*
X38247D2*
X38740D1*
X34540Y26724D2*
X36236D1*
X38161D2*
X38740D1*
X34540Y26476D2*
X36248D1*
X38247D2*
X38740D1*
X34727Y26227D2*
X36212D1*
X38212D2*
X38740D1*
X34778Y25978D2*
X36232D1*
X38024D2*
X38740D1*
X34665Y25730D2*
X36216D1*
X37848D2*
X38740D1*
X34540Y25481D2*
X36380D1*
X38114D2*
X38740D1*
X34540Y25232D2*
X36380D1*
X38134D2*
X38740D1*
X34540Y24984D2*
X36365D1*
X38114D2*
X38740D1*
X34798Y24735D2*
X36380D1*
X38091D2*
X38740D1*
X34848Y24486D2*
X36634D1*
X36973D2*
X37116D1*
X37391D2*
X37533D1*
X37812D2*
X38740D1*
X34735Y24238D2*
X38701D1*
X34540Y23989D2*
X37459D1*
X37844D2*
X38584D1*
X34540Y23740D2*
X34771D1*
X36356D2*
X37142D1*
X38157D2*
X38630D1*
X34540Y23491D2*
X34709D1*
X36415D2*
X37068D1*
X38235D2*
X38740D1*
X34540Y23243D2*
X34810D1*
X36313D2*
X37107D1*
X38196D2*
X38740D1*
X34540Y22994D2*
X37306D1*
X37993D2*
X38740D1*
X34540Y22745D2*
X37146D1*
X38149D2*
X38740D1*
X34540Y22497D2*
X37064D1*
X38231D2*
X38740D1*
X34540Y22248D2*
X36322D1*
X36794D2*
X37099D1*
X38196D2*
X38740D1*
X34540Y21999D2*
X36126D1*
X36989D2*
X37291D1*
X38005D2*
X38740D1*
X34540Y21751D2*
X35959D1*
X36989D2*
X37150D1*
X38145D2*
X38740D1*
X36778Y21502D2*
X37064D1*
X38231D2*
X38740D1*
X36403Y21253D2*
X37099D1*
X38196D2*
X38740D1*
X34544Y21005D2*
X37283D1*
X38012D2*
X38740D1*
X36243Y20756D2*
X37154D1*
X38141D2*
X38740D1*
X36509Y20507D2*
X37064D1*
X38231D2*
X38740D1*
X36911Y20259D2*
X37095D1*
X38200D2*
X38740D1*
X34540Y20010D2*
X36068D1*
X36997D2*
X37275D1*
X38020D2*
X38740D1*
X34540Y19761D2*
X36169D1*
X36923D2*
X37064D1*
X38231D2*
X38740D1*
X34540Y19512D2*
X37064D1*
X38231D2*
X38740D1*
X34540Y19264D2*
X37064D1*
X38231D2*
X38642D1*
X34540Y19015D2*
X36447D1*
X38231D2*
X38580D1*
X34540Y18766D2*
X36232D1*
X38134D2*
X38681D1*
X34540Y18518D2*
X36228D1*
X38231D2*
X38740D1*
X34551Y18269D2*
X36201D1*
X38208D2*
X38740D1*
X34598Y18020D2*
X36228D1*
X38040D2*
X38740D1*
X34540Y17772D2*
X36197D1*
X37485D2*
X38740D1*
X34540Y17523D2*
X36337D1*
X38091D2*
X38740D1*
X34540Y17274D2*
X36365D1*
X38126D2*
X38740D1*
X34540Y17026D2*
X36357D1*
X38094D2*
X38740D1*
X34540Y16777D2*
X36361D1*
X38087D2*
X38740D1*
X34637Y16528D2*
X36568D1*
X37860D2*
X38740D1*
X34591Y16280D2*
X38740D1*
X34540Y16031D2*
X37556D1*
X37753D2*
X38740D1*
X34540Y15782D2*
X34787D1*
X36344D2*
X37158D1*
X38145D2*
X38740D1*
X34540Y15533D2*
X34709D1*
X36419D2*
X37072D1*
X38235D2*
X38740D1*
X34540Y15285D2*
X34794D1*
X36337D2*
X37103D1*
X38204D2*
X38740D1*
X34540Y15036D2*
X37283D1*
X38024D2*
X38740D1*
X34540Y14787D2*
X37162D1*
X38137D2*
X38740D1*
X34540Y14539D2*
X37068D1*
X38231D2*
X38740D1*
X34540Y14290D2*
X36365D1*
X36755D2*
X37095D1*
X38204D2*
X38607D1*
X34540Y14041D2*
X36134D1*
X36985D2*
X37263D1*
X38036D2*
X38591D1*
X34540Y13793D2*
X35982D1*
X36997D2*
X37166D1*
X38134D2*
X38740D1*
X36817Y13544D2*
X37072D1*
X38231D2*
X38740D1*
X36426Y13295D2*
X37091D1*
X38208D2*
X38740D1*
X34544Y13047D2*
X37259D1*
X38040D2*
X38740D1*
X36196Y12798D2*
X37169D1*
X38130D2*
X38740D1*
X36493Y12549D2*
X37072D1*
X38231D2*
X38740D1*
X36895Y12301D2*
X37091D1*
X38208D2*
X38740D1*
X34540Y12052D2*
X36048D1*
X37001D2*
X37251D1*
X38048D2*
X38740D1*
X34540Y11803D2*
X36162D1*
X36942D2*
X37067D1*
X38235D2*
X38740D1*
X34540Y11554D2*
X37064D1*
X38235D2*
X38740D1*
X34540Y11306D2*
X37064D1*
X38235D2*
X38740D1*
X34540Y11057D2*
X36501D1*
X38235D2*
X38740D1*
X34540Y10808D2*
X36244D1*
X38122D2*
X38740D1*
X34540Y10560D2*
X36224D1*
X38231D2*
X38740D1*
X34540Y10311D2*
X36205D1*
X38216D2*
X38740D1*
X34540Y10062D2*
X36244D1*
X38067D2*
X38740D1*
X34540Y9814D2*
X36197D1*
X37489D2*
X38740D1*
X34540Y9565D2*
X36318D1*
X38083D2*
X38720D1*
X34540Y9316D2*
X36365D1*
X38130D2*
X38584D1*
X34540Y9068D2*
X36369D1*
X38091D2*
X38623D1*
X34540Y8819D2*
X36357D1*
X38098D2*
X38740D1*
X34540Y8570D2*
X36537D1*
X37907D2*
X38740D1*
X34540Y8322D2*
X38740D1*
X34540Y8073D2*
X38740D1*
X37225Y36050D2*
X37315D1*
X37227Y36135D1*
X37159Y36239D1*
X37116Y36356D1*
X37100Y36480D1*
X37112Y36604D1*
X37150Y36723D1*
X37215Y36830D1*
X37301Y36920D1*
X37408Y36990D1*
X37317Y37048D1*
X37227Y37135D1*
X37159Y37239D1*
X37116Y37356D1*
X37100Y37480D1*
X37112Y37604D1*
X37150Y37723D1*
X37215Y37830D1*
X37301Y37920D1*
X37408Y37990D1*
X37317Y38048D1*
X37227Y38135D1*
X37159Y38239D1*
X37116Y38356D1*
X37100Y38480D1*
X37112Y38604D1*
X37150Y38723D1*
X37215Y38830D1*
X37301Y38920D1*
X37416Y38993D1*
X37320Y39053D1*
X37230Y39140D1*
X37162Y39245D1*
X37119Y39362D1*
X37103Y39485D1*
X37115Y39609D1*
X37154Y39728D1*
X37218Y39835D1*
X37304Y39925D1*
X37408Y39994D1*
X37525Y40038D1*
X37648Y40056D1*
X37772Y40045D1*
X37891Y40007D1*
X37999Y39944D1*
X38090Y39859D1*
X38160Y39755D1*
X38205Y39639D1*
X38224Y39495D1*
X38210Y39371D1*
X38169Y39254D1*
X38103Y39148D1*
X38015Y39059D1*
X37906Y38991D1*
X37996Y38939D1*
X38087Y38853D1*
X38156Y38750D1*
X38202Y38634D1*
X38220Y38490D1*
X38207Y38366D1*
X38166Y38248D1*
X38100Y38143D1*
X38012Y38054D1*
X37910Y37989D1*
X37996Y37939D1*
X38087Y37853D1*
X38156Y37750D1*
X38202Y37634D1*
X38220Y37490D1*
X38207Y37366D1*
X38166Y37248D1*
X38100Y37143D1*
X38012Y37054D1*
X37910Y36989D1*
X37996Y36939D1*
X38087Y36853D1*
X38156Y36750D1*
X38202Y36634D1*
X38220Y36490D1*
X38207Y36366D1*
X38166Y36248D1*
X38100Y36143D1*
X38008Y36052D1*
X38220Y36050D1*
Y34930D1*
X38006D1*
X38090Y34849D1*
X38160Y34745D1*
X38205Y34629D1*
X38224Y34485D1*
X38210Y34361D1*
X38169Y34244D1*
X38103Y34138D1*
X38015Y34049D1*
X37910Y33982D1*
X37792Y33940D1*
X37668Y33925D1*
X37544Y33938D1*
X37474Y33962D1*
X37478Y33885D1*
X37461Y33766D1*
X37691Y33810D1*
X37814Y33793D1*
X37927Y33741D1*
X38020Y33658D1*
X38085Y33551D1*
X38116Y33431D1*
X38118Y33385D1*
X38100Y33262D1*
X38049Y33153D1*
X38096Y33001D1*
X38098Y32955D1*
X38080Y32832D1*
X38027Y32720D1*
X37943Y32627D1*
X37837Y32563D1*
X37716Y32533D1*
X37591Y32538D1*
X37465Y32587D1*
X37417Y32563D1*
X37296Y32533D1*
X37171Y32538D1*
X37038Y32592D1*
X36967Y32553D1*
X36846Y32523D1*
X36721Y32528D1*
X36604Y32570D1*
X36504Y32644D1*
X36429Y32744D1*
X36387Y32861D1*
X36380Y32985D1*
X36410Y33106D1*
X36452Y33176D1*
X36407Y33291D1*
X36400Y33415D1*
X36427Y33525D1*
X36354Y33584D1*
X36279Y33684D1*
X36237Y33801D1*
X36230Y33925D1*
X36260Y34046D1*
X36286Y34090D1*
X36247Y34201D1*
X36240Y34325D1*
X36270Y34446D1*
X36292Y34483D1*
X36257Y34591D1*
X36250Y34715D1*
X36280Y34836D1*
X36343Y34943D1*
X36435Y35027D1*
X36548Y35081D1*
X36671Y35100D1*
X36794Y35083D1*
X36868Y35049D1*
X36948Y35081D1*
X37071Y35100D1*
X37098Y35097D1*
X37100Y36050D1*
X37225D1*
Y27990D2*
X37315D1*
X37227Y28075D1*
X37159Y28179D1*
X37116Y28296D1*
X37100Y28420D1*
X37112Y28544D1*
X37150Y28663D1*
X37215Y28770D1*
X37301Y28860D1*
X37408Y28930D1*
X37317Y28988D1*
X37227Y29075D1*
X37159Y29179D1*
X37116Y29296D1*
X37100Y29420D1*
X37112Y29544D1*
X37150Y29663D1*
X37215Y29770D1*
X37301Y29860D1*
X37408Y29930D1*
X37317Y29988D1*
X37227Y30075D1*
X37159Y30179D1*
X37116Y30296D1*
X37100Y30420D1*
X37112Y30544D1*
X37150Y30663D1*
X37215Y30770D1*
X37301Y30860D1*
X37416Y30933D1*
X37320Y30993D1*
X37230Y31080D1*
X37162Y31185D1*
X37119Y31302D1*
X37103Y31425D1*
X37115Y31549D1*
X37154Y31668D1*
X37218Y31775D1*
X37304Y31865D1*
X37408Y31934D1*
X37525Y31978D1*
X37648Y31996D1*
X37772Y31985D1*
X37891Y31947D1*
X37999Y31884D1*
X38090Y31799D1*
X38160Y31695D1*
X38205Y31579D1*
X38224Y31435D1*
X38210Y31311D1*
X38169Y31194D1*
X38103Y31088D1*
X38015Y30999D1*
X37906Y30931D1*
X37996Y30879D1*
X38087Y30793D1*
X38156Y30690D1*
X38202Y30574D1*
X38220Y30430D1*
X38207Y30306D1*
X38166Y30188D1*
X38100Y30083D1*
X38012Y29994D1*
X37910Y29929D1*
X37996Y29879D1*
X38087Y29793D1*
X38156Y29690D1*
X38202Y29574D1*
X38220Y29430D1*
X38207Y29306D1*
X38166Y29188D1*
X38100Y29083D1*
X38012Y28994D1*
X37910Y28929D1*
X37996Y28879D1*
X38087Y28793D1*
X38156Y28690D1*
X38202Y28574D1*
X38220Y28430D1*
X38207Y28306D1*
X38166Y28188D1*
X38100Y28083D1*
X38008Y27992D1*
X38220Y27990D1*
Y26870D1*
X38006D1*
X38090Y26789D1*
X38160Y26685D1*
X38205Y26569D1*
X38224Y26425D1*
X38210Y26301D1*
X38169Y26184D1*
X38103Y26078D1*
X38015Y25989D1*
X37910Y25922D1*
X37792Y25880D1*
X37668Y25865D1*
X37544Y25878D1*
X37474Y25902D1*
X37478Y25825D1*
X37461Y25706D1*
X37691Y25750D1*
X37814Y25733D1*
X37927Y25681D1*
X38020Y25598D1*
X38085Y25491D1*
X38116Y25371D1*
X38118Y25325D1*
X38100Y25202D1*
X38049Y25093D1*
X38096Y24941D1*
X38098Y24895D1*
X38080Y24772D1*
X38027Y24660D1*
X37943Y24567D1*
X37837Y24503D1*
X37716Y24473D1*
X37591Y24478D1*
X37465Y24527D1*
X37417Y24503D1*
X37296Y24473D1*
X37171Y24478D1*
X37038Y24532D1*
X36967Y24493D1*
X36846Y24463D1*
X36721Y24468D1*
X36604Y24510D1*
X36504Y24584D1*
X36429Y24684D1*
X36387Y24801D1*
X36380Y24925D1*
X36410Y25046D1*
X36452Y25116D1*
X36407Y25231D1*
X36400Y25355D1*
X36427Y25465D1*
X36354Y25524D1*
X36279Y25624D1*
X36237Y25741D1*
X36230Y25865D1*
X36260Y25986D1*
X36286Y26030D1*
X36247Y26141D1*
X36240Y26265D1*
X36270Y26386D1*
X36292Y26423D1*
X36257Y26531D1*
X36250Y26655D1*
X36280Y26776D1*
X36343Y26883D1*
X36435Y26967D1*
X36548Y27021D1*
X36671Y27040D1*
X36794Y27023D1*
X36868Y26989D1*
X36948Y27021D1*
X37071Y27040D1*
X37098Y27037D1*
X37100Y27990D1*
X37225D1*
X37212Y20010D2*
X37302D1*
X37214Y20094D1*
X37146Y20199D1*
X37103Y20316D1*
X37087Y20439D1*
X37099Y20564D1*
X37138Y20682D1*
X37202Y20789D1*
X37288Y20879D1*
X37396Y20950D1*
X37304Y21007D1*
X37214Y21094D1*
X37146Y21199D1*
X37103Y21316D1*
X37087Y21439D1*
X37099Y21564D1*
X37138Y21682D1*
X37202Y21789D1*
X37288Y21879D1*
X37396Y21950D1*
X37304Y22007D1*
X37214Y22094D1*
X37146Y22199D1*
X37103Y22316D1*
X37087Y22439D1*
X37099Y22564D1*
X37138Y22682D1*
X37202Y22789D1*
X37288Y22879D1*
X37403Y22952D1*
X37307Y23012D1*
X37218Y23099D1*
X37150Y23204D1*
X37107Y23321D1*
X37090Y23445D1*
X37102Y23569D1*
X37141Y23687D1*
X37205Y23794D1*
X37291Y23885D1*
X37395Y23953D1*
X37512Y23998D1*
X37635Y24015D1*
X37760Y24004D1*
X37879Y23967D1*
X37986Y23903D1*
X38077Y23818D1*
X38147Y23715D1*
X38192Y23598D1*
X38211Y23455D1*
X38197Y23331D1*
X38156Y23213D1*
X38090Y23107D1*
X38002Y23019D1*
X37893Y22950D1*
X37983Y22898D1*
X38074Y22813D1*
X38144Y22709D1*
X38189Y22593D1*
X38208Y22449D1*
X38194Y22325D1*
X38153Y22208D1*
X38087Y22102D1*
X37999Y22013D1*
X37897Y21948D1*
X37983Y21898D1*
X38074Y21813D1*
X38144Y21709D1*
X38189Y21593D1*
X38208Y21449D1*
X38194Y21325D1*
X38153Y21208D1*
X38087Y21102D1*
X37999Y21013D1*
X37897Y20948D1*
X37983Y20898D1*
X38074Y20813D1*
X38144Y20709D1*
X38189Y20593D1*
X38208Y20449D1*
X38194Y20325D1*
X38153Y20208D1*
X38087Y20102D1*
X37996Y20011D1*
X38208Y20010D1*
Y18889D1*
X37993D1*
X38077Y18808D1*
X38147Y18705D1*
X38192Y18588D1*
X38211Y18445D1*
X38197Y18321D1*
X38156Y18203D1*
X38090Y18097D1*
X38002Y18009D1*
X37897Y17942D1*
X37780Y17899D1*
X37656Y17884D1*
X37532Y17897D1*
X37461Y17921D1*
X37466Y17845D1*
X37448Y17725D1*
X37678Y17770D1*
X37801Y17752D1*
X37914Y17700D1*
X38007Y17617D1*
X38072Y17511D1*
X38103Y17390D1*
X38106Y17345D1*
X38087Y17222D1*
X38036Y17112D1*
X38083Y16960D1*
X38086Y16915D1*
X38067Y16792D1*
X38014Y16679D1*
X37931Y16587D1*
X37824Y16522D1*
X37703Y16492D1*
X37579Y16498D1*
X37452Y16546D1*
X37404Y16522D1*
X37283Y16492D1*
X37159Y16498D1*
X37026Y16551D1*
X36954Y16512D1*
X36833Y16482D1*
X36709Y16488D1*
X36591Y16529D1*
X36491Y16603D1*
X36417Y16703D1*
X36374Y16820D1*
X36367Y16945D1*
X36397Y17065D1*
X36439Y17136D1*
X36394Y17250D1*
X36387Y17375D1*
X36414Y17484D1*
X36341Y17543D1*
X36267Y17643D1*
X36224Y17760D1*
X36217Y17885D1*
X36247Y18005D1*
X36273Y18049D1*
X36234Y18160D1*
X36227Y18285D1*
X36257Y18405D1*
X36279Y18442D1*
X36244Y18550D1*
X36237Y18675D1*
X36267Y18795D1*
X36331Y18903D1*
X36423Y18987D1*
X36535Y19041D1*
X36658Y19060D1*
X36781Y19042D1*
X36855Y19008D1*
X36935Y19041D1*
X37058Y19060D1*
X37085Y19056D1*
X37087Y20010D1*
X37212D1*
X37215Y12030D2*
X37305D1*
X37217Y12115D1*
X37149Y12219D1*
X37106Y12336D1*
X37090Y12460D1*
X37102Y12584D1*
X37140Y12703D1*
X37205Y12810D1*
X37291Y12900D1*
X37398Y12970D1*
X37307Y13028D1*
X37217Y13115D1*
X37149Y13219D1*
X37106Y13336D1*
X37090Y13460D1*
X37102Y13584D1*
X37140Y13703D1*
X37205Y13810D1*
X37291Y13900D1*
X37398Y13970D1*
X37307Y14028D1*
X37217Y14115D1*
X37149Y14219D1*
X37106Y14336D1*
X37090Y14460D1*
X37102Y14584D1*
X37140Y14703D1*
X37205Y14810D1*
X37291Y14900D1*
X37406Y14973D1*
X37310Y15033D1*
X37220Y15120D1*
X37152Y15225D1*
X37109Y15342D1*
X37093Y15465D1*
X37105Y15589D1*
X37144Y15708D1*
X37208Y15815D1*
X37294Y15905D1*
X37398Y15974D1*
X37515Y16018D1*
X37638Y16036D1*
X37762Y16025D1*
X37881Y15987D1*
X37989Y15924D1*
X38080Y15839D1*
X38150Y15735D1*
X38195Y15619D1*
X38214Y15475D1*
X38200Y15351D1*
X38159Y15234D1*
X38093Y15128D1*
X38005Y15039D1*
X37896Y14971D1*
X37986Y14919D1*
X38077Y14833D1*
X38146Y14730D1*
X38192Y14614D1*
X38210Y14470D1*
X38197Y14346D1*
X38156Y14228D1*
X38090Y14123D1*
X38002Y14034D1*
X37900Y13969D1*
X37986Y13919D1*
X38077Y13833D1*
X38146Y13730D1*
X38192Y13614D1*
X38210Y13470D1*
X38197Y13346D1*
X38156Y13228D1*
X38090Y13123D1*
X38002Y13034D1*
X37900Y12969D1*
X37986Y12919D1*
X38077Y12833D1*
X38146Y12730D1*
X38192Y12614D1*
X38210Y12470D1*
X38197Y12346D1*
X38156Y12228D1*
X38090Y12123D1*
X37998Y12032D1*
X38210Y12030D1*
Y10910D1*
X37996D1*
X38080Y10829D1*
X38150Y10725D1*
X38195Y10609D1*
X38214Y10465D1*
X38200Y10341D1*
X38159Y10224D1*
X38093Y10118D1*
X38005Y10029D1*
X37900Y9962D1*
X37782Y9920D1*
X37658Y9905D1*
X37534Y9918D1*
X37464Y9942D1*
X37468Y9865D1*
X37451Y9746D1*
X37681Y9790D1*
X37804Y9773D1*
X37917Y9721D1*
X38010Y9638D1*
X38075Y9531D1*
X38106Y9411D1*
X38108Y9365D1*
X38090Y9242D1*
X38039Y9133D1*
X38086Y8981D1*
X38088Y8935D1*
X38070Y8812D1*
X38017Y8700D1*
X37933Y8607D1*
X37827Y8543D1*
X37706Y8513D1*
X37581Y8518D1*
X37455Y8567D1*
X37407Y8543D1*
X37286Y8513D1*
X37161Y8518D1*
X37028Y8572D1*
X36957Y8533D1*
X36836Y8503D1*
X36711Y8508D1*
X36594Y8550D1*
X36494Y8624D1*
X36419Y8724D1*
X36377Y8841D1*
X36370Y8965D1*
X36400Y9086D1*
X36442Y9156D1*
X36397Y9271D1*
X36390Y9395D1*
X36417Y9505D1*
X36344Y9564D1*
X36269Y9664D1*
X36227Y9781D1*
X36220Y9905D1*
X36250Y10026D1*
X36276Y10070D1*
X36237Y10181D1*
X36230Y10305D1*
X36260Y10426D1*
X36282Y10463D1*
X36247Y10571D1*
X36240Y10695D1*
X36270Y10816D1*
X36333Y10923D1*
X36425Y11007D1*
X36538Y11061D1*
X36661Y11080D1*
X36784Y11063D1*
X36858Y11029D1*
X36938Y11061D1*
X37061Y11080D1*
X37088Y11077D1*
X37090Y12030D1*
X37215D1*
X9440Y42785D2*
X10945D1*
Y41255D1*
X9415D1*
Y42785D1*
X9440D1*
X12495Y41896D2*
X12465Y41775D1*
X12415Y41660D1*
X12347Y41555D1*
X12264Y41462D1*
X12166Y41385D1*
X12057Y41324D1*
X11939Y41282D1*
X11817Y41259D1*
X11692Y41257D1*
X11568Y41275D1*
X11449Y41313D1*
X11338Y41369D1*
X11238Y41443D1*
X11150Y41533D1*
X11079Y41635D1*
X11025Y41748D1*
X10990Y41868D1*
X10976Y41992D1*
X10981Y42117D1*
X11007Y42239D1*
X11052Y42355D1*
X11116Y42463D1*
X11196Y42558D1*
X11291Y42639D1*
X11398Y42704D1*
X11514Y42751D1*
X11636Y42778D1*
X11760Y42785D1*
X11884Y42771D1*
X12005Y42738D1*
X12118Y42685D1*
X12221Y42615D1*
X12311Y42529D1*
X12387Y42429D1*
X12445Y42319D1*
X12484Y42200D1*
X12505Y42020D1*
X12495Y41896D1*
X16050Y42785D2*
X17555D1*
Y41255D1*
X16025D1*
Y42785D1*
X16050D1*
X19105Y41896D2*
X19075Y41775D1*
X19025Y41660D1*
X18957Y41555D1*
X18874Y41462D1*
X18776Y41385D1*
X18667Y41324D1*
X18549Y41282D1*
X18427Y41259D1*
X18302Y41257D1*
X18178Y41275D1*
X18059Y41313D1*
X17948Y41369D1*
X17848Y41443D1*
X17760Y41533D1*
X17689Y41635D1*
X17635Y41748D1*
X17600Y41868D1*
X17586Y41992D1*
X17591Y42117D1*
X17617Y42239D1*
X17662Y42355D1*
X17726Y42463D1*
X17806Y42558D1*
X17901Y42639D1*
X18008Y42704D1*
X18124Y42751D1*
X18246Y42778D1*
X18370Y42785D1*
X18494Y42771D1*
X18615Y42738D1*
X18728Y42685D1*
X18831Y42615D1*
X18921Y42529D1*
X18997Y42429D1*
X19055Y42319D1*
X19094Y42200D1*
X19115Y42020D1*
X19105Y41896D1*
X19515Y42450D2*
X20510D1*
Y42236D1*
X20591Y42320D1*
X20695Y42389D1*
X20811Y42433D1*
X20935Y42450D1*
X21059Y42440D1*
X21178Y42402D1*
X21286Y42339D1*
X21377Y42253D1*
X21446Y42150D1*
X21492Y42034D1*
X21510Y41890D1*
X21497Y41766D1*
X21456Y41648D1*
X21390Y41543D1*
X21302Y41454D1*
X21197Y41387D1*
X21079Y41345D1*
X20955Y41330D1*
X20831Y41343D1*
X20713Y41383D1*
X20607Y41448D1*
X20511Y41544D1*
X20510Y41330D1*
X19390D1*
Y42450D1*
X19515D1*
X24155Y42470D2*
X25150D1*
Y42256D1*
X25231Y42340D1*
X25335Y42409D1*
X25451Y42453D1*
X25575Y42470D1*
X25699Y42460D1*
X25818Y42422D1*
X25926Y42359D1*
X26017Y42273D1*
X26086Y42170D1*
X26132Y42054D1*
X26150Y41910D1*
X26137Y41786D1*
X26096Y41668D1*
X26030Y41563D1*
X25942Y41474D1*
X25837Y41407D1*
X25719Y41365D1*
X25595Y41350D1*
X25471Y41363D1*
X25353Y41403D1*
X25247Y41468D1*
X25151Y41564D1*
X25150Y41350D1*
X24030D1*
Y42470D1*
X24155D1*
X21825D2*
X22820D1*
Y42256D1*
X22901Y42340D1*
X23005Y42409D1*
X23121Y42453D1*
X23245Y42470D1*
X23369Y42460D1*
X23488Y42422D1*
X23596Y42359D1*
X23687Y42273D1*
X23756Y42170D1*
X23802Y42054D1*
X23820Y41910D1*
X23807Y41786D1*
X23766Y41668D1*
X23700Y41563D1*
X23612Y41474D1*
X23507Y41407D1*
X23389Y41365D1*
X23265Y41350D1*
X23141Y41363D1*
X23023Y41403D1*
X22917Y41468D1*
X22821Y41564D1*
X22820Y41350D1*
X21700D1*
Y42470D1*
X21825D1*
X35995Y42490D2*
X36990D1*
Y42276D1*
X37071Y42360D1*
X37175Y42429D1*
X37291Y42473D1*
X37415Y42490D1*
X37539Y42480D1*
X37658Y42442D1*
X37766Y42379D1*
X37857Y42293D1*
X37926Y42190D1*
X37972Y42074D1*
X37990Y41930D1*
X37977Y41806D1*
X37936Y41688D1*
X37870Y41583D1*
X37782Y41494D1*
X37677Y41427D1*
X37559Y41385D1*
X37435Y41370D1*
X37311Y41383D1*
X37193Y41423D1*
X37087Y41488D1*
X36991Y41584D1*
X36990Y41370D1*
X35870D1*
Y42490D1*
X35995D1*
X33735Y42480D2*
X34730D1*
Y42266D1*
X34811Y42350D1*
X34915Y42419D1*
X35031Y42463D1*
X35155Y42480D1*
X35279Y42470D1*
X35398Y42432D1*
X35506Y42369D1*
X35597Y42283D1*
X35666Y42180D1*
X35712Y42064D1*
X35730Y41920D1*
X35717Y41796D1*
X35676Y41678D1*
X35610Y41573D1*
X35522Y41484D1*
X35417Y41417D1*
X35299Y41375D1*
X35175Y41360D1*
X35051Y41373D1*
X34933Y41413D1*
X34827Y41478D1*
X34731Y41574D1*
X34730Y41360D1*
X33610D1*
Y42480D1*
X33735D1*
X27065Y42490D2*
X28060D1*
Y42276D1*
X28141Y42360D1*
X28245Y42429D1*
X28361Y42473D1*
X28485Y42490D1*
X28609Y42480D1*
X28728Y42442D1*
X28836Y42379D1*
X28927Y42293D1*
X28996Y42190D1*
X29042Y42074D1*
X29060Y41930D1*
X29047Y41806D1*
X29006Y41688D1*
X28940Y41583D1*
X28852Y41494D1*
X28747Y41427D1*
X28629Y41385D1*
X28505Y41370D1*
X28381Y41383D1*
X28263Y41423D1*
X28157Y41488D1*
X28061Y41584D1*
X28060Y41370D1*
X26940D1*
Y42490D1*
X27065D1*
X32811Y41315D2*
X32766Y41070D1*
X32677Y40836D1*
X32548Y40623D1*
X32382Y40436D1*
X32185Y40283D1*
X31964Y40167D1*
X31725Y40094D1*
X31477Y40064D1*
X31228Y40080D1*
X30986Y40141D1*
X30759Y40244D1*
X30554Y40387D1*
X30378Y40565D1*
X30237Y40771D1*
X30136Y40999D1*
X30078Y41242D1*
X30065Y41491D1*
X30097Y41739D1*
X30173Y41977D1*
X30291Y42197D1*
X30446Y42392D1*
X30634Y42556D1*
X30849Y42683D1*
X31084Y42769D1*
X31330Y42812D1*
X31579Y42809D1*
X31824Y42762D1*
X32057Y42671D1*
X32269Y42539D1*
X32454Y42371D1*
X32605Y42173D1*
X32718Y41950D1*
X32790Y41711D1*
X32816Y41463D1*
X32811Y41315D1*
X34517Y36867D2*
X34590Y36835D1*
X36080D1*
X36202Y36811D1*
X36303Y36743D1*
X36582Y36464D1*
X36681Y36448D1*
X36794Y36395D1*
X36887Y36312D1*
X36951Y36206D1*
X36983Y36085D1*
X36985Y36040D1*
X36967Y35917D1*
X36914Y35804D1*
X36830Y35712D1*
X36723Y35648D1*
X36603Y35617D1*
X36478Y35623D1*
X36361Y35665D1*
X36261Y35739D1*
X36186Y35838D1*
X36144Y35956D1*
X36141Y36014D1*
X35948Y36207D1*
X34514Y36205D1*
X34515Y34403D1*
X34617Y34312D1*
X34681Y34206D1*
X34713Y34085D1*
X34715Y34040D1*
X34697Y33917D1*
X34644Y33804D1*
X34560Y33712D1*
X34517Y33686D1*
X34515Y32926D1*
X34574Y32895D1*
X34667Y32812D1*
X34731Y32706D1*
X34763Y32585D1*
X34765Y32540D1*
X34747Y32417D1*
X34694Y32304D1*
X34610Y32212D1*
X34513Y32154D1*
X34515Y29708D1*
X35973Y29705D1*
X36145Y29881D1*
X36177Y30021D1*
X36240Y30128D1*
X36332Y30212D1*
X36444Y30266D1*
X36567Y30285D1*
X36691Y30268D1*
X36804Y30215D1*
X36897Y30132D1*
X36961Y30026D1*
X36993Y29905D1*
X36995Y29860D1*
X36977Y29737D1*
X36924Y29624D1*
X36840Y29532D1*
X36733Y29468D1*
X36593Y29438D1*
X36323Y29167D1*
X36220Y29099D1*
X36100Y29075D1*
X34518D1*
X34535Y28930D1*
X34515Y28803D1*
X34590Y28775D1*
X36080D1*
X36202Y28751D1*
X36303Y28683D1*
X36582Y28404D1*
X36681Y28388D1*
X36794Y28335D1*
X36887Y28252D1*
X36951Y28146D1*
X36983Y28025D1*
X36985Y27980D1*
X36967Y27857D1*
X36914Y27744D1*
X36830Y27652D1*
X36723Y27588D1*
X36603Y27557D1*
X36478Y27563D1*
X36361Y27605D1*
X36261Y27679D1*
X36186Y27778D1*
X36144Y27896D1*
X36141Y27954D1*
X35948Y28147D1*
X34514Y28145D1*
X34515Y26403D1*
X34564Y26375D1*
X34657Y26292D1*
X34721Y26186D1*
X34753Y26065D1*
X34755Y26020D1*
X34737Y25897D1*
X34684Y25784D1*
X34600Y25692D1*
X34517Y25642D1*
X34515Y24942D1*
X34634Y24885D1*
X34727Y24802D1*
X34791Y24696D1*
X34823Y24575D1*
X34825Y24530D1*
X34807Y24407D1*
X34754Y24294D1*
X34670Y24202D1*
X34563Y24138D1*
X34514Y24125D1*
X34515Y21723D1*
X35961Y21724D1*
X36133Y21900D1*
X36164Y22040D1*
X36227Y22147D1*
X36319Y22231D1*
X36432Y22285D1*
X36555Y22304D1*
X36678Y22287D1*
X36791Y22235D1*
X36884Y22152D1*
X36949Y22045D1*
X36980Y21925D1*
X36982Y21879D1*
X36964Y21756D1*
X36911Y21644D1*
X36827Y21551D1*
X36721Y21487D1*
X36580Y21458D1*
X36310Y21187D1*
X36207Y21118D1*
X36087Y21094D1*
X34513D1*
X34522Y20949D1*
X34515Y20793D1*
X36067Y20794D1*
X36189Y20770D1*
X36290Y20702D1*
X36569Y20423D1*
X36668Y20407D1*
X36781Y20355D1*
X36874Y20272D1*
X36939Y20165D1*
X36970Y20045D1*
X36972Y19999D1*
X36954Y19876D1*
X36901Y19764D1*
X36817Y19671D1*
X36711Y19607D1*
X36590Y19577D1*
X36466Y19582D1*
X36348Y19624D1*
X36248Y19698D1*
X36173Y19798D1*
X36131Y19915D1*
X36128Y19973D1*
X35935Y20166D1*
X34517Y20164D1*
X34515Y18286D1*
X34541Y18236D1*
X34573Y18115D1*
X34575Y18070D1*
X34557Y17947D1*
X34515Y17859D1*
X34517Y16752D1*
X34581Y16646D1*
X34613Y16525D1*
X34615Y16480D1*
X34597Y16357D1*
X34544Y16244D1*
X34515Y16213D1*
Y13747D1*
X35963Y13745D1*
X36135Y13921D1*
X36167Y14061D1*
X36230Y14168D1*
X36322Y14252D1*
X36434Y14306D1*
X36557Y14325D1*
X36681Y14308D1*
X36794Y14255D1*
X36887Y14172D1*
X36951Y14066D1*
X36983Y13945D1*
X36985Y13900D1*
X36967Y13777D1*
X36914Y13664D1*
X36830Y13572D1*
X36723Y13508D1*
X36583Y13478D1*
X36313Y13207D1*
X36210Y13139D1*
X36090Y13115D1*
X34516D1*
X34525Y12970D1*
X34515Y12905D1*
X34580Y12815D1*
X36070D1*
X36192Y12791D1*
X36293Y12723D1*
X36572Y12444D1*
X36671Y12428D1*
X36784Y12375D1*
X36877Y12292D1*
X36941Y12186D1*
X36973Y12065D1*
X36975Y12020D1*
X36957Y11897D1*
X36904Y11784D1*
X36820Y11692D1*
X36713Y11628D1*
X36593Y11597D1*
X36468Y11603D1*
X36351Y11645D1*
X36251Y11719D1*
X36176Y11818D1*
X36134Y11936D1*
X36131Y11994D1*
X35938Y12187D1*
X34512Y12185D1*
X34515Y11930D1*
Y7915D1*
X38769D1*
X38765Y8475D1*
Y8917D1*
X38656Y9048D1*
X38614Y9166D1*
X38607Y9290D1*
X38637Y9411D1*
X38700Y9518D1*
X38766Y9579D1*
X38765Y13807D1*
X38731Y13839D1*
X38656Y13938D1*
X38614Y14056D1*
X38607Y14180D1*
X38637Y14301D1*
X38700Y14408D1*
X38765Y14475D1*
Y18706D1*
X38656Y18838D1*
X38614Y18956D1*
X38607Y19080D1*
X38637Y19201D1*
X38700Y19308D1*
X38766Y19369D1*
X38765Y23612D1*
X38731Y23639D1*
X38656Y23738D1*
X38614Y23856D1*
X38607Y23980D1*
X38637Y24101D1*
X38700Y24208D1*
X38766Y24269D1*
X38765Y28510D1*
X38731Y28539D1*
X38656Y28638D1*
X38614Y28756D1*
X38607Y28880D1*
X38637Y29001D1*
X38700Y29108D1*
X38766Y29169D1*
X38765Y33401D1*
X38731Y33429D1*
X38656Y33528D1*
X38614Y33646D1*
X38607Y33770D1*
X38637Y33891D1*
X38700Y33998D1*
X38766Y34059D1*
X38765Y38299D1*
X38731Y38329D1*
X38656Y38428D1*
X38614Y38546D1*
X38607Y38670D1*
X38637Y38791D1*
X38700Y38898D1*
X38766Y38959D1*
X38765Y43198D1*
X38724Y43238D1*
X37655Y43235D1*
X34378D1*
X34340Y43202D1*
X34233Y43138D1*
X34113Y43107D1*
X33988Y43113D1*
X33871Y43155D1*
X33764Y43238D1*
X32280Y43235D1*
X29425D1*
X29390Y43202D1*
X29283Y43138D1*
X29163Y43107D1*
X29038Y43113D1*
X28921Y43155D1*
X28814Y43238D1*
X28030Y43235D1*
X24479D1*
X24333Y43138D1*
X24213Y43107D1*
X24088Y43113D1*
X23971Y43155D1*
X23864Y43238D1*
X22655Y43235D1*
X19518D1*
X19373Y43138D1*
X19253Y43107D1*
X19128Y43113D1*
X19011Y43155D1*
X18904Y43238D1*
X17405Y43235D1*
X14565D1*
X14530Y43202D1*
X14423Y43138D1*
X14303Y43107D1*
X14178Y43113D1*
X14061Y43155D1*
X13954Y43238D1*
X13030Y43235D1*
X9604D1*
X9570Y43202D1*
X9463Y43138D1*
X9343Y43107D1*
X9218Y43113D1*
X9101Y43155D1*
X8994Y43238D1*
X8792Y43235D1*
X8814Y39878D1*
X8870Y39968D1*
X8962Y40052D1*
X9074Y40106D1*
X9197Y40125D1*
X9321Y40108D1*
X9434Y40055D1*
X9527Y39972D1*
X9591Y39866D1*
X9612Y39787D1*
X10190Y39791D1*
X20889Y39797D1*
X20950Y39898D1*
X21042Y39982D1*
X21154Y40036D1*
X21277Y40055D1*
X21401Y40038D1*
X21514Y39985D1*
X21607Y39902D1*
X21669Y39799D1*
X23327D1*
X23422Y39892D1*
X23534Y39946D1*
X23657Y39965D1*
X23781Y39948D1*
X23894Y39895D1*
X23997Y39796D1*
X24690Y39799D1*
X25600Y39800D1*
X25650Y39878D1*
X25742Y39962D1*
X25854Y40016D1*
X25977Y40035D1*
X26101Y40018D1*
X26214Y39965D1*
X26307Y39882D1*
X26357Y39799D1*
X30311Y39803D1*
X30432Y39922D1*
X30544Y39976D1*
X30667Y39995D1*
X30791Y39978D1*
X30904Y39925D1*
X30997Y39842D1*
X31019Y39806D1*
X32190Y39804D1*
X32381D1*
X32397Y39861D1*
X32460Y39968D1*
X32552Y40052D1*
X32664Y40106D1*
X32787Y40125D1*
X32911Y40108D1*
X33024Y40055D1*
X33061Y40022D1*
X33102Y40052D1*
X33214Y40106D1*
X33337Y40125D1*
X33461Y40108D1*
X33574Y40055D1*
X33667Y39972D1*
X33731Y39866D1*
X33748Y39802D1*
X34390Y39805D1*
X34496Y39744D1*
X34515Y39680D1*
Y37762D1*
X35735Y37765D1*
X35973D1*
X36145Y37941D1*
X36177Y38081D1*
X36240Y38188D1*
X36332Y38272D1*
X36444Y38326D1*
X36567Y38345D1*
X36691Y38328D1*
X36804Y38275D1*
X36897Y38192D1*
X36961Y38086D1*
X36993Y37965D1*
X36995Y37920D1*
X36977Y37797D1*
X36924Y37684D1*
X36840Y37592D1*
X36733Y37528D1*
X36593Y37498D1*
X36323Y37227D1*
X36220Y37159D1*
X36100Y37135D1*
X34518D1*
X34535Y36990D1*
X34517Y36867D1*
X36387Y39437D2*
X36334Y39324D1*
X36250Y39232D1*
X36143Y39168D1*
X36023Y39137D1*
X35898Y39143D1*
X35799Y39178D1*
X35653Y39137D1*
X35528Y39143D1*
X35395Y39196D1*
X35333Y39168D1*
X35213Y39137D1*
X35088Y39143D1*
X34971Y39185D1*
X34871Y39259D1*
X34796Y39358D1*
X34754Y39476D1*
X34747Y39600D1*
X34777Y39721D1*
X34840Y39828D1*
X34932Y39912D1*
X35044Y39966D1*
X35167Y39985D1*
X35291Y39968D1*
X35386Y39923D1*
X35484Y39966D1*
X35607Y39985D1*
X35731Y39968D1*
X35791Y39940D1*
X35854Y39966D1*
X35977Y39985D1*
X36101Y39968D1*
X36214Y39915D1*
X36307Y39832D1*
X36371Y39726D1*
X36403Y39605D1*
X36405Y39560D1*
X36387Y39437D1*
Y31377D2*
X36334Y31264D1*
X36250Y31172D1*
X36143Y31108D1*
X36023Y31077D1*
X35898Y31083D1*
X35799Y31118D1*
X35653Y31077D1*
X35528Y31083D1*
X35395Y31136D1*
X35333Y31108D1*
X35213Y31077D1*
X35088Y31083D1*
X34971Y31125D1*
X34871Y31199D1*
X34796Y31298D1*
X34754Y31416D1*
X34747Y31540D1*
X34777Y31661D1*
X34840Y31768D1*
X34932Y31852D1*
X35044Y31906D1*
X35167Y31925D1*
X35291Y31908D1*
X35386Y31863D1*
X35484Y31906D1*
X35607Y31925D1*
X35731Y31908D1*
X35791Y31880D1*
X35854Y31906D1*
X35977Y31925D1*
X36101Y31908D1*
X36214Y31855D1*
X36307Y31772D1*
X36371Y31666D1*
X36403Y31545D1*
X36405Y31500D1*
X36387Y31377D1*
X36374Y23396D2*
X36321Y23284D1*
X36237Y23191D1*
X36131Y23127D1*
X36010Y23097D1*
X35886Y23102D1*
X35786Y23138D1*
X35640Y23097D1*
X35516Y23102D1*
X35382Y23156D1*
X35321Y23127D1*
X35200Y23097D1*
X35076Y23102D1*
X34958Y23144D1*
X34858Y23218D1*
X34783Y23318D1*
X34741Y23435D1*
X34734Y23559D1*
X34764Y23680D1*
X34827Y23787D1*
X34919Y23871D1*
X35032Y23925D1*
X35155Y23944D1*
X35278Y23927D1*
X35373Y23883D1*
X35472Y23925D1*
X35595Y23944D1*
X35718Y23927D1*
X35778Y23899D1*
X35842Y23925D1*
X35965Y23944D1*
X36088Y23927D1*
X36201Y23875D1*
X36294Y23792D1*
X36359Y23685D1*
X36390Y23565D1*
X36392Y23519D1*
X36374Y23396D1*
X36377Y15417D2*
X36324Y15304D1*
X36240Y15212D1*
X36133Y15148D1*
X36013Y15117D1*
X35888Y15123D1*
X35789Y15158D1*
X35643Y15117D1*
X35518Y15123D1*
X35385Y15176D1*
X35323Y15148D1*
X35203Y15117D1*
X35078Y15123D1*
X34961Y15165D1*
X34861Y15239D1*
X34786Y15338D1*
X34744Y15456D1*
X34737Y15580D1*
X34767Y15701D1*
X34830Y15808D1*
X34922Y15892D1*
X35034Y15946D1*
X35157Y15965D1*
X35281Y15948D1*
X35376Y15903D1*
X35474Y15946D1*
X35597Y15965D1*
X35721Y15948D1*
X35781Y15920D1*
X35844Y15946D1*
X35967Y15965D1*
X36091Y15948D1*
X36204Y15895D1*
X36297Y15812D1*
X36361Y15706D1*
X36393Y15585D1*
X36395Y15540D1*
X36377Y15417D1*
X9416Y42785D2*
D23*
X10945Y41256D1*
Y42785D2*
X9416Y41256D1*
X16026Y42785D2*
X17555Y41256D1*
Y42785D2*
X16026Y41256D1*
X4641Y43058D2*
D22*
X8380D1*
X4641Y42809D2*
X6275D1*
X6606D2*
X8380D1*
X4641Y42560D2*
X5615D1*
X7266D2*
X8380D1*
X4641Y42312D2*
X5349D1*
X7532D2*
X8384D1*
X4641Y42063D2*
X5189D1*
X7692D2*
X8384D1*
X4641Y41814D2*
X5091D1*
X7790D2*
X8388D1*
X4641Y41566D2*
X5044D1*
X7836D2*
X8388D1*
X4641Y41317D2*
X5044D1*
X7836D2*
X8388D1*
X4641Y41068D2*
X5091D1*
X7790D2*
X8392D1*
X4641Y40820D2*
X5185D1*
X7692D2*
X8392D1*
X4641Y40571D2*
X5349D1*
X7532D2*
X8396D1*
X4641Y40322D2*
X5611D1*
X7266D2*
X8396D1*
X4641Y40074D2*
X6251D1*
X6626D2*
X8396D1*
X4641Y39825D2*
X8400D1*
X4641Y39576D2*
X8415D1*
X4641Y39327D2*
X8404D1*
X9297D2*
X14259D1*
X16040D2*
X29415D1*
X30282D2*
X31818D1*
X32641D2*
X34099D1*
X4641Y39079D2*
X8310D1*
X10274D2*
X14349D1*
X16235D2*
X29505D1*
X30532D2*
X31786D1*
X4751Y38830D2*
X8310D1*
X10317D2*
X14349D1*
X16231D2*
X29837D1*
X30778D2*
X31927D1*
X4797Y38581D2*
X8404D1*
X10188D2*
X14431D1*
X16016D2*
X29286D1*
X29501D2*
X30087D1*
X4680Y38333D2*
X8654D1*
X9594D2*
X14677D1*
X15641D2*
X21376D1*
X22922D2*
X23161D1*
X26829D2*
X29013D1*
X33915D2*
X34099D1*
X4641Y38084D2*
X8900D1*
X9840D2*
X14927D1*
X15891D2*
X21244D1*
X26919D2*
X29017D1*
X31907D2*
X33388D1*
X33672D2*
X34099D1*
X4641Y37835D2*
X5064D1*
X5571D2*
X9150D1*
X10090D2*
X15201D1*
X16141D2*
X21283D1*
X26848D2*
X29208D1*
X29575D2*
X31216D1*
X32157D2*
X34099D1*
X5977Y37587D2*
X9400D1*
X10340D2*
X15447D1*
X16387D2*
X22626D1*
X23504D2*
X29005D1*
X32469D2*
X34099D1*
X9532Y37338D2*
X9648D1*
X10586D2*
X15697D1*
X16637D2*
X22626D1*
X23504D2*
X29029D1*
X32516D2*
X34099D1*
X9637Y37089D2*
X9896D1*
X10836D2*
X15947D1*
X16887D2*
X22626D1*
X23504D2*
X31470D1*
X32516D2*
X34099D1*
X9614Y36841D2*
X10146D1*
X11086D2*
X16193D1*
X17133D2*
X22626D1*
X23504D2*
X31634D1*
X32579D2*
X34099D1*
X6090Y36592D2*
X7884D1*
X9446D2*
X10392D1*
X15133D2*
X16443D1*
X17383D2*
X22626D1*
X23504D2*
X27306D1*
X28376D2*
X29673D1*
X32446D2*
X34099D1*
X5876Y36343D2*
X10642D1*
X15383D2*
X16693D1*
X17633D2*
X22626D1*
X23504D2*
X27306D1*
X28376D2*
X29497D1*
X32469D2*
X34099D1*
X5083Y36095D2*
X10931D1*
X15629D2*
X16939D1*
X17879D2*
X22626D1*
X23504D2*
X27306D1*
X28376D2*
X29435D1*
X33098D2*
X34099D1*
X5001Y35846D2*
X12431D1*
X13329D2*
X14939D1*
X15879D2*
X17189D1*
X18129D2*
X22626D1*
X23504D2*
X27306D1*
X28376D2*
X29572D1*
X33801D2*
X34099D1*
X5001Y35597D2*
X12540D1*
X13219D2*
X15189D1*
X16129D2*
X17439D1*
X18379D2*
X22626D1*
X23504D2*
X27329D1*
X28352D2*
X29927D1*
X5844Y35348D2*
X7286D1*
X8977D2*
X11376D1*
X12141D2*
X12540D1*
X13219D2*
X15435D1*
X16376D2*
X17685D1*
X18626D2*
X22626D1*
X23504D2*
X27302D1*
X28368D2*
X30126D1*
X5977Y35100D2*
X7169D1*
X9098D2*
X11126D1*
X12391D2*
X12540D1*
X13219D2*
X15685D1*
X16626D2*
X17935D1*
X18876D2*
X22626D1*
X23504D2*
X27056D1*
X28243D2*
X29880D1*
X33641D2*
X33790D1*
X5997Y34851D2*
X7165D1*
X9102D2*
X11111D1*
X13219D2*
X15935D1*
X16876D2*
X18185D1*
X19126D2*
X22626D1*
X23504D2*
X26806D1*
X28336D2*
X29630D1*
X33391D2*
X34099D1*
X5915Y34602D2*
X7271D1*
X8997D2*
X11283D1*
X13219D2*
X16181D1*
X17122D2*
X18431D1*
X19372D2*
X22626D1*
X23504D2*
X26556D1*
X28372D2*
X29380D1*
X30754D2*
X34099D1*
X5669Y34354D2*
X7665D1*
X8598D2*
X12005D1*
X13219D2*
X16431D1*
X17372D2*
X18681D1*
X19622D2*
X22626D1*
X23504D2*
X26341D1*
X28278D2*
X29134D1*
X30504D2*
X34099D1*
X5176Y34105D2*
X12021D1*
X13219D2*
X16681D1*
X17622D2*
X18931D1*
X19872D2*
X22626D1*
X23504D2*
X26322D1*
X28317D2*
X28884D1*
X30254D2*
X34099D1*
X5176Y33856D2*
X12001D1*
X13219D2*
X16927D1*
X17868D2*
X19177D1*
X20118D2*
X22626D1*
X23504D2*
X26322D1*
X28376D2*
X28634D1*
X30008D2*
X34099D1*
X5431Y33608D2*
X12033D1*
X13219D2*
X17177D1*
X18118D2*
X19427D1*
X20368D2*
X22626D1*
X23504D2*
X26322D1*
X28305D2*
X28385D1*
X29758D2*
X34099D1*
X5864Y33359D2*
X7341D1*
X8926D2*
X11224D1*
X13219D2*
X17427D1*
X18368D2*
X19677D1*
X20618D2*
X22626D1*
X23504D2*
X26322D1*
X27430D2*
X27771D1*
X27910D2*
X28138D1*
X29508D2*
X34099D1*
X5981Y33110D2*
X7185D1*
X9083D2*
X11087D1*
X13219D2*
X17673D1*
X18614D2*
X19923D1*
X20864D2*
X22626D1*
X23504D2*
X26322D1*
X27419D2*
X27888D1*
X29262D2*
X34099D1*
X5993Y32862D2*
X7158D1*
X9110D2*
X11119D1*
X12419D2*
X12542D1*
X13219D2*
X17923D1*
X18864D2*
X20173D1*
X21114D2*
X22626D1*
X23547D2*
X26322D1*
X29012D2*
X34099D1*
X5903Y32613D2*
X7232D1*
X9032D2*
X11853D1*
X12145D2*
X12540D1*
X13219D2*
X18173D1*
X19114D2*
X20423D1*
X21364D2*
X22626D1*
X23797D2*
X26322D1*
X28762D2*
X30494D1*
X32028D2*
X34099D1*
X5629Y32364D2*
X7494D1*
X8774D2*
X12540D1*
X13219D2*
X18419D1*
X19360D2*
X20669D1*
X21610D2*
X22665D1*
X24047D2*
X26322D1*
X28516D2*
X30447D1*
X32067D2*
X34099D1*
X5020Y32116D2*
X12540D1*
X13219D2*
X18669D1*
X19610D2*
X20919D1*
X21860D2*
X22896D1*
X24294D2*
X26322D1*
X28266D2*
X30568D1*
X31938D2*
X34099D1*
X5020Y31867D2*
X12427D1*
X13219D2*
X18919D1*
X19860D2*
X21169D1*
X24544D2*
X24724D1*
X28016D2*
X34099D1*
X5754Y31618D2*
X12177D1*
X13118D2*
X19165D1*
X20106D2*
X21415D1*
X27879D2*
X29661D1*
X29965D2*
X34099D1*
X6036Y31369D2*
X8021D1*
X9309D2*
X11931D1*
X12872D2*
X19415D1*
X28376D2*
X29427D1*
X30200D2*
X31884D1*
X32575D2*
X34099D1*
X9583Y31121D2*
X11681D1*
X12829D2*
X19665D1*
X28376D2*
X29443D1*
X30430D2*
X31783D1*
X9645Y30872D2*
X11599D1*
X12930D2*
X23247D1*
X25540D2*
X25637D1*
X25843D2*
X25966D1*
X26163D2*
X26322D1*
X28376D2*
X29736D1*
X30676D2*
X31841D1*
X9583Y30623D2*
X11599D1*
X13169D2*
X23497D1*
X25786D2*
X26322D1*
X28376D2*
X29986D1*
X6040Y30375D2*
X8009D1*
X9321D2*
X11599D1*
X12282D2*
X12486D1*
X13219D2*
X23744D1*
X25993D2*
X26232D1*
X28360D2*
X29064D1*
X33930D2*
X34099D1*
X4641Y30126D2*
X4869D1*
X5766D2*
X11599D1*
X12282D2*
X12540D1*
X13219D2*
X23994D1*
X28364D2*
X28994D1*
X33833D2*
X34099D1*
X4641Y29877D2*
X11599D1*
X12282D2*
X12540D1*
X13219D2*
X24244D1*
X28223D2*
X29119D1*
X32051D2*
X34099D1*
X4641Y29629D2*
X9876D1*
X10665D2*
X11599D1*
X12282D2*
X12540D1*
X13219D2*
X24490D1*
X28344D2*
X29048D1*
X32430D2*
X34099D1*
X4641Y29380D2*
X9822D1*
X10719D2*
X11599D1*
X12282D2*
X12540D1*
X13219D2*
X24619D1*
X28372D2*
X28997D1*
X32575D2*
X34099D1*
X4684Y29131D2*
X9935D1*
X10606D2*
X11599D1*
X12282D2*
X12540D1*
X13219D2*
X24619D1*
X28258D2*
X29150D1*
X32524D2*
X34099D1*
X4797Y28883D2*
X11599D1*
X12282D2*
X12540D1*
X13219D2*
X24619D1*
X28329D2*
X31572D1*
X32551D2*
X34099D1*
X4747Y28634D2*
X11599D1*
X12282D2*
X12540D1*
X13219D2*
X14005D1*
X19868D2*
X24619D1*
X28376D2*
X31689D1*
X32520D2*
X34099D1*
X4641Y28385D2*
X11599D1*
X12282D2*
X12540D1*
X13219D2*
X13755D1*
X20114D2*
X24619D1*
X28290D2*
X29568D1*
X32387D2*
X34099D1*
X4641Y28137D2*
X11599D1*
X12282D2*
X12556D1*
X13454D2*
X13530D1*
X20364D2*
X24619D1*
X27540D2*
X29439D1*
X32422D2*
X34099D1*
X4641Y27888D2*
X11599D1*
X12282D2*
X12763D1*
X14633D2*
X18872D1*
X20614D2*
X24619D1*
X27809D2*
X29486D1*
X33321D2*
X34099D1*
X4641Y27639D2*
X11599D1*
X12282D2*
X13009D1*
X14590D2*
X19076D1*
X19754D2*
X19922D1*
X20754D2*
X24619D1*
X33954D2*
X34099D1*
X4641Y27390D2*
X8036D1*
X10004D2*
X11599D1*
X12282D2*
X13111D1*
X14590D2*
X18103D1*
X18926D2*
X19076D1*
X19754D2*
X20076D1*
X20754D2*
X24411D1*
X4641Y27142D2*
X5966D1*
X6778D2*
X7865D1*
X10004D2*
X11599D1*
X12282D2*
X13111D1*
X14590D2*
X15599D1*
X16333D2*
X18072D1*
X18958D2*
X19076D1*
X19754D2*
X20076D1*
X20754D2*
X24161D1*
X4641Y26893D2*
X5642D1*
X7102D2*
X7837D1*
X10004D2*
X11599D1*
X12286D2*
X13111D1*
X14590D2*
X15283D1*
X18118D2*
X18217D1*
X18817D2*
X19076D1*
X19754D2*
X20076D1*
X20754D2*
X23911D1*
X33403D2*
X33904D1*
X4641Y26644D2*
X5494D1*
X11063D2*
X11626D1*
X12536D2*
X12849D1*
X14590D2*
X15216D1*
X18258D2*
X19076D1*
X19754D2*
X20076D1*
X20754D2*
X23665D1*
X27989D2*
X34099D1*
X4641Y26396D2*
X5435D1*
X11231D2*
X11845D1*
X14590D2*
X15302D1*
X19754D2*
X20076D1*
X21274D2*
X23415D1*
X28090D2*
X34099D1*
X4641Y26147D2*
X5447D1*
X11239D2*
X12091D1*
X14590D2*
X15302D1*
X19754D2*
X19997D1*
X21430D2*
X23165D1*
X28086D2*
X34099D1*
X4641Y25898D2*
X5279D1*
X11110D2*
X12341D1*
X14676D2*
X15310D1*
X21407D2*
X22919D1*
X25559D2*
X26040D1*
X28063D2*
X34099D1*
X4641Y25650D2*
X5029D1*
X7028D2*
X12591D1*
X22497D2*
X22672D1*
X25309D2*
X25533D1*
X26067D2*
X26290D1*
X28051D2*
X34099D1*
X4641Y25401D2*
X4777D1*
X6145D2*
X6252D1*
X6493D2*
X12837D1*
X25063D2*
X25361D1*
X26239D2*
X26536D1*
X27696D2*
X28122D1*
X28547D2*
X34099D1*
X5895Y25152D2*
X10509D1*
X10922D2*
X12681D1*
X24813D2*
X25376D1*
X26223D2*
X26783D1*
X27536D2*
X27908D1*
X28762D2*
X34099D1*
X5645Y24904D2*
X7142D1*
X7735D2*
X7927D1*
X8524D2*
X10232D1*
X11196D2*
X12697D1*
X17508D2*
X18294D1*
X24563D2*
X25622D1*
X25977D2*
X27900D1*
X28922D2*
X34099D1*
X5399Y24655D2*
X6915D1*
X8747D2*
X10181D1*
X11251D2*
X12732D1*
X13508D2*
X15794D1*
X17754D2*
X18544D1*
X24317D2*
X27814D1*
X29172D2*
X30568D1*
X31958D2*
X34099D1*
X5149Y24406D2*
X6869D1*
X8794D2*
X9935D1*
X11176D2*
X12732D1*
X13508D2*
X16044D1*
X18004D2*
X18790D1*
X24067D2*
X27884D1*
X29383D2*
X30447D1*
X32071D2*
X34099D1*
X4903Y24158D2*
X6943D1*
X11172D2*
X12732D1*
X13508D2*
X16294D1*
X18254D2*
X19040D1*
X21641D2*
X21777D1*
X23817D2*
X25013D1*
X25567D2*
X27814D1*
X29407D2*
X30494D1*
X32020D2*
X34099D1*
X4852Y23909D2*
X7263D1*
X11251D2*
X12732D1*
X13508D2*
X16540D1*
X18501D2*
X21775D1*
X23938D2*
X24849D1*
X25731D2*
X27861D1*
X29407D2*
X34099D1*
X5102Y23660D2*
X7572D1*
X11196D2*
X12732D1*
X13508D2*
X16790D1*
X18751D2*
X21775D1*
X23922D2*
X24869D1*
X25711D2*
X27818D1*
X29407D2*
X34099D1*
X5352Y23411D2*
X7658D1*
X8794D2*
X10181D1*
X11251D2*
X12740D1*
X13801D2*
X17040D1*
X19001D2*
X21775D1*
X24602D2*
X25134D1*
X25446D2*
X27943D1*
X30180D2*
X31892D1*
X32540D2*
X34099D1*
X5598Y23163D2*
X7736D1*
X8715D2*
X10181D1*
X11251D2*
X12818D1*
X16782D2*
X17286D1*
X19247D2*
X21775D1*
X24602D2*
X28076D1*
X30391D2*
X31771D1*
X32704D2*
X34099D1*
X5848Y22914D2*
X8095D1*
X8356D2*
X10181D1*
X11251D2*
X12677D1*
X17126D2*
X17536D1*
X19497D2*
X21673D1*
X24602D2*
X28076D1*
X29407D2*
X29701D1*
X30641D2*
X31814D1*
X4641Y22665D2*
X4732D1*
X6098D2*
X10181D1*
X11251D2*
X12708D1*
X17376D2*
X17786D1*
X19747D2*
X21704D1*
X23051D2*
X23431D1*
X24602D2*
X28076D1*
X29407D2*
X29951D1*
X4641Y22417D2*
X4982D1*
X6743D2*
X12982D1*
X17626D2*
X18033D1*
X19993D2*
X21978D1*
X23051D2*
X23431D1*
X24602D2*
X28076D1*
X33919D2*
X34099D1*
X4641Y22168D2*
X5232D1*
X7086D2*
X12923D1*
X14184D2*
X16572D1*
X17872D2*
X18283D1*
X20243D2*
X22146D1*
X23137D2*
X28076D1*
X33836D2*
X34099D1*
X4641Y21919D2*
X5478D1*
X7243D2*
X11154D1*
X14430D2*
X16822D1*
X18122D2*
X18533D1*
X20493D2*
X21833D1*
X23219D2*
X28076D1*
X32016D2*
X34099D1*
X4641Y21671D2*
X5439D1*
X7305D2*
X11154D1*
X14598D2*
X17068D1*
X18372D2*
X18779D1*
X20739D2*
X21697D1*
X23141D2*
X28076D1*
X32364D2*
X34099D1*
X4641Y21422D2*
X5443D1*
X7297D2*
X11154D1*
X14606D2*
X17318D1*
X18618D2*
X19029D1*
X20989D2*
X21728D1*
X22919D2*
X28076D1*
X32551D2*
X34099D1*
X4641Y21173D2*
X5521D1*
X7219D2*
X9122D1*
X14606D2*
X17568D1*
X19188D2*
X19277D1*
X21239D2*
X21802D1*
X23079D2*
X28076D1*
X32520D2*
X34099D1*
X4641Y20925D2*
X5697D1*
X7044D2*
X8872D1*
X14606D2*
X17814D1*
X19434D2*
X19527D1*
X21485D2*
X21806D1*
X23325D2*
X28076D1*
X29407D2*
X31548D1*
X32544D2*
X34099D1*
X4641Y20676D2*
X6154D1*
X6586D2*
X8626D1*
X14606D2*
X18064D1*
X19684D2*
X19772D1*
X21852D2*
X21984D1*
X23575D2*
X28076D1*
X29407D2*
X29790D1*
X32536D2*
X34099D1*
X4641Y20427D2*
X8376D1*
X9629D2*
X12158D1*
X14606D2*
X18634D1*
X19934D2*
X20011D1*
X22004D2*
X22232D1*
X23786D2*
X28076D1*
X29407D2*
X29541D1*
X32430D2*
X34099D1*
X4641Y20179D2*
X4923D1*
X5997D2*
X8126D1*
X9758D2*
X11232D1*
X14606D2*
X14997D1*
X21985D2*
X22482D1*
X23809D2*
X28076D1*
X32461D2*
X34099D1*
X4641Y19930D2*
X4923D1*
X9723D2*
X10986D1*
X14606D2*
X14751D1*
X22153D2*
X22732D1*
X23809D2*
X28076D1*
X33286D2*
X34099D1*
X4641Y19681D2*
X4923D1*
X8821D2*
X10736D1*
X22352D2*
X22892D1*
X23809D2*
X28076D1*
X33977D2*
X34102D1*
X4641Y19432D2*
X4923D1*
X8571D2*
X10486D1*
X22352D2*
X22892D1*
X23809D2*
X28076D1*
X28954D2*
X29103D1*
X4774Y19184D2*
X5540D1*
X6219D2*
X9572D1*
X16415D2*
X16767D1*
X22172D2*
X22892D1*
X23809D2*
X28076D1*
X28954D2*
X29353D1*
X4786Y18935D2*
X5540D1*
X6219D2*
X9470D1*
X12843D2*
X13619D1*
X16348D2*
X16790D1*
X21426D2*
X22892D1*
X23809D2*
X28076D1*
X28954D2*
X29607D1*
X33540D2*
X33865D1*
X4641Y18686D2*
X5201D1*
X6219D2*
X9329D1*
X12333D2*
X13619D1*
X14258D2*
X14568D1*
X15981D2*
X16790D1*
X21672D2*
X22892D1*
X23809D2*
X28076D1*
X28954D2*
X34099D1*
X4641Y18438D2*
X4966D1*
X6137D2*
X9212D1*
X12083D2*
X13607D1*
X14258D2*
X14439D1*
X15981D2*
X16790D1*
X21922D2*
X22892D1*
X23809D2*
X28076D1*
X28954D2*
X34099D1*
X4641Y18189D2*
X4927D1*
X5993D2*
X7779D1*
X8122D2*
X9259D1*
X11833D2*
X13357D1*
X15981D2*
X16790D1*
X17731D2*
X18029D1*
X22172D2*
X22892D1*
X23809D2*
X28076D1*
X28954D2*
X34099D1*
X4641Y17940D2*
X5017D1*
X5903D2*
X7529D1*
X8372D2*
X13107D1*
X13993D2*
X14177D1*
X15051D2*
X15302D1*
X15981D2*
X16790D1*
X17731D2*
X18279D1*
X22419D2*
X22892D1*
X23809D2*
X28076D1*
X28954D2*
X34099D1*
X4641Y17692D2*
X6169D1*
X6989D2*
X7513D1*
X8528D2*
X12876D1*
X13743D2*
X14349D1*
X14883D2*
X15302D1*
X15981D2*
X16712D1*
X17731D2*
X18525D1*
X22669D2*
X22892D1*
X23809D2*
X28076D1*
X28954D2*
X34099D1*
X4641Y17443D2*
X5001D1*
X5520D2*
X6044D1*
X7024D2*
X7681D1*
X8778D2*
X12841D1*
X13497D2*
X15302D1*
X15981D2*
X16462D1*
X17692D2*
X18775D1*
X23809D2*
X28076D1*
X28954D2*
X34099D1*
X4641Y17194D2*
X4771D1*
X6891D2*
X7947D1*
X9028D2*
X12841D1*
X13481D2*
X15302D1*
X15981D2*
X16212D1*
X17465D2*
X19013D1*
X23809D2*
X28076D1*
X28954D2*
X34099D1*
X4641Y16946D2*
X4738D1*
X6485D2*
X8193D1*
X9274D2*
X12841D1*
X13481D2*
X15302D1*
X17215D2*
X17841D1*
X20469D2*
X20654D1*
X23809D2*
X28076D1*
X28954D2*
X34099D1*
X4641Y16697D2*
X4837D1*
X6239D2*
X8443D1*
X9524D2*
X12841D1*
X13481D2*
X15204D1*
X16965D2*
X17568D1*
X20469D2*
X20904D1*
X23809D2*
X28076D1*
X28954D2*
X30579D1*
X31922D2*
X34099D1*
X4641Y16448D2*
X5361D1*
X6040D2*
X8693D1*
X9774D2*
X12685D1*
X16719D2*
X17318D1*
X20469D2*
X21154D1*
X23809D2*
X28076D1*
X28954D2*
X30439D1*
X32055D2*
X34099D1*
X4641Y16200D2*
X5361D1*
X6040D2*
X8939D1*
X10020D2*
X12439D1*
X16469D2*
X17068D1*
X19501D2*
X19601D1*
X20469D2*
X21251D1*
X23809D2*
X28076D1*
X28954D2*
X30470D1*
X32016D2*
X34099D1*
X4641Y15951D2*
X5361D1*
X6040D2*
X8150D1*
X8649D2*
X9189D1*
X10344D2*
X12189D1*
X13922D2*
X14482D1*
X16219D2*
X16822D1*
X18071D2*
X18911D1*
X19251D2*
X19599D1*
X20469D2*
X21251D1*
X23809D2*
X28076D1*
X28954D2*
X34099D1*
X4641Y15702D2*
X5361D1*
X6040D2*
X7966D1*
X8836D2*
X9439D1*
X10520D2*
X11939D1*
X13672D2*
X14232D1*
X16086D2*
X16572D1*
X17821D2*
X18986D1*
X20469D2*
X21251D1*
X23809D2*
X28076D1*
X28954D2*
X34099D1*
X4641Y15453D2*
X5361D1*
X6040D2*
X7974D1*
X8977D2*
X9658D1*
X10504D2*
X10603D1*
X11227D2*
X11693D1*
X13422D2*
X13536D1*
X13675D2*
X13982D1*
X14922D2*
X15072D1*
X16036D2*
X16322D1*
X17575D2*
X18986D1*
X20469D2*
X21251D1*
X23809D2*
X28076D1*
X28954D2*
X29435D1*
X30172D2*
X31919D1*
X32520D2*
X34099D1*
X4641Y15205D2*
X5361D1*
X6040D2*
X8197D1*
X9227D2*
X9900D1*
X10262D2*
X10470D1*
X11360D2*
X11441D1*
X15731D2*
X16099D1*
X17325D2*
X18986D1*
X20469D2*
X21251D1*
X23809D2*
X28076D1*
X28954D2*
X29415D1*
X30336D2*
X31779D1*
X32688D2*
X34099D1*
X4641Y14956D2*
X5361D1*
X6040D2*
X8591D1*
X9477D2*
X10509D1*
X15731D2*
X16072D1*
X17372D2*
X18986D1*
X20469D2*
X21251D1*
X23809D2*
X28076D1*
X28954D2*
X29615D1*
X30583D2*
X31806D1*
X4641Y14707D2*
X5361D1*
X6040D2*
X8841D1*
X9723D2*
X10947D1*
X11829D2*
X12052D1*
X15731D2*
X16072D1*
X17391D2*
X18724D1*
X20469D2*
X21251D1*
X23809D2*
X28076D1*
X28954D2*
X29865D1*
X4641Y14459D2*
X5060D1*
X6040D2*
X9091D1*
X11583D2*
X12228D1*
X12981D2*
X13228D1*
X15731D2*
X16072D1*
X17227D2*
X18478D1*
X20469D2*
X21251D1*
X23809D2*
X28076D1*
X28954D2*
X29091D1*
X4641Y14210D2*
X5013D1*
X5950D2*
X9337D1*
X11333D2*
X12021D1*
X13192D2*
X13822D1*
X15731D2*
X16072D1*
X16969D2*
X18228D1*
X20376D2*
X21251D1*
X23809D2*
X28076D1*
X33872D2*
X34099D1*
X4641Y13961D2*
X5134D1*
X5786D2*
X12021D1*
X13192D2*
X14025D1*
X15731D2*
X16072D1*
X16969D2*
X17978D1*
X20129D2*
X21251D1*
X23809D2*
X28076D1*
X28954D2*
X29064D1*
X32001D2*
X34099D1*
X4641Y13713D2*
X11392D1*
X11739D2*
X12021D1*
X13192D2*
X14052D1*
X15731D2*
X16001D1*
X16969D2*
X17732D1*
X20047D2*
X21251D1*
X23809D2*
X28076D1*
X28954D2*
X29068D1*
X32247D2*
X34099D1*
X4641Y13464D2*
X8169D1*
X8411D2*
X11142D1*
X13192D2*
X14224D1*
X16969D2*
X17482D1*
X18766D2*
X19107D1*
X19934D2*
X21251D1*
X23809D2*
X28076D1*
X32524D2*
X34099D1*
X8708Y13215D2*
X11126D1*
X12954D2*
X13634D1*
X16938D2*
X17232D1*
X18516D2*
X21251D1*
X23809D2*
X28076D1*
X28954D2*
X29087D1*
X32559D2*
X34099D1*
X8731Y12967D2*
X10216D1*
X16715D2*
X16986D1*
X18270D2*
X21251D1*
X23809D2*
X28076D1*
X29036D2*
X31505D1*
X32544D2*
X34099D1*
X8579Y12718D2*
X9966D1*
X14079D2*
X14619D1*
X16469D2*
X16736D1*
X18020D2*
X21251D1*
X23833D2*
X28091D1*
X29282D2*
X29896D1*
X32544D2*
X34099D1*
X4641Y12469D2*
X9728D1*
X11356D2*
X14701D1*
X16219D2*
X16486D1*
X17770D2*
X21111D1*
X24083D2*
X28290D1*
X29532D2*
X29648D1*
X32493D2*
X34099D1*
X4641Y12221D2*
X9669D1*
X10411D2*
X10654D1*
X11188D2*
X15029D1*
X15969D2*
X16240D1*
X17524D2*
X20861D1*
X24329D2*
X28540D1*
X30340D2*
X31736D1*
X32485D2*
X34099D1*
X4641Y11972D2*
X9669D1*
X10348D2*
X10857D1*
X11184D2*
X14876D1*
X15723D2*
X15990D1*
X17274D2*
X20611D1*
X24579D2*
X28786D1*
X33270D2*
X34099D1*
X4641Y11723D2*
X9669D1*
X10348D2*
X10599D1*
X11442D2*
X14806D1*
X15626D2*
X15740D1*
X17024D2*
X17716D1*
X18383D2*
X20365D1*
X23571D2*
X23888D1*
X24829D2*
X29036D1*
X33950D2*
X34099D1*
X4641Y11474D2*
X9669D1*
X10348D2*
X10579D1*
X16778D2*
X17603D1*
X18497D2*
X20115D1*
X21434D2*
X21740D1*
X23571D2*
X24134D1*
X25075D2*
X29286D1*
X4641Y11226D2*
X9669D1*
X10348D2*
X10747D1*
X16528D2*
X17654D1*
X18446D2*
X19865D1*
X21184D2*
X21740D1*
X23571D2*
X24384D1*
X25325D2*
X29533D1*
X4641Y10977D2*
X5173D1*
X5809D2*
X9669D1*
X10348D2*
X10673D1*
X16278D2*
X19619D1*
X20938D2*
X21740D1*
X23571D2*
X24634D1*
X25575D2*
X29783D1*
X33536D2*
X33849D1*
X4641Y10728D2*
X4990D1*
X5989D2*
X9669D1*
X10348D2*
X10599D1*
X11501D2*
X13134D1*
X15329D2*
X19369D1*
X20688D2*
X21740D1*
X23571D2*
X24880D1*
X25751D2*
X34099D1*
X4641Y10480D2*
X4974D1*
X6008D2*
X9669D1*
X10348D2*
X10689D1*
X11411D2*
X13169D1*
X15551D2*
X16279D1*
X16782D2*
X18165D1*
X18555D2*
X19119D1*
X20438D2*
X21740D1*
X23571D2*
X25076D1*
X25754D2*
X34099D1*
X4641Y10231D2*
X5095D1*
X5883D2*
X9669D1*
X10348D2*
X10837D1*
X11301D2*
X13458D1*
X15801D2*
X16095D1*
X16965D2*
X17935D1*
X18786D2*
X18869D1*
X20192D2*
X21247D1*
X23567D2*
X25076D1*
X25797D2*
X34099D1*
X4641Y9982D2*
X9669D1*
X10348D2*
X10638D1*
X11501D2*
X11970D1*
X12430D2*
X13009D1*
X13469D2*
X13708D1*
X16958D2*
X17923D1*
X19942D2*
X21193D1*
X23489D2*
X24990D1*
X25891D2*
X34099D1*
X4641Y9734D2*
X8583D1*
X9157D2*
X9669D1*
X10348D2*
X10638D1*
X11501D2*
X11767D1*
X12633D2*
X12810D1*
X13672D2*
X13954D1*
X16731D2*
X18103D1*
X19696D2*
X21302D1*
X23379D2*
X23587D1*
X24211D2*
X25060D1*
X25821D2*
X34099D1*
X4723Y9485D2*
X8427D1*
X9313D2*
X9669D1*
X10348D2*
X10845D1*
X11294D2*
X11771D1*
X12629D2*
X12810D1*
X13672D2*
X14204D1*
X16547D2*
X18126D1*
X19454D2*
X21501D1*
X24344D2*
X27283D1*
X27516D2*
X34099D1*
X4801Y9236D2*
X8454D1*
X9286D2*
X9587D1*
X10348D2*
X11974D1*
X12426D2*
X13013D1*
X13465D2*
X14454D1*
X19606D2*
X19931D1*
X20629D2*
X21501D1*
X24309D2*
X26986D1*
X28372D2*
X34099D1*
X4715Y8988D2*
X8744D1*
X8997D2*
X9509D1*
X10411D2*
X14701D1*
X19583D2*
X19829D1*
X20731D2*
X21501D1*
X24063D2*
X26958D1*
X28430D2*
X34099D1*
X4641Y8739D2*
X9591D1*
X10329D2*
X14951D1*
X24313D2*
X25126D1*
X25864D2*
X27111D1*
X28325D2*
X30607D1*
X31903D2*
X34099D1*
X4641Y8490D2*
X15201D1*
X22419D2*
X22720D1*
X24559D2*
X25044D1*
X25946D2*
X30443D1*
X32055D2*
X34099D1*
X4641Y8242D2*
X15447D1*
X22419D2*
X22970D1*
X24809D2*
X25126D1*
X25864D2*
X30462D1*
X32032D2*
X34099D1*
X4641Y7993D2*
X15697D1*
X16637D2*
X21271D1*
X22419D2*
X23216D1*
X33868D2*
X34099D1*
X4641Y7744D2*
X5974D1*
X6907D2*
X15947D1*
X22419D2*
X23466D1*
X4641Y7495D2*
X5533D1*
X7348D2*
X16193D1*
X22419D2*
X23716D1*
X28977D2*
X30533D1*
X32348D2*
X33423D1*
X36922D2*
X38740D1*
X4641Y7247D2*
X5298D1*
X7579D2*
X8365D1*
X9419D2*
X10197D1*
X10782D2*
X12197D1*
X12782D2*
X13560D1*
X14618D2*
X16482D1*
X21430D2*
X21740D1*
X22419D2*
X23962D1*
X29223D2*
X30298D1*
X32579D2*
X33673D1*
X37172D2*
X38740D1*
X4641Y6998D2*
X5158D1*
X7723D2*
X8083D1*
X9700D2*
X9931D1*
X11051D2*
X11931D1*
X13051D2*
X13279D1*
X14899D2*
X21740D1*
X22419D2*
X24212D1*
X25993D2*
X28533D1*
X29426D2*
X30158D1*
X32723D2*
X33927D1*
X37422D2*
X38740D1*
X4641Y6749D2*
X5076D1*
X7805D2*
X7943D1*
X11129D2*
X11849D1*
X15040D2*
X16216D1*
X17383D2*
X18447D1*
X19614D2*
X20857D1*
X22895D2*
X24314D1*
X26356D2*
X27661D1*
X29727D2*
X30076D1*
X32805D2*
X33935D1*
X34465D2*
X35775D1*
X37817D2*
X38740D1*
X4641Y6501D2*
X5040D1*
X11102D2*
X11876D1*
X15098D2*
X16216D1*
X17383D2*
X18447D1*
X19614D2*
X20736D1*
X22895D2*
X24197D1*
X26356D2*
X27560D1*
X29727D2*
X30040D1*
X32840D2*
X33763D1*
X34637D2*
X35658D1*
X37817D2*
X38740D1*
X4641Y6252D2*
X5052D1*
X9899D2*
X10028D1*
X10950D2*
X12029D1*
X12950D2*
X13079D1*
X15094D2*
X16216D1*
X17383D2*
X18447D1*
X19614D2*
X20744D1*
X22895D2*
X24201D1*
X26356D2*
X27579D1*
X29727D2*
X30052D1*
X32829D2*
X33779D1*
X34622D2*
X35661D1*
X37817D2*
X38740D1*
X4641Y6003D2*
X5111D1*
X7770D2*
X7954D1*
X9829D2*
X13150D1*
X15028D2*
X16216D1*
X17383D2*
X18447D1*
X19614D2*
X20880D1*
X22895D2*
X24341D1*
X26356D2*
X27740D1*
X29727D2*
X30111D1*
X32770D2*
X34025D1*
X34376D2*
X35798D1*
X37817D2*
X38740D1*
X4641Y5755D2*
X5220D1*
X7657D2*
X8107D1*
X9676D2*
X13302D1*
X14876D2*
X30220D1*
X32657D2*
X38740D1*
X4641Y5506D2*
X5404D1*
X7477D2*
X8419D1*
X9364D2*
X13615D1*
X14563D2*
X30404D1*
X32477D2*
X38740D1*
X4641Y5257D2*
X5712D1*
X7169D2*
X30712D1*
X32169D2*
X38740D1*
X4641Y5009D2*
X38740D1*
X4641Y4760D2*
X9161D1*
X9438D2*
X14122D1*
X14399D2*
X19072D1*
X19347D2*
X24033D1*
X24309D2*
X28982D1*
X29258D2*
X33931D1*
X34206D2*
X38740D1*
X5137Y34289D2*
X5150Y34176D1*
X5146Y33704D1*
X5138Y33591D1*
X5343Y33613D1*
X5467Y33597D1*
X5585Y33557D1*
X5694Y33496D1*
X5789Y33415D1*
X5867Y33318D1*
X5926Y33207D1*
X5962Y33088D1*
X5976Y32956D1*
X5964Y32832D1*
X5929Y32712D1*
X5872Y32601D1*
X5795Y32503D1*
X5700Y32421D1*
X5593Y32358D1*
X5475Y32317D1*
X5351Y32299D1*
X5226Y32304D1*
X5105Y32333D1*
X4995Y32383D1*
X4996Y31850D1*
X5138Y31707D1*
X5286Y31724D1*
X5411Y31720D1*
X5534Y31697D1*
X5652Y31657D1*
X5763Y31600D1*
X5865Y31527D1*
X5955Y31441D1*
X6031Y31342D1*
X6090Y31236D1*
X7853Y31234D1*
X7968Y31330D1*
X8081Y31383D1*
X8204Y31408D1*
X8501Y31410D1*
X9155Y31404D1*
X9276Y31372D1*
X9386Y31314D1*
X9479Y31231D1*
X9552Y31130D1*
X9599Y31014D1*
X9618Y30869D1*
X9604Y30745D1*
X9562Y30628D1*
X9493Y30524D1*
X9403Y30438D1*
X9296Y30375D1*
X9176Y30338D1*
X9078Y30329D1*
X8251Y30333D1*
X8102Y30350D1*
X7987Y30398D1*
X7886Y30471D1*
X7858Y30503D1*
X6090Y30504D1*
X6031Y30397D1*
X5955Y30298D1*
X5865Y30212D1*
X5764Y30139D1*
X5653Y30082D1*
X5534Y30042D1*
X5412Y30019D1*
X5287Y30014D1*
X5163Y30028D1*
X5042Y30060D1*
X4927Y30108D1*
X4820Y30173D1*
X4724Y30253D1*
X4613Y30389D1*
X4615Y29175D1*
X4677Y29112D1*
X4741Y29006D1*
X4773Y28885D1*
X4775Y28840D1*
X4757Y28717D1*
X4704Y28604D1*
X4617Y28510D1*
X4615Y25214D1*
X5488Y26085D1*
X5465Y26187D1*
X5457Y26312D1*
X5465Y26437D1*
X5491Y26559D1*
X5533Y26676D1*
X5591Y26787D1*
X5663Y26889D1*
X5749Y26980D1*
X5846Y27059D1*
X5952Y27123D1*
X6067Y27173D1*
X6188Y27206D1*
X6311Y27223D1*
X6436D1*
X6560Y27205D1*
X6680Y27171D1*
X6795Y27121D1*
X6901Y27056D1*
X6998Y26977D1*
X7083Y26885D1*
X7154Y26783D1*
X7188Y26717D1*
X7920Y26715D1*
X7876Y26826D1*
X7860Y26950D1*
X7872Y27074D1*
X7910Y27193D1*
X7975Y27300D1*
X8061Y27390D1*
X8165Y27459D1*
X8281Y27503D1*
X8405Y27520D1*
X8529Y27510D1*
X8648Y27472D1*
X8756Y27409D1*
X8862Y27301D1*
X8860Y27520D1*
X9980D1*
Y26712D1*
X10506Y26715D1*
X10559Y26736D1*
X10682Y26760D1*
X10806Y26753D1*
X10925Y26716D1*
X11032Y26651D1*
X11120Y26562D1*
X11183Y26455D1*
X11219Y26335D1*
X11226Y26250D1*
X11211Y26126D1*
X11166Y26010D1*
X11095Y25908D1*
X11001Y25826D1*
X10889Y25769D1*
X10768Y25741D1*
X10643Y25744D1*
X10506Y25786D1*
X7118Y25785D1*
X6995Y25642D1*
X6898Y25563D1*
X6792Y25498D1*
X6677Y25448D1*
X6557Y25415D1*
X6433Y25398D1*
X6308D1*
X6143Y25427D1*
X4814Y24095D1*
X4813Y23921D1*
X5386Y23352D1*
X6262Y22476D1*
X6436Y22482D1*
X6560Y22465D1*
X6680Y22431D1*
X6795Y22381D1*
X6901Y22316D1*
X6998Y22237D1*
X7083Y22145D1*
X7154Y22043D1*
X7211Y21932D1*
X7253Y21814D1*
X7278Y21691D1*
X7286Y21570D1*
X7277Y21445D1*
X7252Y21323D1*
X7210Y21206D1*
X7153Y21095D1*
X7081Y20993D1*
X6995Y20901D1*
X6898Y20823D1*
X6792Y20758D1*
X6677Y20708D1*
X6557Y20674D1*
X6433Y20658D1*
X6308D1*
X6184Y20675D1*
X6064Y20709D1*
X5950Y20759D1*
X5843Y20824D1*
X5746Y20903D1*
X5661Y20994D1*
X5589Y21096D1*
X5532Y21207D1*
X5490Y21325D1*
X5465Y21447D1*
X5457Y21572D1*
X5465Y21696D1*
X5491Y21819D1*
X5521Y21903D1*
X4614Y22808D1*
X4615Y19374D1*
X4677Y19312D1*
X4741Y19206D1*
X4773Y19085D1*
X4775Y19040D1*
X4757Y18917D1*
X4704Y18804D1*
X4617Y18710D1*
X4615Y13413D1*
X8075Y13415D1*
X8164Y13456D1*
X8287Y13475D1*
X8411Y13458D1*
X8524Y13405D1*
X8617Y13322D1*
X8681Y13216D1*
X8713Y13095D1*
X8715Y13050D1*
X8697Y12927D1*
X8644Y12814D1*
X8560Y12722D1*
X8453Y12658D1*
X8333Y12627D1*
X8208Y12633D1*
X8075Y12686D1*
X4614Y12685D1*
X4615Y9570D1*
X4677Y9512D1*
X4741Y9406D1*
X4773Y9285D1*
X4775Y9240D1*
X4757Y9117D1*
X4704Y9004D1*
X4617Y8910D1*
X4615Y5262D1*
Y4680D1*
X4687Y4606D1*
X8963Y4605D1*
X9062Y4702D1*
X9174Y4756D1*
X9297Y4775D1*
X9421Y4758D1*
X9534Y4705D1*
X9637Y4606D1*
X13917Y4605D1*
X14022Y4702D1*
X14134Y4756D1*
X14257Y4775D1*
X14381Y4758D1*
X14494Y4705D1*
X14597Y4606D1*
X18870Y4605D1*
X18972Y4702D1*
X19084Y4756D1*
X19207Y4775D1*
X19331Y4758D1*
X19444Y4705D1*
X19547Y4606D1*
X23831Y4605D1*
X23932Y4702D1*
X24044Y4756D1*
X24167Y4775D1*
X24291Y4758D1*
X24404Y4705D1*
X24507Y4606D1*
X28784Y4605D1*
X28882Y4702D1*
X28994Y4756D1*
X29117Y4775D1*
X29241Y4758D1*
X29354Y4705D1*
X29457Y4606D1*
X33729Y4605D1*
X33832Y4702D1*
X33944Y4756D1*
X34067Y4775D1*
X34191Y4758D1*
X34304Y4705D1*
X34407Y4606D1*
X38690Y4605D1*
X38766Y4679D1*
X38765Y7525D1*
X36855D1*
X36923Y7473D1*
X37445Y6951D1*
X37790Y6950D1*
Y5830D1*
X36670D1*
Y6043D1*
X36582Y5954D1*
X36477Y5887D1*
X36359Y5845D1*
X36235Y5830D1*
X36111Y5843D1*
X35993Y5883D1*
X35887Y5948D1*
X35797Y6035D1*
X35729Y6139D1*
X35686Y6256D1*
X35670Y6380D1*
X35682Y6504D1*
X35720Y6623D1*
X35785Y6730D1*
X35871Y6820D1*
X35975Y6889D1*
X36111Y6936D1*
X34140Y6935D1*
X34018Y6960D1*
X33917Y7027D1*
X33368Y7577D1*
X32215Y7575D1*
X32365Y7459D1*
X32534Y7275D1*
X32667Y7064D1*
X32759Y6832D1*
X32809Y6588D1*
X32816Y6440D1*
X32794Y6192D1*
X32727Y5951D1*
X32617Y5727D1*
X32469Y5526D1*
X32287Y5355D1*
X32077Y5220D1*
X31846Y5125D1*
X31602Y5073D1*
X31352Y5067D1*
X31105Y5105D1*
X30870Y5188D1*
X30653Y5311D1*
X30462Y5472D1*
X30303Y5665D1*
X30182Y5883D1*
X30102Y6119D1*
X30066Y6366D1*
X30075Y6616D1*
X30129Y6860D1*
X30227Y7089D1*
X30364Y7298D1*
X30537Y7478D1*
X30664Y7575D1*
X28871D1*
X29323Y7123D1*
X29395Y7009D1*
X29455Y6980D1*
X29700D1*
Y5860D1*
X28580D1*
Y6073D1*
X28492Y5984D1*
X28387Y5917D1*
X28269Y5875D1*
X28145Y5860D1*
X28021Y5873D1*
X27903Y5913D1*
X27797Y5978D1*
X27707Y6065D1*
X27639Y6169D1*
X27596Y6286D1*
X27580Y6410D1*
X27592Y6534D1*
X27630Y6653D1*
X27695Y6760D1*
X27781Y6850D1*
X27885Y6919D1*
X28001Y6963D1*
X28125Y6980D1*
X28249Y6970D1*
X28368Y6932D1*
X28476Y6869D1*
X28582Y6761D1*
X28580Y6977D1*
X28411Y7144D1*
X25818Y7145D1*
X26015Y6950D1*
X26330D1*
Y5830D1*
X25210D1*
Y6043D1*
X25122Y5954D1*
X25017Y5887D1*
X24899Y5845D1*
X24775Y5830D1*
X24651Y5843D1*
X24533Y5883D1*
X24427Y5948D1*
X24337Y6035D1*
X24269Y6139D1*
X24226Y6256D1*
X24210Y6380D1*
X24222Y6504D1*
X24260Y6623D1*
X24325Y6730D1*
X24414Y6822D1*
X22396Y8839D1*
X22395Y6948D1*
X22870Y6950D1*
Y5830D1*
X21750D1*
Y6043D1*
X21662Y5954D1*
X21557Y5887D1*
X21439Y5845D1*
X21315Y5830D1*
X21191Y5843D1*
X21073Y5883D1*
X20967Y5948D1*
X20877Y6035D1*
X20809Y6139D1*
X20766Y6256D1*
X20750Y6380D1*
X20762Y6504D1*
X20800Y6623D1*
X20865Y6730D1*
X20951Y6820D1*
X21055Y6889D1*
X21171Y6933D1*
X21295Y6950D1*
X21419Y6940D1*
X21538Y6902D1*
X21646Y6839D1*
X21752Y6731D1*
X21750Y6950D1*
X21762D1*
X21765Y7572D1*
X21513Y7317D1*
X21410Y7249D1*
X21290Y7225D1*
X16620D1*
X16498Y7250D1*
X16397Y7317D1*
X13461Y10254D1*
X13381Y10285D1*
X13281Y10359D1*
X13206Y10458D1*
X13164Y10576D1*
X13157Y10700D1*
X13169Y10749D1*
X12900Y10745D1*
X11475Y10740D1*
X11457Y10617D1*
X11404Y10504D1*
X11320Y10412D1*
X11213Y10348D1*
X11093Y10317D1*
X10968Y10323D1*
X10851Y10365D1*
X10751Y10439D1*
X10676Y10538D1*
X10634Y10656D1*
X10627Y10780D1*
X10657Y10901D1*
X10720Y11008D1*
X10812Y11092D1*
X10924Y11146D1*
X10951Y11150D1*
X10821Y11195D1*
X10721Y11269D1*
X10646Y11368D1*
X10604Y11486D1*
X10597Y11610D1*
X10627Y11731D1*
X10690Y11838D1*
X10782Y11922D1*
X10894Y11976D1*
X11017Y11995D1*
X11141Y11978D1*
X11254Y11925D1*
X11347Y11842D1*
X11411Y11736D1*
X11443Y11615D1*
X11445Y11566D1*
X11455Y11555D1*
X14787D1*
X14822Y11701D1*
X14900Y11821D1*
Y11935D1*
X14925Y12057D1*
X14992Y12158D1*
X15133Y12299D1*
X14988Y12303D1*
X14871Y12345D1*
X14771Y12419D1*
X14696Y12518D1*
X14654Y12636D1*
X14647Y12760D1*
X14661Y12817D1*
X14153Y12815D1*
X14003Y12667D1*
X13900Y12599D1*
X13780Y12575D1*
X11345Y12570D1*
X11327Y12447D1*
X11274Y12334D1*
X11190Y12242D1*
X11083Y12178D1*
X10963Y12147D1*
X10838Y12153D1*
X10721Y12195D1*
X10621Y12269D1*
X10542Y12379D1*
X10327Y12162D1*
X10325Y9290D1*
Y9208D1*
X10351Y9156D1*
X10383Y9035D1*
X10385Y8990D1*
X10367Y8867D1*
X10314Y8754D1*
X10230Y8662D1*
X10123Y8598D1*
X10003Y8567D1*
X9878Y8573D1*
X9761Y8615D1*
X9661Y8689D1*
X9586Y8788D1*
X9544Y8906D1*
X9537Y9030D1*
X9567Y9151D1*
X9630Y9258D1*
X9696Y9319D1*
X9695Y12290D1*
X9720Y12412D1*
X9787Y12513D1*
X10387Y13113D1*
X10491Y13182D1*
X10610Y13205D1*
X11153D1*
X11142Y13355D1*
X11172Y13476D1*
X11235Y13583D1*
X11327Y13667D1*
X11439Y13721D1*
X11562Y13740D1*
X11686Y13723D1*
X11799Y13670D1*
X11842Y13631D1*
X12046Y13630D1*
X12045Y14455D1*
X12260D1*
X12172Y14540D1*
X12104Y14644D1*
X12061Y14761D1*
X12045Y14885D1*
X12051Y14951D1*
X11209Y14112D1*
X11101Y14044D1*
X11000Y14025D1*
X9670D1*
X9546Y14054D1*
X9462Y14112D1*
X8409Y15164D1*
X8318Y15173D1*
X8201Y15215D1*
X8101Y15289D1*
X8026Y15388D1*
X7984Y15506D1*
X7977Y15630D1*
X8007Y15751D1*
X8070Y15858D1*
X8162Y15942D1*
X8274Y15996D1*
X8397Y16015D1*
X8521Y15998D1*
X8634Y15945D1*
X8727Y15862D1*
X8791Y15756D1*
X8823Y15635D1*
X8825Y15586D1*
X9794Y14614D1*
X10880Y14617D1*
X10982Y14719D1*
X10833Y14723D1*
X10716Y14765D1*
X10616Y14839D1*
X10541Y14938D1*
X10499Y15056D1*
X10492Y15180D1*
X10522Y15301D1*
X10585Y15408D1*
X10677Y15492D1*
X10789Y15546D1*
X10912Y15565D1*
X11036Y15548D1*
X11149Y15495D1*
X11242Y15412D1*
X11306Y15306D1*
X11338Y15185D1*
X11329Y15067D1*
X12865Y16605D1*
Y17550D1*
X12894Y17675D1*
X12952Y17759D1*
X13645Y18455D1*
Y18967D1*
X13533Y18973D1*
X13416Y19015D1*
X13316Y19089D1*
X13241Y19188D1*
X13229Y19221D1*
X13180Y19143D1*
X13092Y19054D1*
X12987Y18987D1*
X12869Y18945D1*
X12745Y18930D1*
X12621Y18943D1*
X12581Y18956D1*
X12042Y18421D1*
X11678Y18057D1*
X11574Y17989D1*
X11455Y17965D1*
X9656Y17966D1*
X9578Y17973D1*
X9461Y18015D1*
X9361Y18089D1*
X9286Y18188D1*
X9244Y18306D1*
X9237Y18430D1*
X9267Y18551D1*
X9330Y18658D1*
X9422Y18742D1*
X9517Y18788D1*
X9504Y18826D1*
X9497Y18950D1*
X9527Y19071D1*
X9590Y19178D1*
X9682Y19262D1*
X9794Y19316D1*
X9917Y19335D1*
X10041Y19318D1*
X10154Y19265D1*
X10197Y19226D1*
X10307Y19225D1*
X11292Y20213D1*
X11396Y20282D1*
X11515Y20305D1*
X12113D1*
X12180Y20480D1*
X12190Y20585D1*
X9700D1*
X9569Y20454D1*
X9642Y20387D1*
X9706Y20281D1*
X9738Y20160D1*
X9740Y20115D1*
X9722Y19992D1*
X9669Y19879D1*
X9585Y19787D1*
X9478Y19723D1*
X9358Y19692D1*
X9233Y19698D1*
X9116Y19740D1*
X9016Y19814D1*
X8981Y19860D1*
X8503Y19387D1*
X8400Y19319D1*
X8280Y19295D1*
X6198D1*
X6195Y18652D1*
X6171Y18530D1*
X6103Y18429D1*
X5968Y18294D1*
X5971Y18232D1*
X5956Y18108D1*
X5911Y17992D1*
X5840Y17890D1*
X5746Y17808D1*
X5634Y17752D1*
X5513Y17724D1*
X5388Y17726D1*
X5268Y17759D1*
X5159Y17819D1*
X5068Y17905D1*
X5000Y18009D1*
X4960Y18127D1*
X4949Y18252D1*
X4969Y18375D1*
X5018Y18489D1*
X5094Y18589D1*
X5191Y18667D1*
X5304Y18719D1*
X5427Y18742D1*
X5516Y18737D1*
X5565Y18902D1*
Y19297D1*
X4949Y19299D1*
Y20321D1*
X5971D1*
Y20122D1*
X7210Y20125D1*
X8097D1*
X9287Y21313D1*
X9391Y21382D1*
X9510Y21405D1*
X11178D1*
X11180Y22050D1*
X12300D1*
Y21836D1*
X12381Y21920D1*
X12485Y21989D1*
X12601Y22033D1*
X12725Y22050D1*
X12822Y22042D1*
X12942Y22163D1*
X13057Y22235D1*
X13041Y22338D1*
X13008Y22430D1*
X12921Y22465D1*
X12821Y22539D1*
X12746Y22638D1*
X12704Y22756D1*
X12697Y22880D1*
X12727Y23001D1*
X12790Y23108D1*
X12893Y23197D1*
X12790Y23329D1*
X12756Y23463D1*
X12755Y24833D1*
X12704Y24966D1*
X12697Y25090D1*
X12727Y25211D1*
X12790Y25318D1*
X12873Y25394D1*
X11717Y26547D1*
X11649Y26651D1*
X11625Y26770D1*
Y30910D1*
X11650Y31032D1*
X11717Y31133D1*
X12565Y31981D1*
Y33010D1*
X12483Y32997D1*
X12424Y33000D1*
X12407Y32897D1*
X12354Y32784D1*
X12270Y32692D1*
X12163Y32628D1*
X12043Y32597D1*
X11918Y32603D1*
X11801Y32645D1*
X11754Y32679D1*
X11693Y32648D1*
X11573Y32617D1*
X11448Y32623D1*
X11331Y32665D1*
X11231Y32739D1*
X11156Y32838D1*
X11114Y32956D1*
X11107Y33080D1*
X11137Y33201D1*
X11200Y33308D1*
X11292Y33392D1*
X11404Y33446D1*
X11527Y33465D1*
X11651Y33448D1*
X11778Y33382D1*
X11874Y33426D1*
X12017Y33442D1*
X12047Y33581D1*
X12108Y33685D1*
X12066Y33748D1*
X12024Y33866D1*
X12017Y33990D1*
X12047Y34111D1*
X12104Y34208D1*
X12066Y34268D1*
X12024Y34386D1*
X12022Y34529D1*
X11888Y34533D1*
X11761Y34582D1*
X11713Y34558D1*
X11593Y34527D1*
X11468Y34533D1*
X11351Y34575D1*
X11251Y34649D1*
X11176Y34748D1*
X11134Y34866D1*
X11127Y34990D1*
X11157Y35111D1*
X11220Y35218D1*
X11312Y35302D1*
X11424Y35356D1*
X11547Y35375D1*
X11671Y35358D1*
X11759Y35317D1*
X11844Y35356D1*
X11967Y35375D1*
X12091Y35358D1*
X12204Y35305D1*
X12297Y35222D1*
X12361Y35116D1*
X12393Y34995D1*
X12387Y34892D1*
X12437Y34895D1*
X12564Y34876D1*
X12565Y35604D1*
X12506Y35688D1*
X12464Y35806D1*
X12457Y35930D1*
X12487Y36051D1*
X12501Y36074D1*
X11065Y36075D1*
X10943Y36100D1*
X10842Y36167D1*
X8427Y38582D1*
X8359Y38686D1*
X8335Y38805D1*
Y39080D1*
X8365Y39212D1*
X8427Y39320D1*
X8457Y39441D1*
X8486Y39491D1*
X8429Y39628D1*
X8422Y40163D1*
X8403Y43238D1*
X6155Y43235D1*
X4659D1*
X4617Y43200D1*
X4615Y38964D1*
X4677Y38902D1*
X4741Y38796D1*
X4773Y38675D1*
X4775Y38630D1*
X4757Y38507D1*
X4704Y38394D1*
X4617Y38300D1*
X4615Y37495D1*
X4724Y37627D1*
X4820Y37707D1*
X4926Y37772D1*
X5041Y37821D1*
X5162Y37852D1*
X5286Y37866D1*
X5411Y37861D1*
X5534Y37839D1*
X5652Y37799D1*
X5763Y37742D1*
X5865Y37669D1*
X5955Y37582D1*
X6031Y37484D1*
X6090Y37378D1*
X7853Y37376D1*
X7968Y37472D1*
X8081Y37524D1*
X8204Y37550D1*
X8501Y37552D1*
X9155Y37546D1*
X9276Y37514D1*
X9386Y37455D1*
X9479Y37373D1*
X9552Y37271D1*
X9599Y37156D1*
X9618Y37011D1*
X9604Y36887D1*
X9562Y36770D1*
X9493Y36665D1*
X9403Y36579D1*
X9296Y36516D1*
X9176Y36480D1*
X9078Y36470D1*
X8251Y36474D1*
X8102Y36491D1*
X7987Y36539D1*
X7886Y36612D1*
X7858Y36645D1*
X6090Y36646D1*
X6031Y36539D1*
X5955Y36440D1*
X5865Y36353D1*
X5764Y36281D1*
X5653Y36224D1*
X5534Y36183D1*
X5412Y36161D1*
X5287Y36156D1*
X5136Y36177D1*
X4976Y36011D1*
X4975Y35488D1*
X5097Y35544D1*
X5218Y35575D1*
X5343Y35582D1*
X5467Y35565D1*
X5585Y35526D1*
X5694Y35464D1*
X5789Y35383D1*
X5867Y35286D1*
X5926Y35176D1*
X5962Y35057D1*
X5976Y34924D1*
X5964Y34800D1*
X5929Y34680D1*
X5872Y34569D1*
X5795Y34471D1*
X5700Y34389D1*
X5593Y34327D1*
X5475Y34286D1*
X5351Y34267D1*
X5226Y34273D1*
X5139Y34294D1*
X7798Y32299D2*
X7648Y32316D1*
X7530Y32358D1*
X7424Y32423D1*
X7332Y32508D1*
X7260Y32610D1*
X7210Y32724D1*
X7183Y32846D1*
X7181Y32971D1*
X7205Y33093D1*
X7252Y33209D1*
X7322Y33312D1*
X7411Y33400D1*
X7516Y33468D1*
X7632Y33513D1*
X7755Y33534D1*
X8468Y33536D1*
X8549Y33531D1*
X8670Y33502D1*
X8783Y33449D1*
X8884Y33375D1*
X8967Y33282D1*
X9030Y33175D1*
X9071Y33057D1*
X9087Y32917D1*
X9074Y32792D1*
X9037Y32673D1*
X8977Y32564D1*
X8896Y32469D1*
X8797Y32392D1*
X8686Y32337D1*
X8565Y32305D1*
X8468Y32297D1*
X7798Y32301D1*
Y34347D2*
X7648Y34363D1*
X7530Y34405D1*
X7424Y34470D1*
X7332Y34556D1*
X7260Y34657D1*
X7210Y34771D1*
X7183Y34893D1*
X7181Y35018D1*
X7205Y35141D1*
X7252Y35256D1*
X7322Y35360D1*
X7411Y35447D1*
X7516Y35515D1*
X7632Y35560D1*
X7755Y35582D1*
X8468Y35583D1*
X8549Y35578D1*
X8670Y35549D1*
X8783Y35497D1*
X8884Y35422D1*
X8967Y35330D1*
X9030Y35222D1*
X9071Y35104D1*
X9087Y34964D1*
X9074Y34840D1*
X9037Y34721D1*
X8977Y34611D1*
X8896Y34516D1*
X8797Y34440D1*
X8686Y34384D1*
X8565Y34352D1*
X8468Y34344D1*
X7798Y34348D1*
X8756Y23324D2*
X8714Y23207D1*
X8646Y23102D1*
X8556Y23015D1*
X8449Y22952D1*
X8330Y22914D1*
X8206Y22904D1*
X8083Y22923D1*
X7967Y22969D1*
X7865Y23040D1*
X7781Y23133D1*
X7721Y23243D1*
X7688Y23363D1*
X7682Y23487D1*
X7699Y23575D1*
X7601Y23655D1*
X7400Y23888D1*
X7295Y23907D1*
X7179Y23953D1*
X7077Y24025D1*
X6994Y24117D1*
X6934Y24227D1*
X6900Y24347D1*
X6895Y24472D1*
X6918Y24594D1*
X6969Y24708D1*
X7044Y24808D1*
X7140Y24888D1*
X7251Y24944D1*
X7372Y24973D1*
X7497Y24974D1*
X7619Y24946D1*
X7731Y24891D1*
X7830Y24810D1*
X7927Y24888D1*
X8038Y24944D1*
X8160Y24973D1*
X8284Y24974D1*
X8406Y24946D1*
X8518Y24891D1*
X8615Y24813D1*
X8691Y24714D1*
X8743Y24601D1*
X8770Y24432D1*
X8758Y24328D1*
X9879Y24325D1*
X10205Y24650D1*
X10224Y24817D1*
X10273Y24932D1*
X10349Y25031D1*
X10446Y25109D1*
X10559Y25162D1*
X10682Y25185D1*
X10806Y25178D1*
X10925Y25141D1*
X11032Y25076D1*
X11120Y24987D1*
X11183Y24880D1*
X11219Y24761D1*
X11226Y24675D1*
X11211Y24551D1*
X11166Y24435D1*
X11095Y24333D1*
X11039Y24284D1*
X11120Y24200D1*
X11183Y24093D1*
X11219Y23973D1*
X11226Y23888D1*
X11211Y23764D1*
X11166Y23647D1*
X11142Y23612D1*
X11226Y23611D1*
Y22589D1*
X10204D1*
Y23554D1*
X9995Y23545D1*
X8765D1*
X8770Y23448D1*
X8756Y23324D1*
X18595Y6940D2*
X19590D1*
Y5820D1*
X18470D1*
Y6940D1*
X18595D1*
X16365Y6930D2*
X17360D1*
Y5810D1*
X16240D1*
Y6930D1*
X16365D1*
X13095Y6566D2*
X13058Y6447D1*
X12997Y6338D1*
X12916Y6243D1*
X12817Y6167D1*
X12705Y6111D1*
X12585Y6080D1*
X12460Y6074D1*
X12337Y6092D1*
X12219Y6135D1*
X12113Y6201D1*
X12023Y6287D1*
X11951Y6389D1*
X11902Y6504D1*
X11876Y6626D1*
Y6751D1*
X11900Y6873D1*
X11949Y6988D1*
X12020Y7090D1*
X12110Y7177D1*
X12216Y7243D1*
X12333Y7287D1*
X12456Y7307D1*
X12581Y7301D1*
X12702Y7270D1*
X12814Y7216D1*
X12913Y7140D1*
X12995Y7046D1*
X13056Y6937D1*
X13094Y6818D1*
X13108Y6690D1*
X13095Y6566D1*
X11095D2*
X11058Y6447D1*
X10997Y6338D1*
X10916Y6243D1*
X10817Y6167D1*
X10705Y6111D1*
X10585Y6080D1*
X10460Y6074D1*
X10337Y6092D1*
X10219Y6135D1*
X10113Y6201D1*
X10023Y6287D1*
X9951Y6389D1*
X9902Y6504D1*
X9876Y6626D1*
Y6751D1*
X9900Y6873D1*
X9949Y6988D1*
X10020Y7090D1*
X10110Y7177D1*
X10216Y7243D1*
X10333Y7287D1*
X10456Y7307D1*
X10581Y7301D1*
X10702Y7270D1*
X10814Y7216D1*
X10913Y7140D1*
X10995Y7046D1*
X11056Y6937D1*
X11094Y6818D1*
X11108Y6690D1*
X11095Y6566D1*
X15073Y6266D2*
X15050Y6144D1*
X15011Y6025D1*
X14958Y5912D1*
X14891Y5806D1*
X14811Y5710D1*
X14720Y5625D1*
X14618Y5552D1*
X14509Y5492D1*
X14393Y5446D1*
X14271Y5415D1*
X14147Y5400D1*
X14023Y5401D1*
X13899Y5417D1*
X13778Y5448D1*
X13662Y5495D1*
X13553Y5556D1*
X13452Y5630D1*
X13361Y5716D1*
X13282Y5812D1*
X13216Y5918D1*
X13164Y6031D1*
X13126Y6150D1*
X13103Y6273D1*
X13096Y6398D1*
X13105Y6523D1*
X13129Y6645D1*
X13169Y6764D1*
X13223Y6876D1*
X13291Y6981D1*
X13371Y7077D1*
X13463Y7161D1*
X13565Y7234D1*
X13675Y7293D1*
X13791Y7338D1*
X13913Y7368D1*
X14037Y7382D1*
X14162Y7381D1*
X14285Y7364D1*
X14406Y7331D1*
X14522Y7284D1*
X14630Y7222D1*
X14731Y7148D1*
X14821Y7061D1*
X14899Y6964D1*
X14965Y6858D1*
X15016Y6744D1*
X15053Y6625D1*
X15075Y6501D1*
X15081Y6391D1*
X15073Y6266D1*
X9876D2*
X9853Y6144D1*
X9814Y6025D1*
X9761Y5912D1*
X9694Y5806D1*
X9614Y5710D1*
X9523Y5625D1*
X9422Y5552D1*
X9312Y5492D1*
X9196Y5446D1*
X9075Y5415D1*
X8951Y5400D1*
X8826Y5401D1*
X8702Y5417D1*
X8581Y5448D1*
X8465Y5495D1*
X8356Y5556D1*
X8255Y5630D1*
X8165Y5716D1*
X8085Y5812D1*
X8019Y5918D1*
X7967Y6031D1*
X7929Y6150D1*
X7906Y6273D1*
X7899Y6398D1*
X7908Y6523D1*
X7932Y6645D1*
X7972Y6764D1*
X8026Y6876D1*
X8094Y6981D1*
X8174Y7077D1*
X8266Y7161D1*
X8368Y7234D1*
X8478Y7293D1*
X8595Y7338D1*
X8716Y7368D1*
X8840Y7382D1*
X8965Y7381D1*
X9089Y7364D1*
X9209Y7331D1*
X9325Y7284D1*
X9434Y7222D1*
X9534Y7148D1*
X9624Y7061D1*
X9702Y6964D1*
X9768Y6858D1*
X9819Y6744D1*
X9856Y6625D1*
X9878Y6501D1*
X9884Y6391D1*
X9876Y6266D1*
X7811Y6315D2*
X7766Y6070D1*
X7677Y5836D1*
X7548Y5623D1*
X7382Y5436D1*
X7185Y5283D1*
X6964Y5167D1*
X6725Y5094D1*
X6477Y5064D1*
X6228Y5080D1*
X5986Y5141D1*
X5759Y5244D1*
X5554Y5387D1*
X5378Y5565D1*
X5237Y5771D1*
X5136Y5999D1*
X5078Y6242D1*
X5065Y6491D1*
X5097Y6739D1*
X5173Y6977D1*
X5291Y7197D1*
X5446Y7392D1*
X5634Y7556D1*
X5849Y7683D1*
X6084Y7769D1*
X6330Y7812D1*
X6579Y7809D1*
X6824Y7762D1*
X7057Y7671D1*
X7269Y7539D1*
X7454Y7371D1*
X7605Y7173D1*
X7718Y6950D1*
X7790Y6711D1*
X7816Y6463D1*
X7811Y6315D1*
Y41315D2*
X7766Y41070D1*
X7677Y40836D1*
X7548Y40623D1*
X7382Y40436D1*
X7185Y40283D1*
X6964Y40167D1*
X6725Y40094D1*
X6477Y40064D1*
X6228Y40080D1*
X5986Y40141D1*
X5759Y40244D1*
X5554Y40387D1*
X5378Y40565D1*
X5237Y40771D1*
X5136Y40999D1*
X5078Y41242D1*
X5065Y41491D1*
X5097Y41739D1*
X5173Y41977D1*
X5291Y42197D1*
X5446Y42392D1*
X5634Y42556D1*
X5849Y42683D1*
X6084Y42769D1*
X6330Y42812D1*
X6579Y42809D1*
X6824Y42762D1*
X7057Y42671D1*
X7269Y42539D1*
X7454Y42371D1*
X7605Y42173D1*
X7718Y41950D1*
X7790Y41711D1*
X7816Y41463D1*
X7811Y41315D1*
X27833Y31541D2*
X28351D1*
Y30519D1*
X28269D1*
X28308Y30448D1*
X28344Y30328D1*
X28351Y30243D1*
X28336Y30119D1*
X28291Y30003D1*
X28220Y29901D1*
X28164Y29852D1*
X28245Y29768D1*
X28308Y29661D1*
X28344Y29541D1*
X28351Y29455D1*
X28336Y29332D1*
X28291Y29215D1*
X28220Y29113D1*
X28164Y29065D1*
X28245Y28980D1*
X28308Y28873D1*
X28344Y28754D1*
X28351Y28668D1*
X28336Y28544D1*
X28291Y28428D1*
X28220Y28326D1*
X28126Y28244D1*
X28014Y28188D1*
X27893Y28160D1*
X27768Y28162D1*
X27648Y28194D1*
X27539Y28255D1*
X27448Y28340D1*
X27429Y28370D1*
X27328Y28371D1*
X27305Y28345D1*
Y28146D1*
X27387Y28155D1*
X27511Y28138D1*
X27624Y28085D1*
X27717Y28002D1*
X27781Y27896D1*
X27813Y27775D1*
X27815Y27732D1*
X27985Y27680D1*
X29903D1*
X29677Y27734D1*
X29574Y27804D1*
X29500Y27904D1*
X29462Y28023D1*
X29465Y28147D1*
X29509Y28263D1*
X29590Y28384D1*
X29676Y28466D1*
X29766Y28511D1*
X29865Y28525D1*
X31716D1*
Y28667D1*
X31681Y28759D1*
X31607Y28859D1*
X31580Y28944D1*
X31405Y29120D1*
X29596D1*
X29482Y29071D1*
X29357Y29062D1*
X29237Y29094D1*
X29134Y29164D1*
X29060Y29264D1*
X29022Y29383D1*
X29025Y29507D1*
X29069Y29623D1*
X29148Y29719D1*
X29255Y29784D1*
X29296Y29793D1*
X29237Y29814D1*
X29134Y29884D1*
X29060Y29984D1*
X29022Y30103D1*
X29025Y30227D1*
X29069Y30343D1*
X29148Y30439D1*
X29255Y30504D1*
X29376Y30530D1*
X29500Y30515D1*
X29614Y30458D1*
X30178Y30455D1*
X29733Y30900D1*
X29657Y30924D1*
X29554Y30994D1*
X29480Y31094D1*
X29442Y31213D1*
X29445Y31337D1*
X29489Y31453D1*
X29568Y31549D1*
X29675Y31614D1*
X29796Y31640D1*
X29920Y31625D1*
X30032Y31570D1*
X30119Y31482D1*
X30177Y31347D1*
X30829Y30695D1*
X32078D1*
X32031Y30715D1*
X31931Y30789D1*
X31856Y30888D1*
X31814Y31006D1*
X31807Y31130D1*
X31837Y31251D1*
X31900Y31358D1*
X31992Y31442D1*
X32104Y31496D1*
X32227Y31515D1*
X32351Y31498D1*
X32464Y31445D1*
X32557Y31362D1*
X32621Y31256D1*
X32636Y31199D1*
X32701Y31136D1*
X34124Y31135D1*
X34125Y34864D1*
X34001Y34905D1*
X33901Y34979D1*
X33826Y35078D1*
X33783Y35199D1*
X33667Y35155D1*
X33283Y34767D1*
X33180Y34699D1*
X33060Y34675D1*
X30798D1*
X27863Y31737D1*
X27847Y31587D1*
X27825Y31541D1*
X27454Y36741D2*
X28351D1*
Y35719D1*
X28269D1*
X28308Y35648D1*
X28344Y35528D1*
X28351Y35443D1*
X28336Y35319D1*
X28291Y35203D1*
X28220Y35101D1*
X28164Y35052D1*
X28245Y34968D1*
X28308Y34861D1*
X28344Y34741D1*
X28351Y34655D1*
X28336Y34532D1*
X28291Y34415D1*
X28220Y34313D1*
X28164Y34265D1*
X28245Y34180D1*
X28308Y34073D1*
X28344Y33954D1*
X28351Y33868D1*
X28336Y33744D1*
X28291Y33628D1*
X28220Y33526D1*
X28126Y33444D1*
X28014Y33388D1*
X27893Y33360D1*
X27768Y33362D1*
X27648Y33394D1*
X27519Y33474D1*
X27395Y33345D1*
Y33021D1*
X27427Y33025D1*
X27551Y33008D1*
X27664Y32955D1*
X27707Y32916D1*
X27893Y33088D1*
X30204Y35400D1*
X30121Y35435D1*
X30021Y35509D1*
X29946Y35608D1*
X29904Y35726D1*
X29901Y35768D1*
X29797Y35762D1*
X29677Y35794D1*
X29574Y35864D1*
X29500Y35964D1*
X29462Y36083D1*
X29465Y36207D1*
X29509Y36323D1*
X29526Y36344D1*
X29534Y36380D1*
X29580Y36470D1*
X29827Y36723D1*
X29931Y36792D1*
X30050Y36815D1*
X31681Y36819D1*
X31607Y36919D1*
X31580Y37004D1*
X31405Y37180D1*
X29596D1*
X29482Y37131D1*
X29357Y37122D1*
X29237Y37154D1*
X29134Y37224D1*
X29060Y37324D1*
X29022Y37443D1*
X29025Y37567D1*
X29069Y37683D1*
X29148Y37779D1*
X29255Y37844D1*
X29296Y37853D1*
X29237Y37874D1*
X29134Y37944D1*
X29060Y38044D1*
X29022Y38163D1*
X29025Y38287D1*
X29069Y38403D1*
X29148Y38499D1*
X29255Y38564D1*
X29376Y38590D1*
X29500Y38575D1*
X29614Y38518D1*
X30178Y38515D1*
X29733Y38960D1*
X29657Y38984D1*
X29554Y39054D1*
X29480Y39154D1*
X29442Y39273D1*
X29452Y39415D1*
X28390Y39412D1*
X15129Y39404D1*
X15134Y39374D1*
X15228Y39337D1*
X15284Y39356D1*
X15407Y39375D1*
X15531Y39358D1*
X15591Y39330D1*
X15674Y39366D1*
X15797Y39385D1*
X15921Y39368D1*
X16034Y39315D1*
X16127Y39232D1*
X16191Y39126D1*
X16223Y39005D1*
X16225Y38960D1*
X16207Y38837D1*
X16154Y38724D1*
X16070Y38632D1*
X15963Y38568D1*
X15843Y38537D1*
X15718Y38543D1*
X15619Y38578D1*
X15453Y38527D1*
X15425Y38529D1*
X17269Y36682D1*
X22045Y31906D1*
X23129D1*
X22742Y32292D1*
X22674Y32396D1*
X22650Y32515D1*
Y37707D1*
X21973Y37705D1*
X21853Y37628D1*
X21733Y37597D1*
X21608Y37603D1*
X21491Y37645D1*
X21391Y37719D1*
X21316Y37818D1*
X21274Y37936D1*
X21267Y38060D1*
X21297Y38181D1*
X21360Y38288D1*
X21452Y38372D1*
X21564Y38426D1*
X21687Y38445D1*
X21811Y38428D1*
X21924Y38375D1*
X21967Y38336D1*
X22860Y38335D1*
X23006Y38299D1*
X23102Y38273D1*
X23206Y38342D1*
X23325Y38365D1*
X23767D1*
X23812Y38402D1*
X23924Y38456D1*
X24047Y38475D1*
X24171Y38458D1*
X24284Y38405D1*
X24327Y38366D1*
X26163Y38365D1*
X26232Y38422D1*
X26344Y38476D1*
X26467Y38495D1*
X26591Y38478D1*
X26704Y38425D1*
X26797Y38342D1*
X26861Y38236D1*
X26893Y38115D1*
X26895Y38070D1*
X26877Y37947D1*
X26824Y37834D1*
X26740Y37742D1*
X26633Y37678D1*
X26513Y37647D1*
X26388Y37653D1*
X26271Y37695D1*
X26218Y37734D1*
X24337Y37735D1*
X24213Y37658D1*
X24093Y37627D1*
X23968Y37633D1*
X23851Y37675D1*
X23766Y37737D1*
X23484Y37735D1*
X23480Y36890D1*
Y32902D1*
X24678Y31708D1*
X24697Y31776D1*
X24760Y31883D1*
X24852Y31967D1*
X24964Y32021D1*
X25087Y32040D1*
X25211Y32023D1*
X25250Y32005D1*
X25289Y32021D1*
X25412Y32040D1*
X25536Y32023D1*
X25575Y32005D1*
X25614Y32021D1*
X25737Y32040D1*
X25861Y32023D1*
X25900Y32005D1*
X25939Y32021D1*
X26062Y32040D1*
X26186Y32023D1*
X26299Y31970D1*
X26348Y31926D1*
X26345Y32715D1*
Y34243D1*
X26374Y34367D1*
X26432Y34451D1*
X27335Y35355D1*
X27329Y35462D1*
X27349Y35585D1*
X27415Y35722D1*
X27329Y35719D1*
Y36741D1*
X27454D1*
X23818Y23426D2*
X24575D1*
Y22305D1*
X23455D1*
X23454Y22731D1*
X23330Y22855D1*
X23260Y22787D1*
X23153Y22723D1*
X23029Y22692D1*
X23025Y22435D1*
Y22252D1*
X23097Y22187D1*
X23161Y22081D1*
X23193Y21960D1*
X23195Y21915D1*
X23177Y21792D1*
X23124Y21679D1*
X23040Y21587D1*
X22933Y21523D1*
X22854Y21503D1*
X22881Y21456D1*
X22914Y21311D1*
X23693Y20533D1*
X23762Y20430D1*
X23785Y20310D1*
Y12744D1*
X25638Y10888D1*
X25707Y10785D1*
X25730Y10665D1*
Y10278D1*
X25767Y10237D1*
X25831Y10131D1*
X25863Y10010D1*
X25865Y9965D1*
X25847Y9842D1*
X25794Y9729D1*
X25710Y9637D1*
X25603Y9573D1*
X25483Y9542D1*
X25358Y9548D1*
X25241Y9590D1*
X25141Y9664D1*
X25066Y9763D1*
X25024Y9881D1*
X25017Y10005D1*
X25047Y10126D1*
X25100Y10216D1*
Y10532D1*
X23543Y12091D1*
X23545Y10270D1*
X23516Y10138D1*
X23465Y10020D1*
X23447Y9897D1*
X23394Y9784D1*
X23323Y9706D1*
X23488Y9537D1*
X23570Y9688D1*
X23662Y9772D1*
X23774Y9826D1*
X23897Y9845D1*
X24021Y9828D1*
X24134Y9775D1*
X24227Y9692D1*
X24291Y9586D1*
X24323Y9465D1*
X24325Y9420D1*
X24307Y9297D1*
X24254Y9184D1*
X24170Y9092D1*
X24063Y9028D1*
X24014Y9015D1*
X24662Y8364D1*
X24820Y8206D1*
X25178Y8205D1*
X25121Y8288D1*
X25079Y8406D1*
X25072Y8530D1*
X25102Y8651D1*
X25165Y8758D1*
X25257Y8842D1*
X25369Y8896D1*
X25492Y8915D1*
X25616Y8898D1*
X25729Y8845D1*
X25822Y8762D1*
X25886Y8656D1*
X25918Y8535D1*
X25920Y8490D1*
X25902Y8367D1*
X25849Y8254D1*
X25804Y8205D1*
X30507D1*
X30467Y8311D1*
X30460Y8435D1*
X30490Y8556D1*
X30553Y8663D1*
X30645Y8747D1*
X30758Y8801D1*
X30881Y8820D1*
X31004Y8803D1*
X31050Y8782D1*
X31118Y8811D1*
X31241Y8830D1*
X31364Y8813D1*
X31424Y8785D1*
X31488Y8811D1*
X31611Y8830D1*
X31734Y8813D1*
X31847Y8761D1*
X31940Y8678D1*
X32005Y8571D1*
X32036Y8451D1*
X32038Y8405D1*
X32020Y8282D1*
X31985Y8208D1*
X32940Y8205D1*
X33500D1*
X33622Y8181D1*
X33723Y8113D1*
X34146Y7690D1*
X34125Y7790D1*
Y10841D1*
X33991Y10885D1*
X33891Y10959D1*
X33816Y11058D1*
X33773Y11179D1*
X33687Y11155D1*
X33503Y10967D1*
X33400Y10899D1*
X33280Y10875D1*
X30040D1*
X29918Y10900D1*
X29817Y10967D1*
X28192Y12592D1*
X28124Y12696D1*
X28100Y12815D1*
Y23327D1*
X28066Y23340D1*
X27966Y23414D1*
X27891Y23513D1*
X27849Y23631D1*
X27842Y23755D1*
X27872Y23876D1*
X27905Y23933D1*
X27849Y24081D1*
X27842Y24205D1*
X27872Y24326D1*
X27913Y24396D1*
X27849Y24556D1*
X27842Y24680D1*
X27872Y24801D1*
X27929Y24898D1*
X27919Y24936D1*
X27912Y25060D1*
X27942Y25181D1*
X28005Y25288D1*
X28097Y25372D1*
X28209Y25426D1*
X28332Y25445D1*
X28456Y25428D1*
X28569Y25375D1*
X28662Y25292D1*
X28726Y25186D1*
X28759Y25041D1*
X29288Y24513D1*
X29357Y24410D1*
X29380Y24290D1*
Y22552D1*
X29487Y22534D1*
X29602Y22477D1*
X30165Y22474D1*
X29720Y22920D1*
X29645Y22944D1*
X29542Y23014D1*
X29467Y23113D1*
X29429Y23232D1*
X29433Y23356D1*
X29476Y23473D1*
X29556Y23569D1*
X29662Y23633D1*
X29783Y23659D1*
X29907Y23644D1*
X30019Y23590D1*
X30107Y23502D1*
X30164Y23367D1*
X30816Y22715D1*
X32065Y22714D1*
X32018Y22734D1*
X31918Y22808D1*
X31843Y22908D1*
X31801Y23025D1*
X31794Y23149D1*
X31824Y23270D1*
X31887Y23377D1*
X31979Y23461D1*
X32092Y23515D1*
X32215Y23534D1*
X32338Y23517D1*
X32451Y23465D1*
X32544Y23382D1*
X32609Y23275D1*
X32623Y23219D1*
X32688Y23155D1*
X34127Y23154D1*
X34125Y24665D1*
Y26802D1*
X34001Y26845D1*
X33901Y26919D1*
X33826Y27018D1*
X33793Y27110D1*
X33698Y27076D1*
X33563Y27070D1*
X33433Y26937D1*
X33330Y26869D1*
X33210Y26845D1*
X27698D1*
X27796Y26751D1*
X27908Y26695D1*
X27996Y26607D1*
X28050Y26495D1*
X28065Y26390D1*
X28045Y26267D1*
X28031Y26244D1*
X28050Y26195D1*
X28065Y26090D1*
X28045Y25967D1*
X28028Y25937D1*
X28055Y25790D1*
X28035Y25667D1*
X27975Y25558D1*
X27883Y25475D1*
X27768Y25426D1*
X27679Y25419D1*
X27615Y25298D1*
X27531Y25222D1*
X27515Y25157D1*
X27455Y25048D1*
X27363Y24965D1*
X27248Y24916D1*
X27124Y24907D1*
X27004Y24939D1*
X26901Y25009D1*
X26827Y25109D1*
X26803Y25160D1*
X25801Y26163D1*
X23774Y24139D1*
X23827Y24082D1*
X23891Y23976D1*
X23923Y23855D1*
X23925Y23810D1*
X23907Y23687D1*
X23854Y23574D1*
X23815Y23531D1*
Y23423D1*
X12955Y14455D2*
X13165D1*
Y13335D1*
X12943D1*
X12924Y13204D1*
X13653Y13205D1*
X13797Y13353D1*
X13901Y13422D1*
X14020Y13445D1*
X14274D1*
X14172Y13540D1*
X14104Y13644D1*
X14061Y13761D1*
X14045Y13885D1*
X14056Y13998D1*
X13817Y14237D1*
X13745Y14352D1*
X13610Y14335D1*
X13486Y14348D1*
X13368Y14388D1*
X13262Y14453D1*
X13172Y14540D1*
X13106Y14641D1*
X13045Y14548D1*
X12953Y14457D1*
X13320Y15374D2*
X13466Y15438D1*
X13590Y15455D1*
X13714Y15445D1*
X13833Y15407D1*
X13917Y15358D1*
X14538Y15984D1*
X13927Y15985D1*
X13324Y15379D1*
X14843Y15401D2*
X14941Y15344D1*
X15032Y15258D1*
X15073Y15197D1*
X15075Y15340D1*
X15100Y15462D1*
X15167Y15563D1*
X15220Y15615D1*
X15217Y15700D1*
X15238Y15787D1*
X14845Y15400D1*
X19134Y15881D2*
X19622D1*
X19625Y16253D1*
X19481Y16218D1*
X19434Y16114D1*
X19350Y16022D1*
X19243Y15958D1*
X19123Y15927D1*
X18998Y15933D1*
X18881Y15975D1*
X18781Y16049D1*
X18746Y16095D1*
X18188D1*
X17219Y15124D1*
X17277Y15072D1*
X17341Y14966D1*
X17373Y14845D1*
X17375Y14800D1*
X17357Y14677D1*
X17304Y14564D1*
X17220Y14472D1*
X17113Y14408D1*
X16993Y14377D1*
X16942Y14380D1*
X16945Y13730D1*
Y13350D1*
X16921Y13228D1*
X16853Y13127D1*
X15542Y11812D1*
X15606Y11706D1*
X15637Y11589D1*
X16219Y12176D1*
X18834Y14791D1*
X18942Y14859D1*
X18993Y14873D1*
X19009Y14984D1*
Y15881D1*
X19134D1*
X20016Y13672D2*
X19971Y13555D1*
X19900Y13453D1*
X19806Y13371D1*
X19694Y13315D1*
X19573Y13287D1*
X19448Y13289D1*
X19328Y13322D1*
X19219Y13383D1*
X19128Y13468D1*
X19109Y13497D1*
X18776Y13498D1*
X16109Y10832D1*
X16001Y10764D1*
X15900Y10745D1*
X15303D1*
X15304Y10701D1*
X16531Y9475D1*
X18138D1*
X18332Y9667D1*
X18278Y9673D1*
X18161Y9715D1*
X18061Y9789D1*
X17986Y9888D1*
X17944Y10006D1*
X17937Y10130D1*
X17967Y10251D1*
X18030Y10358D1*
X18122Y10442D1*
X18234Y10496D1*
X18357Y10515D1*
X18481Y10498D1*
X18594Y10445D1*
X18687Y10362D1*
X18751Y10256D1*
X18784Y10120D1*
X21276Y12612D1*
X21275Y16351D1*
X19138Y18486D1*
X19131Y18377D1*
X20359Y17149D1*
X20427Y17041D1*
X20445Y16940D1*
Y14425D1*
X20417Y14301D1*
X20359Y14217D1*
X20024Y13881D1*
X20031Y13795D1*
X20016Y13672D1*
X33382Y35826D2*
X33451Y35869D1*
X33573Y35895D1*
X33697Y35880D1*
X33808Y35825D1*
X33896Y35737D1*
X33951Y35622D1*
X34074Y35686D1*
X34124Y35694D1*
X34125Y38466D1*
X33905Y38465D1*
X33885Y38317D1*
X33825Y38208D1*
X33733Y38125D1*
X33618Y38076D1*
X33494Y38067D1*
X33374Y38099D1*
X33339Y38123D1*
X31839Y38125D1*
X32198Y37768D1*
X32338Y37705D1*
X32426Y37617D1*
X32480Y37505D1*
X32495Y37400D1*
X32475Y37277D1*
X32417Y37172D1*
X32486Y37097D1*
X32540Y36985D1*
X32555Y36880D1*
X32535Y36757D1*
X32475Y36648D1*
X32386Y36567D1*
X32430Y36425D1*
X32445Y36320D1*
X32425Y36197D1*
X32370Y36099D1*
X33015Y36100D1*
X33137Y36076D1*
X33238Y36008D1*
X33358Y35876D1*
X33320Y35924D1*
X33186Y36050D1*
X33238Y36008D1*
X31772Y36102D2*
X31737Y36149D1*
X31726Y36182D1*
X31720Y36100D1*
X31763D1*
X31640Y36185D1*
X30519D1*
X30626Y36100D1*
X31720D1*
X32086Y38755D2*
X32031Y38775D1*
X31931Y38849D1*
X31856Y38948D1*
X31814Y39066D1*
X31807Y39190D1*
X31837Y39311D1*
X31898Y39415D1*
X30175Y39413D1*
X30829Y38755D1*
X32078D1*
X32563Y39412D2*
X32621Y39316D1*
X32636Y39259D1*
X32701Y39196D1*
X34124Y39195D1*
X34125Y39411D1*
X33265Y39415D1*
X32566Y39414D1*
X29496Y37856D2*
X29594Y37809D1*
X31264Y37810D1*
X31188Y37887D1*
X29574Y37885D1*
X14376Y39095D2*
X14336Y39148D1*
X14294Y39266D1*
X14290Y39401D1*
X12765Y39403D1*
X9261Y39400D1*
X9273Y39269D1*
X9354Y39296D1*
X9477Y39315D1*
X9601Y39298D1*
X9668Y39267D1*
X9744Y39296D1*
X9867Y39315D1*
X9991Y39298D1*
X10104Y39245D1*
X10197Y39162D1*
X10261Y39056D1*
X10293Y38935D1*
X10295Y38890D1*
X10277Y38767D1*
X10224Y38654D1*
X10140Y38562D1*
X10033Y38498D1*
X9913Y38467D1*
X9788Y38473D1*
X9675Y38513D1*
X9523Y38467D1*
X9425Y38472D1*
X10729Y37172D1*
X11196Y36705D1*
X14865D1*
X14987Y36681D1*
X15088Y36613D1*
X20167Y31533D1*
X21523Y31535D1*
X15026Y38034D1*
X14942Y38092D1*
X14467Y38567D1*
X14399Y38671D1*
X14375Y38790D1*
Y39091D1*
X31080Y32037D2*
X31057Y32023D1*
X30936Y31993D1*
X30811Y31998D1*
X30694Y32040D1*
X30594Y32114D1*
X30519Y32214D1*
X30477Y32331D1*
X30470Y32455D1*
X30500Y32576D1*
X30563Y32683D1*
X30655Y32767D1*
X30768Y32821D1*
X30891Y32840D1*
X31014Y32823D1*
X31060Y32802D1*
X31128Y32831D1*
X31251Y32850D1*
X31374Y32833D1*
X31434Y32805D1*
X31498Y32831D1*
X31621Y32850D1*
X31744Y32833D1*
X31857Y32781D1*
X31950Y32698D1*
X32015Y32591D1*
X32046Y32471D1*
X32048Y32425D1*
X32030Y32302D1*
X31977Y32190D1*
X31893Y32097D1*
X31787Y32033D1*
X31666Y32003D1*
X31541Y32008D1*
X31442Y32044D1*
X31296Y32003D1*
X31171Y32008D1*
X31087Y32038D1*
X33388Y27738D2*
X33471Y27789D1*
X33593Y27815D1*
X33717Y27800D1*
X33828Y27745D1*
X33916Y27657D1*
X33962Y27572D1*
X34074Y27626D1*
X34124Y27634D1*
X34125Y30403D1*
X33905Y30405D1*
X33885Y30257D1*
X33825Y30148D1*
X33733Y30065D1*
X33618Y30016D1*
X33494Y30007D1*
X33374Y30039D1*
X33339Y30063D1*
X31839Y30065D1*
X32203Y29703D1*
X32287Y29690D1*
X32398Y29635D1*
X32486Y29547D1*
X32540Y29435D1*
X32555Y29330D1*
X32535Y29207D1*
X32475Y29098D1*
X32432Y29059D1*
X32466Y29017D1*
X32520Y28905D1*
X32535Y28800D1*
X32515Y28677D1*
X32455Y28568D1*
X32345Y28477D1*
Y28416D1*
X32390Y28315D1*
X32405Y28210D1*
X32385Y28087D1*
X32360Y28043D1*
X33015Y28040D1*
X33137Y28016D1*
X33238Y27948D1*
X33342Y27835D1*
X33375Y27769D1*
X29496Y29796D2*
X29594Y29749D1*
X31264Y29750D1*
X31192Y29823D1*
X29574Y29825D1*
X31080Y23977D2*
X31057Y23963D1*
X30936Y23933D1*
X30811Y23938D1*
X30694Y23980D1*
X30594Y24054D1*
X30519Y24154D1*
X30477Y24271D1*
X30470Y24395D1*
X30500Y24516D1*
X30563Y24623D1*
X30655Y24707D1*
X30768Y24761D1*
X30891Y24780D1*
X31014Y24763D1*
X31060Y24742D1*
X31128Y24771D1*
X31251Y24790D1*
X31374Y24773D1*
X31434Y24745D1*
X31498Y24771D1*
X31621Y24790D1*
X31744Y24773D1*
X31857Y24721D1*
X31950Y24638D1*
X32015Y24531D1*
X32046Y24411D1*
X32048Y24365D1*
X32030Y24242D1*
X31977Y24130D1*
X31893Y24037D1*
X31787Y23973D1*
X31666Y23943D1*
X31541Y23948D1*
X31442Y23984D1*
X31296Y23943D1*
X31171Y23948D1*
X31087Y23978D1*
X33772Y19149D2*
X33707Y19125D1*
X33553Y18967D1*
X33450Y18899D1*
X33330Y18875D1*
X29815D1*
X29693Y18900D1*
X29592Y18967D1*
X28932Y19628D1*
X28930Y16790D1*
Y13044D1*
X29578Y12399D1*
X29641Y12438D1*
X29967Y12763D1*
X30071Y12832D1*
X30190Y12855D1*
X31577D1*
X31530Y12979D1*
X31350Y13160D1*
X29586D1*
X29472Y13111D1*
X29347Y13102D1*
X29227Y13134D1*
X29124Y13204D1*
X29050Y13304D1*
X29012Y13423D1*
X29015Y13547D1*
X29059Y13663D1*
X29138Y13759D1*
X29245Y13824D1*
X29286Y13833D1*
X29227Y13854D1*
X29124Y13924D1*
X29050Y14024D1*
X29012Y14143D1*
X29015Y14267D1*
X29059Y14383D1*
X29138Y14479D1*
X29245Y14544D1*
X29366Y14570D1*
X29490Y14555D1*
X29604Y14498D1*
X30098Y14495D1*
X29615Y14981D1*
X29544Y15034D1*
X29470Y15134D1*
X29432Y15253D1*
X29435Y15377D1*
X29479Y15493D1*
X29558Y15589D1*
X29665Y15654D1*
X29786Y15680D1*
X29910Y15665D1*
X30022Y15610D1*
X30109Y15522D1*
X30163Y15410D1*
X30173Y15341D1*
X30749Y14766D1*
X32002Y14765D1*
X31921Y14829D1*
X31846Y14928D1*
X31804Y15046D1*
X31797Y15170D1*
X31827Y15291D1*
X31890Y15398D1*
X31982Y15482D1*
X32094Y15536D1*
X32217Y15555D1*
X32341Y15538D1*
X32454Y15485D1*
X32547Y15402D1*
X32611Y15296D1*
X32626Y15239D1*
X32691Y15176D1*
X34122Y15175D1*
X34125Y16540D1*
Y18818D1*
X33988Y18864D1*
X33888Y18938D1*
X33813Y19038D1*
X33775Y19144D1*
X33353Y19735D2*
X33385Y19774D1*
X33491Y19839D1*
X33613Y19865D1*
X33737Y19850D1*
X33848Y19795D1*
X33936Y19707D1*
X33982Y19612D1*
X34062Y19645D1*
X34127Y19656D1*
X34125Y22165D1*
Y22427D1*
X33892Y22424D1*
X33872Y22277D1*
X33812Y22168D1*
X33720Y22084D1*
X33606Y22035D1*
X33482Y22026D1*
X33361Y22058D1*
X33326Y22082D1*
X31826Y22084D1*
X32201Y21711D1*
X32267Y21700D1*
X32378Y21645D1*
X32466Y21557D1*
X32520Y21445D1*
X32535Y21340D1*
X32515Y21217D1*
X32455Y21108D1*
X32423Y21080D1*
X32466Y21027D1*
X32520Y20915D1*
X32535Y20810D1*
X32515Y20687D1*
X32455Y20578D1*
X32383Y20513D1*
X32385Y20466D1*
X32430Y20365D1*
X32445Y20260D1*
X32425Y20137D1*
X32382Y20059D1*
X33002Y20060D1*
X33124Y20035D1*
X33225Y19967D1*
X33307Y19873D1*
X33348Y19774D1*
X33335Y19815D1*
X31749Y20724D2*
X31668Y20778D1*
X31594Y20878D1*
X31567Y20963D1*
X31393Y21139D1*
X29583D1*
X29469Y21090D1*
X29380Y21084D1*
Y20419D1*
X29506Y20295D1*
X29568Y20433D1*
X29762Y20633D1*
X29866Y20702D1*
X29985Y20725D1*
X31739D1*
X29483Y21815D2*
X29581Y21768D1*
X31252Y21770D1*
X31178Y21844D1*
X29561D1*
X31067Y15996D2*
X31044Y15982D1*
X30923Y15952D1*
X30799Y15958D1*
X30681Y15999D1*
X30581Y16073D1*
X30507Y16173D1*
X30464Y16290D1*
X30457Y16415D1*
X30487Y16535D1*
X30551Y16643D1*
X30643Y16727D1*
X30755Y16781D1*
X30878Y16800D1*
X31001Y16782D1*
X31047Y16761D1*
X31115Y16791D1*
X31238Y16810D1*
X31361Y16792D1*
X31421Y16764D1*
X31485Y16791D1*
X31608Y16810D1*
X31731Y16792D1*
X31844Y16740D1*
X31937Y16657D1*
X32002Y16551D1*
X32033Y16430D1*
X32036Y16385D1*
X32017Y16262D1*
X31964Y16149D1*
X31881Y16057D1*
X31774Y15992D1*
X31653Y15962D1*
X31529Y15968D1*
X31430Y16003D1*
X31283Y15962D1*
X31159Y15968D1*
X31074Y15998D1*
X33382Y11814D2*
X33471Y11869D1*
X33593Y11895D1*
X33717Y11880D1*
X33828Y11825D1*
X33916Y11737D1*
X33971Y11622D1*
X34064Y11666D1*
X34122Y11675D1*
X34125Y12915D1*
Y14443D1*
X33903Y14445D1*
X33905Y14410D1*
X33885Y14287D1*
X33825Y14178D1*
X33733Y14095D1*
X33618Y14046D1*
X33494Y14037D1*
X33374Y14069D1*
X33307Y14115D1*
X31817D1*
X32292Y13643D1*
X32383Y13595D1*
X32471Y13507D1*
X32525Y13395D1*
X32540Y13290D1*
X32520Y13167D1*
X32465Y13069D1*
X32525Y12945D1*
X32540Y12840D1*
X32520Y12717D1*
X32460Y12608D1*
X32422Y12574D1*
X32470Y12465D1*
X32485Y12360D1*
X32465Y12237D1*
X32405Y12128D1*
X32350Y12079D1*
X33005Y12080D1*
X33127Y12056D1*
X33228Y11988D1*
X33323Y11893D1*
X33378Y11819D1*
X33357Y11851D1*
X31861Y12082D2*
X31777Y12189D1*
X31766Y12222D1*
X30805Y12225D1*
X30317D1*
X30431Y12198D1*
X30544Y12145D1*
X30616Y12080D1*
X31862D1*
X29486Y13836D2*
X29584Y13789D1*
X31254Y13790D1*
X31177Y13868D1*
X29564Y13865D1*
X5870Y14156D2*
X5814Y14024D1*
X5730Y13932D1*
X5623Y13868D1*
X5503Y13837D1*
X5378Y13843D1*
X5261Y13885D1*
X5161Y13959D1*
X5086Y14058D1*
X5044Y14176D1*
X5037Y14300D1*
X5067Y14421D1*
X5130Y14528D1*
X5222Y14612D1*
X5334Y14666D1*
X5385Y14680D1*
Y16512D1*
X5297Y16500D1*
X5173Y16507D1*
X5054Y16543D1*
X4947Y16608D1*
X4860Y16698D1*
X4798Y16806D1*
X4764Y16926D1*
X4761Y17050D1*
X4789Y17172D1*
X4846Y17283D1*
X4929Y17376D1*
X5032Y17446D1*
X5149Y17489D1*
X5273Y17501D1*
X5396Y17482D1*
X5511Y17434D1*
X5611Y17359D1*
X5688Y17261D1*
X5744Y17120D1*
X6154Y17530D1*
X6187Y17671D1*
X6250Y17778D1*
X6342Y17862D1*
X6454Y17916D1*
X6577Y17935D1*
X6701Y17918D1*
X6814Y17865D1*
X6907Y17782D1*
X6971Y17676D1*
X7003Y17555D1*
X7005Y17510D1*
X6987Y17387D1*
X6934Y17274D1*
X6850Y17182D1*
X6743Y17118D1*
X6603Y17088D1*
X6016Y16500D1*
X6015Y14430D1*
X5991Y14308D1*
X5923Y14207D1*
X5870Y14155D1*
X19192Y16974D2*
X19230Y17001D1*
X18977Y17258D1*
X18736Y17507D1*
X17855Y18388D1*
X17761Y18459D1*
X17707Y18530D1*
X17705Y17590D1*
X17681Y17468D1*
X17613Y17367D1*
X16114Y15870D1*
X16063Y15705D1*
X16065Y15660D1*
X16047Y15537D1*
X15994Y15424D1*
X15910Y15332D1*
X15803Y15268D1*
X15747Y15253D1*
X15705Y15090D1*
Y13391D1*
X16094Y13780D1*
X16095Y15070D1*
X16120Y15192D1*
X16187Y15293D1*
X17777Y16883D1*
X17881Y16952D1*
X18000Y16975D1*
X19192D1*
X16816Y19033D2*
X16799Y19081D1*
X16792Y19205D1*
X16822Y19326D1*
X16875Y19416D1*
X16305Y19415D1*
X16356Y19331D1*
X16388Y19210D1*
X16390Y19165D1*
X16372Y19042D1*
X16319Y18929D1*
X16235Y18837D1*
X16128Y18773D1*
X16008Y18742D1*
X15955Y18740D1*
Y16908D1*
X16813Y17769D1*
X16815Y19019D1*
X25900Y30897D2*
X25783Y30867D1*
X25658Y30873D1*
X25581Y30900D1*
X25598Y30788D1*
X25893Y30493D1*
X25962Y30390D1*
X25985Y30270D1*
X25987Y30104D1*
X26345Y30465D1*
Y30969D1*
X26228Y30898D1*
X26108Y30867D1*
X25983Y30873D1*
X25906Y30900D1*
X14568Y26040D2*
X14641Y25926D1*
X14673Y25805D1*
X14664Y25687D1*
X15483Y25685D1*
X15417Y25747D1*
X15349Y25851D1*
X15325Y25970D1*
Y26412D1*
X15291Y26463D1*
X15249Y26581D1*
X15242Y26705D1*
X15272Y26826D1*
X15335Y26933D1*
X15427Y27017D1*
X15539Y27071D1*
X15582Y27078D1*
X15635Y27158D1*
X15727Y27242D1*
X15839Y27296D1*
X15962Y27315D1*
X16086Y27298D1*
X16199Y27245D1*
X16292Y27162D1*
X16356Y27056D1*
X16377Y26977D1*
X16435Y26951D1*
X16471Y26969D1*
X16593Y26995D1*
X16717Y26980D1*
X16769Y26954D1*
X16903Y26985D1*
X17027Y26970D1*
X17072Y26948D1*
X17213Y26985D1*
X17337Y26970D1*
X17382Y26948D1*
X17533Y26985D1*
X17657Y26970D1*
X17709Y26944D1*
X17843Y26975D1*
X17967Y26960D1*
X18078Y26905D1*
X18166Y26817D1*
X18220Y26705D1*
X18232Y26623D1*
X18720Y26625D1*
X18845Y26597D1*
X18929Y26539D1*
X19103Y26365D1*
X19100Y27540D1*
Y27685D1*
X18808Y27976D1*
X14694Y27975D1*
X14564Y27844D1*
X14565Y26042D1*
X18922Y27092D2*
X18869Y26979D1*
X18785Y26887D1*
X18678Y26823D1*
X18558Y26792D1*
X18433Y26798D1*
X18316Y26840D1*
X18216Y26914D1*
X18141Y27013D1*
X18099Y27131D1*
X18092Y27255D1*
X18122Y27376D1*
X18185Y27483D1*
X18277Y27567D1*
X18389Y27621D1*
X18512Y27640D1*
X18636Y27623D1*
X18749Y27570D1*
X18842Y27487D1*
X18906Y27381D1*
X18938Y27260D1*
X18940Y27215D1*
X18922Y27092D1*
X22000Y22435D2*
X21916Y22465D1*
X21816Y22539D1*
X21741Y22638D1*
X21699Y22756D1*
X21692Y22880D1*
X21722Y23001D1*
X21800Y23121D1*
Y24344D1*
X21499Y24042D1*
X21391Y23974D1*
X21290Y23955D1*
X19390D1*
X19266Y23984D1*
X19182Y24042D1*
X18155Y25065D1*
X17540D1*
X17416Y25094D1*
X17332Y25152D1*
X16307Y26176D1*
X16305Y26083D1*
X20809Y21577D1*
X21488Y20898D1*
X21560Y20784D1*
X21686Y20748D1*
X21799Y20695D1*
X21892Y20612D1*
X21956Y20506D1*
X21988Y20385D1*
X21990Y20340D1*
X21972Y20217D1*
X21919Y20104D1*
X21880Y20061D1*
X21917Y19985D1*
X22041Y19968D1*
X22154Y19915D1*
X22247Y19832D1*
X22311Y19726D1*
X22343Y19605D1*
X22345Y19560D1*
X22327Y19437D1*
X22274Y19324D1*
X22166Y19203D1*
X22086Y19132D1*
X21984Y19092D1*
X22032Y19106D1*
X21920Y19085D1*
X21252D1*
X22913Y17423D1*
X22915Y19766D1*
X21917Y20767D1*
X21849Y20871D1*
X21825Y20990D1*
Y21314D1*
X21766Y21399D1*
X21724Y21516D1*
X21717Y21640D1*
X21747Y21761D1*
X21810Y21869D1*
X21902Y21953D1*
X22014Y22007D1*
X22137Y22026D1*
X22261Y22008D1*
X22349Y21967D1*
X22387Y22093D1*
X22333Y22098D1*
X22216Y22140D1*
X22116Y22214D1*
X22041Y22313D1*
X21998Y22434D1*
X19572Y9027D2*
X19519Y8914D1*
X19435Y8822D1*
X19392Y8796D1*
X19885Y8795D1*
X19864Y8876D1*
X19857Y9000D1*
X19887Y9121D1*
X19950Y9228D1*
X20042Y9312D1*
X20154Y9366D1*
X20277Y9385D1*
X20401Y9368D1*
X20514Y9315D1*
X20607Y9232D1*
X20671Y9126D1*
X20703Y9005D1*
X20705Y8960D1*
X20687Y8837D1*
X20669Y8798D1*
X21268Y8795D1*
X21312Y8832D1*
X21424Y8886D1*
X21528Y8902D1*
X21525Y9610D1*
X21441Y9645D1*
X21341Y9719D1*
X21266Y9818D1*
X21224Y9936D1*
X21217Y10060D1*
X21247Y10181D1*
X21310Y10288D1*
X21402Y10372D1*
X21514Y10426D1*
X21637Y10445D1*
X21764Y10426D1*
X21765Y11830D1*
X19424Y9489D1*
X19492Y9422D1*
X19556Y9316D1*
X19588Y9195D1*
X19590Y9150D1*
X19572Y9027D1*
X34607Y6277D2*
X34554Y6164D1*
X34470Y6072D1*
X34363Y6008D1*
X34243Y5977D1*
X34118Y5983D1*
X34001Y6025D1*
X33901Y6099D1*
X33826Y6198D1*
X33784Y6316D1*
X33777Y6440D1*
X33807Y6561D1*
X33870Y6668D1*
X33962Y6752D1*
X34074Y6806D1*
X34197Y6825D1*
X34321Y6808D1*
X34434Y6755D1*
X34527Y6672D1*
X34591Y6566D1*
X34623Y6445D1*
X34625Y6400D1*
X34607Y6277D1*
X28387Y8897D2*
X28334Y8784D1*
X28250Y8692D1*
X28143Y8628D1*
X28023Y8597D1*
X27898Y8603D1*
X27781Y8645D1*
X27681Y8719D1*
X27664Y8740D1*
X27563Y8678D1*
X27443Y8647D1*
X27318Y8653D1*
X27201Y8695D1*
X27101Y8769D1*
X27026Y8868D1*
X26984Y8986D1*
X26977Y9110D1*
X27007Y9231D1*
X27070Y9338D1*
X27162Y9422D1*
X27274Y9476D1*
X27397Y9495D1*
X27521Y9478D1*
X27634Y9425D1*
X27718Y9350D1*
X27742Y9372D1*
X27854Y9426D1*
X27977Y9445D1*
X28101Y9428D1*
X28214Y9375D1*
X28307Y9292D1*
X28371Y9186D1*
X28403Y9065D1*
X28405Y9020D1*
X28387Y8897D1*
X25697Y23692D2*
X25644Y23579D1*
X25560Y23487D1*
X25453Y23423D1*
X25333Y23392D1*
X25208Y23398D1*
X25091Y23440D1*
X24991Y23514D1*
X24916Y23613D1*
X24874Y23731D1*
X24867Y23855D1*
X24897Y23976D1*
X24960Y24083D1*
X25052Y24167D1*
X25164Y24221D1*
X25287Y24240D1*
X25411Y24223D1*
X25524Y24170D1*
X25617Y24087D1*
X25681Y23981D1*
X25713Y23860D1*
X25715Y23815D1*
X25697Y23692D1*
X14583Y19695D2*
X14654Y19584D1*
X14688Y19636D1*
X14685Y19710D1*
X14710Y19832D1*
X14777Y19933D1*
X15057Y20213D1*
X15161Y20282D1*
X15280Y20305D1*
X18776D1*
X18631Y20454D1*
X18444Y20452D1*
X18322Y20476D1*
X18221Y20544D1*
X16572Y22193D1*
X14126Y22195D1*
X14488Y21838D1*
X14557Y21735D1*
X14580Y21615D1*
Y19697D1*
X14685Y19718D1*
X14713Y19839D1*
X14777Y19933D1*
X12694Y26463D2*
X12735Y26533D1*
X12827Y26617D1*
X12939Y26671D1*
X13062Y26690D1*
X13136Y26680D1*
X13135Y27543D1*
X12657Y28017D1*
X12589Y28121D1*
X12565Y28240D1*
Y30322D1*
X12445Y30440D1*
X12383Y30448D1*
X12256Y30497D1*
X12255Y26898D1*
X12690Y26465D1*
X26207Y25177D2*
X26154Y25064D1*
X26070Y24972D1*
X25963Y24908D1*
X25843Y24877D1*
X25718Y24883D1*
X25601Y24925D1*
X25501Y24999D1*
X25426Y25098D1*
X25384Y25216D1*
X25377Y25340D1*
X25407Y25461D1*
X25470Y25568D1*
X25562Y25652D1*
X25674Y25706D1*
X25797Y25725D1*
X25921Y25708D1*
X26034Y25655D1*
X26127Y25572D1*
X26191Y25466D1*
X26223Y25345D1*
X26225Y25300D1*
X26207Y25177D1*
X15022Y17917D2*
X14969Y17804D1*
X14885Y17712D1*
X14778Y17648D1*
X14658Y17617D1*
X14533Y17623D1*
X14416Y17665D1*
X14316Y17739D1*
X14241Y17838D1*
X14199Y17956D1*
X14192Y18080D1*
X14222Y18201D1*
X14285Y18308D1*
X14377Y18392D1*
X14489Y18446D1*
X14612Y18465D1*
X14736Y18448D1*
X14849Y18395D1*
X14942Y18312D1*
X15006Y18206D1*
X15038Y18085D1*
X15040Y18040D1*
X15022Y17917D1*
X13524Y23599D2*
X13649Y23545D1*
X13742Y23462D1*
X13806Y23356D1*
X13838Y23235D1*
X13836Y23163D1*
X16505Y23165D1*
X16720D1*
X16842Y23141D1*
X16943Y23073D1*
X18647Y21369D1*
X18837Y21368D1*
X18959Y21344D1*
X19060Y21276D1*
X20035Y20301D1*
Y20441D1*
X15694Y24781D1*
X13612Y24783D1*
X13487Y24810D1*
X13485Y23640D1*
X9277Y9277D2*
X9224Y9164D1*
X9140Y9072D1*
X9033Y9008D1*
X8913Y8977D1*
X8788Y8983D1*
X8671Y9025D1*
X8571Y9099D1*
X8496Y9198D1*
X8454Y9316D1*
X8447Y9440D1*
X8477Y9561D1*
X8540Y9668D1*
X8632Y9752D1*
X8744Y9806D1*
X8867Y9825D1*
X8991Y9808D1*
X9104Y9755D1*
X9197Y9672D1*
X9261Y9566D1*
X9293Y9445D1*
X9295Y9400D1*
X9277Y9277D1*
X11477Y9737D2*
X11424Y9624D1*
X11340Y9532D1*
X11233Y9468D1*
X11113Y9437D1*
X10988Y9443D1*
X10871Y9485D1*
X10771Y9559D1*
X10696Y9658D1*
X10654Y9776D1*
X10647Y9900D1*
X10677Y10021D1*
X10740Y10128D1*
X10832Y10212D1*
X10944Y10266D1*
X11067Y10285D1*
X11191Y10268D1*
X11304Y10215D1*
X11397Y10132D1*
X11461Y10026D1*
X11493Y9905D1*
X11495Y9860D1*
X11477Y9737D1*
X12607Y9487D2*
X12554Y9374D1*
X12470Y9282D1*
X12363Y9218D1*
X12243Y9187D1*
X12118Y9193D1*
X12001Y9235D1*
X11901Y9309D1*
X11826Y9408D1*
X11784Y9526D1*
X11777Y9650D1*
X11807Y9771D1*
X11870Y9878D1*
X11962Y9962D1*
X12074Y10016D1*
X12197Y10035D1*
X12321Y10018D1*
X12434Y9965D1*
X12527Y9882D1*
X12591Y9776D1*
X12623Y9655D1*
X12625Y9610D1*
X12607Y9487D1*
X13647D2*
X13594Y9374D1*
X13510Y9282D1*
X13403Y9218D1*
X13283Y9187D1*
X13158Y9193D1*
X13041Y9235D1*
X12941Y9309D1*
X12866Y9408D1*
X12824Y9526D1*
X12817Y9650D1*
X12847Y9771D1*
X12910Y9878D1*
X13002Y9962D1*
X13114Y10016D1*
X13237Y10035D1*
X13361Y10018D1*
X13474Y9965D1*
X13567Y9882D1*
X13631Y9776D1*
X13663Y9655D1*
X13665Y9610D1*
X13647Y9487D1*
X16937Y9997D2*
X16884Y9884D1*
X16800Y9792D1*
X16693Y9728D1*
X16573Y9697D1*
X16448Y9703D1*
X16331Y9745D1*
X16231Y9819D1*
X16156Y9918D1*
X16114Y10036D1*
X16107Y10160D1*
X16137Y10281D1*
X16200Y10388D1*
X16292Y10472D1*
X16404Y10526D1*
X16527Y10545D1*
X16651Y10528D1*
X16764Y10475D1*
X16857Y10392D1*
X16921Y10286D1*
X16953Y10165D1*
X16955Y10120D1*
X16937Y9997D1*
X18457Y11307D2*
X18404Y11194D1*
X18320Y11102D1*
X18213Y11038D1*
X18093Y11007D1*
X17968Y11013D1*
X17851Y11055D1*
X17751Y11129D1*
X17676Y11228D1*
X17634Y11346D1*
X17627Y11470D1*
X17657Y11591D1*
X17720Y11698D1*
X17812Y11782D1*
X17924Y11836D1*
X18047Y11855D1*
X18171Y11838D1*
X18284Y11785D1*
X18377Y11702D1*
X18441Y11596D1*
X18473Y11475D1*
X18475Y11430D1*
X18457Y11307D1*
X21258Y25687D2*
X21383Y25715D1*
X21507Y25700D1*
X21541Y25689D1*
X21663Y25715D1*
X21787Y25700D1*
X21821Y25689D1*
X21943Y25715D1*
X22067Y25700D1*
X22105Y25681D1*
X22243Y25715D1*
X22367Y25700D1*
X22478Y25645D1*
X22566Y25557D1*
X22578Y25532D1*
X24645Y27600D1*
Y29498D1*
X23238Y30907D1*
X20035Y30905D1*
X19913Y30930D1*
X19812Y30997D1*
X14733Y36077D1*
X13260Y36075D1*
X13303Y35935D1*
X13305Y35890D1*
X13287Y35767D1*
X13234Y35654D1*
X13195Y35611D1*
Y31850D1*
X13171Y31728D1*
X13103Y31627D1*
X12699Y31220D1*
X12792Y31137D1*
X12856Y31031D1*
X12889Y30886D1*
X13103Y30673D1*
X13172Y30570D1*
X13195Y30450D1*
Y28368D1*
X13526Y28040D1*
X13550Y28122D1*
X13617Y28223D1*
X14167Y28773D1*
X14271Y28842D1*
X14390Y28865D1*
X19480D1*
X19602Y28841D1*
X19703Y28773D1*
X20638Y27838D1*
X20707Y27735D1*
X20730Y27615D1*
Y26393D1*
X20752Y26412D1*
X20864Y26466D1*
X20987Y26485D1*
X21111Y26468D1*
X21224Y26415D1*
X21317Y26332D1*
X21381Y26226D1*
X21413Y26105D1*
X21415Y26060D1*
X21397Y25937D1*
X21344Y25824D1*
X21279Y25740D1*
X21276Y25733D1*
X5976Y10446D2*
X5930Y10330D1*
X5858Y10229D1*
X5762Y10149D1*
X5650Y10095D1*
X5527Y10070D1*
X5403Y10077D1*
X5284Y10113D1*
X5177Y10178D1*
X5090Y10268D1*
X5028Y10376D1*
X4994Y10496D1*
X4991Y10620D1*
X5019Y10742D1*
X5076Y10853D1*
X5159Y10946D1*
X5262Y11016D1*
X5379Y11059D1*
X5503Y11071D1*
X5626Y11052D1*
X5741Y11004D1*
X5841Y10929D1*
X5918Y10831D1*
X5969Y10717D1*
X5991Y10570D1*
X5976Y10446D1*
X10677Y29297D2*
X10624Y29184D1*
X10540Y29092D1*
X10433Y29028D1*
X10313Y28997D1*
X10188Y29003D1*
X10071Y29045D1*
X9971Y29119D1*
X9896Y29218D1*
X9854Y29336D1*
X9847Y29460D1*
X9877Y29581D1*
X9940Y29688D1*
X10032Y29772D1*
X10144Y29826D1*
X10267Y29845D1*
X10391Y29828D1*
X10504Y29775D1*
X10597Y29692D1*
X10661Y29586D1*
X10693Y29465D1*
X10695Y29420D1*
X10677Y29297D1*
X23495Y9532D2*
X23507Y9581D1*
X23570Y9688D1*
X23662Y9772D1*
X23774Y9826D1*
X23897Y9845D1*
X24021Y9828D1*
X24134Y9775D1*
X24227Y9692D1*
X24291Y9586D1*
X24323Y9465D1*
X24325Y9420D1*
X24307Y9297D1*
X24254Y9184D1*
X24170Y9092D1*
X24063Y9028D1*
X24014Y9015D1*
X25117Y26862D2*
X23930Y25674D1*
X23980Y25635D1*
X25115Y26771D1*
X15325Y16875D2*
Y17953D1*
X14288Y18991D1*
X14235Y18925D1*
Y18330D1*
X14207Y18206D1*
X14149Y18122D1*
X13455Y17425D1*
X13450Y16426D1*
X13443Y16389D1*
X13577Y16523D1*
X13681Y16592D1*
X13800Y16615D1*
X15218D1*
X15247Y16751D1*
X15325Y16871D1*
X16438Y8168D2*
X16753Y7853D1*
X19370Y7855D1*
X21163D1*
X21391Y8086D1*
X21266Y8167D1*
X17550Y8165D1*
X16437D1*
X8371Y17825D2*
X10183Y16013D1*
X10315Y15954D1*
X10407Y15871D1*
X10472Y15765D1*
X10504Y15645D1*
X10506Y15599D1*
X10488Y15476D1*
X10435Y15363D1*
X10351Y15271D1*
X10244Y15207D1*
X10124Y15176D1*
X9999Y15182D1*
X9882Y15224D1*
X9781Y15298D1*
X9707Y15398D1*
X9674Y15489D1*
X7749Y17416D1*
X7651Y17489D1*
X7576Y17588D1*
X7534Y17706D1*
X7527Y17830D1*
X7557Y17951D1*
X7620Y18058D1*
X7712Y18142D1*
X7824Y18196D1*
X7947Y18215D1*
X8071Y18198D1*
X8184Y18145D1*
X8277Y18062D1*
X8341Y17956D1*
X8373Y17823D1*
X20101Y27484D2*
X19726Y27859D1*
X19730Y27565D1*
Y26046D1*
X19873Y25903D1*
X19994Y25905D1*
X19992Y26025D1*
X20022Y26146D1*
X20100Y26266D1*
Y27481D1*
D31*
X4531Y33940D3*
D33*
X6696Y34924D3*
D35*
X8133Y32917D3*
Y34964D3*
D33*
X6696Y32956D3*
D36*
X5318Y30869D3*
Y37011D3*
D33*
X8664Y30869D3*
Y37011D3*
D38*
X6893Y31578D3*
D40*
X8226Y23448D3*
Y24432D3*
X7438D3*
Y23448D3*
D42*
X6371Y26310D3*
Y21570D3*
D44*
X37660Y35490D3*
D46*
Y36490D3*
Y37490D3*
Y38490D3*
D44*
Y27430D3*
D46*
Y28430D3*
Y29430D3*
Y30430D3*
D44*
X37647Y19449D3*
D46*
Y20449D3*
Y21449D3*
Y22449D3*
D44*
X37650Y11470D3*
D46*
Y12470D3*
Y13470D3*
Y14470D3*
D47*
X10180Y42020D3*
D49*
X11740D3*
D47*
X16790D3*
D49*
X18350D3*
D44*
X19950Y41890D3*
D46*
X20950D3*
D44*
X37230Y6390D3*
D46*
X36230D3*
X35230D3*
D44*
X29140Y6420D3*
D46*
X28140D3*
X27140D3*
D44*
X25770Y6390D3*
D46*
X24770D3*
X23770D3*
D44*
X22310D3*
D46*
X21310D3*
X20310D3*
D44*
X19030Y6380D3*
D46*
X18030D3*
D44*
X16800Y6370D3*
D46*
X15800D3*
D50*
X12490Y6690D3*
X11490D3*
X10490D3*
D44*
X24590Y41910D3*
D46*
X25590D3*
D44*
X22260D3*
D46*
X23260D3*
D44*
X36430Y41930D3*
D46*
X37430D3*
D44*
X34170Y41920D3*
D46*
X35170D3*
D44*
X27500Y41930D3*
D46*
X28500D3*
D62*
X27840Y31030D3*
D64*
Y30243D3*
Y29455D3*
D63*
Y28668D3*
Y27881D3*
D62*
Y36230D3*
D64*
Y35443D3*
Y34655D3*
D63*
Y33868D3*
Y33081D3*
D62*
X5460Y19810D3*
D64*
Y19021D3*
Y18232D3*
D62*
X10715Y23100D3*
D64*
Y23888D3*
Y24675D3*
D63*
Y25462D3*
Y26250D3*
D44*
X11740Y21490D3*
D46*
X12740D3*
X11740Y20490D3*
X12740D3*
X11740Y19490D3*
X12740D3*
D44*
X24015Y22865D3*
D46*
X25015D3*
D44*
X12605Y13895D3*
D46*
Y14895D3*
X13605Y13895D3*
Y14895D3*
X14605Y13895D3*
Y14895D3*
D44*
X9420Y26960D3*
D46*
X8420D3*
D62*
X19520Y15370D3*
D64*
Y14583D3*
Y13795D3*
D63*
Y13008D3*
Y12221D3*
D45*
X37663Y34485D3*
Y39495D3*
Y26425D3*
Y31435D3*
X37651Y18445D3*
Y23455D3*
X37653Y10465D3*
Y15475D3*
D75*
X5260Y17000D3*
X5490Y10570D3*
M02*
