G04 DipTrace Beta 2.3.5.2*
%INGND.gbr*%
%MOIN*%
%ADD22C,0.025*%
%ADD23C,0.013*%
%ADD32C,0.0709*%
%ADD34C,0.0551*%
%ADD37C,0.1181*%
%ADD39C,0.0827*%
%ADD41C,0.0559*%
%ADD43C,0.1299*%
%ADD45C,0.0591*%
%ADD48C,0.1*%
%ADD51C,0.0705*%
%ADD63C,0.0492*%
%ADD76C,0.0472*%
%ADD97C,0.032*%
%ADD99C,0.022*%
%FSLAX44Y44*%
G04*
G70*
G90*
G75*
G01*
%LNInner1_Plane*%
%LPD*%
D97*
X6580Y17510D3*
X11565Y13315D3*
X10270Y29420D3*
X23900Y9420D3*
X27400Y9070D3*
X23900Y9420D3*
X20970Y20400D3*
X28265Y23715D3*
Y24165D3*
X21250Y20065D3*
X22770Y21915D3*
X9960Y8990D3*
X15640Y15660D3*
Y16590D3*
X13940Y20300D3*
X21640Y10020D3*
X22140Y21601D3*
X21920Y19560D3*
X12880Y35890D3*
X21550Y8480D3*
X22490Y21290D3*
X21565Y20340D3*
X12465Y30865D3*
X11050Y10740D3*
X11020Y11570D3*
X7950Y17790D3*
X10081Y15599D3*
X27440Y31710D3*
X20415Y25985D3*
X27430Y32600D3*
X27410Y27250D3*
X20990Y26060D3*
X27390Y27730D3*
X28265Y24640D3*
X28335Y25020D3*
X6310Y29760D3*
Y29220D3*
X13320Y21600D3*
X9660Y18390D3*
X34110Y37450D3*
Y36990D3*
X34090Y36520D3*
X33630Y37020D3*
Y37460D3*
X33620Y36550D3*
X33160D3*
X33170Y36990D3*
X33150Y37460D3*
D99*
X32750Y35530D3*
X33090Y35520D3*
X33590D3*
X32070Y36320D3*
X32180Y36880D3*
X31940Y37090D3*
X32120Y37400D3*
X33530Y38440D3*
D97*
X34440Y38830D3*
X32230Y39150D3*
X36570Y37920D3*
X36560Y36040D3*
X34200Y35280D3*
X32350Y32500D3*
Y32860D3*
X33120D3*
X32710Y32500D3*
Y32850D3*
X33120Y32500D3*
X33340Y39270D3*
X32790D3*
X33340Y39700D3*
X32790D3*
X35980Y39560D3*
X35610D3*
X35170D3*
X30670Y39570D3*
D99*
X29833Y36135D3*
X29393Y37495D3*
Y38215D3*
X29813Y39325D3*
D97*
X30320Y35810D3*
X13990Y10670D3*
X14880Y36820D3*
X15350Y36810D3*
X15840Y36790D3*
X17150Y35890D3*
X15870Y34130D3*
X16550Y34150D3*
X16540Y33090D3*
X13380Y33520D3*
X11550Y34950D3*
X11970D3*
X11530Y33040D3*
X12000Y33020D3*
X12440Y33420D3*
Y33950D3*
Y34470D3*
X14710Y39350D3*
X15040Y38960D3*
X15410Y38950D3*
X15800Y38960D3*
X9080Y38890D3*
X9480D3*
X9870D3*
X8850Y39280D3*
X16490Y29050D3*
Y27980D3*
X15660Y29100D3*
X13310Y28350D3*
X13580Y10660D3*
X14670Y31800D3*
X15070D3*
X15480Y31790D3*
X16810Y30940D3*
X22750Y38830D3*
X23660Y39540D3*
X21280Y39630D3*
X20950Y39190D3*
X25980Y39610D3*
X25640Y39170D3*
X21690Y38020D3*
X24050Y38050D3*
X37073Y34675D3*
X37063Y34285D3*
X37053Y33885D3*
X36673Y34675D3*
X36663Y34285D3*
X36653Y33885D3*
X36823Y33375D3*
X37693Y33385D3*
X37273D3*
X36803Y32945D3*
X37673Y32955D3*
X37253D3*
X35423Y32385D3*
X36153Y32395D3*
X35783D3*
X30893Y32415D3*
X31623Y32425D3*
X31253D3*
X37073Y26615D3*
X30133Y33895D3*
X37063Y26225D3*
X37053Y25825D3*
X36673Y26615D3*
X36663Y26225D3*
X36653Y25825D3*
X36823Y25315D3*
X37693Y25325D3*
X37273D3*
X34110Y29390D3*
Y28930D3*
X34090Y28460D3*
X33630Y28960D3*
Y29400D3*
X33620Y28490D3*
X33160D3*
X33170Y28930D3*
X33150Y29400D3*
D99*
X32740Y27480D3*
X33080Y27450D3*
X33610Y27440D3*
X32030Y28210D3*
X32160Y28800D3*
X31940Y29030D3*
X32180Y29330D3*
X33530Y30380D3*
D97*
X34440Y30770D3*
X32230Y31090D3*
X36570Y29860D3*
X36560Y27980D3*
X34200Y27220D3*
X32350Y24440D3*
Y24800D3*
X33120D3*
X32710Y24440D3*
Y24790D3*
X33120Y24440D3*
X33340Y31210D3*
X32790D3*
X33340Y31640D3*
X32790D3*
X35980Y31500D3*
X35610D3*
X35170D3*
X30670Y31510D3*
D99*
X29833Y28075D3*
X29393Y29435D3*
Y30155D3*
X29813Y31265D3*
D97*
X30320Y27750D3*
X36803Y24885D3*
X37673Y24895D3*
X37253D3*
X35423Y24325D3*
X36153Y24335D3*
X35783D3*
X30893Y24355D3*
X31623Y24365D3*
X31253D3*
X30133Y25835D3*
X37061Y18635D3*
X37051Y18245D3*
X37041Y17845D3*
X36661Y18635D3*
X36651Y18245D3*
X36641Y17845D3*
X36811Y17335D3*
X37681Y17345D3*
X37261D3*
X34097Y21409D3*
Y20949D3*
X34077Y20479D3*
X33617Y20979D3*
Y21419D3*
X33607Y20509D3*
X33147D3*
X33157Y20949D3*
X33137Y21419D3*
D99*
X32690Y19490D3*
X33040Y19480D3*
X33630Y19490D3*
X32070Y20260D3*
X32160Y20810D3*
X31927Y21049D3*
X32160Y21340D3*
X33517Y22399D3*
D97*
X34427Y22789D3*
X32217Y23109D3*
X36557Y21879D3*
X36547Y19999D3*
X34187Y19239D3*
X32337Y16459D3*
Y16819D3*
X33107D3*
X32697Y16459D3*
Y16809D3*
X33107Y16459D3*
X33327Y23229D3*
X32777D3*
X33327Y23659D3*
X32777D3*
X35967Y23519D3*
X35597D3*
X35157D3*
X30657Y23529D3*
D99*
X29821Y20095D3*
X29381Y21455D3*
Y22175D3*
X29801Y23285D3*
D97*
X30307Y19769D3*
X36791Y16905D3*
X37661Y16915D3*
X37241D3*
X35411Y16345D3*
X36141Y16355D3*
X35771D3*
X30881Y16375D3*
X31611Y16385D3*
X31241D3*
X30121Y17855D3*
X37063Y10655D3*
X37053Y10265D3*
X37043Y9865D3*
X36663Y10655D3*
X36653Y10265D3*
X36643Y9865D3*
X36813Y9355D3*
X37683Y9365D3*
X37263D3*
X34100Y13430D3*
Y12970D3*
X34080Y12500D3*
X33620Y13000D3*
Y13440D3*
X33610Y12530D3*
X33150D3*
X33160Y12970D3*
X33140Y13440D3*
D99*
X32780Y11520D3*
X33100Y11500D3*
X33610Y11520D3*
X32110Y12360D3*
X32165Y12840D3*
X31890Y13065D3*
X32165Y13290D3*
X33530Y14410D3*
D97*
X34430Y14810D3*
X32220Y15130D3*
X36560Y13900D3*
X36550Y12020D3*
X34190Y11260D3*
X32340Y8480D3*
Y8840D3*
X33110D3*
X32700Y8480D3*
Y8830D3*
X33110Y8480D3*
X33330Y15250D3*
X32780D3*
X33330Y15680D3*
X32780D3*
X35970Y15540D3*
X35600D3*
X35160D3*
X30660Y15550D3*
D99*
X29823Y12115D3*
X29383Y13475D3*
Y14195D3*
X29803Y15305D3*
D97*
X30310Y11790D3*
X36793Y8925D3*
X37663Y8935D3*
X37243D3*
X35413Y8365D3*
X36143Y8375D3*
X35773D3*
X30883Y8395D3*
X31613Y8405D3*
X31243D3*
X30123Y9875D3*
X26470Y38070D3*
X23565Y34190D3*
X24515D3*
Y33815D3*
X23565D3*
X24515Y34565D3*
X23565D3*
X25565Y37390D3*
X4350Y43530D3*
X23040Y10020D3*
X25440Y9965D3*
X14440Y10640D3*
X14880Y10680D3*
X15215Y11540D3*
X15070Y12720D3*
X15410Y13050D3*
X15040Y13120D3*
X13765Y12315D3*
X5360Y15030D3*
X5460Y14260D3*
X19450Y16640D3*
X19080Y16350D3*
X18790Y18770D3*
X18500Y19350D3*
X18060Y18760D3*
X17840Y19140D3*
X17540Y19365D3*
X17215Y19165D3*
X15640Y19365D3*
X16290D3*
X15965Y19165D3*
X15170Y17160D3*
X18270Y17200D3*
X11940Y17015D3*
X24540Y29415D3*
Y29015D3*
Y28540D3*
X23565Y29415D3*
Y29015D3*
Y28540D3*
X25440Y32240D3*
X25090Y31615D3*
X25415D3*
X25740D3*
X26065D3*
X25090Y31290D3*
X25415D3*
X25740D3*
X26065D3*
X14250Y25760D3*
X13840D3*
X18515Y27215D3*
X14190Y12315D3*
Y11840D3*
X22990Y23115D3*
X22115Y22840D3*
X22415Y22515D3*
X13790Y11815D3*
X14665Y26715D3*
X15665Y26665D3*
X15965Y26890D3*
X18160Y26770D3*
X20010Y27320D3*
X12965Y27190D3*
X13415Y22540D3*
X13120Y22840D3*
X15340Y19140D3*
X15015Y19365D3*
X9315Y20115D3*
X24715Y10010D3*
X18360Y10090D3*
X19165Y9150D3*
X34200Y6400D3*
X27980Y9020D3*
X25495Y8490D3*
X20280Y8960D3*
X15690Y13890D3*
X15600Y10720D3*
X14340Y8025D3*
X16865Y8000D3*
X23500Y23810D3*
X25290Y23815D3*
X23680Y25330D3*
X13615Y19390D3*
X14265Y19415D3*
X13065Y26265D3*
X25800Y25300D3*
X10210Y18600D3*
X9920Y18910D3*
X9580Y22650D3*
X6265Y19290D3*
X27040Y9990D3*
X11040Y7665D3*
X12215Y8015D3*
X13240Y8040D3*
X10915Y15140D3*
X14615Y18040D3*
X13515Y18690D3*
X13120Y25050D3*
X13415Y23190D3*
X12515Y13315D3*
X10615Y32490D3*
X10640Y31915D3*
Y31365D3*
X10040Y36590D3*
X10015Y35665D3*
X10465D3*
Y36590D3*
X9640D3*
X9615Y35665D3*
X4350Y4350D3*
X39030Y43530D3*
Y4350D3*
X8870Y9400D3*
X11070Y9860D3*
X12200Y9610D3*
X13240D3*
X16950Y14800D3*
X16530Y10120D3*
X18050Y11430D3*
X9000Y12320D3*
X10920Y12570D3*
X16900Y23340D3*
X15850Y24370D3*
X18010Y24400D3*
Y22190D3*
X15810Y22170D3*
X4350Y9240D3*
Y19040D3*
Y23940D3*
Y28840D3*
Y38630D3*
X39030D3*
Y33730D3*
Y28840D3*
X9300Y43530D3*
X39030Y23940D3*
Y19040D3*
Y14140D3*
Y9250D3*
X14260Y43530D3*
X19210D3*
X24170D3*
X29120D3*
X34070D3*
X9300Y4350D3*
X14260D3*
X19210D3*
X24170D3*
X29120D3*
X34070D3*
X24510Y10830D3*
X11620Y15810D3*
X14100Y15740D3*
X8800Y18110D3*
X19980Y17620D3*
X21580Y18860D3*
D99*
X20810Y25340D3*
D97*
X23180Y22650D3*
X26020Y23830D3*
X29640Y13010D3*
X31500Y12120D3*
X31240Y14970D3*
X29650Y21000D3*
X31230Y22840D3*
X34190Y16480D3*
X34150Y18070D3*
X31420Y20120D3*
X34400Y24530D3*
X34330Y26020D3*
X29640Y28960D3*
X31280Y30800D3*
X34290Y34040D3*
X34340Y32540D3*
X29660Y37070D3*
X31300Y38910D3*
X31450Y36150D3*
X9200Y39700D3*
X11400Y23740D3*
X12350Y22670D3*
X6310Y28550D3*
Y27980D3*
X8400Y15590D3*
X8290Y13050D3*
D99*
X16290Y26610D3*
X16610Y26620D3*
X16920Y26610D3*
X17230D3*
X17550D3*
X17860Y26600D3*
X13520Y21280D3*
X13540Y20970D3*
X21110Y25340D3*
X21400D3*
X21960D3*
X21680D3*
X22260D3*
X27690Y26390D3*
Y26090D3*
X27680Y25790D3*
X27330Y25820D3*
X27320Y25530D3*
X27160Y25280D3*
X4735Y43306D2*
D22*
X8915D1*
X9688D2*
X13872D1*
X14645D2*
X18826D1*
X19598D2*
X23783D1*
X24555D2*
X28736D1*
X29504D2*
X33685D1*
X34458D2*
X38646D1*
X4350Y43058D2*
X39029D1*
X4350Y42809D2*
X6275D1*
X6606D2*
X31275D1*
X31606D2*
X39029D1*
X4350Y42560D2*
X5615D1*
X7266D2*
X9615D1*
X10747D2*
X11173D1*
X12305D2*
X16224D1*
X17356D2*
X17783D1*
X18919D2*
X30615D1*
X32266D2*
X39029D1*
X4350Y42312D2*
X5349D1*
X7532D2*
X9447D1*
X10911D2*
X11006D1*
X12473D2*
X16060D1*
X17524D2*
X17615D1*
X19083D2*
X19556D1*
X20344D2*
X20556D1*
X21344D2*
X21845D1*
X22676D2*
X22845D1*
X23676D2*
X24173D1*
X25004D2*
X25172D1*
X26004D2*
X27064D1*
X27934D2*
X28064D1*
X28934D2*
X30349D1*
X32532D2*
X33744D1*
X34594D2*
X34744D1*
X35594D2*
X35994D1*
X36864D2*
X36995D1*
X37864D2*
X39029D1*
X4350Y42063D2*
X5189D1*
X7692D2*
X9392D1*
X12528D2*
X16001D1*
X19137D2*
X19392D1*
X21508D2*
X21697D1*
X23825D2*
X24025D1*
X26153D2*
X26931D1*
X29071D2*
X30189D1*
X32692D2*
X33603D1*
X35735D2*
X35861D1*
X38001D2*
X39029D1*
X4350Y41814D2*
X5091D1*
X7790D2*
X9419D1*
X12501D2*
X16029D1*
X19110D2*
X19369D1*
X21532D2*
X21685D1*
X23836D2*
X24013D1*
X26169D2*
X26927D1*
X29075D2*
X30091D1*
X32790D2*
X33595D1*
X35747D2*
X35857D1*
X38004D2*
X39029D1*
X4350Y41566D2*
X5044D1*
X7836D2*
X9540D1*
X10821D2*
X11099D1*
X12379D2*
X16150D1*
X17430D2*
X17708D1*
X18989D2*
X19470D1*
X21430D2*
X21794D1*
X23727D2*
X24122D1*
X26055D2*
X27048D1*
X27950D2*
X28048D1*
X28950D2*
X30044D1*
X32836D2*
X33712D1*
X34629D2*
X34714D1*
X35629D2*
X35978D1*
X36879D2*
X36978D1*
X37879D2*
X39029D1*
X4350Y41317D2*
X5044D1*
X7836D2*
X9853D1*
X10504D2*
X11415D1*
X12067D2*
X16466D1*
X17118D2*
X18025D1*
X18676D2*
X30044D1*
X32836D2*
X39029D1*
X4350Y41068D2*
X5091D1*
X7790D2*
X30091D1*
X32790D2*
X39029D1*
X4350Y40820D2*
X5185D1*
X7692D2*
X30185D1*
X32692D2*
X39029D1*
X4350Y40571D2*
X5349D1*
X7532D2*
X30349D1*
X32532D2*
X39029D1*
X4350Y40322D2*
X5611D1*
X7266D2*
X30611D1*
X32266D2*
X39029D1*
X4350Y40074D2*
X6251D1*
X6626D2*
X9439D1*
X16262D2*
X31251D1*
X31626D2*
X39029D1*
X4350Y39825D2*
X9224D1*
X16501D2*
X37185D1*
X38141D2*
X39029D1*
X4350Y39576D2*
X8521D1*
X16501D2*
X29509D1*
X30118D2*
X37083D1*
X38243D2*
X39029D1*
X4350Y39327D2*
X8404D1*
X16501D2*
X29415D1*
X30211D2*
X31818D1*
X32641D2*
X37103D1*
X38223D2*
X39029D1*
X4350Y39079D2*
X8451D1*
X16501D2*
X29505D1*
X30122D2*
X31786D1*
X32672D2*
X34072D1*
X34809D2*
X37263D1*
X38063D2*
X39029D1*
X4751Y38830D2*
X8540D1*
X16501D2*
X31927D1*
X32536D2*
X33990D1*
X34891D2*
X37189D1*
X38129D2*
X38630D1*
X4797Y38581D2*
X8376D1*
X16501D2*
X29286D1*
X29501D2*
X33158D1*
X33903D2*
X34072D1*
X34809D2*
X37083D1*
X38239D2*
X38583D1*
X4680Y38333D2*
X8369D1*
X16473D2*
X21376D1*
X22004D2*
X23708D1*
X24391D2*
X26111D1*
X26829D2*
X29013D1*
X29774D2*
X33146D1*
X33915D2*
X37099D1*
X38223D2*
X38701D1*
X4350Y38084D2*
X21244D1*
X22133D2*
X23603D1*
X24501D2*
X26021D1*
X26919D2*
X29017D1*
X29770D2*
X33388D1*
X33672D2*
X37251D1*
X38071D2*
X39029D1*
X4350Y37835D2*
X5064D1*
X5571D2*
X21283D1*
X22098D2*
X23658D1*
X24442D2*
X26091D1*
X26848D2*
X29208D1*
X29575D2*
X37193D1*
X38126D2*
X39029D1*
X4350Y37587D2*
X4661D1*
X5977D2*
X29005D1*
X29782D2*
X31771D1*
X32469D2*
X37083D1*
X38239D2*
X39029D1*
X4350Y37338D2*
X4501D1*
X6133D2*
X7794D1*
X9532D2*
X29029D1*
X29758D2*
X31634D1*
X32516D2*
X37095D1*
X38223D2*
X39029D1*
X4350Y37089D2*
X4443D1*
X6196D2*
X7693D1*
X9637D2*
X31540D1*
X32516D2*
X37244D1*
X38075D2*
X39029D1*
X4350Y36841D2*
X4454D1*
X6180D2*
X7712D1*
X9614D2*
X31634D1*
X32579D2*
X37197D1*
X38122D2*
X39029D1*
X4350Y36592D2*
X4548D1*
X6090D2*
X7884D1*
X9446D2*
X27454D1*
X28227D2*
X31786D1*
X32446D2*
X37083D1*
X38235D2*
X39029D1*
X4350Y36343D2*
X4759D1*
X5876D2*
X27318D1*
X28364D2*
X29497D1*
X30169D2*
X31669D1*
X32469D2*
X37095D1*
X38227D2*
X39029D1*
X4350Y36095D2*
X12482D1*
X13278D2*
X27322D1*
X28356D2*
X29435D1*
X30661D2*
X31747D1*
X32395D2*
X37240D1*
X38083D2*
X39029D1*
X4350Y35846D2*
X12431D1*
X13329D2*
X27478D1*
X28204D2*
X29572D1*
X30770D2*
X32525D1*
X33301D2*
X33379D1*
X33801D2*
X37201D1*
X38118D2*
X39029D1*
X4350Y35597D2*
X12548D1*
X13211D2*
X27329D1*
X28352D2*
X29927D1*
X30711D2*
X32357D1*
X34508D2*
X37087D1*
X38235D2*
X39029D1*
X4350Y35348D2*
X4790D1*
X5844D2*
X5923D1*
X8977D2*
X11376D1*
X12141D2*
X27314D1*
X28368D2*
X32396D1*
X34645D2*
X37095D1*
X38227D2*
X39029D1*
X4350Y35100D2*
X4658D1*
X9098D2*
X11126D1*
X12391D2*
X27435D1*
X28243D2*
X33790D1*
X34610D2*
X37232D1*
X38086D2*
X39029D1*
X4350Y34851D2*
X4638D1*
X9102D2*
X11111D1*
X12653D2*
X27345D1*
X28336D2*
X37212D1*
X38114D2*
X39029D1*
X8997Y34602D2*
X11283D1*
X12868D2*
X27306D1*
X28372D2*
X37091D1*
X38235D2*
X39029D1*
X5669Y34354D2*
X7665D1*
X8598D2*
X12005D1*
X12876D2*
X27404D1*
X28278D2*
X37095D1*
X38231D2*
X39029D1*
X5176Y34105D2*
X12021D1*
X12860D2*
X27361D1*
X28317D2*
X37228D1*
X38098D2*
X38806D1*
X5176Y33856D2*
X12001D1*
X12879D2*
X27306D1*
X28376D2*
X38599D1*
X5431Y33608D2*
X12033D1*
X12848D2*
X27376D1*
X28305D2*
X38599D1*
X8926Y33359D2*
X11224D1*
X12887D2*
X27388D1*
X28294D2*
X38798D1*
X9083Y33110D2*
X11087D1*
X12754D2*
X27306D1*
X28376D2*
X39029D1*
X4350Y32862D2*
X4642D1*
X9110D2*
X11119D1*
X12419D2*
X27072D1*
X28329D2*
X39029D1*
X4350Y32613D2*
X4732D1*
X9032D2*
X11853D1*
X12145D2*
X26982D1*
X28071D2*
X30494D1*
X32028D2*
X35040D1*
X36544D2*
X39029D1*
X4350Y32364D2*
X5005D1*
X5629D2*
X7494D1*
X8774D2*
X27052D1*
X27809D2*
X30447D1*
X32067D2*
X34974D1*
X36602D2*
X39029D1*
X4350Y32116D2*
X6454D1*
X7333D2*
X27286D1*
X27594D2*
X30568D1*
X31938D2*
X35072D1*
X36497D2*
X39029D1*
X4350Y31867D2*
X6255D1*
X7532D2*
X24724D1*
X26434D2*
X27021D1*
X27860D2*
X37283D1*
X38047D2*
X39029D1*
X4350Y31618D2*
X4880D1*
X5754D2*
X6189D1*
X7594D2*
X24642D1*
X26516D2*
X27001D1*
X27879D2*
X29661D1*
X29965D2*
X37111D1*
X38219D2*
X39029D1*
X4350Y31369D2*
X4599D1*
X6036D2*
X6224D1*
X7563D2*
X8021D1*
X9309D2*
X24646D1*
X26508D2*
X27161D1*
X28247D2*
X29427D1*
X30200D2*
X31884D1*
X32575D2*
X37083D1*
X38243D2*
X39029D1*
X4350Y31121D2*
X4474D1*
X6161D2*
X6369D1*
X7419D2*
X7747D1*
X9583D2*
X12099D1*
X12829D2*
X24677D1*
X26481D2*
X27314D1*
X28368D2*
X29443D1*
X30184D2*
X31783D1*
X32680D2*
X34177D1*
X34704D2*
X37173D1*
X38153D2*
X39029D1*
X4350Y30872D2*
X4439D1*
X6200D2*
X7685D1*
X9645D2*
X12017D1*
X12915D2*
X24990D1*
X25193D2*
X25314D1*
X25515D2*
X25639D1*
X25843D2*
X25966D1*
X26163D2*
X27329D1*
X28352D2*
X31841D1*
X32622D2*
X34001D1*
X34879D2*
X37290D1*
X38028D2*
X39029D1*
X4350Y30623D2*
X4474D1*
X6161D2*
X7744D1*
X9583D2*
X12091D1*
X12840D2*
X27474D1*
X28208D2*
X33220D1*
X33840D2*
X34017D1*
X34864D2*
X37111D1*
X38211D2*
X39029D1*
X4350Y30375D2*
X4595D1*
X6040D2*
X8009D1*
X9321D2*
X27322D1*
X28360D2*
X29064D1*
X29723D2*
X33130D1*
X33930D2*
X34259D1*
X34622D2*
X37079D1*
X38243D2*
X39029D1*
X4350Y30126D2*
X4869D1*
X5766D2*
X27318D1*
X28364D2*
X28994D1*
X29794D2*
X33228D1*
X33833D2*
X37165D1*
X38157D2*
X39029D1*
X4350Y29877D2*
X27458D1*
X28223D2*
X29119D1*
X29669D2*
X37298D1*
X38024D2*
X39029D1*
X4350Y29629D2*
X9876D1*
X10665D2*
X27333D1*
X28344D2*
X29048D1*
X29739D2*
X31927D1*
X32430D2*
X37111D1*
X38208D2*
X39029D1*
X4350Y29380D2*
X9822D1*
X10719D2*
X27310D1*
X28372D2*
X28997D1*
X29790D2*
X31779D1*
X32575D2*
X37076D1*
X38243D2*
X39029D1*
X4684Y29131D2*
X9935D1*
X10606D2*
X27419D1*
X28258D2*
X29150D1*
X29637D2*
X31556D1*
X32524D2*
X37161D1*
X38161D2*
X38697D1*
X4797Y28883D2*
X27353D1*
X28329D2*
X31572D1*
X32551D2*
X37306D1*
X38016D2*
X38583D1*
X4747Y28634D2*
X27306D1*
X28376D2*
X31798D1*
X32520D2*
X37115D1*
X38208D2*
X38634D1*
X4350Y28385D2*
X27388D1*
X28290D2*
X29599D1*
X30071D2*
X31673D1*
X32387D2*
X37076D1*
X38243D2*
X39029D1*
X4350Y28137D2*
X27240D1*
X28309D2*
X29439D1*
X30520D2*
X31638D1*
X32422D2*
X37158D1*
X38161D2*
X39029D1*
X4350Y27888D2*
X26970D1*
X28376D2*
X29486D1*
X30747D2*
X31814D1*
X32247D2*
X37314D1*
X38008D2*
X39029D1*
X4350Y27639D2*
X26951D1*
X28317D2*
X29884D1*
X30754D2*
X32376D1*
X33954D2*
X34103D1*
X34298D2*
X37115D1*
X38204D2*
X39029D1*
X4350Y27390D2*
X8036D1*
X8805D2*
X9036D1*
X9805D2*
X18103D1*
X18926D2*
X26986D1*
X28008D2*
X30068D1*
X30571D2*
X32353D1*
X34614D2*
X37076D1*
X38243D2*
X39029D1*
X4350Y27142D2*
X5966D1*
X6778D2*
X7865D1*
X9973D2*
X15599D1*
X16333D2*
X18072D1*
X18958D2*
X26974D1*
X27844D2*
X32552D1*
X34641D2*
X37154D1*
X38165D2*
X39029D1*
X4350Y26893D2*
X5642D1*
X7102D2*
X7837D1*
X10001D2*
X15283D1*
X18118D2*
X18217D1*
X18817D2*
X27154D1*
X27665D2*
X33904D1*
X34497D2*
X37329D1*
X37997D2*
X39029D1*
X4350Y26644D2*
X5494D1*
X7247D2*
X7931D1*
X9907D2*
X10365D1*
X11063D2*
X12849D1*
X13282D2*
X15216D1*
X18258D2*
X27388D1*
X27989D2*
X37122D1*
X38204D2*
X39029D1*
X4350Y26396D2*
X5435D1*
X7305D2*
X10201D1*
X11231D2*
X12634D1*
X13493D2*
X15310D1*
X18200D2*
X20283D1*
X20551D2*
X20704D1*
X21274D2*
X27290D1*
X28090D2*
X37079D1*
X38247D2*
X39029D1*
X4350Y26147D2*
X5447D1*
X7297D2*
X10189D1*
X11239D2*
X12630D1*
X13497D2*
X13643D1*
X14450D2*
X19997D1*
X21430D2*
X27122D1*
X28086D2*
X37154D1*
X38176D2*
X39029D1*
X4350Y25898D2*
X5529D1*
X7211D2*
X10318D1*
X11110D2*
X12826D1*
X13305D2*
X13412D1*
X14676D2*
X19974D1*
X21407D2*
X26939D1*
X28063D2*
X37451D1*
X37879D2*
X39029D1*
X4350Y25650D2*
X5712D1*
X7028D2*
X10216D1*
X11215D2*
X13404D1*
X14684D2*
X20130D1*
X22497D2*
X23376D1*
X23985D2*
X25533D1*
X26067D2*
X26939D1*
X28051D2*
X39029D1*
X4350Y25401D2*
X6247D1*
X6493D2*
X10181D1*
X11247D2*
X12857D1*
X13383D2*
X13587D1*
X14501D2*
X20415D1*
X22657D2*
X23236D1*
X24126D2*
X25361D1*
X26239D2*
X26779D1*
X27696D2*
X28122D1*
X28547D2*
X39029D1*
X4350Y25152D2*
X10283D1*
X11145D2*
X12681D1*
X13559D2*
X20462D1*
X22610D2*
X23271D1*
X24090D2*
X25376D1*
X26223D2*
X26783D1*
X27536D2*
X27908D1*
X28762D2*
X39029D1*
X4350Y24904D2*
X7142D1*
X7735D2*
X7927D1*
X8524D2*
X10232D1*
X11196D2*
X12697D1*
X13544D2*
X25622D1*
X25977D2*
X27900D1*
X28770D2*
X39029D1*
X4350Y24655D2*
X6915D1*
X8747D2*
X10181D1*
X11251D2*
X12939D1*
X13301D2*
X27814D1*
X28715D2*
X30568D1*
X31958D2*
X35130D1*
X36458D2*
X39029D1*
X4350Y24406D2*
X6869D1*
X8794D2*
X10255D1*
X11176D2*
X27884D1*
X28645D2*
X30447D1*
X32071D2*
X34982D1*
X36598D2*
X39029D1*
X4739Y24158D2*
X6943D1*
X8719D2*
X10255D1*
X11172D2*
X23232D1*
X23770D2*
X25013D1*
X25567D2*
X27814D1*
X28715D2*
X30494D1*
X32020D2*
X35009D1*
X36563D2*
X38642D1*
X4797Y23909D2*
X7122D1*
X8540D2*
X10181D1*
X11251D2*
X23064D1*
X23938D2*
X24849D1*
X25731D2*
X27861D1*
X28669D2*
X35314D1*
X35530D2*
X37298D1*
X38004D2*
X38583D1*
X4696Y23660D2*
X6911D1*
X8751D2*
X10232D1*
X11196D2*
X23079D1*
X23922D2*
X24869D1*
X25711D2*
X27818D1*
X28711D2*
X37103D1*
X38196D2*
X38685D1*
X4350Y23411D2*
X6869D1*
X8794D2*
X10286D1*
X11145D2*
X13029D1*
X13801D2*
X22661D1*
X23672D2*
X23865D1*
X24165D2*
X24865D1*
X25446D2*
X27943D1*
X28586D2*
X29423D1*
X30180D2*
X31892D1*
X32540D2*
X37068D1*
X38235D2*
X39029D1*
X4350Y23163D2*
X6951D1*
X8715D2*
X10185D1*
X11247D2*
X12818D1*
X13864D2*
X21814D1*
X22419D2*
X22542D1*
X23438D2*
X23517D1*
X25516D2*
X29419D1*
X30180D2*
X31771D1*
X32665D2*
X34201D1*
X34657D2*
X37146D1*
X38153D2*
X39029D1*
X4350Y22914D2*
X7306D1*
X7566D2*
X8095D1*
X8356D2*
X10216D1*
X11215D2*
X12677D1*
X13762D2*
X21673D1*
X25598D2*
X29720D1*
X29882D2*
X31814D1*
X32618D2*
X33997D1*
X34860D2*
X37310D1*
X37985D2*
X39029D1*
X4350Y22665D2*
X10423D1*
X11008D2*
X12708D1*
X13844D2*
X21704D1*
X22836D2*
X23466D1*
X25563D2*
X33228D1*
X33805D2*
X33997D1*
X34860D2*
X37107D1*
X38188D2*
X39029D1*
X4350Y22417D2*
X6001D1*
X6743D2*
X12982D1*
X13848D2*
X21978D1*
X22852D2*
X23654D1*
X24376D2*
X24654D1*
X25376D2*
X29068D1*
X29692D2*
X33119D1*
X33919D2*
X34197D1*
X34657D2*
X37064D1*
X38231D2*
X39029D1*
X4350Y22168D2*
X5654D1*
X7086D2*
X13185D1*
X13645D2*
X22146D1*
X23137D2*
X28982D1*
X29782D2*
X33197D1*
X33836D2*
X37138D1*
X38157D2*
X39029D1*
X4350Y21919D2*
X5501D1*
X7243D2*
X11357D1*
X12126D2*
X12357D1*
X13626D2*
X21833D1*
X23219D2*
X29079D1*
X29680D2*
X37318D1*
X37977D2*
X39029D1*
X4350Y21671D2*
X5439D1*
X7305D2*
X11185D1*
X13762D2*
X21697D1*
X23141D2*
X29048D1*
X29711D2*
X31958D1*
X32364D2*
X37107D1*
X38188D2*
X39029D1*
X4350Y21422D2*
X5443D1*
X7297D2*
X11158D1*
X13891D2*
X21728D1*
X22919D2*
X28982D1*
X29778D2*
X31771D1*
X32551D2*
X37064D1*
X38231D2*
X39029D1*
X4350Y21173D2*
X5521D1*
X7219D2*
X11251D1*
X13903D2*
X22056D1*
X22922D2*
X29107D1*
X29653D2*
X31548D1*
X32520D2*
X37134D1*
X38161D2*
X39029D1*
X4350Y20925D2*
X5697D1*
X7044D2*
X11361D1*
X12118D2*
X12361D1*
X13938D2*
X22247D1*
X22731D2*
X31548D1*
X32544D2*
X37326D1*
X37969D2*
X39029D1*
X4350Y20676D2*
X6154D1*
X6586D2*
X11185D1*
X14165D2*
X20622D1*
X21852D2*
X31786D1*
X32536D2*
X37111D1*
X38184D2*
X39029D1*
X4350Y20427D2*
X9001D1*
X9629D2*
X11158D1*
X13321D2*
X13509D1*
X14372D2*
X20521D1*
X22004D2*
X29622D1*
X30020D2*
X31708D1*
X32430D2*
X37064D1*
X38231D2*
X39029D1*
X4350Y20179D2*
X5079D1*
X5840D2*
X8869D1*
X9758D2*
X11251D1*
X13231D2*
X13509D1*
X14372D2*
X20583D1*
X21985D2*
X29431D1*
X30446D2*
X31681D1*
X32461D2*
X37130D1*
X38161D2*
X39029D1*
X4350Y19930D2*
X4939D1*
X5981D2*
X8908D1*
X9723D2*
X11369D1*
X12114D2*
X12369D1*
X13114D2*
X13708D1*
X14172D2*
X20822D1*
X22153D2*
X29458D1*
X30727D2*
X31869D1*
X32274D2*
X37333D1*
X37961D2*
X39029D1*
X4350Y19681D2*
X4943D1*
X5981D2*
X11189D1*
X14622D2*
X14704D1*
X15950D2*
X17232D1*
X17848D2*
X18208D1*
X18790D2*
X21044D1*
X22352D2*
X29869D1*
X30747D2*
X32341D1*
X33977D2*
X37111D1*
X38184D2*
X39029D1*
X4540Y19432D2*
X5091D1*
X5829D2*
X11158D1*
X16321D2*
X16861D1*
X18942D2*
X21490D1*
X22352D2*
X30025D1*
X30590D2*
X32294D1*
X34590D2*
X37064D1*
X38231D2*
X38841D1*
X4774Y19184D2*
X4951D1*
X5969D2*
X9572D1*
X10270D2*
X11247D1*
X16415D2*
X16767D1*
X18915D2*
X21697D1*
X22141D2*
X32451D1*
X33294D2*
X33388D1*
X34633D2*
X37130D1*
X38165D2*
X38607D1*
X4786Y18935D2*
X4931D1*
X5989D2*
X9470D1*
X10497D2*
X11638D1*
X11843D2*
X12638D1*
X12843D2*
X14943D1*
X16348D2*
X16833D1*
X19208D2*
X33865D1*
X34508D2*
X37353D1*
X37946D2*
X38595D1*
X4610Y18686D2*
X5048D1*
X5872D2*
X9329D1*
X10653D2*
X17619D1*
X19231D2*
X37119D1*
X38180D2*
X38771D1*
X4350Y18438D2*
X4966D1*
X5954D2*
X9212D1*
X10629D2*
X14439D1*
X14790D2*
X17759D1*
X18360D2*
X18501D1*
X19079D2*
X37064D1*
X38235D2*
X39029D1*
X4350Y18189D2*
X4927D1*
X5993D2*
X7779D1*
X8122D2*
X9259D1*
X10340D2*
X14193D1*
X15040D2*
X37126D1*
X38172D2*
X39029D1*
X4350Y17940D2*
X5017D1*
X5903D2*
X7529D1*
X8372D2*
X14177D1*
X15051D2*
X37380D1*
X37919D2*
X39029D1*
X4350Y17692D2*
X6169D1*
X6989D2*
X7513D1*
X8387D2*
X14349D1*
X14883D2*
X39029D1*
X4350Y17443D2*
X5001D1*
X5520D2*
X6134D1*
X7024D2*
X7681D1*
X8219D2*
X39029D1*
X4350Y17194D2*
X4775D1*
X5747D2*
X6271D1*
X6891D2*
X39029D1*
X4350Y16946D2*
X4736D1*
X5782D2*
X15384D1*
X15899D2*
X19130D1*
X19770D2*
X39029D1*
X4350Y16697D2*
X4837D1*
X5684D2*
X15204D1*
X16075D2*
X18810D1*
X19895D2*
X30579D1*
X31922D2*
X35150D1*
X36419D2*
X39029D1*
X4350Y16448D2*
X15216D1*
X16067D2*
X18642D1*
X19856D2*
X30439D1*
X32055D2*
X34974D1*
X36579D2*
X39029D1*
X4350Y16200D2*
X15447D1*
X15833D2*
X18658D1*
X19501D2*
X30470D1*
X32016D2*
X34986D1*
X36563D2*
X39029D1*
X4350Y15951D2*
X8150D1*
X8649D2*
X9818D1*
X10344D2*
X15306D1*
X15973D2*
X18911D1*
X19251D2*
X35228D1*
X36297D2*
X37333D1*
X37973D2*
X39029D1*
X4350Y15702D2*
X7966D1*
X8836D2*
X9642D1*
X10520D2*
X15193D1*
X16086D2*
X19107D1*
X19934D2*
X37115D1*
X38192D2*
X39029D1*
X4350Y15453D2*
X7974D1*
X8829D2*
X9658D1*
X10504D2*
X10603D1*
X11227D2*
X12536D1*
X12675D2*
X13536D1*
X13675D2*
X14536D1*
X14675D2*
X15244D1*
X16036D2*
X18990D1*
X20047D2*
X29435D1*
X30172D2*
X31919D1*
X32520D2*
X37068D1*
X38239D2*
X39029D1*
X4350Y15205D2*
X8197D1*
X8602D2*
X9900D1*
X10262D2*
X10470D1*
X11360D2*
X12115D1*
X15098D2*
X16794D1*
X17106D2*
X19013D1*
X20028D2*
X29415D1*
X30188D2*
X31779D1*
X32665D2*
X34247D1*
X34614D2*
X37138D1*
X38169D2*
X39029D1*
X4350Y14956D2*
X10509D1*
X11325D2*
X12025D1*
X15188D2*
X16529D1*
X17372D2*
X19146D1*
X19895D2*
X29642D1*
X29965D2*
X31806D1*
X32633D2*
X34005D1*
X34856D2*
X37345D1*
X37954D2*
X39029D1*
X4350Y14707D2*
X12052D1*
X15157D2*
X16509D1*
X17391D2*
X19001D1*
X20040D2*
X32154D1*
X32288D2*
X33279D1*
X33782D2*
X33994D1*
X34868D2*
X37119D1*
X38184D2*
X39029D1*
X4350Y14459D2*
X5060D1*
X5860D2*
X12228D1*
X12981D2*
X13228D1*
X13981D2*
X14228D1*
X14981D2*
X16673D1*
X17227D2*
X19001D1*
X20040D2*
X29091D1*
X29676D2*
X33134D1*
X33926D2*
X34165D1*
X34692D2*
X37064D1*
X38235D2*
X38724D1*
X4350Y14210D2*
X5013D1*
X5907D2*
X12119D1*
X15094D2*
X19146D1*
X19895D2*
X28986D1*
X29782D2*
X33189D1*
X33872D2*
X37130D1*
X38172D2*
X38587D1*
X4350Y13961D2*
X5134D1*
X5786D2*
X12025D1*
X15188D2*
X19013D1*
X20028D2*
X29064D1*
X29700D2*
X37357D1*
X37946D2*
X38619D1*
X4350Y13713D2*
X11392D1*
X11739D2*
X12052D1*
X15161D2*
X18990D1*
X20047D2*
X29068D1*
X29700D2*
X37119D1*
X38180D2*
X39029D1*
X4350Y13464D2*
X8169D1*
X8411D2*
X11142D1*
X11989D2*
X12090D1*
X12989D2*
X13224D1*
X13989D2*
X14224D1*
X15532D2*
X19107D1*
X19934D2*
X28982D1*
X29782D2*
X31810D1*
X32524D2*
X37064D1*
X38235D2*
X39029D1*
X4350Y13215D2*
X7872D1*
X8708D2*
X11126D1*
X12954D2*
X14603D1*
X15825D2*
X19029D1*
X20012D2*
X29087D1*
X29676D2*
X31521D1*
X32559D2*
X37126D1*
X38172D2*
X39029D1*
X4350Y12967D2*
X7849D1*
X8731D2*
X10744D1*
X11098D2*
X11298D1*
X11833D2*
X12247D1*
X12782D2*
X14619D1*
X15852D2*
X18986D1*
X20055D2*
X31505D1*
X32544D2*
X37365D1*
X37934D2*
X39029D1*
X4350Y12718D2*
X8001D1*
X8579D2*
X10497D1*
X11344D2*
X14619D1*
X15700D2*
X19076D1*
X19965D2*
X31724D1*
X32544D2*
X37122D1*
X38176D2*
X39029D1*
X4350Y12469D2*
X10482D1*
X11356D2*
X14701D1*
X15438D2*
X19048D1*
X19993D2*
X29673D1*
X29973D2*
X31728D1*
X32493D2*
X37064D1*
X38235D2*
X39029D1*
X4350Y12221D2*
X10654D1*
X11188D2*
X18986D1*
X20055D2*
X29439D1*
X30208D2*
X31736D1*
X32485D2*
X37122D1*
X38176D2*
X39029D1*
X4350Y11972D2*
X10857D1*
X11184D2*
X19048D1*
X19993D2*
X29451D1*
X30719D2*
X37369D1*
X37930D2*
X39029D1*
X4350Y11723D2*
X10599D1*
X11442D2*
X14806D1*
X15626D2*
X17716D1*
X18383D2*
X19380D1*
X19661D2*
X29865D1*
X30754D2*
X32439D1*
X33950D2*
X37126D1*
X38176D2*
X39029D1*
X4350Y11474D2*
X10579D1*
X11458D2*
X14771D1*
X15661D2*
X17603D1*
X18497D2*
X30001D1*
X30618D2*
X32384D1*
X34583D2*
X37064D1*
X38235D2*
X39029D1*
X4350Y11226D2*
X10747D1*
X11294D2*
X14904D1*
X15524D2*
X17654D1*
X18446D2*
X32525D1*
X34637D2*
X37122D1*
X38180D2*
X39029D1*
X4350Y10977D2*
X5173D1*
X5809D2*
X10673D1*
X11426D2*
X13271D1*
X15208D2*
X33849D1*
X34532D2*
X37361D1*
X37942D2*
X39029D1*
X4350Y10728D2*
X4990D1*
X5989D2*
X10599D1*
X11501D2*
X13134D1*
X15329D2*
X37134D1*
X38172D2*
X39029D1*
X4350Y10480D2*
X4974D1*
X6008D2*
X10689D1*
X11411D2*
X13169D1*
X15278D2*
X16279D1*
X16782D2*
X18165D1*
X18555D2*
X37068D1*
X38239D2*
X39029D1*
X4350Y10231D2*
X5095D1*
X5883D2*
X10837D1*
X11301D2*
X14302D1*
X14581D2*
X16095D1*
X16965D2*
X17935D1*
X18786D2*
X21247D1*
X22036D2*
X22646D1*
X23434D2*
X25083D1*
X25797D2*
X37119D1*
X38188D2*
X39029D1*
X4350Y9982D2*
X10638D1*
X11501D2*
X11970D1*
X12430D2*
X13009D1*
X13469D2*
X16103D1*
X16958D2*
X17923D1*
X18797D2*
X21193D1*
X22086D2*
X22591D1*
X23489D2*
X24990D1*
X25891D2*
X37345D1*
X37961D2*
X39029D1*
X4350Y9734D2*
X8583D1*
X9157D2*
X10638D1*
X11501D2*
X11767D1*
X12633D2*
X12810D1*
X13672D2*
X16329D1*
X16731D2*
X18103D1*
X18618D2*
X21302D1*
X21977D2*
X22701D1*
X23379D2*
X23587D1*
X24211D2*
X25060D1*
X25821D2*
X39029D1*
X4723Y9485D2*
X8427D1*
X9313D2*
X10845D1*
X11294D2*
X11771D1*
X12629D2*
X12810D1*
X13672D2*
X18880D1*
X19454D2*
X23454D1*
X24344D2*
X27283D1*
X27516D2*
X38650D1*
X4801Y9236D2*
X8454D1*
X9286D2*
X9587D1*
X10333D2*
X11974D1*
X12426D2*
X13013D1*
X13465D2*
X18724D1*
X19606D2*
X19931D1*
X20629D2*
X23494D1*
X24309D2*
X26986D1*
X28372D2*
X38579D1*
X4715Y8988D2*
X8744D1*
X8997D2*
X9509D1*
X10411D2*
X18747D1*
X19583D2*
X19829D1*
X20731D2*
X26958D1*
X28430D2*
X38669D1*
X4350Y8739D2*
X9591D1*
X10329D2*
X19033D1*
X19297D2*
X19892D1*
X20669D2*
X21189D1*
X21911D2*
X25126D1*
X25864D2*
X27111D1*
X28325D2*
X30607D1*
X31903D2*
X35185D1*
X36387D2*
X39029D1*
X4350Y8490D2*
X21099D1*
X22001D2*
X25044D1*
X25946D2*
X30443D1*
X32055D2*
X34982D1*
X36579D2*
X39029D1*
X4350Y8242D2*
X21173D1*
X21926D2*
X25126D1*
X25864D2*
X30462D1*
X32032D2*
X34982D1*
X36571D2*
X39029D1*
X4350Y7993D2*
X30724D1*
X31372D2*
X31489D1*
X31739D2*
X35185D1*
X36352D2*
X39029D1*
X4350Y7744D2*
X5974D1*
X6907D2*
X30974D1*
X31907D2*
X39029D1*
X4350Y7495D2*
X5533D1*
X7348D2*
X30533D1*
X32348D2*
X39029D1*
X4350Y7247D2*
X5298D1*
X7579D2*
X8365D1*
X9419D2*
X10197D1*
X10782D2*
X11197D1*
X11782D2*
X12197D1*
X12782D2*
X13560D1*
X14618D2*
X30298D1*
X32579D2*
X39029D1*
X4350Y6998D2*
X5158D1*
X7723D2*
X8083D1*
X9700D2*
X9931D1*
X13051D2*
X13279D1*
X14899D2*
X30158D1*
X32723D2*
X39029D1*
X4350Y6749D2*
X5076D1*
X7805D2*
X7943D1*
X15040D2*
X15365D1*
X16239D2*
X16362D1*
X17239D2*
X17583D1*
X18477D2*
X18586D1*
X19477D2*
X19857D1*
X20766D2*
X20857D1*
X21766D2*
X21857D1*
X22766D2*
X23314D1*
X24223D2*
X24314D1*
X25223D2*
X25314D1*
X26223D2*
X26661D1*
X29618D2*
X30076D1*
X32805D2*
X33935D1*
X34465D2*
X34775D1*
X35684D2*
X35777D1*
X36684D2*
X36777D1*
X37684D2*
X39029D1*
X4350Y6501D2*
X5040D1*
X15098D2*
X15232D1*
X17372D2*
X17461D1*
X19602D2*
X19734D1*
X22883D2*
X23197D1*
X26344D2*
X26560D1*
X29719D2*
X30040D1*
X32840D2*
X33763D1*
X37805D2*
X39029D1*
X4350Y6252D2*
X5052D1*
X9899D2*
X10028D1*
X10950D2*
X11029D1*
X11950D2*
X12029D1*
X12950D2*
X13079D1*
X15094D2*
X15228D1*
X17372D2*
X17461D1*
X19602D2*
X19742D1*
X22879D2*
X23201D1*
X26336D2*
X26579D1*
X29700D2*
X30052D1*
X32829D2*
X33779D1*
X37797D2*
X39029D1*
X4350Y6003D2*
X5111D1*
X7770D2*
X7954D1*
X9829D2*
X13150D1*
X15028D2*
X15353D1*
X16247D2*
X16350D1*
X17247D2*
X17591D1*
X18469D2*
X18591D1*
X19469D2*
X19880D1*
X20739D2*
X20877D1*
X21739D2*
X21877D1*
X22739D2*
X23341D1*
X24200D2*
X24341D1*
X25200D2*
X25341D1*
X26200D2*
X26740D1*
X27540D2*
X27740D1*
X28540D2*
X28740D1*
X29540D2*
X30111D1*
X32770D2*
X34025D1*
X34376D2*
X34798D1*
X35661D2*
X35797D1*
X36661D2*
X36797D1*
X37661D2*
X39029D1*
X4350Y5755D2*
X5220D1*
X7657D2*
X8107D1*
X9676D2*
X13302D1*
X14876D2*
X30220D1*
X32657D2*
X39029D1*
X4350Y5506D2*
X5404D1*
X7477D2*
X8419D1*
X9364D2*
X13615D1*
X14563D2*
X30404D1*
X32477D2*
X39029D1*
X4350Y5257D2*
X5712D1*
X7169D2*
X30712D1*
X32169D2*
X39029D1*
X4350Y5009D2*
X39029D1*
X4489Y4760D2*
X9161D1*
X9438D2*
X14122D1*
X14399D2*
X19072D1*
X19347D2*
X24033D1*
X24309D2*
X28982D1*
X29258D2*
X33931D1*
X34206D2*
X38892D1*
X4770Y4511D2*
X8880D1*
X9719D2*
X13841D1*
X14680D2*
X18790D1*
X19629D2*
X23751D1*
X24586D2*
X28701D1*
X29540D2*
X33654D1*
X34489D2*
X38611D1*
X4677Y33105D2*
X4628Y33092D1*
X4503Y33085D1*
X4380Y33103D1*
X4325Y33123D1*
Y29262D1*
X4471Y29248D1*
X4584Y29195D1*
X4677Y29112D1*
X4741Y29006D1*
X4773Y28885D1*
X4775Y28840D1*
X4757Y28717D1*
X4704Y28604D1*
X4620Y28512D1*
X4513Y28448D1*
X4393Y28417D1*
X4327Y28420D1*
X4325Y24364D1*
X4471Y24348D1*
X4584Y24295D1*
X4677Y24212D1*
X4741Y24106D1*
X4773Y23985D1*
X4775Y23940D1*
X4757Y23817D1*
X4704Y23704D1*
X4620Y23612D1*
X4513Y23548D1*
X4393Y23517D1*
X4327Y23520D1*
X4325Y19465D1*
X4471Y19448D1*
X4584Y19395D1*
X4677Y19312D1*
X4741Y19206D1*
X4773Y19085D1*
X4775Y19040D1*
X4757Y18917D1*
X4704Y18804D1*
X4620Y18712D1*
X4513Y18648D1*
X4393Y18617D1*
X4327Y18620D1*
X4325Y9661D1*
X4347Y9665D1*
X4471Y9648D1*
X4584Y9595D1*
X4677Y9512D1*
X4741Y9406D1*
X4773Y9285D1*
X4775Y9240D1*
X4757Y9117D1*
X4704Y9004D1*
X4620Y8912D1*
X4513Y8848D1*
X4393Y8817D1*
X4327Y8820D1*
X4325Y4778D1*
X4471Y4758D1*
X4584Y4705D1*
X4677Y4622D1*
X4741Y4516D1*
X4773Y4395D1*
X4771Y4323D1*
X7575Y4325D1*
X8876D1*
X8877Y4390D1*
X8907Y4511D1*
X8970Y4618D1*
X9062Y4702D1*
X9174Y4756D1*
X9297Y4775D1*
X9421Y4758D1*
X9534Y4705D1*
X9627Y4622D1*
X9691Y4516D1*
X9723Y4395D1*
X9721Y4323D1*
X13837Y4325D1*
Y4390D1*
X13867Y4511D1*
X13930Y4618D1*
X14022Y4702D1*
X14134Y4756D1*
X14257Y4775D1*
X14381Y4758D1*
X14494Y4705D1*
X14587Y4622D1*
X14651Y4516D1*
X14683Y4395D1*
X14681Y4323D1*
X16700Y4325D1*
X18782D1*
X18787Y4390D1*
X18817Y4511D1*
X18880Y4618D1*
X18972Y4702D1*
X19084Y4756D1*
X19207Y4775D1*
X19331Y4758D1*
X19444Y4705D1*
X19537Y4622D1*
X19601Y4516D1*
X19633Y4395D1*
X19631Y4323D1*
X22825Y4325D1*
X23743D1*
X23747Y4390D1*
X23777Y4511D1*
X23840Y4618D1*
X23932Y4702D1*
X24044Y4756D1*
X24167Y4775D1*
X24291Y4758D1*
X24404Y4705D1*
X24497Y4622D1*
X24561Y4516D1*
X24593Y4395D1*
X24591Y4323D1*
X28696Y4325D1*
X28697Y4390D1*
X28727Y4511D1*
X28790Y4618D1*
X28882Y4702D1*
X28994Y4756D1*
X29117Y4775D1*
X29241Y4758D1*
X29354Y4705D1*
X29447Y4622D1*
X29511Y4516D1*
X29543Y4395D1*
X29541Y4323D1*
X31950Y4325D1*
X33649D1*
X33647Y4390D1*
X33677Y4511D1*
X33740Y4618D1*
X33832Y4702D1*
X33944Y4756D1*
X34067Y4775D1*
X34191Y4758D1*
X34304Y4705D1*
X34397Y4622D1*
X34461Y4516D1*
X34493Y4395D1*
X34491Y4323D1*
X38075Y4325D1*
X38603D1*
X38607Y4390D1*
X38637Y4511D1*
X38700Y4618D1*
X38792Y4702D1*
X38904Y4756D1*
X39027Y4775D1*
X39054Y4771D1*
X39055Y8829D1*
X38948Y8833D1*
X38831Y8875D1*
X38731Y8949D1*
X38656Y9048D1*
X38614Y9166D1*
X38607Y9290D1*
X38637Y9411D1*
X38700Y9518D1*
X38792Y9602D1*
X38904Y9656D1*
X39027Y9675D1*
X39054Y9671D1*
X39055Y13720D1*
X38948Y13723D1*
X38831Y13765D1*
X38731Y13839D1*
X38656Y13938D1*
X38614Y14056D1*
X38607Y14180D1*
X38637Y14301D1*
X38700Y14408D1*
X38792Y14492D1*
X38904Y14546D1*
X39027Y14565D1*
X39054Y14561D1*
X39055Y18618D1*
X38948Y18623D1*
X38831Y18665D1*
X38731Y18739D1*
X38656Y18838D1*
X38614Y18956D1*
X38607Y19080D1*
X38637Y19201D1*
X38700Y19308D1*
X38792Y19392D1*
X38904Y19446D1*
X39027Y19465D1*
X39054Y19461D1*
X39055Y23517D1*
X38948Y23523D1*
X38831Y23565D1*
X38731Y23639D1*
X38656Y23738D1*
X38614Y23856D1*
X38607Y23980D1*
X38637Y24101D1*
X38700Y24208D1*
X38792Y24292D1*
X38904Y24346D1*
X39027Y24365D1*
X39054Y24361D1*
X39055Y28415D1*
X38948Y28423D1*
X38831Y28465D1*
X38731Y28539D1*
X38656Y28638D1*
X38614Y28756D1*
X38607Y28880D1*
X38637Y29001D1*
X38700Y29108D1*
X38792Y29192D1*
X38904Y29246D1*
X39027Y29265D1*
X39054Y29261D1*
X39055Y33306D1*
X38948Y33313D1*
X38831Y33355D1*
X38731Y33429D1*
X38656Y33528D1*
X38614Y33646D1*
X38607Y33770D1*
X38637Y33891D1*
X38700Y33998D1*
X38792Y34082D1*
X38904Y34136D1*
X39027Y34155D1*
X39054Y34151D1*
X39055Y38204D1*
X38948Y38213D1*
X38831Y38255D1*
X38731Y38329D1*
X38656Y38428D1*
X38614Y38546D1*
X38607Y38670D1*
X38637Y38791D1*
X38700Y38898D1*
X38792Y38982D1*
X38904Y39036D1*
X39027Y39055D1*
X39054Y39051D1*
X39055Y43103D1*
X38948Y43113D1*
X38831Y43155D1*
X38731Y43229D1*
X38656Y43328D1*
X38614Y43446D1*
X38608Y43558D1*
X37805Y43555D1*
X34497D1*
X34477Y43407D1*
X34424Y43294D1*
X34340Y43202D1*
X34233Y43138D1*
X34113Y43107D1*
X33988Y43113D1*
X33871Y43155D1*
X33771Y43229D1*
X33696Y43328D1*
X33654Y43446D1*
X33648Y43558D1*
X32555Y43555D1*
X29543D1*
X29527Y43407D1*
X29474Y43294D1*
X29390Y43202D1*
X29283Y43138D1*
X29163Y43107D1*
X29038Y43113D1*
X28921Y43155D1*
X28821Y43229D1*
X28746Y43328D1*
X28704Y43446D1*
X28698Y43558D1*
X28180Y43555D1*
X24598D1*
X24577Y43407D1*
X24524Y43294D1*
X24440Y43202D1*
X24333Y43138D1*
X24213Y43107D1*
X24088Y43113D1*
X23971Y43155D1*
X23871Y43229D1*
X23796Y43328D1*
X23754Y43446D1*
X23748Y43558D1*
X22805Y43555D1*
X19637D1*
X19617Y43407D1*
X19564Y43294D1*
X19480Y43202D1*
X19373Y43138D1*
X19253Y43107D1*
X19128Y43113D1*
X19011Y43155D1*
X18911Y43229D1*
X18836Y43328D1*
X18794Y43446D1*
X18788Y43558D1*
X17555Y43555D1*
X14684D1*
X14667Y43407D1*
X14614Y43294D1*
X14530Y43202D1*
X14423Y43138D1*
X14303Y43107D1*
X14178Y43113D1*
X14061Y43155D1*
X13961Y43229D1*
X13886Y43328D1*
X13844Y43446D1*
X13838Y43558D1*
X13180Y43555D1*
X9723D1*
X9707Y43407D1*
X9654Y43294D1*
X9570Y43202D1*
X9463Y43138D1*
X9343Y43107D1*
X9218Y43113D1*
X9101Y43155D1*
X9001Y43229D1*
X8926Y43328D1*
X8884Y43446D1*
X8878Y43558D1*
X7930Y43555D1*
X4778D1*
X4757Y43407D1*
X4704Y43294D1*
X4620Y43202D1*
X4513Y43138D1*
X4393Y43107D1*
X4327Y43110D1*
X4325Y39051D1*
X4471Y39038D1*
X4584Y38985D1*
X4677Y38902D1*
X4741Y38796D1*
X4773Y38675D1*
X4775Y38630D1*
X4757Y38507D1*
X4704Y38394D1*
X4620Y38302D1*
X4513Y38238D1*
X4393Y38207D1*
X4327Y38210D1*
X4325Y34762D1*
X4487Y34794D1*
X4612Y34790D1*
X4676Y34775D1*
X4663Y34858D1*
Y34983D1*
X4686Y35105D1*
X4731Y35222D1*
X4798Y35327D1*
X4883Y35418D1*
X4984Y35491D1*
X5097Y35544D1*
X5218Y35575D1*
X5343Y35582D1*
X5467Y35565D1*
X5585Y35526D1*
X5694Y35464D1*
X5789Y35383D1*
X5873Y35276D1*
X5958Y35357D1*
X6066Y35420D1*
X6186Y35456D1*
X6282Y35465D1*
X7187Y35459D1*
X7307Y35428D1*
X7362Y35402D1*
X7411Y35447D1*
X7516Y35515D1*
X7632Y35560D1*
X7798Y35583D1*
X8549Y35578D1*
X8670Y35549D1*
X8783Y35497D1*
X8884Y35422D1*
X8967Y35330D1*
X9030Y35222D1*
X9071Y35104D1*
X9087Y34964D1*
X9074Y34840D1*
X9037Y34721D1*
X8977Y34611D1*
X8896Y34516D1*
X8797Y34440D1*
X8686Y34384D1*
X8565Y34352D1*
X8343Y34344D1*
X7771Y34345D1*
X7648Y34363D1*
X7530Y34405D1*
X7415Y34478D1*
X7304Y34420D1*
X7183Y34389D1*
X7034Y34384D1*
X6207Y34389D1*
X6086Y34421D1*
X5976Y34479D1*
X5882Y34561D1*
X5872Y34569D1*
X5795Y34471D1*
X5700Y34389D1*
X5593Y34327D1*
X5475Y34286D1*
X5351Y34267D1*
X5226Y34273D1*
X5139Y34294D1*
X5150Y34176D1*
Y33704D1*
X5138Y33591D1*
X5343Y33613D1*
X5467Y33597D1*
X5585Y33557D1*
X5694Y33496D1*
X5789Y33415D1*
X5873Y33307D1*
X5958Y33389D1*
X6066Y33451D1*
X6186Y33488D1*
X6282Y33496D1*
X7187Y33491D1*
X7307Y33459D1*
X7414Y33402D1*
X7516Y33468D1*
X7632Y33513D1*
X7798Y33536D1*
X8549Y33531D1*
X8670Y33502D1*
X8783Y33449D1*
X8884Y33375D1*
X8967Y33282D1*
X9030Y33175D1*
X9071Y33057D1*
X9087Y32917D1*
X9074Y32792D1*
X9037Y32673D1*
X8977Y32564D1*
X8896Y32469D1*
X8797Y32392D1*
X8686Y32337D1*
X8565Y32305D1*
X8343Y32297D1*
X7771Y32298D1*
X7648Y32316D1*
X7530Y32358D1*
X7424Y32423D1*
X7364Y32479D1*
X7257Y32436D1*
X7133Y32416D1*
X6232Y32418D1*
X6110Y32444D1*
X5997Y32497D1*
X5899Y32575D1*
X5872Y32601D1*
X5795Y32503D1*
X5700Y32421D1*
X5593Y32358D1*
X5475Y32317D1*
X5351Y32299D1*
X5226Y32304D1*
X5105Y32333D1*
X4991Y32385D1*
X4889Y32457D1*
X4803Y32547D1*
X4735Y32651D1*
X4688Y32767D1*
X4663Y32889D1*
Y33014D1*
X4679Y33102D1*
X6164Y30745D2*
X6137Y30623D1*
X6093Y30506D1*
X6031Y30397D1*
X5955Y30298D1*
X5865Y30212D1*
X5764Y30139D1*
X5653Y30082D1*
X5534Y30042D1*
X5412Y30019D1*
X5287Y30014D1*
X5163Y30028D1*
X5042Y30060D1*
X4927Y30108D1*
X4820Y30173D1*
X4724Y30253D1*
X4641Y30346D1*
X4572Y30450D1*
X4519Y30563D1*
X4483Y30683D1*
X4465Y30807D1*
Y30931D1*
X4483Y31055D1*
X4519Y31175D1*
X4572Y31288D1*
X4641Y31392D1*
X4724Y31485D1*
X4820Y31565D1*
X4926Y31630D1*
X5041Y31679D1*
X5162Y31711D1*
X5286Y31724D1*
X5411Y31720D1*
X5534Y31697D1*
X5652Y31657D1*
X5763Y31600D1*
X5865Y31527D1*
X5955Y31441D1*
X6031Y31342D1*
X6092Y31233D1*
X6137Y31116D1*
X6164Y30994D1*
X6173Y30869D1*
X6164Y30745D1*
Y36886D2*
X6137Y36765D1*
X6093Y36648D1*
X6031Y36539D1*
X5955Y36440D1*
X5865Y36353D1*
X5764Y36281D1*
X5653Y36224D1*
X5534Y36183D1*
X5412Y36161D1*
X5287Y36156D1*
X5163Y36170D1*
X5042Y36201D1*
X4927Y36250D1*
X4820Y36315D1*
X4724Y36395D1*
X4641Y36488D1*
X4572Y36592D1*
X4519Y36705D1*
X4483Y36825D1*
X4465Y36948D1*
Y37073D1*
X4483Y37197D1*
X4519Y37316D1*
X4572Y37429D1*
X4641Y37534D1*
X4724Y37627D1*
X4820Y37707D1*
X4926Y37772D1*
X5041Y37821D1*
X5162Y37852D1*
X5286Y37866D1*
X5411Y37861D1*
X5534Y37839D1*
X5652Y37799D1*
X5763Y37742D1*
X5865Y37669D1*
X5955Y37582D1*
X6031Y37484D1*
X6092Y37375D1*
X6137Y37258D1*
X6164Y37136D1*
X6173Y37011D1*
X6164Y36886D1*
X9604Y30745D2*
X9562Y30628D1*
X9493Y30524D1*
X9403Y30438D1*
X9296Y30375D1*
X9176Y30338D1*
X8953Y30329D1*
X8225D1*
X8102Y30350D1*
X7987Y30398D1*
X7886Y30471D1*
X7804Y30565D1*
X7746Y30675D1*
X7715Y30796D1*
X7713Y30921D1*
X7739Y31043D1*
X7792Y31156D1*
X7870Y31253D1*
X7968Y31330D1*
X8081Y31383D1*
X8251Y31410D1*
X9155Y31404D1*
X9276Y31372D1*
X9386Y31314D1*
X9479Y31231D1*
X9552Y31130D1*
X9599Y31014D1*
X9618Y30869D1*
X9604Y30745D1*
Y36887D2*
X9562Y36770D1*
X9493Y36665D1*
X9403Y36579D1*
X9296Y36516D1*
X9176Y36480D1*
X8953Y36470D1*
X8225Y36471D1*
X8102Y36491D1*
X7987Y36539D1*
X7886Y36612D1*
X7804Y36707D1*
X7746Y36817D1*
X7715Y36938D1*
X7713Y37063D1*
X7739Y37185D1*
X7792Y37297D1*
X7870Y37395D1*
X7968Y37472D1*
X8081Y37524D1*
X8251Y37552D1*
X9155Y37546D1*
X9276Y37514D1*
X9386Y37455D1*
X9479Y37373D1*
X9552Y37271D1*
X9599Y37156D1*
X9618Y37011D1*
X9604Y36887D1*
X7571Y31553D2*
X7555Y31429D1*
X7516Y31310D1*
X7457Y31201D1*
X7378Y31104D1*
X7283Y31023D1*
X7175Y30961D1*
X7057Y30920D1*
X6933Y30901D1*
X6809Y30905D1*
X6687Y30932D1*
X6572Y30980D1*
X6468Y31049D1*
X6378Y31136D1*
X6306Y31238D1*
X6253Y31351D1*
X6223Y31472D1*
X6215Y31597D1*
X6230Y31721D1*
X6267Y31840D1*
X6325Y31950D1*
X6403Y32048D1*
X6498Y32129D1*
X6605Y32192D1*
X6723Y32235D1*
X6846Y32255D1*
X6971Y32252D1*
X7093Y32226D1*
X7208Y32178D1*
X7313Y32111D1*
X7403Y32025D1*
X7477Y31923D1*
X7530Y31811D1*
X7562Y31690D1*
X7571Y31553D1*
X8756Y23324D2*
X8714Y23207D1*
X8646Y23102D1*
X8556Y23015D1*
X8449Y22952D1*
X8330Y22914D1*
X8206Y22904D1*
X8083Y22923D1*
X7967Y22969D1*
X7865Y23040D1*
X7836Y23072D1*
X7728Y22987D1*
X7615Y22933D1*
X7493Y22906D1*
X7369Y22908D1*
X7248Y22938D1*
X7137Y22995D1*
X7041Y23075D1*
X6967Y23175D1*
X6917Y23290D1*
X6895Y23412D1*
X6901Y23537D1*
X6935Y23657D1*
X6996Y23766D1*
X7080Y23858D1*
X7183Y23929D1*
X7206Y23940D1*
X7077Y24025D1*
X6994Y24117D1*
X6934Y24227D1*
X6900Y24347D1*
X6895Y24472D1*
X6918Y24594D1*
X6969Y24708D1*
X7044Y24808D1*
X7140Y24888D1*
X7251Y24944D1*
X7372Y24973D1*
X7497Y24974D1*
X7619Y24946D1*
X7731Y24891D1*
X7830Y24810D1*
X7927Y24888D1*
X8038Y24944D1*
X8160Y24973D1*
X8284Y24974D1*
X8406Y24946D1*
X8518Y24891D1*
X8615Y24813D1*
X8691Y24714D1*
X8743Y24601D1*
X8770Y24432D1*
X8756Y24308D1*
X8714Y24191D1*
X8646Y24086D1*
X8556Y24000D1*
X8459Y23942D1*
X8518Y23907D1*
X8615Y23829D1*
X8691Y23730D1*
X8743Y23617D1*
X8770Y23448D1*
X8756Y23324D1*
X7277Y26186D2*
X7252Y26063D1*
X7210Y25946D1*
X7153Y25835D1*
X7081Y25733D1*
X6995Y25642D1*
X6898Y25563D1*
X6792Y25498D1*
X6677Y25448D1*
X6557Y25415D1*
X6433Y25398D1*
X6308D1*
X6184Y25415D1*
X6064Y25449D1*
X5950Y25499D1*
X5843Y25564D1*
X5746Y25643D1*
X5661Y25734D1*
X5589Y25836D1*
X5532Y25947D1*
X5490Y26065D1*
X5465Y26187D1*
X5457Y26312D1*
X5465Y26437D1*
X5491Y26559D1*
X5533Y26676D1*
X5591Y26787D1*
X5663Y26889D1*
X5749Y26980D1*
X5846Y27059D1*
X5952Y27123D1*
X6067Y27173D1*
X6188Y27206D1*
X6311Y27223D1*
X6436D1*
X6560Y27205D1*
X6680Y27171D1*
X6795Y27121D1*
X6901Y27056D1*
X6998Y26977D1*
X7083Y26885D1*
X7154Y26783D1*
X7211Y26672D1*
X7253Y26554D1*
X7278Y26432D1*
X7286Y26310D1*
X7277Y26186D1*
Y21445D2*
X7252Y21323D1*
X7210Y21206D1*
X7153Y21095D1*
X7081Y20993D1*
X6995Y20901D1*
X6898Y20823D1*
X6792Y20758D1*
X6677Y20708D1*
X6557Y20674D1*
X6433Y20658D1*
X6308D1*
X6184Y20675D1*
X6064Y20709D1*
X5950Y20759D1*
X5843Y20824D1*
X5746Y20903D1*
X5661Y20994D1*
X5589Y21096D1*
X5532Y21207D1*
X5490Y21325D1*
X5465Y21447D1*
X5457Y21572D1*
X5465Y21696D1*
X5491Y21819D1*
X5533Y21936D1*
X5591Y22047D1*
X5663Y22149D1*
X5749Y22240D1*
X5846Y22319D1*
X5952Y22383D1*
X6067Y22433D1*
X6188Y22466D1*
X6311Y22483D1*
X6436Y22482D1*
X6560Y22465D1*
X6680Y22431D1*
X6795Y22381D1*
X6901Y22316D1*
X6998Y22237D1*
X7083Y22145D1*
X7154Y22043D1*
X7211Y21932D1*
X7253Y21814D1*
X7278Y21691D1*
X7286Y21570D1*
X7277Y21445D1*
X38207Y35366D2*
X38166Y35248D1*
X38100Y35143D1*
X38012Y35054D1*
X37914Y34987D1*
X38019Y34919D1*
X38106Y34829D1*
X38171Y34723D1*
X38211Y34605D1*
X38224Y34485D1*
X38210Y34361D1*
X38169Y34244D1*
X38103Y34138D1*
X38015Y34049D1*
X37910Y33982D1*
X37792Y33940D1*
X37668Y33925D1*
X37544Y33938D1*
X37426Y33978D1*
X37320Y34043D1*
X37230Y34130D1*
X37162Y34235D1*
X37119Y34352D1*
X37103Y34475D1*
X37115Y34599D1*
X37154Y34718D1*
X37218Y34825D1*
X37304Y34915D1*
X37408Y34984D1*
X37317Y35048D1*
X37227Y35135D1*
X37159Y35239D1*
X37116Y35356D1*
X37100Y35480D1*
X37112Y35604D1*
X37150Y35723D1*
X37215Y35830D1*
X37301Y35920D1*
X37408Y35990D1*
X37317Y36048D1*
X37227Y36135D1*
X37159Y36239D1*
X37116Y36356D1*
X37100Y36480D1*
X37112Y36604D1*
X37150Y36723D1*
X37215Y36830D1*
X37301Y36920D1*
X37408Y36990D1*
X37317Y37048D1*
X37227Y37135D1*
X37159Y37239D1*
X37116Y37356D1*
X37100Y37480D1*
X37112Y37604D1*
X37150Y37723D1*
X37215Y37830D1*
X37301Y37920D1*
X37408Y37990D1*
X37317Y38048D1*
X37227Y38135D1*
X37159Y38239D1*
X37116Y38356D1*
X37100Y38480D1*
X37112Y38604D1*
X37150Y38723D1*
X37215Y38830D1*
X37301Y38920D1*
X37416Y38993D1*
X37320Y39053D1*
X37230Y39140D1*
X37162Y39245D1*
X37119Y39362D1*
X37103Y39485D1*
X37115Y39609D1*
X37154Y39728D1*
X37218Y39835D1*
X37304Y39925D1*
X37408Y39994D1*
X37525Y40038D1*
X37648Y40056D1*
X37772Y40045D1*
X37891Y40007D1*
X37999Y39944D1*
X38090Y39859D1*
X38160Y39755D1*
X38205Y39639D1*
X38223Y39516D1*
X38215Y39396D1*
X38179Y39276D1*
X38118Y39168D1*
X38034Y39075D1*
X37932Y39004D1*
X37909Y38992D1*
X37996Y38939D1*
X38087Y38853D1*
X38156Y38750D1*
X38202Y38634D1*
X38220Y38490D1*
X38207Y38366D1*
X38166Y38248D1*
X38100Y38143D1*
X38012Y38054D1*
X37910Y37989D1*
X37996Y37939D1*
X38087Y37853D1*
X38156Y37750D1*
X38202Y37634D1*
X38220Y37490D1*
X38207Y37366D1*
X38166Y37248D1*
X38100Y37143D1*
X38012Y37054D1*
X37910Y36989D1*
X37996Y36939D1*
X38087Y36853D1*
X38156Y36750D1*
X38202Y36634D1*
X38220Y36490D1*
X38207Y36366D1*
X38166Y36248D1*
X38100Y36143D1*
X38012Y36054D1*
X37910Y35989D1*
X37996Y35939D1*
X38087Y35853D1*
X38156Y35750D1*
X38202Y35634D1*
X38220Y35490D1*
X38207Y35366D1*
Y27306D2*
X38166Y27188D1*
X38100Y27083D1*
X38012Y26994D1*
X37914Y26927D1*
X38019Y26859D1*
X38106Y26769D1*
X38171Y26663D1*
X38211Y26545D1*
X38224Y26425D1*
X38210Y26301D1*
X38169Y26184D1*
X38103Y26078D1*
X38015Y25989D1*
X37910Y25922D1*
X37792Y25880D1*
X37668Y25865D1*
X37544Y25878D1*
X37426Y25918D1*
X37320Y25983D1*
X37230Y26070D1*
X37162Y26175D1*
X37119Y26292D1*
X37103Y26415D1*
X37115Y26539D1*
X37154Y26658D1*
X37218Y26765D1*
X37304Y26855D1*
X37408Y26924D1*
X37317Y26988D1*
X37227Y27075D1*
X37159Y27179D1*
X37116Y27296D1*
X37100Y27420D1*
X37112Y27544D1*
X37150Y27663D1*
X37215Y27770D1*
X37301Y27860D1*
X37408Y27930D1*
X37317Y27988D1*
X37227Y28075D1*
X37159Y28179D1*
X37116Y28296D1*
X37100Y28420D1*
X37112Y28544D1*
X37150Y28663D1*
X37215Y28770D1*
X37301Y28860D1*
X37408Y28930D1*
X37317Y28988D1*
X37227Y29075D1*
X37159Y29179D1*
X37116Y29296D1*
X37100Y29420D1*
X37112Y29544D1*
X37150Y29663D1*
X37215Y29770D1*
X37301Y29860D1*
X37408Y29930D1*
X37317Y29988D1*
X37227Y30075D1*
X37159Y30179D1*
X37116Y30296D1*
X37100Y30420D1*
X37112Y30544D1*
X37150Y30663D1*
X37215Y30770D1*
X37301Y30860D1*
X37416Y30933D1*
X37320Y30993D1*
X37230Y31080D1*
X37162Y31185D1*
X37119Y31302D1*
X37103Y31425D1*
X37115Y31549D1*
X37154Y31668D1*
X37218Y31775D1*
X37304Y31865D1*
X37408Y31934D1*
X37525Y31978D1*
X37648Y31996D1*
X37772Y31985D1*
X37891Y31947D1*
X37999Y31884D1*
X38090Y31799D1*
X38160Y31695D1*
X38205Y31579D1*
X38223Y31456D1*
X38215Y31336D1*
X38179Y31216D1*
X38118Y31108D1*
X38034Y31015D1*
X37932Y30944D1*
X37909Y30932D1*
X37996Y30879D1*
X38087Y30793D1*
X38156Y30690D1*
X38202Y30574D1*
X38220Y30430D1*
X38207Y30306D1*
X38166Y30188D1*
X38100Y30083D1*
X38012Y29994D1*
X37910Y29929D1*
X37996Y29879D1*
X38087Y29793D1*
X38156Y29690D1*
X38202Y29574D1*
X38220Y29430D1*
X38207Y29306D1*
X38166Y29188D1*
X38100Y29083D1*
X38012Y28994D1*
X37910Y28929D1*
X37996Y28879D1*
X38087Y28793D1*
X38156Y28690D1*
X38202Y28574D1*
X38220Y28430D1*
X38207Y28306D1*
X38166Y28188D1*
X38100Y28083D1*
X38012Y27994D1*
X37910Y27929D1*
X37996Y27879D1*
X38087Y27793D1*
X38156Y27690D1*
X38202Y27574D1*
X38220Y27430D1*
X38207Y27306D1*
X38194Y19325D2*
X38153Y19208D1*
X38087Y19102D1*
X37999Y19013D1*
X37901Y18946D1*
X38006Y18878D1*
X38093Y18789D1*
X38158Y18682D1*
X38198Y18564D1*
X38211Y18445D1*
X38197Y18321D1*
X38156Y18203D1*
X38090Y18097D1*
X38002Y18009D1*
X37897Y17942D1*
X37780Y17899D1*
X37656Y17884D1*
X37532Y17897D1*
X37413Y17937D1*
X37307Y18002D1*
X37218Y18089D1*
X37150Y18194D1*
X37107Y18311D1*
X37090Y18435D1*
X37102Y18559D1*
X37141Y18677D1*
X37205Y18784D1*
X37291Y18875D1*
X37395Y18943D1*
X37304Y19007D1*
X37214Y19094D1*
X37146Y19199D1*
X37103Y19316D1*
X37087Y19439D1*
X37099Y19564D1*
X37138Y19682D1*
X37202Y19789D1*
X37288Y19879D1*
X37396Y19950D1*
X37304Y20007D1*
X37214Y20094D1*
X37146Y20199D1*
X37103Y20316D1*
X37087Y20439D1*
X37099Y20564D1*
X37138Y20682D1*
X37202Y20789D1*
X37288Y20879D1*
X37396Y20950D1*
X37304Y21007D1*
X37214Y21094D1*
X37146Y21199D1*
X37103Y21316D1*
X37087Y21439D1*
X37099Y21564D1*
X37138Y21682D1*
X37202Y21789D1*
X37288Y21879D1*
X37396Y21950D1*
X37304Y22007D1*
X37214Y22094D1*
X37146Y22199D1*
X37103Y22316D1*
X37087Y22439D1*
X37099Y22564D1*
X37138Y22682D1*
X37202Y22789D1*
X37288Y22879D1*
X37403Y22952D1*
X37307Y23012D1*
X37218Y23099D1*
X37150Y23204D1*
X37107Y23321D1*
X37090Y23445D1*
X37102Y23569D1*
X37141Y23687D1*
X37205Y23794D1*
X37291Y23885D1*
X37395Y23953D1*
X37512Y23998D1*
X37635Y24015D1*
X37760Y24004D1*
X37879Y23967D1*
X37986Y23903D1*
X38077Y23818D1*
X38147Y23715D1*
X38192Y23598D1*
X38211Y23475D1*
X38202Y23355D1*
X38166Y23236D1*
X38105Y23127D1*
X38021Y23035D1*
X37919Y22963D1*
X37896Y22951D1*
X37983Y22898D1*
X38074Y22813D1*
X38144Y22709D1*
X38189Y22593D1*
X38208Y22449D1*
X38194Y22325D1*
X38153Y22208D1*
X38087Y22102D1*
X37999Y22013D1*
X37897Y21948D1*
X37983Y21898D1*
X38074Y21813D1*
X38144Y21709D1*
X38189Y21593D1*
X38208Y21449D1*
X38194Y21325D1*
X38153Y21208D1*
X38087Y21102D1*
X37999Y21013D1*
X37897Y20948D1*
X37983Y20898D1*
X38074Y20813D1*
X38144Y20709D1*
X38189Y20593D1*
X38208Y20449D1*
X38194Y20325D1*
X38153Y20208D1*
X38087Y20102D1*
X37999Y20013D1*
X37897Y19948D1*
X37983Y19898D1*
X38074Y19813D1*
X38144Y19709D1*
X38189Y19593D1*
X38208Y19449D1*
X38194Y19325D1*
X38197Y11346D2*
X38156Y11228D1*
X38090Y11123D1*
X38002Y11034D1*
X37904Y10967D1*
X38009Y10899D1*
X38096Y10809D1*
X38161Y10703D1*
X38201Y10585D1*
X38214Y10465D1*
X38200Y10341D1*
X38159Y10224D1*
X38093Y10118D1*
X38005Y10029D1*
X37900Y9962D1*
X37782Y9920D1*
X37658Y9905D1*
X37534Y9918D1*
X37416Y9958D1*
X37310Y10023D1*
X37220Y10110D1*
X37152Y10215D1*
X37109Y10332D1*
X37093Y10455D1*
X37105Y10579D1*
X37144Y10698D1*
X37208Y10805D1*
X37294Y10895D1*
X37398Y10964D1*
X37307Y11028D1*
X37217Y11115D1*
X37149Y11219D1*
X37106Y11336D1*
X37090Y11460D1*
X37102Y11584D1*
X37140Y11703D1*
X37205Y11810D1*
X37291Y11900D1*
X37398Y11970D1*
X37307Y12028D1*
X37217Y12115D1*
X37149Y12219D1*
X37106Y12336D1*
X37090Y12460D1*
X37102Y12584D1*
X37140Y12703D1*
X37205Y12810D1*
X37291Y12900D1*
X37398Y12970D1*
X37307Y13028D1*
X37217Y13115D1*
X37149Y13219D1*
X37106Y13336D1*
X37090Y13460D1*
X37102Y13584D1*
X37140Y13703D1*
X37205Y13810D1*
X37291Y13900D1*
X37398Y13970D1*
X37307Y14028D1*
X37217Y14115D1*
X37149Y14219D1*
X37106Y14336D1*
X37090Y14460D1*
X37102Y14584D1*
X37140Y14703D1*
X37205Y14810D1*
X37291Y14900D1*
X37406Y14973D1*
X37310Y15033D1*
X37220Y15120D1*
X37152Y15225D1*
X37109Y15342D1*
X37093Y15465D1*
X37105Y15589D1*
X37144Y15708D1*
X37208Y15815D1*
X37294Y15905D1*
X37398Y15974D1*
X37515Y16018D1*
X37638Y16036D1*
X37762Y16025D1*
X37881Y15987D1*
X37989Y15924D1*
X38080Y15839D1*
X38150Y15735D1*
X38195Y15619D1*
X38213Y15496D1*
X38205Y15376D1*
X38169Y15256D1*
X38108Y15148D1*
X38024Y15055D1*
X37922Y14984D1*
X37899Y14972D1*
X37986Y14919D1*
X38077Y14833D1*
X38146Y14730D1*
X38192Y14614D1*
X38210Y14470D1*
X38197Y14346D1*
X38156Y14228D1*
X38090Y14123D1*
X38002Y14034D1*
X37900Y13969D1*
X37986Y13919D1*
X38077Y13833D1*
X38146Y13730D1*
X38192Y13614D1*
X38210Y13470D1*
X38197Y13346D1*
X38156Y13228D1*
X38090Y13123D1*
X38002Y13034D1*
X37900Y12969D1*
X37986Y12919D1*
X38077Y12833D1*
X38146Y12730D1*
X38192Y12614D1*
X38210Y12470D1*
X38197Y12346D1*
X38156Y12228D1*
X38090Y12123D1*
X38002Y12034D1*
X37900Y11969D1*
X37986Y11919D1*
X38077Y11833D1*
X38146Y11730D1*
X38192Y11614D1*
X38210Y11470D1*
X38197Y11346D1*
X10935Y41896D2*
X10905Y41775D1*
X10855Y41660D1*
X10787Y41555D1*
X10704Y41462D1*
X10606Y41385D1*
X10497Y41324D1*
X10379Y41282D1*
X10257Y41259D1*
X10132Y41257D1*
X10008Y41275D1*
X9889Y41313D1*
X9778Y41369D1*
X9678Y41443D1*
X9590Y41533D1*
X9519Y41635D1*
X9465Y41748D1*
X9430Y41868D1*
X9416Y41992D1*
X9421Y42117D1*
X9447Y42239D1*
X9492Y42355D1*
X9556Y42463D1*
X9636Y42558D1*
X9731Y42639D1*
X9838Y42704D1*
X9954Y42751D1*
X10076Y42778D1*
X10200Y42785D1*
X10324Y42771D1*
X10445Y42738D1*
X10558Y42685D1*
X10661Y42615D1*
X10751Y42529D1*
X10827Y42429D1*
X10885Y42319D1*
X10924Y42200D1*
X10945Y42020D1*
X10935Y41896D1*
X12495D2*
X12465Y41775D1*
X12415Y41660D1*
X12347Y41555D1*
X12264Y41462D1*
X12166Y41385D1*
X12057Y41324D1*
X11939Y41282D1*
X11817Y41259D1*
X11692Y41257D1*
X11568Y41275D1*
X11449Y41313D1*
X11338Y41369D1*
X11238Y41443D1*
X11150Y41533D1*
X11079Y41635D1*
X11025Y41748D1*
X10990Y41868D1*
X10976Y41992D1*
X10981Y42117D1*
X11007Y42239D1*
X11052Y42355D1*
X11116Y42463D1*
X11196Y42558D1*
X11291Y42639D1*
X11398Y42704D1*
X11514Y42751D1*
X11636Y42778D1*
X11760Y42785D1*
X11884Y42771D1*
X12005Y42738D1*
X12118Y42685D1*
X12221Y42615D1*
X12311Y42529D1*
X12387Y42429D1*
X12445Y42319D1*
X12484Y42200D1*
X12505Y42020D1*
X12495Y41896D1*
X17545D2*
X17515Y41775D1*
X17465Y41660D1*
X17397Y41555D1*
X17314Y41462D1*
X17216Y41385D1*
X17107Y41324D1*
X16989Y41282D1*
X16867Y41259D1*
X16742Y41257D1*
X16618Y41275D1*
X16499Y41313D1*
X16388Y41369D1*
X16288Y41443D1*
X16200Y41533D1*
X16129Y41635D1*
X16075Y41748D1*
X16040Y41868D1*
X16026Y41992D1*
X16031Y42117D1*
X16057Y42239D1*
X16102Y42355D1*
X16166Y42463D1*
X16246Y42558D1*
X16341Y42639D1*
X16448Y42704D1*
X16564Y42751D1*
X16686Y42778D1*
X16810Y42785D1*
X16934Y42771D1*
X17055Y42738D1*
X17168Y42685D1*
X17271Y42615D1*
X17361Y42529D1*
X17437Y42429D1*
X17495Y42319D1*
X17534Y42200D1*
X17555Y42020D1*
X17545Y41896D1*
X19105D2*
X19075Y41775D1*
X19025Y41660D1*
X18957Y41555D1*
X18874Y41462D1*
X18776Y41385D1*
X18667Y41324D1*
X18549Y41282D1*
X18427Y41259D1*
X18302Y41257D1*
X18178Y41275D1*
X18059Y41313D1*
X17948Y41369D1*
X17848Y41443D1*
X17760Y41533D1*
X17689Y41635D1*
X17635Y41748D1*
X17600Y41868D1*
X17586Y41992D1*
X17591Y42117D1*
X17617Y42239D1*
X17662Y42355D1*
X17726Y42463D1*
X17806Y42558D1*
X17901Y42639D1*
X18008Y42704D1*
X18124Y42751D1*
X18246Y42778D1*
X18370Y42785D1*
X18494Y42771D1*
X18615Y42738D1*
X18728Y42685D1*
X18831Y42615D1*
X18921Y42529D1*
X18997Y42429D1*
X19055Y42319D1*
X19094Y42200D1*
X19115Y42020D1*
X19105Y41896D1*
X20449Y41638D2*
X20390Y41543D1*
X20302Y41454D1*
X20197Y41387D1*
X20079Y41345D1*
X19955Y41330D1*
X19831Y41343D1*
X19713Y41383D1*
X19607Y41448D1*
X19517Y41535D1*
X19449Y41639D1*
X19406Y41756D1*
X19390Y41880D1*
X19402Y42004D1*
X19440Y42123D1*
X19505Y42230D1*
X19591Y42320D1*
X19695Y42389D1*
X19811Y42433D1*
X19935Y42450D1*
X20059Y42440D1*
X20178Y42402D1*
X20286Y42339D1*
X20377Y42253D1*
X20451Y42139D1*
X20505Y42230D1*
X20591Y42320D1*
X20695Y42389D1*
X20811Y42433D1*
X20935Y42450D1*
X21059Y42440D1*
X21178Y42402D1*
X21286Y42339D1*
X21377Y42253D1*
X21446Y42150D1*
X21492Y42034D1*
X21510Y41890D1*
X21497Y41766D1*
X21456Y41648D1*
X21390Y41543D1*
X21302Y41454D1*
X21197Y41387D1*
X21079Y41345D1*
X20955Y41330D1*
X20831Y41343D1*
X20713Y41383D1*
X20607Y41448D1*
X20517Y41535D1*
X20451Y41636D1*
X37777Y6266D2*
X37736Y6148D1*
X37670Y6043D1*
X37582Y5954D1*
X37477Y5887D1*
X37359Y5845D1*
X37235Y5830D1*
X37111Y5843D1*
X36993Y5883D1*
X36887Y5948D1*
X36797Y6035D1*
X36731Y6136D1*
X36670Y6043D1*
X36582Y5954D1*
X36477Y5887D1*
X36359Y5845D1*
X36235Y5830D1*
X36111Y5843D1*
X35993Y5883D1*
X35887Y5948D1*
X35797Y6035D1*
X35731Y6136D1*
X35654Y6023D1*
X35562Y5939D1*
X35454Y5876D1*
X35335Y5840D1*
X35210Y5830D1*
X35087Y5849D1*
X34971Y5894D1*
X34867Y5963D1*
X34782Y6054D1*
X34719Y6162D1*
X34681Y6281D1*
X34670Y6405D1*
X34687Y6529D1*
X34731Y6645D1*
X34800Y6749D1*
X34890Y6836D1*
X34997Y6900D1*
X35116Y6939D1*
X35240Y6950D1*
X35364Y6934D1*
X35481Y6891D1*
X35585Y6823D1*
X35672Y6734D1*
X35730Y6642D1*
X35785Y6730D1*
X35871Y6820D1*
X35975Y6889D1*
X36091Y6933D1*
X36215Y6950D1*
X36339Y6940D1*
X36458Y6902D1*
X36566Y6839D1*
X36657Y6753D1*
X36731Y6639D1*
X36785Y6730D1*
X36871Y6820D1*
X36975Y6889D1*
X37091Y6933D1*
X37215Y6950D1*
X37339Y6940D1*
X37458Y6902D1*
X37566Y6839D1*
X37657Y6753D1*
X37726Y6650D1*
X37772Y6534D1*
X37790Y6390D1*
X37777Y6266D1*
X29687Y6296D2*
X29646Y6178D1*
X29580Y6073D1*
X29492Y5984D1*
X29387Y5917D1*
X29269Y5875D1*
X29145Y5860D1*
X29021Y5873D1*
X28903Y5913D1*
X28797Y5978D1*
X28707Y6065D1*
X28641Y6166D1*
X28580Y6073D1*
X28492Y5984D1*
X28387Y5917D1*
X28269Y5875D1*
X28145Y5860D1*
X28021Y5873D1*
X27903Y5913D1*
X27797Y5978D1*
X27707Y6065D1*
X27641Y6166D1*
X27564Y6053D1*
X27472Y5969D1*
X27364Y5906D1*
X27245Y5870D1*
X27120Y5860D1*
X26997Y5879D1*
X26881Y5924D1*
X26777Y5993D1*
X26692Y6084D1*
X26629Y6192D1*
X26591Y6311D1*
X26580Y6435D1*
X26597Y6559D1*
X26641Y6675D1*
X26710Y6779D1*
X26800Y6866D1*
X26907Y6930D1*
X27026Y6969D1*
X27150Y6980D1*
X27274Y6964D1*
X27391Y6921D1*
X27495Y6853D1*
X27582Y6764D1*
X27640Y6672D1*
X27695Y6760D1*
X27781Y6850D1*
X27885Y6919D1*
X28001Y6963D1*
X28125Y6980D1*
X28249Y6970D1*
X28368Y6932D1*
X28476Y6869D1*
X28567Y6783D1*
X28641Y6669D1*
X28695Y6760D1*
X28781Y6850D1*
X28885Y6919D1*
X29001Y6963D1*
X29125Y6980D1*
X29249Y6970D1*
X29368Y6932D1*
X29476Y6869D1*
X29567Y6783D1*
X29636Y6680D1*
X29682Y6564D1*
X29700Y6420D1*
X29687Y6296D1*
X26317Y6266D2*
X26276Y6148D1*
X26210Y6043D1*
X26122Y5954D1*
X26017Y5887D1*
X25899Y5845D1*
X25775Y5830D1*
X25651Y5843D1*
X25533Y5883D1*
X25427Y5948D1*
X25337Y6035D1*
X25271Y6136D1*
X25210Y6043D1*
X25122Y5954D1*
X25017Y5887D1*
X24899Y5845D1*
X24775Y5830D1*
X24651Y5843D1*
X24533Y5883D1*
X24427Y5948D1*
X24337Y6035D1*
X24271Y6136D1*
X24194Y6023D1*
X24102Y5939D1*
X23994Y5876D1*
X23875Y5840D1*
X23750Y5830D1*
X23627Y5849D1*
X23511Y5894D1*
X23407Y5963D1*
X23322Y6054D1*
X23259Y6162D1*
X23221Y6281D1*
X23210Y6405D1*
X23227Y6529D1*
X23271Y6645D1*
X23340Y6749D1*
X23430Y6836D1*
X23537Y6900D1*
X23656Y6939D1*
X23780Y6950D1*
X23904Y6934D1*
X24021Y6891D1*
X24125Y6823D1*
X24212Y6734D1*
X24270Y6642D1*
X24325Y6730D1*
X24411Y6820D1*
X24515Y6889D1*
X24631Y6933D1*
X24755Y6950D1*
X24879Y6940D1*
X24998Y6902D1*
X25106Y6839D1*
X25197Y6753D1*
X25271Y6639D1*
X25325Y6730D1*
X25411Y6820D1*
X25515Y6889D1*
X25631Y6933D1*
X25755Y6950D1*
X25879Y6940D1*
X25998Y6902D1*
X26106Y6839D1*
X26197Y6753D1*
X26266Y6650D1*
X26312Y6534D1*
X26330Y6390D1*
X26317Y6266D1*
X22857D2*
X22816Y6148D1*
X22750Y6043D1*
X22662Y5954D1*
X22557Y5887D1*
X22439Y5845D1*
X22315Y5830D1*
X22191Y5843D1*
X22073Y5883D1*
X21967Y5948D1*
X21877Y6035D1*
X21811Y6136D1*
X21750Y6043D1*
X21662Y5954D1*
X21557Y5887D1*
X21439Y5845D1*
X21315Y5830D1*
X21191Y5843D1*
X21073Y5883D1*
X20967Y5948D1*
X20877Y6035D1*
X20811Y6136D1*
X20734Y6023D1*
X20642Y5939D1*
X20534Y5876D1*
X20415Y5840D1*
X20290Y5830D1*
X20167Y5849D1*
X20051Y5894D1*
X19947Y5963D1*
X19862Y6054D1*
X19799Y6162D1*
X19761Y6281D1*
X19750Y6405D1*
X19767Y6529D1*
X19811Y6645D1*
X19880Y6749D1*
X19970Y6836D1*
X20077Y6900D1*
X20196Y6939D1*
X20320Y6950D1*
X20444Y6934D1*
X20561Y6891D1*
X20665Y6823D1*
X20752Y6734D1*
X20810Y6642D1*
X20865Y6730D1*
X20951Y6820D1*
X21055Y6889D1*
X21171Y6933D1*
X21295Y6950D1*
X21419Y6940D1*
X21538Y6902D1*
X21646Y6839D1*
X21737Y6753D1*
X21811Y6639D1*
X21865Y6730D1*
X21951Y6820D1*
X22055Y6889D1*
X22171Y6933D1*
X22295Y6950D1*
X22419Y6940D1*
X22538Y6902D1*
X22646Y6839D1*
X22737Y6753D1*
X22806Y6650D1*
X22852Y6534D1*
X22870Y6390D1*
X22857Y6266D1*
X19577Y6256D2*
X19536Y6138D1*
X19470Y6033D1*
X19382Y5944D1*
X19277Y5877D1*
X19159Y5835D1*
X19035Y5820D1*
X18911Y5833D1*
X18793Y5873D1*
X18687Y5938D1*
X18597Y6025D1*
X18531Y6126D1*
X18454Y6013D1*
X18362Y5929D1*
X18254Y5866D1*
X18135Y5830D1*
X18010Y5820D1*
X17887Y5839D1*
X17771Y5884D1*
X17667Y5953D1*
X17582Y6044D1*
X17519Y6152D1*
X17481Y6271D1*
X17470Y6395D1*
X17487Y6519D1*
X17531Y6635D1*
X17600Y6739D1*
X17690Y6826D1*
X17797Y6890D1*
X17916Y6929D1*
X18040Y6940D1*
X18164Y6924D1*
X18281Y6881D1*
X18385Y6813D1*
X18472Y6724D1*
X18530Y6632D1*
X18585Y6720D1*
X18671Y6810D1*
X18775Y6879D1*
X18891Y6923D1*
X19015Y6940D1*
X19139Y6930D1*
X19258Y6892D1*
X19366Y6829D1*
X19457Y6743D1*
X19526Y6640D1*
X19572Y6524D1*
X19590Y6380D1*
X19577Y6256D1*
X17347Y6246D2*
X17306Y6128D1*
X17240Y6023D1*
X17152Y5934D1*
X17047Y5867D1*
X16929Y5825D1*
X16805Y5810D1*
X16681Y5823D1*
X16563Y5863D1*
X16457Y5928D1*
X16367Y6015D1*
X16301Y6116D1*
X16224Y6003D1*
X16132Y5919D1*
X16024Y5856D1*
X15905Y5820D1*
X15780Y5810D1*
X15657Y5829D1*
X15541Y5874D1*
X15437Y5943D1*
X15352Y6034D1*
X15289Y6142D1*
X15251Y6261D1*
X15240Y6385D1*
X15257Y6509D1*
X15301Y6625D1*
X15370Y6729D1*
X15460Y6816D1*
X15567Y6880D1*
X15686Y6919D1*
X15810Y6930D1*
X15934Y6914D1*
X16051Y6871D1*
X16155Y6803D1*
X16242Y6714D1*
X16300Y6622D1*
X16355Y6710D1*
X16441Y6800D1*
X16545Y6869D1*
X16661Y6913D1*
X16785Y6930D1*
X16909Y6920D1*
X17028Y6882D1*
X17136Y6819D1*
X17227Y6733D1*
X17296Y6630D1*
X17342Y6514D1*
X17360Y6370D1*
X17347Y6246D1*
X13095Y6566D2*
X13058Y6447D1*
X12997Y6338D1*
X12916Y6243D1*
X12817Y6167D1*
X12705Y6111D1*
X12585Y6080D1*
X12460Y6074D1*
X12337Y6092D1*
X12219Y6135D1*
X12113Y6201D1*
X12023Y6287D1*
X11994Y6328D1*
X11897Y6226D1*
X11796Y6154D1*
X11682Y6103D1*
X11560Y6077D1*
X11435Y6075D1*
X11312Y6099D1*
X11197Y6147D1*
X11094Y6217D1*
X11007Y6306D1*
X10990Y6328D1*
X10916Y6243D1*
X10817Y6167D1*
X10705Y6111D1*
X10585Y6080D1*
X10460Y6074D1*
X10337Y6092D1*
X10219Y6135D1*
X10113Y6201D1*
X10023Y6287D1*
X9951Y6389D1*
X9902Y6504D1*
X9876Y6626D1*
Y6751D1*
X9900Y6873D1*
X9949Y6988D1*
X10020Y7090D1*
X10110Y7177D1*
X10216Y7243D1*
X10333Y7287D1*
X10456Y7307D1*
X10581Y7301D1*
X10702Y7270D1*
X10814Y7216D1*
X10913Y7140D1*
X10992Y7049D1*
X11037Y7109D1*
X11130Y7192D1*
X11238Y7254D1*
X11357Y7293D1*
X11481Y7307D1*
X11605Y7297D1*
X11725Y7261D1*
X11835Y7202D1*
X11931Y7123D1*
X11991Y7051D1*
X12110Y7177D1*
X12216Y7243D1*
X12333Y7287D1*
X12456Y7307D1*
X12581Y7301D1*
X12702Y7270D1*
X12814Y7216D1*
X12913Y7140D1*
X12995Y7046D1*
X13056Y6937D1*
X13094Y6818D1*
X13108Y6690D1*
X13095Y6566D1*
X15073Y6266D2*
X15050Y6144D1*
X15011Y6025D1*
X14958Y5912D1*
X14891Y5806D1*
X14811Y5710D1*
X14720Y5625D1*
X14618Y5552D1*
X14509Y5492D1*
X14393Y5446D1*
X14271Y5415D1*
X14147Y5400D1*
X14023Y5401D1*
X13899Y5417D1*
X13778Y5448D1*
X13662Y5495D1*
X13553Y5556D1*
X13452Y5630D1*
X13361Y5716D1*
X13282Y5812D1*
X13216Y5918D1*
X13164Y6031D1*
X13126Y6150D1*
X13103Y6273D1*
X13096Y6398D1*
X13105Y6523D1*
X13129Y6645D1*
X13169Y6764D1*
X13223Y6876D1*
X13291Y6981D1*
X13371Y7077D1*
X13463Y7161D1*
X13565Y7234D1*
X13675Y7293D1*
X13791Y7338D1*
X13913Y7368D1*
X14037Y7382D1*
X14162Y7381D1*
X14285Y7364D1*
X14406Y7331D1*
X14522Y7284D1*
X14630Y7222D1*
X14731Y7148D1*
X14821Y7061D1*
X14899Y6964D1*
X14965Y6858D1*
X15016Y6744D1*
X15053Y6625D1*
X15075Y6501D1*
X15081Y6391D1*
X15073Y6266D1*
X9876D2*
X9853Y6144D1*
X9814Y6025D1*
X9761Y5912D1*
X9694Y5806D1*
X9614Y5710D1*
X9523Y5625D1*
X9422Y5552D1*
X9312Y5492D1*
X9196Y5446D1*
X9075Y5415D1*
X8951Y5400D1*
X8826Y5401D1*
X8702Y5417D1*
X8581Y5448D1*
X8465Y5495D1*
X8356Y5556D1*
X8255Y5630D1*
X8165Y5716D1*
X8085Y5812D1*
X8019Y5918D1*
X7967Y6031D1*
X7929Y6150D1*
X7906Y6273D1*
X7899Y6398D1*
X7908Y6523D1*
X7932Y6645D1*
X7972Y6764D1*
X8026Y6876D1*
X8094Y6981D1*
X8174Y7077D1*
X8266Y7161D1*
X8368Y7234D1*
X8478Y7293D1*
X8595Y7338D1*
X8716Y7368D1*
X8840Y7382D1*
X8965Y7381D1*
X9089Y7364D1*
X9209Y7331D1*
X9325Y7284D1*
X9434Y7222D1*
X9534Y7148D1*
X9624Y7061D1*
X9702Y6964D1*
X9768Y6858D1*
X9819Y6744D1*
X9856Y6625D1*
X9878Y6501D1*
X9884Y6391D1*
X9876Y6266D1*
X25089Y41658D2*
X25030Y41563D1*
X24942Y41474D1*
X24837Y41407D1*
X24719Y41365D1*
X24595Y41350D1*
X24471Y41363D1*
X24353Y41403D1*
X24247Y41468D1*
X24157Y41555D1*
X24089Y41659D1*
X24046Y41776D1*
X24030Y41900D1*
X24042Y42024D1*
X24080Y42143D1*
X24145Y42250D1*
X24231Y42340D1*
X24335Y42409D1*
X24451Y42453D1*
X24575Y42470D1*
X24699Y42460D1*
X24818Y42422D1*
X24926Y42359D1*
X25017Y42273D1*
X25091Y42159D1*
X25145Y42250D1*
X25231Y42340D1*
X25335Y42409D1*
X25451Y42453D1*
X25575Y42470D1*
X25699Y42460D1*
X25818Y42422D1*
X25926Y42359D1*
X26017Y42273D1*
X26086Y42170D1*
X26132Y42054D1*
X26150Y41910D1*
X26137Y41786D1*
X26096Y41668D1*
X26030Y41563D1*
X25942Y41474D1*
X25837Y41407D1*
X25719Y41365D1*
X25595Y41350D1*
X25471Y41363D1*
X25353Y41403D1*
X25247Y41468D1*
X25157Y41555D1*
X25091Y41656D1*
X22759Y41658D2*
X22700Y41563D1*
X22612Y41474D1*
X22507Y41407D1*
X22389Y41365D1*
X22265Y41350D1*
X22141Y41363D1*
X22023Y41403D1*
X21917Y41468D1*
X21827Y41555D1*
X21759Y41659D1*
X21716Y41776D1*
X21700Y41900D1*
X21712Y42024D1*
X21750Y42143D1*
X21815Y42250D1*
X21901Y42340D1*
X22005Y42409D1*
X22121Y42453D1*
X22245Y42470D1*
X22369Y42460D1*
X22488Y42422D1*
X22596Y42359D1*
X22687Y42273D1*
X22761Y42159D1*
X22815Y42250D1*
X22901Y42340D1*
X23005Y42409D1*
X23121Y42453D1*
X23245Y42470D1*
X23369Y42460D1*
X23488Y42422D1*
X23596Y42359D1*
X23687Y42273D1*
X23756Y42170D1*
X23802Y42054D1*
X23820Y41910D1*
X23807Y41786D1*
X23766Y41668D1*
X23700Y41563D1*
X23612Y41474D1*
X23507Y41407D1*
X23389Y41365D1*
X23265Y41350D1*
X23141Y41363D1*
X23023Y41403D1*
X22917Y41468D1*
X22827Y41555D1*
X22761Y41656D1*
X36929Y41678D2*
X36870Y41583D1*
X36782Y41494D1*
X36677Y41427D1*
X36559Y41385D1*
X36435Y41370D1*
X36311Y41383D1*
X36193Y41423D1*
X36087Y41488D1*
X35997Y41575D1*
X35929Y41679D1*
X35886Y41796D1*
X35870Y41920D1*
X35882Y42044D1*
X35920Y42163D1*
X35985Y42270D1*
X36071Y42360D1*
X36175Y42429D1*
X36291Y42473D1*
X36415Y42490D1*
X36539Y42480D1*
X36658Y42442D1*
X36766Y42379D1*
X36857Y42293D1*
X36931Y42179D1*
X36970Y42250D1*
X37052Y42343D1*
X37153Y42417D1*
X37267Y42466D1*
X37390Y42489D1*
X37515Y42484D1*
X37635Y42452D1*
X37745Y42393D1*
X37840Y42312D1*
X37914Y42212D1*
X37965Y42098D1*
X37989Y41975D1*
X37985Y41855D1*
X37955Y41734D1*
X37899Y41623D1*
X37819Y41527D1*
X37720Y41451D1*
X37607Y41399D1*
X37485Y41373D1*
X37360Y41374D1*
X37239Y41403D1*
X37127Y41459D1*
X37031Y41537D1*
X36954Y41636D1*
X36930Y41677D1*
X34669Y41668D2*
X34610Y41573D1*
X34522Y41484D1*
X34417Y41417D1*
X34299Y41375D1*
X34175Y41360D1*
X34051Y41373D1*
X33933Y41413D1*
X33827Y41478D1*
X33737Y41565D1*
X33669Y41669D1*
X33626Y41786D1*
X33610Y41910D1*
X33622Y42034D1*
X33660Y42153D1*
X33725Y42260D1*
X33811Y42350D1*
X33915Y42419D1*
X34031Y42463D1*
X34155Y42480D1*
X34279Y42470D1*
X34398Y42432D1*
X34506Y42369D1*
X34597Y42283D1*
X34671Y42169D1*
X34710Y42240D1*
X34792Y42333D1*
X34893Y42407D1*
X35007Y42456D1*
X35130Y42479D1*
X35255Y42474D1*
X35375Y42442D1*
X35485Y42383D1*
X35580Y42302D1*
X35654Y42202D1*
X35705Y42088D1*
X35729Y41965D1*
X35725Y41845D1*
X35695Y41724D1*
X35639Y41613D1*
X35559Y41517D1*
X35460Y41441D1*
X35347Y41389D1*
X35225Y41363D1*
X35100Y41364D1*
X34979Y41393D1*
X34867Y41449D1*
X34771Y41527D1*
X34694Y41626D1*
X34670Y41667D1*
X27999Y41678D2*
X27940Y41583D1*
X27852Y41494D1*
X27747Y41427D1*
X27629Y41385D1*
X27505Y41370D1*
X27381Y41383D1*
X27263Y41423D1*
X27157Y41488D1*
X27067Y41575D1*
X26999Y41679D1*
X26956Y41796D1*
X26940Y41920D1*
X26952Y42044D1*
X26990Y42163D1*
X27055Y42270D1*
X27141Y42360D1*
X27245Y42429D1*
X27361Y42473D1*
X27485Y42490D1*
X27609Y42480D1*
X27728Y42442D1*
X27836Y42379D1*
X27927Y42293D1*
X28001Y42179D1*
X28040Y42250D1*
X28122Y42343D1*
X28223Y42417D1*
X28337Y42466D1*
X28460Y42489D1*
X28585Y42484D1*
X28705Y42452D1*
X28815Y42393D1*
X28910Y42312D1*
X28984Y42212D1*
X29035Y42098D1*
X29059Y41975D1*
X29055Y41855D1*
X29025Y41734D1*
X28969Y41623D1*
X28889Y41527D1*
X28790Y41451D1*
X28677Y41399D1*
X28555Y41373D1*
X28430Y41374D1*
X28309Y41403D1*
X28197Y41459D1*
X28101Y41537D1*
X28024Y41636D1*
X28000Y41677D1*
X7811Y6315D2*
X7766Y6070D1*
X7677Y5836D1*
X7548Y5623D1*
X7382Y5436D1*
X7185Y5283D1*
X6964Y5167D1*
X6725Y5094D1*
X6477Y5064D1*
X6228Y5080D1*
X5986Y5141D1*
X5759Y5244D1*
X5554Y5387D1*
X5378Y5565D1*
X5237Y5771D1*
X5136Y5999D1*
X5078Y6242D1*
X5065Y6491D1*
X5097Y6739D1*
X5173Y6977D1*
X5291Y7197D1*
X5446Y7392D1*
X5634Y7556D1*
X5849Y7683D1*
X6084Y7769D1*
X6330Y7812D1*
X6579Y7809D1*
X6824Y7762D1*
X7057Y7671D1*
X7269Y7539D1*
X7454Y7371D1*
X7605Y7173D1*
X7718Y6950D1*
X7790Y6711D1*
X7816Y6463D1*
X7811Y6315D1*
X32811D2*
X32766Y6070D1*
X32677Y5836D1*
X32548Y5623D1*
X32382Y5436D1*
X32185Y5283D1*
X31964Y5167D1*
X31725Y5094D1*
X31477Y5064D1*
X31228Y5080D1*
X30986Y5141D1*
X30759Y5244D1*
X30554Y5387D1*
X30378Y5565D1*
X30237Y5771D1*
X30136Y5999D1*
X30078Y6242D1*
X30065Y6491D1*
X30097Y6739D1*
X30173Y6977D1*
X30291Y7197D1*
X30446Y7392D1*
X30634Y7556D1*
X30849Y7683D1*
X31084Y7769D1*
X31330Y7812D1*
X31579Y7809D1*
X31824Y7762D1*
X32057Y7671D1*
X32269Y7539D1*
X32454Y7371D1*
X32605Y7173D1*
X32718Y6950D1*
X32790Y6711D1*
X32816Y6463D1*
X32811Y6315D1*
Y41315D2*
X32766Y41070D1*
X32677Y40836D1*
X32548Y40623D1*
X32382Y40436D1*
X32185Y40283D1*
X31964Y40167D1*
X31725Y40094D1*
X31477Y40064D1*
X31228Y40080D1*
X30986Y40141D1*
X30759Y40244D1*
X30554Y40387D1*
X30378Y40565D1*
X30237Y40771D1*
X30136Y40999D1*
X30078Y41242D1*
X30065Y41491D1*
X30097Y41739D1*
X30173Y41977D1*
X30291Y42197D1*
X30446Y42392D1*
X30634Y42556D1*
X30849Y42683D1*
X31084Y42769D1*
X31330Y42812D1*
X31579Y42809D1*
X31824Y42762D1*
X32057Y42671D1*
X32269Y42539D1*
X32454Y42371D1*
X32605Y42173D1*
X32718Y41950D1*
X32790Y41711D1*
X32816Y41463D1*
X32811Y41315D1*
X7811D2*
X7766Y41070D1*
X7677Y40836D1*
X7548Y40623D1*
X7382Y40436D1*
X7185Y40283D1*
X6964Y40167D1*
X6725Y40094D1*
X6477Y40064D1*
X6228Y40080D1*
X5986Y40141D1*
X5759Y40244D1*
X5554Y40387D1*
X5378Y40565D1*
X5237Y40771D1*
X5136Y40999D1*
X5078Y41242D1*
X5065Y41491D1*
X5097Y41739D1*
X5173Y41977D1*
X5291Y42197D1*
X5446Y42392D1*
X5634Y42556D1*
X5849Y42683D1*
X6084Y42769D1*
X6330Y42812D1*
X6579Y42809D1*
X6824Y42762D1*
X7057Y42671D1*
X7269Y42539D1*
X7454Y42371D1*
X7605Y42173D1*
X7718Y41950D1*
X7790Y41711D1*
X7816Y41463D1*
X7811Y41315D1*
X28336Y30906D2*
X28291Y30790D1*
X28220Y30688D1*
X28164Y30639D1*
X28245Y30555D1*
X28308Y30448D1*
X28344Y30328D1*
X28351Y30243D1*
X28336Y30119D1*
X28291Y30003D1*
X28220Y29901D1*
X28164Y29852D1*
X28245Y29768D1*
X28308Y29661D1*
X28344Y29541D1*
X28351Y29455D1*
X28336Y29332D1*
X28291Y29215D1*
X28220Y29113D1*
X28164Y29065D1*
X28245Y28980D1*
X28308Y28873D1*
X28344Y28754D1*
X28351Y28668D1*
X28336Y28544D1*
X28291Y28428D1*
X28220Y28326D1*
X28164Y28277D1*
X28245Y28193D1*
X28308Y28086D1*
X28344Y27966D1*
X28351Y27856D1*
X28329Y27733D1*
X28279Y27619D1*
X28203Y27520D1*
X28104Y27443D1*
X27991Y27392D1*
X27868Y27370D1*
X27817D1*
X27835Y27250D1*
X27817Y27127D1*
X27764Y27014D1*
X27680Y26922D1*
X27573Y26858D1*
X27453Y26827D1*
X27328Y26833D1*
X27211Y26875D1*
X27111Y26949D1*
X27036Y27048D1*
X26994Y27166D1*
X26987Y27290D1*
X27017Y27411D1*
X27054Y27475D1*
X27016Y27528D1*
X26974Y27646D1*
X26967Y27770D1*
X26997Y27891D1*
X27060Y27998D1*
X27152Y28082D1*
X27264Y28136D1*
X27407Y28152D1*
X27474Y28237D1*
X27515Y28274D1*
X27448Y28340D1*
X27380Y28445D1*
X27340Y28563D1*
X27329Y28687D1*
X27349Y28810D1*
X27398Y28925D1*
X27474Y29024D1*
X27519Y29061D1*
X27448Y29128D1*
X27380Y29233D1*
X27340Y29351D1*
X27329Y29475D1*
X27349Y29598D1*
X27398Y29712D1*
X27474Y29812D1*
X27519Y29848D1*
X27448Y29915D1*
X27380Y30020D1*
X27340Y30138D1*
X27329Y30262D1*
X27349Y30385D1*
X27398Y30500D1*
X27474Y30599D1*
X27519Y30636D1*
X27448Y30703D1*
X27380Y30807D1*
X27340Y30925D1*
X27329Y31050D1*
X27349Y31173D1*
X27401Y31290D1*
X27358Y31293D1*
X27241Y31335D1*
X27141Y31409D1*
X27066Y31508D1*
X27024Y31626D1*
X27017Y31750D1*
X27047Y31871D1*
X27110Y31978D1*
X27202Y32062D1*
X27314Y32116D1*
X27437Y32135D1*
X27561Y32118D1*
X27674Y32065D1*
X27767Y31982D1*
X27831Y31876D1*
X27863Y31755D1*
X27865Y31710D1*
X27847Y31587D1*
X27825Y31541D1*
X27931Y31533D1*
X28050Y31496D1*
X28157Y31431D1*
X28245Y31343D1*
X28308Y31235D1*
X28344Y31116D1*
X28351Y31030D1*
X28336Y30906D1*
Y36106D2*
X28291Y35990D1*
X28220Y35888D1*
X28164Y35839D1*
X28245Y35755D1*
X28308Y35648D1*
X28344Y35528D1*
X28351Y35443D1*
X28336Y35319D1*
X28291Y35203D1*
X28220Y35101D1*
X28164Y35052D1*
X28245Y34968D1*
X28308Y34861D1*
X28344Y34741D1*
X28351Y34655D1*
X28336Y34532D1*
X28291Y34415D1*
X28220Y34313D1*
X28164Y34265D1*
X28245Y34180D1*
X28308Y34073D1*
X28344Y33954D1*
X28351Y33868D1*
X28336Y33744D1*
X28291Y33628D1*
X28220Y33526D1*
X28164Y33477D1*
X28245Y33393D1*
X28308Y33286D1*
X28344Y33166D1*
X28351Y33056D1*
X28329Y32933D1*
X28279Y32819D1*
X28203Y32720D1*
X28104Y32643D1*
X27991Y32592D1*
X27868Y32570D1*
X27855D1*
X27837Y32477D1*
X27784Y32364D1*
X27700Y32272D1*
X27593Y32208D1*
X27473Y32177D1*
X27348Y32183D1*
X27231Y32225D1*
X27131Y32299D1*
X27056Y32398D1*
X27014Y32516D1*
X27007Y32640D1*
X27037Y32761D1*
X27100Y32868D1*
X27192Y32952D1*
X27304Y33006D1*
X27331Y33010D1*
X27334Y33150D1*
X27366Y33270D1*
X27426Y33380D1*
X27510Y33471D1*
X27448Y33540D1*
X27380Y33645D1*
X27340Y33763D1*
X27329Y33887D1*
X27349Y34010D1*
X27398Y34125D1*
X27474Y34224D1*
X27519Y34261D1*
X27448Y34328D1*
X27380Y34433D1*
X27340Y34551D1*
X27329Y34675D1*
X27349Y34798D1*
X27398Y34912D1*
X27474Y35012D1*
X27519Y35048D1*
X27448Y35115D1*
X27380Y35220D1*
X27340Y35338D1*
X27329Y35462D1*
X27349Y35585D1*
X27398Y35700D1*
X27474Y35799D1*
X27519Y35836D1*
X27448Y35903D1*
X27380Y36007D1*
X27340Y36125D1*
X27329Y36250D1*
X27349Y36373D1*
X27398Y36487D1*
X27474Y36587D1*
X27571Y36665D1*
X27684Y36717D1*
X27807Y36740D1*
X27931Y36733D1*
X28050Y36696D1*
X28157Y36631D1*
X28245Y36543D1*
X28308Y36435D1*
X28344Y36316D1*
X28351Y36230D1*
X28336Y36106D1*
X5956Y19686D2*
X5911Y19570D1*
X5840Y19468D1*
X5784Y19419D1*
X5865Y19334D1*
X5928Y19226D1*
X5964Y19107D1*
X5971Y18996D1*
X5949Y18873D1*
X5899Y18759D1*
X5823Y18661D1*
X5785Y18627D1*
X5865Y18545D1*
X5928Y18437D1*
X5964Y18318D1*
X5971Y18232D1*
X5956Y18108D1*
X5911Y17992D1*
X5840Y17890D1*
X5746Y17808D1*
X5634Y17752D1*
X5513Y17724D1*
X5388Y17726D1*
X5268Y17759D1*
X5159Y17819D1*
X5068Y17905D1*
X5000Y18009D1*
X4960Y18127D1*
X4949Y18252D1*
X4969Y18375D1*
X5018Y18489D1*
X5094Y18589D1*
X5139Y18625D1*
X5068Y18694D1*
X5000Y18798D1*
X4960Y18916D1*
X4949Y19041D1*
X4969Y19164D1*
X5018Y19278D1*
X5094Y19378D1*
X5136Y19416D1*
X5068Y19483D1*
X5000Y19587D1*
X4960Y19705D1*
X4949Y19830D1*
X4969Y19953D1*
X5018Y20067D1*
X5094Y20167D1*
X5191Y20245D1*
X5304Y20297D1*
X5427Y20320D1*
X5551Y20313D1*
X5670Y20276D1*
X5777Y20211D1*
X5865Y20123D1*
X5928Y20015D1*
X5964Y19896D1*
X5971Y19810D1*
X5956Y19686D1*
X11211Y22976D2*
X11166Y22860D1*
X11095Y22758D1*
X11001Y22676D1*
X10889Y22620D1*
X10768Y22592D1*
X10643Y22594D1*
X10523Y22627D1*
X10414Y22687D1*
X10323Y22773D1*
X10255Y22877D1*
X10215Y22995D1*
X10204Y23120D1*
X10224Y23243D1*
X10273Y23357D1*
X10349Y23457D1*
X10394Y23493D1*
X10323Y23560D1*
X10255Y23665D1*
X10215Y23783D1*
X10204Y23907D1*
X10224Y24030D1*
X10273Y24145D1*
X10349Y24244D1*
X10394Y24281D1*
X10323Y24347D1*
X10255Y24452D1*
X10215Y24570D1*
X10204Y24694D1*
X10224Y24817D1*
X10273Y24932D1*
X10349Y25031D1*
X10394Y25068D1*
X10339Y25116D1*
X10267Y25217D1*
X10221Y25333D1*
X10204Y25457D1*
X10218Y25581D1*
X10261Y25698D1*
X10332Y25800D1*
X10390Y25856D1*
X10323Y25922D1*
X10255Y26027D1*
X10215Y26145D1*
X10204Y26269D1*
X10224Y26392D1*
X10273Y26507D1*
X10349Y26606D1*
X10446Y26684D1*
X10559Y26736D1*
X10682Y26760D1*
X10806Y26753D1*
X10925Y26716D1*
X11032Y26651D1*
X11120Y26562D1*
X11183Y26455D1*
X11219Y26335D1*
X11226Y26250D1*
X11211Y26126D1*
X11166Y26010D1*
X11095Y25908D1*
X11039Y25859D1*
X11120Y25775D1*
X11183Y25668D1*
X11219Y25548D1*
X11226Y25437D1*
X11204Y25315D1*
X11154Y25200D1*
X11078Y25102D1*
X11041Y25069D1*
X11120Y24987D1*
X11183Y24880D1*
X11219Y24761D1*
X11226Y24675D1*
X11211Y24551D1*
X11166Y24435D1*
X11095Y24333D1*
X11039Y24284D1*
X11120Y24200D1*
X11183Y24093D1*
X11219Y23973D1*
X11226Y23888D1*
X11211Y23764D1*
X11166Y23647D1*
X11095Y23545D1*
X11039Y23497D1*
X11120Y23413D1*
X11183Y23305D1*
X11219Y23186D1*
X11226Y23100D1*
X11211Y22976D1*
X12239Y21238D2*
X12180Y21143D1*
X12092Y21054D1*
X11990Y20989D1*
X12076Y20939D1*
X12167Y20853D1*
X12236Y20750D1*
X12240Y20742D1*
X12295Y20830D1*
X12381Y20920D1*
X12488Y20990D1*
X12397Y21048D1*
X12307Y21135D1*
X12241Y21236D1*
X11486Y20993D2*
X11397Y21048D1*
X11307Y21135D1*
X11239Y21239D1*
X11196Y21356D1*
X11180Y21480D1*
X11192Y21604D1*
X11230Y21723D1*
X11295Y21830D1*
X11381Y21920D1*
X11485Y21989D1*
X11601Y22033D1*
X11725Y22050D1*
X11849Y22040D1*
X11968Y22002D1*
X12076Y21939D1*
X12167Y21853D1*
X12241Y21739D1*
X12295Y21830D1*
X12381Y21920D1*
X12485Y21989D1*
X12601Y22033D1*
X12725Y22050D1*
X12849Y22040D1*
X12968Y22002D1*
X13066Y21945D1*
X13194Y22006D1*
X13317Y22025D1*
X13441Y22008D1*
X13554Y21955D1*
X13647Y21872D1*
X13711Y21766D1*
X13743Y21645D1*
X13742Y21581D1*
X13826Y21497D1*
X13880Y21385D1*
X13895Y21280D1*
X13869Y21147D1*
X13900Y21075D1*
X13915Y20970D1*
X13895Y20847D1*
X13835Y20738D1*
X13792Y20699D1*
X13937Y20725D1*
X14061Y20708D1*
X14174Y20655D1*
X14267Y20572D1*
X14331Y20466D1*
X14363Y20345D1*
X14365Y20300D1*
X14347Y20177D1*
X14294Y20064D1*
X14210Y19972D1*
X14103Y19908D1*
X13983Y19877D1*
X13858Y19883D1*
X13741Y19925D1*
X13641Y19999D1*
X13566Y20098D1*
X13524Y20216D1*
X13517Y20340D1*
X13547Y20461D1*
X13610Y20568D1*
X13665Y20618D1*
X13628Y20606D1*
X13504Y20597D1*
X13384Y20629D1*
X13281Y20699D1*
X13214Y20789D1*
X13282Y20634D1*
X13300Y20490D1*
X13287Y20366D1*
X13246Y20248D1*
X13180Y20143D1*
X13092Y20054D1*
X12990Y19989D1*
X13076Y19939D1*
X13167Y19853D1*
X13236Y19750D1*
X13277Y19645D1*
X13377Y19742D1*
X13489Y19796D1*
X13612Y19815D1*
X13736Y19798D1*
X13849Y19745D1*
X13927Y19675D1*
X14027Y19767D1*
X14139Y19821D1*
X14262Y19840D1*
X14386Y19823D1*
X14499Y19770D1*
X14592Y19687D1*
X14654Y19584D1*
X14685Y19633D1*
X14777Y19717D1*
X14889Y19771D1*
X15012Y19790D1*
X15136Y19773D1*
X15249Y19720D1*
X15327Y19650D1*
X15402Y19717D1*
X15514Y19771D1*
X15637Y19790D1*
X15761Y19773D1*
X15874Y19720D1*
X15967Y19637D1*
X15997Y19587D1*
X16086Y19573D1*
X16199Y19520D1*
X16292Y19437D1*
X16356Y19331D1*
X16388Y19210D1*
X16390Y19165D1*
X16372Y19042D1*
X16319Y18929D1*
X16235Y18837D1*
X16128Y18773D1*
X16008Y18742D1*
X15883Y18748D1*
X15766Y18790D1*
X15663Y18867D1*
X15610Y18812D1*
X15503Y18748D1*
X15383Y18717D1*
X15258Y18723D1*
X15141Y18765D1*
X15041Y18839D1*
X14965Y18942D1*
X14816Y18990D1*
X14716Y19064D1*
X14641Y19163D1*
X14629Y19196D1*
X14535Y19087D1*
X14428Y19023D1*
X14308Y18992D1*
X14183Y18998D1*
X14066Y19040D1*
X13954Y19129D1*
X13885Y19062D1*
X13778Y18998D1*
X13658Y18967D1*
X13533Y18973D1*
X13416Y19015D1*
X13316Y19089D1*
X13241Y19188D1*
X13229Y19221D1*
X13180Y19143D1*
X13092Y19054D1*
X12987Y18987D1*
X12869Y18945D1*
X12745Y18930D1*
X12621Y18943D1*
X12503Y18983D1*
X12397Y19048D1*
X12307Y19135D1*
X12241Y19236D1*
X12180Y19143D1*
X12092Y19054D1*
X11987Y18987D1*
X11869Y18945D1*
X11745Y18930D1*
X11621Y18943D1*
X11503Y18983D1*
X11397Y19048D1*
X11307Y19135D1*
X11239Y19239D1*
X11196Y19356D1*
X11180Y19480D1*
X11192Y19604D1*
X11230Y19723D1*
X11295Y19830D1*
X11381Y19920D1*
X11488Y19990D1*
X11397Y20048D1*
X11307Y20135D1*
X11239Y20239D1*
X11196Y20356D1*
X11180Y20480D1*
X11192Y20604D1*
X11230Y20723D1*
X11295Y20830D1*
X11381Y20920D1*
X11488Y20991D1*
X12240Y20238D2*
X12180Y20143D1*
X12092Y20054D1*
X11993Y19990D1*
X12076Y19939D1*
X12167Y19853D1*
X12241Y19739D1*
X12295Y19830D1*
X12381Y19920D1*
X12488Y19990D1*
X12397Y20048D1*
X12307Y20135D1*
X12241Y20236D1*
X24514Y22614D2*
X24455Y22518D1*
X24367Y22429D1*
X24262Y22362D1*
X24144Y22320D1*
X24020Y22305D1*
X23896Y22318D1*
X23778Y22358D1*
X23672Y22423D1*
X23582Y22510D1*
X23514Y22615D1*
X23471Y22732D1*
X23455Y22855D1*
X23467Y22979D1*
X23505Y23098D1*
X23570Y23205D1*
X23656Y23295D1*
X23760Y23364D1*
X23876Y23408D1*
X24000Y23426D1*
X24124Y23415D1*
X24243Y23377D1*
X24351Y23314D1*
X24442Y23229D1*
X24516Y23114D1*
X24555Y23185D1*
X24637Y23279D1*
X24738Y23352D1*
X24852Y23402D1*
X24975Y23424D1*
X25100Y23419D1*
X25220Y23387D1*
X25330Y23329D1*
X25425Y23247D1*
X25499Y23147D1*
X25550Y23033D1*
X25574Y22911D1*
X25570Y22791D1*
X25540Y22670D1*
X25484Y22558D1*
X25404Y22462D1*
X25305Y22386D1*
X25192Y22334D1*
X25070Y22308D1*
X24945Y22310D1*
X24824Y22339D1*
X24712Y22394D1*
X24616Y22473D1*
X24539Y22571D1*
X24515Y22612D1*
X13104Y13643D2*
X13045Y13548D1*
X12957Y13459D1*
X12921Y13436D1*
X12940Y13315D1*
X12922Y13192D1*
X12869Y13079D1*
X12785Y12987D1*
X12678Y12923D1*
X12558Y12892D1*
X12433Y12898D1*
X12316Y12940D1*
X12216Y13014D1*
X12141Y13113D1*
X12099Y13231D1*
X12092Y13355D1*
X12122Y13476D1*
X12163Y13546D1*
X12104Y13644D1*
X12061Y13761D1*
X12045Y13885D1*
X12057Y14009D1*
X12095Y14128D1*
X12160Y14235D1*
X12246Y14325D1*
X12353Y14395D1*
X12262Y14453D1*
X12172Y14540D1*
X12104Y14644D1*
X12061Y14761D1*
X12045Y14885D1*
X12057Y15009D1*
X12095Y15128D1*
X12160Y15235D1*
X12246Y15325D1*
X12350Y15394D1*
X12466Y15438D1*
X12590Y15455D1*
X12714Y15445D1*
X12833Y15407D1*
X12941Y15344D1*
X13032Y15258D1*
X13106Y15144D1*
X13160Y15235D1*
X13246Y15325D1*
X13350Y15394D1*
X13466Y15438D1*
X13590Y15455D1*
X13714Y15445D1*
X13833Y15407D1*
X13941Y15344D1*
X14032Y15258D1*
X14106Y15144D1*
X14160Y15235D1*
X14246Y15325D1*
X14350Y15394D1*
X14466Y15438D1*
X14590Y15455D1*
X14714Y15445D1*
X14833Y15407D1*
X14941Y15344D1*
X15032Y15258D1*
X15101Y15155D1*
X15147Y15039D1*
X15165Y14895D1*
X15152Y14771D1*
X15111Y14653D1*
X15045Y14548D1*
X14957Y14459D1*
X14855Y14394D1*
X14941Y14344D1*
X15032Y14258D1*
X15101Y14155D1*
X15147Y14039D1*
X15165Y13895D1*
X15152Y13771D1*
X15111Y13653D1*
X15042Y13545D1*
X15161Y13528D1*
X15274Y13475D1*
X15294Y13457D1*
X15407Y13475D1*
X15531Y13458D1*
X15644Y13405D1*
X15737Y13322D1*
X15801Y13216D1*
X15833Y13095D1*
X15835Y13050D1*
X15817Y12927D1*
X15764Y12814D1*
X15680Y12722D1*
X15573Y12658D1*
X15487Y12636D1*
X15424Y12484D1*
X15340Y12392D1*
X15233Y12328D1*
X15113Y12297D1*
X14988Y12303D1*
X14871Y12345D1*
X14771Y12419D1*
X14696Y12518D1*
X14654Y12636D1*
X14647Y12760D1*
X14683Y12891D1*
X14624Y13036D1*
X14617Y13160D1*
X14647Y13281D1*
X14680Y13338D1*
X14610Y13335D1*
X14486Y13348D1*
X14368Y13388D1*
X14262Y13453D1*
X14172Y13540D1*
X14106Y13641D1*
X14029Y13528D1*
X13937Y13444D1*
X13829Y13381D1*
X13710Y13345D1*
X13585Y13335D1*
X13462Y13354D1*
X13346Y13399D1*
X13242Y13468D1*
X13157Y13559D1*
X13105Y13642D1*
X12857Y14393D2*
X12941Y14344D1*
X13032Y14258D1*
X13106Y14144D1*
X13145Y14215D1*
X13227Y14308D1*
X13328Y14382D1*
X13353Y14396D1*
X13262Y14453D1*
X13172Y14540D1*
X13106Y14641D1*
X13045Y14548D1*
X12957Y14459D1*
X12855Y14394D1*
X13858Y14395D2*
X13960Y14328D1*
X14047Y14239D1*
X14105Y14147D1*
X14160Y14235D1*
X14246Y14325D1*
X14353Y14395D1*
X14262Y14453D1*
X14172Y14540D1*
X14106Y14641D1*
X14045Y14548D1*
X13957Y14459D1*
X13855Y14394D1*
X9967Y26836D2*
X9926Y26718D1*
X9860Y26613D1*
X9772Y26524D1*
X9667Y26457D1*
X9549Y26415D1*
X9425Y26400D1*
X9301Y26413D1*
X9183Y26453D1*
X9077Y26518D1*
X8987Y26605D1*
X8921Y26706D1*
X8860Y26613D1*
X8772Y26524D1*
X8667Y26457D1*
X8549Y26415D1*
X8425Y26400D1*
X8301Y26413D1*
X8183Y26453D1*
X8077Y26518D1*
X7987Y26605D1*
X7919Y26709D1*
X7876Y26826D1*
X7860Y26950D1*
X7872Y27074D1*
X7910Y27193D1*
X7975Y27300D1*
X8061Y27390D1*
X8165Y27459D1*
X8281Y27503D1*
X8405Y27520D1*
X8529Y27510D1*
X8648Y27472D1*
X8756Y27409D1*
X8847Y27323D1*
X8921Y27209D1*
X8975Y27300D1*
X9061Y27390D1*
X9165Y27459D1*
X9281Y27503D1*
X9405Y27520D1*
X9529Y27510D1*
X9648Y27472D1*
X9756Y27409D1*
X9847Y27323D1*
X9916Y27220D1*
X9962Y27104D1*
X9980Y26960D1*
X9967Y26836D1*
X20016Y15246D2*
X19971Y15130D1*
X19900Y15028D1*
X19844Y14979D1*
X19925Y14895D1*
X19988Y14788D1*
X20024Y14668D1*
X20031Y14583D1*
X20016Y14459D1*
X19971Y14343D1*
X19900Y14241D1*
X19844Y14192D1*
X19925Y14108D1*
X19988Y14001D1*
X20024Y13881D1*
X20031Y13795D1*
X20016Y13672D1*
X19971Y13555D1*
X19900Y13453D1*
X19844Y13405D1*
X19925Y13320D1*
X19988Y13213D1*
X20024Y13094D1*
X20031Y12983D1*
X20009Y12860D1*
X19959Y12746D1*
X19883Y12648D1*
X19846Y12614D1*
X19925Y12533D1*
X19988Y12426D1*
X20024Y12306D1*
X20031Y12196D1*
X20009Y12073D1*
X19959Y11959D1*
X19883Y11860D1*
X19784Y11783D1*
X19671Y11732D1*
X19548Y11710D1*
X19424Y11719D1*
X19305Y11757D1*
X19199Y11823D1*
X19112Y11913D1*
X19050Y12020D1*
X19015Y12140D1*
X19011Y12265D1*
X19037Y12387D1*
X19092Y12499D1*
X19172Y12594D1*
X19195Y12614D1*
X19112Y12700D1*
X19050Y12808D1*
X19015Y12928D1*
X19011Y13052D1*
X19037Y13174D1*
X19092Y13286D1*
X19172Y13382D1*
X19195Y13402D1*
X19128Y13468D1*
X19060Y13573D1*
X19020Y13691D1*
X19009Y13815D1*
X19029Y13938D1*
X19078Y14052D1*
X19154Y14152D1*
X19199Y14188D1*
X19128Y14255D1*
X19060Y14360D1*
X19020Y14478D1*
X19009Y14602D1*
X19029Y14725D1*
X19078Y14840D1*
X19154Y14939D1*
X19199Y14976D1*
X19128Y15043D1*
X19060Y15147D1*
X19020Y15265D1*
X19009Y15390D1*
X19029Y15513D1*
X19078Y15627D1*
X19154Y15727D1*
X19251Y15805D1*
X19364Y15857D1*
X19487Y15880D1*
X19611Y15873D1*
X19730Y15836D1*
X19837Y15771D1*
X19925Y15683D1*
X19988Y15575D1*
X20024Y15456D1*
X20031Y15370D1*
X20016Y15246D1*
X10042Y18214D2*
X10014Y18154D1*
X9930Y18062D1*
X9823Y17998D1*
X9703Y17967D1*
X9578Y17973D1*
X9461Y18015D1*
X9361Y18089D1*
X9286Y18188D1*
X9244Y18306D1*
X9237Y18430D1*
X9267Y18551D1*
X9330Y18658D1*
X9422Y18742D1*
X9517Y18788D1*
X9504Y18826D1*
X9497Y18950D1*
X9527Y19071D1*
X9590Y19178D1*
X9682Y19262D1*
X9794Y19316D1*
X9917Y19335D1*
X10041Y19318D1*
X10154Y19265D1*
X10247Y19182D1*
X10311Y19076D1*
X10330Y19004D1*
X10444Y18955D1*
X10537Y18872D1*
X10601Y18766D1*
X10633Y18645D1*
X10635Y18600D1*
X10617Y18477D1*
X10564Y18364D1*
X10480Y18272D1*
X10373Y18208D1*
X10253Y18177D1*
X10128Y18183D1*
X10044Y18213D1*
X32906Y35195D2*
X32838Y35166D1*
X32714Y35157D1*
X32594Y35189D1*
X32491Y35259D1*
X32417Y35359D1*
X32379Y35477D1*
X32382Y35602D1*
X32426Y35718D1*
X32505Y35814D1*
X32611Y35879D1*
X32733Y35905D1*
X32857Y35890D1*
X32923Y35857D1*
X33073Y35895D1*
X33197Y35880D1*
X33308Y35825D1*
X33339Y35795D1*
X33451Y35869D1*
X33573Y35895D1*
X33697Y35880D1*
X33808Y35825D1*
X33896Y35737D1*
X33951Y35622D1*
X34074Y35686D1*
X34197Y35705D1*
X34321Y35688D1*
X34434Y35635D1*
X34527Y35552D1*
X34591Y35446D1*
X34623Y35325D1*
X34625Y35280D1*
X34607Y35157D1*
X34554Y35044D1*
X34470Y34952D1*
X34363Y34888D1*
X34243Y34857D1*
X34118Y34863D1*
X34001Y34905D1*
X33901Y34979D1*
X33826Y35078D1*
X33783Y35199D1*
X33678Y35156D1*
X33554Y35147D1*
X33434Y35179D1*
X33341Y35242D1*
X33293Y35205D1*
X33178Y35156D1*
X33054Y35147D1*
X32934Y35179D1*
X32912Y35194D1*
X32425Y36197D2*
X32365Y36088D1*
X32273Y36005D1*
X32158Y35956D1*
X32034Y35947D1*
X31914Y35979D1*
X31811Y36049D1*
X31737Y36149D1*
X31699Y36267D1*
X31702Y36392D1*
X31746Y36508D1*
X31825Y36604D1*
X31888Y36642D1*
X31841Y36727D1*
X31784Y36749D1*
X31681Y36819D1*
X31607Y36919D1*
X31569Y37037D1*
X31572Y37162D1*
X31616Y37278D1*
X31695Y37374D1*
X31745Y37404D1*
X31752Y37472D1*
X31796Y37588D1*
X31875Y37684D1*
X31981Y37749D1*
X32103Y37775D1*
X32227Y37760D1*
X32338Y37705D1*
X32426Y37617D1*
X32480Y37505D1*
X32495Y37400D1*
X32475Y37277D1*
X32417Y37172D1*
X32486Y37097D1*
X32540Y36985D1*
X32555Y36880D1*
X32535Y36757D1*
X32475Y36648D1*
X32365Y36557D1*
X32430Y36425D1*
X32445Y36320D1*
X32425Y36197D1*
X33885Y38317D2*
X33825Y38208D1*
X33733Y38125D1*
X33618Y38076D1*
X33494Y38067D1*
X33374Y38099D1*
X33271Y38169D1*
X33197Y38269D1*
X33159Y38387D1*
X33162Y38512D1*
X33206Y38628D1*
X33285Y38724D1*
X33391Y38789D1*
X33513Y38815D1*
X33637Y38800D1*
X33748Y38745D1*
X33836Y38657D1*
X33890Y38545D1*
X33905Y38440D1*
X33885Y38317D1*
X34847Y38707D2*
X34794Y38594D1*
X34710Y38502D1*
X34603Y38438D1*
X34483Y38407D1*
X34358Y38413D1*
X34241Y38455D1*
X34141Y38529D1*
X34066Y38628D1*
X34024Y38746D1*
X34017Y38870D1*
X34047Y38991D1*
X34110Y39098D1*
X34202Y39182D1*
X34314Y39236D1*
X34437Y39255D1*
X34561Y39238D1*
X34674Y39185D1*
X34767Y39102D1*
X34831Y38996D1*
X34863Y38875D1*
X34865Y38830D1*
X34847Y38707D1*
X32637Y39027D2*
X32584Y38914D1*
X32500Y38822D1*
X32393Y38758D1*
X32273Y38727D1*
X32148Y38733D1*
X32031Y38775D1*
X31931Y38849D1*
X31856Y38948D1*
X31814Y39066D1*
X31807Y39190D1*
X31837Y39311D1*
X31900Y39418D1*
X31992Y39502D1*
X32104Y39556D1*
X32227Y39575D1*
X32351Y39558D1*
X32464Y39505D1*
X32557Y39422D1*
X32621Y39316D1*
X32653Y39195D1*
X32655Y39150D1*
X32637Y39027D1*
X29894Y35769D2*
X29797Y35762D1*
X29677Y35794D1*
X29574Y35864D1*
X29500Y35964D1*
X29462Y36083D1*
X29465Y36207D1*
X29509Y36323D1*
X29588Y36419D1*
X29695Y36484D1*
X29816Y36510D1*
X29940Y36495D1*
X30052Y36440D1*
X30139Y36352D1*
X30197Y36217D1*
X30317Y36235D1*
X30441Y36218D1*
X30554Y36165D1*
X30647Y36082D1*
X30711Y35976D1*
X30743Y35855D1*
X30745Y35810D1*
X30727Y35687D1*
X30674Y35574D1*
X30590Y35482D1*
X30483Y35418D1*
X30363Y35387D1*
X30238Y35393D1*
X30121Y35435D1*
X30021Y35509D1*
X29946Y35608D1*
X29904Y35726D1*
X29901Y35768D1*
X29748Y37373D2*
X29688Y37264D1*
X29596Y37180D1*
X29482Y37131D1*
X29357Y37122D1*
X29237Y37154D1*
X29134Y37224D1*
X29060Y37324D1*
X29022Y37443D1*
X29025Y37567D1*
X29069Y37683D1*
X29148Y37779D1*
X29255Y37844D1*
X29296Y37853D1*
X29237Y37874D1*
X29134Y37944D1*
X29060Y38044D1*
X29022Y38163D1*
X29025Y38287D1*
X29069Y38403D1*
X29148Y38499D1*
X29255Y38564D1*
X29376Y38590D1*
X29500Y38575D1*
X29612Y38520D1*
X29699Y38432D1*
X29753Y38320D1*
X29768Y38215D1*
X29748Y38093D1*
X29688Y37984D1*
X29596Y37900D1*
X29500Y37855D1*
X29612Y37800D1*
X29699Y37712D1*
X29753Y37600D1*
X29768Y37495D1*
X29748Y37373D1*
X30168Y39203D2*
X30108Y39094D1*
X30016Y39010D1*
X29902Y38961D1*
X29777Y38952D1*
X29657Y38984D1*
X29554Y39054D1*
X29480Y39154D1*
X29442Y39273D1*
X29445Y39397D1*
X29489Y39513D1*
X29568Y39609D1*
X29675Y39674D1*
X29796Y39700D1*
X29920Y39685D1*
X30032Y39630D1*
X30119Y39542D1*
X30173Y39430D1*
X30188Y39325D1*
X30168Y39203D1*
X14190Y10300D2*
X14153Y10278D1*
X14033Y10247D1*
X13908Y10253D1*
X13795Y10293D1*
X13743Y10268D1*
X13623Y10237D1*
X13498Y10243D1*
X13381Y10285D1*
X13281Y10359D1*
X13206Y10458D1*
X13164Y10576D1*
X13157Y10700D1*
X13187Y10821D1*
X13250Y10928D1*
X13342Y11012D1*
X13454Y11066D1*
X13577Y11085D1*
X13701Y11068D1*
X13775Y11033D1*
X13864Y11076D1*
X13987Y11095D1*
X14111Y11078D1*
X14238Y11012D1*
X14314Y11046D1*
X14437Y11065D1*
X14561Y11048D1*
X14621Y11020D1*
X14754Y11086D1*
X14877Y11105D1*
X15001Y11088D1*
X15114Y11035D1*
X15207Y10952D1*
X15271Y10846D1*
X15303Y10725D1*
X15305Y10680D1*
X15287Y10557D1*
X15234Y10444D1*
X15150Y10352D1*
X15043Y10288D1*
X14923Y10257D1*
X14798Y10263D1*
X14692Y10301D1*
X14603Y10248D1*
X14483Y10217D1*
X14358Y10223D1*
X14241Y10265D1*
X14194Y10299D1*
X11757Y34584D2*
X11713Y34558D1*
X11593Y34527D1*
X11468Y34533D1*
X11351Y34575D1*
X11251Y34649D1*
X11176Y34748D1*
X11134Y34866D1*
X11127Y34990D1*
X11157Y35111D1*
X11220Y35218D1*
X11312Y35302D1*
X11424Y35356D1*
X11547Y35375D1*
X11671Y35358D1*
X11759Y35317D1*
X11844Y35356D1*
X11967Y35375D1*
X12091Y35358D1*
X12204Y35305D1*
X12297Y35222D1*
X12361Y35116D1*
X12393Y34995D1*
X12387Y34892D1*
X12437Y34895D1*
X12561Y34878D1*
X12674Y34825D1*
X12767Y34742D1*
X12831Y34636D1*
X12863Y34515D1*
X12865Y34470D1*
X12847Y34347D1*
X12794Y34234D1*
X12775Y34214D1*
X12831Y34116D1*
X12863Y33995D1*
X12865Y33950D1*
X12847Y33827D1*
X12794Y33714D1*
X12770Y33688D1*
X12831Y33586D1*
X12863Y33465D1*
X12865Y33420D1*
X12847Y33297D1*
X12794Y33184D1*
X12710Y33092D1*
X12603Y33028D1*
X12483Y32997D1*
X12424Y33000D1*
X12407Y32897D1*
X12354Y32784D1*
X12270Y32692D1*
X12163Y32628D1*
X12043Y32597D1*
X11918Y32603D1*
X11801Y32645D1*
X11754Y32679D1*
X11693Y32648D1*
X11573Y32617D1*
X11448Y32623D1*
X11331Y32665D1*
X11231Y32739D1*
X11156Y32838D1*
X11114Y32956D1*
X11107Y33080D1*
X11137Y33201D1*
X11200Y33308D1*
X11292Y33392D1*
X11404Y33446D1*
X11527Y33465D1*
X11651Y33448D1*
X11778Y33382D1*
X11874Y33426D1*
X12017Y33442D1*
X12047Y33581D1*
X12108Y33685D1*
X12066Y33748D1*
X12024Y33866D1*
X12017Y33990D1*
X12047Y34111D1*
X12104Y34208D1*
X12066Y34268D1*
X12024Y34386D1*
X12022Y34529D1*
X11888Y34533D1*
X11761Y34582D1*
X8629Y38921D2*
X8551Y38979D1*
X8476Y39078D1*
X8434Y39196D1*
X8427Y39320D1*
X8457Y39441D1*
X8520Y39548D1*
X8612Y39632D1*
X8724Y39686D1*
X8847Y39705D1*
X8971Y39688D1*
X9084Y39635D1*
X9104Y39617D1*
X9365Y39990D1*
X9458Y40071D1*
X9582Y40102D1*
X16211Y40075D1*
X16332Y40046D1*
X16425Y39965D1*
X16472Y39846D1*
X16475Y39310D1*
Y38450D1*
X16446Y38330D1*
X16366Y38236D1*
X16247Y38189D1*
X15710Y38185D1*
X8630D1*
X8510Y38214D1*
X8416Y38295D1*
X8368Y38409D1*
X8375Y38523D1*
X8410Y38597D1*
X8624Y38919D1*
X22097Y37897D2*
X22044Y37784D1*
X21960Y37692D1*
X21853Y37628D1*
X21733Y37597D1*
X21608Y37603D1*
X21491Y37645D1*
X21391Y37719D1*
X21316Y37818D1*
X21274Y37936D1*
X21267Y38060D1*
X21297Y38181D1*
X21360Y38288D1*
X21452Y38372D1*
X21564Y38426D1*
X21687Y38445D1*
X21811Y38428D1*
X21924Y38375D1*
X22017Y38292D1*
X22081Y38186D1*
X22113Y38065D1*
X22115Y38020D1*
X22097Y37897D1*
X24457Y37927D2*
X24404Y37814D1*
X24320Y37722D1*
X24213Y37658D1*
X24093Y37627D1*
X23968Y37633D1*
X23851Y37675D1*
X23751Y37749D1*
X23676Y37848D1*
X23634Y37966D1*
X23627Y38090D1*
X23657Y38211D1*
X23720Y38318D1*
X23812Y38402D1*
X23924Y38456D1*
X24047Y38475D1*
X24171Y38458D1*
X24284Y38405D1*
X24377Y38322D1*
X24441Y38216D1*
X24473Y38095D1*
X24475Y38050D1*
X24457Y37927D1*
X35610Y32007D2*
X35587Y31993D1*
X35466Y31963D1*
X35341Y31968D1*
X35224Y32010D1*
X35124Y32084D1*
X35049Y32184D1*
X35007Y32301D1*
X35000Y32425D1*
X35030Y32546D1*
X35093Y32653D1*
X35185Y32737D1*
X35298Y32791D1*
X35421Y32810D1*
X35544Y32793D1*
X35590Y32772D1*
X35658Y32801D1*
X35781Y32820D1*
X35904Y32803D1*
X35964Y32775D1*
X36028Y32801D1*
X36151Y32820D1*
X36274Y32803D1*
X36387Y32751D1*
X36480Y32668D1*
X36545Y32561D1*
X36576Y32441D1*
X36578Y32395D1*
X36560Y32272D1*
X36507Y32160D1*
X36423Y32067D1*
X36317Y32003D1*
X36196Y31973D1*
X36071Y31978D1*
X35972Y32014D1*
X35826Y31973D1*
X35701Y31978D1*
X35617Y32008D1*
X31080Y32037D2*
X31057Y32023D1*
X30936Y31993D1*
X30811Y31998D1*
X30694Y32040D1*
X30594Y32114D1*
X30519Y32214D1*
X30477Y32331D1*
X30470Y32455D1*
X30500Y32576D1*
X30563Y32683D1*
X30655Y32767D1*
X30768Y32821D1*
X30891Y32840D1*
X31014Y32823D1*
X31060Y32802D1*
X31128Y32831D1*
X31251Y32850D1*
X31374Y32833D1*
X31434Y32805D1*
X31498Y32831D1*
X31621Y32850D1*
X31744Y32833D1*
X31857Y32781D1*
X31950Y32698D1*
X32015Y32591D1*
X32046Y32471D1*
X32048Y32425D1*
X32030Y32302D1*
X31977Y32190D1*
X31893Y32097D1*
X31787Y32033D1*
X31666Y32003D1*
X31541Y32008D1*
X31442Y32044D1*
X31296Y32003D1*
X31171Y32008D1*
X31087Y32038D1*
X32875Y27136D2*
X32828Y27116D1*
X32704Y27107D1*
X32584Y27139D1*
X32481Y27209D1*
X32407Y27309D1*
X32369Y27427D1*
X32372Y27552D1*
X32416Y27668D1*
X32495Y27764D1*
X32601Y27829D1*
X32723Y27855D1*
X32847Y27840D1*
X32941Y27799D1*
X33063Y27825D1*
X33187Y27810D1*
X33298Y27755D1*
X33345Y27708D1*
X33471Y27789D1*
X33593Y27815D1*
X33717Y27800D1*
X33828Y27745D1*
X33916Y27657D1*
X33962Y27572D1*
X34074Y27626D1*
X34197Y27645D1*
X34321Y27628D1*
X34434Y27575D1*
X34527Y27492D1*
X34591Y27386D1*
X34623Y27265D1*
X34625Y27220D1*
X34607Y27097D1*
X34554Y26984D1*
X34470Y26892D1*
X34363Y26828D1*
X34243Y26797D1*
X34118Y26803D1*
X34001Y26845D1*
X33901Y26919D1*
X33826Y27018D1*
X33793Y27110D1*
X33698Y27076D1*
X33574Y27067D1*
X33454Y27099D1*
X33339Y27185D1*
X33283Y27135D1*
X33168Y27086D1*
X33044Y27077D1*
X32924Y27109D1*
X32889Y27133D1*
X32385Y28087D2*
X32325Y27978D1*
X32233Y27895D1*
X32118Y27846D1*
X31994Y27837D1*
X31874Y27869D1*
X31771Y27939D1*
X31697Y28039D1*
X31659Y28157D1*
X31662Y28282D1*
X31706Y28398D1*
X31785Y28494D1*
X31881Y28552D1*
X31827Y28629D1*
X31811Y28677D1*
X31681Y28759D1*
X31607Y28859D1*
X31569Y28977D1*
X31572Y29102D1*
X31616Y29218D1*
X31695Y29314D1*
X31805Y29379D1*
X31856Y29518D1*
X31935Y29614D1*
X32041Y29679D1*
X32163Y29705D1*
X32287Y29690D1*
X32398Y29635D1*
X32486Y29547D1*
X32540Y29435D1*
X32555Y29330D1*
X32535Y29207D1*
X32475Y29098D1*
X32432Y29059D1*
X32466Y29017D1*
X32520Y28905D1*
X32535Y28800D1*
X32515Y28677D1*
X32455Y28568D1*
X32363Y28485D1*
X32309Y28462D1*
X32336Y28427D1*
X32390Y28315D1*
X32405Y28210D1*
X32385Y28087D1*
X33885Y30257D2*
X33825Y30148D1*
X33733Y30065D1*
X33618Y30016D1*
X33494Y30007D1*
X33374Y30039D1*
X33271Y30109D1*
X33197Y30209D1*
X33159Y30327D1*
X33162Y30452D1*
X33206Y30568D1*
X33285Y30664D1*
X33391Y30729D1*
X33513Y30755D1*
X33637Y30740D1*
X33748Y30685D1*
X33836Y30597D1*
X33890Y30485D1*
X33905Y30380D1*
X33885Y30257D1*
X34847Y30647D2*
X34794Y30534D1*
X34710Y30442D1*
X34603Y30378D1*
X34483Y30347D1*
X34358Y30353D1*
X34241Y30395D1*
X34141Y30469D1*
X34066Y30568D1*
X34024Y30686D1*
X34017Y30810D1*
X34047Y30931D1*
X34110Y31038D1*
X34202Y31122D1*
X34314Y31176D1*
X34437Y31195D1*
X34561Y31178D1*
X34674Y31125D1*
X34767Y31042D1*
X34831Y30936D1*
X34863Y30815D1*
X34865Y30770D1*
X34847Y30647D1*
X32637Y30967D2*
X32584Y30854D1*
X32500Y30762D1*
X32393Y30698D1*
X32273Y30667D1*
X32148Y30673D1*
X32031Y30715D1*
X31931Y30789D1*
X31856Y30888D1*
X31814Y31006D1*
X31807Y31130D1*
X31837Y31251D1*
X31900Y31358D1*
X31992Y31442D1*
X32104Y31496D1*
X32227Y31515D1*
X32351Y31498D1*
X32464Y31445D1*
X32557Y31362D1*
X32621Y31256D1*
X32653Y31135D1*
X32655Y31090D1*
X32637Y30967D1*
X29894Y27709D2*
X29797Y27702D1*
X29677Y27734D1*
X29574Y27804D1*
X29500Y27904D1*
X29462Y28023D1*
X29465Y28147D1*
X29509Y28263D1*
X29588Y28359D1*
X29695Y28424D1*
X29816Y28450D1*
X29940Y28435D1*
X30052Y28380D1*
X30139Y28292D1*
X30197Y28157D1*
X30317Y28175D1*
X30441Y28158D1*
X30554Y28105D1*
X30647Y28022D1*
X30711Y27916D1*
X30743Y27795D1*
X30745Y27750D1*
X30727Y27627D1*
X30674Y27514D1*
X30590Y27422D1*
X30483Y27358D1*
X30363Y27327D1*
X30238Y27333D1*
X30121Y27375D1*
X30021Y27449D1*
X29946Y27548D1*
X29904Y27666D1*
X29901Y27708D1*
X29748Y29313D2*
X29688Y29204D1*
X29596Y29120D1*
X29482Y29071D1*
X29357Y29062D1*
X29237Y29094D1*
X29134Y29164D1*
X29060Y29264D1*
X29022Y29383D1*
X29025Y29507D1*
X29069Y29623D1*
X29148Y29719D1*
X29255Y29784D1*
X29296Y29793D1*
X29237Y29814D1*
X29134Y29884D1*
X29060Y29984D1*
X29022Y30103D1*
X29025Y30227D1*
X29069Y30343D1*
X29148Y30439D1*
X29255Y30504D1*
X29376Y30530D1*
X29500Y30515D1*
X29612Y30460D1*
X29699Y30372D1*
X29753Y30260D1*
X29768Y30155D1*
X29748Y30033D1*
X29688Y29924D1*
X29596Y29840D1*
X29500Y29795D1*
X29612Y29740D1*
X29699Y29652D1*
X29753Y29540D1*
X29768Y29435D1*
X29748Y29313D1*
X30168Y31143D2*
X30108Y31034D1*
X30016Y30950D1*
X29902Y30901D1*
X29777Y30892D1*
X29657Y30924D1*
X29554Y30994D1*
X29480Y31094D1*
X29442Y31213D1*
X29445Y31337D1*
X29489Y31453D1*
X29568Y31549D1*
X29675Y31614D1*
X29796Y31640D1*
X29920Y31625D1*
X30032Y31570D1*
X30119Y31482D1*
X30173Y31370D1*
X30188Y31265D1*
X30168Y31143D1*
X35610Y23947D2*
X35587Y23933D1*
X35466Y23903D1*
X35341Y23908D1*
X35224Y23950D1*
X35124Y24024D1*
X35049Y24124D1*
X35007Y24241D1*
X35000Y24365D1*
X35030Y24486D1*
X35093Y24593D1*
X35185Y24677D1*
X35298Y24731D1*
X35421Y24750D1*
X35544Y24733D1*
X35590Y24712D1*
X35658Y24741D1*
X35781Y24760D1*
X35904Y24743D1*
X35964Y24715D1*
X36028Y24741D1*
X36151Y24760D1*
X36274Y24743D1*
X36387Y24691D1*
X36480Y24608D1*
X36545Y24501D1*
X36576Y24381D1*
X36578Y24335D1*
X36560Y24212D1*
X36507Y24100D1*
X36423Y24007D1*
X36317Y23943D1*
X36196Y23913D1*
X36071Y23918D1*
X35972Y23954D1*
X35826Y23913D1*
X35701Y23918D1*
X35617Y23948D1*
X31080Y23977D2*
X31057Y23963D1*
X30936Y23933D1*
X30811Y23938D1*
X30694Y23980D1*
X30594Y24054D1*
X30519Y24154D1*
X30477Y24271D1*
X30470Y24395D1*
X30500Y24516D1*
X30563Y24623D1*
X30655Y24707D1*
X30768Y24761D1*
X30891Y24780D1*
X31014Y24763D1*
X31060Y24742D1*
X31128Y24771D1*
X31251Y24790D1*
X31374Y24773D1*
X31434Y24745D1*
X31498Y24771D1*
X31621Y24790D1*
X31744Y24773D1*
X31857Y24721D1*
X31950Y24638D1*
X32015Y24531D1*
X32046Y24411D1*
X32048Y24365D1*
X32030Y24242D1*
X31977Y24130D1*
X31893Y24037D1*
X31787Y23973D1*
X31666Y23943D1*
X31541Y23948D1*
X31442Y23984D1*
X31296Y23943D1*
X31171Y23948D1*
X31087Y23978D1*
X32853Y19158D2*
X32778Y19126D1*
X32654Y19117D1*
X32534Y19149D1*
X32431Y19219D1*
X32357Y19319D1*
X32319Y19437D1*
X32322Y19562D1*
X32366Y19678D1*
X32445Y19774D1*
X32551Y19839D1*
X32673Y19865D1*
X32797Y19850D1*
X32870Y19814D1*
X33023Y19855D1*
X33147Y19840D1*
X33258Y19785D1*
X33327Y19716D1*
X33385Y19774D1*
X33491Y19839D1*
X33613Y19865D1*
X33737Y19850D1*
X33848Y19795D1*
X33936Y19707D1*
X33982Y19612D1*
X34062Y19645D1*
X34185Y19664D1*
X34308Y19647D1*
X34421Y19595D1*
X34514Y19512D1*
X34579Y19405D1*
X34610Y19285D1*
X34612Y19239D1*
X34594Y19116D1*
X34541Y19004D1*
X34457Y18911D1*
X34351Y18847D1*
X34230Y18817D1*
X34106Y18822D1*
X33988Y18864D1*
X33888Y18938D1*
X33813Y19038D1*
X33775Y19144D1*
X33718Y19126D1*
X33594Y19117D1*
X33474Y19149D1*
X33371Y19219D1*
X33341Y19259D1*
X33243Y19165D1*
X33128Y19116D1*
X33004Y19107D1*
X32884Y19139D1*
X32862Y19154D1*
X32425Y20137D2*
X32365Y20028D1*
X32273Y19945D1*
X32158Y19896D1*
X32034Y19887D1*
X31914Y19919D1*
X31811Y19989D1*
X31737Y20089D1*
X31699Y20207D1*
X31702Y20332D1*
X31746Y20448D1*
X31825Y20544D1*
X31868Y20570D1*
X31827Y20639D1*
X31809Y20694D1*
X31771Y20708D1*
X31668Y20778D1*
X31594Y20878D1*
X31556Y20997D1*
X31559Y21121D1*
X31603Y21237D1*
X31682Y21333D1*
X31792Y21399D1*
X31836Y21528D1*
X31915Y21624D1*
X32021Y21689D1*
X32143Y21715D1*
X32267Y21700D1*
X32378Y21645D1*
X32466Y21557D1*
X32520Y21445D1*
X32535Y21340D1*
X32515Y21217D1*
X32455Y21108D1*
X32423Y21080D1*
X32466Y21027D1*
X32520Y20915D1*
X32535Y20810D1*
X32515Y20687D1*
X32455Y20578D1*
X32359Y20493D1*
X32376Y20477D1*
X32430Y20365D1*
X32445Y20260D1*
X32425Y20137D1*
X33872Y22277D2*
X33812Y22168D1*
X33720Y22084D1*
X33606Y22035D1*
X33482Y22026D1*
X33361Y22058D1*
X33258Y22128D1*
X33184Y22228D1*
X33146Y22347D1*
X33149Y22471D1*
X33193Y22587D1*
X33272Y22683D1*
X33379Y22748D1*
X33500Y22774D1*
X33624Y22759D1*
X33736Y22704D1*
X33823Y22616D1*
X33877Y22504D1*
X33892Y22399D1*
X33872Y22277D1*
X34834Y22666D2*
X34781Y22554D1*
X34697Y22461D1*
X34591Y22397D1*
X34470Y22367D1*
X34346Y22372D1*
X34228Y22414D1*
X34128Y22488D1*
X34053Y22588D1*
X34011Y22705D1*
X34004Y22829D1*
X34034Y22950D1*
X34097Y23057D1*
X34189Y23141D1*
X34302Y23195D1*
X34425Y23214D1*
X34548Y23197D1*
X34661Y23145D1*
X34754Y23062D1*
X34819Y22955D1*
X34850Y22835D1*
X34852Y22789D1*
X34834Y22666D1*
X32624Y22986D2*
X32571Y22874D1*
X32487Y22781D1*
X32381Y22717D1*
X32260Y22687D1*
X32136Y22692D1*
X32018Y22734D1*
X31918Y22808D1*
X31843Y22908D1*
X31801Y23025D1*
X31794Y23149D1*
X31824Y23270D1*
X31887Y23377D1*
X31979Y23461D1*
X32092Y23515D1*
X32215Y23534D1*
X32338Y23517D1*
X32451Y23465D1*
X32544Y23382D1*
X32609Y23275D1*
X32640Y23155D1*
X32642Y23109D1*
X32624Y22986D1*
X29882Y19728D2*
X29785Y19721D1*
X29665Y19754D1*
X29562Y19824D1*
X29487Y19923D1*
X29449Y20042D1*
X29453Y20166D1*
X29496Y20283D1*
X29576Y20379D1*
X29682Y20443D1*
X29803Y20469D1*
X29927Y20454D1*
X30039Y20400D1*
X30127Y20312D1*
X30184Y20177D1*
X30305Y20194D1*
X30428Y20177D1*
X30541Y20125D1*
X30634Y20042D1*
X30699Y19935D1*
X30730Y19815D1*
X30732Y19769D1*
X30714Y19646D1*
X30661Y19534D1*
X30577Y19441D1*
X30471Y19377D1*
X30350Y19347D1*
X30226Y19352D1*
X30108Y19394D1*
X30008Y19468D1*
X29933Y19568D1*
X29891Y19685D1*
X29889Y19728D1*
X29735Y21332D2*
X29675Y21223D1*
X29583Y21139D1*
X29469Y21090D1*
X29345Y21081D1*
X29225Y21114D1*
X29122Y21184D1*
X29047Y21283D1*
X29009Y21402D1*
X29013Y21526D1*
X29056Y21643D1*
X29136Y21739D1*
X29242Y21803D1*
X29284Y21812D1*
X29225Y21834D1*
X29122Y21904D1*
X29047Y22003D1*
X29009Y22122D1*
X29013Y22246D1*
X29056Y22363D1*
X29136Y22459D1*
X29242Y22523D1*
X29363Y22549D1*
X29487Y22534D1*
X29599Y22480D1*
X29687Y22392D1*
X29741Y22280D1*
X29756Y22175D1*
X29735Y22052D1*
X29675Y21943D1*
X29583Y21859D1*
X29487Y21814D1*
X29599Y21760D1*
X29687Y21672D1*
X29741Y21560D1*
X29756Y21455D1*
X29735Y21332D1*
X30155Y23162D2*
X30095Y23053D1*
X30003Y22969D1*
X29889Y22920D1*
X29765Y22911D1*
X29645Y22944D1*
X29542Y23014D1*
X29467Y23113D1*
X29429Y23232D1*
X29433Y23356D1*
X29476Y23473D1*
X29556Y23569D1*
X29662Y23633D1*
X29783Y23659D1*
X29907Y23644D1*
X30019Y23590D1*
X30107Y23502D1*
X30161Y23390D1*
X30176Y23285D1*
X30155Y23162D1*
X35597Y15966D2*
X35574Y15952D1*
X35453Y15922D1*
X35329Y15928D1*
X35211Y15969D1*
X35111Y16043D1*
X35037Y16143D1*
X34994Y16260D1*
X34987Y16385D1*
X35017Y16505D1*
X35081Y16613D1*
X35173Y16697D1*
X35285Y16751D1*
X35408Y16770D1*
X35531Y16752D1*
X35577Y16731D1*
X35645Y16761D1*
X35768Y16780D1*
X35891Y16762D1*
X35951Y16734D1*
X36015Y16761D1*
X36138Y16780D1*
X36261Y16762D1*
X36374Y16710D1*
X36467Y16627D1*
X36532Y16521D1*
X36563Y16400D1*
X36566Y16355D1*
X36547Y16232D1*
X36494Y16119D1*
X36411Y16027D1*
X36304Y15962D1*
X36183Y15932D1*
X36059Y15938D1*
X35960Y15973D1*
X35813Y15932D1*
X35689Y15938D1*
X35604Y15968D1*
X31067Y15996D2*
X31044Y15982D1*
X30923Y15952D1*
X30799Y15958D1*
X30681Y15999D1*
X30581Y16073D1*
X30507Y16173D1*
X30464Y16290D1*
X30457Y16415D1*
X30487Y16535D1*
X30551Y16643D1*
X30643Y16727D1*
X30755Y16781D1*
X30878Y16800D1*
X31001Y16782D1*
X31047Y16761D1*
X31115Y16791D1*
X31238Y16810D1*
X31361Y16792D1*
X31421Y16764D1*
X31485Y16791D1*
X31608Y16810D1*
X31731Y16792D1*
X31844Y16740D1*
X31937Y16657D1*
X32002Y16551D1*
X32033Y16430D1*
X32036Y16385D1*
X32017Y16262D1*
X31964Y16149D1*
X31881Y16057D1*
X31774Y15992D1*
X31653Y15962D1*
X31529Y15968D1*
X31430Y16003D1*
X31283Y15962D1*
X31159Y15968D1*
X31074Y15998D1*
X32915Y11176D2*
X32868Y11156D1*
X32744Y11147D1*
X32624Y11179D1*
X32521Y11249D1*
X32447Y11349D1*
X32409Y11467D1*
X32412Y11592D1*
X32456Y11708D1*
X32535Y11804D1*
X32641Y11869D1*
X32763Y11895D1*
X32887Y11880D1*
X32961Y11849D1*
X33083Y11875D1*
X33207Y11860D1*
X33318Y11805D1*
X33343Y11780D1*
X33365Y11804D1*
X33471Y11869D1*
X33593Y11895D1*
X33717Y11880D1*
X33828Y11825D1*
X33916Y11737D1*
X33971Y11622D1*
X34064Y11666D1*
X34187Y11685D1*
X34311Y11668D1*
X34424Y11615D1*
X34517Y11532D1*
X34581Y11426D1*
X34613Y11305D1*
X34615Y11260D1*
X34597Y11137D1*
X34544Y11024D1*
X34460Y10932D1*
X34353Y10868D1*
X34233Y10837D1*
X34108Y10843D1*
X33991Y10885D1*
X33891Y10959D1*
X33816Y11058D1*
X33773Y11179D1*
X33698Y11156D1*
X33574Y11147D1*
X33454Y11179D1*
X33367Y11238D1*
X33303Y11185D1*
X33188Y11136D1*
X33064Y11127D1*
X32944Y11159D1*
X32922Y11174D1*
X32465Y12237D2*
X32405Y12128D1*
X32313Y12045D1*
X32198Y11996D1*
X32074Y11987D1*
X31954Y12019D1*
X31851Y12089D1*
X31777Y12189D1*
X31739Y12307D1*
X31742Y12432D1*
X31786Y12548D1*
X31853Y12629D1*
X31823Y12695D1*
X31734Y12724D1*
X31631Y12794D1*
X31557Y12894D1*
X31519Y13012D1*
X31522Y13137D1*
X31566Y13253D1*
X31645Y13349D1*
X31751Y13414D1*
X31816Y13427D1*
X31841Y13478D1*
X31920Y13574D1*
X32026Y13639D1*
X32148Y13665D1*
X32272Y13650D1*
X32383Y13595D1*
X32471Y13507D1*
X32525Y13395D1*
X32540Y13290D1*
X32520Y13167D1*
X32465Y13069D1*
X32525Y12945D1*
X32540Y12840D1*
X32520Y12717D1*
X32460Y12608D1*
X32422Y12574D1*
X32470Y12465D1*
X32485Y12360D1*
X32465Y12237D1*
X33885Y14287D2*
X33825Y14178D1*
X33733Y14095D1*
X33618Y14046D1*
X33494Y14037D1*
X33374Y14069D1*
X33271Y14139D1*
X33197Y14239D1*
X33159Y14357D1*
X33162Y14482D1*
X33206Y14598D1*
X33285Y14694D1*
X33391Y14759D1*
X33513Y14785D1*
X33637Y14770D1*
X33748Y14715D1*
X33836Y14627D1*
X33890Y14515D1*
X33905Y14410D1*
X33885Y14287D1*
X34837Y14687D2*
X34784Y14574D1*
X34700Y14482D1*
X34593Y14418D1*
X34473Y14387D1*
X34348Y14393D1*
X34231Y14435D1*
X34131Y14509D1*
X34056Y14608D1*
X34014Y14726D1*
X34007Y14850D1*
X34037Y14971D1*
X34100Y15078D1*
X34192Y15162D1*
X34304Y15216D1*
X34427Y15235D1*
X34551Y15218D1*
X34664Y15165D1*
X34757Y15082D1*
X34821Y14976D1*
X34853Y14855D1*
X34855Y14810D1*
X34837Y14687D1*
X32627Y15007D2*
X32574Y14894D1*
X32490Y14802D1*
X32383Y14738D1*
X32263Y14707D1*
X32138Y14713D1*
X32021Y14755D1*
X31921Y14829D1*
X31846Y14928D1*
X31804Y15046D1*
X31797Y15170D1*
X31827Y15291D1*
X31890Y15398D1*
X31982Y15482D1*
X32094Y15536D1*
X32217Y15555D1*
X32341Y15538D1*
X32454Y15485D1*
X32547Y15402D1*
X32611Y15296D1*
X32643Y15175D1*
X32645Y15130D1*
X32627Y15007D1*
X29884Y11749D2*
X29787Y11742D1*
X29667Y11774D1*
X29564Y11844D1*
X29490Y11944D1*
X29452Y12063D1*
X29455Y12187D1*
X29499Y12303D1*
X29578Y12399D1*
X29685Y12464D1*
X29806Y12490D1*
X29930Y12475D1*
X30042Y12420D1*
X30129Y12332D1*
X30187Y12197D1*
X30307Y12215D1*
X30431Y12198D1*
X30544Y12145D1*
X30637Y12062D1*
X30701Y11956D1*
X30733Y11835D1*
X30735Y11790D1*
X30717Y11667D1*
X30664Y11554D1*
X30580Y11462D1*
X30473Y11398D1*
X30353Y11367D1*
X30228Y11373D1*
X30111Y11415D1*
X30011Y11489D1*
X29936Y11588D1*
X29894Y11706D1*
X29891Y11748D1*
X29738Y13353D2*
X29678Y13244D1*
X29586Y13160D1*
X29472Y13111D1*
X29347Y13102D1*
X29227Y13134D1*
X29124Y13204D1*
X29050Y13304D1*
X29012Y13423D1*
X29015Y13547D1*
X29059Y13663D1*
X29138Y13759D1*
X29245Y13824D1*
X29286Y13833D1*
X29227Y13854D1*
X29124Y13924D1*
X29050Y14024D1*
X29012Y14143D1*
X29015Y14267D1*
X29059Y14383D1*
X29138Y14479D1*
X29245Y14544D1*
X29366Y14570D1*
X29490Y14555D1*
X29602Y14500D1*
X29689Y14412D1*
X29743Y14300D1*
X29758Y14195D1*
X29738Y14073D1*
X29678Y13964D1*
X29586Y13880D1*
X29490Y13835D1*
X29602Y13780D1*
X29689Y13692D1*
X29743Y13580D1*
X29758Y13475D1*
X29738Y13353D1*
X30158Y15183D2*
X30098Y15074D1*
X30006Y14990D1*
X29892Y14941D1*
X29767Y14932D1*
X29647Y14964D1*
X29544Y15034D1*
X29470Y15134D1*
X29432Y15253D1*
X29435Y15377D1*
X29479Y15493D1*
X29558Y15589D1*
X29665Y15654D1*
X29786Y15680D1*
X29910Y15665D1*
X30022Y15610D1*
X30109Y15522D1*
X30163Y15410D1*
X30178Y15305D1*
X30158Y15183D1*
X35600Y7987D2*
X35577Y7973D1*
X35456Y7943D1*
X35331Y7948D1*
X35214Y7990D1*
X35114Y8064D1*
X35039Y8164D1*
X34997Y8281D1*
X34990Y8405D1*
X35020Y8526D1*
X35083Y8633D1*
X35175Y8717D1*
X35288Y8771D1*
X35411Y8790D1*
X35534Y8773D1*
X35580Y8752D1*
X35648Y8781D1*
X35771Y8800D1*
X35894Y8783D1*
X35954Y8755D1*
X36018Y8781D1*
X36141Y8800D1*
X36264Y8783D1*
X36377Y8731D1*
X36470Y8648D1*
X36535Y8541D1*
X36566Y8421D1*
X36568Y8375D1*
X36550Y8252D1*
X36497Y8140D1*
X36413Y8047D1*
X36307Y7983D1*
X36186Y7953D1*
X36061Y7958D1*
X35962Y7994D1*
X35816Y7953D1*
X35691Y7958D1*
X35607Y7988D1*
X31070Y8017D2*
X31047Y8003D1*
X30926Y7973D1*
X30801Y7978D1*
X30684Y8020D1*
X30584Y8094D1*
X30509Y8194D1*
X30467Y8311D1*
X30460Y8435D1*
X30490Y8556D1*
X30553Y8663D1*
X30645Y8747D1*
X30758Y8801D1*
X30881Y8820D1*
X31004Y8803D1*
X31050Y8782D1*
X31118Y8811D1*
X31241Y8830D1*
X31364Y8813D1*
X31424Y8785D1*
X31488Y8811D1*
X31611Y8830D1*
X31734Y8813D1*
X31847Y8761D1*
X31940Y8678D1*
X32005Y8571D1*
X32036Y8451D1*
X32038Y8405D1*
X32020Y8282D1*
X31967Y8170D1*
X31883Y8077D1*
X31777Y8013D1*
X31656Y7983D1*
X31531Y7988D1*
X31432Y8024D1*
X31286Y7983D1*
X31161Y7988D1*
X31077Y8018D1*
X26877Y37947D2*
X26824Y37834D1*
X26740Y37742D1*
X26633Y37678D1*
X26513Y37647D1*
X26388Y37653D1*
X26271Y37695D1*
X26171Y37769D1*
X26096Y37868D1*
X26054Y37986D1*
X26047Y38110D1*
X26077Y38231D1*
X26140Y38338D1*
X26232Y38422D1*
X26344Y38476D1*
X26467Y38495D1*
X26591Y38478D1*
X26704Y38425D1*
X26797Y38342D1*
X26861Y38236D1*
X26893Y38115D1*
X26895Y38070D1*
X26877Y37947D1*
X23447Y9897D2*
X23394Y9784D1*
X23310Y9692D1*
X23203Y9628D1*
X23083Y9597D1*
X22958Y9603D1*
X22841Y9645D1*
X22741Y9719D1*
X22666Y9818D1*
X22624Y9936D1*
X22617Y10060D1*
X22647Y10181D1*
X22710Y10288D1*
X22802Y10372D1*
X22914Y10426D1*
X23037Y10445D1*
X23161Y10428D1*
X23274Y10375D1*
X23367Y10292D1*
X23431Y10186D1*
X23463Y10065D1*
X23465Y10020D1*
X23447Y9897D1*
X25847Y9842D2*
X25794Y9729D1*
X25710Y9637D1*
X25603Y9573D1*
X25483Y9542D1*
X25358Y9548D1*
X25241Y9590D1*
X25141Y9664D1*
X25066Y9763D1*
X25024Y9881D1*
X25017Y10005D1*
X25047Y10126D1*
X25110Y10233D1*
X25202Y10317D1*
X25314Y10371D1*
X25437Y10390D1*
X25561Y10373D1*
X25674Y10320D1*
X25767Y10237D1*
X25831Y10131D1*
X25863Y10010D1*
X25865Y9965D1*
X25847Y9842D1*
X15622Y11417D2*
X15569Y11304D1*
X15485Y11212D1*
X15378Y11148D1*
X15258Y11117D1*
X15133Y11123D1*
X15016Y11165D1*
X14916Y11239D1*
X14841Y11338D1*
X14799Y11456D1*
X14792Y11580D1*
X14822Y11701D1*
X14885Y11808D1*
X14977Y11892D1*
X15089Y11946D1*
X15212Y11965D1*
X15336Y11948D1*
X15449Y11895D1*
X15542Y11812D1*
X15606Y11706D1*
X15638Y11585D1*
X15640Y11540D1*
X15622Y11417D1*
X5867Y14137D2*
X5814Y14024D1*
X5730Y13932D1*
X5623Y13868D1*
X5503Y13837D1*
X5378Y13843D1*
X5261Y13885D1*
X5161Y13959D1*
X5086Y14058D1*
X5044Y14176D1*
X5037Y14300D1*
X5067Y14421D1*
X5130Y14528D1*
X5222Y14612D1*
X5334Y14666D1*
X5457Y14685D1*
X5581Y14668D1*
X5694Y14615D1*
X5787Y14532D1*
X5851Y14426D1*
X5883Y14305D1*
X5885Y14260D1*
X5867Y14137D1*
X19857Y16517D2*
X19804Y16404D1*
X19720Y16312D1*
X19613Y16248D1*
X19481Y16218D1*
X19434Y16114D1*
X19350Y16022D1*
X19243Y15958D1*
X19123Y15927D1*
X18998Y15933D1*
X18881Y15975D1*
X18781Y16049D1*
X18706Y16148D1*
X18664Y16266D1*
X18657Y16390D1*
X18687Y16511D1*
X18750Y16618D1*
X18842Y16702D1*
X18954Y16756D1*
X19043Y16770D1*
X19120Y16908D1*
X19212Y16992D1*
X19324Y17046D1*
X19447Y17065D1*
X19571Y17048D1*
X19684Y16995D1*
X19777Y16912D1*
X19841Y16806D1*
X19873Y16685D1*
X19875Y16640D1*
X19857Y16517D1*
X19197Y18647D2*
X19144Y18534D1*
X19060Y18442D1*
X18953Y18378D1*
X18833Y18347D1*
X18708Y18353D1*
X18591Y18395D1*
X18491Y18469D1*
X18428Y18553D1*
X18414Y18524D1*
X18330Y18432D1*
X18223Y18368D1*
X18103Y18337D1*
X17978Y18343D1*
X17861Y18385D1*
X17761Y18459D1*
X17686Y18558D1*
X17644Y18676D1*
X17639Y18765D1*
X17541Y18839D1*
X17520Y18867D1*
X17378Y18773D1*
X17258Y18742D1*
X17133Y18748D1*
X17016Y18790D1*
X16916Y18864D1*
X16841Y18963D1*
X16799Y19081D1*
X16792Y19205D1*
X16822Y19326D1*
X16885Y19433D1*
X16977Y19517D1*
X17089Y19571D1*
X17178Y19585D1*
X17210Y19633D1*
X17302Y19717D1*
X17414Y19771D1*
X17537Y19790D1*
X17661Y19773D1*
X17774Y19720D1*
X17867Y19637D1*
X17913Y19561D1*
X18074Y19495D1*
X18094Y19477D1*
X18170Y19618D1*
X18262Y19702D1*
X18374Y19756D1*
X18497Y19775D1*
X18621Y19758D1*
X18734Y19705D1*
X18827Y19622D1*
X18891Y19516D1*
X18923Y19395D1*
X18925Y19350D1*
X18907Y19227D1*
X18885Y19181D1*
X18911Y19178D1*
X19024Y19125D1*
X19117Y19042D1*
X19181Y18936D1*
X19213Y18815D1*
X19215Y18770D1*
X19197Y18647D1*
X24699Y31461D2*
X24674Y31531D1*
X24667Y31655D1*
X24697Y31776D1*
X24760Y31883D1*
X24852Y31967D1*
X24964Y32021D1*
X25087Y32040D1*
X25211Y32023D1*
X25250Y32005D1*
X25289Y32021D1*
X25412Y32040D1*
X25536Y32023D1*
X25575Y32005D1*
X25614Y32021D1*
X25737Y32040D1*
X25861Y32023D1*
X25900Y32005D1*
X25939Y32021D1*
X26062Y32040D1*
X26186Y32023D1*
X26299Y31970D1*
X26392Y31887D1*
X26456Y31781D1*
X26488Y31660D1*
X26490Y31615D1*
X26472Y31492D1*
X26457Y31460D1*
X26488Y31335D1*
X26490Y31290D1*
X26472Y31167D1*
X26419Y31054D1*
X26335Y30962D1*
X26228Y30898D1*
X26108Y30867D1*
X25983Y30873D1*
X25906Y30900D1*
X25783Y30867D1*
X25658Y30873D1*
X25581Y30900D1*
X25458Y30867D1*
X25333Y30873D1*
X25256Y30900D1*
X25133Y30867D1*
X25008Y30873D1*
X24891Y30915D1*
X24791Y30989D1*
X24716Y31088D1*
X24674Y31206D1*
X24667Y31330D1*
X24699Y31454D1*
X14657Y25637D2*
X14604Y25524D1*
X14520Y25432D1*
X14413Y25368D1*
X14293Y25337D1*
X14168Y25343D1*
X14048Y25387D1*
X13883Y25337D1*
X13758Y25343D1*
X13641Y25385D1*
X13541Y25459D1*
X13466Y25558D1*
X13424Y25676D1*
X13417Y25800D1*
X13447Y25921D1*
X13510Y26028D1*
X13602Y26112D1*
X13714Y26166D1*
X13837Y26185D1*
X13961Y26168D1*
X14042Y26130D1*
X14124Y26166D1*
X14247Y26185D1*
X14371Y26168D1*
X14484Y26115D1*
X14577Y26032D1*
X14641Y25926D1*
X14673Y25805D1*
X14675Y25760D1*
X14657Y25637D1*
X18922Y27092D2*
X18869Y26979D1*
X18785Y26887D1*
X18678Y26823D1*
X18558Y26792D1*
X18433Y26798D1*
X18316Y26840D1*
X18216Y26914D1*
X18141Y27013D1*
X18099Y27131D1*
X18092Y27255D1*
X18122Y27376D1*
X18185Y27483D1*
X18277Y27567D1*
X18389Y27621D1*
X18512Y27640D1*
X18636Y27623D1*
X18749Y27570D1*
X18842Y27487D1*
X18906Y27381D1*
X18938Y27260D1*
X18940Y27215D1*
X18922Y27092D1*
X23397Y22992D2*
X23344Y22879D1*
X23260Y22787D1*
X23153Y22723D1*
X23033Y22692D1*
X22908Y22698D1*
X22791Y22740D1*
X22763Y22761D1*
X22806Y22681D1*
X22838Y22560D1*
X22840Y22515D1*
X22822Y22392D1*
X22797Y22339D1*
X22891Y22323D1*
X23004Y22270D1*
X23097Y22187D1*
X23161Y22081D1*
X23193Y21960D1*
X23195Y21915D1*
X23177Y21792D1*
X23124Y21679D1*
X23040Y21587D1*
X22933Y21523D1*
X22854Y21503D1*
X22881Y21456D1*
X22913Y21335D1*
X22915Y21290D1*
X22897Y21167D1*
X22844Y21054D1*
X22760Y20962D1*
X22653Y20898D1*
X22533Y20867D1*
X22408Y20873D1*
X22291Y20915D1*
X22191Y20989D1*
X22116Y21088D1*
X22083Y21180D1*
X21941Y21225D1*
X21841Y21299D1*
X21766Y21399D1*
X21724Y21516D1*
X21717Y21640D1*
X21747Y21761D1*
X21810Y21869D1*
X21902Y21953D1*
X22014Y22007D1*
X22137Y22026D1*
X22261Y22008D1*
X22349Y21967D1*
X22387Y22093D1*
X22333Y22098D1*
X22216Y22140D1*
X22116Y22214D1*
X22041Y22313D1*
X21998Y22434D1*
X21916Y22465D1*
X21816Y22539D1*
X21741Y22638D1*
X21699Y22756D1*
X21692Y22880D1*
X21722Y23001D1*
X21785Y23108D1*
X21877Y23192D1*
X21989Y23246D1*
X22112Y23265D1*
X22236Y23248D1*
X22349Y23195D1*
X22442Y23112D1*
X22506Y23006D1*
X22527Y22927D1*
X22638Y22875D1*
X22574Y23031D1*
X22567Y23155D1*
X22597Y23276D1*
X22660Y23383D1*
X22752Y23467D1*
X22864Y23521D1*
X22987Y23540D1*
X23111Y23523D1*
X23224Y23470D1*
X23317Y23387D1*
X23381Y23281D1*
X23413Y23160D1*
X23415Y23115D1*
X23397Y22992D1*
X15985Y26392D2*
X15935Y26337D1*
X15828Y26273D1*
X15708Y26242D1*
X15583Y26248D1*
X15466Y26290D1*
X15366Y26364D1*
X15291Y26463D1*
X15249Y26581D1*
X15242Y26705D1*
X15272Y26826D1*
X15335Y26933D1*
X15427Y27017D1*
X15539Y27071D1*
X15582Y27078D1*
X15635Y27158D1*
X15727Y27242D1*
X15839Y27296D1*
X15962Y27315D1*
X16086Y27298D1*
X16199Y27245D1*
X16292Y27162D1*
X16356Y27056D1*
X16377Y26977D1*
X16435Y26951D1*
X16471Y26969D1*
X16593Y26995D1*
X16717Y26980D1*
X16769Y26954D1*
X16903Y26985D1*
X17027Y26970D1*
X17072Y26948D1*
X17213Y26985D1*
X17337Y26970D1*
X17382Y26948D1*
X17533Y26985D1*
X17657Y26970D1*
X17709Y26944D1*
X17843Y26975D1*
X17967Y26960D1*
X18078Y26905D1*
X18166Y26817D1*
X18220Y26705D1*
X18235Y26600D1*
X18215Y26477D1*
X18155Y26368D1*
X18063Y26285D1*
X17948Y26236D1*
X17824Y26227D1*
X17694Y26266D1*
X17638Y26246D1*
X17514Y26237D1*
X17391Y26271D1*
X17318Y26246D1*
X17194Y26237D1*
X17078Y26268D1*
X17008Y26246D1*
X16884Y26237D1*
X16754Y26276D1*
X16698Y26256D1*
X16574Y26247D1*
X16465Y26276D1*
X16378Y26246D1*
X16254Y26237D1*
X16134Y26269D1*
X16031Y26339D1*
X15992Y26392D1*
X13822Y22417D2*
X13769Y22304D1*
X13685Y22212D1*
X13578Y22148D1*
X13458Y22117D1*
X13333Y22123D1*
X13216Y22165D1*
X13116Y22239D1*
X13041Y22338D1*
X13008Y22430D1*
X12921Y22465D1*
X12821Y22539D1*
X12746Y22638D1*
X12704Y22756D1*
X12697Y22880D1*
X12727Y23001D1*
X12790Y23108D1*
X12882Y23192D1*
X12991Y23244D1*
X13022Y23351D1*
X13085Y23458D1*
X13177Y23542D1*
X13289Y23596D1*
X13412Y23615D1*
X13536Y23598D1*
X13649Y23545D1*
X13742Y23462D1*
X13806Y23356D1*
X13838Y23235D1*
X13840Y23190D1*
X13822Y23067D1*
X13769Y22954D1*
X13688Y22865D1*
X13742Y22812D1*
X13806Y22706D1*
X13838Y22585D1*
X13840Y22540D1*
X13822Y22417D1*
X9722Y19992D2*
X9669Y19879D1*
X9585Y19787D1*
X9478Y19723D1*
X9358Y19692D1*
X9233Y19698D1*
X9116Y19740D1*
X9016Y19814D1*
X8941Y19913D1*
X8899Y20031D1*
X8892Y20155D1*
X8922Y20276D1*
X8985Y20383D1*
X9077Y20467D1*
X9189Y20521D1*
X9312Y20540D1*
X9436Y20523D1*
X9549Y20470D1*
X9642Y20387D1*
X9706Y20281D1*
X9738Y20160D1*
X9740Y20115D1*
X9722Y19992D1*
X18767Y9967D2*
X18714Y9854D1*
X18630Y9762D1*
X18523Y9698D1*
X18403Y9667D1*
X18278Y9673D1*
X18161Y9715D1*
X18061Y9789D1*
X17986Y9888D1*
X17944Y10006D1*
X17937Y10130D1*
X17967Y10251D1*
X18030Y10358D1*
X18122Y10442D1*
X18234Y10496D1*
X18357Y10515D1*
X18481Y10498D1*
X18594Y10445D1*
X18687Y10362D1*
X18751Y10256D1*
X18783Y10135D1*
X18785Y10090D1*
X18767Y9967D1*
X19572Y9027D2*
X19519Y8914D1*
X19435Y8822D1*
X19328Y8758D1*
X19208Y8727D1*
X19083Y8733D1*
X18966Y8775D1*
X18866Y8849D1*
X18791Y8948D1*
X18749Y9066D1*
X18742Y9190D1*
X18772Y9311D1*
X18835Y9418D1*
X18927Y9502D1*
X19039Y9556D1*
X19162Y9575D1*
X19286Y9558D1*
X19399Y9505D1*
X19492Y9422D1*
X19556Y9316D1*
X19588Y9195D1*
X19590Y9150D1*
X19572Y9027D1*
X34607Y6277D2*
X34554Y6164D1*
X34470Y6072D1*
X34363Y6008D1*
X34243Y5977D1*
X34118Y5983D1*
X34001Y6025D1*
X33901Y6099D1*
X33826Y6198D1*
X33784Y6316D1*
X33777Y6440D1*
X33807Y6561D1*
X33870Y6668D1*
X33962Y6752D1*
X34074Y6806D1*
X34197Y6825D1*
X34321Y6808D1*
X34434Y6755D1*
X34527Y6672D1*
X34591Y6566D1*
X34623Y6445D1*
X34625Y6400D1*
X34607Y6277D1*
X28387Y8897D2*
X28334Y8784D1*
X28250Y8692D1*
X28143Y8628D1*
X28023Y8597D1*
X27898Y8603D1*
X27781Y8645D1*
X27681Y8719D1*
X27664Y8740D1*
X27563Y8678D1*
X27443Y8647D1*
X27318Y8653D1*
X27201Y8695D1*
X27101Y8769D1*
X27026Y8868D1*
X26984Y8986D1*
X26977Y9110D1*
X27007Y9231D1*
X27070Y9338D1*
X27162Y9422D1*
X27274Y9476D1*
X27397Y9495D1*
X27521Y9478D1*
X27634Y9425D1*
X27718Y9350D1*
X27742Y9372D1*
X27854Y9426D1*
X27977Y9445D1*
X28101Y9428D1*
X28214Y9375D1*
X28307Y9292D1*
X28371Y9186D1*
X28403Y9065D1*
X28405Y9020D1*
X28387Y8897D1*
X25902Y8367D2*
X25849Y8254D1*
X25765Y8162D1*
X25658Y8098D1*
X25538Y8067D1*
X25413Y8073D1*
X25296Y8115D1*
X25196Y8189D1*
X25121Y8288D1*
X25079Y8406D1*
X25072Y8530D1*
X25102Y8651D1*
X25165Y8758D1*
X25257Y8842D1*
X25369Y8896D1*
X25492Y8915D1*
X25616Y8898D1*
X25729Y8845D1*
X25822Y8762D1*
X25886Y8656D1*
X25918Y8535D1*
X25920Y8490D1*
X25902Y8367D1*
X20687Y8837D2*
X20634Y8724D1*
X20550Y8632D1*
X20443Y8568D1*
X20323Y8537D1*
X20198Y8543D1*
X20081Y8585D1*
X19981Y8659D1*
X19906Y8758D1*
X19864Y8876D1*
X19857Y9000D1*
X19887Y9121D1*
X19950Y9228D1*
X20042Y9312D1*
X20154Y9366D1*
X20277Y9385D1*
X20401Y9368D1*
X20514Y9315D1*
X20607Y9232D1*
X20671Y9126D1*
X20703Y9005D1*
X20705Y8960D1*
X20687Y8837D1*
X23907Y23687D2*
X23854Y23574D1*
X23770Y23482D1*
X23663Y23418D1*
X23543Y23387D1*
X23418Y23393D1*
X23301Y23435D1*
X23201Y23509D1*
X23126Y23608D1*
X23084Y23726D1*
X23077Y23850D1*
X23107Y23971D1*
X23170Y24078D1*
X23262Y24162D1*
X23374Y24216D1*
X23497Y24235D1*
X23621Y24218D1*
X23734Y24165D1*
X23827Y24082D1*
X23891Y23976D1*
X23923Y23855D1*
X23925Y23810D1*
X23907Y23687D1*
X25697Y23692D2*
X25644Y23579D1*
X25560Y23487D1*
X25453Y23423D1*
X25333Y23392D1*
X25208Y23398D1*
X25091Y23440D1*
X24991Y23514D1*
X24916Y23613D1*
X24874Y23731D1*
X24867Y23855D1*
X24897Y23976D1*
X24960Y24083D1*
X25052Y24167D1*
X25164Y24221D1*
X25287Y24240D1*
X25411Y24223D1*
X25524Y24170D1*
X25617Y24087D1*
X25681Y23981D1*
X25713Y23860D1*
X25715Y23815D1*
X25697Y23692D1*
X24087Y25207D2*
X24034Y25094D1*
X23950Y25002D1*
X23843Y24938D1*
X23723Y24907D1*
X23598Y24913D1*
X23481Y24955D1*
X23381Y25029D1*
X23306Y25128D1*
X23264Y25246D1*
X23257Y25370D1*
X23287Y25491D1*
X23350Y25598D1*
X23442Y25682D1*
X23554Y25736D1*
X23677Y25755D1*
X23801Y25738D1*
X23914Y25685D1*
X24007Y25602D1*
X24071Y25496D1*
X24103Y25375D1*
X24105Y25330D1*
X24087Y25207D1*
X13472Y26142D2*
X13419Y26029D1*
X13335Y25937D1*
X13228Y25873D1*
X13108Y25842D1*
X12983Y25848D1*
X12866Y25890D1*
X12766Y25964D1*
X12691Y26063D1*
X12649Y26181D1*
X12642Y26305D1*
X12672Y26426D1*
X12735Y26533D1*
X12827Y26617D1*
X12939Y26671D1*
X13062Y26690D1*
X13186Y26673D1*
X13299Y26620D1*
X13392Y26537D1*
X13456Y26431D1*
X13488Y26310D1*
X13490Y26265D1*
X13472Y26142D1*
X26207Y25177D2*
X26154Y25064D1*
X26070Y24972D1*
X25963Y24908D1*
X25843Y24877D1*
X25718Y24883D1*
X25601Y24925D1*
X25501Y24999D1*
X25426Y25098D1*
X25384Y25216D1*
X25377Y25340D1*
X25407Y25461D1*
X25470Y25568D1*
X25562Y25652D1*
X25674Y25706D1*
X25797Y25725D1*
X25921Y25708D1*
X26034Y25655D1*
X26127Y25572D1*
X26191Y25466D1*
X26223Y25345D1*
X26225Y25300D1*
X26207Y25177D1*
X11322Y15017D2*
X11269Y14904D1*
X11185Y14812D1*
X11078Y14748D1*
X10958Y14717D1*
X10833Y14723D1*
X10716Y14765D1*
X10616Y14839D1*
X10541Y14938D1*
X10499Y15056D1*
X10492Y15180D1*
X10522Y15301D1*
X10585Y15408D1*
X10677Y15492D1*
X10789Y15546D1*
X10912Y15565D1*
X11036Y15548D1*
X11149Y15495D1*
X11242Y15412D1*
X11306Y15306D1*
X11338Y15185D1*
X11340Y15140D1*
X11322Y15017D1*
X15022Y17917D2*
X14969Y17804D1*
X14885Y17712D1*
X14778Y17648D1*
X14658Y17617D1*
X14533Y17623D1*
X14416Y17665D1*
X14316Y17739D1*
X14241Y17838D1*
X14199Y17956D1*
X14192Y18080D1*
X14222Y18201D1*
X14285Y18308D1*
X14377Y18392D1*
X14489Y18446D1*
X14612Y18465D1*
X14736Y18448D1*
X14849Y18395D1*
X14942Y18312D1*
X15006Y18206D1*
X15038Y18085D1*
X15040Y18040D1*
X15022Y17917D1*
X13527Y24927D2*
X13474Y24814D1*
X13390Y24722D1*
X13283Y24658D1*
X13163Y24627D1*
X13038Y24633D1*
X12921Y24675D1*
X12821Y24749D1*
X12746Y24848D1*
X12704Y24966D1*
X12697Y25090D1*
X12727Y25211D1*
X12790Y25318D1*
X12882Y25402D1*
X12994Y25456D1*
X13117Y25475D1*
X13241Y25458D1*
X13354Y25405D1*
X13447Y25322D1*
X13511Y25216D1*
X13543Y25095D1*
X13545Y25050D1*
X13527Y24927D1*
X9277Y9277D2*
X9224Y9164D1*
X9140Y9072D1*
X9033Y9008D1*
X8913Y8977D1*
X8788Y8983D1*
X8671Y9025D1*
X8571Y9099D1*
X8496Y9198D1*
X8454Y9316D1*
X8447Y9440D1*
X8477Y9561D1*
X8540Y9668D1*
X8632Y9752D1*
X8744Y9806D1*
X8867Y9825D1*
X8991Y9808D1*
X9104Y9755D1*
X9197Y9672D1*
X9261Y9566D1*
X9293Y9445D1*
X9295Y9400D1*
X9277Y9277D1*
X11477Y9737D2*
X11424Y9624D1*
X11340Y9532D1*
X11233Y9468D1*
X11113Y9437D1*
X10988Y9443D1*
X10871Y9485D1*
X10771Y9559D1*
X10696Y9658D1*
X10654Y9776D1*
X10647Y9900D1*
X10677Y10021D1*
X10740Y10128D1*
X10832Y10212D1*
X10944Y10266D1*
X11067Y10285D1*
X11191Y10268D1*
X11304Y10215D1*
X11397Y10132D1*
X11461Y10026D1*
X11493Y9905D1*
X11495Y9860D1*
X11477Y9737D1*
X12607Y9487D2*
X12554Y9374D1*
X12470Y9282D1*
X12363Y9218D1*
X12243Y9187D1*
X12118Y9193D1*
X12001Y9235D1*
X11901Y9309D1*
X11826Y9408D1*
X11784Y9526D1*
X11777Y9650D1*
X11807Y9771D1*
X11870Y9878D1*
X11962Y9962D1*
X12074Y10016D1*
X12197Y10035D1*
X12321Y10018D1*
X12434Y9965D1*
X12527Y9882D1*
X12591Y9776D1*
X12623Y9655D1*
X12625Y9610D1*
X12607Y9487D1*
X13647D2*
X13594Y9374D1*
X13510Y9282D1*
X13403Y9218D1*
X13283Y9187D1*
X13158Y9193D1*
X13041Y9235D1*
X12941Y9309D1*
X12866Y9408D1*
X12824Y9526D1*
X12817Y9650D1*
X12847Y9771D1*
X12910Y9878D1*
X13002Y9962D1*
X13114Y10016D1*
X13237Y10035D1*
X13361Y10018D1*
X13474Y9965D1*
X13567Y9882D1*
X13631Y9776D1*
X13663Y9655D1*
X13665Y9610D1*
X13647Y9487D1*
X17357Y14677D2*
X17304Y14564D1*
X17220Y14472D1*
X17113Y14408D1*
X16993Y14377D1*
X16868Y14383D1*
X16751Y14425D1*
X16651Y14499D1*
X16576Y14598D1*
X16534Y14716D1*
X16527Y14840D1*
X16557Y14961D1*
X16620Y15068D1*
X16712Y15152D1*
X16824Y15206D1*
X16947Y15225D1*
X17071Y15208D1*
X17184Y15155D1*
X17277Y15072D1*
X17341Y14966D1*
X17373Y14845D1*
X17375Y14800D1*
X17357Y14677D1*
X16937Y9997D2*
X16884Y9884D1*
X16800Y9792D1*
X16693Y9728D1*
X16573Y9697D1*
X16448Y9703D1*
X16331Y9745D1*
X16231Y9819D1*
X16156Y9918D1*
X16114Y10036D1*
X16107Y10160D1*
X16137Y10281D1*
X16200Y10388D1*
X16292Y10472D1*
X16404Y10526D1*
X16527Y10545D1*
X16651Y10528D1*
X16764Y10475D1*
X16857Y10392D1*
X16921Y10286D1*
X16953Y10165D1*
X16955Y10120D1*
X16937Y9997D1*
X18457Y11307D2*
X18404Y11194D1*
X18320Y11102D1*
X18213Y11038D1*
X18093Y11007D1*
X17968Y11013D1*
X17851Y11055D1*
X17751Y11129D1*
X17676Y11228D1*
X17634Y11346D1*
X17627Y11470D1*
X17657Y11591D1*
X17720Y11698D1*
X17812Y11782D1*
X17924Y11836D1*
X18047Y11855D1*
X18171Y11838D1*
X18284Y11785D1*
X18377Y11702D1*
X18441Y11596D1*
X18473Y11475D1*
X18475Y11430D1*
X18457Y11307D1*
X11327Y12447D2*
X11274Y12334D1*
X11190Y12242D1*
X11083Y12178D1*
X10963Y12147D1*
X10838Y12153D1*
X10721Y12195D1*
X10621Y12269D1*
X10546Y12368D1*
X10504Y12486D1*
X10497Y12610D1*
X10527Y12731D1*
X10590Y12838D1*
X10682Y12922D1*
X10794Y12976D1*
X10917Y12995D1*
X11041Y12978D1*
X11154Y12925D1*
X11247Y12842D1*
X11311Y12736D1*
X11343Y12615D1*
X11345Y12570D1*
X11327Y12447D1*
X20952Y24999D2*
X20898Y24976D1*
X20774Y24967D1*
X20654Y24999D1*
X20551Y25069D1*
X20477Y25169D1*
X20439Y25287D1*
X20442Y25412D1*
X20486Y25528D1*
X20523Y25573D1*
X20458Y25562D1*
X20333Y25568D1*
X20216Y25610D1*
X20116Y25684D1*
X20041Y25783D1*
X19999Y25901D1*
X19992Y26025D1*
X20022Y26146D1*
X20085Y26253D1*
X20177Y26337D1*
X20289Y26391D1*
X20412Y26410D1*
X20536Y26393D1*
X20663Y26327D1*
X20752Y26412D1*
X20864Y26466D1*
X20987Y26485D1*
X21111Y26468D1*
X21224Y26415D1*
X21317Y26332D1*
X21381Y26226D1*
X21413Y26105D1*
X21415Y26060D1*
X21397Y25937D1*
X21344Y25824D1*
X21260Y25732D1*
X21217Y25700D1*
X21248Y25684D1*
X21383Y25715D1*
X21507Y25700D1*
X21541Y25689D1*
X21663Y25715D1*
X21787Y25700D1*
X21821Y25689D1*
X21943Y25715D1*
X22067Y25700D1*
X22105Y25681D1*
X22243Y25715D1*
X22367Y25700D1*
X22478Y25645D1*
X22566Y25557D1*
X22620Y25445D1*
X22635Y25340D1*
X22615Y25217D1*
X22555Y25108D1*
X22463Y25025D1*
X22348Y24976D1*
X22224Y24967D1*
X22108Y24998D1*
X22048Y24976D1*
X21924Y24967D1*
X21823Y24994D1*
X21768Y24976D1*
X21644Y24967D1*
X21543Y24994D1*
X21488Y24976D1*
X21364Y24967D1*
X21255Y24996D1*
X21198Y24976D1*
X21074Y24967D1*
X20958Y24998D1*
X8807Y15467D2*
X8754Y15354D1*
X8670Y15262D1*
X8563Y15198D1*
X8443Y15167D1*
X8318Y15173D1*
X8201Y15215D1*
X8101Y15289D1*
X8026Y15388D1*
X7984Y15506D1*
X7977Y15630D1*
X8007Y15751D1*
X8070Y15858D1*
X8162Y15942D1*
X8274Y15996D1*
X8397Y16015D1*
X8521Y15998D1*
X8634Y15945D1*
X8727Y15862D1*
X8791Y15756D1*
X8823Y15635D1*
X8825Y15590D1*
X8807Y15467D1*
X8697Y12927D2*
X8644Y12814D1*
X8560Y12722D1*
X8453Y12658D1*
X8333Y12627D1*
X8208Y12633D1*
X8091Y12675D1*
X7991Y12749D1*
X7916Y12848D1*
X7874Y12966D1*
X7867Y13090D1*
X7897Y13211D1*
X7960Y13318D1*
X8052Y13402D1*
X8164Y13456D1*
X8287Y13475D1*
X8411Y13458D1*
X8524Y13405D1*
X8617Y13322D1*
X8681Y13216D1*
X8713Y13095D1*
X8715Y13050D1*
X8697Y12927D1*
X28045Y26267D2*
X28031Y26244D1*
X28050Y26195D1*
X28065Y26090D1*
X28045Y25967D1*
X28028Y25937D1*
X28055Y25790D1*
X28035Y25667D1*
X27975Y25558D1*
X27883Y25475D1*
X27768Y25426D1*
X27679Y25419D1*
X27615Y25298D1*
X27531Y25222D1*
X27515Y25157D1*
X27455Y25048D1*
X27363Y24965D1*
X27248Y24916D1*
X27124Y24907D1*
X27004Y24939D1*
X26901Y25009D1*
X26827Y25109D1*
X26789Y25227D1*
X26792Y25352D1*
X26836Y25468D1*
X26915Y25564D1*
X26952Y25586D1*
X26981Y25678D1*
X26959Y25767D1*
X26962Y25892D1*
X27006Y26008D1*
X27085Y26104D1*
X27191Y26169D1*
X27332Y26192D1*
X27319Y26337D1*
X27322Y26462D1*
X27366Y26578D1*
X27445Y26674D1*
X27551Y26739D1*
X27673Y26765D1*
X27797Y26750D1*
X27908Y26695D1*
X27996Y26607D1*
X28050Y26495D1*
X28065Y26390D1*
X28045Y26267D1*
X5746Y16876D2*
X5700Y16760D1*
X5628Y16659D1*
X5532Y16579D1*
X5420Y16525D1*
X5297Y16500D1*
X5173Y16507D1*
X5054Y16543D1*
X4947Y16608D1*
X4860Y16698D1*
X4798Y16806D1*
X4764Y16926D1*
X4761Y17050D1*
X4789Y17172D1*
X4846Y17283D1*
X4929Y17376D1*
X5032Y17446D1*
X5149Y17489D1*
X5273Y17501D1*
X5396Y17482D1*
X5511Y17434D1*
X5611Y17359D1*
X5688Y17261D1*
X5739Y17147D1*
X5761Y17000D1*
X5746Y16876D1*
X5976Y10446D2*
X5930Y10330D1*
X5858Y10229D1*
X5762Y10149D1*
X5650Y10095D1*
X5527Y10070D1*
X5403Y10077D1*
X5284Y10113D1*
X5177Y10178D1*
X5090Y10268D1*
X5028Y10376D1*
X4994Y10496D1*
X4991Y10620D1*
X5019Y10742D1*
X5076Y10853D1*
X5159Y10946D1*
X5262Y11016D1*
X5379Y11059D1*
X5503Y11071D1*
X5626Y11052D1*
X5741Y11004D1*
X5841Y10929D1*
X5918Y10831D1*
X5969Y10717D1*
X5991Y10570D1*
X5976Y10446D1*
X6987Y17387D2*
X6934Y17274D1*
X6850Y17182D1*
X6743Y17118D1*
X6623Y17087D1*
X6498Y17093D1*
X6381Y17135D1*
X6281Y17209D1*
X6206Y17308D1*
X6164Y17426D1*
X6157Y17550D1*
X6187Y17671D1*
X6250Y17778D1*
X6342Y17862D1*
X6454Y17916D1*
X6577Y17935D1*
X6701Y17918D1*
X6814Y17865D1*
X6907Y17782D1*
X6971Y17676D1*
X7003Y17555D1*
X7005Y17510D1*
X6987Y17387D1*
X11972Y13192D2*
X11919Y13079D1*
X11835Y12987D1*
X11728Y12923D1*
X11608Y12892D1*
X11483Y12898D1*
X11366Y12940D1*
X11266Y13014D1*
X11191Y13113D1*
X11149Y13231D1*
X11142Y13355D1*
X11172Y13476D1*
X11235Y13583D1*
X11327Y13667D1*
X11439Y13721D1*
X11562Y13740D1*
X11686Y13723D1*
X11799Y13670D1*
X11892Y13587D1*
X11956Y13481D1*
X11988Y13360D1*
X11990Y13315D1*
X11972Y13192D1*
X10677Y29297D2*
X10624Y29184D1*
X10540Y29092D1*
X10433Y29028D1*
X10313Y28997D1*
X10188Y29003D1*
X10071Y29045D1*
X9971Y29119D1*
X9896Y29218D1*
X9854Y29336D1*
X9847Y29460D1*
X9877Y29581D1*
X9940Y29688D1*
X10032Y29772D1*
X10144Y29826D1*
X10267Y29845D1*
X10391Y29828D1*
X10504Y29775D1*
X10597Y29692D1*
X10661Y29586D1*
X10693Y29465D1*
X10695Y29420D1*
X10677Y29297D1*
X24307Y9297D2*
X24254Y9184D1*
X24170Y9092D1*
X24063Y9028D1*
X23943Y8997D1*
X23818Y9003D1*
X23701Y9045D1*
X23601Y9119D1*
X23526Y9218D1*
X23484Y9336D1*
X23477Y9460D1*
X23507Y9581D1*
X23570Y9688D1*
X23662Y9772D1*
X23774Y9826D1*
X23897Y9845D1*
X24021Y9828D1*
X24134Y9775D1*
X24227Y9692D1*
X24291Y9586D1*
X24323Y9465D1*
X24325Y9420D1*
X24307Y9297D1*
X24254Y9184D1*
X24170Y9092D1*
X24063Y9028D1*
X23943Y8997D1*
X23818Y9003D1*
X23701Y9045D1*
X23601Y9119D1*
X23526Y9218D1*
X23484Y9336D1*
X23477Y9460D1*
X23507Y9581D1*
X23570Y9688D1*
X23662Y9772D1*
X23774Y9826D1*
X23897Y9845D1*
X24021Y9828D1*
X24134Y9775D1*
X24227Y9692D1*
X24291Y9586D1*
X24323Y9465D1*
X24325Y9420D1*
X24307Y9297D1*
X20833Y20003D2*
X20771Y20025D1*
X20671Y20099D1*
X20596Y20198D1*
X20554Y20316D1*
X20547Y20440D1*
X20577Y20561D1*
X20640Y20668D1*
X20732Y20752D1*
X20844Y20806D1*
X20967Y20825D1*
X21091Y20808D1*
X21204Y20755D1*
X21299Y20669D1*
X21327Y20692D1*
X21439Y20746D1*
X21562Y20765D1*
X21686Y20748D1*
X21799Y20695D1*
X21892Y20612D1*
X21956Y20506D1*
X21988Y20385D1*
X21990Y20340D1*
X21972Y20217D1*
X21919Y20104D1*
X21835Y20012D1*
X21728Y19948D1*
X21649Y19928D1*
X21682Y19912D1*
X21794Y19966D1*
X21917Y19985D1*
X22041Y19968D1*
X22154Y19915D1*
X22247Y19832D1*
X22311Y19726D1*
X22343Y19605D1*
X22345Y19560D1*
X22327Y19437D1*
X22274Y19324D1*
X22190Y19232D1*
X22083Y19168D1*
X21963Y19137D1*
X21838Y19143D1*
X21721Y19185D1*
X21621Y19259D1*
X21546Y19358D1*
X21504Y19476D1*
X21497Y19600D1*
X21527Y19721D1*
X21556Y19771D1*
X21520Y19737D1*
X21413Y19673D1*
X21293Y19642D1*
X21168Y19648D1*
X21051Y19690D1*
X20951Y19764D1*
X20876Y19863D1*
X20833Y20000D1*
X28672Y23592D2*
X28619Y23479D1*
X28535Y23387D1*
X28428Y23323D1*
X28308Y23292D1*
X28183Y23298D1*
X28066Y23340D1*
X27966Y23414D1*
X27891Y23513D1*
X27849Y23631D1*
X27842Y23755D1*
X27872Y23876D1*
X27905Y23933D1*
X27849Y24081D1*
X27842Y24205D1*
X27872Y24326D1*
X27913Y24396D1*
X27849Y24556D1*
X27842Y24680D1*
X27872Y24801D1*
X27929Y24898D1*
X27919Y24936D1*
X27912Y25060D1*
X27942Y25181D1*
X28005Y25288D1*
X28097Y25372D1*
X28209Y25426D1*
X28332Y25445D1*
X28456Y25428D1*
X28569Y25375D1*
X28662Y25292D1*
X28726Y25186D1*
X28758Y25065D1*
X28760Y25020D1*
X28742Y24897D1*
X28689Y24784D1*
X28670Y24764D1*
X28690Y24640D1*
X28672Y24517D1*
X28616Y24401D1*
X28656Y24331D1*
X28688Y24210D1*
X28690Y24165D1*
X28672Y24042D1*
X28624Y23940D1*
X28656Y23881D1*
X28688Y23760D1*
X28690Y23715D1*
X28672Y23592D1*
X10367Y8867D2*
X10314Y8754D1*
X10230Y8662D1*
X10123Y8598D1*
X10003Y8567D1*
X9878Y8573D1*
X9761Y8615D1*
X9661Y8689D1*
X9586Y8788D1*
X9544Y8906D1*
X9537Y9030D1*
X9567Y9151D1*
X9630Y9258D1*
X9722Y9342D1*
X9834Y9396D1*
X9957Y9415D1*
X10081Y9398D1*
X10194Y9345D1*
X10287Y9262D1*
X10351Y9156D1*
X10383Y9035D1*
X10385Y8990D1*
X10367Y8867D1*
X16047Y15537D2*
X15994Y15424D1*
X15910Y15332D1*
X15803Y15268D1*
X15683Y15237D1*
X15558Y15243D1*
X15441Y15285D1*
X15341Y15359D1*
X15266Y15458D1*
X15224Y15576D1*
X15217Y15700D1*
X15247Y15821D1*
X15310Y15928D1*
X15402Y16012D1*
X15514Y16066D1*
X15637Y16085D1*
X15761Y16068D1*
X15874Y16015D1*
X15967Y15932D1*
X16031Y15826D1*
X16063Y15705D1*
X16065Y15660D1*
X16047Y15537D1*
Y16467D2*
X15994Y16354D1*
X15910Y16262D1*
X15803Y16198D1*
X15683Y16167D1*
X15558Y16173D1*
X15441Y16215D1*
X15341Y16289D1*
X15266Y16388D1*
X15224Y16506D1*
X15217Y16630D1*
X15247Y16751D1*
X15310Y16858D1*
X15402Y16942D1*
X15514Y16996D1*
X15637Y17015D1*
X15761Y16998D1*
X15874Y16945D1*
X15967Y16862D1*
X16031Y16756D1*
X16063Y16635D1*
X16065Y16590D1*
X16047Y16467D1*
X22047Y9897D2*
X21994Y9784D1*
X21910Y9692D1*
X21803Y9628D1*
X21683Y9597D1*
X21558Y9603D1*
X21441Y9645D1*
X21341Y9719D1*
X21266Y9818D1*
X21224Y9936D1*
X21217Y10060D1*
X21247Y10181D1*
X21310Y10288D1*
X21402Y10372D1*
X21514Y10426D1*
X21637Y10445D1*
X21761Y10428D1*
X21874Y10375D1*
X21967Y10292D1*
X22031Y10186D1*
X22063Y10065D1*
X22065Y10020D1*
X22047Y9897D1*
X13287Y35767D2*
X13234Y35654D1*
X13150Y35562D1*
X13043Y35498D1*
X12923Y35467D1*
X12798Y35473D1*
X12681Y35515D1*
X12581Y35589D1*
X12506Y35688D1*
X12464Y35806D1*
X12457Y35930D1*
X12487Y36051D1*
X12550Y36158D1*
X12642Y36242D1*
X12754Y36296D1*
X12877Y36315D1*
X13001Y36298D1*
X13114Y36245D1*
X13207Y36162D1*
X13271Y36056D1*
X13303Y35935D1*
X13305Y35890D1*
X13287Y35767D1*
X21957Y8357D2*
X21904Y8244D1*
X21820Y8152D1*
X21713Y8088D1*
X21593Y8057D1*
X21468Y8063D1*
X21351Y8105D1*
X21251Y8179D1*
X21176Y8278D1*
X21134Y8396D1*
X21127Y8520D1*
X21157Y8641D1*
X21220Y8748D1*
X21312Y8832D1*
X21424Y8886D1*
X21547Y8905D1*
X21671Y8888D1*
X21784Y8835D1*
X21877Y8752D1*
X21941Y8646D1*
X21973Y8525D1*
X21975Y8480D1*
X21957Y8357D1*
X12872Y30742D2*
X12819Y30629D1*
X12735Y30537D1*
X12628Y30473D1*
X12508Y30442D1*
X12383Y30448D1*
X12266Y30490D1*
X12166Y30564D1*
X12091Y30663D1*
X12049Y30781D1*
X12042Y30905D1*
X12072Y31026D1*
X12135Y31133D1*
X12227Y31217D1*
X12339Y31271D1*
X12462Y31290D1*
X12586Y31273D1*
X12699Y31220D1*
X12792Y31137D1*
X12856Y31031D1*
X12888Y30910D1*
X12890Y30865D1*
X12872Y30742D1*
X11457Y10617D2*
X11404Y10504D1*
X11320Y10412D1*
X11213Y10348D1*
X11093Y10317D1*
X10968Y10323D1*
X10851Y10365D1*
X10751Y10439D1*
X10676Y10538D1*
X10634Y10656D1*
X10627Y10780D1*
X10657Y10901D1*
X10720Y11008D1*
X10812Y11092D1*
X10924Y11146D1*
X10951Y11150D1*
X10821Y11195D1*
X10721Y11269D1*
X10646Y11368D1*
X10604Y11486D1*
X10597Y11610D1*
X10627Y11731D1*
X10690Y11838D1*
X10782Y11922D1*
X10894Y11976D1*
X11017Y11995D1*
X11141Y11978D1*
X11254Y11925D1*
X11347Y11842D1*
X11411Y11736D1*
X11443Y11615D1*
X11445Y11570D1*
X11427Y11447D1*
X11374Y11334D1*
X11290Y11242D1*
X11183Y11178D1*
X11112Y11160D1*
X11171Y11148D1*
X11284Y11095D1*
X11377Y11012D1*
X11441Y10906D1*
X11473Y10785D1*
X11475Y10740D1*
X11457Y10617D1*
X8357Y17667D2*
X8304Y17554D1*
X8220Y17462D1*
X8113Y17398D1*
X7993Y17367D1*
X7868Y17373D1*
X7751Y17415D1*
X7651Y17489D1*
X7576Y17588D1*
X7534Y17706D1*
X7527Y17830D1*
X7557Y17951D1*
X7620Y18058D1*
X7712Y18142D1*
X7824Y18196D1*
X7947Y18215D1*
X8071Y18198D1*
X8184Y18145D1*
X8277Y18062D1*
X8341Y17956D1*
X8373Y17835D1*
X8375Y17790D1*
X8357Y17667D1*
X10488Y15476D2*
X10435Y15363D1*
X10351Y15271D1*
X10244Y15207D1*
X10124Y15176D1*
X9999Y15182D1*
X9882Y15224D1*
X9781Y15298D1*
X9707Y15398D1*
X9665Y15515D1*
X9658Y15639D1*
X9688Y15760D1*
X9751Y15867D1*
X9843Y15951D1*
X9955Y16005D1*
X10078Y16024D1*
X10202Y16007D1*
X10315Y15954D1*
X10407Y15871D1*
X10472Y15765D1*
X10504Y15645D1*
X10506Y15599D1*
X10488Y15476D1*
X6100Y35433D2*
D23*
X7291Y34416D1*
Y35433D2*
X6100Y34416D1*
Y33464D2*
X7291Y32447D1*
Y33464D2*
X6100Y32447D1*
X6413Y32057D2*
X7372Y31099D1*
Y32057D2*
X6413Y31099D1*
X7053Y23833D2*
X7823Y23063D1*
X7438Y23448D2*
X7053Y23063D1*
X34834Y6786D2*
X35626Y5994D1*
Y6786D2*
X34834Y5994D1*
X26744Y6816D2*
X27536Y6024D1*
Y6816D2*
X26744Y6024D1*
X23374Y6786D2*
X24166Y5994D1*
Y6786D2*
X23374Y5994D1*
X19914Y6786D2*
X20706Y5994D1*
Y6786D2*
X19914Y5994D1*
X17634Y6776D2*
X18426Y5984D1*
Y6776D2*
X17634Y5984D1*
X15404Y6766D2*
X16196Y5974D1*
Y6766D2*
X15404Y5974D1*
X11054Y7126D2*
X11926Y6254D1*
Y7126D2*
X11054Y6254D1*
X37034Y42326D2*
X37826Y41534D1*
Y42326D2*
X37034Y41534D1*
X34774Y42316D2*
X35566Y41524D1*
Y42316D2*
X34774Y41524D1*
X28104Y42326D2*
X28896Y41534D1*
Y42326D2*
X28104Y41534D1*
X27479Y28242D2*
X28201Y27520D1*
Y28242D2*
X27840Y27881D1*
X27479Y33442D2*
X28201Y32720D1*
Y33442D2*
X27840Y33081D1*
X5099Y19382D2*
X5821Y18660D1*
Y19382D2*
X5099Y18660D1*
X10354Y25823D2*
X11076Y25101D1*
Y25823D2*
X10354Y25101D1*
X11344Y20886D2*
X12136Y20094D1*
Y20886D2*
X11344Y20094D1*
X24619Y23261D2*
X25411Y22470D1*
Y23261D2*
X24619Y22470D1*
X13209Y14291D2*
X14001Y13499D1*
Y14291D2*
X13209Y13499D1*
X19159Y13369D2*
X19881Y12647D1*
Y13369D2*
X19159Y12647D1*
Y12582D2*
X19881Y11860D1*
Y12582D2*
X19159Y11860D1*
X37268Y34881D2*
X38059Y34090D1*
Y34881D2*
X37268Y34090D1*
Y39891D2*
X38059Y39100D1*
Y39891D2*
X37268Y39100D1*
Y26821D2*
X38059Y26030D1*
Y26821D2*
X37268Y26030D1*
Y31831D2*
X38059Y31040D1*
Y31831D2*
X37268Y31040D1*
X37255Y18841D2*
X38046Y18049D1*
Y18841D2*
X37255Y18049D1*
Y23851D2*
X38046Y23059D1*
Y23851D2*
X37255Y23059D1*
X37258Y10861D2*
X38049Y10070D1*
Y10861D2*
X37258Y10070D1*
Y15871D2*
X38049Y15080D1*
Y15871D2*
X37258Y15080D1*
X9579Y39463D2*
D22*
X14275D1*
X15145D2*
X16060D1*
X9317Y39214D2*
X14283D1*
X15138D2*
X16060D1*
X9161Y38966D2*
X14506D1*
X14915D2*
X16060D1*
X8981Y38717D2*
X16060D1*
X15117Y39227D2*
X15064Y39114D1*
X14980Y39022D1*
X14873Y38958D1*
X14753Y38927D1*
X14628Y38933D1*
X14511Y38975D1*
X14411Y39049D1*
X14336Y39148D1*
X14294Y39266D1*
X14287Y39390D1*
X14317Y39511D1*
X14380Y39618D1*
X14463Y39694D1*
X10960Y39706D1*
X9643Y39711D1*
X9607Y39577D1*
X9554Y39464D1*
X9470Y39372D1*
X9360Y39307D1*
X9257Y39157D1*
X9204Y39044D1*
X9110Y38946D1*
X8864Y38575D1*
X16085D1*
Y39686D1*
X14964Y39690D1*
X15037Y39622D1*
X15101Y39516D1*
X15133Y39395D1*
X15135Y39350D1*
X15117Y39227D1*
X4531Y33704D2*
D32*
Y34176D1*
X7109Y34924D2*
D34*
X6282D1*
X8468Y32917D2*
D32*
X7798D1*
X8468Y34964D2*
X7798D1*
X7109Y32956D2*
D34*
X6282D1*
D37*
X5318Y30869D3*
Y37011D3*
X9078Y30869D2*
D34*
X8251D1*
X9078Y37011D2*
X8251D1*
D39*
X6893Y31578D3*
D41*
X8226Y23448D3*
Y24432D3*
X7438D3*
Y23448D3*
D43*
X6371Y26310D3*
Y21570D3*
D45*
X37660Y35490D3*
Y36490D3*
Y37490D3*
Y38490D3*
Y27430D3*
Y28430D3*
Y29430D3*
Y30430D3*
X37647Y19449D3*
Y20449D3*
Y21449D3*
Y22449D3*
X37650Y11470D3*
Y12470D3*
Y13470D3*
Y14470D3*
D48*
X10180Y42020D3*
X11740D3*
X16790D3*
X18350D3*
D45*
X19950Y41890D3*
X20950D3*
X37230Y6390D3*
X36230D3*
X35230D3*
X29140Y6420D3*
X28140D3*
X27140D3*
X25770Y6390D3*
X24770D3*
X23770D3*
X22310D3*
X21310D3*
X20310D3*
X19030Y6380D3*
X18030D3*
X16800Y6370D3*
X15800D3*
D51*
X12490Y6690D3*
X11490D3*
X10490D3*
D45*
X24590Y41910D3*
X25590D3*
X22260D3*
X23260D3*
X36430Y41930D3*
X37430D3*
X34170Y41920D3*
X35170D3*
X27500Y41930D3*
X28500D3*
D63*
X27840Y31030D3*
Y30243D3*
Y29455D3*
Y28668D3*
Y27881D3*
Y36230D3*
Y35443D3*
Y34655D3*
Y33868D3*
Y33081D3*
X5460Y19810D3*
Y19021D3*
Y18232D3*
X10715Y23100D3*
Y23888D3*
Y24675D3*
Y25462D3*
Y26250D3*
D45*
X11740Y21490D3*
X12740D3*
X11740Y20490D3*
X12740D3*
X11740Y19490D3*
X12740D3*
X24015Y22865D3*
X25015D3*
X12605Y13895D3*
Y14895D3*
X13605Y13895D3*
Y14895D3*
X14605Y13895D3*
Y14895D3*
X9420Y26960D3*
X8420D3*
D63*
X19520Y15370D3*
Y14583D3*
Y13795D3*
Y13008D3*
Y12221D3*
D45*
X37663Y34485D3*
Y39495D3*
Y26425D3*
Y31435D3*
X37651Y18445D3*
Y23455D3*
X37653Y10465D3*
Y15475D3*
D76*
X5260Y17000D3*
X5490Y10570D3*
M02*
