M48
INCH
T01C0.012
T02C0.015
T03C0.0236
T04C0.0315
T05C0.0354
T06C0.0362
T07C0.0394
T08C0.0429
T09C0.0433
T10C0.0669
T11C0.07
T12C0.0866
T13C0.0906
T14C0.1339
T15C0.145
%
T01
X+032750Y+035530
X+033090Y+035520
X+033590Y+035520
X+032070Y+036320
X+032180Y+036880
X+031940Y+037090
X+032120Y+037400
X+033530Y+038440
X+029813Y+039325
X+029393Y+038215
X+029393Y+037495
X+029833Y+036135
X+029813Y+031265
X+029393Y+030155
X+029393Y+029435
X+029833Y+028075
X+032030Y+028210
X+032160Y+028800
X+031940Y+029030
X+032180Y+029330
X+033530Y+030380
X+033610Y+027440
X+033080Y+027450
X+032740Y+027480
X+029801Y+023285
X+029381Y+022175
X+029381Y+021455
X+029821Y+020095
X+032070Y+020260
X+032160Y+020810
X+031927Y+021049
X+032160Y+021340
X+033517Y+022399
X+033630Y+019490
X+033040Y+019480
X+032690Y+019490
X+029803Y+015305
X+029383Y+014195
X+029383Y+013475
X+029823Y+012115
X+031890Y+013065
X+032165Y+012840
X+032165Y+013290
X+032110Y+012360
X+032780Y+011520
X+033100Y+011500
X+033610Y+011520
X+033530Y+014410
X+027160Y+025280
X+027320Y+025530
X+027330Y+025820
X+027680Y+025790
X+027690Y+026090
X+027690Y+026390
X+022260Y+025340
X+021960Y+025340
X+021680Y+025340
X+021400Y+025340
X+021110Y+025340
X+020810Y+025340
X+017860Y+026600
X+017550Y+026610
X+017230Y+026610
X+016920Y+026610
X+016610Y+026620
X+016290Y+026610
X+013520Y+021280
X+013540Y+020970
T02
X+006310Y+029760
X+006310Y+029220
X+006310Y+028550
X+006310Y+027980
X+004350Y+028840
X+004350Y+023940
X+004350Y+019040
X+006265Y+019290
X+006580Y+017510
X+007950Y+017790
X+008800Y+018110
X+009660Y+018390
X+009920Y+018910
X+010210Y+018600
X+009315Y+020115
X+009580Y+022650
X+011400Y+023740
X+012350Y+022670
X+013120Y+022840
X+013415Y+022540
X+013415Y+023190
X+013320Y+021600
X+013940Y+020300
X+014265Y+019415
X+013615Y+019390
X+013515Y+018690
X+014615Y+018040
X+015170Y+017160
X+015640Y+016590
X+015640Y+015660
X+014100Y+015740
X+015690Y+013890
X+015410Y+013050
X+015040Y+013120
X+015070Y+012720
X+014190Y+012315
X+013765Y+012315
X+013790Y+011815
X+014190Y+011840
X+015215Y+011540
X+015600Y+010720
X+014880Y+010680
X+014440Y+010640
X+013990Y+010670
X+013580Y+010660
X+013240Y+009610
X+012200Y+009610
X+011070Y+009860
X+011050Y+010740
X+011020Y+011570
X+010920Y+012570
X+011565Y+013315
X+012515Y+013315
X+010915Y+015140
X+010081Y+015599
X+011620Y+015810
X+011940Y+017015
X+008400Y+015590
X+008290Y+013050
X+009000Y+012320
X+008870Y+009400
X+009960Y+008990
X+011040Y+007665
X+012215Y+008015
X+013240Y+008040
X+014340Y+008025
X+016865Y+008000
X+016530Y+010120
X+018360Y+010090
X+019165Y+009150
X+020280Y+008960
X+021550Y+008480
X+021640Y+010020
X+023040Y+010020
X+023900Y+009420
X+024715Y+010010
X+025440Y+009965
X+024510Y+010830
X+025495Y+008490
X+027400Y+009070
X+027980Y+009020
X+027040Y+009990
X+030123Y+009875
X+030883Y+008395
X+031243Y+008405
X+031613Y+008405
X+032340Y+008480
X+032340Y+008840
X+032700Y+008830
X+032700Y+008480
X+033110Y+008480
X+033110Y+008840
X+035413Y+008365
X+035773Y+008375
X+036143Y+008375
X+036793Y+008925
X+036813Y+009355
X+037263Y+009365
X+037683Y+009365
X+037663Y+008935
X+037243Y+008935
X+037043Y+009865
X+036643Y+009865
X+036653Y+010265
X+036663Y+010655
X+037063Y+010655
X+037053Y+010265
X+036550Y+012020
X+036560Y+013900
X+035970Y+015540
X+035600Y+015540
X+035160Y+015540
X+035411Y+016345
X+035771Y+016355
X+036141Y+016355
X+036791Y+016905
X+036811Y+017335
X+037261Y+017345
X+037681Y+017345
X+037661Y+016915
X+037241Y+016915
X+037041Y+017845
X+036641Y+017845
X+036651Y+018245
X+036661Y+018635
X+037061Y+018635
X+037051Y+018245
X+036547Y+019999
X+036557Y+021879
X+035967Y+023519
X+035597Y+023519
X+035157Y+023519
X+035423Y+024325
X+035783Y+024335
X+036153Y+024335
X+036803Y+024885
X+036823Y+025315
X+037273Y+025325
X+037693Y+025325
X+037673Y+024895
X+037253Y+024895
X+037053Y+025825
X+036653Y+025825
X+036663Y+026225
X+036673Y+026615
X+037073Y+026615
X+037063Y+026225
X+036560Y+027980
X+036570Y+029860
X+035980Y+031500
X+035610Y+031500
X+035170Y+031500
X+035423Y+032385
X+035783Y+032395
X+036153Y+032395
X+036803Y+032945
X+036823Y+033375
X+037273Y+033385
X+037693Y+033385
X+037673Y+032955
X+037253Y+032955
X+037053Y+033885
X+036653Y+033885
X+036663Y+034285
X+036673Y+034675
X+037073Y+034675
X+037063Y+034285
X+036560Y+036040
X+036570Y+037920
X+035980Y+039560
X+035610Y+039560
X+035170Y+039560
X+034440Y+038830
X+033340Y+039270
X+033340Y+039700
X+032790Y+039700
X+032790Y+039270
X+032230Y+039150
X+031300Y+038910
X+030670Y+039570
X+029660Y+037070
X+030320Y+035810
X+031450Y+036150
X+033160Y+036550
X+033170Y+036990
X+033630Y+037020
X+033630Y+037460
X+033150Y+037460
X+034110Y+037450
X+034110Y+036990
X+034090Y+036520
X+033620Y+036550
X+034200Y+035280
X+034290Y+034040
X+034340Y+032540
X+033120Y+032500
X+033120Y+032860
X+032710Y+032850
X+032710Y+032500
X+032350Y+032500
X+032350Y+032860
X+031623Y+032425
X+031253Y+032425
X+030893Y+032415
X+030670Y+031510
X+031280Y+030800
X+032230Y+031090
X+032790Y+031210
X+032790Y+031640
X+033340Y+031640
X+033340Y+031210
X+034440Y+030770
X+034110Y+029390
X+034110Y+028930
X+034090Y+028460
X+033620Y+028490
X+033160Y+028490
X+033170Y+028930
X+033630Y+028960
X+033630Y+029400
X+033150Y+029400
X+034200Y+027220
X+034330Y+026020
X+034400Y+024530
X+033120Y+024440
X+033120Y+024800
X+032710Y+024790
X+032710Y+024440
X+032350Y+024440
X+032350Y+024800
X+031623Y+024365
X+031253Y+024365
X+030893Y+024355
X+030657Y+023529
X+031230Y+022840
X+032217Y+023109
X+032777Y+023229
X+032777Y+023659
X+033327Y+023659
X+033327Y+023229
X+034427Y+022789
X+034097Y+021409
X+034097Y+020949
X+034077Y+020479
X+033607Y+020509
X+033147Y+020509
X+033157Y+020949
X+033617Y+020979
X+033617Y+021419
X+033137Y+021419
X+031420Y+020120
X+030307Y+019769
X+029650Y+021000
X+028265Y+023715
X+028265Y+024165
X+028265Y+024640
X+028335Y+025020
X+030133Y+025835
X+030320Y+027750
X+029640Y+028960
X+027390Y+027730
X+027410Y+027250
X+025800Y+025300
X+026020Y+023830
X+025290Y+023815
X+023500Y+023810
X+022990Y+023115
X+023180Y+022650
X+022415Y+022515
X+022115Y+022840
X+022770Y+021915
X+022490Y+021290
X+022140Y+021601
X+021565Y+020340
X+021250Y+020065
X+020970Y+020400
X+021920Y+019560
X+021580Y+018860
X+019980Y+017620
X+019450Y+016640
X+019080Y+016350
X+018270Y+017200
X+018060Y+018760
X+017840Y+019140
X+017540Y+019365
X+017215Y+019165
X+016290Y+019365
X+015965Y+019165
X+015640Y+019365
X+015340Y+019140
X+015015Y+019365
X+015810Y+022170
X+016900Y+023340
X+015850Y+024370
X+014250Y+025760
X+013840Y+025760
X+013065Y+026265
X+012965Y+027190
X+013310Y+028350
X+014665Y+026715
X+015665Y+026665
X+015965Y+026890
X+016490Y+027980
X+016490Y+029050
X+015660Y+029100
X+016810Y+030940
X+015480Y+031790
X+015070Y+031800
X+014670Y+031800
X+013380Y+033520
X+012440Y+033420
X+012440Y+033950
X+012440Y+034470
X+011970Y+034950
X+011550Y+034950
X+010465Y+035665
X+010015Y+035665
X+009615Y+035665
X+009640Y+036590
X+010040Y+036590
X+010465Y+036590
X+009870Y+038890
X+009480Y+038890
X+009080Y+038890
X+008850Y+039280
X+009200Y+039700
X+009300Y+043530
X+004350Y+043530
X+004350Y+038630
X+010615Y+032490
X+010640Y+031915
X+010640Y+031365
X+012465Y+030865
X+012000Y+033020
X+011530Y+033040
X+012880Y+035890
X+014880Y+036820
X+015350Y+036810
X+015840Y+036790
X+017150Y+035890
X+016550Y+034150
X+015870Y+034130
X+016540Y+033090
X+015800Y+038960
X+015410Y+038950
X+015040Y+038960
X+014710Y+039350
X+014260Y+043530
X+019210Y+043530
X+021280Y+039630
X+020950Y+039190
X+021690Y+038020
X+022750Y+038830
X+023660Y+039540
X+024050Y+038050
X+025565Y+037390
X+026470Y+038070
X+025640Y+039170
X+025980Y+039610
X+024170Y+043530
X+029120Y+043530
X+034070Y+043530
X+039030Y+043530
X+039030Y+038630
X+039030Y+033730
X+039030Y+028840
X+039030Y+023940
X+039030Y+019040
X+034187Y+019239
X+034150Y+018070
X+034190Y+016480
X+033107Y+016459
X+033107Y+016819
X+032697Y+016809
X+032697Y+016459
X+032337Y+016459
X+032337Y+016819
X+031611Y+016385
X+031241Y+016385
X+030881Y+016375
X+030660Y+015550
X+031240Y+014970
X+032220Y+015130
X+032780Y+015250
X+032780Y+015680
X+033330Y+015680
X+033330Y+015250
X+034430Y+014810
X+034100Y+013430
X+034100Y+012970
X+034080Y+012500
X+033610Y+012530
X+033150Y+012530
X+033160Y+012970
X+033620Y+013000
X+033620Y+013440
X+033140Y+013440
X+031500Y+012120
X+030310Y+011790
X+029640Y+013010
X+030121Y+017855
X+034190Y+011260
X+034200Y+006400
X+034070Y+004350
X+029120Y+004350
X+024170Y+004350
X+019210Y+004350
X+014260Y+004350
X+009300Y+004350
X+004350Y+004350
X+004350Y+009240
X+005460Y+014260
X+005360Y+015030
X+016950Y+014800
X+018050Y+011430
X+018790Y+018770
X+018500Y+019350
X+018010Y+022190
X+018010Y+024400
X+018160Y+026770
X+018515Y+027215
X+020010Y+027320
X+020415Y+025985
X+020990Y+026060
X+023680Y+025330
X+023565Y+028540
X+023565Y+029015
X+023565Y+029415
X+024540Y+029415
X+024540Y+029015
X+024540Y+028540
X+025090Y+031290
X+025415Y+031290
X+025740Y+031290
X+026065Y+031290
X+026065Y+031615
X+025740Y+031615
X+025415Y+031615
X+025090Y+031615
X+025440Y+032240
X+024515Y+033815
X+024515Y+034190
X+024515Y+034565
X+023565Y+034565
X+023565Y+034190
X+023565Y+033815
X+027430Y+032600
X+027440Y+031710
X+030133Y+033895
X+013120Y+025050
X+010270Y+029420
X+039030Y+014140
X+039030Y+009250
X+039030Y+004350
T03
X+007109Y+034924G85X+006282Y+034924
X+007109Y+032956G85X+006282Y+032956
X+009078Y+030869G85X+008251Y+030869
X+009078Y+037011G85X+008251Y+037011
X+005260Y+017000
X+005490Y+010570
T04
X+027840Y+031030
X+027840Y+030243
X+027840Y+029455
X+027840Y+028668
X+027840Y+027881
X+027840Y+033081
X+027840Y+033868
X+027840Y+034655
X+027840Y+035443
X+027840Y+036230
X+010715Y+026250
X+010715Y+025462
X+010715Y+024675
X+010715Y+023888
X+010715Y+023100
X+005460Y+019810
X+005460Y+019021
X+005460Y+018232
X+019520Y+015370
X+019520Y+014583
X+019520Y+013795
X+019520Y+013008
X+019520Y+012221
T05
X+037660Y+035490
X+037660Y+036490
X+037660Y+037490
X+037660Y+038490
X+037663Y+039495
X+037430Y+041930
X+036430Y+041930
X+035170Y+041920
X+034170Y+041920
X+028500Y+041930
X+027500Y+041930
X+025590Y+041910
X+024590Y+041910
X+023260Y+041910
X+022260Y+041910
X+020950Y+041890
X+019950Y+041890
X+009420Y+026960
X+008420Y+026960
X+011740Y+021490
X+011740Y+020490
X+011740Y+019490
X+012740Y+019490
X+012740Y+020490
X+012740Y+021490
X+012605Y+014895
X+012605Y+013895
X+013605Y+013895
X+013605Y+014895
X+014605Y+014895
X+014605Y+013895
X+015800Y+006370
X+016800Y+006370
X+018030Y+006380
X+019030Y+006380
X+020310Y+006390
X+021310Y+006390
X+022310Y+006390
X+023770Y+006390
X+024770Y+006390
X+025770Y+006390
X+027140Y+006420
X+028140Y+006420
X+029140Y+006420
X+035230Y+006390
X+036230Y+006390
X+037230Y+006390
X+037653Y+010465
X+037650Y+011470
X+037650Y+012470
X+037650Y+013470
X+037650Y+014470
X+037653Y+015475
X+037651Y+018445
X+037647Y+019449
X+037647Y+020449
X+037647Y+021449
X+037647Y+022449
X+037651Y+023455
X+037663Y+026425
X+037660Y+027430
X+037660Y+028430
X+037660Y+029430
X+037660Y+030430
X+037663Y+031435
X+037663Y+034485
X+025015Y+022865
X+024015Y+022865
T06
X+008226Y+023448
X+007438Y+023448
X+007438Y+024432
X+008226Y+024432
T07
X+004531Y+033704G85X+004531Y+034176
X+008468Y+032917G85X+007798Y+032917
X+008468Y+034964G85X+007798Y+034964
T08
X+012490Y+006690
X+011490Y+006690
X+010490Y+006690
T09
X+006893Y+031578
T10
X+005318Y+034924
X+005318Y+032956
T11
X+010180Y+042020
X+011740Y+042020
X+016790Y+042020
X+018350Y+042020
T12
X+005318Y+030869
X+005318Y+037011
T13
X+006371Y+026310
X+006371Y+021570
T14
X+014089Y+006391
X+008892Y+006391
T15
X+006440Y+006440
X+031440Y+006440
X+031440Y+041440
X+006440Y+041440
T00
M30
