G04 DipTrace Beta 2.3.5.2*
%INTopAssy.gbr*%
%MOIN*%
%ADD10C,0.0098*%
%ADD24C,0.004*%
%ADD255C,0.0062*%
%FSLAX44Y44*%
G04*
G70*
G90*
G75*
G01*
%LNTopAssy*%
%LPD*%
X22761Y28641D2*
D24*
Y30530D1*
X23430Y31200D1*
X24650D1*
X25320Y30530D1*
Y28641D1*
X22761D1*
X23154Y29094D2*
X24906D1*
X22820Y29920D2*
G02X22820Y29920I1220J0D01*
G01*
G36*
X24178Y28483D2*
X23902D1*
Y28720D1*
X24178D1*
Y28483D1*
G37*
G36*
Y31121D2*
X23902D1*
Y31357D1*
X24178D1*
Y31121D1*
G37*
G36*
X23194Y29074D2*
X23410Y28897D1*
X23686Y28779D1*
X24040Y28720D1*
X24414Y28779D1*
X24690Y28916D1*
X24887Y29074D1*
X23213D1*
X23194D1*
G37*
X22771Y33836D2*
D24*
Y35725D1*
X23440Y36395D1*
X24660D1*
X25330Y35725D1*
Y33836D1*
X22771D1*
X23164Y34289D2*
X24916D1*
X22830Y35115D2*
G02X22830Y35115I1220J0D01*
G01*
G36*
X24188Y33678D2*
X23912D1*
Y33915D1*
X24188D1*
Y33678D1*
G37*
G36*
Y36316D2*
X23912D1*
Y36552D1*
X24188D1*
Y36316D1*
G37*
G36*
X23204Y34269D2*
X23420Y34092D1*
X23696Y33974D1*
X24050Y33915D1*
X24424Y33974D1*
X24700Y34111D1*
X24897Y34269D1*
X23223D1*
X23204D1*
G37*
X9696Y37410D2*
D24*
X11585D1*
X12255Y36740D1*
Y35520D1*
X11585Y34851D1*
X9696D1*
Y37410D1*
X10149Y37016D2*
Y35264D1*
X9755Y36130D2*
G02X9755Y36130I1220J0D01*
G01*
G36*
X9538Y35992D2*
X9775D1*
Y36268D1*
X9538D1*
Y35992D1*
G37*
G36*
X12176D2*
X12412D1*
Y36268D1*
X12176D1*
Y35992D1*
G37*
G36*
X10129Y36977D2*
X9952Y36760D1*
X9834Y36485D1*
X9775Y36130D1*
X9834Y35756D1*
X9971Y35481D1*
X10129Y35284D1*
Y36957D1*
Y36977D1*
G37*
X32936Y34760D2*
D24*
X34825D1*
X35495Y34091D1*
Y32870D1*
X34825Y32201D1*
X32936D1*
Y34760D1*
X33389Y34366D2*
Y32614D1*
X32995Y33480D2*
G02X32995Y33480I1220J0D01*
G01*
G36*
X32778Y33342D2*
X33015D1*
Y33618D1*
X32778D1*
Y33342D1*
G37*
G36*
X35416D2*
X35652D1*
Y33618D1*
X35416D1*
Y33342D1*
G37*
G36*
X33369Y34327D2*
X33192Y34110D1*
X33074Y33835D1*
X33015Y33480D1*
X33074Y33106D1*
X33211Y32831D1*
X33369Y32634D1*
Y34307D1*
Y34327D1*
G37*
X32936Y26700D2*
D24*
X34825D1*
X35495Y26030D1*
Y24810D1*
X34825Y24141D1*
X32936D1*
Y26700D1*
X33389Y26306D2*
Y24554D1*
X32995Y25420D2*
G02X32995Y25420I1220J0D01*
G01*
G36*
X32778Y25282D2*
X33015D1*
Y25558D1*
X32778D1*
Y25282D1*
G37*
G36*
X35416D2*
X35652D1*
Y25558D1*
X35416D1*
Y25282D1*
G37*
G36*
X33369Y26267D2*
X33192Y26050D1*
X33074Y25775D1*
X33015Y25420D1*
X33074Y25046D1*
X33211Y24771D1*
X33369Y24574D1*
Y26247D1*
Y26267D1*
G37*
X32923Y18719D2*
D24*
X34813D1*
X35482Y18050D1*
Y16829D1*
X34813Y16160D1*
X32923D1*
Y18719D1*
X33376Y18325D2*
Y16573D1*
X32982Y17439D2*
G02X32982Y17439I1220J0D01*
G01*
G36*
X32766Y17302D2*
X33002D1*
Y17577D1*
X32766D1*
Y17302D1*
G37*
G36*
X35403D2*
X35639D1*
Y17577D1*
X35403D1*
Y17302D1*
G37*
G36*
X33356Y18286D2*
X33179Y18070D1*
X33061Y17794D1*
X33002Y17439D1*
X33061Y17065D1*
X33199Y16790D1*
X33356Y16593D1*
Y18266D1*
Y18286D1*
G37*
X32926Y10740D2*
D24*
X34815D1*
X35485Y10070D1*
Y8850D1*
X34815Y8181D1*
X32926D1*
Y10740D1*
X33379Y10346D2*
Y8594D1*
X32985Y9460D2*
G02X32985Y9460I1220J0D01*
G01*
G36*
X32768Y9322D2*
X33005D1*
Y9598D1*
X32768D1*
Y9322D1*
G37*
G36*
X35406D2*
X35642D1*
Y9598D1*
X35406D1*
Y9322D1*
G37*
G36*
X33359Y10307D2*
X33182Y10090D1*
X33064Y9815D1*
X33005Y9460D1*
X33064Y9086D1*
X33201Y8811D1*
X33359Y8614D1*
Y10287D1*
Y10307D1*
G37*
X9058Y37090D2*
D10*
X2365D1*
Y30791D1*
X9058D1*
Y37090D1*
X8763Y26261D2*
X2365D1*
Y21620D1*
X8763D1*
Y26261D1*
X9205Y16293D2*
X2984D1*
Y11588D1*
X9205D1*
Y16293D1*
X4618D2*
Y11588D1*
X-10250Y23535D2*
D255*
X-10154Y23133D1*
X-10058Y23535D1*
X-9963Y23133D1*
X-9867Y23535D1*
X-9743D2*
Y23133D1*
Y23325D2*
X-9686Y23382D1*
X-9647Y23401D1*
X-9590D1*
X-9552Y23382D1*
X-9533Y23325D1*
Y23133D1*
X-9180Y23401D2*
Y23133D1*
Y23344D2*
X-9218Y23382D1*
X-9256Y23401D1*
X-9313D1*
X-9352Y23382D1*
X-9390Y23344D1*
X-9409Y23286D1*
Y23248D1*
X-9390Y23191D1*
X-9352Y23153D1*
X-9313Y23133D1*
X-9256D1*
X-9218Y23153D1*
X-9180Y23191D1*
X-8999Y23535D2*
Y23210D1*
X-8980Y23153D1*
X-8941Y23133D1*
X-8903D1*
X-9056Y23401D2*
X-8922D1*
X-8391Y23535D2*
Y23133D1*
Y23325D2*
X-8334Y23382D1*
X-8295Y23401D1*
X-8238D1*
X-8200Y23382D1*
X-8181Y23325D1*
Y23133D1*
X-7828Y23401D2*
Y23133D1*
Y23344D2*
X-7866Y23382D1*
X-7904Y23401D1*
X-7961D1*
X-8000Y23382D1*
X-8038Y23344D1*
X-8057Y23286D1*
Y23248D1*
X-8038Y23191D1*
X-8000Y23153D1*
X-7961Y23133D1*
X-7904D1*
X-7866Y23153D1*
X-7828Y23191D1*
X-7704Y23401D2*
Y22999D1*
Y23344D2*
X-7666Y23382D1*
X-7628Y23401D1*
X-7570D1*
X-7532Y23382D1*
X-7494Y23344D1*
X-7474Y23286D1*
Y23248D1*
X-7494Y23191D1*
X-7532Y23152D1*
X-7570Y23133D1*
X-7628D1*
X-7666Y23152D1*
X-7704Y23191D1*
X-7351Y23401D2*
Y22999D1*
Y23344D2*
X-7312Y23382D1*
X-7274Y23401D1*
X-7217D1*
X-7178Y23382D1*
X-7140Y23344D1*
X-7121Y23286D1*
Y23248D1*
X-7140Y23191D1*
X-7178Y23152D1*
X-7217Y23133D1*
X-7274D1*
X-7312Y23152D1*
X-7351Y23191D1*
X-6997Y23286D2*
X-6768D1*
Y23325D1*
X-6787Y23363D1*
X-6806Y23382D1*
X-6844Y23401D1*
X-6902D1*
X-6940Y23382D1*
X-6978Y23344D1*
X-6997Y23286D1*
Y23248D1*
X-6978Y23191D1*
X-6940Y23153D1*
X-6902Y23133D1*
X-6844D1*
X-6806Y23153D1*
X-6768Y23191D1*
X-6644Y23401D2*
Y23133D1*
Y23325D2*
X-6587Y23382D1*
X-6548Y23401D1*
X-6491D1*
X-6453Y23382D1*
X-6434Y23325D1*
Y23133D1*
X-6310Y23286D2*
X-6081D1*
Y23325D1*
X-6100Y23363D1*
X-6119Y23382D1*
X-6157Y23401D1*
X-6215D1*
X-6253Y23382D1*
X-6291Y23344D1*
X-6310Y23286D1*
Y23248D1*
X-6291Y23191D1*
X-6253Y23153D1*
X-6215Y23133D1*
X-6157D1*
X-6119Y23153D1*
X-6081Y23191D1*
X-5728Y23535D2*
Y23133D1*
Y23344D2*
X-5766Y23382D1*
X-5804Y23401D1*
X-5862D1*
X-5900Y23382D1*
X-5938Y23344D1*
X-5957Y23286D1*
Y23248D1*
X-5938Y23191D1*
X-5900Y23153D1*
X-5862Y23133D1*
X-5804D1*
X-5766Y23153D1*
X-5728Y23191D1*
X-5158Y23535D2*
Y23210D1*
X-5139Y23153D1*
X-5101Y23133D1*
X-5063D1*
X-5216Y23401D2*
X-5082D1*
X-4844D2*
X-4882Y23382D1*
X-4920Y23344D1*
X-4939Y23286D1*
Y23248D1*
X-4920Y23191D1*
X-4882Y23153D1*
X-4844Y23133D1*
X-4786D1*
X-4748Y23153D1*
X-4710Y23191D1*
X-4690Y23248D1*
Y23286D1*
X-4710Y23344D1*
X-4748Y23382D1*
X-4786Y23401D1*
X-4844D1*
X-4120Y23535D2*
Y23210D1*
X-4101Y23153D1*
X-4063Y23133D1*
X-4025D1*
X-4178Y23401D2*
X-4044D1*
X-3901Y23535D2*
Y23133D1*
Y23325D2*
X-3844Y23382D1*
X-3805Y23401D1*
X-3748D1*
X-3710Y23382D1*
X-3691Y23325D1*
Y23133D1*
X-3567Y23286D2*
X-3338D1*
Y23325D1*
X-3357Y23363D1*
X-3376Y23382D1*
X-3414Y23401D1*
X-3472D1*
X-3510Y23382D1*
X-3548Y23344D1*
X-3567Y23286D1*
Y23248D1*
X-3548Y23191D1*
X-3510Y23153D1*
X-3472Y23133D1*
X-3414D1*
X-3376Y23153D1*
X-3338Y23191D1*
X-2825Y23535D2*
Y23248D1*
X-2806Y23191D1*
X-2768Y23153D1*
X-2711Y23133D1*
X-2673D1*
X-2615Y23153D1*
X-2577Y23191D1*
X-2558Y23248D1*
Y23535D1*
X-2166Y23478D2*
X-2204Y23516D1*
X-2262Y23535D1*
X-2338D1*
X-2396Y23516D1*
X-2434Y23478D1*
Y23440D1*
X-2415Y23401D1*
X-2396Y23382D1*
X-2358Y23363D1*
X-2243Y23325D1*
X-2204Y23306D1*
X-2185Y23286D1*
X-2166Y23248D1*
Y23191D1*
X-2204Y23153D1*
X-2262Y23133D1*
X-2338D1*
X-2396Y23153D1*
X-2434Y23191D1*
X-2043Y23535D2*
Y23133D1*
X-1870D1*
X-1813Y23153D1*
X-1794Y23172D1*
X-1775Y23210D1*
Y23267D1*
X-1794Y23306D1*
X-1813Y23325D1*
X-1870Y23344D1*
X-1813Y23363D1*
X-1794Y23382D1*
X-1775Y23420D1*
Y23459D1*
X-1794Y23497D1*
X-1813Y23516D1*
X-1870Y23535D1*
X-2043D1*
Y23344D2*
X-1870D1*
X-1147Y23535D2*
X-1186Y23516D1*
X-1224Y23478D1*
X-1243Y23440D1*
X-1262Y23382D1*
Y23286D1*
X-1243Y23229D1*
X-1224Y23191D1*
X-1186Y23153D1*
X-1147Y23133D1*
X-1071D1*
X-1033Y23153D1*
X-994Y23191D1*
X-975Y23229D1*
X-956Y23286D1*
Y23382D1*
X-975Y23440D1*
X-994Y23478D1*
X-1033Y23516D1*
X-1071Y23535D1*
X-1147D1*
X-833Y23401D2*
X-718Y23133D1*
X-603Y23401D1*
X-480Y23286D2*
X-250D1*
Y23325D1*
X-269Y23363D1*
X-288Y23382D1*
X-327Y23401D1*
X-384D1*
X-422Y23382D1*
X-461Y23344D1*
X-480Y23286D1*
Y23248D1*
X-461Y23191D1*
X-422Y23153D1*
X-384Y23133D1*
X-327D1*
X-288Y23153D1*
X-250Y23191D1*
X-127Y23401D2*
Y23133D1*
Y23286D2*
X-107Y23344D1*
X-69Y23382D1*
X-31Y23401D1*
X27D1*
X150Y23535D2*
Y23133D1*
X503Y23401D2*
Y23133D1*
Y23344D2*
X465Y23382D1*
X427Y23401D1*
X370D1*
X331Y23382D1*
X293Y23344D1*
X274Y23286D1*
Y23248D1*
X293Y23191D1*
X331Y23153D1*
X370Y23133D1*
X427D1*
X465Y23153D1*
X503Y23191D1*
X646Y23401D2*
X761Y23133D1*
X723Y23057D1*
X684Y23018D1*
X646Y22999D1*
X627D1*
X876Y23401D2*
X761Y23133D1*
X1464Y23536D2*
X1484Y23517D1*
X1503Y23536D1*
X1484Y23555D1*
X1464Y23536D1*
X1484Y23402D2*
Y23076D1*
X1464Y23019D1*
X1426Y23000D1*
X1388D1*
X1626Y23401D2*
Y23210D1*
X1645Y23153D1*
X1684Y23133D1*
X1741D1*
X1779Y23153D1*
X1837Y23210D1*
Y23401D2*
Y23133D1*
X1960Y23401D2*
Y23133D1*
Y23325D2*
X2018Y23382D1*
X2056Y23401D1*
X2113D1*
X2152Y23382D1*
X2171Y23325D1*
Y23133D1*
Y23325D2*
X2228Y23382D1*
X2267Y23401D1*
X2324D1*
X2362Y23382D1*
X2382Y23325D1*
Y23133D1*
X2505Y23401D2*
Y22999D1*
Y23344D2*
X2544Y23382D1*
X2582Y23401D1*
X2639D1*
X2678Y23382D1*
X2716Y23344D1*
X2735Y23286D1*
Y23248D1*
X2716Y23191D1*
X2678Y23152D1*
X2639Y23133D1*
X2582D1*
X2544Y23152D1*
X2505Y23191D1*
X2859Y23286D2*
X3088D1*
Y23325D1*
X3069Y23363D1*
X3050Y23382D1*
X3012Y23401D1*
X2954D1*
X2916Y23382D1*
X2878Y23344D1*
X2859Y23286D1*
Y23248D1*
X2878Y23191D1*
X2916Y23153D1*
X2954Y23133D1*
X3012D1*
X3050Y23153D1*
X3088Y23191D1*
X3212Y23401D2*
Y23133D1*
Y23286D2*
X3231Y23344D1*
X3269Y23382D1*
X3308Y23401D1*
X3365D1*
X3489Y23439D2*
Y23458D1*
X3508Y23497D1*
X3527Y23516D1*
X3565Y23535D1*
X3642D1*
X3680Y23516D1*
X3699Y23497D1*
X3718Y23458D1*
Y23420D1*
X3699Y23382D1*
X3680Y23363D1*
X3604Y23325D1*
Y23267D1*
Y23172D2*
X3584Y23152D1*
X3604Y23133D1*
X3623Y23152D1*
X3604Y23172D1*
M02*
