G04 DipTrace Beta 2.3.5.2*
%INTopPaste.gbr*%
%MOIN*%
%ADD25R,0.0551X0.1181*%
%ADD28R,0.1181X0.0551*%
%ADD44R,0.0591X0.0591*%
%ADD60R,0.0689X0.0276*%
%ADD61R,0.061X0.0394*%
%ADD74R,0.05X0.025*%
%ADD89R,0.0413X0.0256*%
%ADD116R,0.0668X0.092*%
%ADD118R,0.2341X0.2105*%
%ADD120R,0.1002X0.0313*%
%ADD122R,0.1258X0.1258*%
%ADD124O,0.0313X0.0038*%
%ADD126O,0.0038X0.0313*%
%ADD128R,0.0077X0.0628*%
%ADD132R,0.0837X0.0652*%
%ADD134R,0.0837X0.0806*%
%ADD136R,0.0176X0.0117*%
%ADD138R,0.0786X0.0235*%
%ADD140R,0.0077X0.0274*%
%ADD142R,0.0884X0.0884*%
%ADD144R,0.2833X0.2833*%
%ADD146O,0.0038X0.0254*%
%ADD148O,0.0254X0.0038*%
%ADD150R,0.0117X0.0628*%
%ADD152R,0.0628X0.0117*%
%ADD160R,0.0707X0.0707*%
%ADD162R,0.055X0.0707*%
%ADD164R,0.0431X0.051*%
%ADD166R,0.1042X0.0412*%
%ADD168R,0.2479X0.2105*%
%ADD170R,0.0176X0.0333*%
%ADD172R,0.0943X0.1691*%
%ADD184R,0.0392X0.0313*%
%ADD186R,0.0313X0.0392*%
%ADD188R,0.0707X0.1172*%
%ADD190R,0.055X0.0278*%
%ADD192R,0.055X0.0904*%
%ADD194R,0.0278X0.055*%
%ADD196R,0.0904X0.055*%
%ADD240R,0.0628X0.055*%
%ADD242R,0.0353X0.0313*%
%ADD246R,0.0313X0.0353*%
%ADD248R,0.055X0.0628*%
%FSLAX44Y44*%
G04*
G70*
G90*
G75*
G01*
%LNTopPaste*%
%LPD*%
D25*
X24040Y30865D3*
Y28975D3*
X24050Y36060D3*
Y34170D3*
D248*
X15190Y27190D3*
X14088D3*
D246*
X11940Y18115D3*
Y17446D3*
D28*
X11920Y36130D3*
X10030D3*
D242*
X11790Y32470D3*
X11121D3*
X15680Y13460D3*
X16350D3*
X11790Y31910D3*
X11121D3*
X15040Y8525D3*
X14371D3*
X17545Y8450D3*
X16876D3*
D248*
X7915Y19815D3*
X6813D3*
D240*
X11065Y9365D3*
Y8263D3*
D242*
X14690Y18715D3*
X14021D3*
X18940Y27250D3*
X19609D3*
X11800Y31360D3*
X11131D3*
D248*
X15833Y33590D3*
X14730D3*
D240*
X26115Y30090D3*
Y28988D3*
D246*
X13745Y28365D3*
Y29035D3*
D242*
X14170Y32280D3*
X13501D3*
D246*
X17355Y30425D3*
Y29756D3*
D248*
X15710Y28510D3*
X14608D3*
D240*
X25970Y35350D3*
Y34248D3*
D246*
X13833Y33540D3*
Y34209D3*
D242*
X14630Y37400D3*
X13961D3*
D246*
X17613Y35460D3*
Y34791D3*
X13240Y9182D3*
Y8513D3*
X12190Y9157D3*
Y8488D3*
D242*
X16690Y10715D3*
X16021D3*
D246*
X18365Y18240D3*
Y17571D3*
D248*
X7915Y18740D3*
X6813D3*
D246*
X13465Y26340D3*
Y27009D3*
D242*
X18080Y27230D3*
X17411D3*
D246*
X15165Y18190D3*
Y17521D3*
D242*
X10010Y22050D3*
X9341D3*
D246*
X32210Y35640D3*
Y34971D3*
D242*
X32990Y38640D3*
X32321D3*
D246*
X33900Y39190D3*
Y38521D3*
D242*
X31600Y37490D3*
X30931D3*
D246*
X31790Y39140D3*
Y38471D3*
D28*
X35160Y33480D3*
X33270D3*
D246*
X32210Y27580D3*
Y26911D3*
D242*
X32990Y30580D3*
X32321D3*
D246*
X33900Y31130D3*
Y30461D3*
D242*
X31600Y29430D3*
X30931D3*
D246*
X31790Y31080D3*
Y30411D3*
D28*
X35160Y25420D3*
X33270D3*
D246*
X32197Y19599D3*
Y18930D3*
D242*
X32977Y22599D3*
X32308D3*
D246*
X33887Y23149D3*
Y22480D3*
D242*
X31587Y21449D3*
X30918D3*
D246*
X31777Y23099D3*
Y22430D3*
D28*
X35147Y17439D3*
X33258D3*
D246*
X32200Y11620D3*
Y10951D3*
D242*
X32980Y14620D3*
X32311D3*
D246*
X33890Y15170D3*
Y14501D3*
D242*
X31590Y13470D3*
X30921D3*
D246*
X31780Y15120D3*
Y14451D3*
D28*
X35150Y9460D3*
X33260D3*
D242*
X24990Y32265D3*
X24321D3*
D196*
X17663Y33660D3*
D194*
X16551D3*
D196*
X17592Y28502D3*
D194*
X16481D3*
D242*
X24959Y37380D3*
X24290D3*
X15635Y14335D3*
X16304D3*
X15635Y15235D3*
X16304D3*
D192*
X10915Y13515D3*
D190*
Y14627D3*
D188*
X9840Y33970D3*
X11809D3*
D186*
X5462Y38290D3*
X6249D3*
D184*
X9320Y21518D3*
Y20731D3*
D186*
X6762Y38310D3*
X7549D3*
D60*
X4766Y15712D3*
Y15279D3*
Y14846D3*
Y14413D3*
Y13980D3*
Y13546D3*
Y13113D3*
Y12680D3*
D44*
X4815Y11716D3*
G36*
X4520Y16438D2*
X5110D1*
Y15930D1*
X4520D1*
Y16438D1*
G37*
G36*
X8201Y16450D2*
X8594D1*
Y15859D1*
X8201D1*
Y16450D1*
G37*
G36*
X7512D2*
X8102D1*
Y16135D1*
X7512D1*
Y16450D1*
G37*
D61*
X9018Y11716D3*
G36*
X7997Y11623D2*
X8548D1*
Y11308D1*
X7997D1*
Y11623D1*
G37*
D172*
X18830Y30420D3*
X21980D3*
X18880Y35590D3*
X22030D3*
D170*
X25915Y9990D3*
X26663D3*
X26289Y10896D3*
X23615Y10015D3*
X24363D3*
X23989Y10921D3*
D168*
X17970Y39380D3*
D166*
X15450Y40278D3*
Y38483D3*
D168*
X12050Y39290D3*
D166*
X9530Y40188D3*
Y38393D3*
D170*
X9615Y8990D3*
X8867D3*
X9241Y8085D3*
X21660Y40080D3*
X20912D3*
X21286Y39175D3*
X26360Y40070D3*
X25612D3*
X25986Y39165D3*
X24020Y40050D3*
X23272D3*
X23646Y39145D3*
D242*
X16895Y14335D3*
X17564D3*
D246*
X8450Y39660D3*
Y40329D3*
X14340Y38350D3*
Y39019D3*
D242*
X23380Y38480D3*
X24049D3*
D164*
X35256Y36046D3*
X36004D3*
X35260Y37920D3*
X36008D3*
D242*
X14265Y19840D3*
X13596D3*
X24065Y23815D3*
X24734D3*
D246*
X16215Y9225D3*
Y8556D3*
D242*
X12860Y24040D3*
X12191D3*
D164*
X35256Y27986D3*
X36004D3*
D242*
X21060Y38500D3*
X21729D3*
X11835Y12875D3*
X12504D3*
D164*
X35260Y29860D3*
X36008D3*
X35243Y20005D3*
X35991D3*
X35247Y21879D3*
X35995D3*
X35246Y12026D3*
X35994D3*
X35250Y13900D3*
X35998D3*
D246*
X8450Y38310D3*
Y38979D3*
X34195Y6876D3*
Y7545D3*
D242*
X27930Y8450D3*
X27261D3*
X25064Y8465D3*
X24395D3*
X20340Y8520D3*
X21009D3*
X17040Y32230D3*
X17709D3*
X15680D3*
X16349D3*
D246*
X12990Y32250D3*
Y31581D3*
X12980Y30840D3*
Y30171D3*
D242*
X17200Y37320D3*
X17869D3*
X15980D3*
X16649D3*
D246*
X13370Y37330D3*
Y36661D3*
Y35880D3*
Y35211D3*
D242*
X23565Y32265D3*
X22896D3*
X23649Y37360D3*
X22980D3*
X25965Y9040D3*
X26634D3*
D246*
X14131Y17356D3*
Y18025D3*
D242*
X13465Y16640D3*
X12796D3*
D246*
X14340Y39680D3*
Y40349D3*
D242*
X25810Y38510D3*
X26479D3*
D246*
X18005Y12525D3*
Y11856D3*
X22746Y39271D3*
Y39940D3*
X17125Y12465D3*
Y11796D3*
D242*
X21640Y9420D3*
X22309D3*
X16925Y15245D3*
X17594D3*
X12150Y11570D3*
X11481D3*
X30940Y36680D3*
X31609D3*
X29090Y36490D3*
X29759D3*
X29111Y38950D3*
X29780D3*
X29650Y32420D3*
X28981D3*
D162*
X30110Y33190D3*
D160*
X29648Y35552D3*
D162*
X29185Y33190D3*
D242*
X12150Y10730D3*
X11481D3*
D246*
X18720Y9150D3*
Y8481D3*
D242*
X30940Y28620D3*
X31609D3*
X29090Y28430D3*
X29759D3*
X29111Y30890D3*
X29780D3*
X29650Y24360D3*
X28981D3*
D162*
X30110Y25130D3*
D160*
X29648Y27492D3*
D162*
X29185Y25130D3*
D242*
X12860Y24510D3*
X12191D3*
D246*
X12665Y26165D3*
Y25496D3*
D242*
X30927Y20639D3*
X31597D3*
X29077Y20449D3*
X29747D3*
X29098Y22909D3*
X29767D3*
X29637Y16379D3*
X28968D3*
D162*
X30097Y17149D3*
D160*
X29635Y19512D3*
D162*
X29172Y17149D3*
D242*
X25120Y25330D3*
X24451D3*
X30930Y12660D3*
X31599D3*
X29080Y12470D3*
X29749D3*
X29101Y14930D3*
X29770D3*
X29640Y8400D3*
X28971D3*
D162*
X30100Y9170D3*
D160*
X29638Y11532D3*
D162*
X29175Y9170D3*
D74*
X29770Y38200D3*
Y37850D3*
Y37500D3*
Y30140D3*
Y29790D3*
Y29440D3*
X29757Y22159D3*
Y21809D3*
Y21459D3*
X29760Y14180D3*
Y13830D3*
Y13480D3*
D152*
X14010Y25380D3*
Y25065D3*
Y24750D3*
Y24435D3*
Y24120D3*
Y23805D3*
Y23490D3*
Y23175D3*
Y22860D3*
Y22546D3*
Y22231D3*
Y21916D3*
Y21601D3*
Y21286D3*
Y20971D3*
Y20656D3*
D150*
X14719Y19947D3*
X15034D3*
X15349D3*
X15664D3*
X15979D3*
X16294D3*
X16609D3*
X16924D3*
X17239D3*
X17553D3*
X17868D3*
X18183D3*
X18498D3*
X18813D3*
X19128D3*
X19443D3*
D152*
X20152Y20656D3*
Y20971D3*
Y21286D3*
Y21601D3*
Y21916D3*
Y22231D3*
Y22546D3*
Y22860D3*
Y23175D3*
Y23490D3*
Y23805D3*
Y24120D3*
Y24435D3*
Y24750D3*
Y25065D3*
Y25380D3*
D150*
X19443Y26089D3*
X19128D3*
X18813D3*
X18498D3*
X18183D3*
X17868D3*
X17553D3*
X17239D3*
X16924D3*
X16609D3*
X16294D3*
X15979D3*
X15664D3*
X15349D3*
X15034D3*
X14719D3*
D148*
X15150Y24810D3*
Y24613D3*
Y24416D3*
Y24220D3*
Y24023D3*
Y23826D3*
Y23629D3*
Y23432D3*
Y23235D3*
Y23039D3*
Y22842D3*
Y22645D3*
Y22448D3*
Y22251D3*
Y22054D3*
Y21857D3*
D146*
X15426Y21582D3*
X15623D3*
X15819D3*
X16016D3*
X16213D3*
X16410D3*
X16607D3*
X16804D3*
X17001D3*
X17197D3*
X17394D3*
X17591D3*
X17788D3*
X17985D3*
X18182D3*
X18379D3*
D148*
X18654Y21857D3*
Y22054D3*
Y22251D3*
Y22448D3*
Y22645D3*
Y22842D3*
Y23039D3*
Y23235D3*
Y23432D3*
Y23629D3*
Y23826D3*
Y24023D3*
Y24220D3*
Y24416D3*
Y24613D3*
Y24810D3*
D146*
X18379Y25086D3*
X18182D3*
X17985D3*
X17788D3*
X17591D3*
X17394D3*
X17197D3*
X17001D3*
X16804D3*
X16607D3*
X16410D3*
X16213D3*
X16016D3*
X15819D3*
X15623D3*
X15426D3*
D144*
X16902Y23334D3*
D146*
X13615Y11315D3*
X13812D3*
X14009D3*
X14206D3*
X14403D3*
D148*
X14757Y11669D3*
Y11866D3*
Y12063D3*
Y12260D3*
Y12457D3*
D146*
X14403Y12811D3*
X14206D3*
X14009D3*
X13812D3*
X13615D3*
D148*
X13261Y12457D3*
Y12260D3*
Y12063D3*
Y11866D3*
Y11669D3*
D142*
X14009Y12063D3*
D140*
X16227Y12561D3*
X15971D3*
X15715D3*
Y11695D3*
X16227D3*
D138*
X16190Y29870D3*
Y30390D3*
Y30850D3*
Y31370D3*
X13930D3*
Y30850D3*
Y30390D3*
Y29870D3*
D136*
X15759Y30059D3*
Y30433D3*
Y30807D3*
Y31181D3*
X14361D3*
Y30807D3*
Y30433D3*
Y30059D3*
D134*
X15060Y30177D3*
D132*
Y31144D3*
D138*
X16470Y34940D3*
Y35460D3*
Y35920D3*
Y36440D3*
X14210D3*
Y35920D3*
Y35460D3*
Y34940D3*
D136*
X16039Y35129D3*
Y35503D3*
Y35877D3*
Y36251D3*
X14641D3*
Y35877D3*
Y35503D3*
Y35129D3*
D134*
X15340Y35247D3*
D132*
Y36214D3*
D89*
X13490Y17290D3*
Y18038D3*
X12585Y17664D3*
D128*
X9410Y17240D3*
X9666D3*
X9922D3*
X10178D3*
X10434D3*
X10690D3*
X10946D3*
Y19524D3*
X10690D3*
X10434D3*
X10178D3*
X9922D3*
X9666D3*
X9410D3*
D126*
X34323Y37975D3*
X34127D3*
X33930D3*
X33733D3*
X33536D3*
X33339D3*
X33142D3*
X32945D3*
D124*
X32650Y37680D3*
Y37483D3*
Y37286D3*
Y37090D3*
Y36893D3*
Y36696D3*
Y36499D3*
Y36302D3*
D126*
X32945Y36007D3*
X33142D3*
X33339D3*
X33536D3*
X33733D3*
X33930D3*
X34127D3*
X34323D3*
D124*
X34619Y36302D3*
Y36499D3*
Y36696D3*
Y36893D3*
Y37090D3*
Y37286D3*
Y37483D3*
Y37680D3*
D122*
X33634Y36991D3*
D126*
X34323Y29915D3*
X34127D3*
X33930D3*
X33733D3*
X33536D3*
X33339D3*
X33142D3*
X32945D3*
D124*
X32650Y29620D3*
Y29423D3*
Y29226D3*
Y29030D3*
Y28833D3*
Y28636D3*
Y28439D3*
Y28242D3*
D126*
X32945Y27947D3*
X33142D3*
X33339D3*
X33536D3*
X33733D3*
X33930D3*
X34127D3*
X34323D3*
D124*
X34619Y28242D3*
Y28439D3*
Y28636D3*
Y28833D3*
Y29030D3*
Y29226D3*
Y29423D3*
Y29620D3*
D122*
X33634Y28931D3*
D126*
X34311Y21935D3*
X34114D3*
X33917D3*
X33720D3*
X33523D3*
X33326D3*
X33130D3*
X32933D3*
D124*
X32637Y21639D3*
Y21443D3*
Y21246D3*
Y21049D3*
Y20852D3*
Y20655D3*
Y20458D3*
Y20262D3*
D126*
X32933Y19966D3*
X33130D3*
X33326D3*
X33523D3*
X33720D3*
X33917D3*
X34114D3*
X34311D3*
D124*
X34606Y20262D3*
Y20458D3*
Y20655D3*
Y20852D3*
Y21049D3*
Y21246D3*
Y21443D3*
Y21639D3*
D122*
X33622Y20951D3*
D126*
X34313Y13955D3*
X34117D3*
X33920D3*
X33723D3*
X33526D3*
X33329D3*
X33132D3*
X32935D3*
D124*
X32640Y13660D3*
Y13463D3*
Y13266D3*
Y13070D3*
Y12873D3*
Y12676D3*
Y12479D3*
Y12282D3*
D126*
X32935Y11987D3*
X33132D3*
X33329D3*
X33526D3*
X33723D3*
X33920D3*
X34117D3*
X34313D3*
D124*
X34609Y12282D3*
Y12479D3*
Y12676D3*
Y12873D3*
Y13070D3*
Y13266D3*
Y13463D3*
Y13660D3*
D122*
X33624Y12971D3*
D120*
X10370Y27970D3*
Y29765D3*
D118*
X7732Y28868D3*
D116*
X17565Y17965D3*
X15951D3*
M02*
