G04 DipTrace Beta 2.3.5.2*
%INFixed Log TopSilk.gbr*%
%MOIN*%
%ADD10C,0.0098*%
%ADD12C,0.003*%
%ADD17C,0.006*%
%ADD24C,0.004*%
%ADD52C,0.0157*%
%ADD66C,0.0154*%
%ADD71C,0.0236*%
%ADD77C,0.0153*%
%ADD251C,0.0046*%
%ADD252C,0.0077*%
%ADD253C,0.0262*%
%ADD254C,0.0093*%
%FSLAX44Y44*%
G04*
G70*
G90*
G75*
G01*
%LNTopSilk*%
%LPD*%
X23666Y28641D2*
D24*
X22761D1*
Y30530D1*
X23430Y31200D1*
X23666D1*
X24414D2*
X24650D1*
X25320Y30530D1*
Y28641D1*
X24414D1*
X23666Y31082D2*
G03X23666Y28759I374J-1161D01*
G01*
X24414D2*
G03X24414Y31082I-374J1161D01*
G01*
X23676Y33836D2*
X22771D1*
Y35725D1*
X23440Y36395D1*
X23676D1*
X24424D2*
X24660D1*
X25330Y35725D1*
Y33836D1*
X24424D1*
X23676Y36277D2*
G03X23676Y33954I374J-1161D01*
G01*
X24424D2*
G03X24424Y36277I-374J1161D01*
G01*
X14682Y27505D2*
D10*
Y26876D1*
X14757Y27505D2*
Y26876D1*
Y27505D2*
X14521D1*
X14757Y26876D2*
X14521D1*
X11783Y18489D2*
X12098D1*
X9696Y36504D2*
D24*
Y37410D1*
X11585D1*
X12255Y36740D1*
Y36504D1*
Y35756D2*
Y35520D1*
X11585Y34851D1*
X9696D1*
Y35756D1*
X12137Y36504D2*
G03X9814Y36504I-1161J-374D01*
G01*
Y35756D2*
G03X12137Y35756I1161J374D01*
G01*
X12164Y32628D2*
D10*
Y32313D1*
X15307Y13303D2*
Y13618D1*
X12164Y32068D2*
Y31753D1*
X15414Y8683D2*
Y8368D1*
X17919Y8608D2*
Y8293D1*
X7407Y20130D2*
Y19501D1*
X7482Y20130D2*
Y19501D1*
Y20130D2*
X7246D1*
X7482Y19501D2*
X7246D1*
X10751Y8857D2*
X11380D1*
X10751Y8932D2*
X11380D1*
X10751D2*
Y8696D1*
X11380Y8932D2*
Y8696D1*
X15064Y18873D2*
Y18558D1*
X18566Y27093D2*
Y27408D1*
X12174Y31518D2*
Y31203D1*
X15325Y33905D2*
Y33276D1*
X15399Y33905D2*
Y33276D1*
Y33905D2*
X15164D1*
X15399Y33276D2*
X15164D1*
X25801Y29582D2*
X26430D1*
X25801Y29657D2*
X26430D1*
X25801D2*
Y29421D1*
X26430Y29657D2*
Y29421D1*
X13903Y27992D2*
X13588D1*
X14544Y32438D2*
Y32123D1*
X17197Y30799D2*
X17512D1*
X15202Y28825D2*
Y28196D1*
X15277Y28825D2*
Y28196D1*
Y28825D2*
X15041D1*
X15277Y28196D2*
X15041D1*
X25656Y34842D2*
X26285D1*
X25656Y34917D2*
X26285D1*
X25656D2*
Y34681D1*
X26285Y34917D2*
Y34681D1*
X13990Y33166D2*
X13675D1*
X15004Y37558D2*
Y37243D1*
X17455Y35834D2*
X17770D1*
X13083Y9556D2*
X13398D1*
X12033Y9531D2*
X12348D1*
X17064Y10873D2*
Y10558D1*
X18208Y18614D2*
X18523D1*
X7407Y19055D2*
Y18426D1*
X7482Y19055D2*
Y18426D1*
Y19055D2*
X7246D1*
X7482Y18426D2*
X7246D1*
X13623Y25966D2*
X13308D1*
X18454Y27388D2*
Y27073D1*
X15008Y18564D2*
X15323D1*
X10384Y22208D2*
Y21893D1*
X32053Y36014D2*
X32368D1*
X33364Y38798D2*
Y38483D1*
X33743Y39564D2*
X34058D1*
X31974Y37648D2*
Y37333D1*
X31633Y39514D2*
X31948D1*
X32936Y33854D2*
D24*
Y34760D1*
X34825D1*
X35495Y34091D1*
Y33854D1*
Y33106D2*
Y32870D1*
X34825Y32201D1*
X32936D1*
Y33106D1*
X35377Y33854D2*
G03X33054Y33854I-1161J-374D01*
G01*
Y33106D2*
G03X35377Y33106I1161J374D01*
G01*
X32053Y27954D2*
D10*
X32368D1*
X33364Y30738D2*
Y30423D1*
X33743Y31504D2*
X34058D1*
X31974Y29588D2*
Y29273D1*
X31633Y31454D2*
X31948D1*
X32936Y25794D2*
D24*
Y26700D1*
X34825D1*
X35495Y26030D1*
Y25794D1*
Y25046D2*
Y24810D1*
X34825Y24141D1*
X32936D1*
Y25046D1*
X35377Y25794D2*
G03X33054Y25794I-1161J-374D01*
G01*
Y25046D2*
G03X35377Y25046I1161J374D01*
G01*
X32040Y19973D2*
D10*
X32355D1*
X33351Y22757D2*
Y22442D1*
X33730Y23523D2*
X34045D1*
X31961Y21607D2*
Y21292D1*
X31620Y23473D2*
X31935D1*
X32923Y17814D2*
D24*
Y18719D1*
X34813D1*
X35482Y18050D1*
Y17814D1*
Y17065D2*
Y16829D1*
X34813Y16160D1*
X32923D1*
Y17065D1*
X35364Y17814D2*
G03X33041Y17814I-1161J-374D01*
G01*
Y17065D2*
G03X35364Y17065I1161J374D01*
G01*
X32043Y11994D2*
D10*
X32358D1*
X33354Y14778D2*
Y14463D1*
X33733Y15544D2*
X34048D1*
X31964Y13628D2*
Y13313D1*
X31623Y15494D2*
X31938D1*
X32926Y9834D2*
D24*
Y10740D1*
X34815D1*
X35485Y10070D1*
Y9834D1*
Y9086D2*
Y8850D1*
X34815Y8181D1*
X32926D1*
Y9086D1*
X35367Y9834D2*
G03X33044Y9834I-1161J-374D01*
G01*
Y9086D2*
G03X35367Y9086I1161J374D01*
G01*
X3940Y37090D2*
D10*
Y30791D1*
X7680Y37090D2*
X6105D1*
X9058Y36401D2*
Y31480D1*
X7680Y30791D2*
X6105D1*
X7159Y26360D2*
X8861D1*
Y21521D1*
X7159D1*
X38989Y39010D2*
X36390D1*
X38989Y34970D2*
Y39010D1*
Y34970D2*
X36390D1*
Y39010D1*
X38989Y30950D2*
X36390D1*
X38989Y26910D2*
Y30950D1*
Y26910D2*
X36390D1*
Y30950D1*
X38976Y22969D2*
X36378D1*
X38976Y18930D2*
Y22969D1*
Y18930D2*
X36378D1*
Y22969D1*
X38979Y14990D2*
X36380D1*
X38979Y10950D2*
Y14990D1*
Y10950D2*
X36380D1*
Y14990D1*
X9400Y43820D2*
X12520D1*
Y40820D1*
X9400D1*
Y43820D1*
X16010D2*
X19130D1*
Y40820D1*
X16010D1*
Y43820D1*
X21470Y40561D2*
Y43160D1*
X19430Y40561D2*
X21470D1*
X19430D2*
Y43160D1*
X21470D1*
X34710Y7719D2*
Y5120D1*
X37750Y7719D2*
X34710D1*
X37750D2*
Y5120D1*
X34710D1*
X26620Y7749D2*
Y5150D1*
X29660Y7749D2*
X26620D1*
X29660D2*
Y5150D1*
X26620D1*
X23250Y7719D2*
Y5120D1*
X26290Y7719D2*
X23250D1*
X26290D2*
Y5120D1*
X23250D1*
X19790Y7719D2*
Y5120D1*
X22830Y7719D2*
X19790D1*
X22830D2*
Y5120D1*
X19790D1*
X17510Y7709D2*
Y5110D1*
X19550Y7709D2*
X17510D1*
X19550D2*
Y5110D1*
X17510D1*
X15280Y7699D2*
Y5100D1*
X17320Y7699D2*
X15280D1*
X17320D2*
Y5100D1*
X15280D1*
X15033Y5092D2*
X7947D1*
Y7690D1*
X15033D1*
Y5092D1*
X26110Y40581D2*
Y43180D1*
X24070Y40581D2*
X26110D1*
X24070D2*
Y43180D1*
X26110D1*
X23780Y40581D2*
Y43180D1*
X21740Y40581D2*
X23780D1*
X21740D2*
Y43180D1*
X23780D1*
X37950Y40601D2*
Y43200D1*
X35910Y40601D2*
X37950D1*
X35910D2*
Y43200D1*
X37950D1*
X35690Y40591D2*
Y43190D1*
X33650Y40591D2*
X35690D1*
X33650D2*
Y43190D1*
X35690D1*
X29020Y40601D2*
Y43200D1*
X26980Y40601D2*
X29020D1*
X26980D2*
Y43200D1*
X29020D1*
X25325Y32423D2*
Y32108D1*
X17555Y33220D2*
X16846D1*
X17555Y34100D2*
X16846D1*
D52*
X18369Y33660D3*
X17485Y28062D2*
D10*
X16776D1*
X17485Y28942D2*
X16776D1*
D52*
X18299Y28502D3*
X25294Y37538D2*
D10*
Y37223D1*
X15301Y14178D2*
Y14493D1*
Y15078D2*
Y15393D1*
X10475Y13623D2*
Y14331D1*
X11355Y13623D2*
Y14331D1*
D52*
X10915Y12809D3*
X10037Y34679D2*
D10*
X11612D1*
X10037Y33261D2*
X11612D1*
X5777Y38487D2*
X5935D1*
X5777Y38093D2*
X5935D1*
X5777D2*
Y38487D1*
X5852Y38093D2*
Y38487D1*
X9517Y21204D2*
Y21045D1*
X9123Y21204D2*
Y21045D1*
Y21204D2*
X9517D1*
X9123Y21128D2*
X9517D1*
X7077Y38507D2*
X7235D1*
X7077Y38113D2*
X7235D1*
X7077D2*
Y38507D1*
X7152Y38113D2*
Y38507D1*
X7394Y16342D2*
X5189D1*
Y11539D2*
X7866D1*
X9225Y12050D2*
Y16342D1*
X8712D1*
X28530Y31818D2*
X26660D1*
Y27093D1*
X28530D1*
Y31818D1*
Y37018D2*
X26660D1*
Y32293D1*
X28530D1*
Y37018D1*
X6148Y20675D2*
X4279D1*
Y17368D1*
X6148D1*
Y20675D1*
X10025Y22313D2*
X11895D1*
Y27037D1*
X10025D1*
Y22313D1*
X11240Y20907D2*
Y18990D1*
Y21990D2*
Y18990D1*
X13240Y21990D2*
Y18990D1*
X11240Y21990D2*
X13240D1*
X11240Y18990D2*
X13240D1*
X25515Y22365D2*
Y23365D1*
X23515Y22365D2*
X25515D1*
X23515D2*
Y23365D1*
X25515D1*
X13188Y13395D2*
X15105D1*
X12105D2*
X15105D1*
X12105Y15395D2*
X15105D1*
X12105Y13395D2*
Y15395D1*
X15105Y13395D2*
Y15395D1*
X7920Y27460D2*
Y26460D1*
X9920Y27460D2*
X7920D1*
X9920D2*
Y26460D1*
X7920D1*
X20210Y16158D2*
X18340D1*
Y11433D1*
X20210D1*
Y16158D1*
X18397Y31404D2*
Y32428D1*
X22413D1*
Y31404D1*
X18397Y29436D2*
Y28412D1*
X22413D1*
Y29436D1*
X18447Y36574D2*
Y37598D1*
X22463D1*
Y36574D1*
X18447Y34606D2*
Y33582D1*
X22463D1*
Y34606D1*
D66*
X25607Y9843D3*
X25699Y10344D2*
D10*
X26880D1*
Y10541D1*
X25699D1*
Y10344D1*
D66*
X23307Y9868D3*
X23399Y10369D2*
D10*
X24580D1*
Y10566D1*
X23399D1*
Y10369D1*
X19348Y40601D2*
X14781D1*
Y38160D1*
X19348D1*
Y40601D1*
X13428Y40511D2*
X8861D1*
Y38070D1*
X13428D1*
Y40511D1*
D66*
X9924Y9137D3*
X9832Y8636D2*
D10*
X8651D1*
Y8439D1*
X9832D1*
Y8636D1*
D66*
X21969Y40227D3*
X21877Y39726D2*
D10*
X20696D1*
Y39529D1*
X21877D1*
Y39726D1*
D66*
X26669Y40217D3*
X26577Y39716D2*
D10*
X25396D1*
Y39519D1*
X26577D1*
Y39716D1*
D66*
X24329Y40197D3*
X24237Y39696D2*
D10*
X23056D1*
Y39499D1*
X24237D1*
Y39696D1*
X30632Y33486D2*
Y35257D1*
X28663Y33486D2*
Y35257D1*
X30632D2*
X30238D1*
X29057D2*
X28663D1*
D71*
X30081Y32560D3*
X30632Y25426D2*
D10*
Y27197D1*
X28663Y25426D2*
Y27197D1*
X30632D2*
X30238D1*
X29057D2*
X28663D1*
D71*
X30081Y24500D3*
X30619Y17445D2*
D10*
Y19216D1*
X28651Y17445D2*
Y19216D1*
X30619D2*
X30225D1*
X29044D2*
X28651D1*
D71*
X30068Y16520D3*
X30622Y9466D2*
D10*
Y11237D1*
X28653Y9466D2*
Y11237D1*
X30622D2*
X30228D1*
X29047D2*
X28653D1*
D71*
X30071Y8540D3*
X29370Y37350D2*
D17*
Y38350D1*
X30170Y37350D2*
G02X30070Y37250I-100J0D01*
G01*
Y38450D2*
G02X30170Y38350I0J-100D01*
G01*
X29470Y38450D2*
G03X29370Y38350I0J-100D01*
G01*
Y37350D2*
G03X29470Y37250I100J0D01*
G01*
X30070D1*
X29470Y38450D2*
X30070D1*
X30170Y38350D2*
Y37350D1*
X29370Y29290D2*
Y30290D1*
X30170Y29290D2*
G02X30070Y29190I-100J0D01*
G01*
Y30390D2*
G02X30170Y30290I0J-100D01*
G01*
X29470Y30390D2*
G03X29370Y30290I0J-100D01*
G01*
Y29290D2*
G03X29470Y29190I100J0D01*
G01*
X30070D1*
X29470Y30390D2*
X30070D1*
X30170Y30290D2*
Y29290D1*
X29357Y21309D2*
Y22310D1*
X30157Y21309D2*
G02X30057Y21209I-100J0D01*
G01*
Y22409D2*
G02X30157Y22310I0J-100D01*
G01*
X29457Y22409D2*
G03X29357Y22310I0J-100D01*
G01*
Y21309D2*
G03X29457Y21209I100J0D01*
G01*
X30057D1*
X29457Y22409D2*
X30057D1*
X30157Y22310D2*
Y21309D1*
X29360Y13330D2*
Y14330D1*
X30160Y13330D2*
G02X30060Y13230I-100J0D01*
G01*
Y14430D2*
G02X30160Y14330I0J-100D01*
G01*
X29460Y14430D2*
G03X29360Y14330I0J-100D01*
G01*
Y13330D2*
G03X29460Y13230I100J0D01*
G01*
X30060D1*
X29460Y14430D2*
X30060D1*
X30160Y14330D2*
Y13330D1*
X14522Y25577D2*
D10*
X19640D1*
Y20459D1*
X14522D1*
Y25577D1*
D77*
X14003Y25691D3*
G36*
X14522Y25577D2*
Y25183D1*
X14916Y25577D1*
X14522D1*
G37*
X15132Y21700D2*
D10*
Y21562D1*
X15270D1*
X18536Y25105D2*
X18673D1*
Y24967D2*
Y25105D1*
X18536Y21562D2*
X18673D1*
Y21700D1*
X15092Y24987D2*
X15250Y25145D1*
D52*
X14822Y24810D3*
X13418Y11276D2*
D10*
X13221Y11473D1*
X14796Y11276D2*
Y11473D1*
Y11276D2*
X14599D1*
X14796Y12654D2*
Y12851D1*
X14599D1*
X13221D2*
X13418D1*
X13221D2*
Y12654D1*
X13613Y11045D3*
D66*
X16496Y12669D3*
X16365Y12246D2*
D10*
X15577D1*
Y12010D1*
X16365D1*
Y12246D1*
X15572Y31860D2*
X14548D1*
X15257Y29400D2*
X15572D1*
X14863D2*
X14548D1*
D66*
X16052Y29603D3*
X15848Y31860D2*
D10*
X14273D1*
Y31624D1*
X15848Y31860D2*
Y31624D1*
Y29400D2*
X14272D1*
X14273Y29636D1*
X15848Y29400D2*
Y29636D1*
X15852Y36930D2*
X14828D1*
X15537Y34470D2*
X15852D1*
X15143D2*
X14828D1*
D66*
X16332Y34673D3*
X16128Y36930D2*
D10*
X14553D1*
Y36694D1*
X16128Y36930D2*
Y36694D1*
Y34470D2*
X14552D1*
X14553Y34706D1*
X16128Y34470D2*
Y34706D1*
D66*
X13637Y16982D3*
X13136Y17074D2*
D10*
Y18255D1*
X12939D1*
Y17074D1*
X13136D1*
X9194Y17752D2*
X11162D1*
X9194Y19012D2*
X11162D1*
Y17752D2*
Y19012D1*
X9194Y17752D2*
Y18185D1*
Y18579D2*
Y19012D1*
Y18185D2*
G03X9194Y18579I0J197D01*
G01*
D52*
X34323Y38310D3*
X34619Y37838D2*
D10*
X34481Y37995D1*
X34619Y36184D2*
Y36007D1*
X34481D1*
X32650Y37818D2*
Y37995D1*
X32788D1*
X32808Y35987D2*
X32630D1*
Y36125D1*
D52*
X34323Y30250D3*
X34619Y29778D2*
D10*
X34481Y29935D1*
X34619Y28124D2*
Y27947D1*
X34481D1*
X32650Y29758D2*
Y29935D1*
X32788D1*
X32808Y27927D2*
X32630D1*
Y28065D1*
D52*
X34311Y22269D3*
X34606Y21797D2*
D10*
X34468Y21955D1*
X34606Y20144D2*
Y19966D1*
X34468D1*
X32637Y21777D2*
Y21955D1*
X32775D1*
X32795Y19947D2*
X32618D1*
Y20084D1*
D52*
X34313Y14290D3*
X34609Y13818D2*
D10*
X34471Y13975D1*
X34609Y12164D2*
Y11987D1*
X34471D1*
X32640Y13798D2*
Y13975D1*
X32778D1*
X32798Y11967D2*
X32620D1*
Y12105D1*
X9661Y27569D2*
Y30167D1*
X6905Y27569D2*
X9661D1*
X6905D2*
Y27647D1*
Y30167D2*
X9661D1*
X6905D2*
Y30088D1*
D66*
X10811Y27578D3*
D52*
X18097Y17965D3*
X17939Y17375D2*
D10*
Y17256D1*
X15577D1*
Y17375D1*
X17939Y18556D2*
Y18674D1*
X15577D1*
Y18556D1*
G36*
X20330Y19160D2*
X23540D1*
Y11930D1*
X20330D1*
Y19160D1*
G37*
X6768Y10661D2*
D12*
X7785D1*
X6754Y10631D2*
X7856D1*
X6745Y10601D2*
X7911D1*
X6740Y10571D2*
X7949D1*
X6734Y10541D2*
X7976D1*
X6726Y10512D2*
X7987D1*
X6718Y10482D2*
X8054D1*
X6713Y10452D2*
X8054D1*
X6710Y10422D2*
X8055D1*
X6709Y10392D2*
X8059D1*
X6708Y10362D2*
X8066D1*
X6707Y10332D2*
X8074D1*
X6703Y10302D2*
X8079D1*
X6696Y10272D2*
X8082D1*
X6688Y10242D2*
X8083D1*
X6682Y10212D2*
X8084D1*
X6675Y10182D2*
X7258D1*
X7289D2*
X8084D1*
X6665Y10152D2*
X7218D1*
X7388D2*
X8084D1*
X6653Y10123D2*
X7201D1*
X7458D2*
X8084D1*
X6641Y10093D2*
X7188D1*
X7491D2*
X8084D1*
X6630Y10063D2*
X7177D1*
X7504D2*
X8083D1*
X6624Y10033D2*
X7168D1*
X7510D2*
X8079D1*
X6620Y10003D2*
X7162D1*
X7514D2*
X8072D1*
X6619Y9973D2*
X7159D1*
X7515D2*
X8064D1*
X6618Y9943D2*
X7157D1*
X7515D2*
X8059D1*
X6618Y9913D2*
X7156D1*
X7515D2*
X8056D1*
X6617Y9883D2*
X7152D1*
X7514D2*
X8054D1*
X6613Y9853D2*
X7144D1*
X7509D2*
X8049D1*
X6606Y9823D2*
X7137D1*
X7498D2*
X8041D1*
X6598Y9793D2*
X7130D1*
X7484D2*
X8029D1*
X6592Y9764D2*
X7124D1*
X7469D2*
X8017D1*
X6585Y9734D2*
X7115D1*
X7454D2*
X8005D1*
X6577Y9704D2*
X7107D1*
X7434D2*
X7994D1*
X6569Y9674D2*
X7101D1*
X7356D2*
X7979D1*
X6563Y9644D2*
X7097D1*
X7227D2*
X7961D1*
X6560Y9614D2*
X7939D1*
X6559Y9584D2*
X7912D1*
X6557Y9554D2*
X7883D1*
X6553Y9524D2*
X7853D1*
X6546Y9494D2*
X7816D1*
X6538Y9464D2*
X7770D1*
X6532Y9434D2*
X7720D1*
X6525Y9404D2*
X7680D1*
X6517Y9375D2*
X7654D1*
X6509Y9345D2*
X7785D1*
X6503Y9315D2*
X7800D1*
X6500Y9285D2*
X7816D1*
X6499Y9255D2*
X7829D1*
X6499Y9225D2*
X7838D1*
X6497Y9195D2*
X7842D1*
X6493Y9165D2*
X7844D1*
X6486Y9135D2*
X7043D1*
X7235D2*
X7844D1*
X6478Y9105D2*
X7024D1*
X7275D2*
X7845D1*
X6472Y9075D2*
X7010D1*
X7291D2*
X7845D1*
X6466Y9045D2*
X6998D1*
X7300D2*
X7845D1*
X6457Y9016D2*
X6988D1*
X7304D2*
X7845D1*
X6448Y8986D2*
X6982D1*
X7305D2*
X7845D1*
X6438Y8956D2*
X6979D1*
X7306D2*
X7845D1*
X6428Y8926D2*
X6978D1*
X7306D2*
X7845D1*
X6420Y8896D2*
X6977D1*
X7306D2*
X7845D1*
X6414Y8866D2*
X6977D1*
X7306D2*
X7845D1*
X6411Y8836D2*
X6977D1*
X7306D2*
X7845D1*
X6409Y8806D2*
X6976D1*
X7306D2*
X7844D1*
X6409Y8776D2*
X6972D1*
X7305D2*
X7840D1*
X6408Y8746D2*
X6964D1*
X7301D2*
X7833D1*
X6404Y8716D2*
X6952D1*
X7294D2*
X7825D1*
X6396Y8686D2*
X6940D1*
X7286D2*
X7819D1*
X6389Y8656D2*
X6928D1*
X7281D2*
X7812D1*
X6382Y8627D2*
X6918D1*
X7277D2*
X7803D1*
X6376Y8597D2*
X6907D1*
X7272D2*
X7795D1*
X6367Y8567D2*
X6898D1*
X7264D2*
X7790D1*
X6359Y8537D2*
X6893D1*
X7257D2*
X7787D1*
X6354Y8507D2*
X6890D1*
X7251D2*
X7786D1*
X6351Y8477D2*
X6888D1*
X7248D2*
X7785D1*
X6349Y8447D2*
X6888D1*
X7247D2*
X7785D1*
X6348Y8417D2*
X6887D1*
X7247D2*
X7785D1*
X6344Y8387D2*
X6886D1*
X7246D2*
X7785D1*
X6337Y8357D2*
X6882D1*
X7246D2*
X7785D1*
X6329Y8327D2*
X6875D1*
X7246D2*
X7785D1*
X6324Y8297D2*
X6866D1*
X7246D2*
X7785D1*
X6320Y8268D2*
X6857D1*
X7245D2*
X7785D1*
X6315Y8238D2*
X6847D1*
X7241D2*
X7785D1*
X6307Y8208D2*
X6838D1*
X7234D2*
X7785D1*
X6299Y8178D2*
X6833D1*
X7225D2*
X7785D1*
X6293Y8148D2*
X6829D1*
X7216D2*
X7785D1*
X6289Y8118D2*
D3*
X6827D2*
D3*
X7785D2*
D3*
X26374Y25285D2*
X26703D1*
X27182D2*
X27451D1*
X26373Y25255D2*
X26688D1*
X27138D2*
X27495D1*
X26369Y25225D2*
X26675D1*
X27099D2*
X27533D1*
X26362Y25196D2*
X26664D1*
X27066D2*
X27566D1*
X26354Y25166D2*
X26653D1*
X27038D2*
X27594D1*
X26349Y25136D2*
X26643D1*
X27016D2*
X27617D1*
X26345Y25106D2*
X26633D1*
X26998D2*
X27635D1*
X26340Y25076D2*
X26623D1*
X26985D2*
X27652D1*
X26332Y25046D2*
X26613D1*
X26973D2*
X27666D1*
X26324Y25016D2*
X26603D1*
X26962D2*
X27679D1*
X26319Y24986D2*
X26594D1*
X26952D2*
X27689D1*
X26316Y24956D2*
X26588D1*
X26942D2*
X27700D1*
X26315Y24926D2*
X26584D1*
X26932D2*
X27709D1*
X26313Y24896D2*
X26579D1*
X26923D2*
X27715D1*
X26309Y24866D2*
X26571D1*
X26917D2*
X27718D1*
X26302Y24837D2*
X26563D1*
X26913D2*
X27301D1*
X27350D2*
X27719D1*
X26294Y24807D2*
X26558D1*
X26908D2*
X27273D1*
X27389D2*
X27721D1*
X26289Y24777D2*
X26555D1*
X26900D2*
X27248D1*
X27417D2*
X27725D1*
X26286Y24747D2*
X26554D1*
X26893D2*
X27230D1*
X27435D2*
X27732D1*
X26285Y24717D2*
X26554D1*
X26887D2*
X27219D1*
X27448D2*
X27740D1*
X26284Y24687D2*
X26553D1*
X26884D2*
X27210D1*
X27460D2*
X27745D1*
X26284Y24657D2*
X26553D1*
X26882D2*
X27201D1*
X27469D2*
X27748D1*
X26284Y24627D2*
X26553D1*
X26878D2*
X27192D1*
X27475D2*
X27749D1*
X26284Y24597D2*
X26553D1*
X26870D2*
X27187D1*
X27479D2*
X27750D1*
X26284Y24567D2*
X26553D1*
X26863D2*
X27184D1*
X27480D2*
X27750D1*
X26284Y24537D2*
X26553D1*
X26857D2*
X27182D1*
X27480D2*
X27750D1*
X26284Y24507D2*
X26553D1*
X26853D2*
X27181D1*
X27481D2*
X27749D1*
X26284Y24477D2*
X26554D1*
X26848D2*
X27177D1*
X27481D2*
X27745D1*
X26284Y24448D2*
X26558D1*
X26840D2*
X27169D1*
X27481D2*
X27738D1*
X26284Y24418D2*
X26567D1*
X26831D2*
X27162D1*
X27481D2*
X27730D1*
X26285Y24388D2*
X26580D1*
X26821D2*
X27157D1*
X27480D2*
X27725D1*
X26289Y24358D2*
X26596D1*
X26807D2*
X27154D1*
X27476D2*
X27722D1*
X26296Y24328D2*
X26636D1*
X26769D2*
X27151D1*
X27469D2*
X27721D1*
X26304Y24298D2*
X26693D1*
X26712D2*
X27147D1*
X27461D2*
X27720D1*
X26309Y24268D2*
X27140D1*
X27456D2*
X27720D1*
X26313Y24238D2*
X27132D1*
X27452D2*
X27720D1*
X26318Y24208D2*
X27125D1*
X27447D2*
X27719D1*
X26326Y24178D2*
X27119D1*
X27439D2*
X27715D1*
X26335Y24148D2*
X27110D1*
X27431D2*
X27708D1*
X26344Y24118D2*
X27101D1*
X27425D2*
X27700D1*
X26354Y24089D2*
X27092D1*
X27418D2*
X27695D1*
X26364Y24059D2*
X27081D1*
X27410D2*
X27692D1*
X26375Y24029D2*
X27068D1*
X27401D2*
X27690D1*
X26390Y23999D2*
X27054D1*
X27396D2*
X27685D1*
X26410Y23969D2*
X27038D1*
X27393D2*
X27674D1*
X26433Y23939D2*
X27019D1*
X27391D2*
X27660D1*
X26459Y23909D2*
X26996D1*
X26494Y23879D2*
X26966D1*
X26542Y23849D2*
X26924D1*
X26604Y23819D2*
X26864D1*
X26673Y23789D2*
X26793D1*
X26673Y23610D2*
X27002D1*
X26619Y23580D2*
X27056D1*
X26572Y23550D2*
X27103D1*
X26532Y23520D2*
X27143D1*
X26497Y23490D2*
X27178D1*
X26466Y23460D2*
X27209D1*
X26439Y23430D2*
X27236D1*
X26417Y23400D2*
X27258D1*
X26399Y23370D2*
X27276D1*
X26382Y23341D2*
X27293D1*
X26368Y23311D2*
X27307D1*
X26355Y23281D2*
X27320D1*
X26345Y23251D2*
X27330D1*
X26334Y23221D2*
X27341D1*
X26325Y23191D2*
X27350D1*
X26319Y23161D2*
X27356D1*
X26315Y23131D2*
X26770D1*
X26905D2*
X27360D1*
X26310Y23101D2*
X26699D1*
X26977D2*
X27365D1*
X26302Y23071D2*
X26645D1*
X27034D2*
X27373D1*
X26294Y23041D2*
X26608D1*
X27074D2*
X27381D1*
X26289Y23011D2*
X26583D1*
X27103D2*
X27386D1*
X26286Y22981D2*
X26564D1*
X27118D2*
X27389D1*
X26285Y22952D2*
X26548D1*
X27130D2*
X27390D1*
X26284Y22922D2*
X26536D1*
X27140D2*
X27391D1*
X26284Y22892D2*
X26529D1*
X27146D2*
X27391D1*
X26284Y22862D2*
X26526D1*
X27149D2*
X27391D1*
X26284Y22832D2*
X26524D1*
X27151D2*
X27391D1*
X26284Y22802D2*
X26525D1*
X27150D2*
X27391D1*
X26284Y22772D2*
X26529D1*
X27146D2*
X27391D1*
X26284Y22742D2*
X26537D1*
X27138D2*
X27391D1*
X26284Y22712D2*
X26549D1*
X27126D2*
X27390D1*
X26285Y22682D2*
X26567D1*
X27108D2*
X27386D1*
X26289Y22652D2*
X26592D1*
X27083D2*
X27379D1*
X26296Y22622D2*
X26623D1*
X27052D2*
X27371D1*
X26304Y22593D2*
X26707D1*
X26968D2*
X27366D1*
X26310Y22563D2*
X26839D1*
X26836D2*
X27362D1*
X26317Y22533D2*
X27357D1*
X26325Y22503D2*
X27349D1*
X26335Y22473D2*
X27340D1*
X26344Y22443D2*
X27331D1*
X26355Y22413D2*
X27320D1*
X26368Y22383D2*
X27307D1*
X26382Y22353D2*
X27293D1*
X26396Y22323D2*
X27279D1*
X26411Y22293D2*
X27264D1*
X26427Y22263D2*
X27248D1*
X26446Y22233D2*
X27229D1*
X26471Y22204D2*
X27204D1*
X26502Y22174D2*
X27173D1*
X26544Y22144D2*
X27131D1*
X26598Y22114D2*
X27077D1*
X26662Y22084D2*
X27013D1*
X26733Y22054D2*
X26942D1*
X26314Y21845D2*
X27780D1*
X26314Y21815D2*
X27780D1*
X26314Y21785D2*
X27780D1*
X26314Y21755D2*
X27780D1*
X26314Y21725D2*
X27780D1*
X26314Y21695D2*
X27780D1*
X26314Y21665D2*
X27780D1*
X26314Y21635D2*
X27780D1*
X26314Y21605D2*
X27780D1*
X26314Y21575D2*
X27780D1*
X26314Y21545D2*
X27780D1*
X26314Y21515D2*
X27780D1*
X26314Y21485D2*
X27780D1*
X26314Y21456D2*
X27780D1*
X26314Y21426D2*
X27780D1*
X26314Y21396D2*
X27780D1*
X26314Y21097D2*
X27361D1*
X27511D2*
X27780D1*
X26314Y21067D2*
X27361D1*
X27511D2*
X27780D1*
X26314Y21037D2*
X27361D1*
X27511D2*
X27780D1*
X26314Y21007D2*
X27361D1*
X27511D2*
X27780D1*
X26314Y20977D2*
X27361D1*
X27511D2*
X27780D1*
X26314Y20947D2*
X27361D1*
X27511D2*
X27780D1*
X26314Y20917D2*
X27361D1*
X27511D2*
X27780D1*
X26314Y20887D2*
X27361D1*
X27511D2*
X27780D1*
X26314Y20857D2*
X27361D1*
X27511D2*
X27780D1*
X26314Y20827D2*
X27361D1*
X27511D2*
X27780D1*
X26314Y20797D2*
X27361D1*
X27511D2*
X27780D1*
X26314Y20767D2*
X27361D1*
X27511D2*
X27780D1*
X26314Y20737D2*
X27361D1*
X27511D2*
X27780D1*
X26314Y20708D2*
X27361D1*
X27511D2*
X27780D1*
X26314Y20678D2*
X27361D1*
X27511D2*
X27780D1*
X26314Y20648D2*
X27361D1*
X27511D2*
X27780D1*
X26314Y20618D2*
X27361D1*
X27511D2*
X27780D1*
X26673Y20289D2*
X27002D1*
X26625Y20259D2*
X27056D1*
X26579Y20229D2*
X27103D1*
X26537Y20199D2*
X27143D1*
X26501Y20169D2*
X27178D1*
X26471Y20139D2*
X27209D1*
X26448Y20109D2*
X27236D1*
X26429Y20079D2*
X27258D1*
X26412Y20049D2*
X27276D1*
X26397Y20019D2*
X27293D1*
X26381Y19989D2*
X27307D1*
X26367Y19960D2*
X27320D1*
X26355Y19930D2*
X27330D1*
X26345Y19900D2*
X27341D1*
X26334Y19870D2*
X27350D1*
X26325Y19840D2*
X27357D1*
X26319Y19810D2*
X26764D1*
X26937D2*
X27364D1*
X26316Y19780D2*
X26738D1*
X26959D2*
X27372D1*
X26315Y19750D2*
X26716D1*
X26976D2*
X27381D1*
X26314Y19720D2*
X26699D1*
X26989D2*
X27386D1*
X26314Y19690D2*
X26687D1*
X26996D2*
X27389D1*
X26314Y19660D2*
X26680D1*
X26999D2*
X27390D1*
X26314Y19630D2*
X26681D1*
X27000D2*
X27391D1*
X26314Y19601D2*
X26687D1*
X26995D2*
X27390D1*
X26314Y19571D2*
X26700D1*
X26986D2*
X27386D1*
X26314Y19541D2*
X26716D1*
X26960D2*
X27379D1*
X26315Y19511D2*
X26761D1*
X26915D2*
X27371D1*
X26319Y19481D2*
X26829D1*
X26847D2*
X27365D1*
X26326Y19451D2*
X27750D1*
X26335Y19421D2*
X27775D1*
X26344Y19391D2*
X27797D1*
X26355Y19361D2*
X27814D1*
X26368Y19331D2*
X27826D1*
X26382Y19301D2*
X27834D1*
X26397Y19271D2*
X27837D1*
X26415Y19241D2*
X27839D1*
X26435Y19212D2*
X27839D1*
X26455Y19182D2*
X27840D1*
X26480Y19152D2*
X27838D1*
X26512Y19122D2*
X27834D1*
X26552Y19092D2*
X27821D1*
X26597Y19062D2*
X27802D1*
X26649Y19032D2*
X27777D1*
X26703Y19002D2*
X27750D1*
X26733Y18703D2*
X26942D1*
X26665Y18673D2*
X27010D1*
X26609Y18643D2*
X27066D1*
X26565Y18613D2*
X27110D1*
X26528Y18583D2*
X27147D1*
X26495Y18553D2*
X27180D1*
X26465Y18523D2*
X27210D1*
X26439Y18493D2*
X27236D1*
X26417Y18464D2*
X27258D1*
X26399Y18434D2*
X27276D1*
X26382Y18404D2*
X27293D1*
X26368Y18374D2*
X27308D1*
X26355Y18344D2*
X27323D1*
X26345Y18314D2*
X27337D1*
X26334Y18284D2*
X27348D1*
X26325Y18254D2*
X27355D1*
X26319Y18224D2*
X26764D1*
X26911D2*
X27359D1*
X26315Y18194D2*
X26738D1*
X26937D2*
X27361D1*
X26310Y18164D2*
X26716D1*
X26959D2*
X27366D1*
X26302Y18134D2*
X26699D1*
X26976D2*
X27373D1*
X26294Y18105D2*
X26686D1*
X26989D2*
X27381D1*
X26290Y18075D2*
X26679D1*
X26996D2*
X27386D1*
X26291Y18045D2*
X26677D1*
X26998D2*
X27388D1*
X26297Y18015D2*
X26679D1*
X26996D2*
X27385D1*
X26304Y17985D2*
X26687D1*
X26988D2*
X27379D1*
X26309Y17955D2*
X26701D1*
X26974D2*
X27371D1*
X26312Y17925D2*
X26720D1*
X26955D2*
X27366D1*
X26314Y17895D2*
X26768D1*
X26907D2*
X27362D1*
X26319Y17865D2*
X26834D1*
X26841D2*
X27357D1*
X26326Y17835D2*
X27349D1*
X26335Y17805D2*
X27340D1*
X26344Y17775D2*
X27331D1*
X26355Y17745D2*
X27320D1*
X26368Y17716D2*
X27307D1*
X26382Y17686D2*
X27293D1*
X26398Y17656D2*
X27277D1*
X26416Y17626D2*
X27259D1*
X26439Y17596D2*
X27236D1*
X26466Y17566D2*
X27209D1*
X26496Y17536D2*
X27179D1*
X26529Y17506D2*
X27145D1*
X26569Y17476D2*
X27102D1*
X26621Y17446D2*
X27048D1*
X26687Y17416D2*
X26983D1*
X26763Y17386D2*
X26912D1*
X26793Y17117D2*
X26882D1*
X26706Y17087D2*
X26969D1*
X26634Y17057D2*
X27041D1*
X26578Y17027D2*
X27097D1*
X26534Y16997D2*
X27141D1*
X26499Y16968D2*
X27176D1*
X26470Y16938D2*
X27205D1*
X26446Y16908D2*
X27229D1*
X26425Y16878D2*
X27250D1*
X26404Y16848D2*
X27271D1*
X26385Y16818D2*
X27290D1*
X26369Y16788D2*
X27306D1*
X26356Y16758D2*
X27319D1*
X26345Y16728D2*
X27330D1*
X26334Y16698D2*
X27341D1*
X26325Y16668D2*
X27350D1*
X26319Y16638D2*
X27356D1*
X26316Y16609D2*
X26763D1*
X26948D2*
X27360D1*
X26314Y16579D2*
X26734D1*
X26959D2*
X27365D1*
X26309Y16549D2*
X26709D1*
X26974D2*
X27373D1*
X26302Y16519D2*
X26691D1*
X26987D2*
X27381D1*
X26294Y16489D2*
X26681D1*
X26995D2*
X27386D1*
X26290Y16459D2*
X26678D1*
X26999D2*
X27388D1*
X26291Y16429D2*
X26679D1*
X27000D2*
X27385D1*
X26297Y16399D2*
X26687D1*
X26995D2*
X27379D1*
X26304Y16369D2*
X26700D1*
X26986D2*
X27371D1*
X26309Y16339D2*
X26716D1*
X26960D2*
X27366D1*
X26312Y16309D2*
X26761D1*
X26915D2*
X27363D1*
X26314Y16279D2*
X26829D1*
X26847D2*
X27361D1*
X26319Y16249D2*
X27356D1*
X26327Y16220D2*
X27349D1*
X26339Y16190D2*
X27340D1*
X26352Y16160D2*
X27331D1*
X26367Y16130D2*
X27320D1*
X26381Y16100D2*
X27306D1*
X26397Y16070D2*
X27289D1*
X26415Y16040D2*
X27270D1*
X26434Y16010D2*
X27251D1*
X26454Y15980D2*
X27230D1*
X26476Y15950D2*
X27205D1*
X26504Y15920D2*
X27174D1*
X26540Y15890D2*
X27136D1*
X26586Y15861D2*
X27090D1*
X26641Y15831D2*
X27034D1*
X26703Y15801D2*
X26972D1*
X26763Y15501D2*
X26942D1*
X26681Y15472D2*
X27011D1*
X26616Y15442D2*
X27070D1*
X26568Y15412D2*
X27117D1*
X26529Y15382D2*
X27155D1*
X26496Y15352D2*
X27185D1*
X26465Y15322D2*
X27212D1*
X26439Y15292D2*
X27237D1*
X26417Y15262D2*
X27258D1*
X26399Y15232D2*
X27276D1*
X26382Y15202D2*
X27293D1*
X26368Y15172D2*
X27308D1*
X26355Y15142D2*
X27323D1*
X26345Y15113D2*
X27337D1*
X26334Y15083D2*
X27348D1*
X26325Y15053D2*
X27355D1*
X26319Y15023D2*
X26800D1*
X26875D2*
X27360D1*
X26316Y14993D2*
X26756D1*
X26919D2*
X27365D1*
X26315Y14963D2*
X26725D1*
X26950D2*
X27373D1*
X26314Y14933D2*
X26702D1*
X26973D2*
X27381D1*
X26314Y14903D2*
X26688D1*
X26987D2*
X27386D1*
X26314Y14873D2*
X26680D1*
X26995D2*
X27389D1*
X26314Y14843D2*
X26677D1*
X26998D2*
X27390D1*
X26314Y14813D2*
X26679D1*
X26996D2*
X27390D1*
X26314Y14783D2*
X26687D1*
X26988D2*
X27386D1*
X26314Y14753D2*
X26701D1*
X26974D2*
X27379D1*
X26314Y14724D2*
X26720D1*
X26955D2*
X27371D1*
X26315Y14694D2*
X26768D1*
X26907D2*
X27366D1*
X26319Y14664D2*
X26834D1*
X26841D2*
X27363D1*
X26326Y14634D2*
X27750D1*
X26335Y14604D2*
X27779D1*
X26344Y14574D2*
X27804D1*
X26355Y14544D2*
X27821D1*
X26369Y14514D2*
X27831D1*
X26386Y14484D2*
X27836D1*
X26405Y14454D2*
X27838D1*
X26424Y14424D2*
X27839D1*
X26445Y14394D2*
X27840D1*
X26469Y14365D2*
X27839D1*
X26497Y14335D2*
X27835D1*
X26530Y14305D2*
X27826D1*
X26572Y14275D2*
X27814D1*
X26621Y14245D2*
X27796D1*
X26676Y14215D2*
X27774D1*
X26733Y14185D2*
X27750D1*
X26404Y13886D2*
X27750D1*
X26385Y13856D2*
X27782D1*
X26368Y13826D2*
X27807D1*
X26352Y13796D2*
X27825D1*
X26338Y13766D2*
X27837D1*
X26327Y13736D2*
X27849D1*
X26320Y13706D2*
X27858D1*
X26316Y13676D2*
X27863D1*
X26316Y13646D2*
X27862D1*
X26319Y13617D2*
X27856D1*
X26327Y13587D2*
X27844D1*
X26340Y13557D2*
X27831D1*
X26359Y13527D2*
X27815D1*
X26386Y13497D2*
X27791D1*
X26422Y13467D2*
X27759D1*
X26463Y13437D2*
X27720D1*
X26733Y13198D2*
X26942D1*
X26665Y13168D2*
X27010D1*
X26609Y13138D2*
X27066D1*
X26565Y13108D2*
X27110D1*
X26528Y13078D2*
X27147D1*
X26495Y13048D2*
X27180D1*
X26465Y13018D2*
X27210D1*
X26439Y12988D2*
X27236D1*
X26417Y12958D2*
X27258D1*
X26399Y12928D2*
X27276D1*
X26382Y12898D2*
X27293D1*
X26368Y12869D2*
X27307D1*
X26355Y12839D2*
X27320D1*
X26345Y12809D2*
X27330D1*
X26334Y12779D2*
X27341D1*
X26325Y12749D2*
X27350D1*
X26319Y12719D2*
X26763D1*
X26911D2*
X27356D1*
X26315Y12689D2*
X26733D1*
X26937D2*
X27360D1*
X26310Y12659D2*
X26752D1*
X26959D2*
X27365D1*
X26302Y12629D2*
X26773D1*
X26976D2*
X27373D1*
X26294Y12599D2*
X26798D1*
X26989D2*
X27381D1*
X26289Y12569D2*
X26825D1*
X26996D2*
X27385D1*
X26286Y12539D2*
X26852D1*
X26998D2*
X27384D1*
X26285Y12509D2*
X26878D1*
X26997D2*
X27378D1*
X26284Y12480D2*
X26900D1*
X26982D2*
X27371D1*
X26284Y12450D2*
X26921D1*
X26950D2*
X27366D1*
X26284Y12420D2*
X27363D1*
X26284Y12390D2*
X27361D1*
X26284Y12360D2*
X27356D1*
X26284Y12330D2*
X27349D1*
X26284Y12300D2*
X27340D1*
X26284Y12270D2*
X27331D1*
X26284Y12240D2*
X27320D1*
X26284Y12210D2*
X27307D1*
X26285Y12180D2*
X27293D1*
X26289Y12150D2*
X27277D1*
X26296Y12121D2*
X26643D1*
X26709D2*
X27259D1*
X26304Y12091D2*
X26643D1*
X26721D2*
X27236D1*
X26310Y12061D2*
X26642D1*
X26741D2*
X27209D1*
X26318Y12031D2*
X26637D1*
X26766D2*
X27179D1*
X26331Y12001D2*
X26625D1*
X26794D2*
X27146D1*
X26352Y11971D2*
X26605D1*
X26823D2*
X27109D1*
X26377Y11941D2*
X26580D1*
X26853D2*
X27070D1*
X26404Y11911D2*
X26553D1*
X26882D2*
X27032D1*
X6768Y10661D2*
X6754Y10631D1*
X6745Y10601D1*
X6740Y10571D1*
X6734Y10541D1*
X6726Y10512D1*
X6718Y10482D1*
X6713Y10452D1*
X6710Y10422D1*
X6709Y10392D1*
X6708Y10362D1*
X6707Y10332D1*
X6703Y10302D1*
X6696Y10272D1*
X6688Y10242D1*
X6682Y10212D1*
X6675Y10182D1*
X6665Y10152D1*
X6653Y10123D1*
X6641Y10093D1*
X6630Y10063D1*
X6624Y10033D1*
X6620Y10003D1*
X6619Y9973D1*
X6618Y9943D1*
Y9913D1*
X6617Y9883D1*
X6613Y9853D1*
X6606Y9823D1*
X6598Y9793D1*
X6592Y9764D1*
X6585Y9734D1*
X6577Y9704D1*
X6569Y9674D1*
X6563Y9644D1*
X6560Y9614D1*
X6559Y9584D1*
X6557Y9554D1*
X6553Y9524D1*
X6546Y9494D1*
X6538Y9464D1*
X6532Y9434D1*
X6525Y9404D1*
X6517Y9375D1*
X6509Y9345D1*
X6503Y9315D1*
X6500Y9285D1*
X6499Y9255D1*
Y9225D1*
X6497Y9195D1*
X6493Y9165D1*
X6486Y9135D1*
X6478Y9105D1*
X6472Y9075D1*
X6466Y9045D1*
X6457Y9016D1*
X6448Y8986D1*
X6438Y8956D1*
X6428Y8926D1*
X6420Y8896D1*
X6414Y8866D1*
X6411Y8836D1*
X6409Y8806D1*
Y8776D1*
X6408Y8746D1*
X6404Y8716D1*
X6396Y8686D1*
X6389Y8656D1*
X6382Y8627D1*
X6376Y8597D1*
X6367Y8567D1*
X6359Y8537D1*
X6354Y8507D1*
X6351Y8477D1*
X6349Y8447D1*
X6348Y8417D1*
X6344Y8387D1*
X6337Y8357D1*
X6329Y8327D1*
X6324Y8297D1*
X6320Y8268D1*
X6315Y8238D1*
X6307Y8208D1*
X6299Y8178D1*
X6293Y8148D1*
X6289Y8118D1*
X7785Y10661D2*
X7856Y10631D1*
X7911Y10601D1*
X7949Y10571D1*
X7976Y10541D1*
X7987Y10512D1*
X7994Y10482D1*
X8054D1*
Y10452D1*
X8055Y10422D1*
X8059Y10392D1*
X8066Y10362D1*
X8074Y10332D1*
X8079Y10302D1*
X8082Y10272D1*
X8083Y10242D1*
X8084Y10212D1*
Y10182D1*
Y10152D1*
Y10123D1*
Y10093D1*
X8083Y10063D1*
X8079Y10033D1*
X8072Y10003D1*
X8064Y9973D1*
X8059Y9943D1*
X8056Y9913D1*
X8054Y9883D1*
X8049Y9853D1*
X8041Y9823D1*
X8029Y9793D1*
X8017Y9764D1*
X8005Y9734D1*
X7994Y9704D1*
X7979Y9674D1*
X7961Y9644D1*
X7939Y9614D1*
X7912Y9584D1*
X7883Y9554D1*
X7853Y9524D1*
X7816Y9494D1*
X7770Y9464D1*
X7720Y9434D1*
X7680Y9404D1*
X7654Y9375D1*
X7635Y9345D1*
X7785D1*
X7800Y9315D1*
X7816Y9285D1*
X7829Y9255D1*
X7838Y9225D1*
X7842Y9195D1*
X7844Y9165D1*
Y9135D1*
X7845Y9105D1*
Y9075D1*
Y9045D1*
Y9016D1*
Y8986D1*
Y8956D1*
Y8926D1*
Y8896D1*
Y8866D1*
Y8836D1*
X7844Y8806D1*
X7840Y8776D1*
X7833Y8746D1*
X7825Y8716D1*
X7819Y8686D1*
X7812Y8656D1*
X7803Y8627D1*
X7795Y8597D1*
X7790Y8567D1*
X7787Y8537D1*
X7786Y8507D1*
X7785Y8477D1*
Y8447D1*
Y8417D1*
Y8387D1*
Y8357D1*
Y8327D1*
Y8297D1*
Y8268D1*
Y8238D1*
Y8208D1*
Y8178D1*
Y8148D1*
Y8118D1*
X7306Y10212D2*
X7258Y10182D1*
X7218Y10152D1*
X7201Y10123D1*
X7188Y10093D1*
X7177Y10063D1*
X7168Y10033D1*
X7162Y10003D1*
X7159Y9973D1*
X7157Y9943D1*
X7156Y9913D1*
X7152Y9883D1*
X7144Y9853D1*
X7137Y9823D1*
X7130Y9793D1*
X7124Y9764D1*
X7115Y9734D1*
X7107Y9704D1*
X7101Y9674D1*
X7097Y9644D1*
X7336Y9614D1*
X7157Y10212D2*
X7289Y10182D1*
X7388Y10152D1*
X7458Y10123D1*
X7491Y10093D1*
X7504Y10063D1*
X7510Y10033D1*
X7514Y10003D1*
X7515Y9973D1*
Y9943D1*
Y9913D1*
X7514Y9883D1*
X7509Y9853D1*
X7498Y9823D1*
X7484Y9793D1*
X7469Y9764D1*
X7454Y9734D1*
X7434Y9704D1*
X7356Y9674D1*
X7227Y9644D1*
X7067Y9614D1*
Y9165D2*
X7043Y9135D1*
X7024Y9105D1*
X7010Y9075D1*
X6998Y9045D1*
X6988Y9016D1*
X6982Y8986D1*
X6979Y8956D1*
X6978Y8926D1*
X6977Y8896D1*
Y8866D1*
Y8836D1*
X6976Y8806D1*
X6972Y8776D1*
X6964Y8746D1*
X6952Y8716D1*
X6940Y8686D1*
X6928Y8656D1*
X6918Y8627D1*
X6907Y8597D1*
X6898Y8567D1*
X6893Y8537D1*
X6890Y8507D1*
X6888Y8477D1*
Y8447D1*
X6887Y8417D1*
X6886Y8387D1*
X6882Y8357D1*
X6875Y8327D1*
X6866Y8297D1*
X6857Y8268D1*
X6847Y8238D1*
X6838Y8208D1*
X6833Y8178D1*
X6829Y8148D1*
X6827Y8118D1*
X7186Y9165D2*
X7235Y9135D1*
X7275Y9105D1*
X7291Y9075D1*
X7300Y9045D1*
X7304Y9016D1*
X7305Y8986D1*
X7306Y8956D1*
Y8926D1*
Y8896D1*
Y8866D1*
Y8836D1*
Y8806D1*
X7305Y8776D1*
X7301Y8746D1*
X7294Y8716D1*
X7286Y8686D1*
X7281Y8656D1*
X7277Y8627D1*
X7272Y8597D1*
X7264Y8567D1*
X7257Y8537D1*
X7251Y8507D1*
X7248Y8477D1*
X7247Y8447D1*
Y8417D1*
X7246Y8387D1*
Y8357D1*
Y8327D1*
Y8297D1*
X7245Y8268D1*
X7241Y8238D1*
X7234Y8208D1*
X7225Y8178D1*
X7216Y8148D1*
X26374Y25285D2*
X26373Y25255D1*
X26369Y25225D1*
X26362Y25196D1*
X26354Y25166D1*
X26349Y25136D1*
X26345Y25106D1*
X26340Y25076D1*
X26332Y25046D1*
X26324Y25016D1*
X26319Y24986D1*
X26316Y24956D1*
X26315Y24926D1*
X26313Y24896D1*
X26309Y24866D1*
X26302Y24837D1*
X26294Y24807D1*
X26289Y24777D1*
X26286Y24747D1*
X26285Y24717D1*
X26284Y24687D1*
Y24657D1*
Y24627D1*
Y24597D1*
Y24567D1*
Y24537D1*
Y24507D1*
Y24477D1*
Y24448D1*
Y24418D1*
X26285Y24388D1*
X26289Y24358D1*
X26296Y24328D1*
X26304Y24298D1*
X26309Y24268D1*
X26313Y24238D1*
X26318Y24208D1*
X26326Y24178D1*
X26335Y24148D1*
X26344Y24118D1*
X26354Y24089D1*
X26364Y24059D1*
X26375Y24029D1*
X26390Y23999D1*
X26410Y23969D1*
X26433Y23939D1*
X26459Y23909D1*
X26494Y23879D1*
X26542Y23849D1*
X26604Y23819D1*
X26673Y23789D1*
X26703Y25285D2*
X26688Y25255D1*
X26675Y25225D1*
X26664Y25196D1*
X26653Y25166D1*
X26643Y25136D1*
X26633Y25106D1*
X26623Y25076D1*
X26613Y25046D1*
X26603Y25016D1*
X26594Y24986D1*
X26588Y24956D1*
X26584Y24926D1*
X26579Y24896D1*
X26571Y24866D1*
X26563Y24837D1*
X26558Y24807D1*
X26555Y24777D1*
X26554Y24747D1*
Y24717D1*
X26553Y24687D1*
Y24657D1*
Y24627D1*
Y24597D1*
Y24567D1*
Y24537D1*
Y24507D1*
X26554Y24477D1*
X26558Y24448D1*
X26567Y24418D1*
X26580Y24388D1*
X26596Y24358D1*
X26636Y24328D1*
X26693Y24298D1*
X26763Y24268D1*
X27182Y25285D2*
X27138Y25255D1*
X27099Y25225D1*
X27066Y25196D1*
X27038Y25166D1*
X27016Y25136D1*
X26998Y25106D1*
X26985Y25076D1*
X26973Y25046D1*
X26962Y25016D1*
X26952Y24986D1*
X26942Y24956D1*
X26932Y24926D1*
X26923Y24896D1*
X26917Y24866D1*
X26913Y24837D1*
X26908Y24807D1*
X26900Y24777D1*
X26893Y24747D1*
X26887Y24717D1*
X26884Y24687D1*
X26882Y24657D1*
X26878Y24627D1*
X26870Y24597D1*
X26863Y24567D1*
X26857Y24537D1*
X26853Y24507D1*
X26848Y24477D1*
X26840Y24448D1*
X26831Y24418D1*
X26821Y24388D1*
X26807Y24358D1*
X26769Y24328D1*
X26712Y24298D1*
X26643Y24268D1*
X27451Y25285D2*
X27495Y25255D1*
X27533Y25225D1*
X27566Y25196D1*
X27594Y25166D1*
X27617Y25136D1*
X27635Y25106D1*
X27652Y25076D1*
X27666Y25046D1*
X27679Y25016D1*
X27689Y24986D1*
X27700Y24956D1*
X27709Y24926D1*
X27715Y24896D1*
X27718Y24866D1*
X27719Y24837D1*
X27721Y24807D1*
X27725Y24777D1*
X27732Y24747D1*
X27740Y24717D1*
X27745Y24687D1*
X27748Y24657D1*
X27749Y24627D1*
X27750Y24597D1*
Y24567D1*
Y24537D1*
X27749Y24507D1*
X27745Y24477D1*
X27738Y24448D1*
X27730Y24418D1*
X27725Y24388D1*
X27722Y24358D1*
X27721Y24328D1*
X27720Y24298D1*
Y24268D1*
Y24238D1*
X27719Y24208D1*
X27715Y24178D1*
X27708Y24148D1*
X27700Y24118D1*
X27695Y24089D1*
X27692Y24059D1*
X27690Y24029D1*
X27685Y23999D1*
X27674Y23969D1*
X27660Y23939D1*
X27331Y24866D2*
X27301Y24837D1*
X27273Y24807D1*
X27248Y24777D1*
X27230Y24747D1*
X27219Y24717D1*
X27210Y24687D1*
X27201Y24657D1*
X27192Y24627D1*
X27187Y24597D1*
X27184Y24567D1*
X27182Y24537D1*
X27181Y24507D1*
X27177Y24477D1*
X27169Y24448D1*
X27162Y24418D1*
X27157Y24388D1*
X27154Y24358D1*
X27151Y24328D1*
X27147Y24298D1*
X27140Y24268D1*
X27132Y24238D1*
X27125Y24208D1*
X27119Y24178D1*
X27110Y24148D1*
X27101Y24118D1*
X27092Y24089D1*
X27081Y24059D1*
X27068Y24029D1*
X27054Y23999D1*
X27038Y23969D1*
X27019Y23939D1*
X26996Y23909D1*
X26966Y23879D1*
X26924Y23849D1*
X26864Y23819D1*
X26793Y23789D1*
X27301Y24866D2*
X27350Y24837D1*
X27389Y24807D1*
X27417Y24777D1*
X27435Y24747D1*
X27448Y24717D1*
X27460Y24687D1*
X27469Y24657D1*
X27475Y24627D1*
X27479Y24597D1*
X27480Y24567D1*
Y24537D1*
X27481Y24507D1*
Y24477D1*
Y24448D1*
Y24418D1*
X27480Y24388D1*
X27476Y24358D1*
X27469Y24328D1*
X27461Y24298D1*
X27456Y24268D1*
X27452Y24238D1*
X27447Y24208D1*
X27439Y24178D1*
X27431Y24148D1*
X27425Y24118D1*
X27418Y24089D1*
X27410Y24059D1*
X27401Y24029D1*
X27396Y23999D1*
X27393Y23969D1*
X27391Y23939D1*
X26673Y23610D2*
X26619Y23580D1*
X26572Y23550D1*
X26532Y23520D1*
X26497Y23490D1*
X26466Y23460D1*
X26439Y23430D1*
X26417Y23400D1*
X26399Y23370D1*
X26382Y23341D1*
X26368Y23311D1*
X26355Y23281D1*
X26345Y23251D1*
X26334Y23221D1*
X26325Y23191D1*
X26319Y23161D1*
X26315Y23131D1*
X26310Y23101D1*
X26302Y23071D1*
X26294Y23041D1*
X26289Y23011D1*
X26286Y22981D1*
X26285Y22952D1*
X26284Y22922D1*
Y22892D1*
Y22862D1*
Y22832D1*
Y22802D1*
Y22772D1*
Y22742D1*
Y22712D1*
X26285Y22682D1*
X26289Y22652D1*
X26296Y22622D1*
X26304Y22593D1*
X26310Y22563D1*
X26317Y22533D1*
X26325Y22503D1*
X26335Y22473D1*
X26344Y22443D1*
X26355Y22413D1*
X26368Y22383D1*
X26382Y22353D1*
X26396Y22323D1*
X26411Y22293D1*
X26427Y22263D1*
X26446Y22233D1*
X26471Y22204D1*
X26502Y22174D1*
X26544Y22144D1*
X26598Y22114D1*
X26662Y22084D1*
X26733Y22054D1*
X27002Y23610D2*
X27056Y23580D1*
X27103Y23550D1*
X27143Y23520D1*
X27178Y23490D1*
X27209Y23460D1*
X27236Y23430D1*
X27258Y23400D1*
X27276Y23370D1*
X27293Y23341D1*
X27307Y23311D1*
X27320Y23281D1*
X27330Y23251D1*
X27341Y23221D1*
X27350Y23191D1*
X27356Y23161D1*
X27360Y23131D1*
X27365Y23101D1*
X27373Y23071D1*
X27381Y23041D1*
X27386Y23011D1*
X27389Y22981D1*
X27390Y22952D1*
X27391Y22922D1*
Y22892D1*
Y22862D1*
Y22832D1*
Y22802D1*
Y22772D1*
Y22742D1*
X27390Y22712D1*
X27386Y22682D1*
X27379Y22652D1*
X27371Y22622D1*
X27366Y22593D1*
X27362Y22563D1*
X27357Y22533D1*
X27349Y22503D1*
X27340Y22473D1*
X27331Y22443D1*
X27320Y22413D1*
X27307Y22383D1*
X27293Y22353D1*
X27279Y22323D1*
X27264Y22293D1*
X27248Y22263D1*
X27229Y22233D1*
X27204Y22204D1*
X27173Y22174D1*
X27131Y22144D1*
X27077Y22114D1*
X27013Y22084D1*
X26942Y22054D1*
X26852Y23161D2*
X26770Y23131D1*
X26699Y23101D1*
X26645Y23071D1*
X26608Y23041D1*
X26583Y23011D1*
X26564Y22981D1*
X26548Y22952D1*
X26536Y22922D1*
X26529Y22892D1*
X26526Y22862D1*
X26524Y22832D1*
X26525Y22802D1*
X26529Y22772D1*
X26537Y22742D1*
X26549Y22712D1*
X26567Y22682D1*
X26592Y22652D1*
X26623Y22622D1*
X26707Y22593D1*
X26839Y22563D1*
X27002Y22533D1*
X26823Y23161D2*
X26905Y23131D1*
X26977Y23101D1*
X27034Y23071D1*
X27074Y23041D1*
X27103Y23011D1*
X27118Y22981D1*
X27130Y22952D1*
X27140Y22922D1*
X27146Y22892D1*
X27149Y22862D1*
X27151Y22832D1*
X27150Y22802D1*
X27146Y22772D1*
X27138Y22742D1*
X27126Y22712D1*
X27108Y22682D1*
X27083Y22652D1*
X27052Y22622D1*
X26968Y22593D1*
X26836Y22563D1*
X26673Y22533D1*
X26314Y21845D2*
Y21815D1*
Y21785D1*
Y21755D1*
Y21725D1*
Y21695D1*
Y21665D1*
Y21635D1*
Y21605D1*
Y21575D1*
Y21545D1*
Y21515D1*
Y21485D1*
Y21456D1*
Y21426D1*
Y21396D1*
X27780Y21845D2*
Y21815D1*
Y21785D1*
Y21755D1*
Y21725D1*
Y21695D1*
Y21665D1*
Y21635D1*
Y21605D1*
Y21575D1*
Y21545D1*
Y21515D1*
Y21485D1*
Y21456D1*
Y21426D1*
Y21396D1*
X26314Y21097D2*
Y21067D1*
Y21037D1*
Y21007D1*
Y20977D1*
Y20947D1*
Y20917D1*
Y20887D1*
Y20857D1*
Y20827D1*
Y20797D1*
Y20767D1*
Y20737D1*
Y20708D1*
Y20678D1*
Y20648D1*
Y20618D1*
X27361Y21097D2*
Y21067D1*
Y21037D1*
Y21007D1*
Y20977D1*
Y20947D1*
Y20917D1*
Y20887D1*
Y20857D1*
Y20827D1*
Y20797D1*
Y20767D1*
Y20737D1*
Y20708D1*
Y20678D1*
Y20648D1*
Y20618D1*
X27511Y21097D2*
Y21067D1*
Y21037D1*
Y21007D1*
Y20977D1*
Y20947D1*
Y20917D1*
Y20887D1*
Y20857D1*
Y20827D1*
Y20797D1*
Y20767D1*
Y20737D1*
Y20708D1*
Y20678D1*
Y20648D1*
Y20618D1*
X27780Y21097D2*
Y21067D1*
Y21037D1*
Y21007D1*
Y20977D1*
Y20947D1*
Y20917D1*
Y20887D1*
Y20857D1*
Y20827D1*
Y20797D1*
Y20767D1*
Y20737D1*
Y20708D1*
Y20678D1*
Y20648D1*
Y20618D1*
X26673Y20289D2*
X26625Y20259D1*
X26579Y20229D1*
X26537Y20199D1*
X26501Y20169D1*
X26471Y20139D1*
X26448Y20109D1*
X26429Y20079D1*
X26412Y20049D1*
X26397Y20019D1*
X26381Y19989D1*
X26367Y19960D1*
X26355Y19930D1*
X26345Y19900D1*
X26334Y19870D1*
X26325Y19840D1*
X26319Y19810D1*
X26316Y19780D1*
X26315Y19750D1*
X26314Y19720D1*
Y19690D1*
Y19660D1*
Y19630D1*
Y19601D1*
Y19571D1*
Y19541D1*
X26315Y19511D1*
X26319Y19481D1*
X26326Y19451D1*
X26335Y19421D1*
X26344Y19391D1*
X26355Y19361D1*
X26368Y19331D1*
X26382Y19301D1*
X26397Y19271D1*
X26415Y19241D1*
X26435Y19212D1*
X26455Y19182D1*
X26480Y19152D1*
X26512Y19122D1*
X26552Y19092D1*
X26597Y19062D1*
X26649Y19032D1*
X26703Y19002D1*
X27002Y20289D2*
X27056Y20259D1*
X27103Y20229D1*
X27143Y20199D1*
X27178Y20169D1*
X27209Y20139D1*
X27236Y20109D1*
X27258Y20079D1*
X27276Y20049D1*
X27293Y20019D1*
X27307Y19989D1*
X27320Y19960D1*
X27330Y19930D1*
X27341Y19900D1*
X27350Y19870D1*
X27357Y19840D1*
X27364Y19810D1*
X27372Y19780D1*
X27381Y19750D1*
X27386Y19720D1*
X27389Y19690D1*
X27390Y19660D1*
X27391Y19630D1*
X27390Y19601D1*
X27386Y19571D1*
X27379Y19541D1*
X27371Y19511D1*
X27365Y19481D1*
X27361Y19451D1*
X26793Y19840D2*
X26764Y19810D1*
X26738Y19780D1*
X26716Y19750D1*
X26699Y19720D1*
X26687Y19690D1*
X26680Y19660D1*
X26681Y19630D1*
X26687Y19601D1*
X26700Y19571D1*
X26716Y19541D1*
X26761Y19511D1*
X26829Y19481D1*
X26912Y19451D1*
Y19840D2*
X26937Y19810D1*
X26959Y19780D1*
X26976Y19750D1*
X26989Y19720D1*
X26996Y19690D1*
X26999Y19660D1*
X27000Y19630D1*
X26995Y19601D1*
X26986Y19571D1*
X26960Y19541D1*
X26915Y19511D1*
X26847Y19481D1*
X26763Y19451D1*
X27750D2*
X27775Y19421D1*
X27797Y19391D1*
X27814Y19361D1*
X27826Y19331D1*
X27834Y19301D1*
X27837Y19271D1*
X27839Y19241D1*
Y19212D1*
X27840Y19182D1*
X27838Y19152D1*
X27834Y19122D1*
X27821Y19092D1*
X27802Y19062D1*
X27777Y19032D1*
X27750Y19002D1*
X26733Y18703D2*
X26665Y18673D1*
X26609Y18643D1*
X26565Y18613D1*
X26528Y18583D1*
X26495Y18553D1*
X26465Y18523D1*
X26439Y18493D1*
X26417Y18464D1*
X26399Y18434D1*
X26382Y18404D1*
X26368Y18374D1*
X26355Y18344D1*
X26345Y18314D1*
X26334Y18284D1*
X26325Y18254D1*
X26319Y18224D1*
X26315Y18194D1*
X26310Y18164D1*
X26302Y18134D1*
X26294Y18105D1*
X26290Y18075D1*
X26291Y18045D1*
X26297Y18015D1*
X26304Y17985D1*
X26309Y17955D1*
X26312Y17925D1*
X26314Y17895D1*
X26319Y17865D1*
X26326Y17835D1*
X26335Y17805D1*
X26344Y17775D1*
X26355Y17745D1*
X26368Y17716D1*
X26382Y17686D1*
X26398Y17656D1*
X26416Y17626D1*
X26439Y17596D1*
X26466Y17566D1*
X26496Y17536D1*
X26529Y17506D1*
X26569Y17476D1*
X26621Y17446D1*
X26687Y17416D1*
X26763Y17386D1*
X26942Y18703D2*
X27010Y18673D1*
X27066Y18643D1*
X27110Y18613D1*
X27147Y18583D1*
X27180Y18553D1*
X27210Y18523D1*
X27236Y18493D1*
X27258Y18464D1*
X27276Y18434D1*
X27293Y18404D1*
X27308Y18374D1*
X27323Y18344D1*
X27337Y18314D1*
X27348Y18284D1*
X27355Y18254D1*
X27359Y18224D1*
X27361Y18194D1*
X27366Y18164D1*
X27373Y18134D1*
X27381Y18105D1*
X27386Y18075D1*
X27388Y18045D1*
X27385Y18015D1*
X27379Y17985D1*
X27371Y17955D1*
X27366Y17925D1*
X27362Y17895D1*
X27357Y17865D1*
X27349Y17835D1*
X27340Y17805D1*
X27331Y17775D1*
X27320Y17745D1*
X27307Y17716D1*
X27293Y17686D1*
X27277Y17656D1*
X27259Y17626D1*
X27236Y17596D1*
X27209Y17566D1*
X27179Y17536D1*
X27145Y17506D1*
X27102Y17476D1*
X27048Y17446D1*
X26983Y17416D1*
X26912Y17386D1*
X26793Y18254D2*
X26764Y18224D1*
X26738Y18194D1*
X26716Y18164D1*
X26699Y18134D1*
X26686Y18105D1*
X26679Y18075D1*
X26677Y18045D1*
X26679Y18015D1*
X26687Y17985D1*
X26701Y17955D1*
X26720Y17925D1*
X26768Y17895D1*
X26834Y17865D1*
X26912Y17835D1*
X26882Y18254D2*
X26911Y18224D1*
X26937Y18194D1*
X26959Y18164D1*
X26976Y18134D1*
X26989Y18105D1*
X26996Y18075D1*
X26998Y18045D1*
X26996Y18015D1*
X26988Y17985D1*
X26974Y17955D1*
X26955Y17925D1*
X26907Y17895D1*
X26841Y17865D1*
X26763Y17835D1*
X26793Y17117D2*
X26706Y17087D1*
X26634Y17057D1*
X26578Y17027D1*
X26534Y16997D1*
X26499Y16968D1*
X26470Y16938D1*
X26446Y16908D1*
X26425Y16878D1*
X26404Y16848D1*
X26385Y16818D1*
X26369Y16788D1*
X26356Y16758D1*
X26345Y16728D1*
X26334Y16698D1*
X26325Y16668D1*
X26319Y16638D1*
X26316Y16609D1*
X26314Y16579D1*
X26309Y16549D1*
X26302Y16519D1*
X26294Y16489D1*
X26290Y16459D1*
X26291Y16429D1*
X26297Y16399D1*
X26304Y16369D1*
X26309Y16339D1*
X26312Y16309D1*
X26314Y16279D1*
X26319Y16249D1*
X26327Y16220D1*
X26339Y16190D1*
X26352Y16160D1*
X26367Y16130D1*
X26381Y16100D1*
X26397Y16070D1*
X26415Y16040D1*
X26434Y16010D1*
X26454Y15980D1*
X26476Y15950D1*
X26504Y15920D1*
X26540Y15890D1*
X26586Y15861D1*
X26641Y15831D1*
X26703Y15801D1*
X26882Y17117D2*
X26969Y17087D1*
X27041Y17057D1*
X27097Y17027D1*
X27141Y16997D1*
X27176Y16968D1*
X27205Y16938D1*
X27229Y16908D1*
X27250Y16878D1*
X27271Y16848D1*
X27290Y16818D1*
X27306Y16788D1*
X27319Y16758D1*
X27330Y16728D1*
X27341Y16698D1*
X27350Y16668D1*
X27356Y16638D1*
X27360Y16609D1*
X27365Y16579D1*
X27373Y16549D1*
X27381Y16519D1*
X27386Y16489D1*
X27388Y16459D1*
X27385Y16429D1*
X27379Y16399D1*
X27371Y16369D1*
X27366Y16339D1*
X27363Y16309D1*
X27361Y16279D1*
X27356Y16249D1*
X27349Y16220D1*
X27340Y16190D1*
X27331Y16160D1*
X27320Y16130D1*
X27306Y16100D1*
X27289Y16070D1*
X27270Y16040D1*
X27251Y16010D1*
X27230Y15980D1*
X27205Y15950D1*
X27174Y15920D1*
X27136Y15890D1*
X27090Y15861D1*
X27034Y15831D1*
X26972Y15801D1*
X26793Y16638D2*
X26763Y16609D1*
X26734Y16579D1*
X26709Y16549D1*
X26691Y16519D1*
X26681Y16489D1*
X26678Y16459D1*
X26679Y16429D1*
X26687Y16399D1*
X26700Y16369D1*
X26716Y16339D1*
X26761Y16309D1*
X26829Y16279D1*
X26912Y16249D1*
X26942Y16638D2*
X26948Y16609D1*
X26959Y16579D1*
X26974Y16549D1*
X26987Y16519D1*
X26995Y16489D1*
X26999Y16459D1*
X27000Y16429D1*
X26995Y16399D1*
X26986Y16369D1*
X26960Y16339D1*
X26915Y16309D1*
X26847Y16279D1*
X26763Y16249D1*
Y15501D2*
X26681Y15472D1*
X26616Y15442D1*
X26568Y15412D1*
X26529Y15382D1*
X26496Y15352D1*
X26465Y15322D1*
X26439Y15292D1*
X26417Y15262D1*
X26399Y15232D1*
X26382Y15202D1*
X26368Y15172D1*
X26355Y15142D1*
X26345Y15113D1*
X26334Y15083D1*
X26325Y15053D1*
X26319Y15023D1*
X26316Y14993D1*
X26315Y14963D1*
X26314Y14933D1*
Y14903D1*
Y14873D1*
Y14843D1*
Y14813D1*
Y14783D1*
Y14753D1*
Y14724D1*
X26315Y14694D1*
X26319Y14664D1*
X26326Y14634D1*
X26335Y14604D1*
X26344Y14574D1*
X26355Y14544D1*
X26369Y14514D1*
X26386Y14484D1*
X26405Y14454D1*
X26424Y14424D1*
X26445Y14394D1*
X26469Y14365D1*
X26497Y14335D1*
X26530Y14305D1*
X26572Y14275D1*
X26621Y14245D1*
X26676Y14215D1*
X26733Y14185D1*
X26942Y15501D2*
X27011Y15472D1*
X27070Y15442D1*
X27117Y15412D1*
X27155Y15382D1*
X27185Y15352D1*
X27212Y15322D1*
X27237Y15292D1*
X27258Y15262D1*
X27276Y15232D1*
X27293Y15202D1*
X27308Y15172D1*
X27323Y15142D1*
X27337Y15113D1*
X27348Y15083D1*
X27355Y15053D1*
X27360Y15023D1*
X27365Y14993D1*
X27373Y14963D1*
X27381Y14933D1*
X27386Y14903D1*
X27389Y14873D1*
X27390Y14843D1*
Y14813D1*
X27386Y14783D1*
X27379Y14753D1*
X27371Y14724D1*
X27366Y14694D1*
X27363Y14664D1*
X27361Y14634D1*
X26852Y15053D2*
X26800Y15023D1*
X26756Y14993D1*
X26725Y14963D1*
X26702Y14933D1*
X26688Y14903D1*
X26680Y14873D1*
X26677Y14843D1*
X26679Y14813D1*
X26687Y14783D1*
X26701Y14753D1*
X26720Y14724D1*
X26768Y14694D1*
X26834Y14664D1*
X26912Y14634D1*
X26823Y15053D2*
X26875Y15023D1*
X26919Y14993D1*
X26950Y14963D1*
X26973Y14933D1*
X26987Y14903D1*
X26995Y14873D1*
X26998Y14843D1*
X26996Y14813D1*
X26988Y14783D1*
X26974Y14753D1*
X26955Y14724D1*
X26907Y14694D1*
X26841Y14664D1*
X26763Y14634D1*
X27750D2*
X27779Y14604D1*
X27804Y14574D1*
X27821Y14544D1*
X27831Y14514D1*
X27836Y14484D1*
X27838Y14454D1*
X27839Y14424D1*
X27840Y14394D1*
X27839Y14365D1*
X27835Y14335D1*
X27826Y14305D1*
X27814Y14275D1*
X27796Y14245D1*
X27774Y14215D1*
X27750Y14185D1*
X26404Y13886D2*
X26385Y13856D1*
X26368Y13826D1*
X26352Y13796D1*
X26338Y13766D1*
X26327Y13736D1*
X26320Y13706D1*
X26316Y13676D1*
Y13646D1*
X26319Y13617D1*
X26327Y13587D1*
X26340Y13557D1*
X26359Y13527D1*
X26386Y13497D1*
X26422Y13467D1*
X26463Y13437D1*
X27750Y13886D2*
X27782Y13856D1*
X27807Y13826D1*
X27825Y13796D1*
X27837Y13766D1*
X27849Y13736D1*
X27858Y13706D1*
X27863Y13676D1*
X27862Y13646D1*
X27856Y13617D1*
X27844Y13587D1*
X27831Y13557D1*
X27815Y13527D1*
X27791Y13497D1*
X27759Y13467D1*
X27720Y13437D1*
X26733Y13198D2*
X26665Y13168D1*
X26609Y13138D1*
X26565Y13108D1*
X26528Y13078D1*
X26495Y13048D1*
X26465Y13018D1*
X26439Y12988D1*
X26417Y12958D1*
X26399Y12928D1*
X26382Y12898D1*
X26368Y12869D1*
X26355Y12839D1*
X26345Y12809D1*
X26334Y12779D1*
X26325Y12749D1*
X26319Y12719D1*
X26315Y12689D1*
X26310Y12659D1*
X26302Y12629D1*
X26294Y12599D1*
X26289Y12569D1*
X26286Y12539D1*
X26285Y12509D1*
X26284Y12480D1*
Y12450D1*
Y12420D1*
Y12390D1*
Y12360D1*
Y12330D1*
Y12300D1*
Y12270D1*
Y12240D1*
Y12210D1*
X26285Y12180D1*
X26289Y12150D1*
X26296Y12121D1*
X26304Y12091D1*
X26310Y12061D1*
X26318Y12031D1*
X26331Y12001D1*
X26352Y11971D1*
X26377Y11941D1*
X26404Y11911D1*
X26942Y13198D2*
X27010Y13168D1*
X27066Y13138D1*
X27110Y13108D1*
X27147Y13078D1*
X27180Y13048D1*
X27210Y13018D1*
X27236Y12988D1*
X27258Y12958D1*
X27276Y12928D1*
X27293Y12898D1*
X27307Y12869D1*
X27320Y12839D1*
X27330Y12809D1*
X27341Y12779D1*
X27350Y12749D1*
X27356Y12719D1*
X27360Y12689D1*
X27365Y12659D1*
X27373Y12629D1*
X27381Y12599D1*
X27385Y12569D1*
X27384Y12539D1*
X27378Y12509D1*
X27371Y12480D1*
X27366Y12450D1*
X27363Y12420D1*
X27361Y12390D1*
X27356Y12360D1*
X27349Y12330D1*
X27340Y12300D1*
X27331Y12270D1*
X27320Y12240D1*
X27307Y12210D1*
X27293Y12180D1*
X27277Y12150D1*
X27259Y12121D1*
X27236Y12091D1*
X27209Y12061D1*
X27179Y12031D1*
X27146Y12001D1*
X27109Y11971D1*
X27070Y11941D1*
X27032Y11911D1*
X26793Y12749D2*
X26763Y12719D1*
X26733Y12689D1*
X26752Y12659D1*
X26773Y12629D1*
X26798Y12599D1*
X26825Y12569D1*
X26852Y12539D1*
X26878Y12509D1*
X26900Y12480D1*
X26921Y12450D1*
X26942Y12420D1*
X26882Y12749D2*
X26911Y12719D1*
X26937Y12689D1*
X26959Y12659D1*
X26976Y12629D1*
X26989Y12599D1*
X26996Y12569D1*
X26998Y12539D1*
X26997Y12509D1*
X26982Y12480D1*
X26950Y12450D1*
X26912Y12420D1*
X26643Y12150D2*
Y12121D1*
Y12091D1*
X26642Y12061D1*
X26637Y12031D1*
X26625Y12001D1*
X26605Y11971D1*
X26580Y11941D1*
X26553Y11911D1*
X26703Y12150D2*
X26709Y12121D1*
X26721Y12091D1*
X26741Y12061D1*
X26766Y12031D1*
X26794Y12001D1*
X26823Y11971D1*
X26853Y11941D1*
X26882Y11911D1*
X24065Y31823D2*
D251*
X24051Y31852D1*
X24022Y31881D1*
X23994Y31895D1*
X23936D1*
X23908Y31881D1*
X23879Y31852D1*
X23865Y31823D1*
X23850Y31780D1*
Y31708D1*
X23865Y31666D1*
X23879Y31637D1*
X23908Y31608D1*
X23936Y31594D1*
X23994D1*
X24022Y31608D1*
X24051Y31637D1*
X24065Y31666D1*
X24158Y31837D2*
X24187Y31852D1*
X24230Y31895D1*
Y31594D1*
X24011Y37018D2*
X23997Y37047D1*
X23968Y37076D1*
X23939Y37090D1*
X23882D1*
X23853Y37076D1*
X23825Y37047D1*
X23810Y37018D1*
X23796Y36975D1*
Y36903D1*
X23810Y36861D1*
X23825Y36832D1*
X23853Y36803D1*
X23882Y36789D1*
X23939D1*
X23968Y36803D1*
X23997Y36832D1*
X24011Y36861D1*
X24118Y37018D2*
Y37032D1*
X24132Y37061D1*
X24147Y37075D1*
X24176Y37090D1*
X24233D1*
X24261Y37075D1*
X24276Y37061D1*
X24290Y37032D1*
Y37004D1*
X24276Y36975D1*
X24247Y36932D1*
X24104Y36789D1*
X24305D1*
X14600Y27912D2*
X14586Y27941D1*
X14557Y27970D1*
X14528Y27984D1*
X14471D1*
X14442Y27970D1*
X14413Y27941D1*
X14399Y27912D1*
X14385Y27869D1*
Y27797D1*
X14399Y27754D1*
X14413Y27725D1*
X14442Y27697D1*
X14471Y27682D1*
X14528D1*
X14557Y27697D1*
X14586Y27725D1*
X14600Y27754D1*
X14721Y27983D2*
X14879D1*
X14793Y27869D1*
X14836D1*
X14865Y27854D1*
X14879Y27840D1*
X14893Y27797D1*
Y27769D1*
X14879Y27725D1*
X14850Y27697D1*
X14807Y27682D1*
X14764D1*
X14721Y27697D1*
X14707Y27711D1*
X14692Y27740D1*
X11897Y18977D2*
X11883Y19005D1*
X11854Y19034D1*
X11825Y19048D1*
X11768D1*
X11739Y19034D1*
X11711Y19005D1*
X11696Y18977D1*
X11682Y18934D1*
Y18862D1*
X11696Y18819D1*
X11711Y18790D1*
X11739Y18762D1*
X11768Y18747D1*
X11825D1*
X11854Y18762D1*
X11883Y18790D1*
X11897Y18819D1*
X12133Y18747D2*
Y19048D1*
X11990Y18847D1*
X12205D1*
X10936Y37777D2*
X10922Y37806D1*
X10893Y37835D1*
X10864Y37849D1*
X10807D1*
X10778Y37835D1*
X10750Y37806D1*
X10735Y37777D1*
X10721Y37734D1*
Y37662D1*
X10735Y37620D1*
X10750Y37591D1*
X10778Y37562D1*
X10807Y37548D1*
X10864D1*
X10893Y37562D1*
X10922Y37591D1*
X10936Y37620D1*
X11201Y37849D2*
X11058D1*
X11043Y37720D1*
X11058Y37734D1*
X11101Y37749D1*
X11143D1*
X11187Y37734D1*
X11215Y37705D1*
X11230Y37662D1*
Y37634D1*
X11215Y37591D1*
X11187Y37562D1*
X11143Y37548D1*
X11101D1*
X11058Y37562D1*
X11043Y37576D1*
X11029Y37605D1*
X10432Y32595D2*
X10418Y32623D1*
X10389Y32652D1*
X10361Y32666D1*
X10303D1*
X10274Y32652D1*
X10246Y32623D1*
X10231Y32595D1*
X10217Y32552D1*
Y32480D1*
X10231Y32437D1*
X10246Y32408D1*
X10274Y32379D1*
X10303Y32365D1*
X10361D1*
X10389Y32379D1*
X10418Y32408D1*
X10432Y32437D1*
X10697Y32623D2*
X10683Y32652D1*
X10640Y32666D1*
X10611D1*
X10568Y32652D1*
X10539Y32609D1*
X10525Y32537D1*
Y32465D1*
X10539Y32408D1*
X10568Y32379D1*
X10611Y32365D1*
X10625D1*
X10668Y32379D1*
X10697Y32408D1*
X10711Y32451D1*
Y32465D1*
X10697Y32508D1*
X10668Y32537D1*
X10625Y32551D1*
X10611D1*
X10568Y32537D1*
X10539Y32508D1*
X10525Y32465D1*
X15897Y14025D2*
X15883Y14053D1*
X15854Y14082D1*
X15826Y14097D1*
X15768D1*
X15739Y14082D1*
X15711Y14053D1*
X15696Y14025D1*
X15682Y13982D1*
Y13910D1*
X15696Y13867D1*
X15711Y13838D1*
X15739Y13810D1*
X15768Y13795D1*
X15826D1*
X15854Y13810D1*
X15883Y13838D1*
X15897Y13867D1*
X16047Y13795D2*
X16191Y14096D1*
X15990D1*
X10415Y32015D2*
X10401Y32043D1*
X10372Y32072D1*
X10343Y32086D1*
X10286D1*
X10257Y32072D1*
X10229Y32043D1*
X10214Y32015D1*
X10200Y31972D1*
Y31900D1*
X10214Y31857D1*
X10229Y31828D1*
X10257Y31799D1*
X10286Y31785D1*
X10343D1*
X10372Y31799D1*
X10401Y31828D1*
X10415Y31857D1*
X10579Y32086D2*
X10537Y32072D1*
X10522Y32043D1*
Y32014D1*
X10537Y31986D1*
X10565Y31971D1*
X10622Y31957D1*
X10666Y31943D1*
X10694Y31914D1*
X10708Y31885D1*
Y31842D1*
X10694Y31814D1*
X10680Y31799D1*
X10637Y31785D1*
X10579D1*
X10537Y31799D1*
X10522Y31814D1*
X10508Y31842D1*
Y31885D1*
X10522Y31914D1*
X10551Y31943D1*
X10594Y31957D1*
X10651Y31971D1*
X10680Y31986D1*
X10694Y32014D1*
Y32043D1*
X10680Y32072D1*
X10637Y32086D1*
X10579D1*
X14752Y9090D2*
X14738Y9118D1*
X14709Y9147D1*
X14680Y9161D1*
X14623D1*
X14594Y9147D1*
X14566Y9118D1*
X14551Y9090D1*
X14537Y9047D1*
Y8975D1*
X14551Y8932D1*
X14566Y8903D1*
X14594Y8874D1*
X14623Y8860D1*
X14680D1*
X14709Y8874D1*
X14738Y8903D1*
X14752Y8932D1*
X15031Y9061D2*
X15017Y9018D1*
X14988Y8989D1*
X14945Y8975D1*
X14931D1*
X14888Y8989D1*
X14859Y9018D1*
X14845Y9061D1*
Y9075D1*
X14859Y9118D1*
X14888Y9147D1*
X14931Y9161D1*
X14945D1*
X14988Y9147D1*
X15017Y9118D1*
X15031Y9061D1*
Y8989D1*
X15017Y8917D1*
X14988Y8874D1*
X14945Y8860D1*
X14917D1*
X14874Y8874D1*
X14859Y8903D1*
X17168Y9015D2*
X17153Y9043D1*
X17125Y9072D1*
X17096Y9086D1*
X17039D1*
X17010Y9072D1*
X16981Y9043D1*
X16967Y9015D1*
X16952Y8972D1*
Y8900D1*
X16967Y8857D1*
X16981Y8828D1*
X17010Y8799D1*
X17039Y8785D1*
X17096D1*
X17125Y8799D1*
X17153Y8828D1*
X17168Y8857D1*
X17260Y9029D2*
X17289Y9043D1*
X17332Y9086D1*
Y8785D1*
X17511Y9086D2*
X17468Y9072D1*
X17439Y9029D1*
X17425Y8957D1*
Y8914D1*
X17439Y8842D1*
X17468Y8799D1*
X17511Y8785D1*
X17540D1*
X17583Y8799D1*
X17611Y8842D1*
X17626Y8914D1*
Y8957D1*
X17611Y9029D1*
X17583Y9072D1*
X17540Y9086D1*
X17511D1*
X17611Y9029D2*
X17439Y8842D1*
X8617Y19922D2*
X8603Y19951D1*
X8574Y19980D1*
X8545Y19994D1*
X8488D1*
X8459Y19980D1*
X8431Y19951D1*
X8416Y19922D1*
X8402Y19879D1*
Y19807D1*
X8416Y19764D1*
X8431Y19735D1*
X8459Y19707D1*
X8488Y19692D1*
X8545D1*
X8574Y19707D1*
X8603Y19735D1*
X8617Y19764D1*
X8710Y19936D2*
X8738Y19951D1*
X8782Y19993D1*
Y19692D1*
X8874Y19936D2*
X8903Y19951D1*
X8946Y19993D1*
Y19692D1*
X10343Y8692D2*
X10315Y8678D1*
X10286Y8649D1*
X10271Y8621D1*
Y8563D1*
X10286Y8535D1*
X10315Y8506D1*
X10343Y8492D1*
X10386Y8477D1*
X10458D1*
X10501Y8492D1*
X10530Y8506D1*
X10558Y8535D1*
X10573Y8563D1*
Y8621D1*
X10558Y8649D1*
X10530Y8678D1*
X10501Y8692D1*
X10329Y8785D2*
X10315Y8814D1*
X10272Y8857D1*
X10573D1*
X10343Y8964D2*
X10329D1*
X10300Y8979D1*
X10286Y8993D1*
X10272Y9022D1*
Y9079D1*
X10286Y9108D1*
X10300Y9122D1*
X10329Y9136D1*
X10358D1*
X10387Y9122D1*
X10429Y9093D1*
X10573Y8950D1*
Y9151D1*
X14313Y19280D2*
X14298Y19308D1*
X14270Y19337D1*
X14241Y19351D1*
X14184D1*
X14155Y19337D1*
X14126Y19308D1*
X14112Y19280D1*
X14097Y19237D1*
Y19165D1*
X14112Y19122D1*
X14126Y19093D1*
X14155Y19064D1*
X14184Y19050D1*
X14241D1*
X14270Y19064D1*
X14298Y19093D1*
X14313Y19122D1*
X14405Y19294D2*
X14434Y19308D1*
X14477Y19351D1*
Y19050D1*
X14599Y19351D2*
X14756D1*
X14670Y19236D1*
X14713D1*
X14742Y19222D1*
X14756Y19208D1*
X14771Y19165D1*
Y19136D1*
X14756Y19093D1*
X14728Y19064D1*
X14685Y19050D1*
X14641D1*
X14599Y19064D1*
X14584Y19079D1*
X14570Y19107D1*
X19068Y27815D2*
X19053Y27843D1*
X19024Y27872D1*
X18996Y27886D1*
X18939D1*
X18910Y27872D1*
X18881Y27843D1*
X18867Y27815D1*
X18852Y27772D1*
Y27700D1*
X18867Y27657D1*
X18881Y27628D1*
X18910Y27599D1*
X18939Y27585D1*
X18996D1*
X19024Y27599D1*
X19053Y27628D1*
X19068Y27657D1*
X19160Y27829D2*
X19189Y27843D1*
X19232Y27886D1*
Y27585D1*
X19468D2*
Y27886D1*
X19325Y27685D1*
X19540D1*
X10303Y31485D2*
X10288Y31513D1*
X10260Y31542D1*
X10231Y31556D1*
X10174D1*
X10145Y31542D1*
X10116Y31513D1*
X10102Y31485D1*
X10087Y31442D1*
Y31370D1*
X10102Y31327D1*
X10116Y31298D1*
X10145Y31269D1*
X10174Y31255D1*
X10231D1*
X10260Y31269D1*
X10288Y31298D1*
X10303Y31327D1*
X10395Y31499D2*
X10424Y31513D1*
X10467Y31556D1*
Y31255D1*
X10732Y31556D2*
X10589D1*
X10574Y31427D1*
X10589Y31441D1*
X10632Y31456D1*
X10675D1*
X10718Y31441D1*
X10747Y31413D1*
X10761Y31370D1*
Y31341D1*
X10747Y31298D1*
X10718Y31269D1*
X10675Y31255D1*
X10632D1*
X10589Y31269D1*
X10574Y31284D1*
X10560Y31312D1*
X15167Y34312D2*
X15153Y34341D1*
X15124Y34370D1*
X15096Y34384D1*
X15038D1*
X15009Y34370D1*
X14981Y34341D1*
X14966Y34312D1*
X14952Y34269D1*
Y34197D1*
X14966Y34154D1*
X14981Y34125D1*
X15009Y34097D1*
X15038Y34082D1*
X15096D1*
X15124Y34097D1*
X15153Y34125D1*
X15167Y34154D1*
X15260Y34326D2*
X15289Y34341D1*
X15332Y34383D1*
Y34082D1*
X15596Y34341D2*
X15582Y34369D1*
X15539Y34383D1*
X15511D1*
X15467Y34369D1*
X15439Y34326D1*
X15424Y34254D1*
Y34183D1*
X15439Y34125D1*
X15467Y34097D1*
X15511Y34082D1*
X15525D1*
X15568Y34097D1*
X15596Y34125D1*
X15611Y34169D1*
Y34183D1*
X15596Y34226D1*
X15568Y34254D1*
X15525Y34269D1*
X15511D1*
X15467Y34254D1*
X15439Y34226D1*
X15424Y34183D1*
X25393Y29417D2*
X25365Y29403D1*
X25336Y29374D1*
X25321Y29346D1*
Y29288D1*
X25336Y29260D1*
X25365Y29231D1*
X25393Y29217D1*
X25436Y29202D1*
X25508D1*
X25551Y29217D1*
X25580Y29231D1*
X25608Y29260D1*
X25623Y29288D1*
Y29346D1*
X25608Y29374D1*
X25580Y29403D1*
X25551Y29417D1*
X25379Y29510D2*
X25365Y29539D1*
X25322Y29582D1*
X25623D1*
Y29732D2*
X25322Y29876D1*
Y29675D1*
X13181Y28500D2*
X13152Y28486D1*
X13123Y28457D1*
X13109Y28429D1*
Y28371D1*
X13123Y28342D1*
X13152Y28314D1*
X13181Y28299D1*
X13224Y28285D1*
X13296D1*
X13339Y28299D1*
X13368Y28314D1*
X13396Y28342D1*
X13411Y28371D1*
Y28429D1*
X13396Y28457D1*
X13368Y28486D1*
X13339Y28500D1*
X13167Y28593D2*
X13152Y28622D1*
X13110Y28665D1*
X13411D1*
X13110Y28829D2*
X13124Y28786D1*
X13152Y28772D1*
X13181D1*
X13210Y28786D1*
X13224Y28815D1*
X13239Y28872D1*
X13253Y28915D1*
X13282Y28944D1*
X13310Y28958D1*
X13353D1*
X13382Y28944D1*
X13396Y28929D1*
X13411Y28886D1*
Y28829D1*
X13396Y28786D1*
X13382Y28772D1*
X13353Y28757D1*
X13310D1*
X13282Y28772D1*
X13253Y28800D1*
X13239Y28843D1*
X13224Y28901D1*
X13210Y28929D1*
X13181Y28944D1*
X13152D1*
X13124Y28929D1*
X13110Y28886D1*
Y28829D1*
X13800Y32845D2*
X13785Y32873D1*
X13757Y32902D1*
X13728Y32916D1*
X13671D1*
X13642Y32902D1*
X13613Y32873D1*
X13599Y32845D1*
X13585Y32802D1*
Y32730D1*
X13599Y32687D1*
X13613Y32658D1*
X13642Y32629D1*
X13671Y32615D1*
X13728D1*
X13757Y32629D1*
X13785Y32658D1*
X13800Y32687D1*
X13892Y32859D2*
X13921Y32873D1*
X13964Y32916D1*
Y32615D1*
X14244Y32816D2*
X14229Y32773D1*
X14201Y32744D1*
X14157Y32730D1*
X14143D1*
X14100Y32744D1*
X14072Y32773D1*
X14057Y32816D1*
Y32830D1*
X14072Y32873D1*
X14100Y32902D1*
X14143Y32916D1*
X14157D1*
X14201Y32902D1*
X14229Y32873D1*
X14244Y32816D1*
Y32744D1*
X14229Y32672D1*
X14201Y32629D1*
X14157Y32615D1*
X14129D1*
X14086Y32629D1*
X14072Y32658D1*
X16790Y29983D2*
X16762Y29969D1*
X16733Y29940D1*
X16719Y29911D1*
Y29854D1*
X16733Y29825D1*
X16762Y29797D1*
X16790Y29782D1*
X16833Y29768D1*
X16905D1*
X16948Y29782D1*
X16977Y29797D1*
X17006Y29825D1*
X17020Y29854D1*
Y29911D1*
X17006Y29940D1*
X16977Y29969D1*
X16948Y29983D1*
X16791Y30090D2*
X16776D1*
X16748Y30104D1*
X16733Y30119D1*
X16719Y30147D1*
Y30205D1*
X16733Y30233D1*
X16748Y30248D1*
X16776Y30262D1*
X16805D1*
X16834Y30248D1*
X16877Y30219D1*
X17020Y30076D1*
Y30276D1*
X16719Y30455D2*
X16733Y30412D1*
X16776Y30383D1*
X16848Y30369D1*
X16891D1*
X16963Y30383D1*
X17006Y30412D1*
X17020Y30455D1*
Y30484D1*
X17006Y30527D1*
X16963Y30555D1*
X16891Y30570D1*
X16848D1*
X16776Y30555D1*
X16733Y30527D1*
X16719Y30484D1*
Y30455D1*
X16776Y30555D2*
X16963Y30383D1*
X15037Y29232D2*
X15023Y29261D1*
X14994Y29290D1*
X14966Y29304D1*
X14908D1*
X14880Y29290D1*
X14851Y29261D1*
X14837Y29232D1*
X14822Y29189D1*
Y29117D1*
X14837Y29074D1*
X14851Y29045D1*
X14880Y29017D1*
X14908Y29002D1*
X14966D1*
X14994Y29017D1*
X15023Y29045D1*
X15037Y29074D1*
X15145Y29232D2*
Y29246D1*
X15159Y29275D1*
X15173Y29289D1*
X15202Y29303D1*
X15259D1*
X15288Y29289D1*
X15302Y29275D1*
X15317Y29246D1*
Y29218D1*
X15302Y29189D1*
X15274Y29146D1*
X15130Y29002D1*
X15331D1*
X15424Y29246D2*
X15453Y29261D1*
X15496Y29303D1*
Y29002D1*
X25818Y36093D2*
X25790Y36079D1*
X25761Y36050D1*
X25746Y36021D1*
Y35964D1*
X25761Y35935D1*
X25790Y35907D1*
X25818Y35892D1*
X25861Y35878D1*
X25933D1*
X25976Y35892D1*
X26005Y35907D1*
X26033Y35935D1*
X26048Y35964D1*
Y36021D1*
X26033Y36050D1*
X26005Y36079D1*
X25976Y36093D1*
X25818Y36200D2*
X25804D1*
X25775Y36214D1*
X25761Y36229D1*
X25747Y36258D1*
Y36315D1*
X25761Y36343D1*
X25775Y36358D1*
X25804Y36372D1*
X25833D1*
X25862Y36358D1*
X25904Y36329D1*
X26048Y36186D1*
Y36387D1*
X25818Y36494D2*
X25804D1*
X25775Y36508D1*
X25761Y36522D1*
X25747Y36551D1*
Y36609D1*
X25761Y36637D1*
X25775Y36651D1*
X25804Y36666D1*
X25833D1*
X25862Y36651D1*
X25904Y36623D1*
X26048Y36479D1*
Y36680D1*
X13268Y33610D2*
X13239Y33596D1*
X13211Y33567D1*
X13196Y33539D1*
Y33481D1*
X13211Y33452D1*
X13239Y33424D1*
X13268Y33409D1*
X13311Y33395D1*
X13383D1*
X13426Y33409D1*
X13455Y33424D1*
X13483Y33452D1*
X13498Y33481D1*
Y33539D1*
X13483Y33567D1*
X13455Y33596D1*
X13426Y33610D1*
X13268Y33717D2*
X13254D1*
X13225Y33732D1*
X13211Y33746D1*
X13197Y33775D1*
Y33832D1*
X13211Y33861D1*
X13225Y33875D1*
X13254Y33890D1*
X13283D1*
X13311Y33875D1*
X13354Y33846D1*
X13498Y33703D1*
Y33904D1*
X13197Y34025D2*
Y34183D1*
X13311Y34097D1*
Y34140D1*
X13326Y34169D1*
X13340Y34183D1*
X13383Y34197D1*
X13412D1*
X13455Y34183D1*
X13484Y34154D1*
X13498Y34111D1*
Y34068D1*
X13484Y34025D1*
X13469Y34011D1*
X13440Y33996D1*
X14181Y37965D2*
X14167Y37993D1*
X14138Y38022D1*
X14109Y38036D1*
X14052D1*
X14023Y38022D1*
X13995Y37993D1*
X13980Y37965D1*
X13966Y37922D1*
Y37850D1*
X13980Y37807D1*
X13995Y37778D1*
X14023Y37749D1*
X14052Y37735D1*
X14109D1*
X14138Y37749D1*
X14167Y37778D1*
X14181Y37807D1*
X14288Y37964D2*
Y37979D1*
X14302Y38007D1*
X14317Y38022D1*
X14346Y38036D1*
X14403D1*
X14431Y38022D1*
X14446Y38007D1*
X14460Y37979D1*
Y37950D1*
X14446Y37921D1*
X14417Y37878D1*
X14274Y37735D1*
X14475D1*
X14711D2*
Y38036D1*
X14567Y37835D1*
X14782D1*
X17048Y35018D2*
X17019Y35004D1*
X16991Y34975D1*
X16976Y34946D1*
Y34889D1*
X16991Y34860D1*
X17019Y34832D1*
X17048Y34817D1*
X17091Y34803D1*
X17163D1*
X17206Y34817D1*
X17235Y34832D1*
X17263Y34860D1*
X17278Y34889D1*
Y34946D1*
X17263Y34975D1*
X17235Y35004D1*
X17206Y35018D1*
X17048Y35125D2*
X17034D1*
X17005Y35140D1*
X16991Y35154D1*
X16977Y35183D1*
Y35240D1*
X16991Y35269D1*
X17005Y35283D1*
X17034Y35297D1*
X17063D1*
X17091Y35283D1*
X17134Y35254D1*
X17278Y35111D1*
Y35312D1*
X16977Y35576D2*
Y35433D1*
X17106Y35419D1*
X17091Y35433D1*
X17077Y35476D1*
Y35519D1*
X17091Y35562D1*
X17120Y35591D1*
X17163Y35605D1*
X17192D1*
X17235Y35591D1*
X17264Y35562D1*
X17278Y35519D1*
Y35476D1*
X17264Y35433D1*
X17249Y35419D1*
X17220Y35404D1*
X12676Y8748D2*
X12647Y8733D1*
X12618Y8704D1*
X12604Y8676D1*
Y8619D1*
X12618Y8590D1*
X12647Y8561D1*
X12676Y8547D1*
X12719Y8532D1*
X12791D1*
X12833Y8547D1*
X12862Y8561D1*
X12891Y8590D1*
X12905Y8619D1*
Y8676D1*
X12891Y8704D1*
X12862Y8733D1*
X12833Y8748D1*
X12676Y8855D2*
X12662D1*
X12633Y8869D1*
X12619Y8883D1*
X12604Y8912D1*
Y8970D1*
X12619Y8998D1*
X12633Y9012D1*
X12662Y9027D1*
X12690D1*
X12719Y9012D1*
X12762Y8984D1*
X12905Y8840D1*
Y9041D1*
X12647Y9306D2*
X12619Y9292D1*
X12604Y9249D1*
Y9220D1*
X12619Y9177D1*
X12662Y9148D1*
X12733Y9134D1*
X12805D1*
X12862Y9148D1*
X12891Y9177D1*
X12905Y9220D1*
Y9234D1*
X12891Y9277D1*
X12862Y9306D1*
X12819Y9320D1*
X12805D1*
X12762Y9306D1*
X12733Y9277D1*
X12719Y9234D1*
Y9220D1*
X12733Y9177D1*
X12762Y9148D1*
X12805Y9134D1*
X11701Y8815D2*
X11672Y8801D1*
X11643Y8772D1*
X11629Y8744D1*
Y8686D1*
X11643Y8657D1*
X11672Y8629D1*
X11701Y8614D1*
X11744Y8600D1*
X11816D1*
X11858Y8614D1*
X11887Y8629D1*
X11916Y8657D1*
X11930Y8686D1*
Y8744D1*
X11916Y8772D1*
X11887Y8801D1*
X11858Y8815D1*
X11701Y8922D2*
X11687D1*
X11658Y8937D1*
X11644Y8951D1*
X11629Y8980D1*
Y9037D1*
X11644Y9066D1*
X11658Y9080D1*
X11687Y9095D1*
X11715D1*
X11744Y9080D1*
X11787Y9051D1*
X11930Y8908D1*
Y9109D1*
Y9259D2*
X11629Y9402D1*
Y9201D1*
X16248Y11280D2*
X16234Y11308D1*
X16205Y11337D1*
X16177Y11351D1*
X16119D1*
X16090Y11337D1*
X16062Y11308D1*
X16047Y11280D1*
X16033Y11237D1*
Y11165D1*
X16047Y11122D1*
X16062Y11093D1*
X16090Y11064D1*
X16119Y11050D1*
X16177D1*
X16205Y11064D1*
X16234Y11093D1*
X16248Y11122D1*
X16355Y11279D2*
Y11294D1*
X16370Y11322D1*
X16384Y11337D1*
X16413Y11351D1*
X16470D1*
X16499Y11337D1*
X16513Y11322D1*
X16528Y11294D1*
Y11265D1*
X16513Y11236D1*
X16484Y11193D1*
X16341Y11050D1*
X16542D1*
X16706Y11351D2*
X16663Y11337D1*
X16649Y11308D1*
Y11279D1*
X16663Y11251D1*
X16692Y11236D1*
X16749Y11222D1*
X16792Y11208D1*
X16821Y11179D1*
X16835Y11150D1*
Y11107D1*
X16821Y11079D1*
X16807Y11064D1*
X16763Y11050D1*
X16706D1*
X16663Y11064D1*
X16649Y11079D1*
X16634Y11107D1*
Y11150D1*
X16649Y11179D1*
X16678Y11208D1*
X16720Y11222D1*
X16778Y11236D1*
X16807Y11251D1*
X16821Y11279D1*
Y11308D1*
X16807Y11337D1*
X16763Y11351D1*
X16706D1*
X18776Y17823D2*
X18747Y17809D1*
X18718Y17780D1*
X18704Y17751D1*
Y17694D1*
X18718Y17665D1*
X18747Y17637D1*
X18776Y17622D1*
X18819Y17608D1*
X18891D1*
X18933Y17622D1*
X18962Y17637D1*
X18991Y17665D1*
X19005Y17694D1*
Y17751D1*
X18991Y17780D1*
X18962Y17809D1*
X18933Y17823D1*
X18704Y17945D2*
Y18102D1*
X18819Y18016D1*
Y18059D1*
X18833Y18088D1*
X18848Y18102D1*
X18891Y18117D1*
X18919D1*
X18962Y18102D1*
X18991Y18074D1*
X19005Y18030D1*
Y17987D1*
X18991Y17945D1*
X18977Y17930D1*
X18948Y17916D1*
X18776Y18224D2*
X18762D1*
X18733Y18238D1*
X18719Y18252D1*
X18704Y18281D1*
Y18339D1*
X18719Y18367D1*
X18733Y18381D1*
X18762Y18396D1*
X18790D1*
X18819Y18381D1*
X18862Y18353D1*
X19005Y18209D1*
Y18410D1*
X8478Y18807D2*
X8464Y18836D1*
X8435Y18865D1*
X8406Y18879D1*
X8349D1*
X8320Y18865D1*
X8292Y18836D1*
X8277Y18807D1*
X8263Y18764D1*
Y18692D1*
X8277Y18649D1*
X8292Y18620D1*
X8320Y18592D1*
X8349Y18577D1*
X8406D1*
X8435Y18592D1*
X8464Y18620D1*
X8478Y18649D1*
X8599Y18878D2*
X8757D1*
X8671Y18764D1*
X8714D1*
X8743Y18749D1*
X8757Y18735D1*
X8772Y18692D1*
Y18664D1*
X8757Y18620D1*
X8728Y18592D1*
X8685Y18577D1*
X8642D1*
X8599Y18592D1*
X8585Y18606D1*
X8571Y18635D1*
X8893Y18878D2*
X9051D1*
X8965Y18764D1*
X9008D1*
X9036Y18749D1*
X9051Y18735D1*
X9065Y18692D1*
Y18664D1*
X9051Y18620D1*
X9022Y18592D1*
X8979Y18577D1*
X8936D1*
X8893Y18592D1*
X8879Y18606D1*
X8864Y18635D1*
X12901Y26678D2*
X12872Y26664D1*
X12843Y26635D1*
X12829Y26606D1*
Y26549D1*
X12843Y26520D1*
X12872Y26492D1*
X12901Y26477D1*
X12944Y26463D1*
X13016D1*
X13058Y26477D1*
X13087Y26492D1*
X13116Y26520D1*
X13130Y26549D1*
Y26606D1*
X13116Y26635D1*
X13087Y26664D1*
X13058Y26678D1*
X12829Y26800D2*
Y26957D1*
X12944Y26871D1*
Y26914D1*
X12958Y26943D1*
X12973Y26957D1*
X13016Y26972D1*
X13044D1*
X13087Y26957D1*
X13116Y26929D1*
X13130Y26885D1*
Y26842D1*
X13116Y26800D1*
X13102Y26785D1*
X13073Y26771D1*
X13130Y27208D2*
X12829D1*
X13030Y27064D1*
Y27280D1*
X17638Y27795D2*
X17624Y27823D1*
X17595Y27852D1*
X17566Y27866D1*
X17509D1*
X17480Y27852D1*
X17452Y27823D1*
X17437Y27795D1*
X17423Y27752D1*
Y27680D1*
X17437Y27637D1*
X17452Y27608D1*
X17480Y27579D1*
X17509Y27565D1*
X17566D1*
X17595Y27579D1*
X17624Y27608D1*
X17638Y27637D1*
X17760Y27866D2*
X17917D1*
X17831Y27751D1*
X17874D1*
X17903Y27737D1*
X17917Y27723D1*
X17932Y27680D1*
Y27651D1*
X17917Y27608D1*
X17889Y27579D1*
X17845Y27565D1*
X17802D1*
X17760Y27579D1*
X17745Y27594D1*
X17731Y27622D1*
X18196Y27866D2*
X18053D1*
X18039Y27737D1*
X18053Y27751D1*
X18096Y27766D1*
X18139D1*
X18182Y27751D1*
X18211Y27723D1*
X18225Y27680D1*
Y27651D1*
X18211Y27608D1*
X18182Y27579D1*
X18139Y27565D1*
X18096D1*
X18053Y27579D1*
X18039Y27594D1*
X18024Y27622D1*
X14601Y17755D2*
X14572Y17741D1*
X14543Y17712D1*
X14529Y17684D1*
Y17626D1*
X14543Y17598D1*
X14572Y17569D1*
X14601Y17554D1*
X14644Y17540D1*
X14716D1*
X14758Y17554D1*
X14787Y17569D1*
X14816Y17598D1*
X14830Y17626D1*
Y17684D1*
X14816Y17712D1*
X14787Y17741D1*
X14758Y17755D1*
X14529Y17877D2*
Y18034D1*
X14644Y17949D1*
Y17992D1*
X14658Y18020D1*
X14673Y18034D1*
X14716Y18049D1*
X14744D1*
X14787Y18034D1*
X14816Y18006D1*
X14830Y17963D1*
Y17920D1*
X14816Y17877D1*
X14802Y17863D1*
X14773Y17848D1*
X14572Y18314D2*
X14544Y18299D1*
X14529Y18256D1*
Y18228D1*
X14544Y18185D1*
X14587Y18156D1*
X14658Y18142D1*
X14730D1*
X14787Y18156D1*
X14816Y18185D1*
X14830Y18228D1*
Y18242D1*
X14816Y18285D1*
X14787Y18314D1*
X14744Y18328D1*
X14730D1*
X14687Y18314D1*
X14658Y18285D1*
X14644Y18242D1*
Y18228D1*
X14658Y18185D1*
X14687Y18156D1*
X14730Y18142D1*
X9918Y21665D2*
X9904Y21693D1*
X9875Y21722D1*
X9846Y21736D1*
X9789D1*
X9760Y21722D1*
X9732Y21693D1*
X9717Y21665D1*
X9703Y21622D1*
Y21550D1*
X9717Y21507D1*
X9732Y21478D1*
X9760Y21449D1*
X9789Y21435D1*
X9846D1*
X9875Y21449D1*
X9904Y21478D1*
X9918Y21507D1*
X10040Y21736D2*
X10197D1*
X10111Y21621D1*
X10154D1*
X10183Y21607D1*
X10197Y21593D1*
X10212Y21550D1*
Y21521D1*
X10197Y21478D1*
X10169Y21449D1*
X10125Y21435D1*
X10082D1*
X10040Y21449D1*
X10025Y21464D1*
X10011Y21492D1*
X10362Y21435D2*
X10505Y21736D1*
X10304D1*
X32017Y34581D2*
X32003Y34609D1*
X31974Y34638D1*
X31945Y34653D1*
X31888D1*
X31859Y34638D1*
X31831Y34609D1*
X31816Y34581D1*
X31802Y34538D1*
Y34466D1*
X31816Y34423D1*
X31831Y34394D1*
X31859Y34366D1*
X31888Y34351D1*
X31945D1*
X31974Y34366D1*
X32003Y34394D1*
X32017Y34423D1*
X32253Y34351D2*
Y34652D1*
X32110Y34452D1*
X32325D1*
X32504Y34652D2*
X32461Y34638D1*
X32432Y34595D1*
X32418Y34523D1*
Y34480D1*
X32432Y34409D1*
X32461Y34365D1*
X32504Y34351D1*
X32532D1*
X32575Y34365D1*
X32604Y34409D1*
X32618Y34480D1*
Y34523D1*
X32604Y34595D1*
X32575Y34638D1*
X32532Y34652D1*
X32504D1*
X32604Y34595D2*
X32432Y34409D1*
X32605Y39205D2*
X32591Y39233D1*
X32562Y39262D1*
X32534Y39276D1*
X32476D1*
X32448Y39262D1*
X32419Y39233D1*
X32405Y39205D1*
X32390Y39162D1*
Y39090D1*
X32405Y39047D1*
X32419Y39018D1*
X32448Y38990D1*
X32476Y38975D1*
X32534D1*
X32562Y38990D1*
X32591Y39018D1*
X32605Y39047D1*
X32842Y38975D2*
Y39276D1*
X32698Y39075D1*
X32913D1*
X33006Y39219D2*
X33035Y39233D1*
X33078Y39276D1*
Y38975D1*
X34296Y38701D2*
X34267Y38687D1*
X34238Y38658D1*
X34224Y38629D1*
Y38572D1*
X34238Y38543D1*
X34267Y38515D1*
X34296Y38500D1*
X34339Y38486D1*
X34411D1*
X34453Y38500D1*
X34482Y38515D1*
X34511Y38543D1*
X34525Y38572D1*
Y38629D1*
X34511Y38658D1*
X34482Y38687D1*
X34453Y38701D1*
X34525Y38937D2*
X34224D1*
X34425Y38794D1*
Y39009D1*
X34296Y39116D2*
X34282D1*
X34253Y39130D1*
X34239Y39145D1*
X34224Y39173D1*
Y39231D1*
X34239Y39259D1*
X34253Y39274D1*
X34282Y39288D1*
X34310D1*
X34339Y39274D1*
X34382Y39245D1*
X34525Y39101D1*
Y39302D1*
X31151Y38055D2*
X31137Y38083D1*
X31108Y38112D1*
X31079Y38126D1*
X31022D1*
X30993Y38112D1*
X30965Y38083D1*
X30950Y38055D1*
X30936Y38012D1*
Y37940D1*
X30950Y37897D1*
X30965Y37868D1*
X30993Y37840D1*
X31022Y37825D1*
X31079D1*
X31108Y37840D1*
X31137Y37868D1*
X31151Y37897D1*
X31387Y37825D2*
Y38126D1*
X31244Y37925D1*
X31459D1*
X31580Y38126D2*
X31738D1*
X31652Y38011D1*
X31695D1*
X31724Y37997D1*
X31738Y37983D1*
X31752Y37940D1*
Y37911D1*
X31738Y37868D1*
X31709Y37839D1*
X31666Y37825D1*
X31623D1*
X31580Y37839D1*
X31566Y37854D1*
X31551Y37882D1*
X30970Y38871D2*
X30956Y38899D1*
X30927Y38928D1*
X30898Y38943D1*
X30841D1*
X30812Y38928D1*
X30784Y38899D1*
X30769Y38871D1*
X30755Y38828D1*
Y38756D1*
X30769Y38713D1*
X30784Y38684D1*
X30812Y38656D1*
X30841Y38641D1*
X30898D1*
X30927Y38656D1*
X30956Y38684D1*
X30970Y38713D1*
X31206Y38641D2*
Y38942D1*
X31063Y38742D1*
X31278D1*
X31514Y38641D2*
Y38942D1*
X31370Y38742D1*
X31586D1*
X34022Y35127D2*
X34008Y35156D1*
X33979Y35185D1*
X33951Y35199D1*
X33893D1*
X33864Y35185D1*
X33836Y35156D1*
X33821Y35127D1*
X33807Y35084D1*
Y35012D1*
X33821Y34970D1*
X33836Y34941D1*
X33864Y34912D1*
X33893Y34898D1*
X33951D1*
X33979Y34912D1*
X34008Y34941D1*
X34022Y34970D1*
X34258Y34898D2*
Y35199D1*
X34115Y34998D1*
X34330D1*
X34595Y35199D2*
X34452D1*
X34437Y35070D1*
X34452Y35084D1*
X34495Y35099D1*
X34537D1*
X34581Y35084D1*
X34609Y35055D1*
X34624Y35012D1*
Y34984D1*
X34609Y34941D1*
X34581Y34912D1*
X34537Y34898D1*
X34495D1*
X34452Y34912D1*
X34437Y34926D1*
X34423Y34955D1*
X32024Y26521D2*
X32010Y26549D1*
X31981Y26578D1*
X31953Y26593D1*
X31895D1*
X31866Y26578D1*
X31838Y26549D1*
X31823Y26521D1*
X31809Y26478D1*
Y26406D1*
X31823Y26363D1*
X31838Y26334D1*
X31866Y26306D1*
X31895Y26291D1*
X31953D1*
X31981Y26306D1*
X32010Y26334D1*
X32024Y26363D1*
X32261Y26291D2*
Y26592D1*
X32117Y26392D1*
X32332D1*
X32597Y26549D2*
X32583Y26578D1*
X32540Y26592D1*
X32511D1*
X32468Y26578D1*
X32439Y26535D1*
X32425Y26463D1*
Y26392D1*
X32439Y26334D1*
X32468Y26305D1*
X32511Y26291D1*
X32525D1*
X32568Y26305D1*
X32597Y26334D1*
X32611Y26377D1*
Y26392D1*
X32597Y26435D1*
X32568Y26463D1*
X32525Y26478D1*
X32511D1*
X32468Y26463D1*
X32439Y26435D1*
X32425Y26392D1*
X32541Y31145D2*
X32527Y31173D1*
X32498Y31202D1*
X32469Y31216D1*
X32412D1*
X32383Y31202D1*
X32355Y31173D1*
X32340Y31145D1*
X32326Y31102D1*
Y31030D1*
X32340Y30987D1*
X32355Y30958D1*
X32383Y30929D1*
X32412Y30915D1*
X32469D1*
X32498Y30929D1*
X32527Y30958D1*
X32541Y30987D1*
X32777Y30915D2*
Y31216D1*
X32634Y31015D1*
X32849D1*
X32999Y30915D2*
X33142Y31216D1*
X32941D1*
X34216Y30631D2*
X34187Y30617D1*
X34158Y30588D1*
X34144Y30560D1*
Y30502D1*
X34158Y30473D1*
X34187Y30445D1*
X34216Y30430D1*
X34259Y30416D1*
X34331D1*
X34373Y30430D1*
X34402Y30445D1*
X34431Y30473D1*
X34445Y30502D1*
Y30560D1*
X34431Y30588D1*
X34402Y30617D1*
X34373Y30631D1*
X34445Y30867D2*
X34144D1*
X34345Y30724D1*
Y30939D1*
X34144Y31103D2*
X34159Y31060D1*
X34187Y31046D1*
X34216D1*
X34244Y31060D1*
X34259Y31089D1*
X34273Y31146D1*
X34288Y31189D1*
X34316Y31218D1*
X34345Y31232D1*
X34388D1*
X34417Y31218D1*
X34431Y31204D1*
X34445Y31161D1*
Y31103D1*
X34431Y31060D1*
X34417Y31046D1*
X34388Y31032D1*
X34345D1*
X34316Y31046D1*
X34288Y31075D1*
X34273Y31118D1*
X34259Y31175D1*
X34244Y31204D1*
X34216Y31218D1*
X34187D1*
X34159Y31204D1*
X34144Y31161D1*
Y31103D1*
X31158Y29995D2*
X31144Y30023D1*
X31115Y30052D1*
X31086Y30066D1*
X31029D1*
X31000Y30052D1*
X30972Y30023D1*
X30957Y29995D1*
X30943Y29952D1*
Y29880D1*
X30957Y29837D1*
X30972Y29808D1*
X31000Y29779D1*
X31029Y29765D1*
X31086D1*
X31115Y29779D1*
X31144Y29808D1*
X31158Y29837D1*
X31394Y29765D2*
Y30066D1*
X31251Y29865D1*
X31466D1*
X31745Y29966D2*
X31731Y29923D1*
X31702Y29894D1*
X31659Y29880D1*
X31645D1*
X31602Y29894D1*
X31573Y29923D1*
X31559Y29966D1*
Y29980D1*
X31573Y30023D1*
X31602Y30052D1*
X31645Y30066D1*
X31659D1*
X31702Y30052D1*
X31731Y30023D1*
X31745Y29966D1*
Y29894D1*
X31731Y29822D1*
X31702Y29779D1*
X31659Y29765D1*
X31631D1*
X31587Y29779D1*
X31573Y29808D1*
X30954Y30831D2*
X30940Y30859D1*
X30911Y30888D1*
X30883Y30903D1*
X30825D1*
X30796Y30888D1*
X30768Y30859D1*
X30753Y30831D1*
X30739Y30788D1*
Y30716D1*
X30753Y30673D1*
X30768Y30644D1*
X30796Y30616D1*
X30825Y30601D1*
X30883D1*
X30911Y30616D1*
X30940Y30644D1*
X30954Y30673D1*
X31219Y30902D2*
X31076D1*
X31061Y30773D1*
X31076Y30788D1*
X31119Y30802D1*
X31162D1*
X31205Y30788D1*
X31234Y30759D1*
X31248Y30716D1*
Y30687D1*
X31234Y30644D1*
X31205Y30615D1*
X31162Y30601D1*
X31119D1*
X31076Y30615D1*
X31061Y30630D1*
X31047Y30659D1*
X31427Y30902D2*
X31384Y30888D1*
X31355Y30845D1*
X31340Y30773D1*
Y30730D1*
X31355Y30659D1*
X31384Y30615D1*
X31427Y30601D1*
X31455D1*
X31498Y30615D1*
X31527Y30659D1*
X31541Y30730D1*
Y30773D1*
X31527Y30845D1*
X31498Y30888D1*
X31455Y30902D1*
X31427D1*
X31527Y30845D2*
X31355Y30659D1*
X34094Y27067D2*
X34080Y27096D1*
X34051Y27125D1*
X34022Y27139D1*
X33965D1*
X33936Y27125D1*
X33907Y27096D1*
X33893Y27067D1*
X33879Y27024D1*
Y26952D1*
X33893Y26910D1*
X33907Y26881D1*
X33936Y26852D1*
X33965Y26838D1*
X34022D1*
X34051Y26852D1*
X34080Y26881D1*
X34094Y26910D1*
X34359Y27139D2*
X34215D1*
X34201Y27010D1*
X34215Y27024D1*
X34258Y27039D1*
X34301D1*
X34344Y27024D1*
X34373Y26995D1*
X34387Y26952D1*
Y26924D1*
X34373Y26881D1*
X34344Y26852D1*
X34301Y26838D1*
X34258D1*
X34215Y26852D1*
X34201Y26866D1*
X34186Y26895D1*
X34480Y27081D2*
X34509Y27096D1*
X34552Y27139D1*
Y26838D1*
X32011Y18540D2*
X31997Y18569D1*
X31968Y18598D1*
X31940Y18612D1*
X31882D1*
X31854Y18598D1*
X31825Y18569D1*
X31810Y18540D1*
X31796Y18497D1*
Y18425D1*
X31810Y18382D1*
X31825Y18354D1*
X31854Y18325D1*
X31882Y18310D1*
X31940D1*
X31968Y18325D1*
X31997Y18354D1*
X32011Y18382D1*
X32276Y18612D2*
X32133D1*
X32119Y18483D1*
X32133Y18497D1*
X32176Y18511D1*
X32219D1*
X32262Y18497D1*
X32291Y18468D1*
X32305Y18425D1*
Y18397D1*
X32291Y18354D1*
X32262Y18325D1*
X32219Y18310D1*
X32176D1*
X32133Y18325D1*
X32119Y18339D1*
X32104Y18368D1*
X32412Y18540D2*
Y18554D1*
X32427Y18583D1*
X32441Y18597D1*
X32470Y18612D1*
X32527D1*
X32555Y18597D1*
X32570Y18583D1*
X32584Y18554D1*
Y18526D1*
X32570Y18497D1*
X32541Y18454D1*
X32398Y18310D1*
X32599D1*
X32535Y23164D2*
X32521Y23193D1*
X32492Y23221D1*
X32464Y23236D1*
X32406D1*
X32378Y23221D1*
X32349Y23193D1*
X32334Y23164D1*
X32320Y23121D1*
Y23049D1*
X32334Y23006D1*
X32349Y22977D1*
X32378Y22949D1*
X32406Y22934D1*
X32464D1*
X32492Y22949D1*
X32521Y22977D1*
X32535Y23006D1*
X32800Y23235D2*
X32657D1*
X32643Y23106D1*
X32657Y23121D1*
X32700Y23135D1*
X32743D1*
X32786Y23121D1*
X32815Y23092D1*
X32829Y23049D1*
Y23020D1*
X32815Y22977D1*
X32786Y22948D1*
X32743Y22934D1*
X32700D1*
X32657Y22948D1*
X32643Y22963D1*
X32628Y22992D1*
X32950Y23235D2*
X33108D1*
X33022Y23121D1*
X33065D1*
X33094Y23106D1*
X33108Y23092D1*
X33123Y23049D1*
Y23020D1*
X33108Y22977D1*
X33079Y22948D1*
X33036Y22934D1*
X32993D1*
X32950Y22948D1*
X32936Y22963D1*
X32922Y22992D1*
X34273Y22660D2*
X34244Y22646D1*
X34215Y22617D1*
X34201Y22589D1*
Y22531D1*
X34215Y22502D1*
X34244Y22474D1*
X34273Y22459D1*
X34316Y22445D1*
X34388D1*
X34431Y22459D1*
X34460Y22474D1*
X34488Y22502D1*
X34503Y22531D1*
Y22589D1*
X34488Y22617D1*
X34460Y22646D1*
X34431Y22660D1*
X34202Y22925D2*
Y22782D1*
X34331Y22768D1*
X34316Y22782D1*
X34302Y22825D1*
Y22868D1*
X34316Y22911D1*
X34345Y22940D1*
X34388Y22954D1*
X34416D1*
X34460Y22940D1*
X34488Y22911D1*
X34503Y22868D1*
Y22825D1*
X34488Y22782D1*
X34474Y22768D1*
X34445Y22753D1*
X34503Y23190D2*
X34202D1*
X34402Y23047D1*
Y23262D1*
X31145Y22014D2*
X31131Y22043D1*
X31102Y22071D1*
X31074Y22086D1*
X31016D1*
X30988Y22071D1*
X30959Y22043D1*
X30944Y22014D1*
X30930Y21971D1*
Y21899D1*
X30944Y21856D1*
X30959Y21827D1*
X30988Y21799D1*
X31016Y21784D1*
X31074D1*
X31102Y21799D1*
X31131Y21827D1*
X31145Y21856D1*
X31410Y22085D2*
X31267D1*
X31253Y21956D1*
X31267Y21971D1*
X31310Y21985D1*
X31353D1*
X31396Y21971D1*
X31425Y21942D1*
X31439Y21899D1*
Y21870D1*
X31425Y21827D1*
X31396Y21798D1*
X31353Y21784D1*
X31310D1*
X31267Y21798D1*
X31253Y21813D1*
X31238Y21842D1*
X31704Y22085D2*
X31560D1*
X31546Y21956D1*
X31560Y21971D1*
X31604Y21985D1*
X31646D1*
X31689Y21971D1*
X31718Y21942D1*
X31733Y21899D1*
Y21870D1*
X31718Y21827D1*
X31689Y21798D1*
X31646Y21784D1*
X31604D1*
X31560Y21798D1*
X31546Y21813D1*
X31532Y21842D1*
X30969Y22850D2*
X30954Y22879D1*
X30926Y22908D1*
X30897Y22922D1*
X30840D1*
X30811Y22908D1*
X30782Y22879D1*
X30768Y22850D1*
X30753Y22807D1*
Y22735D1*
X30768Y22692D1*
X30782Y22664D1*
X30811Y22635D1*
X30840Y22620D1*
X30897D1*
X30926Y22635D1*
X30954Y22664D1*
X30969Y22692D1*
X31233Y22922D2*
X31090D1*
X31076Y22793D1*
X31090Y22807D1*
X31133Y22821D1*
X31176D1*
X31219Y22807D1*
X31248Y22778D1*
X31262Y22735D1*
Y22707D1*
X31248Y22664D1*
X31219Y22635D1*
X31176Y22620D1*
X31133D1*
X31090Y22635D1*
X31076Y22649D1*
X31061Y22678D1*
X31527Y22879D2*
X31513Y22907D1*
X31470Y22922D1*
X31441D1*
X31398Y22907D1*
X31369Y22864D1*
X31355Y22793D1*
Y22721D1*
X31369Y22664D1*
X31398Y22635D1*
X31441Y22620D1*
X31455D1*
X31498Y22635D1*
X31527Y22664D1*
X31541Y22707D1*
Y22721D1*
X31527Y22764D1*
X31498Y22793D1*
X31455Y22807D1*
X31441D1*
X31398Y22793D1*
X31369Y22764D1*
X31355Y22721D1*
X34017Y19087D2*
X34002Y19115D1*
X33973Y19144D1*
X33945Y19158D1*
X33888D1*
X33859Y19144D1*
X33830Y19115D1*
X33816Y19087D1*
X33801Y19044D1*
Y18972D1*
X33816Y18929D1*
X33830Y18900D1*
X33859Y18871D1*
X33888Y18857D1*
X33945D1*
X33973Y18871D1*
X34002Y18900D1*
X34017Y18929D1*
X34281Y19158D2*
X34138D1*
X34124Y19029D1*
X34138Y19043D1*
X34181Y19058D1*
X34224D1*
X34267Y19043D1*
X34296Y19015D1*
X34310Y18972D1*
Y18943D1*
X34296Y18900D1*
X34267Y18871D1*
X34224Y18857D1*
X34181D1*
X34138Y18871D1*
X34124Y18886D1*
X34109Y18914D1*
X34460Y18857D2*
X34604Y19158D1*
X34403D1*
X32014Y10561D2*
X32000Y10589D1*
X31971Y10618D1*
X31943Y10633D1*
X31885D1*
X31856Y10618D1*
X31828Y10589D1*
X31813Y10561D1*
X31799Y10518D1*
Y10446D1*
X31813Y10403D1*
X31828Y10374D1*
X31856Y10346D1*
X31885Y10331D1*
X31943D1*
X31971Y10346D1*
X32000Y10374D1*
X32014Y10403D1*
X32279Y10632D2*
X32136D1*
X32122Y10503D1*
X32136Y10518D1*
X32179Y10532D1*
X32222D1*
X32265Y10518D1*
X32294Y10489D1*
X32308Y10446D1*
Y10417D1*
X32294Y10374D1*
X32265Y10345D1*
X32222Y10331D1*
X32179D1*
X32136Y10345D1*
X32122Y10360D1*
X32107Y10389D1*
X32472Y10632D2*
X32429Y10618D1*
X32415Y10589D1*
Y10561D1*
X32429Y10532D1*
X32458Y10518D1*
X32515Y10503D1*
X32558Y10489D1*
X32587Y10460D1*
X32601Y10432D1*
Y10389D1*
X32587Y10360D1*
X32573Y10345D1*
X32530Y10331D1*
X32472D1*
X32429Y10345D1*
X32415Y10360D1*
X32401Y10389D1*
Y10432D1*
X32415Y10460D1*
X32444Y10489D1*
X32486Y10503D1*
X32544Y10518D1*
X32573Y10532D1*
X32587Y10561D1*
Y10589D1*
X32573Y10618D1*
X32530Y10632D1*
X32472D1*
X32545Y15185D2*
X32531Y15213D1*
X32502Y15242D1*
X32474Y15256D1*
X32416D1*
X32387Y15242D1*
X32359Y15213D1*
X32344Y15185D1*
X32330Y15142D1*
Y15070D1*
X32344Y15027D1*
X32359Y14998D1*
X32387Y14969D1*
X32416Y14955D1*
X32474D1*
X32502Y14969D1*
X32531Y14998D1*
X32545Y15027D1*
X32810Y15256D2*
X32667D1*
X32652Y15127D1*
X32667Y15141D1*
X32710Y15156D1*
X32753D1*
X32796Y15141D1*
X32825Y15113D1*
X32839Y15070D1*
Y15041D1*
X32825Y14998D1*
X32796Y14969D1*
X32753Y14955D1*
X32710D1*
X32667Y14969D1*
X32652Y14984D1*
X32638Y15012D1*
X33118Y15156D2*
X33104Y15113D1*
X33075Y15084D1*
X33032Y15070D1*
X33018D1*
X32975Y15084D1*
X32946Y15113D1*
X32931Y15156D1*
Y15170D1*
X32946Y15213D1*
X32975Y15242D1*
X33018Y15256D1*
X33032D1*
X33075Y15242D1*
X33104Y15213D1*
X33118Y15156D1*
Y15084D1*
X33104Y15012D1*
X33075Y14969D1*
X33032Y14955D1*
X33003D1*
X32960Y14969D1*
X32946Y14998D1*
X34326Y14795D2*
X34297Y14781D1*
X34268Y14752D1*
X34254Y14724D1*
Y14666D1*
X34268Y14638D1*
X34297Y14609D1*
X34326Y14594D1*
X34369Y14580D1*
X34441D1*
X34483Y14594D1*
X34512Y14609D1*
X34541Y14638D1*
X34555Y14666D1*
Y14724D1*
X34541Y14752D1*
X34512Y14781D1*
X34483Y14795D1*
X34297Y15060D2*
X34269Y15046D1*
X34254Y15003D1*
Y14974D1*
X34269Y14931D1*
X34312Y14902D1*
X34383Y14888D1*
X34455D1*
X34512Y14902D1*
X34541Y14931D1*
X34555Y14974D1*
Y14989D1*
X34541Y15031D1*
X34512Y15060D1*
X34469Y15074D1*
X34455D1*
X34412Y15060D1*
X34383Y15031D1*
X34369Y14989D1*
Y14974D1*
X34383Y14931D1*
X34412Y14902D1*
X34455Y14888D1*
X34254Y15253D2*
X34269Y15210D1*
X34312Y15181D1*
X34383Y15167D1*
X34426D1*
X34498Y15181D1*
X34541Y15210D1*
X34555Y15253D1*
Y15282D1*
X34541Y15325D1*
X34498Y15353D1*
X34426Y15368D1*
X34383D1*
X34312Y15353D1*
X34269Y15325D1*
X34254Y15282D1*
Y15253D1*
X34312Y15353D2*
X34498Y15181D1*
X31220Y14035D2*
X31206Y14063D1*
X31177Y14092D1*
X31148Y14106D1*
X31091D1*
X31062Y14092D1*
X31034Y14063D1*
X31019Y14035D1*
X31005Y13992D1*
Y13920D1*
X31019Y13877D1*
X31034Y13848D1*
X31062Y13819D1*
X31091Y13805D1*
X31148D1*
X31177Y13819D1*
X31206Y13848D1*
X31220Y13877D1*
X31485Y14063D2*
X31470Y14092D1*
X31427Y14106D1*
X31399D1*
X31356Y14092D1*
X31327Y14049D1*
X31313Y13977D1*
Y13905D1*
X31327Y13848D1*
X31356Y13819D1*
X31399Y13805D1*
X31413D1*
X31456Y13819D1*
X31485Y13848D1*
X31499Y13891D1*
Y13905D1*
X31485Y13948D1*
X31456Y13977D1*
X31413Y13991D1*
X31399D1*
X31356Y13977D1*
X31327Y13948D1*
X31313Y13905D1*
X31592Y14049D2*
X31620Y14063D1*
X31664Y14106D1*
Y13805D1*
X30941Y14851D2*
X30927Y14879D1*
X30898Y14908D1*
X30870Y14923D1*
X30812D1*
X30784Y14908D1*
X30755Y14879D1*
X30741Y14851D1*
X30726Y14808D1*
Y14736D1*
X30741Y14693D1*
X30755Y14664D1*
X30784Y14636D1*
X30812Y14621D1*
X30870D1*
X30898Y14636D1*
X30927Y14664D1*
X30941Y14693D1*
X31206Y14879D2*
X31192Y14908D1*
X31149Y14922D1*
X31120D1*
X31077Y14908D1*
X31048Y14865D1*
X31034Y14793D1*
Y14722D1*
X31048Y14664D1*
X31077Y14635D1*
X31120Y14621D1*
X31135D1*
X31177Y14635D1*
X31206Y14664D1*
X31220Y14707D1*
Y14722D1*
X31206Y14765D1*
X31177Y14793D1*
X31135Y14808D1*
X31120D1*
X31077Y14793D1*
X31048Y14765D1*
X31034Y14722D1*
X31328Y14851D2*
Y14865D1*
X31342Y14894D1*
X31356Y14908D1*
X31385Y14922D1*
X31442D1*
X31471Y14908D1*
X31485Y14894D1*
X31500Y14865D1*
Y14836D1*
X31485Y14808D1*
X31457Y14765D1*
X31313Y14621D1*
X31514D1*
X34027Y11107D2*
X34012Y11136D1*
X33983Y11165D1*
X33955Y11179D1*
X33898D1*
X33869Y11165D1*
X33840Y11136D1*
X33826Y11107D1*
X33811Y11064D1*
Y10992D1*
X33826Y10950D1*
X33840Y10921D1*
X33869Y10892D1*
X33898Y10878D1*
X33955D1*
X33983Y10892D1*
X34012Y10921D1*
X34027Y10950D1*
X34291Y11136D2*
X34277Y11164D1*
X34234Y11179D1*
X34205D1*
X34162Y11164D1*
X34133Y11121D1*
X34119Y11050D1*
Y10978D1*
X34133Y10921D1*
X34162Y10892D1*
X34205Y10878D1*
X34220D1*
X34262Y10892D1*
X34291Y10921D1*
X34306Y10964D1*
Y10978D1*
X34291Y11021D1*
X34262Y11050D1*
X34220Y11064D1*
X34205D1*
X34162Y11050D1*
X34133Y11021D1*
X34119Y10978D1*
X34427Y11179D2*
X34585D1*
X34499Y11064D1*
X34542D1*
X34570Y11050D1*
X34585Y11035D1*
X34599Y10992D1*
Y10964D1*
X34585Y10921D1*
X34556Y10892D1*
X34513Y10878D1*
X34470D1*
X34427Y10892D1*
X34413Y10906D1*
X34398Y10935D1*
X6448Y37679D2*
X6434Y37708D1*
X6405Y37737D1*
X6376Y37751D1*
X6319D1*
X6290Y37737D1*
X6261Y37708D1*
X6247Y37679D1*
X6233Y37636D1*
Y37564D1*
X6247Y37521D1*
X6261Y37493D1*
X6290Y37464D1*
X6319Y37449D1*
X6376D1*
X6405Y37464D1*
X6434Y37493D1*
X6448Y37521D1*
X6741Y37751D2*
Y37449D1*
X6540Y37751D1*
Y37449D1*
X6834Y37693D2*
X6863Y37708D1*
X6906Y37751D1*
Y37449D1*
X5427Y27328D2*
X5413Y27356D1*
X5384Y27385D1*
X5356Y27399D1*
X5298D1*
X5270Y27385D1*
X5241Y27356D1*
X5226Y27328D1*
X5212Y27284D1*
Y27212D1*
X5226Y27170D1*
X5241Y27141D1*
X5270Y27112D1*
X5298Y27098D1*
X5356D1*
X5384Y27112D1*
X5413Y27141D1*
X5427Y27170D1*
X5721Y27399D2*
Y27098D1*
X5520Y27399D1*
Y27098D1*
X5828Y27327D2*
Y27341D1*
X5842Y27370D1*
X5857Y27385D1*
X5886Y27399D1*
X5943D1*
X5971Y27385D1*
X5986Y27370D1*
X6000Y27341D1*
Y27313D1*
X5986Y27284D1*
X5957Y27241D1*
X5814Y27098D1*
X6015D1*
X38314Y39478D2*
X38299Y39506D1*
X38271Y39535D1*
X38242Y39549D1*
X38185D1*
X38156Y39535D1*
X38127Y39506D1*
X38113Y39478D1*
X38098Y39434D1*
Y39362D1*
X38113Y39320D1*
X38127Y39291D1*
X38156Y39262D1*
X38185Y39248D1*
X38242D1*
X38271Y39262D1*
X38299Y39291D1*
X38314Y39320D1*
X38607Y39549D2*
Y39248D1*
X38406Y39549D1*
Y39248D1*
X38729Y39549D2*
X38886D1*
X38800Y39434D1*
X38844D1*
X38872Y39420D1*
X38886Y39406D1*
X38901Y39362D1*
Y39334D1*
X38886Y39291D1*
X38858Y39262D1*
X38815Y39248D1*
X38772D1*
X38729Y39262D1*
X38715Y39277D1*
X38700Y39305D1*
X38277Y31438D2*
X38262Y31466D1*
X38233Y31495D1*
X38205Y31509D1*
X38148D1*
X38119Y31495D1*
X38090Y31466D1*
X38076Y31438D1*
X38061Y31394D1*
Y31322D1*
X38076Y31280D1*
X38090Y31251D1*
X38119Y31222D1*
X38148Y31208D1*
X38205D1*
X38233Y31222D1*
X38262Y31251D1*
X38277Y31280D1*
X38570Y31509D2*
Y31208D1*
X38369Y31509D1*
Y31208D1*
X38806D2*
Y31509D1*
X38663Y31308D1*
X38878D1*
X38271Y23377D2*
X38257Y23405D1*
X38228Y23434D1*
X38199Y23448D1*
X38142D1*
X38113Y23434D1*
X38085Y23405D1*
X38070Y23377D1*
X38056Y23334D1*
Y23262D1*
X38070Y23219D1*
X38085Y23190D1*
X38113Y23162D1*
X38142Y23147D1*
X38199D1*
X38228Y23162D1*
X38257Y23190D1*
X38271Y23219D1*
X38565Y23448D2*
Y23147D1*
X38364Y23448D1*
Y23147D1*
X38829Y23448D2*
X38686D1*
X38672Y23319D1*
X38686Y23333D1*
X38729Y23348D1*
X38772D1*
X38815Y23333D1*
X38844Y23305D1*
X38858Y23262D1*
Y23233D1*
X38844Y23190D1*
X38815Y23161D1*
X38772Y23147D1*
X38729D1*
X38686Y23161D1*
X38672Y23176D1*
X38657Y23204D1*
X38311Y15478D2*
X38297Y15506D1*
X38268Y15535D1*
X38239Y15549D1*
X38182D1*
X38153Y15535D1*
X38125Y15506D1*
X38110Y15478D1*
X38096Y15434D1*
Y15362D1*
X38110Y15320D1*
X38125Y15291D1*
X38153Y15262D1*
X38182Y15248D1*
X38239D1*
X38268Y15262D1*
X38297Y15291D1*
X38311Y15320D1*
X38605Y15549D2*
Y15248D1*
X38404Y15549D1*
Y15248D1*
X38869Y15506D2*
X38855Y15535D1*
X38812Y15549D1*
X38783D1*
X38740Y15535D1*
X38711Y15491D1*
X38697Y15420D1*
Y15348D1*
X38711Y15291D1*
X38740Y15262D1*
X38783Y15248D1*
X38798D1*
X38840Y15262D1*
X38869Y15291D1*
X38884Y15334D1*
Y15348D1*
X38869Y15391D1*
X38840Y15420D1*
X38798Y15434D1*
X38783D1*
X38740Y15420D1*
X38711Y15391D1*
X38697Y15348D1*
X12974Y43588D2*
X12960Y43616D1*
X12931Y43645D1*
X12903Y43659D1*
X12845D1*
X12816Y43645D1*
X12788Y43616D1*
X12773Y43588D1*
X12759Y43545D1*
Y43473D1*
X12773Y43430D1*
X12788Y43401D1*
X12816Y43373D1*
X12845Y43358D1*
X12903D1*
X12931Y43373D1*
X12960Y43401D1*
X12974Y43430D1*
X13268Y43659D2*
Y43358D1*
X13067Y43659D1*
Y43358D1*
X13418D2*
X13561Y43659D1*
X13360D1*
X15214Y43658D2*
X15200Y43686D1*
X15171Y43715D1*
X15143Y43729D1*
X15085D1*
X15056Y43715D1*
X15028Y43686D1*
X15013Y43658D1*
X14999Y43615D1*
Y43543D1*
X15013Y43500D1*
X15028Y43471D1*
X15056Y43443D1*
X15085Y43428D1*
X15143D1*
X15171Y43443D1*
X15200Y43471D1*
X15214Y43500D1*
X15508Y43729D2*
Y43428D1*
X15307Y43729D1*
Y43428D1*
X15672Y43729D2*
X15629Y43715D1*
X15615Y43686D1*
Y43658D1*
X15629Y43629D1*
X15658Y43614D1*
X15715Y43600D1*
X15758Y43586D1*
X15787Y43557D1*
X15801Y43529D1*
Y43485D1*
X15787Y43457D1*
X15773Y43442D1*
X15730Y43428D1*
X15672D1*
X15629Y43442D1*
X15615Y43457D1*
X15601Y43485D1*
Y43529D1*
X15615Y43557D1*
X15644Y43586D1*
X15686Y43600D1*
X15744Y43614D1*
X15773Y43629D1*
X15787Y43658D1*
Y43686D1*
X15773Y43715D1*
X15730Y43729D1*
X15672D1*
X20066Y40378D2*
X20052Y40406D1*
X20023Y40435D1*
X19995Y40449D1*
X19937D1*
X19908Y40435D1*
X19880Y40406D1*
X19865Y40378D1*
X19851Y40334D1*
Y40262D1*
X19865Y40220D1*
X19880Y40191D1*
X19908Y40162D1*
X19937Y40148D1*
X19995D1*
X20023Y40162D1*
X20052Y40191D1*
X20066Y40220D1*
X20360Y40449D2*
Y40148D1*
X20159Y40449D1*
Y40148D1*
X20639Y40349D2*
X20625Y40306D1*
X20596Y40277D1*
X20553Y40262D1*
X20539D1*
X20496Y40277D1*
X20467Y40306D1*
X20453Y40349D1*
Y40363D1*
X20467Y40406D1*
X20496Y40435D1*
X20539Y40449D1*
X20553D1*
X20596Y40435D1*
X20625Y40406D1*
X20639Y40349D1*
Y40277D1*
X20625Y40205D1*
X20596Y40162D1*
X20553Y40148D1*
X20524D1*
X20481Y40162D1*
X20467Y40191D1*
X35962Y8087D2*
X35948Y8115D1*
X35919Y8144D1*
X35890Y8158D1*
X35833D1*
X35804Y8144D1*
X35776Y8115D1*
X35761Y8087D1*
X35747Y8043D1*
Y7972D1*
X35761Y7929D1*
X35776Y7900D1*
X35804Y7871D1*
X35833Y7857D1*
X35890D1*
X35919Y7871D1*
X35948Y7900D1*
X35962Y7929D1*
X36255Y8158D2*
Y7857D1*
X36055Y8158D1*
Y7857D1*
X36348Y8101D2*
X36377Y8115D1*
X36420Y8158D1*
Y7857D1*
X36599Y8158D2*
X36556Y8144D1*
X36527Y8101D1*
X36513Y8029D1*
Y7986D1*
X36527Y7914D1*
X36556Y7871D1*
X36599Y7857D1*
X36627D1*
X36671Y7871D1*
X36699Y7914D1*
X36714Y7986D1*
Y8029D1*
X36699Y8101D1*
X36671Y8144D1*
X36627Y8158D1*
X36599D1*
X36699Y8101D2*
X36527Y7914D1*
X27586Y8087D2*
X27572Y8115D1*
X27543Y8144D1*
X27515Y8158D1*
X27457D1*
X27429Y8144D1*
X27400Y8115D1*
X27385Y8087D1*
X27371Y8043D1*
Y7972D1*
X27385Y7929D1*
X27400Y7900D1*
X27429Y7871D1*
X27457Y7857D1*
X27515D1*
X27543Y7871D1*
X27572Y7900D1*
X27586Y7929D1*
X27880Y8158D2*
Y7857D1*
X27679Y8158D1*
Y7857D1*
X27973Y8101D2*
X28001Y8115D1*
X28045Y8158D1*
Y7857D1*
X28137Y8101D2*
X28166Y8115D1*
X28209Y8158D1*
Y7857D1*
X24502Y8087D2*
X24488Y8115D1*
X24459Y8144D1*
X24430Y8158D1*
X24373D1*
X24344Y8144D1*
X24316Y8115D1*
X24301Y8087D1*
X24287Y8043D1*
Y7972D1*
X24301Y7929D1*
X24316Y7900D1*
X24344Y7871D1*
X24373Y7857D1*
X24430D1*
X24459Y7871D1*
X24488Y7900D1*
X24502Y7929D1*
X24795Y8158D2*
Y7857D1*
X24595Y8158D1*
Y7857D1*
X24888Y8101D2*
X24917Y8115D1*
X24960Y8158D1*
Y7857D1*
X25067Y8086D2*
Y8101D1*
X25082Y8129D1*
X25096Y8144D1*
X25125Y8158D1*
X25182D1*
X25211Y8144D1*
X25225Y8129D1*
X25239Y8101D1*
Y8072D1*
X25225Y8043D1*
X25196Y8000D1*
X25053Y7857D1*
X25254D1*
X21042Y8087D2*
X21028Y8115D1*
X20999Y8144D1*
X20970Y8158D1*
X20913D1*
X20884Y8144D1*
X20856Y8115D1*
X20841Y8087D1*
X20827Y8043D1*
Y7972D1*
X20841Y7929D1*
X20856Y7900D1*
X20884Y7871D1*
X20913Y7857D1*
X20970D1*
X20999Y7871D1*
X21028Y7900D1*
X21042Y7929D1*
X21335Y8158D2*
Y7857D1*
X21135Y8158D1*
Y7857D1*
X21428Y8101D2*
X21457Y8115D1*
X21500Y8158D1*
Y7857D1*
X21622Y8158D2*
X21779D1*
X21693Y8043D1*
X21736D1*
X21765Y8029D1*
X21779Y8015D1*
X21794Y7972D1*
Y7943D1*
X21779Y7900D1*
X21751Y7871D1*
X21707Y7857D1*
X21664D1*
X21622Y7871D1*
X21607Y7886D1*
X21593Y7914D1*
X18255Y8077D2*
X18240Y8105D1*
X18212Y8134D1*
X18183Y8148D1*
X18126D1*
X18097Y8134D1*
X18068Y8105D1*
X18054Y8077D1*
X18040Y8033D1*
Y7962D1*
X18054Y7919D1*
X18068Y7890D1*
X18097Y7861D1*
X18126Y7847D1*
X18183D1*
X18212Y7861D1*
X18240Y7890D1*
X18255Y7919D1*
X18548Y8148D2*
Y7847D1*
X18347Y8148D1*
Y7847D1*
X18641Y8091D2*
X18670Y8105D1*
X18713Y8148D1*
Y7847D1*
X18949D2*
Y8148D1*
X18806Y7947D1*
X19021D1*
X16032Y8067D2*
X16018Y8095D1*
X15989Y8124D1*
X15960Y8138D1*
X15903D1*
X15874Y8124D1*
X15846Y8095D1*
X15831Y8067D1*
X15817Y8023D1*
Y7952D1*
X15831Y7909D1*
X15846Y7880D1*
X15874Y7851D1*
X15903Y7837D1*
X15960D1*
X15989Y7851D1*
X16018Y7880D1*
X16032Y7909D1*
X16325Y8138D2*
Y7837D1*
X16125Y8138D1*
Y7837D1*
X16418Y8081D2*
X16447Y8095D1*
X16490Y8138D1*
Y7837D1*
X16755Y8138D2*
X16612D1*
X16597Y8009D1*
X16612Y8023D1*
X16655Y8038D1*
X16697D1*
X16741Y8023D1*
X16769Y7995D1*
X16784Y7952D1*
Y7923D1*
X16769Y7880D1*
X16741Y7851D1*
X16697Y7837D1*
X16655D1*
X16612Y7851D1*
X16597Y7866D1*
X16583Y7894D1*
X12479Y8008D2*
X12465Y8036D1*
X12436Y8065D1*
X12408Y8079D1*
X12350D1*
X12321Y8065D1*
X12293Y8036D1*
X12278Y8008D1*
X12264Y7965D1*
Y7893D1*
X12278Y7850D1*
X12293Y7821D1*
X12321Y7793D1*
X12350Y7778D1*
X12408D1*
X12436Y7793D1*
X12465Y7821D1*
X12479Y7850D1*
X12773Y8079D2*
Y7778D1*
X12572Y8079D1*
Y7778D1*
X12865Y8022D2*
X12894Y8036D1*
X12937Y8079D1*
Y7778D1*
X13202Y8036D2*
X13188Y8065D1*
X13145Y8079D1*
X13116D1*
X13073Y8065D1*
X13044Y8022D1*
X13030Y7950D1*
Y7879D1*
X13044Y7821D1*
X13073Y7792D1*
X13116Y7778D1*
X13130D1*
X13173Y7792D1*
X13202Y7821D1*
X13216Y7864D1*
Y7879D1*
X13202Y7922D1*
X13173Y7950D1*
X13130Y7964D1*
X13116D1*
X13073Y7950D1*
X13044Y7922D1*
X13030Y7879D1*
X24722Y40373D2*
X24708Y40401D1*
X24679Y40430D1*
X24650Y40444D1*
X24593D1*
X24564Y40430D1*
X24536Y40401D1*
X24521Y40373D1*
X24507Y40329D1*
Y40257D1*
X24521Y40215D1*
X24536Y40186D1*
X24564Y40157D1*
X24593Y40143D1*
X24650D1*
X24679Y40157D1*
X24708Y40186D1*
X24722Y40215D1*
X25015Y40444D2*
Y40143D1*
X24815Y40444D1*
Y40143D1*
X25108Y40386D2*
X25137Y40401D1*
X25180Y40444D1*
Y40143D1*
X25330D2*
X25474Y40444D1*
X25273D1*
X22317Y40423D2*
X22303Y40451D1*
X22274Y40480D1*
X22245Y40494D1*
X22188D1*
X22159Y40480D1*
X22131Y40451D1*
X22116Y40423D1*
X22102Y40379D1*
Y40307D1*
X22116Y40265D1*
X22131Y40236D1*
X22159Y40207D1*
X22188Y40193D1*
X22245D1*
X22274Y40207D1*
X22303Y40236D1*
X22317Y40265D1*
X22611Y40494D2*
Y40193D1*
X22410Y40494D1*
Y40193D1*
X22703Y40436D2*
X22732Y40451D1*
X22775Y40494D1*
Y40193D1*
X22939Y40494D2*
X22897Y40480D1*
X22882Y40451D1*
Y40422D1*
X22897Y40394D1*
X22925Y40379D1*
X22983Y40365D1*
X23026Y40351D1*
X23054Y40322D1*
X23068Y40293D1*
Y40250D1*
X23054Y40222D1*
X23040Y40207D1*
X22997Y40193D1*
X22939D1*
X22897Y40207D1*
X22882Y40222D1*
X22868Y40250D1*
Y40293D1*
X22882Y40322D1*
X22911Y40351D1*
X22954Y40365D1*
X23011Y40379D1*
X23040Y40394D1*
X23054Y40422D1*
Y40451D1*
X23040Y40480D1*
X22997Y40494D1*
X22939D1*
X36669Y40408D2*
X36655Y40436D1*
X36626Y40465D1*
X36597Y40479D1*
X36540D1*
X36511Y40465D1*
X36483Y40436D1*
X36468Y40408D1*
X36454Y40364D1*
Y40292D1*
X36468Y40250D1*
X36483Y40221D1*
X36511Y40192D1*
X36540Y40178D1*
X36597D1*
X36626Y40192D1*
X36655Y40221D1*
X36669Y40250D1*
X36963Y40479D2*
Y40178D1*
X36762Y40479D1*
Y40178D1*
X37055Y40421D2*
X37084Y40436D1*
X37127Y40479D1*
Y40178D1*
X37407Y40379D2*
X37392Y40336D1*
X37363Y40307D1*
X37320Y40292D1*
X37306D1*
X37263Y40307D1*
X37234Y40336D1*
X37220Y40379D1*
Y40393D1*
X37234Y40436D1*
X37263Y40465D1*
X37306Y40479D1*
X37320D1*
X37363Y40465D1*
X37392Y40436D1*
X37407Y40379D1*
Y40307D1*
X37392Y40235D1*
X37363Y40192D1*
X37320Y40178D1*
X37292D1*
X37249Y40192D1*
X37234Y40221D1*
X34417Y40408D2*
X34403Y40436D1*
X34374Y40465D1*
X34346Y40479D1*
X34288D1*
X34260Y40465D1*
X34231Y40436D1*
X34216Y40408D1*
X34202Y40364D1*
Y40292D1*
X34216Y40250D1*
X34231Y40221D1*
X34260Y40192D1*
X34288Y40178D1*
X34346D1*
X34374Y40192D1*
X34403Y40221D1*
X34417Y40250D1*
X34711Y40479D2*
Y40178D1*
X34510Y40479D1*
Y40178D1*
X34818Y40407D2*
Y40421D1*
X34832Y40450D1*
X34847Y40465D1*
X34876Y40479D1*
X34933D1*
X34961Y40465D1*
X34976Y40450D1*
X34990Y40421D1*
Y40393D1*
X34976Y40364D1*
X34947Y40321D1*
X34804Y40178D1*
X35005D1*
X35183Y40479D2*
X35140Y40465D1*
X35111Y40421D1*
X35097Y40350D1*
Y40307D1*
X35111Y40235D1*
X35140Y40192D1*
X35183Y40178D1*
X35212D1*
X35255Y40192D1*
X35284Y40235D1*
X35298Y40307D1*
Y40350D1*
X35284Y40421D1*
X35255Y40465D1*
X35212Y40479D1*
X35183D1*
X35284Y40421D2*
X35111Y40235D1*
X27632Y40418D2*
X27618Y40446D1*
X27589Y40475D1*
X27560Y40489D1*
X27503D1*
X27474Y40475D1*
X27446Y40446D1*
X27431Y40418D1*
X27417Y40374D1*
Y40302D1*
X27431Y40260D1*
X27446Y40231D1*
X27474Y40202D1*
X27503Y40188D1*
X27560D1*
X27589Y40202D1*
X27618Y40231D1*
X27632Y40260D1*
X27925Y40489D2*
Y40188D1*
X27725Y40489D1*
Y40188D1*
X28033Y40417D2*
Y40431D1*
X28047Y40460D1*
X28061Y40475D1*
X28090Y40489D1*
X28147D1*
X28176Y40475D1*
X28190Y40460D1*
X28205Y40431D1*
Y40403D1*
X28190Y40374D1*
X28162Y40331D1*
X28018Y40188D1*
X28219D1*
X28312Y40431D2*
X28341Y40446D1*
X28384Y40489D1*
Y40188D1*
X24532Y32901D2*
Y32600D1*
X24632D1*
X24675Y32614D1*
X24704Y32643D1*
X24718Y32672D1*
X24733Y32715D1*
Y32787D1*
X24718Y32830D1*
X24704Y32858D1*
X24675Y32887D1*
X24632Y32901D1*
X24532D1*
X24825Y32844D2*
X24854Y32858D1*
X24897Y32901D1*
Y32600D1*
X17162Y34539D2*
Y34238D1*
X17263D1*
X17306Y34253D1*
X17335Y34281D1*
X17349Y34310D1*
X17363Y34353D1*
Y34425D1*
X17349Y34468D1*
X17335Y34496D1*
X17306Y34525D1*
X17263Y34539D1*
X17162D1*
X17470Y34467D2*
Y34482D1*
X17485Y34511D1*
X17499Y34525D1*
X17528Y34539D1*
X17585D1*
X17614Y34525D1*
X17628Y34511D1*
X17643Y34482D1*
Y34453D1*
X17628Y34424D1*
X17599Y34382D1*
X17456Y34238D1*
X17657D1*
X17092Y29382D2*
Y29080D1*
X17193D1*
X17236Y29095D1*
X17264Y29123D1*
X17279Y29152D1*
X17293Y29195D1*
Y29267D1*
X17279Y29310D1*
X17264Y29338D1*
X17236Y29367D1*
X17193Y29382D1*
X17092D1*
X17414Y29381D2*
X17572D1*
X17486Y29266D1*
X17529D1*
X17558Y29252D1*
X17572Y29238D1*
X17587Y29195D1*
Y29166D1*
X17572Y29123D1*
X17543Y29094D1*
X17500Y29080D1*
X17457D1*
X17414Y29094D1*
X17400Y29109D1*
X17386Y29137D1*
X24429Y38016D2*
Y37715D1*
X24530D1*
X24573Y37729D1*
X24602Y37758D1*
X24616Y37787D1*
X24630Y37830D1*
Y37902D1*
X24616Y37945D1*
X24602Y37973D1*
X24573Y38002D1*
X24530Y38016D1*
X24429D1*
X24867Y37715D2*
Y38016D1*
X24723Y37815D1*
X24938D1*
X15663Y14971D2*
Y14670D1*
X15764D1*
X15807Y14684D1*
X15836Y14713D1*
X15850Y14742D1*
X15864Y14785D1*
Y14857D1*
X15850Y14900D1*
X15836Y14928D1*
X15807Y14957D1*
X15764Y14971D1*
X15663D1*
X16129D2*
X15986D1*
X15972Y14842D1*
X15986Y14856D1*
X16029Y14871D1*
X16072D1*
X16115Y14856D1*
X16144Y14828D1*
X16158Y14785D1*
Y14756D1*
X16144Y14713D1*
X16115Y14684D1*
X16072Y14670D1*
X16029D1*
X15986Y14684D1*
X15972Y14699D1*
X15957Y14727D1*
X15671Y15871D2*
Y15570D1*
X15771D1*
X15814Y15584D1*
X15843Y15613D1*
X15857Y15642D1*
X15872Y15685D1*
Y15757D1*
X15857Y15800D1*
X15843Y15828D1*
X15814Y15857D1*
X15771Y15871D1*
X15671D1*
X16136Y15828D2*
X16122Y15857D1*
X16079Y15871D1*
X16051D1*
X16007Y15857D1*
X15979Y15814D1*
X15964Y15742D1*
Y15670D1*
X15979Y15613D1*
X16007Y15584D1*
X16051Y15570D1*
X16065D1*
X16108Y15584D1*
X16136Y15613D1*
X16151Y15656D1*
Y15670D1*
X16136Y15713D1*
X16108Y15742D1*
X16065Y15756D1*
X16051D1*
X16007Y15742D1*
X15979Y15713D1*
X15964Y15670D1*
X10668Y15245D2*
Y14944D1*
X10769D1*
X10812Y14959D1*
X10840Y14987D1*
X10855Y15016D1*
X10869Y15059D1*
Y15131D1*
X10855Y15174D1*
X10840Y15202D1*
X10812Y15231D1*
X10769Y15245D1*
X10668D1*
X11033D2*
X10990Y15231D1*
X10976Y15202D1*
Y15173D1*
X10990Y15145D1*
X11019Y15130D1*
X11076Y15116D1*
X11119Y15102D1*
X11148Y15073D1*
X11162Y15044D1*
Y15001D1*
X11148Y14973D1*
X11134Y14958D1*
X11091Y14944D1*
X11033D1*
X10990Y14958D1*
X10976Y14973D1*
X10962Y15001D1*
Y15044D1*
X10976Y15073D1*
X11005Y15102D1*
X11048Y15116D1*
X11105Y15130D1*
X11134Y15145D1*
X11148Y15173D1*
Y15202D1*
X11134Y15231D1*
X11091Y15245D1*
X11033D1*
X12525Y34118D2*
X12339D1*
Y33817D1*
Y33975D2*
X12454D1*
X12618Y34060D2*
X12647Y34075D1*
X12690Y34118D1*
Y33817D1*
X5720Y38966D2*
X5533D1*
Y38664D1*
Y38822D2*
X5648D1*
X5813Y38966D2*
Y38664D1*
X5942D1*
X5985Y38679D1*
X5999Y38693D1*
X6014Y38722D1*
Y38765D1*
X5999Y38794D1*
X5985Y38808D1*
X5942Y38822D1*
X5985Y38837D1*
X5999Y38851D1*
X6014Y38879D1*
Y38908D1*
X5999Y38937D1*
X5985Y38951D1*
X5942Y38966D1*
X5813D1*
Y38822D2*
X5942D1*
X6106Y38908D2*
X6135Y38923D1*
X6178Y38965D1*
Y38664D1*
X8625Y20389D2*
Y20203D1*
X8926D1*
X8768D2*
Y20317D1*
X8625Y20482D2*
X8926D1*
Y20611D1*
X8911Y20654D1*
X8897Y20669D1*
X8869Y20683D1*
X8826D1*
X8797Y20669D1*
X8782Y20654D1*
X8768Y20611D1*
X8754Y20654D1*
X8739Y20669D1*
X8711Y20683D1*
X8682D1*
X8653Y20669D1*
X8639Y20654D1*
X8625Y20611D1*
Y20482D1*
X8768D2*
Y20611D1*
X8697Y20790D2*
X8682D1*
X8653Y20804D1*
X8639Y20819D1*
X8625Y20848D1*
Y20905D1*
X8639Y20933D1*
X8653Y20948D1*
X8682Y20962D1*
X8711D1*
X8740Y20948D1*
X8782Y20919D1*
X8926Y20776D1*
Y20977D1*
X6956Y38986D2*
X6769D1*
Y38684D1*
Y38842D2*
X6884D1*
X7048Y38986D2*
Y38684D1*
X7177D1*
X7221Y38699D1*
X7235Y38713D1*
X7249Y38742D1*
Y38785D1*
X7235Y38814D1*
X7221Y38828D1*
X7177Y38842D1*
X7221Y38857D1*
X7235Y38871D1*
X7249Y38899D1*
Y38928D1*
X7235Y38957D1*
X7221Y38971D1*
X7177Y38986D1*
X7048D1*
Y38842D2*
X7177D1*
X7371Y38985D2*
X7528D1*
X7442Y38871D1*
X7485D1*
X7514Y38856D1*
X7528Y38842D1*
X7543Y38799D1*
Y38770D1*
X7528Y38727D1*
X7500Y38699D1*
X7456Y38684D1*
X7413D1*
X7371Y38699D1*
X7356Y38713D1*
X7342Y38742D1*
X6143Y16889D2*
Y16660D1*
X6129Y16617D1*
X6114Y16602D1*
X6086Y16588D1*
X6057D1*
X6028Y16602D1*
X6014Y16617D1*
X5999Y16660D1*
Y16688D1*
X6236Y16832D2*
X6264Y16846D1*
X6308Y16889D1*
Y16588D1*
X26226Y30880D2*
X26456D1*
X26499Y30866D1*
X26513Y30852D1*
X26528Y30823D1*
Y30794D1*
X26513Y30766D1*
X26499Y30751D1*
X26456Y30737D1*
X26427D1*
X26298Y30988D2*
X26284D1*
X26255Y31002D1*
X26241Y31016D1*
X26227Y31045D1*
Y31102D1*
X26241Y31131D1*
X26255Y31145D1*
X26284Y31160D1*
X26313D1*
X26341Y31145D1*
X26384Y31117D1*
X26528Y30973D1*
Y31174D1*
X26176Y32520D2*
X26406D1*
X26449Y32506D1*
X26463Y32492D1*
X26478Y32463D1*
Y32434D1*
X26463Y32406D1*
X26449Y32391D1*
X26406Y32377D1*
X26377D1*
X26177Y32642D2*
Y32799D1*
X26291Y32713D1*
Y32757D1*
X26306Y32785D1*
X26320Y32799D1*
X26363Y32814D1*
X26392D1*
X26435Y32799D1*
X26464Y32771D1*
X26478Y32728D1*
Y32685D1*
X26464Y32642D1*
X26449Y32628D1*
X26420Y32613D1*
X5015Y20939D2*
X5244D1*
X5287Y20925D1*
X5301Y20910D1*
X5316Y20882D1*
Y20853D1*
X5301Y20824D1*
X5287Y20810D1*
X5244Y20795D1*
X5216D1*
X5316Y21175D2*
X5015D1*
X5216Y21032D1*
Y21247D1*
X10803Y27477D2*
Y27247D1*
X10789Y27204D1*
X10774Y27190D1*
X10745Y27175D1*
X10717D1*
X10688Y27190D1*
X10674Y27204D1*
X10659Y27247D1*
Y27276D1*
X10895Y27319D2*
X11025D1*
X11068Y27333D1*
X11082Y27348D1*
X11096Y27376D1*
Y27419D1*
X11082Y27448D1*
X11068Y27462D1*
X11025Y27477D1*
X10895D1*
Y27175D1*
X11189Y27419D2*
X11218Y27433D1*
X11261Y27476D1*
Y27175D1*
X12018Y22429D2*
Y22200D1*
X12004Y22157D1*
X11990Y22143D1*
X11961Y22128D1*
X11932D1*
X11904Y22143D1*
X11889Y22157D1*
X11875Y22200D1*
Y22229D1*
X12111Y22272D2*
X12240D1*
X12283Y22286D1*
X12298Y22300D1*
X12312Y22329D1*
Y22372D1*
X12298Y22401D1*
X12283Y22415D1*
X12240Y22429D1*
X12111D1*
Y22128D1*
X12419Y22358D2*
Y22372D1*
X12433Y22401D1*
X12448Y22415D1*
X12477Y22429D1*
X12534D1*
X12562Y22415D1*
X12577Y22401D1*
X12591Y22372D1*
Y22343D1*
X12577Y22314D1*
X12548Y22272D1*
X12405Y22128D1*
X12606D1*
X24193Y22055D2*
Y21825D1*
X24179Y21782D1*
X24165Y21768D1*
X24136Y21753D1*
X24107D1*
X24079Y21768D1*
X24064Y21782D1*
X24050Y21825D1*
Y21854D1*
X24286Y21897D2*
X24415D1*
X24458Y21911D1*
X24473Y21926D1*
X24487Y21954D1*
Y21997D1*
X24473Y22026D1*
X24458Y22041D1*
X24415Y22055D1*
X24286D1*
Y21753D1*
X24608Y22054D2*
X24766D1*
X24680Y21940D1*
X24723D1*
X24752Y21925D1*
X24766Y21911D1*
X24781Y21868D1*
Y21840D1*
X24766Y21796D1*
X24737Y21768D1*
X24694Y21753D1*
X24651D1*
X24608Y21768D1*
X24594Y21782D1*
X24580Y21811D1*
X13376Y15834D2*
Y15605D1*
X13362Y15562D1*
X13347Y15548D1*
X13319Y15533D1*
X13290D1*
X13261Y15548D1*
X13247Y15562D1*
X13233Y15605D1*
Y15634D1*
X13469Y15677D2*
X13598D1*
X13641Y15691D1*
X13656Y15705D1*
X13670Y15734D1*
Y15777D1*
X13656Y15806D1*
X13641Y15820D1*
X13598Y15834D1*
X13469D1*
Y15533D1*
X13906D2*
Y15834D1*
X13762Y15634D1*
X13978D1*
X7196Y27079D2*
Y26849D1*
X7181Y26806D1*
X7167Y26792D1*
X7138Y26778D1*
X7109D1*
X7081Y26792D1*
X7067Y26806D1*
X7052Y26849D1*
Y26878D1*
X7288Y26921D2*
X7418D1*
X7460Y26935D1*
X7475Y26950D1*
X7489Y26978D1*
Y27022D1*
X7475Y27050D1*
X7460Y27065D1*
X7418Y27079D1*
X7288D1*
Y26778D1*
X7754Y27036D2*
X7740Y27064D1*
X7697Y27079D1*
X7668D1*
X7625Y27064D1*
X7596Y27021D1*
X7582Y26950D1*
Y26878D1*
X7596Y26821D1*
X7625Y26792D1*
X7668Y26778D1*
X7682D1*
X7725Y26792D1*
X7754Y26821D1*
X7768Y26864D1*
Y26878D1*
X7754Y26921D1*
X7725Y26950D1*
X7682Y26964D1*
X7668D1*
X7625Y26950D1*
X7596Y26921D1*
X7582Y26878D1*
X17956Y15574D2*
X18186D1*
X18229Y15559D1*
X18243Y15545D1*
X18258Y15516D1*
Y15487D1*
X18243Y15459D1*
X18229Y15445D1*
X18186Y15430D1*
X18157D1*
X18114Y15666D2*
Y15796D1*
X18100Y15838D1*
X18085Y15853D1*
X18057Y15867D1*
X18014D1*
X17985Y15853D1*
X17971Y15838D1*
X17956Y15796D1*
Y15666D1*
X18258D1*
Y16017D2*
X17957Y16161D1*
Y15960D1*
X20237Y32867D2*
Y32566D1*
X20409D1*
X20501Y32810D2*
X20530Y32824D1*
X20573Y32867D1*
Y32566D1*
X20222Y38037D2*
Y37736D1*
X20394D1*
X20501Y37965D2*
Y37980D1*
X20516Y38009D1*
X20530Y38023D1*
X20559Y38037D1*
X20616D1*
X20645Y38023D1*
X20659Y38009D1*
X20674Y37980D1*
Y37951D1*
X20659Y37922D1*
X20630Y37880D1*
X20487Y37736D1*
X20688D1*
X26094Y11542D2*
X26065Y11528D1*
X26036Y11499D1*
X26022Y11470D1*
X26007Y11427D1*
Y11355D1*
X26022Y11312D1*
X26036Y11284D1*
X26065Y11255D1*
X26094Y11241D1*
X26151D1*
X26180Y11255D1*
X26208Y11284D1*
X26223Y11312D1*
X26237Y11355D1*
Y11427D1*
X26223Y11470D1*
X26208Y11499D1*
X26180Y11528D1*
X26151Y11542D1*
X26094D1*
X26137Y11298D2*
X26223Y11212D1*
X26330Y11484D2*
X26359Y11499D1*
X26402Y11541D1*
Y11240D1*
X23729Y11567D2*
X23701Y11553D1*
X23672Y11524D1*
X23658Y11495D1*
X23643Y11452D1*
Y11380D1*
X23658Y11337D1*
X23672Y11309D1*
X23701Y11280D1*
X23729Y11266D1*
X23787D1*
X23815Y11280D1*
X23844Y11309D1*
X23858Y11337D1*
X23873Y11380D1*
Y11452D1*
X23858Y11495D1*
X23844Y11524D1*
X23815Y11553D1*
X23787Y11567D1*
X23729D1*
X23772Y11323D2*
X23858Y11237D1*
X23980Y11495D2*
Y11509D1*
X23994Y11538D1*
X24009Y11552D1*
X24037Y11566D1*
X24095D1*
X24123Y11552D1*
X24138Y11538D1*
X24152Y11509D1*
Y11480D1*
X24138Y11452D1*
X24109Y11409D1*
X23965Y11265D1*
X24166D1*
X18629Y38070D2*
X18601Y38056D1*
X18572Y38027D1*
X18558Y37998D1*
X18543Y37955D1*
Y37884D1*
X18558Y37840D1*
X18572Y37812D1*
X18601Y37783D1*
X18629Y37769D1*
X18687D1*
X18715Y37783D1*
X18744Y37812D1*
X18758Y37840D1*
X18773Y37884D1*
Y37955D1*
X18758Y37998D1*
X18744Y38027D1*
X18715Y38056D1*
X18687Y38070D1*
X18629D1*
X18672Y37826D2*
X18758Y37740D1*
X18894Y38070D2*
X19052D1*
X18966Y37955D1*
X19009D1*
X19038Y37941D1*
X19052Y37926D1*
X19066Y37883D1*
Y37855D1*
X19052Y37812D1*
X19023Y37783D1*
X18980Y37769D1*
X18937D1*
X18894Y37783D1*
X18880Y37797D1*
X18865Y37826D1*
X12042Y37980D2*
X12014Y37966D1*
X11985Y37937D1*
X11970Y37908D1*
X11956Y37865D1*
Y37794D1*
X11970Y37750D1*
X11985Y37722D1*
X12014Y37693D1*
X12042Y37679D1*
X12099D1*
X12128Y37693D1*
X12157Y37722D1*
X12171Y37750D1*
X12186Y37794D1*
Y37865D1*
X12171Y37908D1*
X12157Y37937D1*
X12128Y37966D1*
X12099Y37980D1*
X12042D1*
X12085Y37736D2*
X12171Y37650D1*
X12422Y37679D2*
Y37980D1*
X12278Y37779D1*
X12493D1*
X9150Y9654D2*
X9122Y9640D1*
X9093Y9611D1*
X9079Y9582D1*
X9064Y9539D1*
Y9467D1*
X9079Y9424D1*
X9093Y9396D1*
X9122Y9367D1*
X9150Y9353D1*
X9208D1*
X9236Y9367D1*
X9265Y9396D1*
X9279Y9424D1*
X9294Y9467D1*
Y9539D1*
X9279Y9582D1*
X9265Y9611D1*
X9236Y9640D1*
X9208Y9654D1*
X9150D1*
X9193Y9410D2*
X9279Y9324D1*
X9558Y9653D2*
X9415D1*
X9401Y9524D1*
X9415Y9539D1*
X9458Y9553D1*
X9501D1*
X9544Y9539D1*
X9573Y9510D1*
X9587Y9467D1*
Y9438D1*
X9573Y9395D1*
X9544Y9367D1*
X9501Y9352D1*
X9458D1*
X9415Y9367D1*
X9401Y9381D1*
X9386Y9410D1*
X20102Y39804D2*
X20074Y39790D1*
X20045Y39761D1*
X20031Y39732D1*
X20016Y39689D1*
Y39617D1*
X20031Y39574D1*
X20045Y39546D1*
X20074Y39517D1*
X20102Y39503D1*
X20160D1*
X20189Y39517D1*
X20217Y39546D1*
X20231Y39574D1*
X20246Y39617D1*
Y39689D1*
X20231Y39732D1*
X20217Y39761D1*
X20189Y39790D1*
X20160Y39804D1*
X20102D1*
X20146Y39560D2*
X20231Y39474D1*
X20511Y39761D2*
X20497Y39789D1*
X20453Y39803D1*
X20425D1*
X20382Y39789D1*
X20353Y39746D1*
X20339Y39674D1*
Y39603D1*
X20353Y39545D1*
X20382Y39517D1*
X20425Y39502D1*
X20439D1*
X20482Y39517D1*
X20511Y39545D1*
X20525Y39588D1*
Y39603D1*
X20511Y39646D1*
X20482Y39674D1*
X20439Y39689D1*
X20425D1*
X20382Y39674D1*
X20353Y39646D1*
X20339Y39603D1*
X26835Y39744D2*
X26807Y39730D1*
X26778Y39701D1*
X26764Y39672D1*
X26749Y39629D1*
Y39557D1*
X26764Y39514D1*
X26778Y39486D1*
X26807Y39457D1*
X26835Y39443D1*
X26893D1*
X26921Y39457D1*
X26950Y39486D1*
X26964Y39514D1*
X26979Y39557D1*
Y39629D1*
X26964Y39672D1*
X26950Y39701D1*
X26921Y39730D1*
X26893Y39744D1*
X26835D1*
X26878Y39500D2*
X26964Y39414D1*
X27129Y39442D2*
X27272Y39743D1*
X27071D1*
X24395Y39754D2*
X24367Y39740D1*
X24338Y39711D1*
X24324Y39682D1*
X24309Y39639D1*
Y39567D1*
X24324Y39524D1*
X24338Y39496D1*
X24367Y39467D1*
X24395Y39453D1*
X24453D1*
X24482Y39467D1*
X24510Y39496D1*
X24524Y39524D1*
X24539Y39567D1*
Y39639D1*
X24524Y39682D1*
X24510Y39711D1*
X24482Y39740D1*
X24453Y39754D1*
X24395D1*
X24438Y39510D2*
X24524Y39424D1*
X24703Y39753D2*
X24660Y39739D1*
X24646Y39711D1*
Y39682D1*
X24660Y39653D1*
X24689Y39639D1*
X24746Y39624D1*
X24789Y39610D1*
X24818Y39581D1*
X24832Y39553D1*
Y39510D1*
X24818Y39481D1*
X24804Y39467D1*
X24761Y39452D1*
X24703D1*
X24660Y39467D1*
X24646Y39481D1*
X24632Y39510D1*
Y39553D1*
X24646Y39581D1*
X24675Y39610D1*
X24717Y39624D1*
X24775Y39639D1*
X24804Y39653D1*
X24818Y39682D1*
Y39711D1*
X24804Y39739D1*
X24761Y39753D1*
X24703D1*
X17047Y14828D2*
X17176D1*
X17219Y14842D1*
X17234Y14857D1*
X17248Y14885D1*
Y14914D1*
X17234Y14942D1*
X17219Y14957D1*
X17176Y14971D1*
X17047D1*
Y14670D1*
X17148Y14828D2*
X17248Y14670D1*
X17341Y14914D2*
X17369Y14928D1*
X17413Y14971D1*
Y14670D1*
X7958Y39748D2*
Y39877D1*
X7943Y39920D1*
X7929Y39934D1*
X7900Y39948D1*
X7871D1*
X7843Y39934D1*
X7828Y39920D1*
X7814Y39877D1*
Y39748D1*
X8115D1*
X7958Y39848D2*
X8115Y39948D1*
X7886Y40056D2*
X7872D1*
X7843Y40070D1*
X7829Y40084D1*
X7814Y40113D1*
Y40170D1*
X7829Y40199D1*
X7843Y40213D1*
X7872Y40228D1*
X7900D1*
X7929Y40213D1*
X7972Y40185D1*
X8115Y40041D1*
Y40242D1*
X13848Y38438D2*
Y38567D1*
X13833Y38610D1*
X13819Y38624D1*
X13790Y38638D1*
X13761D1*
X13733Y38624D1*
X13718Y38610D1*
X13704Y38567D1*
Y38438D1*
X14005D1*
X13848Y38538D2*
X14005Y38638D1*
X13704Y38760D2*
Y38917D1*
X13819Y38832D1*
Y38875D1*
X13833Y38903D1*
X13848Y38917D1*
X13891Y38932D1*
X13919D1*
X13962Y38917D1*
X13991Y38889D1*
X14005Y38846D1*
Y38803D1*
X13991Y38760D1*
X13977Y38746D1*
X13948Y38731D1*
X24390Y38483D2*
X24519D1*
X24563Y38497D1*
X24577Y38512D1*
X24591Y38540D1*
Y38569D1*
X24577Y38597D1*
X24563Y38612D1*
X24519Y38626D1*
X24390D1*
Y38325D1*
X24491Y38483D2*
X24591Y38325D1*
X24828D2*
Y38626D1*
X24684Y38425D1*
X24899D1*
X35383Y36637D2*
X35512D1*
X35555Y36652D1*
X35570Y36666D1*
X35584Y36695D1*
Y36723D1*
X35570Y36752D1*
X35555Y36767D1*
X35512Y36781D1*
X35383D1*
Y36479D1*
X35483Y36637D2*
X35584Y36479D1*
X35849Y36780D2*
X35705D1*
X35691Y36651D1*
X35705Y36666D1*
X35748Y36680D1*
X35791D1*
X35834Y36666D1*
X35863Y36637D1*
X35877Y36594D1*
Y36566D1*
X35863Y36522D1*
X35834Y36494D1*
X35791Y36479D1*
X35748D1*
X35705Y36494D1*
X35691Y36508D1*
X35676Y36537D1*
X35394Y38511D2*
X35523D1*
X35566Y38526D1*
X35581Y38540D1*
X35595Y38569D1*
Y38597D1*
X35581Y38626D1*
X35566Y38641D1*
X35523Y38655D1*
X35394D1*
Y38353D1*
X35495Y38511D2*
X35595Y38353D1*
X35860Y38612D2*
X35846Y38640D1*
X35803Y38654D1*
X35774D1*
X35731Y38640D1*
X35702Y38597D1*
X35688Y38525D1*
Y38454D1*
X35702Y38396D1*
X35731Y38368D1*
X35774Y38353D1*
X35788D1*
X35831Y38368D1*
X35860Y38396D1*
X35874Y38440D1*
Y38454D1*
X35860Y38497D1*
X35831Y38525D1*
X35788Y38540D1*
X35774D1*
X35731Y38525D1*
X35702Y38497D1*
X35688Y38454D1*
X13683Y20333D2*
X13812D1*
X13855Y20347D1*
X13870Y20362D1*
X13884Y20390D1*
Y20419D1*
X13870Y20447D1*
X13855Y20462D1*
X13812Y20476D1*
X13683D1*
Y20175D1*
X13784Y20333D2*
X13884Y20175D1*
X14034D2*
X14178Y20476D1*
X13977D1*
X24153Y24308D2*
X24282D1*
X24325Y24322D1*
X24339Y24337D1*
X24354Y24365D1*
Y24394D1*
X24339Y24422D1*
X24325Y24437D1*
X24282Y24451D1*
X24153D1*
Y24150D1*
X24253Y24308D2*
X24354Y24150D1*
X24518Y24451D2*
X24475Y24437D1*
X24461Y24408D1*
Y24379D1*
X24475Y24351D1*
X24504Y24336D1*
X24561Y24322D1*
X24604Y24308D1*
X24633Y24279D1*
X24647Y24250D1*
Y24207D1*
X24633Y24179D1*
X24618Y24164D1*
X24575Y24150D1*
X24518D1*
X24475Y24164D1*
X24461Y24179D1*
X24446Y24207D1*
Y24250D1*
X24461Y24279D1*
X24489Y24308D1*
X24532Y24322D1*
X24590Y24336D1*
X24618Y24351D1*
X24633Y24379D1*
Y24408D1*
X24618Y24437D1*
X24575Y24451D1*
X24518D1*
X15723Y8650D2*
Y8779D1*
X15708Y8822D1*
X15694Y8837D1*
X15665Y8851D1*
X15636D1*
X15608Y8837D1*
X15593Y8822D1*
X15579Y8779D1*
Y8650D1*
X15880D1*
X15723Y8751D2*
X15880Y8851D1*
X15679Y9131D2*
X15723Y9116D1*
X15751Y9088D1*
X15766Y9044D1*
Y9030D1*
X15751Y8987D1*
X15723Y8959D1*
X15679Y8944D1*
X15665D1*
X15622Y8959D1*
X15594Y8987D1*
X15579Y9030D1*
Y9044D1*
X15594Y9088D1*
X15622Y9116D1*
X15679Y9131D1*
X15751D1*
X15823Y9116D1*
X15866Y9088D1*
X15880Y9044D1*
Y9016D1*
X15866Y8973D1*
X15837Y8959D1*
X12196Y23598D2*
X12325D1*
X12368Y23613D1*
X12383Y23627D1*
X12397Y23655D1*
Y23684D1*
X12383Y23713D1*
X12368Y23727D1*
X12325Y23742D1*
X12196D1*
Y23440D1*
X12296Y23598D2*
X12397Y23440D1*
X12490Y23684D2*
X12518Y23698D1*
X12561Y23741D1*
Y23440D1*
X12740Y23741D2*
X12697Y23727D1*
X12668Y23684D1*
X12654Y23612D1*
Y23569D1*
X12668Y23497D1*
X12697Y23454D1*
X12740Y23440D1*
X12769D1*
X12812Y23454D1*
X12840Y23497D1*
X12855Y23569D1*
Y23612D1*
X12840Y23684D1*
X12812Y23727D1*
X12769Y23741D1*
X12740D1*
X12840Y23684D2*
X12668Y23497D1*
X35365Y28577D2*
X35494D1*
X35537Y28592D1*
X35552Y28606D1*
X35566Y28635D1*
Y28663D1*
X35552Y28692D1*
X35537Y28706D1*
X35494Y28721D1*
X35365D1*
Y28419D1*
X35466Y28577D2*
X35566Y28419D1*
X35659Y28663D2*
X35688Y28678D1*
X35731Y28720D1*
Y28419D1*
X35823Y28663D2*
X35852Y28678D1*
X35895Y28720D1*
Y28419D1*
X22085Y38483D2*
X22214D1*
X22257Y38497D1*
X22272Y38512D1*
X22286Y38540D1*
Y38569D1*
X22272Y38597D1*
X22257Y38612D1*
X22214Y38626D1*
X22085D1*
Y38325D1*
X22186Y38483D2*
X22286Y38325D1*
X22379Y38569D2*
X22408Y38583D1*
X22451Y38626D1*
Y38325D1*
X22558Y38554D2*
Y38569D1*
X22572Y38597D1*
X22587Y38612D1*
X22615Y38626D1*
X22673D1*
X22701Y38612D1*
X22716Y38597D1*
X22730Y38569D1*
Y38540D1*
X22716Y38511D1*
X22687Y38468D1*
X22543Y38325D1*
X22744D1*
X11865Y12343D2*
X11994D1*
X12037Y12357D1*
X12052Y12372D1*
X12066Y12400D1*
Y12429D1*
X12052Y12457D1*
X12037Y12472D1*
X11994Y12486D1*
X11865D1*
Y12185D1*
X11966Y12343D2*
X12066Y12185D1*
X12159Y12429D2*
X12188Y12443D1*
X12231Y12486D1*
Y12185D1*
X12352Y12486D2*
X12510D1*
X12424Y12371D1*
X12467D1*
X12496Y12357D1*
X12510Y12343D1*
X12524Y12300D1*
Y12271D1*
X12510Y12228D1*
X12481Y12199D1*
X12438Y12185D1*
X12395D1*
X12352Y12199D1*
X12338Y12214D1*
X12323Y12242D1*
X35297Y30451D2*
X35426D1*
X35470Y30466D1*
X35484Y30480D1*
X35498Y30509D1*
Y30537D1*
X35484Y30566D1*
X35470Y30581D1*
X35426Y30595D1*
X35297D1*
Y30293D1*
X35398Y30451D2*
X35498Y30293D1*
X35591Y30537D2*
X35620Y30552D1*
X35663Y30594D1*
Y30293D1*
X35899D2*
Y30594D1*
X35756Y30394D1*
X35971D1*
X35288Y20596D2*
X35417D1*
X35460Y20611D1*
X35475Y20625D1*
X35489Y20654D1*
Y20683D1*
X35475Y20711D1*
X35460Y20726D1*
X35417Y20740D1*
X35288D1*
Y20439D1*
X35388Y20596D2*
X35489Y20439D1*
X35581Y20682D2*
X35610Y20697D1*
X35653Y20740D1*
Y20439D1*
X35918Y20740D2*
X35775D1*
X35761Y20611D1*
X35775Y20625D1*
X35818Y20640D1*
X35861D1*
X35904Y20625D1*
X35933Y20596D1*
X35947Y20553D1*
Y20525D1*
X35933Y20482D1*
X35904Y20453D1*
X35861Y20439D1*
X35818D1*
X35775Y20453D1*
X35761Y20467D1*
X35746Y20496D1*
X35299Y22470D2*
X35428D1*
X35471Y22485D1*
X35486Y22499D1*
X35500Y22528D1*
Y22557D1*
X35486Y22585D1*
X35471Y22600D1*
X35428Y22614D1*
X35299D1*
Y22313D1*
X35400Y22470D2*
X35500Y22313D1*
X35593Y22556D2*
X35622Y22571D1*
X35665Y22614D1*
Y22313D1*
X35929Y22571D2*
X35915Y22599D1*
X35872Y22614D1*
X35844D1*
X35800Y22599D1*
X35772Y22556D1*
X35757Y22485D1*
Y22413D1*
X35772Y22356D1*
X35800Y22327D1*
X35844Y22313D1*
X35858D1*
X35901Y22327D1*
X35929Y22356D1*
X35944Y22399D1*
Y22413D1*
X35929Y22456D1*
X35901Y22485D1*
X35858Y22499D1*
X35844D1*
X35800Y22485D1*
X35772Y22456D1*
X35757Y22413D1*
X35291Y12617D2*
X35420D1*
X35463Y12632D1*
X35477Y12646D1*
X35492Y12675D1*
Y12703D1*
X35477Y12732D1*
X35463Y12746D1*
X35420Y12761D1*
X35291D1*
Y12459D1*
X35391Y12617D2*
X35492Y12459D1*
X35584Y12703D2*
X35613Y12718D1*
X35656Y12760D1*
Y12459D1*
X35806D2*
X35950Y12760D1*
X35749D1*
X35295Y14491D2*
X35424D1*
X35467Y14506D1*
X35481Y14520D1*
X35496Y14549D1*
Y14577D1*
X35481Y14606D1*
X35467Y14621D1*
X35424Y14635D1*
X35295D1*
Y14333D1*
X35395Y14491D2*
X35496Y14333D1*
X35588Y14577D2*
X35617Y14592D1*
X35660Y14634D1*
Y14333D1*
X35825Y14634D2*
X35782Y14620D1*
X35767Y14592D1*
Y14563D1*
X35782Y14534D1*
X35810Y14520D1*
X35868Y14505D1*
X35911Y14491D1*
X35939Y14462D1*
X35954Y14434D1*
Y14391D1*
X35939Y14362D1*
X35925Y14348D1*
X35882Y14333D1*
X35825D1*
X35782Y14348D1*
X35767Y14362D1*
X35753Y14391D1*
Y14434D1*
X35767Y14462D1*
X35796Y14491D1*
X35839Y14505D1*
X35896Y14520D1*
X35925Y14534D1*
X35939Y14563D1*
Y14592D1*
X35925Y14620D1*
X35882Y14634D1*
X35825D1*
X7958Y38322D2*
Y38451D1*
X7943Y38494D1*
X7929Y38509D1*
X7900Y38523D1*
X7871D1*
X7843Y38509D1*
X7828Y38494D1*
X7814Y38451D1*
Y38322D1*
X8115D1*
X7958Y38423D2*
X8115Y38523D1*
X7872Y38616D2*
X7857Y38645D1*
X7814Y38688D1*
X8115D1*
X7914Y38967D2*
X7958Y38953D1*
X7986Y38924D1*
X8001Y38881D1*
Y38867D1*
X7986Y38824D1*
X7958Y38795D1*
X7914Y38781D1*
X7900D1*
X7857Y38795D1*
X7829Y38824D1*
X7814Y38867D1*
Y38881D1*
X7829Y38924D1*
X7857Y38953D1*
X7914Y38967D1*
X7986D1*
X8058Y38953D1*
X8101Y38924D1*
X8115Y38881D1*
Y38853D1*
X8101Y38809D1*
X8072Y38795D1*
X33702Y6816D2*
Y6945D1*
X33688Y6988D1*
X33673Y7003D1*
X33645Y7017D1*
X33616D1*
X33587Y7003D1*
X33573Y6988D1*
X33559Y6945D1*
Y6816D1*
X33860D1*
X33702Y6917D2*
X33860Y7017D1*
X33631Y7124D2*
X33616D1*
X33587Y7139D1*
X33573Y7153D1*
X33559Y7182D1*
Y7239D1*
X33573Y7268D1*
X33587Y7282D1*
X33616Y7296D1*
X33645D1*
X33674Y7282D1*
X33716Y7253D1*
X33860Y7110D1*
Y7311D1*
X33559Y7489D2*
X33573Y7446D1*
X33616Y7418D1*
X33688Y7403D1*
X33731D1*
X33803Y7418D1*
X33846Y7446D1*
X33860Y7489D1*
Y7518D1*
X33846Y7561D1*
X33803Y7590D1*
X33731Y7604D1*
X33688D1*
X33616Y7590D1*
X33573Y7561D1*
X33559Y7518D1*
Y7489D1*
X33616Y7590D2*
X33803Y7418D1*
X27266Y8943D2*
X27395D1*
X27438Y8957D1*
X27453Y8972D1*
X27467Y9000D1*
Y9029D1*
X27453Y9057D1*
X27438Y9072D1*
X27395Y9086D1*
X27266D1*
Y8785D1*
X27366Y8943D2*
X27467Y8785D1*
X27574Y9014D2*
Y9029D1*
X27588Y9057D1*
X27603Y9072D1*
X27631Y9086D1*
X27689D1*
X27717Y9072D1*
X27732Y9057D1*
X27746Y9029D1*
Y9000D1*
X27732Y8971D1*
X27703Y8928D1*
X27560Y8785D1*
X27760D1*
X27853Y9029D2*
X27882Y9043D1*
X27925Y9086D1*
Y8785D1*
X24336Y8958D2*
X24465D1*
X24508Y8972D1*
X24522Y8987D1*
X24537Y9015D1*
Y9044D1*
X24522Y9072D1*
X24508Y9087D1*
X24465Y9101D1*
X24336D1*
Y8800D1*
X24436Y8958D2*
X24537Y8800D1*
X24644Y9029D2*
Y9044D1*
X24658Y9072D1*
X24672Y9087D1*
X24701Y9101D1*
X24759D1*
X24787Y9087D1*
X24801Y9072D1*
X24816Y9044D1*
Y9015D1*
X24801Y8986D1*
X24773Y8943D1*
X24629Y8800D1*
X24830D1*
X24938Y9029D2*
Y9044D1*
X24952Y9072D1*
X24966Y9087D1*
X24995Y9101D1*
X25052D1*
X25081Y9087D1*
X25095Y9072D1*
X25110Y9044D1*
Y9015D1*
X25095Y8986D1*
X25067Y8943D1*
X24923Y8800D1*
X25124D1*
X20281Y9013D2*
X20410D1*
X20453Y9027D1*
X20467Y9042D1*
X20482Y9070D1*
Y9099D1*
X20467Y9127D1*
X20453Y9142D1*
X20410Y9156D1*
X20281D1*
Y8855D1*
X20381Y9013D2*
X20482Y8855D1*
X20589Y9084D2*
Y9099D1*
X20603Y9127D1*
X20617Y9142D1*
X20646Y9156D1*
X20704D1*
X20732Y9142D1*
X20746Y9127D1*
X20761Y9099D1*
Y9070D1*
X20746Y9041D1*
X20718Y8998D1*
X20574Y8855D1*
X20775D1*
X20897Y9156D2*
X21054D1*
X20968Y9041D1*
X21012D1*
X21040Y9027D1*
X21054Y9013D1*
X21069Y8970D1*
Y8941D1*
X21054Y8898D1*
X21026Y8869D1*
X20983Y8855D1*
X20940D1*
X20897Y8869D1*
X20883Y8884D1*
X20868Y8912D1*
X16974Y32723D2*
X17103D1*
X17146Y32737D1*
X17160Y32752D1*
X17175Y32780D1*
Y32809D1*
X17160Y32837D1*
X17146Y32852D1*
X17103Y32866D1*
X16974D1*
Y32565D1*
X17074Y32723D2*
X17175Y32565D1*
X17282Y32794D2*
Y32809D1*
X17296Y32837D1*
X17310Y32852D1*
X17339Y32866D1*
X17397D1*
X17425Y32852D1*
X17439Y32837D1*
X17454Y32809D1*
Y32780D1*
X17439Y32751D1*
X17411Y32708D1*
X17267Y32565D1*
X17468D1*
X17704D2*
Y32866D1*
X17561Y32665D1*
X17776D1*
X15621Y32723D2*
X15750D1*
X15793Y32737D1*
X15807Y32752D1*
X15822Y32780D1*
Y32809D1*
X15807Y32837D1*
X15793Y32852D1*
X15750Y32866D1*
X15621D1*
Y32565D1*
X15721Y32723D2*
X15822Y32565D1*
X15929Y32794D2*
Y32809D1*
X15943Y32837D1*
X15957Y32852D1*
X15986Y32866D1*
X16044D1*
X16072Y32852D1*
X16086Y32837D1*
X16101Y32809D1*
Y32780D1*
X16086Y32751D1*
X16058Y32708D1*
X15914Y32565D1*
X16115D1*
X16380Y32866D2*
X16237D1*
X16223Y32737D1*
X16237Y32751D1*
X16280Y32766D1*
X16323D1*
X16366Y32751D1*
X16395Y32723D1*
X16409Y32680D1*
Y32651D1*
X16395Y32608D1*
X16366Y32579D1*
X16323Y32565D1*
X16280D1*
X16237Y32579D1*
X16223Y32594D1*
X16208Y32622D1*
X12498Y31529D2*
Y31658D1*
X12483Y31701D1*
X12469Y31715D1*
X12440Y31730D1*
X12411D1*
X12383Y31715D1*
X12368Y31701D1*
X12354Y31658D1*
Y31529D1*
X12655D1*
X12498Y31629D2*
X12655Y31730D1*
X12426Y31837D2*
X12412D1*
X12383Y31851D1*
X12369Y31865D1*
X12354Y31894D1*
Y31952D1*
X12369Y31980D1*
X12383Y31994D1*
X12412Y32009D1*
X12440D1*
X12469Y31994D1*
X12512Y31966D1*
X12655Y31822D1*
Y32023D1*
X12397Y32288D2*
X12369Y32274D1*
X12354Y32231D1*
Y32202D1*
X12369Y32159D1*
X12412Y32130D1*
X12483Y32116D1*
X12555D1*
X12612Y32130D1*
X12641Y32159D1*
X12655Y32202D1*
Y32216D1*
X12641Y32259D1*
X12612Y32288D1*
X12569Y32302D1*
X12555D1*
X12512Y32288D1*
X12483Y32259D1*
X12469Y32216D1*
Y32202D1*
X12483Y32159D1*
X12512Y32130D1*
X12555Y32116D1*
X12488Y30111D2*
Y30240D1*
X12473Y30284D1*
X12459Y30298D1*
X12430Y30312D1*
X12401D1*
X12373Y30298D1*
X12358Y30284D1*
X12344Y30240D1*
Y30111D1*
X12645D1*
X12488Y30212D2*
X12645Y30312D1*
X12416Y30420D2*
X12402D1*
X12373Y30434D1*
X12359Y30448D1*
X12344Y30477D1*
Y30534D1*
X12359Y30563D1*
X12373Y30577D1*
X12402Y30592D1*
X12430D1*
X12459Y30577D1*
X12502Y30549D1*
X12645Y30405D1*
Y30606D1*
Y30756D2*
X12344Y30900D1*
Y30699D1*
X17141Y37813D2*
X17270D1*
X17313Y37827D1*
X17328Y37842D1*
X17342Y37870D1*
Y37899D1*
X17328Y37927D1*
X17313Y37942D1*
X17270Y37956D1*
X17141D1*
Y37655D1*
X17241Y37813D2*
X17342Y37655D1*
X17449Y37884D2*
Y37899D1*
X17463Y37927D1*
X17478Y37942D1*
X17506Y37956D1*
X17564D1*
X17592Y37942D1*
X17607Y37927D1*
X17621Y37899D1*
Y37870D1*
X17607Y37841D1*
X17578Y37798D1*
X17434Y37655D1*
X17635D1*
X17800Y37956D2*
X17757Y37942D1*
X17742Y37913D1*
Y37884D1*
X17757Y37856D1*
X17785Y37841D1*
X17843Y37827D1*
X17886Y37813D1*
X17914Y37784D1*
X17929Y37755D1*
Y37712D1*
X17914Y37684D1*
X17900Y37669D1*
X17857Y37655D1*
X17800D1*
X17757Y37669D1*
X17742Y37684D1*
X17728Y37712D1*
Y37755D1*
X17742Y37784D1*
X17771Y37813D1*
X17814Y37827D1*
X17871Y37841D1*
X17900Y37856D1*
X17914Y37884D1*
Y37913D1*
X17900Y37942D1*
X17857Y37956D1*
X17800D1*
X15928Y37813D2*
X16057D1*
X16100Y37827D1*
X16115Y37842D1*
X16129Y37870D1*
Y37899D1*
X16115Y37927D1*
X16100Y37942D1*
X16057Y37956D1*
X15928D1*
Y37655D1*
X16028Y37813D2*
X16129Y37655D1*
X16236Y37884D2*
Y37899D1*
X16250Y37927D1*
X16265Y37942D1*
X16293Y37956D1*
X16351D1*
X16379Y37942D1*
X16394Y37927D1*
X16408Y37899D1*
Y37870D1*
X16394Y37841D1*
X16365Y37798D1*
X16221Y37655D1*
X16422D1*
X16702Y37856D2*
X16687Y37813D1*
X16659Y37784D1*
X16616Y37770D1*
X16601D1*
X16558Y37784D1*
X16530Y37813D1*
X16515Y37856D1*
Y37870D1*
X16530Y37913D1*
X16558Y37942D1*
X16601Y37956D1*
X16616D1*
X16659Y37942D1*
X16687Y37913D1*
X16702Y37856D1*
Y37784D1*
X16687Y37712D1*
X16659Y37669D1*
X16616Y37655D1*
X16587D1*
X16544Y37669D1*
X16530Y37698D1*
X12878Y36601D2*
Y36730D1*
X12863Y36774D1*
X12849Y36788D1*
X12820Y36802D1*
X12791D1*
X12763Y36788D1*
X12748Y36774D1*
X12734Y36730D1*
Y36601D1*
X13035D1*
X12878Y36702D2*
X13035Y36802D1*
X12734Y36924D2*
Y37081D1*
X12849Y36996D1*
Y37039D1*
X12863Y37067D1*
X12878Y37081D1*
X12921Y37096D1*
X12949D1*
X12992Y37081D1*
X13021Y37053D1*
X13035Y37010D1*
Y36967D1*
X13021Y36924D1*
X13007Y36910D1*
X12978Y36895D1*
X12734Y37275D2*
X12749Y37232D1*
X12792Y37203D1*
X12863Y37189D1*
X12906D1*
X12978Y37203D1*
X13021Y37232D1*
X13035Y37275D1*
Y37303D1*
X13021Y37346D1*
X12978Y37375D1*
X12906Y37390D1*
X12863D1*
X12792Y37375D1*
X12749Y37346D1*
X12734Y37303D1*
Y37275D1*
X12792Y37375D2*
X12978Y37203D1*
X12878Y35216D2*
Y35345D1*
X12863Y35388D1*
X12849Y35403D1*
X12820Y35417D1*
X12791D1*
X12763Y35403D1*
X12748Y35388D1*
X12734Y35345D1*
Y35216D1*
X13035D1*
X12878Y35316D2*
X13035Y35417D1*
X12734Y35538D2*
Y35696D1*
X12849Y35610D1*
Y35653D1*
X12863Y35682D1*
X12878Y35696D1*
X12921Y35710D1*
X12949D1*
X12992Y35696D1*
X13021Y35667D1*
X13035Y35624D1*
Y35581D1*
X13021Y35538D1*
X13007Y35524D1*
X12978Y35510D1*
X12792Y35803D2*
X12777Y35832D1*
X12734Y35875D1*
X13035D1*
X22836Y32758D2*
X22965D1*
X23009Y32772D1*
X23023Y32787D1*
X23037Y32815D1*
Y32844D1*
X23023Y32872D1*
X23009Y32887D1*
X22965Y32901D1*
X22836D1*
Y32600D1*
X22937Y32758D2*
X23037Y32600D1*
X23159Y32901D2*
X23316D1*
X23231Y32786D1*
X23274D1*
X23302Y32772D1*
X23316Y32758D1*
X23331Y32715D1*
Y32686D1*
X23316Y32643D1*
X23288Y32614D1*
X23245Y32600D1*
X23202D1*
X23159Y32614D1*
X23145Y32629D1*
X23130Y32657D1*
X23438Y32829D2*
Y32844D1*
X23452Y32872D1*
X23467Y32887D1*
X23496Y32901D1*
X23553D1*
X23581Y32887D1*
X23596Y32872D1*
X23610Y32844D1*
Y32815D1*
X23596Y32786D1*
X23567Y32743D1*
X23424Y32600D1*
X23625D1*
X22921Y37853D2*
X23050D1*
X23093Y37867D1*
X23107Y37882D1*
X23122Y37910D1*
Y37939D1*
X23107Y37967D1*
X23093Y37982D1*
X23050Y37996D1*
X22921D1*
Y37695D1*
X23021Y37853D2*
X23122Y37695D1*
X23243Y37996D2*
X23401D1*
X23315Y37881D1*
X23358D1*
X23386Y37867D1*
X23401Y37853D1*
X23415Y37810D1*
Y37781D1*
X23401Y37738D1*
X23372Y37709D1*
X23329Y37695D1*
X23286D1*
X23243Y37709D1*
X23229Y37724D1*
X23214Y37752D1*
X23537Y37996D2*
X23694D1*
X23608Y37881D1*
X23652D1*
X23680Y37867D1*
X23694Y37853D1*
X23709Y37810D1*
Y37781D1*
X23694Y37738D1*
X23666Y37709D1*
X23623Y37695D1*
X23580D1*
X23537Y37709D1*
X23523Y37724D1*
X23508Y37752D1*
X25899Y9533D2*
X26028D1*
X26071Y9547D1*
X26085Y9562D1*
X26100Y9590D1*
Y9619D1*
X26085Y9647D1*
X26071Y9662D1*
X26028Y9676D1*
X25899D1*
Y9375D1*
X25999Y9533D2*
X26100Y9375D1*
X26221Y9676D2*
X26379D1*
X26293Y9561D1*
X26336D1*
X26364Y9547D1*
X26379Y9533D1*
X26393Y9490D1*
Y9461D1*
X26379Y9418D1*
X26350Y9389D1*
X26307Y9375D1*
X26264D1*
X26221Y9389D1*
X26207Y9404D1*
X26192Y9432D1*
X26629Y9375D2*
Y9676D1*
X26486Y9475D1*
X26701D1*
X13840Y16861D2*
X13969D1*
X14012Y16875D1*
X14026Y16890D1*
X14041Y16918D1*
Y16947D1*
X14026Y16976D1*
X14012Y16990D1*
X13969Y17004D1*
X13840D1*
Y16703D1*
X13940Y16861D2*
X14041Y16703D1*
X14162Y17004D2*
X14320D1*
X14234Y16889D1*
X14277D1*
X14305Y16875D1*
X14320Y16861D1*
X14334Y16818D1*
Y16789D1*
X14320Y16746D1*
X14291Y16717D1*
X14248Y16703D1*
X14205D1*
X14162Y16717D1*
X14148Y16732D1*
X14133Y16760D1*
X14599Y17004D2*
X14456D1*
X14441Y16875D1*
X14456Y16889D1*
X14499Y16904D1*
X14542D1*
X14585Y16889D1*
X14613Y16861D1*
X14628Y16818D1*
Y16789D1*
X14613Y16746D1*
X14585Y16717D1*
X14542Y16703D1*
X14499D1*
X14456Y16717D1*
X14441Y16732D1*
X14427Y16760D1*
X12744Y16183D2*
X12873D1*
X12916Y16197D1*
X12930Y16212D1*
X12945Y16240D1*
Y16269D1*
X12930Y16297D1*
X12916Y16312D1*
X12873Y16326D1*
X12744D1*
Y16025D1*
X12844Y16183D2*
X12945Y16025D1*
X13066Y16326D2*
X13224D1*
X13138Y16211D1*
X13181D1*
X13209Y16197D1*
X13224Y16183D1*
X13238Y16140D1*
Y16111D1*
X13224Y16068D1*
X13195Y16039D1*
X13152Y16025D1*
X13109D1*
X13066Y16039D1*
X13052Y16054D1*
X13037Y16082D1*
X13503Y16283D2*
X13489Y16312D1*
X13446Y16326D1*
X13417D1*
X13374Y16312D1*
X13345Y16269D1*
X13331Y16197D1*
Y16125D1*
X13345Y16068D1*
X13374Y16039D1*
X13417Y16025D1*
X13431D1*
X13474Y16039D1*
X13503Y16068D1*
X13517Y16111D1*
Y16125D1*
X13503Y16168D1*
X13474Y16197D1*
X13431Y16211D1*
X13417D1*
X13374Y16197D1*
X13345Y16168D1*
X13331Y16125D1*
X13848Y39621D2*
Y39750D1*
X13833Y39793D1*
X13819Y39807D1*
X13790Y39822D1*
X13761D1*
X13733Y39807D1*
X13718Y39793D1*
X13704Y39750D1*
Y39621D1*
X14005D1*
X13848Y39721D2*
X14005Y39822D1*
X13704Y39943D2*
Y40101D1*
X13819Y40015D1*
Y40058D1*
X13833Y40086D1*
X13848Y40101D1*
X13891Y40115D1*
X13919D1*
X13962Y40101D1*
X13991Y40072D1*
X14005Y40029D1*
Y39986D1*
X13991Y39943D1*
X13977Y39929D1*
X13948Y39914D1*
X14005Y40265D2*
X13704Y40409D1*
Y40208D1*
X26791Y38523D2*
X26920D1*
X26963Y38537D1*
X26978Y38552D1*
X26992Y38580D1*
Y38609D1*
X26978Y38637D1*
X26963Y38652D1*
X26920Y38666D1*
X26791D1*
Y38365D1*
X26891Y38523D2*
X26992Y38365D1*
X27113Y38666D2*
X27271D1*
X27185Y38551D1*
X27228D1*
X27257Y38537D1*
X27271Y38523D1*
X27285Y38480D1*
Y38451D1*
X27271Y38408D1*
X27242Y38379D1*
X27199Y38365D1*
X27156D1*
X27113Y38379D1*
X27099Y38394D1*
X27084Y38422D1*
X27450Y38666D2*
X27407Y38652D1*
X27392Y38623D1*
Y38594D1*
X27407Y38566D1*
X27435Y38551D1*
X27493Y38537D1*
X27536Y38523D1*
X27564Y38494D1*
X27579Y38465D1*
Y38422D1*
X27564Y38394D1*
X27550Y38379D1*
X27507Y38365D1*
X27450D1*
X27407Y38379D1*
X27392Y38394D1*
X27378Y38422D1*
Y38465D1*
X27392Y38494D1*
X27421Y38523D1*
X27464Y38537D1*
X27521Y38551D1*
X27550Y38566D1*
X27564Y38594D1*
Y38623D1*
X27550Y38652D1*
X27507Y38666D1*
X27450D1*
X17513Y11804D2*
Y11933D1*
X17498Y11976D1*
X17484Y11990D1*
X17455Y12005D1*
X17426D1*
X17398Y11990D1*
X17383Y11976D1*
X17369Y11933D1*
Y11804D1*
X17670D1*
X17513Y11904D2*
X17670Y12005D1*
X17369Y12126D2*
Y12284D1*
X17484Y12198D1*
Y12241D1*
X17498Y12269D1*
X17513Y12284D1*
X17556Y12298D1*
X17584D1*
X17627Y12284D1*
X17656Y12255D1*
X17670Y12212D1*
Y12169D1*
X17656Y12126D1*
X17642Y12112D1*
X17613Y12097D1*
X17469Y12577D2*
X17513Y12563D1*
X17541Y12534D1*
X17556Y12491D1*
Y12477D1*
X17541Y12434D1*
X17513Y12405D1*
X17469Y12391D1*
X17455D1*
X17412Y12405D1*
X17384Y12434D1*
X17369Y12477D1*
Y12491D1*
X17384Y12534D1*
X17412Y12563D1*
X17469Y12577D1*
X17541D1*
X17613Y12563D1*
X17656Y12534D1*
X17670Y12491D1*
Y12463D1*
X17656Y12420D1*
X17627Y12405D1*
X22253Y39204D2*
Y39333D1*
X22238Y39376D1*
X22224Y39391D1*
X22196Y39405D1*
X22167D1*
X22138Y39391D1*
X22124Y39376D1*
X22109Y39333D1*
Y39204D1*
X22411D1*
X22253Y39304D2*
X22411Y39405D1*
Y39641D2*
X22110D1*
X22310Y39498D1*
Y39713D1*
X22110Y39892D2*
X22124Y39849D1*
X22167Y39820D1*
X22239Y39805D1*
X22282D1*
X22353Y39820D1*
X22397Y39849D1*
X22411Y39892D1*
Y39920D1*
X22397Y39963D1*
X22353Y39992D1*
X22282Y40006D1*
X22239D1*
X22167Y39992D1*
X22124Y39963D1*
X22110Y39920D1*
Y39892D1*
X22167Y39992D2*
X22353Y39820D1*
X16633Y11794D2*
Y11923D1*
X16618Y11966D1*
X16604Y11981D1*
X16575Y11995D1*
X16546D1*
X16518Y11981D1*
X16503Y11966D1*
X16489Y11923D1*
Y11794D1*
X16790D1*
X16633Y11894D2*
X16790Y11995D1*
Y12231D2*
X16489D1*
X16690Y12087D1*
Y12303D1*
X16547Y12395D2*
X16532Y12424D1*
X16489Y12467D1*
X16790D1*
X21574Y9913D2*
X21703D1*
X21746Y9927D1*
X21760Y9942D1*
X21775Y9970D1*
Y9999D1*
X21760Y10027D1*
X21746Y10042D1*
X21703Y10056D1*
X21574D1*
Y9755D1*
X21674Y9913D2*
X21775Y9755D1*
X22011D2*
Y10056D1*
X21867Y9855D1*
X22082D1*
X22190Y9984D2*
Y9999D1*
X22204Y10027D1*
X22218Y10042D1*
X22247Y10056D1*
X22304D1*
X22333Y10042D1*
X22347Y10027D1*
X22362Y9999D1*
Y9970D1*
X22347Y9941D1*
X22319Y9898D1*
X22175Y9755D1*
X22376D1*
X16859Y15738D2*
X16988D1*
X17031Y15752D1*
X17045Y15767D1*
X17060Y15795D1*
Y15824D1*
X17045Y15852D1*
X17031Y15867D1*
X16988Y15881D1*
X16859D1*
Y15580D1*
X16959Y15738D2*
X17060Y15580D1*
X17296D2*
Y15881D1*
X17152Y15680D1*
X17367D1*
X17489Y15881D2*
X17646D1*
X17561Y15766D1*
X17604D1*
X17632Y15752D1*
X17646Y15738D1*
X17661Y15695D1*
Y15666D1*
X17646Y15623D1*
X17618Y15594D1*
X17575Y15580D1*
X17532D1*
X17489Y15594D1*
X17475Y15609D1*
X17460Y15637D1*
X10157Y11555D2*
X10286D1*
X10329Y11570D1*
X10344Y11584D1*
X10358Y11613D1*
Y11642D1*
X10344Y11670D1*
X10329Y11685D1*
X10286Y11699D1*
X10157D1*
Y11398D1*
X10258Y11555D2*
X10358Y11398D1*
X10594D2*
Y11699D1*
X10451Y11498D1*
X10666D1*
X10902Y11398D2*
Y11699D1*
X10759Y11498D1*
X10974D1*
X32071Y36279D2*
Y36408D1*
X32057Y36451D1*
X32042Y36466D1*
X32014Y36480D1*
X31985D1*
X31957Y36466D1*
X31942Y36451D1*
X31928Y36408D1*
Y36279D1*
X32229D1*
X32071Y36379D2*
X32229Y36480D1*
Y36716D2*
X31928D1*
X32129Y36573D1*
Y36788D1*
X31928Y37053D2*
Y36909D1*
X32057Y36895D1*
X32043Y36909D1*
X32028Y36952D1*
Y36995D1*
X32043Y37038D1*
X32071Y37067D1*
X32114Y37081D1*
X32143D1*
X32186Y37067D1*
X32215Y37038D1*
X32229Y36995D1*
Y36952D1*
X32215Y36909D1*
X32200Y36895D1*
X32172Y36880D1*
X29031Y36983D2*
X29160D1*
X29203Y36997D1*
X29218Y37012D1*
X29232Y37040D1*
Y37069D1*
X29218Y37098D1*
X29203Y37112D1*
X29160Y37126D1*
X29031D1*
Y36825D1*
X29131Y36983D2*
X29232Y36825D1*
X29468D2*
Y37126D1*
X29324Y36925D1*
X29540D1*
X29804Y37083D2*
X29790Y37112D1*
X29747Y37126D1*
X29719D1*
X29675Y37112D1*
X29647Y37069D1*
X29632Y36997D1*
Y36925D1*
X29647Y36868D1*
X29675Y36839D1*
X29719Y36825D1*
X29733D1*
X29776Y36839D1*
X29804Y36868D1*
X29819Y36911D1*
Y36925D1*
X29804Y36969D1*
X29776Y36997D1*
X29733Y37011D1*
X29719D1*
X29675Y36997D1*
X29647Y36969D1*
X29632Y36925D1*
X29044Y39443D2*
X29173D1*
X29216Y39457D1*
X29231Y39472D1*
X29245Y39500D1*
Y39529D1*
X29231Y39558D1*
X29216Y39572D1*
X29173Y39586D1*
X29044D1*
Y39285D1*
X29145Y39443D2*
X29245Y39285D1*
X29481D2*
Y39586D1*
X29338Y39385D1*
X29553D1*
X29703Y39285D2*
X29847Y39586D1*
X29646D1*
X28762Y35349D2*
Y35478D1*
X28747Y35521D1*
X28733Y35536D1*
X28705Y35550D1*
X28676D1*
X28647Y35536D1*
X28633Y35521D1*
X28618Y35478D1*
Y35349D1*
X28920D1*
X28762Y35450D2*
X28920Y35550D1*
Y35786D2*
X28619D1*
X28819Y35643D1*
Y35858D1*
X28619Y36022D2*
X28633Y35979D1*
X28662Y35965D1*
X28690D1*
X28719Y35979D1*
X28734Y36008D1*
X28748Y36065D1*
X28762Y36108D1*
X28791Y36137D1*
X28819Y36151D1*
X28863D1*
X28891Y36137D1*
X28906Y36123D1*
X28920Y36080D1*
Y36022D1*
X28906Y35979D1*
X28891Y35965D1*
X28863Y35951D1*
X28819D1*
X28791Y35965D1*
X28762Y35994D1*
X28748Y36036D1*
X28734Y36094D1*
X28719Y36123D1*
X28690Y36137D1*
X28662D1*
X28633Y36123D1*
X28619Y36080D1*
Y36022D1*
X30783Y34322D2*
X30912D1*
X30956Y34336D1*
X30970Y34351D1*
X30984Y34379D1*
Y34408D1*
X30970Y34437D1*
X30956Y34451D1*
X30912Y34465D1*
X30783D1*
Y34164D1*
X30884Y34322D2*
X30984Y34164D1*
X31221D2*
Y34465D1*
X31077Y34264D1*
X31292D1*
X31572Y34365D2*
X31557Y34322D1*
X31529Y34293D1*
X31485Y34279D1*
X31471D1*
X31428Y34293D1*
X31400Y34322D1*
X31385Y34365D1*
Y34379D1*
X31400Y34422D1*
X31428Y34451D1*
X31471Y34465D1*
X31485D1*
X31529Y34451D1*
X31557Y34422D1*
X31572Y34365D1*
Y34293D1*
X31557Y34221D1*
X31529Y34178D1*
X31485Y34164D1*
X31457D1*
X31414Y34178D1*
X31400Y34207D1*
X10251Y10755D2*
X10380D1*
X10424Y10770D1*
X10438Y10784D1*
X10452Y10813D1*
Y10842D1*
X10438Y10870D1*
X10424Y10885D1*
X10380Y10899D1*
X10251D1*
Y10598D1*
X10352Y10755D2*
X10452Y10598D1*
X10717Y10899D2*
X10574D1*
X10560Y10770D1*
X10574Y10784D1*
X10617Y10798D1*
X10660D1*
X10703Y10784D1*
X10732Y10755D1*
X10746Y10712D1*
Y10684D1*
X10732Y10641D1*
X10703Y10612D1*
X10660Y10598D1*
X10617D1*
X10574Y10612D1*
X10560Y10626D1*
X10545Y10655D1*
X10925Y10899D2*
X10882Y10884D1*
X10853Y10841D1*
X10839Y10770D1*
Y10727D1*
X10853Y10655D1*
X10882Y10612D1*
X10925Y10598D1*
X10953D1*
X10996Y10612D1*
X11025Y10655D1*
X11040Y10727D1*
Y10770D1*
X11025Y10841D1*
X10996Y10884D1*
X10953Y10899D1*
X10925D1*
X11025Y10841D2*
X10853Y10655D1*
X18228Y8486D2*
Y8615D1*
X18213Y8658D1*
X18199Y8673D1*
X18170Y8687D1*
X18141D1*
X18113Y8673D1*
X18098Y8658D1*
X18084Y8615D1*
Y8486D1*
X18385D1*
X18228Y8586D2*
X18385Y8687D1*
X18084Y8952D2*
Y8808D1*
X18213Y8794D1*
X18199Y8808D1*
X18184Y8851D1*
Y8894D1*
X18199Y8937D1*
X18228Y8966D1*
X18271Y8980D1*
X18299D1*
X18342Y8966D1*
X18371Y8937D1*
X18385Y8894D1*
Y8851D1*
X18371Y8808D1*
X18357Y8794D1*
X18328Y8780D1*
X18142Y9073D2*
X18127Y9102D1*
X18084Y9145D1*
X18385D1*
X32071Y28226D2*
Y28355D1*
X32057Y28398D1*
X32042Y28413D1*
X32014Y28427D1*
X31985D1*
X31957Y28413D1*
X31942Y28398D1*
X31928Y28355D1*
Y28226D1*
X32229D1*
X32071Y28327D2*
X32229Y28427D1*
X31928Y28692D2*
Y28549D1*
X32057Y28534D1*
X32043Y28549D1*
X32028Y28592D1*
Y28634D1*
X32043Y28678D1*
X32071Y28706D1*
X32114Y28721D1*
X32143D1*
X32186Y28706D1*
X32215Y28678D1*
X32229Y28634D1*
Y28592D1*
X32215Y28549D1*
X32200Y28534D1*
X32172Y28520D1*
X32000Y28828D2*
X31985D1*
X31957Y28842D1*
X31942Y28856D1*
X31928Y28885D1*
Y28943D1*
X31942Y28971D1*
X31957Y28985D1*
X31985Y29000D1*
X32014D1*
X32043Y28985D1*
X32086Y28957D1*
X32229Y28813D1*
Y29014D1*
X29031Y28923D2*
X29160D1*
X29203Y28937D1*
X29217Y28952D1*
X29232Y28980D1*
Y29009D1*
X29217Y29037D1*
X29203Y29052D1*
X29160Y29066D1*
X29031D1*
Y28765D1*
X29131Y28923D2*
X29232Y28765D1*
X29496Y29066D2*
X29353D1*
X29339Y28937D1*
X29353Y28951D1*
X29396Y28966D1*
X29439D1*
X29482Y28951D1*
X29511Y28923D1*
X29525Y28880D1*
Y28851D1*
X29511Y28808D1*
X29482Y28779D1*
X29439Y28765D1*
X29396D1*
X29353Y28779D1*
X29339Y28794D1*
X29324Y28822D1*
X29647Y29066D2*
X29804D1*
X29718Y28951D1*
X29762D1*
X29790Y28937D1*
X29804Y28923D1*
X29819Y28880D1*
Y28851D1*
X29804Y28808D1*
X29776Y28779D1*
X29733Y28765D1*
X29690D1*
X29647Y28779D1*
X29633Y28794D1*
X29618Y28822D1*
X29044Y31383D2*
X29173D1*
X29216Y31397D1*
X29231Y31412D1*
X29245Y31440D1*
Y31469D1*
X29231Y31497D1*
X29216Y31512D1*
X29173Y31526D1*
X29044D1*
Y31225D1*
X29145Y31383D2*
X29245Y31225D1*
X29510Y31526D2*
X29367D1*
X29352Y31397D1*
X29367Y31411D1*
X29410Y31426D1*
X29453D1*
X29496Y31411D1*
X29525Y31383D1*
X29539Y31340D1*
Y31311D1*
X29525Y31268D1*
X29496Y31239D1*
X29453Y31225D1*
X29410D1*
X29367Y31239D1*
X29352Y31254D1*
X29338Y31282D1*
X29775Y31225D2*
Y31526D1*
X29632Y31325D1*
X29847D1*
X28502Y23966D2*
Y24095D1*
X28487Y24138D1*
X28473Y24153D1*
X28445Y24167D1*
X28416D1*
X28387Y24153D1*
X28373Y24138D1*
X28358Y24095D1*
Y23966D1*
X28660D1*
X28502Y24067D2*
X28660Y24167D1*
X28359Y24432D2*
Y24289D1*
X28488Y24274D1*
X28474Y24289D1*
X28459Y24332D1*
Y24374D1*
X28474Y24418D1*
X28502Y24446D1*
X28545Y24461D1*
X28574D1*
X28617Y24446D1*
X28646Y24418D1*
X28660Y24374D1*
Y24332D1*
X28646Y24289D1*
X28631Y24274D1*
X28603Y24260D1*
X28359Y24725D2*
Y24582D1*
X28488Y24568D1*
X28474Y24582D1*
X28459Y24625D1*
Y24668D1*
X28474Y24711D1*
X28502Y24740D1*
X28545Y24754D1*
X28574D1*
X28617Y24740D1*
X28646Y24711D1*
X28660Y24668D1*
Y24625D1*
X28646Y24582D1*
X28631Y24568D1*
X28603Y24553D1*
X30791Y26182D2*
X30920D1*
X30963Y26196D1*
X30977Y26211D1*
X30992Y26239D1*
Y26268D1*
X30977Y26297D1*
X30963Y26311D1*
X30920Y26325D1*
X30791D1*
Y26024D1*
X30891Y26182D2*
X30992Y26024D1*
X31256Y26325D2*
X31113D1*
X31099Y26196D1*
X31113Y26210D1*
X31156Y26225D1*
X31199D1*
X31242Y26210D1*
X31271Y26182D1*
X31285Y26139D1*
Y26110D1*
X31271Y26067D1*
X31242Y26038D1*
X31199Y26024D1*
X31156D1*
X31113Y26038D1*
X31099Y26053D1*
X31084Y26081D1*
X31550Y26282D2*
X31536Y26311D1*
X31493Y26325D1*
X31464D1*
X31421Y26311D1*
X31392Y26268D1*
X31378Y26196D1*
Y26124D1*
X31392Y26067D1*
X31421Y26038D1*
X31464Y26024D1*
X31478D1*
X31521Y26038D1*
X31550Y26067D1*
X31564Y26110D1*
Y26124D1*
X31550Y26168D1*
X31521Y26196D1*
X31478Y26210D1*
X31464D1*
X31421Y26196D1*
X31392Y26168D1*
X31378Y26124D1*
X12131Y25003D2*
X12260D1*
X12304Y25017D1*
X12318Y25032D1*
X12332Y25060D1*
Y25089D1*
X12318Y25117D1*
X12304Y25132D1*
X12260Y25146D1*
X12131D1*
Y24845D1*
X12232Y25003D2*
X12332Y24845D1*
X12597Y25146D2*
X12454D1*
X12440Y25017D1*
X12454Y25031D1*
X12497Y25046D1*
X12540D1*
X12583Y25031D1*
X12612Y25003D1*
X12626Y24960D1*
Y24931D1*
X12612Y24888D1*
X12583Y24859D1*
X12540Y24845D1*
X12497D1*
X12454Y24859D1*
X12440Y24874D1*
X12425Y24902D1*
X12776Y24845D2*
X12920Y25146D1*
X12719D1*
X12173Y25437D2*
Y25566D1*
X12158Y25609D1*
X12144Y25623D1*
X12115Y25638D1*
X12086D1*
X12058Y25623D1*
X12043Y25609D1*
X12029Y25566D1*
Y25437D1*
X12330D1*
X12173Y25537D2*
X12330Y25638D1*
X12029Y25902D2*
Y25759D1*
X12158Y25745D1*
X12144Y25759D1*
X12129Y25802D1*
Y25845D1*
X12144Y25888D1*
X12173Y25917D1*
X12216Y25931D1*
X12244D1*
X12287Y25917D1*
X12316Y25888D1*
X12330Y25845D1*
Y25802D1*
X12316Y25759D1*
X12302Y25745D1*
X12273Y25730D1*
X12029Y26095D2*
X12044Y26053D1*
X12072Y26038D1*
X12101D1*
X12129Y26053D1*
X12144Y26081D1*
X12158Y26139D1*
X12173Y26182D1*
X12201Y26210D1*
X12230Y26224D1*
X12273D1*
X12302Y26210D1*
X12316Y26196D1*
X12330Y26153D1*
Y26095D1*
X12316Y26053D1*
X12302Y26038D1*
X12273Y26024D1*
X12230D1*
X12201Y26038D1*
X12173Y26067D1*
X12158Y26110D1*
X12144Y26167D1*
X12129Y26196D1*
X12101Y26210D1*
X12072D1*
X12044Y26196D1*
X12029Y26153D1*
Y26095D1*
X32059Y20253D2*
Y20382D1*
X32044Y20425D1*
X32030Y20439D1*
X32001Y20453D1*
X31972D1*
X31944Y20439D1*
X31929Y20425D1*
X31915Y20382D1*
Y20253D1*
X32216D1*
X32059Y20353D2*
X32216Y20453D1*
X31915Y20718D2*
Y20575D1*
X32044Y20561D1*
X32030Y20575D1*
X32015Y20618D1*
Y20661D1*
X32030Y20704D1*
X32059Y20733D1*
X32102Y20747D1*
X32130D1*
X32173Y20733D1*
X32202Y20704D1*
X32216Y20661D1*
Y20618D1*
X32202Y20575D1*
X32188Y20561D1*
X32159Y20546D1*
X32015Y21026D2*
X32059Y21012D1*
X32087Y20983D1*
X32102Y20940D1*
Y20926D1*
X32087Y20883D1*
X32059Y20854D1*
X32015Y20840D1*
X32001D1*
X31958Y20854D1*
X31930Y20883D1*
X31915Y20926D1*
Y20940D1*
X31930Y20983D1*
X31958Y21012D1*
X32015Y21026D1*
X32087D1*
X32159Y21012D1*
X32202Y20983D1*
X32216Y20940D1*
Y20912D1*
X32202Y20869D1*
X32173Y20854D1*
X29025Y20942D2*
X29154D1*
X29197Y20957D1*
X29212Y20971D1*
X29226Y20999D1*
Y21028D1*
X29212Y21057D1*
X29197Y21071D1*
X29154Y21086D1*
X29025D1*
Y20784D1*
X29126Y20942D2*
X29226Y20784D1*
X29491Y21043D2*
X29477Y21071D1*
X29434Y21085D1*
X29405D1*
X29362Y21071D1*
X29333Y21028D1*
X29319Y20956D1*
Y20885D1*
X29333Y20827D1*
X29362Y20798D1*
X29405Y20784D1*
X29419D1*
X29462Y20798D1*
X29491Y20827D1*
X29505Y20870D1*
Y20885D1*
X29491Y20928D1*
X29462Y20956D1*
X29419Y20971D1*
X29405D1*
X29362Y20956D1*
X29333Y20928D1*
X29319Y20885D1*
X29684Y21085D2*
X29641Y21071D1*
X29612Y21028D1*
X29598Y20956D1*
Y20913D1*
X29612Y20842D1*
X29641Y20798D1*
X29684Y20784D1*
X29713D1*
X29756Y20798D1*
X29784Y20842D1*
X29799Y20913D1*
Y20956D1*
X29784Y21028D1*
X29756Y21071D1*
X29713Y21085D1*
X29684D1*
X29784Y21028D2*
X29612Y20842D1*
X29110Y23402D2*
X29239D1*
X29283Y23417D1*
X29297Y23431D1*
X29311Y23459D1*
Y23488D1*
X29297Y23517D1*
X29283Y23531D1*
X29239Y23546D1*
X29110D1*
Y23244D1*
X29211Y23402D2*
X29311Y23244D1*
X29576Y23503D2*
X29562Y23531D1*
X29519Y23545D1*
X29490D1*
X29447Y23531D1*
X29418Y23488D1*
X29404Y23416D1*
Y23345D1*
X29418Y23287D1*
X29447Y23258D1*
X29490Y23244D1*
X29505D1*
X29547Y23258D1*
X29576Y23287D1*
X29590Y23330D1*
Y23345D1*
X29576Y23388D1*
X29547Y23416D1*
X29505Y23431D1*
X29490D1*
X29447Y23416D1*
X29418Y23388D1*
X29404Y23345D1*
X29683Y23488D2*
X29712Y23503D1*
X29755Y23545D1*
Y23244D1*
X28469Y16013D2*
Y16142D1*
X28455Y16185D1*
X28440Y16199D1*
X28412Y16214D1*
X28383D1*
X28355Y16199D1*
X28340Y16185D1*
X28326Y16142D1*
Y16013D1*
X28627D1*
X28469Y16113D2*
X28627Y16214D1*
X28369Y16478D2*
X28340Y16464D1*
X28326Y16421D1*
Y16393D1*
X28340Y16349D1*
X28383Y16321D1*
X28455Y16306D1*
X28527D1*
X28584Y16321D1*
X28613Y16349D1*
X28627Y16393D1*
Y16407D1*
X28613Y16450D1*
X28584Y16478D1*
X28541Y16493D1*
X28527D1*
X28484Y16478D1*
X28455Y16450D1*
X28441Y16407D1*
Y16393D1*
X28455Y16349D1*
X28484Y16321D1*
X28527Y16306D1*
X28398Y16600D2*
X28383D1*
X28355Y16614D1*
X28340Y16628D1*
X28326Y16657D1*
Y16715D1*
X28340Y16743D1*
X28355Y16757D1*
X28383Y16772D1*
X28412D1*
X28441Y16757D1*
X28484Y16729D1*
X28627Y16585D1*
Y16786D1*
X30788Y18131D2*
X30917D1*
X30960Y18146D1*
X30975Y18160D1*
X30989Y18188D1*
Y18217D1*
X30975Y18246D1*
X30960Y18260D1*
X30917Y18275D1*
X30788D1*
Y17973D1*
X30889Y18131D2*
X30989Y17973D1*
X31254Y18232D2*
X31239Y18260D1*
X31196Y18274D1*
X31168D1*
X31125Y18260D1*
X31096Y18217D1*
X31082Y18145D1*
Y18074D1*
X31096Y18016D1*
X31125Y17988D1*
X31168Y17973D1*
X31182D1*
X31225Y17988D1*
X31254Y18016D1*
X31268Y18059D1*
Y18074D1*
X31254Y18117D1*
X31225Y18145D1*
X31182Y18160D1*
X31168D1*
X31125Y18145D1*
X31096Y18117D1*
X31082Y18074D1*
X31389Y18274D2*
X31547D1*
X31461Y18160D1*
X31504D1*
X31533Y18145D1*
X31547Y18131D1*
X31562Y18088D1*
Y18059D1*
X31547Y18016D1*
X31518Y17988D1*
X31475Y17973D1*
X31432D1*
X31389Y17988D1*
X31375Y18002D1*
X31361Y18031D1*
X24417Y24873D2*
X24546D1*
X24589Y24887D1*
X24603Y24902D1*
X24618Y24930D1*
Y24959D1*
X24603Y24987D1*
X24589Y25002D1*
X24546Y25016D1*
X24417D1*
Y24715D1*
X24517Y24873D2*
X24618Y24715D1*
X24882Y24973D2*
X24868Y25002D1*
X24825Y25016D1*
X24796D1*
X24753Y25002D1*
X24724Y24959D1*
X24710Y24887D1*
Y24815D1*
X24724Y24758D1*
X24753Y24729D1*
X24796Y24715D1*
X24811D1*
X24853Y24729D1*
X24882Y24758D1*
X24897Y24801D1*
Y24815D1*
X24882Y24858D1*
X24853Y24887D1*
X24811Y24901D1*
X24796D1*
X24753Y24887D1*
X24724Y24858D1*
X24710Y24815D1*
X25133Y24715D2*
Y25016D1*
X24989Y24815D1*
X25204D1*
X32061Y12281D2*
Y12410D1*
X32047Y12453D1*
X32032Y12467D1*
X32004Y12482D1*
X31975D1*
X31947Y12467D1*
X31932Y12453D1*
X31918Y12410D1*
Y12281D1*
X32219D1*
X32061Y12381D2*
X32219Y12482D1*
X31961Y12746D2*
X31932Y12732D1*
X31918Y12689D1*
Y12660D1*
X31932Y12617D1*
X31975Y12589D1*
X32047Y12574D1*
X32119D1*
X32176Y12589D1*
X32205Y12617D1*
X32219Y12660D1*
Y12675D1*
X32205Y12718D1*
X32176Y12746D1*
X32133Y12761D1*
X32119D1*
X32076Y12746D1*
X32047Y12718D1*
X32033Y12675D1*
Y12660D1*
X32047Y12617D1*
X32076Y12589D1*
X32119Y12574D1*
X31961Y13025D2*
X31932Y13011D1*
X31918Y12968D1*
Y12939D1*
X31932Y12896D1*
X31975Y12868D1*
X32047Y12853D1*
X32119D1*
X32176Y12868D1*
X32205Y12896D1*
X32219Y12939D1*
Y12954D1*
X32205Y12997D1*
X32176Y13025D1*
X32133Y13040D1*
X32119D1*
X32076Y13025D1*
X32047Y12997D1*
X32033Y12954D1*
Y12939D1*
X32047Y12896D1*
X32076Y12868D1*
X32119Y12853D1*
X29028Y12963D2*
X29157D1*
X29200Y12977D1*
X29215Y12992D1*
X29229Y13020D1*
Y13049D1*
X29215Y13077D1*
X29200Y13092D1*
X29157Y13106D1*
X29028D1*
Y12805D1*
X29129Y12963D2*
X29229Y12805D1*
X29494Y13063D2*
X29479Y13092D1*
X29436Y13106D1*
X29408D1*
X29365Y13092D1*
X29336Y13049D1*
X29322Y12977D1*
Y12905D1*
X29336Y12848D1*
X29365Y12819D1*
X29408Y12805D1*
X29422D1*
X29465Y12819D1*
X29494Y12848D1*
X29508Y12891D1*
Y12905D1*
X29494Y12948D1*
X29465Y12977D1*
X29422Y12991D1*
X29408D1*
X29365Y12977D1*
X29336Y12948D1*
X29322Y12905D1*
X29658Y12805D2*
X29802Y13106D1*
X29601D1*
X29049Y15423D2*
X29178D1*
X29221Y15437D1*
X29236Y15452D1*
X29250Y15480D1*
Y15509D1*
X29236Y15537D1*
X29221Y15552D1*
X29178Y15566D1*
X29049D1*
Y15265D1*
X29149Y15423D2*
X29250Y15265D1*
X29515Y15523D2*
X29500Y15552D1*
X29457Y15566D1*
X29429D1*
X29386Y15552D1*
X29357Y15509D1*
X29342Y15437D1*
Y15365D1*
X29357Y15308D1*
X29386Y15279D1*
X29429Y15265D1*
X29443D1*
X29486Y15279D1*
X29515Y15308D1*
X29529Y15351D1*
Y15365D1*
X29515Y15408D1*
X29486Y15437D1*
X29443Y15451D1*
X29429D1*
X29386Y15437D1*
X29357Y15408D1*
X29342Y15365D1*
X29693Y15566D2*
X29650Y15552D1*
X29636Y15523D1*
Y15494D1*
X29650Y15466D1*
X29679Y15451D1*
X29736Y15437D1*
X29779Y15423D1*
X29808Y15394D1*
X29822Y15365D1*
Y15322D1*
X29808Y15294D1*
X29794Y15279D1*
X29750Y15265D1*
X29693D1*
X29650Y15279D1*
X29636Y15294D1*
X29622Y15322D1*
Y15365D1*
X29636Y15394D1*
X29665Y15423D1*
X29707Y15437D1*
X29765Y15451D1*
X29794Y15466D1*
X29808Y15494D1*
Y15523D1*
X29794Y15552D1*
X29750Y15566D1*
X29693D1*
X28452Y8041D2*
Y8170D1*
X28437Y8213D1*
X28423Y8227D1*
X28395Y8241D1*
X28366D1*
X28337Y8227D1*
X28323Y8213D1*
X28308Y8170D1*
Y8041D1*
X28610D1*
X28452Y8141D2*
X28610Y8241D1*
X28352Y8506D2*
X28323Y8492D1*
X28309Y8449D1*
Y8420D1*
X28323Y8377D1*
X28366Y8348D1*
X28438Y8334D1*
X28509D1*
X28567Y8348D1*
X28596Y8377D1*
X28610Y8420D1*
Y8435D1*
X28596Y8477D1*
X28567Y8506D1*
X28524Y8520D1*
X28509D1*
X28466Y8506D1*
X28438Y8477D1*
X28424Y8435D1*
Y8420D1*
X28438Y8377D1*
X28466Y8348D1*
X28509Y8334D1*
X28409Y8800D2*
X28452Y8785D1*
X28481Y8757D1*
X28495Y8714D1*
Y8699D1*
X28481Y8656D1*
X28452Y8628D1*
X28409Y8613D1*
X28395D1*
X28352Y8628D1*
X28323Y8656D1*
X28309Y8699D1*
Y8714D1*
X28323Y8757D1*
X28352Y8785D1*
X28409Y8800D1*
X28481D1*
X28553Y8785D1*
X28596Y8757D1*
X28610Y8714D1*
Y8685D1*
X28596Y8642D1*
X28567Y8628D1*
X30773Y10352D2*
X30902D1*
X30946Y10366D1*
X30960Y10381D1*
X30974Y10409D1*
Y10438D1*
X30960Y10467D1*
X30946Y10481D1*
X30902Y10495D1*
X30773D1*
Y10194D1*
X30874Y10352D2*
X30974Y10194D1*
X31124D2*
X31268Y10495D1*
X31067D1*
X31447D2*
X31404Y10481D1*
X31375Y10438D1*
X31361Y10366D1*
Y10323D1*
X31375Y10251D1*
X31404Y10208D1*
X31447Y10194D1*
X31475D1*
X31519Y10208D1*
X31547Y10251D1*
X31562Y10323D1*
Y10366D1*
X31547Y10438D1*
X31519Y10481D1*
X31475Y10495D1*
X31447D1*
X31547Y10438D2*
X31375Y10251D1*
X28974Y37750D2*
X28945Y37722D1*
X28931Y37679D1*
Y37621D1*
X28945Y37578D1*
X28974Y37549D1*
X29002D1*
X29031Y37564D1*
X29046Y37578D1*
X29060Y37607D1*
X29089Y37693D1*
X29103Y37722D1*
X29118Y37736D1*
X29146Y37750D1*
X29189D1*
X29218Y37722D1*
X29232Y37679D1*
Y37621D1*
X29218Y37578D1*
X29189Y37549D1*
X28931Y37986D2*
X29160D1*
X29203Y37972D1*
X29218Y37958D1*
X29232Y37929D1*
Y37900D1*
X29218Y37872D1*
X29203Y37857D1*
X29160Y37843D1*
X29132D1*
X28989Y38079D2*
X28974Y38108D1*
X28931Y38151D1*
X29232D1*
X28974Y29626D2*
X28945Y29597D1*
X28931Y29554D1*
Y29497D1*
X28945Y29454D1*
X28974Y29425D1*
X29002D1*
X29031Y29439D1*
X29046Y29454D1*
X29060Y29482D1*
X29089Y29568D1*
X29103Y29597D1*
X29118Y29611D1*
X29146Y29626D1*
X29189D1*
X29218Y29597D1*
X29232Y29554D1*
Y29497D1*
X29218Y29454D1*
X29189Y29425D1*
X28931Y29862D2*
X29160D1*
X29203Y29848D1*
X29218Y29833D1*
X29232Y29805D1*
Y29776D1*
X29218Y29747D1*
X29203Y29733D1*
X29160Y29718D1*
X29132D1*
X29003Y29969D2*
X28989D1*
X28960Y29983D1*
X28945Y29998D1*
X28931Y30027D1*
Y30084D1*
X28945Y30112D1*
X28960Y30127D1*
X28989Y30141D1*
X29017D1*
X29046Y30127D1*
X29089Y30098D1*
X29232Y29955D1*
Y30156D1*
X28961Y21645D2*
X28932Y21617D1*
X28918Y21573D1*
Y21516D1*
X28932Y21473D1*
X28961Y21444D1*
X28990D1*
X29019Y21459D1*
X29033Y21473D1*
X29047Y21501D1*
X29076Y21588D1*
X29090Y21617D1*
X29105Y21631D1*
X29133Y21645D1*
X29176D1*
X29205Y21617D1*
X29220Y21573D1*
Y21516D1*
X29205Y21473D1*
X29176Y21444D1*
X28918Y21881D2*
X29148D1*
X29191Y21867D1*
X29205Y21852D1*
X29220Y21824D1*
Y21795D1*
X29205Y21767D1*
X29191Y21752D1*
X29148Y21738D1*
X29119D1*
X28918Y22003D2*
Y22160D1*
X29033Y22074D1*
Y22117D1*
X29047Y22146D1*
X29062Y22160D1*
X29105Y22175D1*
X29133D1*
X29176Y22160D1*
X29205Y22132D1*
X29220Y22089D1*
Y22046D1*
X29205Y22003D1*
X29191Y21988D1*
X29162Y21974D1*
X28964Y13659D2*
X28935Y13630D1*
X28921Y13587D1*
Y13530D1*
X28935Y13486D1*
X28964Y13458D1*
X28992D1*
X29021Y13472D1*
X29036Y13486D1*
X29050Y13515D1*
X29079Y13601D1*
X29093Y13630D1*
X29108Y13644D1*
X29136Y13659D1*
X29179D1*
X29208Y13630D1*
X29222Y13587D1*
Y13530D1*
X29208Y13486D1*
X29179Y13458D1*
X28921Y13895D2*
X29150D1*
X29193Y13881D1*
X29208Y13866D1*
X29222Y13837D1*
Y13809D1*
X29208Y13780D1*
X29193Y13766D1*
X29150Y13751D1*
X29122D1*
X29222Y14131D2*
X28921D1*
X29122Y13987D1*
Y14203D1*
X4381Y17136D2*
Y16834D1*
X4281Y17136D2*
X4482D1*
X4574Y16978D2*
X4704D1*
X4746Y16992D1*
X4761Y17007D1*
X4775Y17035D1*
Y17078D1*
X4761Y17107D1*
X4746Y17121D1*
X4704Y17136D1*
X4574D1*
Y16834D1*
X4868Y17078D2*
X4897Y17093D1*
X4940Y17135D1*
Y16834D1*
X5197Y11246D2*
Y10944D1*
X5096Y11246D2*
X5297D1*
X5390Y11088D2*
X5519D1*
X5562Y11102D1*
X5576Y11117D1*
X5591Y11145D1*
Y11188D1*
X5576Y11217D1*
X5562Y11231D1*
X5519Y11246D1*
X5390D1*
Y10944D1*
X5698Y11174D2*
Y11188D1*
X5712Y11217D1*
X5726Y11231D1*
X5755Y11245D1*
X5813D1*
X5841Y11231D1*
X5855Y11217D1*
X5870Y11188D1*
Y11159D1*
X5855Y11131D1*
X5827Y11088D1*
X5683Y10944D1*
X5884D1*
X16898Y26882D2*
Y26667D1*
X16913Y26624D1*
X16941Y26596D1*
X16984Y26581D1*
X17013D1*
X17056Y26596D1*
X17085Y26624D1*
X17099Y26667D1*
Y26882D1*
X17192Y26825D2*
X17221Y26839D1*
X17264Y26882D1*
Y26581D1*
X16535Y25692D2*
Y25477D1*
X16549Y25434D1*
X16578Y25406D1*
X16621Y25391D1*
X16650D1*
X16693Y25406D1*
X16722Y25434D1*
X16736Y25477D1*
Y25692D1*
X16843Y25620D2*
Y25635D1*
X16858Y25664D1*
X16872Y25678D1*
X16901Y25692D1*
X16958D1*
X16987Y25678D1*
X17001Y25664D1*
X17016Y25635D1*
Y25606D1*
X17001Y25577D1*
X16972Y25535D1*
X16829Y25391D1*
X17030D1*
X13762Y13418D2*
Y13203D1*
X13776Y13160D1*
X13805Y13131D1*
X13848Y13116D1*
X13876D1*
X13919Y13131D1*
X13948Y13160D1*
X13963Y13203D1*
Y13418D1*
X14084D2*
X14242D1*
X14156Y13303D1*
X14199D1*
X14227Y13289D1*
X14242Y13274D1*
X14256Y13231D1*
Y13203D1*
X14242Y13160D1*
X14213Y13131D1*
X14170Y13116D1*
X14127D1*
X14084Y13131D1*
X14070Y13145D1*
X14055Y13174D1*
X15821Y13186D2*
Y12970D1*
X15835Y12927D1*
X15864Y12899D1*
X15907Y12884D1*
X15936D1*
X15979Y12899D1*
X16008Y12927D1*
X16022Y12970D1*
Y13186D1*
X16258Y12884D2*
Y13185D1*
X16114Y12985D1*
X16330D1*
X14813Y32300D2*
Y32084D1*
X14827Y32041D1*
X14856Y32013D1*
X14899Y31998D1*
X14928D1*
X14971Y32013D1*
X15000Y32041D1*
X15014Y32084D1*
Y32300D1*
X15279Y32299D2*
X15135D1*
X15121Y32170D1*
X15135Y32185D1*
X15179Y32199D1*
X15221D1*
X15264Y32185D1*
X15293Y32156D1*
X15308Y32113D1*
Y32084D1*
X15293Y32041D1*
X15264Y32012D1*
X15221Y31998D1*
X15179D1*
X15135Y32012D1*
X15121Y32027D1*
X15107Y32056D1*
X15100Y37370D2*
Y37154D1*
X15115Y37111D1*
X15143Y37083D1*
X15186Y37068D1*
X15215D1*
X15258Y37083D1*
X15287Y37111D1*
X15301Y37154D1*
Y37370D1*
X15566Y37327D2*
X15552Y37355D1*
X15509Y37369D1*
X15480D1*
X15437Y37355D1*
X15408Y37312D1*
X15394Y37240D1*
Y37169D1*
X15408Y37111D1*
X15437Y37082D1*
X15480Y37068D1*
X15494D1*
X15537Y37082D1*
X15566Y37111D1*
X15580Y37154D1*
Y37169D1*
X15566Y37212D1*
X15537Y37240D1*
X15494Y37255D1*
X15480D1*
X15437Y37240D1*
X15408Y37212D1*
X15394Y37169D1*
X12799Y18694D2*
Y18479D1*
X12813Y18436D1*
X12842Y18407D1*
X12885Y18393D1*
X12914D1*
X12957Y18407D1*
X12986Y18436D1*
X13000Y18479D1*
Y18694D1*
X13150Y18393D2*
X13293Y18694D1*
X13092D1*
X9931Y20317D2*
Y20102D1*
X9945Y20059D1*
X9974Y20030D1*
X10017Y20016D1*
X10046D1*
X10089Y20030D1*
X10117Y20059D1*
X10132Y20102D1*
Y20317D1*
X10296D2*
X10253Y20303D1*
X10239Y20274D1*
Y20245D1*
X10253Y20217D1*
X10282Y20202D1*
X10339Y20188D1*
X10382Y20174D1*
X10411Y20145D1*
X10425Y20116D1*
Y20073D1*
X10411Y20045D1*
X10396Y20030D1*
X10353Y20016D1*
X10296D1*
X10253Y20030D1*
X10239Y20045D1*
X10224Y20073D1*
Y20116D1*
X10239Y20145D1*
X10267Y20174D1*
X10310Y20188D1*
X10368Y20202D1*
X10396Y20217D1*
X10411Y20245D1*
Y20274D1*
X10396Y20303D1*
X10353Y20317D1*
X10296D1*
X34914Y37148D2*
Y36933D1*
X34929Y36889D1*
X34957Y36861D1*
X35000Y36846D1*
X35029D1*
X35072Y36861D1*
X35101Y36889D1*
X35115Y36933D1*
Y37148D1*
X35395Y37047D2*
X35380Y37004D1*
X35351Y36975D1*
X35308Y36961D1*
X35294D1*
X35251Y36975D1*
X35222Y37004D1*
X35208Y37047D1*
Y37062D1*
X35222Y37105D1*
X35251Y37133D1*
X35294Y37147D1*
X35308D1*
X35351Y37133D1*
X35380Y37105D1*
X35395Y37047D1*
Y36975D1*
X35380Y36904D1*
X35351Y36861D1*
X35308Y36846D1*
X35280D1*
X35237Y36861D1*
X35222Y36889D1*
X34925Y29128D2*
Y28913D1*
X34939Y28869D1*
X34968Y28841D1*
X35011Y28826D1*
X35040D1*
X35083Y28841D1*
X35112Y28869D1*
X35126Y28913D1*
Y29128D1*
X35218Y29070D2*
X35247Y29085D1*
X35290Y29127D1*
Y28826D1*
X35469Y29127D2*
X35426Y29113D1*
X35397Y29070D1*
X35383Y28998D1*
Y28955D1*
X35397Y28884D1*
X35426Y28841D1*
X35469Y28826D1*
X35498D1*
X35541Y28841D1*
X35569Y28884D1*
X35584Y28955D1*
Y28998D1*
X35569Y29070D1*
X35541Y29113D1*
X35498Y29127D1*
X35469D1*
X35569Y29070D2*
X35397Y28884D1*
X34897Y21107D2*
Y20892D1*
X34911Y20849D1*
X34940Y20820D1*
X34983Y20806D1*
X35011D1*
X35054Y20820D1*
X35083Y20849D1*
X35098Y20892D1*
Y21107D1*
X35190Y21049D2*
X35219Y21064D1*
X35262Y21107D1*
Y20806D1*
X35355Y21049D2*
X35384Y21064D1*
X35427Y21107D1*
Y20806D1*
X34955Y13108D2*
Y12893D1*
X34969Y12849D1*
X34998Y12821D1*
X35041Y12806D1*
X35070D1*
X35113Y12821D1*
X35142Y12849D1*
X35156Y12893D1*
Y13108D1*
X35248Y13050D2*
X35277Y13065D1*
X35320Y13107D1*
Y12806D1*
X35428Y13036D2*
Y13050D1*
X35442Y13079D1*
X35456Y13093D1*
X35485Y13107D1*
X35542D1*
X35571Y13093D1*
X35585Y13079D1*
X35600Y13050D1*
Y13022D1*
X35585Y12993D1*
X35557Y12950D1*
X35413Y12806D1*
X35614D1*
X6082Y28504D2*
X6298D1*
X6341Y28519D1*
X6369Y28547D1*
X6384Y28591D1*
Y28619D1*
X6369Y28662D1*
X6341Y28691D1*
X6298Y28705D1*
X6082D1*
X6140Y28798D2*
X6126Y28827D1*
X6083Y28870D1*
X6384D1*
X6083Y28991D2*
Y29149D1*
X6197Y29063D1*
Y29106D1*
X6212Y29135D1*
X6226Y29149D1*
X6269Y29163D1*
X6298D1*
X6341Y29149D1*
X6370Y29120D1*
X6384Y29077D1*
Y29034D1*
X6370Y28991D1*
X6355Y28977D1*
X6326Y28963D1*
X16618Y17088D2*
X16819Y16787D1*
Y17088D2*
X16618Y16787D1*
X16912Y17030D2*
X16941Y17045D1*
X16984Y17088D1*
Y16787D1*
X9568Y4881D2*
D252*
Y4379D1*
X9783D1*
X9855Y4403D1*
X9879Y4427D1*
X9903Y4475D1*
Y4547D1*
X9879Y4595D1*
X9855Y4618D1*
X9783Y4642D1*
X9855Y4666D1*
X9879Y4690D1*
X9903Y4738D1*
Y4786D1*
X9879Y4833D1*
X9855Y4858D1*
X9783Y4881D1*
X9568D1*
Y4642D2*
X9783D1*
X10057Y4714D2*
Y4475D1*
X10081Y4403D1*
X10129Y4379D1*
X10201D1*
X10248Y4403D1*
X10320Y4475D1*
Y4714D2*
Y4379D1*
X10547Y4881D2*
Y4475D1*
X10570Y4403D1*
X10618Y4379D1*
X10666D1*
X10475Y4714D2*
X10642D1*
X10892Y4881D2*
Y4475D1*
X10916Y4403D1*
X10964Y4379D1*
X11012D1*
X10820Y4714D2*
X10988D1*
X11285D2*
X11238Y4690D1*
X11190Y4642D1*
X11166Y4570D1*
Y4523D1*
X11190Y4451D1*
X11238Y4403D1*
X11285Y4379D1*
X11357D1*
X11405Y4403D1*
X11453Y4451D1*
X11477Y4523D1*
Y4570D1*
X11453Y4642D1*
X11405Y4690D1*
X11357Y4714D1*
X11285D1*
X11631D2*
Y4379D1*
Y4618D2*
X11703Y4690D1*
X11751Y4714D1*
X11823D1*
X11871Y4690D1*
X11895Y4618D1*
Y4379D1*
X12535Y4881D2*
Y4379D1*
X12822D1*
X13287Y4881D2*
X12976D1*
Y4379D1*
X13287D1*
X12976Y4642D2*
X13167D1*
X13441Y4881D2*
Y4379D1*
X13609D1*
X13681Y4403D1*
X13729Y4451D1*
X13752Y4499D1*
X13776Y4570D1*
Y4690D1*
X13752Y4762D1*
X13729Y4810D1*
X13681Y4858D1*
X13609Y4881D1*
X13441D1*
X34878Y4911D2*
X35213Y4409D1*
Y4911D2*
X34878Y4409D1*
X35367Y4660D2*
X35644D1*
X36133Y4840D2*
X36085Y4888D1*
X36013Y4911D1*
X35918D1*
X35846Y4888D1*
X35798Y4840D1*
Y4792D1*
X35822Y4744D1*
X35846Y4720D1*
X35894Y4696D1*
X36037Y4648D1*
X36085Y4625D1*
X36109Y4600D1*
X36133Y4553D1*
Y4481D1*
X36085Y4433D1*
X36013Y4409D1*
X35918D1*
X35846Y4433D1*
X35798Y4481D1*
X36455Y4911D2*
Y4409D1*
X36287Y4911D2*
X36622D1*
X36920D2*
X36872Y4888D1*
X36825Y4840D1*
X36800Y4792D1*
X36777Y4720D1*
Y4600D1*
X36800Y4529D1*
X36825Y4481D1*
X36872Y4433D1*
X36920Y4409D1*
X37016D1*
X37063Y4433D1*
X37112Y4481D1*
X37135Y4529D1*
X37159Y4600D1*
Y4720D1*
X37135Y4792D1*
X37112Y4840D1*
X37063Y4888D1*
X37016Y4911D1*
X36920D1*
X37313Y4648D2*
X37529D1*
X37600Y4672D1*
X37625Y4696D1*
X37648Y4744D1*
Y4816D1*
X37625Y4863D1*
X37600Y4888D1*
X37529Y4911D1*
X37313D1*
Y4409D1*
X26908Y4921D2*
X27099Y4682D1*
Y4419D1*
X27290Y4921D2*
X27099Y4682D1*
X27445Y4670D2*
X27721D1*
X28210Y4850D2*
X28163Y4898D1*
X28091Y4921D1*
X27995D1*
X27924Y4898D1*
X27875Y4850D1*
Y4802D1*
X27900Y4754D1*
X27924Y4730D1*
X27971Y4706D1*
X28115Y4658D1*
X28163Y4635D1*
X28187Y4610D1*
X28210Y4563D1*
Y4491D1*
X28163Y4443D1*
X28091Y4419D1*
X27995D1*
X27924Y4443D1*
X27875Y4491D1*
X28532Y4921D2*
Y4419D1*
X28365Y4921D2*
X28700D1*
X28998D2*
X28950Y4898D1*
X28902Y4850D1*
X28878Y4802D1*
X28854Y4730D1*
Y4610D1*
X28878Y4539D1*
X28902Y4491D1*
X28950Y4443D1*
X28998Y4419D1*
X29093D1*
X29141Y4443D1*
X29189Y4491D1*
X29213Y4539D1*
X29237Y4610D1*
Y4730D1*
X29213Y4802D1*
X29189Y4850D1*
X29141Y4898D1*
X29093Y4921D1*
X28998D1*
X29391Y4658D2*
X29607D1*
X29678Y4682D1*
X29702Y4706D1*
X29726Y4754D1*
Y4826D1*
X29702Y4873D1*
X29678Y4898D1*
X29607Y4921D1*
X29391D1*
Y4419D1*
X23558Y4891D2*
X23893D1*
X23558Y4389D1*
X23893D1*
X24047Y4640D2*
X24324D1*
X24813Y4820D2*
X24765Y4868D1*
X24693Y4891D1*
X24598D1*
X24526Y4868D1*
X24478Y4820D1*
Y4772D1*
X24502Y4724D1*
X24526Y4700D1*
X24574Y4676D1*
X24717Y4628D1*
X24765Y4605D1*
X24789Y4580D1*
X24813Y4533D1*
Y4461D1*
X24765Y4413D1*
X24693Y4389D1*
X24598D1*
X24526Y4413D1*
X24478Y4461D1*
X25135Y4891D2*
Y4389D1*
X24967Y4891D2*
X25302D1*
X25600D2*
X25552Y4868D1*
X25505Y4820D1*
X25480Y4772D1*
X25457Y4700D1*
Y4580D1*
X25480Y4509D1*
X25505Y4461D1*
X25552Y4413D1*
X25600Y4389D1*
X25696D1*
X25743Y4413D1*
X25792Y4461D1*
X25815Y4509D1*
X25839Y4580D1*
Y4700D1*
X25815Y4772D1*
X25792Y4820D1*
X25743Y4868D1*
X25696Y4891D1*
X25600D1*
X25993Y4628D2*
X26209D1*
X26280Y4652D1*
X26305Y4676D1*
X26328Y4724D1*
Y4796D1*
X26305Y4843D1*
X26280Y4868D1*
X26209Y4891D1*
X25993D1*
Y4389D1*
X20378Y4871D2*
X20068D1*
Y4369D1*
X20378D1*
X20068Y4632D2*
X20259D1*
X20533Y4620D2*
X20809D1*
X21299Y4800D2*
X21251Y4848D1*
X21179Y4871D1*
X21084D1*
X21012Y4848D1*
X20964Y4800D1*
Y4752D1*
X20988Y4704D1*
X21012Y4680D1*
X21059Y4656D1*
X21203Y4608D1*
X21251Y4585D1*
X21275Y4560D1*
X21299Y4513D1*
Y4441D1*
X21251Y4393D1*
X21179Y4369D1*
X21084D1*
X21012Y4393D1*
X20964Y4441D1*
X21620Y4871D2*
Y4369D1*
X21453Y4871D2*
X21788D1*
X22086D2*
X22038Y4848D1*
X21990Y4800D1*
X21966Y4752D1*
X21942Y4680D1*
Y4560D1*
X21966Y4489D1*
X21990Y4441D1*
X22038Y4393D1*
X22086Y4369D1*
X22182D1*
X22229Y4393D1*
X22277Y4441D1*
X22301Y4489D1*
X22325Y4560D1*
Y4680D1*
X22301Y4752D1*
X22277Y4800D1*
X22229Y4848D1*
X22182Y4871D1*
X22086D1*
X22479Y4608D2*
X22695D1*
X22766Y4632D1*
X22790Y4656D1*
X22814Y4704D1*
Y4776D1*
X22790Y4823D1*
X22766Y4848D1*
X22695Y4871D1*
X22479D1*
Y4369D1*
X17658Y4881D2*
X17348D1*
Y4379D1*
X17658D1*
X17348Y4642D2*
X17539D1*
X17813Y4630D2*
X18089D1*
X18411Y4881D2*
Y4379D1*
X18244Y4881D2*
X18579D1*
X19115Y4379D2*
Y4881D1*
X18924Y4379D1*
X18733Y4881D1*
Y4379D1*
X19270Y4618D2*
X19485D1*
X19557Y4642D1*
X19581Y4666D1*
X19605Y4714D1*
Y4786D1*
X19581Y4833D1*
X19557Y4858D1*
X19485Y4881D1*
X19270D1*
Y4379D1*
X14788Y4881D2*
Y4379D1*
X15003D1*
X15075Y4403D1*
X15099Y4427D1*
X15123Y4475D1*
Y4547D1*
X15099Y4595D1*
X15075Y4618D1*
X15003Y4642D1*
X15075Y4666D1*
X15099Y4690D1*
X15123Y4738D1*
Y4786D1*
X15099Y4833D1*
X15075Y4858D1*
X15003Y4881D1*
X14788D1*
Y4642D2*
X15003D1*
X15277Y4630D2*
X15554D1*
X15875Y4881D2*
Y4379D1*
X15708Y4881D2*
X16043D1*
X16580Y4379D2*
Y4881D1*
X16389Y4379D1*
X16197Y4881D1*
Y4379D1*
X16734Y4618D2*
X16950D1*
X17021Y4642D1*
X17045Y4666D1*
X17069Y4714D1*
Y4786D1*
X17045Y4833D1*
X17021Y4858D1*
X16950Y4881D1*
X16734D1*
Y4379D1*
X38876Y10535D2*
D253*
X38131D1*
Y9330D1*
X38876D1*
X38131Y9961D2*
X38589D1*
X38171Y18545D2*
X38974D1*
X38171Y17340D1*
X38974D1*
X38151Y26535D2*
X38609Y25961D1*
Y25330D1*
X39068Y26535D2*
X38609Y25961D1*
X38141Y34595D2*
X38944Y33390D1*
Y34595D2*
X38141Y33390D1*
X12761Y41005D2*
D252*
X13264D1*
X12761Y41340D2*
X13264D1*
X13001Y41005D2*
Y41340D1*
X13013Y41495D2*
Y41771D1*
X12761Y42236D2*
Y41926D1*
X13264D1*
Y42236D1*
X13001Y41926D2*
Y42117D1*
X12761Y42725D2*
X13264D1*
X12761Y42391D1*
X13264D1*
X12761Y42880D2*
X13264D1*
Y43047D1*
X13239Y43119D1*
X13192Y43167D1*
X13144Y43191D1*
X13072Y43215D1*
X12952D1*
X12881Y43191D1*
X12833Y43167D1*
X12785Y43119D1*
X12761Y43047D1*
Y42880D1*
X15141Y41035D2*
X15644D1*
X15141Y41370D2*
X15644D1*
X15381Y41035D2*
Y41370D1*
X15393Y41525D2*
Y41801D1*
X15141Y41956D2*
X15644D1*
Y42171D1*
X15619Y42243D1*
X15596Y42267D1*
X15548Y42290D1*
X15476D1*
X15428Y42267D1*
X15404Y42243D1*
X15381Y42171D1*
X15356Y42243D1*
X15332Y42267D1*
X15285Y42290D1*
X15237D1*
X15189Y42267D1*
X15165Y42243D1*
X15141Y42171D1*
Y41956D1*
X15381D2*
Y42171D1*
X15141Y42755D2*
Y42445D1*
X15644D1*
Y42755D1*
X15381Y42445D2*
Y42636D1*
X15141Y42910D2*
X15644D1*
Y43077D1*
X15619Y43149D1*
X15572Y43197D1*
X15524Y43221D1*
X15452Y43245D1*
X15332D1*
X15261Y43221D1*
X15213Y43197D1*
X15165Y43149D1*
X15141Y43077D1*
Y42910D1*
X19888Y43791D2*
Y43289D1*
X20175D1*
X20640Y43791D2*
X20329D1*
Y43289D1*
X20640D1*
X20329Y43552D2*
X20520D1*
X20794Y43791D2*
Y43289D1*
X20962D1*
X21033Y43313D1*
X21082Y43361D1*
X21105Y43409D1*
X21129Y43480D1*
Y43600D1*
X21105Y43672D1*
X21082Y43720D1*
X21033Y43768D1*
X20962Y43791D1*
X20794D1*
X24368Y43578D2*
X24583D1*
X24655Y43602D1*
X24679Y43626D1*
X24703Y43674D1*
Y43746D1*
X24679Y43793D1*
X24655Y43818D1*
X24583Y43841D1*
X24368D1*
Y43339D1*
X24857Y43841D2*
X24977Y43339D1*
X25097Y43841D1*
X25216Y43339D1*
X25336Y43841D1*
X25873Y43339D2*
Y43841D1*
X25681Y43339D1*
X25490Y43841D1*
Y43339D1*
X22439Y43791D2*
X22128D1*
Y43289D1*
Y43552D2*
X22319D1*
X22976Y43289D2*
X22785Y43791D1*
X22593Y43289D1*
X22665Y43457D2*
X22905D1*
X23466Y43791D2*
Y43289D1*
X23131Y43791D1*
Y43289D1*
X27639Y43821D2*
X27328D1*
Y43319D1*
Y43582D2*
X27519D1*
X28176Y43319D2*
X27985Y43821D1*
X27793Y43319D1*
X27865Y43487D2*
X28105D1*
X28666Y43821D2*
Y43319D1*
X28331Y43821D1*
Y43319D1*
X34369Y43881D2*
X34058D1*
Y43379D1*
Y43642D2*
X34249D1*
X34906Y43379D2*
X34715Y43881D1*
X34523Y43379D1*
X34595Y43547D2*
X34835D1*
X35396Y43881D2*
Y43379D1*
X35061Y43881D1*
Y43379D1*
X36469Y43821D2*
X36158D1*
Y43319D1*
Y43582D2*
X36349D1*
X37006Y43319D2*
X36815Y43821D1*
X36623Y43319D1*
X36695Y43487D2*
X36935D1*
X37496Y43821D2*
Y43319D1*
X37161Y43821D1*
Y43319D1*
X24749Y15934D2*
D254*
Y15676D1*
X24779Y15590D1*
X24807Y15561D1*
X24864Y15532D1*
X24922D1*
X24979Y15561D1*
X25008Y15590D1*
X25037Y15676D1*
Y15934D1*
X24434D1*
X24749Y15733D2*
X24434Y15532D1*
X25037Y14974D2*
Y15347D1*
X24434D1*
Y14974D1*
X24749Y15347D2*
Y15117D1*
X25037Y14789D2*
X24434Y14559D1*
X25037Y14330D1*
X24434Y13102D2*
X25037Y13332D1*
X24434Y13561D1*
X24635Y13475D2*
Y13188D1*
X24434Y12457D2*
X25037Y12687D1*
X24434Y12916D1*
X24635Y12830D2*
Y12543D1*
X24873Y20960D2*
X24901D1*
X24959Y20932D1*
X24987Y20903D1*
X25016Y20846D1*
Y20731D1*
X24987Y20674D1*
X24959Y20645D1*
X24901Y20616D1*
X24844D1*
X24787Y20645D1*
X24701Y20702D1*
X24414Y20990D1*
Y20588D1*
X25016Y20230D2*
X24987Y20316D1*
X24901Y20374D1*
X24758Y20402D1*
X24672D1*
X24529Y20374D1*
X24442Y20316D1*
X24414Y20230D1*
Y20173D1*
X24442Y20087D1*
X24529Y20030D1*
X24672Y20000D1*
X24758D1*
X24901Y20030D1*
X24987Y20087D1*
X25016Y20173D1*
Y20230D1*
X24901Y20030D2*
X24529Y20374D1*
X24901Y19815D2*
X24930Y19757D1*
X25016Y19671D1*
X24414D1*
Y19199D2*
X25016D1*
X24615Y19486D1*
Y19056D1*
X24930Y17718D2*
X24988Y17775D1*
X25017Y17862D1*
Y17976D1*
X24988Y18063D1*
X24930Y18120D1*
X24873D1*
X24816Y18091D1*
X24787Y18063D1*
X24759Y18006D1*
X24701Y17833D1*
X24672Y17775D1*
X24643Y17747D1*
X24586Y17718D1*
X24500D1*
X24443Y17775D1*
X24414Y17862D1*
Y17976D1*
X24443Y18063D1*
X24500Y18120D1*
X25017Y17533D2*
X24414D1*
Y17332D1*
X24443Y17246D1*
X24500Y17188D1*
X24558Y17160D1*
X24643Y17131D1*
X24787D1*
X24873Y17160D1*
X24930Y17188D1*
X24988Y17246D1*
X25017Y17332D1*
Y17533D1*
X25016Y16602D2*
Y16888D1*
X24758Y16917D1*
X24787Y16888D1*
X24816Y16802D1*
Y16716D1*
X24787Y16630D1*
X24729Y16573D1*
X24643Y16544D1*
X24586D1*
X24500Y16573D1*
X24442Y16630D1*
X24414Y16716D1*
Y16802D1*
X24442Y16888D1*
X24471Y16917D1*
X24529Y16946D1*
X23250Y20244D2*
X23308Y20301D1*
X23337Y20387D1*
Y20502D1*
X23308Y20588D1*
X23250Y20646D1*
X23193D1*
X23136Y20616D1*
X23107Y20588D1*
X23079Y20531D1*
X23021Y20358D1*
X22992Y20301D1*
X22963Y20272D1*
X22906Y20244D1*
X22820D1*
X22763Y20301D1*
X22734Y20387D1*
Y20502D1*
X22763Y20588D1*
X22820Y20646D1*
X23337Y19656D2*
X22734D1*
X23337Y20058D1*
X22734D1*
X23136Y19442D2*
X23107Y19471D1*
X23078Y19442D1*
X23107Y19413D1*
X23136Y19442D1*
X22791D2*
X22762Y19471D1*
X22734Y19442D1*
X22762Y19413D1*
X22791Y19442D1*
M02*
