G04 DipTrace Beta 2.3.5.2*
%INVCC.gbr*%
%MOIN*%
%ADD15C,0.01*%
%ADD16C,0.02*%
%ADD17C,0.006*%
%ADD22C,0.025*%
%ADD23C,0.013*%
%ADD32C,0.0709*%
%ADD34C,0.0551*%
%ADD37C,0.1181*%
%ADD39C,0.0827*%
%ADD41C,0.0559*%
%ADD43C,0.1299*%
%ADD45C,0.0591*%
%ADD48C,0.1*%
%ADD51C,0.0705*%
%ADD63C,0.0492*%
%ADD76C,0.0472*%
%ADD97C,0.032*%
%ADD99C,0.022*%
%FSLAX44Y44*%
G04*
G70*
G90*
G75*
G01*
%LNInner2_Plane*%
%LPD*%
X13115Y26215D2*
D17*
X13065Y26265D1*
X10920Y12570D2*
D16*
Y12590D1*
X10570Y12940D1*
Y19140D1*
X10470Y19240D1*
Y19270D1*
X10270Y19470D1*
Y29420D1*
X23900Y9420D2*
D15*
Y10090D1*
X22850Y11140D1*
X18340D1*
X18050Y11430D1*
X27400Y9070D2*
X24250D1*
X23900Y9420D1*
D97*
X6580Y17510D3*
X11565Y13315D3*
X10270Y29420D3*
X23900Y9420D3*
X27400Y9070D3*
X23900Y9420D3*
X20970Y20400D3*
X28265Y23715D3*
Y24165D3*
X21250Y20065D3*
X22770Y21915D3*
X9960Y8990D3*
X15640Y15660D3*
Y16590D3*
X13940Y20300D3*
X21640Y10020D3*
X22140Y21601D3*
X21920Y19560D3*
X12880Y35890D3*
X21550Y8480D3*
X22490Y21290D3*
X21565Y20340D3*
X12465Y30865D3*
X11050Y10740D3*
X11020Y11570D3*
X7950Y17790D3*
X10081Y15599D3*
X27440Y31710D3*
X20415Y25985D3*
X27430Y32600D3*
X27410Y27250D3*
X20990Y26060D3*
X27390Y27730D3*
X28265Y24640D3*
X28335Y25020D3*
X6310Y29760D3*
Y29220D3*
X13320Y21600D3*
X9660Y18390D3*
X34110Y37450D3*
Y36990D3*
X34090Y36520D3*
X33630Y37020D3*
Y37460D3*
X33620Y36550D3*
X33160D3*
X33170Y36990D3*
X33150Y37460D3*
D99*
X32750Y35530D3*
X33090Y35520D3*
X33590D3*
X32070Y36320D3*
X32180Y36880D3*
X31940Y37090D3*
X32120Y37400D3*
X33530Y38440D3*
D97*
X34440Y38830D3*
X32230Y39150D3*
X36570Y37920D3*
X36560Y36040D3*
X34200Y35280D3*
X32350Y32500D3*
Y32860D3*
X33120D3*
X32710Y32500D3*
Y32850D3*
X33120Y32500D3*
X33340Y39270D3*
X32790D3*
X33340Y39700D3*
X32790D3*
X35980Y39560D3*
X35610D3*
X35170D3*
X30670Y39570D3*
D99*
X29833Y36135D3*
X29393Y37495D3*
Y38215D3*
X29813Y39325D3*
D97*
X30320Y35810D3*
X13990Y10670D3*
X14880Y36820D3*
X15350Y36810D3*
X15840Y36790D3*
X17150Y35890D3*
X15870Y34130D3*
X16550Y34150D3*
X16540Y33090D3*
X13380Y33520D3*
X11550Y34950D3*
X11970D3*
X11530Y33040D3*
X12000Y33020D3*
X12440Y33420D3*
Y33950D3*
Y34470D3*
X14710Y39350D3*
X15040Y38960D3*
X15410Y38950D3*
X15800Y38960D3*
X9080Y38890D3*
X9480D3*
X9870D3*
X8850Y39280D3*
X16490Y29050D3*
Y27980D3*
X15660Y29100D3*
X13310Y28350D3*
X13580Y10660D3*
X14670Y31800D3*
X15070D3*
X15480Y31790D3*
X16810Y30940D3*
X22750Y38830D3*
X23660Y39540D3*
X21280Y39630D3*
X20950Y39190D3*
X25980Y39610D3*
X25640Y39170D3*
X21690Y38020D3*
X24050Y38050D3*
X37073Y34675D3*
X37063Y34285D3*
X37053Y33885D3*
X36673Y34675D3*
X36663Y34285D3*
X36653Y33885D3*
X36823Y33375D3*
X37693Y33385D3*
X37273D3*
X36803Y32945D3*
X37673Y32955D3*
X37253D3*
X35423Y32385D3*
X36153Y32395D3*
X35783D3*
X30893Y32415D3*
X31623Y32425D3*
X31253D3*
X37073Y26615D3*
X30133Y33895D3*
X37063Y26225D3*
X37053Y25825D3*
X36673Y26615D3*
X36663Y26225D3*
X36653Y25825D3*
X36823Y25315D3*
X37693Y25325D3*
X37273D3*
X34110Y29390D3*
Y28930D3*
X34090Y28460D3*
X33630Y28960D3*
Y29400D3*
X33620Y28490D3*
X33160D3*
X33170Y28930D3*
X33150Y29400D3*
D99*
X32740Y27480D3*
X33080Y27450D3*
X33610Y27440D3*
X32030Y28210D3*
X32160Y28800D3*
X31940Y29030D3*
X32180Y29330D3*
X33530Y30380D3*
D97*
X34440Y30770D3*
X32230Y31090D3*
X36570Y29860D3*
X36560Y27980D3*
X34200Y27220D3*
X32350Y24440D3*
Y24800D3*
X33120D3*
X32710Y24440D3*
Y24790D3*
X33120Y24440D3*
X33340Y31210D3*
X32790D3*
X33340Y31640D3*
X32790D3*
X35980Y31500D3*
X35610D3*
X35170D3*
X30670Y31510D3*
D99*
X29833Y28075D3*
X29393Y29435D3*
Y30155D3*
X29813Y31265D3*
D97*
X30320Y27750D3*
X36803Y24885D3*
X37673Y24895D3*
X37253D3*
X35423Y24325D3*
X36153Y24335D3*
X35783D3*
X30893Y24355D3*
X31623Y24365D3*
X31253D3*
X30133Y25835D3*
X37061Y18635D3*
X37051Y18245D3*
X37041Y17845D3*
X36661Y18635D3*
X36651Y18245D3*
X36641Y17845D3*
X36811Y17335D3*
X37681Y17345D3*
X37261D3*
X34097Y21409D3*
Y20949D3*
X34077Y20479D3*
X33617Y20979D3*
Y21419D3*
X33607Y20509D3*
X33147D3*
X33157Y20949D3*
X33137Y21419D3*
D99*
X32690Y19490D3*
X33040Y19480D3*
X33630Y19490D3*
X32070Y20260D3*
X32160Y20810D3*
X31927Y21049D3*
X32160Y21340D3*
X33517Y22399D3*
D97*
X34427Y22789D3*
X32217Y23109D3*
X36557Y21879D3*
X36547Y19999D3*
X34187Y19239D3*
X32337Y16459D3*
Y16819D3*
X33107D3*
X32697Y16459D3*
Y16809D3*
X33107Y16459D3*
X33327Y23229D3*
X32777D3*
X33327Y23659D3*
X32777D3*
X35967Y23519D3*
X35597D3*
X35157D3*
X30657Y23529D3*
D99*
X29821Y20095D3*
X29381Y21455D3*
Y22175D3*
X29801Y23285D3*
D97*
X30307Y19769D3*
X36791Y16905D3*
X37661Y16915D3*
X37241D3*
X35411Y16345D3*
X36141Y16355D3*
X35771D3*
X30881Y16375D3*
X31611Y16385D3*
X31241D3*
X30121Y17855D3*
X37063Y10655D3*
X37053Y10265D3*
X37043Y9865D3*
X36663Y10655D3*
X36653Y10265D3*
X36643Y9865D3*
X36813Y9355D3*
X37683Y9365D3*
X37263D3*
X34100Y13430D3*
Y12970D3*
X34080Y12500D3*
X33620Y13000D3*
Y13440D3*
X33610Y12530D3*
X33150D3*
X33160Y12970D3*
X33140Y13440D3*
D99*
X32780Y11520D3*
X33100Y11500D3*
X33610Y11520D3*
X32110Y12360D3*
X32165Y12840D3*
X31890Y13065D3*
X32165Y13290D3*
X33530Y14410D3*
D97*
X34430Y14810D3*
X32220Y15130D3*
X36560Y13900D3*
X36550Y12020D3*
X34190Y11260D3*
X32340Y8480D3*
Y8840D3*
X33110D3*
X32700Y8480D3*
Y8830D3*
X33110Y8480D3*
X33330Y15250D3*
X32780D3*
X33330Y15680D3*
X32780D3*
X35970Y15540D3*
X35600D3*
X35160D3*
X30660Y15550D3*
D99*
X29823Y12115D3*
X29383Y13475D3*
Y14195D3*
X29803Y15305D3*
D97*
X30310Y11790D3*
X36793Y8925D3*
X37663Y8935D3*
X37243D3*
X35413Y8365D3*
X36143Y8375D3*
X35773D3*
X30883Y8395D3*
X31613Y8405D3*
X31243D3*
X30123Y9875D3*
X26470Y38070D3*
X23565Y34190D3*
X24515D3*
Y33815D3*
X23565D3*
X24515Y34565D3*
X23565D3*
X25565Y37390D3*
X4350Y43530D3*
X23040Y10020D3*
X25440Y9965D3*
X14440Y10640D3*
X14880Y10680D3*
X15215Y11540D3*
X15070Y12720D3*
X15410Y13050D3*
X15040Y13120D3*
X13765Y12315D3*
X5360Y15030D3*
X5460Y14260D3*
X19450Y16640D3*
X19080Y16350D3*
X18790Y18770D3*
X18500Y19350D3*
X18060Y18760D3*
X17840Y19140D3*
X17540Y19365D3*
X17215Y19165D3*
X15640Y19365D3*
X16290D3*
X15965Y19165D3*
X15170Y17160D3*
X18270Y17200D3*
X11940Y17015D3*
X24540Y29415D3*
Y29015D3*
Y28540D3*
X23565Y29415D3*
Y29015D3*
Y28540D3*
X25440Y32240D3*
X25090Y31615D3*
X25415D3*
X25740D3*
X26065D3*
X25090Y31290D3*
X25415D3*
X25740D3*
X26065D3*
X14250Y25760D3*
X13840D3*
X18515Y27215D3*
X14190Y12315D3*
Y11840D3*
X22990Y23115D3*
X22115Y22840D3*
X22415Y22515D3*
X13790Y11815D3*
X14665Y26715D3*
X15665Y26665D3*
X15965Y26890D3*
X18160Y26770D3*
X20010Y27320D3*
X12965Y27190D3*
X13415Y22540D3*
X13120Y22840D3*
X15340Y19140D3*
X15015Y19365D3*
X9315Y20115D3*
X24715Y10010D3*
X18360Y10090D3*
X19165Y9150D3*
X34200Y6400D3*
X27980Y9020D3*
X25495Y8490D3*
X20280Y8960D3*
X15690Y13890D3*
X15600Y10720D3*
X14340Y8025D3*
X16865Y8000D3*
X23500Y23810D3*
X25290Y23815D3*
X23680Y25330D3*
X13615Y19390D3*
X14265Y19415D3*
X13065Y26265D3*
X25800Y25300D3*
X10210Y18600D3*
X9920Y18910D3*
X9580Y22650D3*
X6265Y19290D3*
X27040Y9990D3*
X11040Y7665D3*
X12215Y8015D3*
X13240Y8040D3*
X10915Y15140D3*
X14615Y18040D3*
X13515Y18690D3*
X13120Y25050D3*
X13415Y23190D3*
X12515Y13315D3*
X10615Y32490D3*
X10640Y31915D3*
Y31365D3*
X10040Y36590D3*
X10015Y35665D3*
X10465D3*
Y36590D3*
X9640D3*
X9615Y35665D3*
X4350Y4350D3*
X39030Y43530D3*
Y4350D3*
X8870Y9400D3*
X11070Y9860D3*
X12200Y9610D3*
X13240D3*
X16950Y14800D3*
X16530Y10120D3*
X18050Y11430D3*
X9000Y12320D3*
X10920Y12570D3*
X16900Y23340D3*
X15850Y24370D3*
X18010Y24400D3*
Y22190D3*
X15810Y22170D3*
X4350Y9240D3*
Y19040D3*
Y23940D3*
Y28840D3*
Y38630D3*
X39030D3*
Y33730D3*
Y28840D3*
X9300Y43530D3*
X39030Y23940D3*
Y19040D3*
Y14140D3*
Y9250D3*
X14260Y43530D3*
X19210D3*
X24170D3*
X29120D3*
X34070D3*
X9300Y4350D3*
X14260D3*
X19210D3*
X24170D3*
X29120D3*
X34070D3*
X24510Y10830D3*
X11620Y15810D3*
X14100Y15740D3*
X8800Y18110D3*
X19980Y17620D3*
X21580Y18860D3*
D99*
X20810Y25340D3*
D97*
X23180Y22650D3*
X26020Y23830D3*
X29640Y13010D3*
X31500Y12120D3*
X31240Y14970D3*
X29650Y21000D3*
X31230Y22840D3*
X34190Y16480D3*
X34150Y18070D3*
X31420Y20120D3*
X34400Y24530D3*
X34330Y26020D3*
X29640Y28960D3*
X31280Y30800D3*
X34290Y34040D3*
X34340Y32540D3*
X29660Y37070D3*
X31300Y38910D3*
X31450Y36150D3*
X9200Y39700D3*
X11400Y23740D3*
X12350Y22670D3*
X6310Y28550D3*
Y27980D3*
X8400Y15590D3*
X8290Y13050D3*
D99*
X16290Y26610D3*
X16610Y26620D3*
X16920Y26610D3*
X17230D3*
X17550D3*
X17860Y26600D3*
X13520Y21280D3*
X13540Y20970D3*
X21110Y25340D3*
X21400D3*
X21960D3*
X21680D3*
X22260D3*
X27690Y26390D3*
Y26090D3*
X27680Y25790D3*
X27330Y25820D3*
X27320Y25530D3*
X27160Y25280D3*
X4676Y43306D2*
D22*
X8974D1*
X9626D2*
X13935D1*
X14586D2*
X18884D1*
X19536D2*
X23845D1*
X24497D2*
X28794D1*
X29446D2*
X33744D1*
X34395D2*
X38704D1*
X4350Y43058D2*
X39029D1*
X4350Y42809D2*
X6275D1*
X6606D2*
X31275D1*
X31606D2*
X39029D1*
X4350Y42560D2*
X5615D1*
X7266D2*
X9689D1*
X10672D2*
X11247D1*
X12235D2*
X16298D1*
X17282D2*
X17857D1*
X18844D2*
X30615D1*
X32266D2*
X39029D1*
X4350Y42312D2*
X5349D1*
X7532D2*
X9501D1*
X10856D2*
X11064D1*
X12419D2*
X16111D1*
X17469D2*
X17673D1*
X19028D2*
X19638D1*
X20262D2*
X20638D1*
X21262D2*
X21919D1*
X22598D2*
X22919D1*
X23598D2*
X24251D1*
X24930D2*
X25251D1*
X25930D2*
X27138D1*
X27864D2*
X28138D1*
X28864D2*
X30349D1*
X32532D2*
X33818D1*
X34524D2*
X34818D1*
X35524D2*
X36068D1*
X36794D2*
X37068D1*
X37794D2*
X39029D1*
X4350Y42063D2*
X5189D1*
X7692D2*
X9443D1*
X10919D2*
X11002D1*
X12477D2*
X16052D1*
X17528D2*
X17610D1*
X19090D2*
X19447D1*
X21454D2*
X21747D1*
X23770D2*
X24079D1*
X26102D2*
X26982D1*
X29016D2*
X30189D1*
X32692D2*
X33654D1*
X35684D2*
X35911D1*
X37946D2*
X39029D1*
X4350Y41814D2*
X5091D1*
X7790D2*
X9470D1*
X10891D2*
X11027D1*
X12450D2*
X16079D1*
X17501D2*
X17644D1*
X19059D2*
X19419D1*
X21481D2*
X21736D1*
X23786D2*
X24064D1*
X26118D2*
X26978D1*
X29020D2*
X30091D1*
X32790D2*
X33646D1*
X35696D2*
X35908D1*
X37954D2*
X39029D1*
X4350Y41566D2*
X5044D1*
X7836D2*
X9603D1*
X10758D2*
X11161D1*
X12317D2*
X16212D1*
X17368D2*
X17775D1*
X18926D2*
X19533D1*
X20368D2*
X20532D1*
X21368D2*
X21861D1*
X22661D2*
X22861D1*
X23661D2*
X24189D1*
X24993D2*
X25189D1*
X25993D2*
X27119D1*
X27883D2*
X28119D1*
X28883D2*
X30044D1*
X32836D2*
X33779D1*
X34563D2*
X34779D1*
X35563D2*
X36048D1*
X36813D2*
X37048D1*
X37813D2*
X39029D1*
X4350Y41317D2*
X5044D1*
X7836D2*
X10025D1*
X10333D2*
X11587D1*
X11895D2*
X16638D1*
X16942D2*
X18197D1*
X18504D2*
X30044D1*
X32836D2*
X39029D1*
X4350Y41068D2*
X5091D1*
X7790D2*
X30091D1*
X32790D2*
X39029D1*
X4350Y40820D2*
X5185D1*
X7692D2*
X30185D1*
X32692D2*
X39029D1*
X4350Y40571D2*
X5349D1*
X7532D2*
X30349D1*
X32532D2*
X39029D1*
X4350Y40322D2*
X5611D1*
X7266D2*
X30611D1*
X32266D2*
X39029D1*
X4350Y40074D2*
X6251D1*
X6626D2*
X9142D1*
X9259D2*
X31251D1*
X31626D2*
X33283D1*
X33397D2*
X39029D1*
X4350Y39825D2*
X8822D1*
X9579D2*
X20935D1*
X21626D2*
X23392D1*
X23930D2*
X25650D1*
X26313D2*
X30369D1*
X30969D2*
X32411D1*
X33719D2*
X34880D1*
X36270D2*
X37247D1*
X38079D2*
X39029D1*
X4350Y39576D2*
X8630D1*
X9579D2*
X14411D1*
X15008D2*
X20884D1*
X21676D2*
X23263D1*
X24059D2*
X25583D1*
X26379D2*
X29583D1*
X30044D2*
X30271D1*
X31071D2*
X32411D1*
X33719D2*
X34771D1*
X36379D2*
X37134D1*
X38192D2*
X39029D1*
X4350Y39327D2*
X8474D1*
X9266D2*
X14329D1*
X15141D2*
X15701D1*
X15901D2*
X20576D1*
X21528D2*
X23326D1*
X23993D2*
X25275D1*
X26251D2*
X29462D1*
X30165D2*
X30361D1*
X30981D2*
X31876D1*
X33735D2*
X34853D1*
X36297D2*
X37158D1*
X38169D2*
X39029D1*
X4350Y39079D2*
X8533D1*
X10219D2*
X14458D1*
X16180D2*
X20568D1*
X21333D2*
X22443D1*
X23055D2*
X25251D1*
X26028D2*
X29576D1*
X30051D2*
X30939D1*
X31661D2*
X31837D1*
X33688D2*
X34134D1*
X34747D2*
X37345D1*
X37981D2*
X39029D1*
X4692Y38830D2*
X8685D1*
X10266D2*
X14665D1*
X16176D2*
X20822D1*
X21082D2*
X22349D1*
X23149D2*
X25458D1*
X25825D2*
X30908D1*
X31692D2*
X32009D1*
X32450D2*
X34040D1*
X34840D2*
X37255D1*
X38067D2*
X38689D1*
X4747Y38581D2*
X8841D1*
X10106D2*
X15318D1*
X15502D2*
X22447D1*
X23055D2*
X31095D1*
X31504D2*
X33212D1*
X33848D2*
X34134D1*
X34747D2*
X37134D1*
X38188D2*
X38634D1*
X4602Y38333D2*
X21497D1*
X21883D2*
X23810D1*
X24290D2*
X26208D1*
X26735D2*
X29064D1*
X29723D2*
X33197D1*
X33860D2*
X37150D1*
X38169D2*
X38779D1*
X4350Y38084D2*
X21318D1*
X22063D2*
X23673D1*
X24430D2*
X26091D1*
X26848D2*
X29072D1*
X29715D2*
X36208D1*
X36934D2*
X37326D1*
X37993D2*
X39029D1*
X4350Y37835D2*
X21361D1*
X22016D2*
X23744D1*
X24356D2*
X26181D1*
X26762D2*
X36181D1*
X36961D2*
X37259D1*
X38059D2*
X39029D1*
X4350Y37587D2*
X4728D1*
X5907D2*
X25220D1*
X25911D2*
X29056D1*
X29731D2*
X31829D1*
X32411D2*
X32771D1*
X34485D2*
X36372D1*
X36766D2*
X37134D1*
X38184D2*
X39029D1*
X4350Y37338D2*
X4556D1*
X6079D2*
X7861D1*
X9469D2*
X25169D1*
X25961D2*
X29083D1*
X29946D2*
X31704D1*
X32465D2*
X32771D1*
X34493D2*
X37150D1*
X38172D2*
X39029D1*
X4350Y37089D2*
X4490D1*
X6145D2*
X7744D1*
X9586D2*
X14595D1*
X16090D2*
X25318D1*
X25813D2*
X29259D1*
X30059D2*
X31591D1*
X32454D2*
X32783D1*
X34497D2*
X37318D1*
X38001D2*
X39029D1*
X4350Y36841D2*
X4505D1*
X6129D2*
X7767D1*
X10770D2*
X14482D1*
X16235D2*
X29337D1*
X29981D2*
X31708D1*
X32528D2*
X32802D1*
X34477D2*
X37263D1*
X38055D2*
X39029D1*
X4350Y36592D2*
X4607D1*
X6032D2*
X7970D1*
X10864D2*
X14556D1*
X16184D2*
X27529D1*
X28149D2*
X31869D1*
X32356D2*
X32763D1*
X34485D2*
X37134D1*
X38184D2*
X39029D1*
X4350Y36343D2*
X4841D1*
X5794D2*
X9333D1*
X10774D2*
X27369D1*
X28313D2*
X29560D1*
X30110D2*
X31103D1*
X32419D2*
X32822D1*
X34446D2*
X36314D1*
X36805D2*
X37146D1*
X38172D2*
X39029D1*
X4350Y36095D2*
X12540D1*
X13219D2*
X16810D1*
X17489D2*
X27376D1*
X28305D2*
X29486D1*
X30590D2*
X31056D1*
X32329D2*
X36165D1*
X36958D2*
X37314D1*
X38008D2*
X39029D1*
X4350Y35846D2*
X9263D1*
X10817D2*
X12482D1*
X13278D2*
X16751D1*
X17547D2*
X27560D1*
X28118D2*
X29661D1*
X30719D2*
X31204D1*
X31696D2*
X32650D1*
X32852D2*
X36216D1*
X36907D2*
X37271D1*
X38051D2*
X39029D1*
X4350Y35597D2*
X9220D1*
X10860D2*
X12622D1*
X13137D2*
X16892D1*
X17411D2*
X27404D1*
X28278D2*
X29986D1*
X30653D2*
X32408D1*
X34426D2*
X37138D1*
X38184D2*
X39029D1*
X4350Y35348D2*
X4790D1*
X5844D2*
X6009D1*
X8911D2*
X9388D1*
X10692D2*
X27384D1*
X28297D2*
X32454D1*
X34594D2*
X37146D1*
X38176D2*
X39029D1*
X4350Y35100D2*
X4658D1*
X9044D2*
X11181D1*
X12340D2*
X27536D1*
X28141D2*
X33845D1*
X34555D2*
X37306D1*
X38012D2*
X39029D1*
X4350Y34851D2*
X4638D1*
X9051D2*
X11165D1*
X12356D2*
X23298D1*
X23833D2*
X24247D1*
X24782D2*
X27419D1*
X28258D2*
X36318D1*
X38044D2*
X39029D1*
X8934Y34602D2*
X11384D1*
X11715D2*
X11806D1*
X12817D2*
X23165D1*
X23961D2*
X24119D1*
X24915D2*
X27376D1*
X28301D2*
X36283D1*
X38184D2*
X39029D1*
X5669Y34354D2*
X12060D1*
X12821D2*
X15544D1*
X16891D2*
X23204D1*
X23926D2*
X24154D1*
X24876D2*
X27494D1*
X28188D2*
X34060D1*
X34520D2*
X36271D1*
X38180D2*
X39029D1*
X5126Y34105D2*
X12076D1*
X12805D2*
X15470D1*
X16946D2*
X23173D1*
X23954D2*
X24126D1*
X24907D2*
X27443D1*
X28239D2*
X29798D1*
X30469D2*
X33896D1*
X34684D2*
X36310D1*
X38028D2*
X39029D1*
X5126Y33856D2*
X12052D1*
X12829D2*
X13189D1*
X13571D2*
X15587D1*
X16153D2*
X16291D1*
X16809D2*
X23169D1*
X23961D2*
X24119D1*
X24915D2*
X27376D1*
X28305D2*
X29736D1*
X30532D2*
X33939D1*
X34641D2*
X36255D1*
X37454D2*
X38654D1*
X5118Y33608D2*
X5202D1*
X5430D2*
X12091D1*
X12790D2*
X12990D1*
X13770D2*
X23228D1*
X23903D2*
X24177D1*
X24852D2*
X27458D1*
X28219D2*
X29869D1*
X30399D2*
X36376D1*
X38020D2*
X38650D1*
X5864Y33359D2*
X5980D1*
X8852D2*
X11306D1*
X12836D2*
X13017D1*
X13743D2*
X16255D1*
X16825D2*
X27447D1*
X28231D2*
X36423D1*
X38090D2*
X38954D1*
X4350Y33110D2*
X4654D1*
X9028D2*
X11138D1*
X12676D2*
X16142D1*
X16938D2*
X27357D1*
X28325D2*
X32044D1*
X33426D2*
X36443D1*
X38040D2*
X39029D1*
X4350Y32862D2*
X4642D1*
X9059D2*
X10540D1*
X10689D2*
X11177D1*
X12364D2*
X16216D1*
X16864D2*
X27138D1*
X28270D2*
X31951D1*
X33520D2*
X34122D1*
X34559D2*
X36411D1*
X38063D2*
X39029D1*
X4350Y32613D2*
X4732D1*
X8973D2*
X10236D1*
X10993D2*
X25376D1*
X25505D2*
X27029D1*
X27829D2*
X31966D1*
X33504D2*
X33947D1*
X34731D2*
X35099D1*
X36485D2*
X36604D1*
X37852D2*
X39029D1*
X4350Y32364D2*
X5005D1*
X5629D2*
X7634D1*
X8629D2*
X10236D1*
X10993D2*
X25060D1*
X25817D2*
X27115D1*
X27747D2*
X31974D1*
X33493D2*
X33986D1*
X34696D2*
X35025D1*
X36551D2*
X39029D1*
X4350Y32116D2*
X6544D1*
X7243D2*
X10298D1*
X10981D2*
X14443D1*
X15692D2*
X25060D1*
X25817D2*
X35138D1*
X36426D2*
X39029D1*
X4350Y31867D2*
X6310D1*
X7477D2*
X10244D1*
X11036D2*
X14275D1*
X15872D2*
X25380D1*
X25497D2*
X27076D1*
X27805D2*
X30529D1*
X30809D2*
X32466D1*
X33665D2*
X35068D1*
X35274D2*
X35509D1*
X35712D2*
X35876D1*
X36081D2*
X37365D1*
X37961D2*
X39029D1*
X4350Y31618D2*
X4997D1*
X5641D2*
X6240D1*
X7544D2*
X10337D1*
X10942D2*
X14318D1*
X15836D2*
X27052D1*
X27829D2*
X30286D1*
X31055D2*
X32392D1*
X33739D2*
X34790D1*
X36360D2*
X37161D1*
X38165D2*
X39029D1*
X4350Y31369D2*
X4661D1*
X5973D2*
X6275D1*
X7512D2*
X10240D1*
X11040D2*
X27259D1*
X28176D2*
X29482D1*
X30145D2*
X30297D1*
X31044D2*
X31954D1*
X33704D2*
X34794D1*
X36356D2*
X37134D1*
X38196D2*
X39029D1*
X4350Y31121D2*
X4529D1*
X6110D2*
X6435D1*
X7348D2*
X7806D1*
X9524D2*
X10329D1*
X10950D2*
X12165D1*
X12766D2*
X16458D1*
X17165D2*
X27365D1*
X28317D2*
X29497D1*
X30129D2*
X31060D1*
X31501D2*
X31833D1*
X33731D2*
X34283D1*
X34598D2*
X37236D1*
X38090D2*
X39029D1*
X4350Y30872D2*
X4486D1*
X6149D2*
X7736D1*
X9594D2*
X12064D1*
X12864D2*
X16415D1*
X17204D2*
X27380D1*
X28297D2*
X30888D1*
X31672D2*
X31900D1*
X32977D2*
X33156D1*
X33528D2*
X34056D1*
X34825D2*
X37380D1*
X37942D2*
X39029D1*
X4350Y30623D2*
X4525D1*
X6110D2*
X7802D1*
X9528D2*
X12154D1*
X12778D2*
X16583D1*
X17036D2*
X27591D1*
X28086D2*
X30923D1*
X31637D2*
X33290D1*
X33770D2*
X34072D1*
X34809D2*
X37161D1*
X38157D2*
X39029D1*
X4350Y30375D2*
X4658D1*
X5977D2*
X27396D1*
X28286D2*
X29130D1*
X29657D2*
X33181D1*
X33879D2*
X37126D1*
X38192D2*
X39029D1*
X4350Y30126D2*
X4982D1*
X5653D2*
X6204D1*
X6417D2*
X27388D1*
X28290D2*
X29044D1*
X29743D2*
X33302D1*
X33758D2*
X36283D1*
X36860D2*
X37224D1*
X38094D2*
X39029D1*
X4350Y29877D2*
X5931D1*
X6692D2*
X27568D1*
X28114D2*
X29201D1*
X29586D2*
X36169D1*
X36969D2*
X37388D1*
X37930D2*
X39029D1*
X4350Y29629D2*
X5935D1*
X6688D2*
X9935D1*
X10606D2*
X23232D1*
X23899D2*
X24208D1*
X24872D2*
X27411D1*
X28270D2*
X29107D1*
X29680D2*
X32029D1*
X32333D2*
X32829D1*
X34426D2*
X36251D1*
X36891D2*
X37165D1*
X38157D2*
X39029D1*
X4350Y29380D2*
X5947D1*
X6672D2*
X9872D1*
X10669D2*
X15384D1*
X15934D2*
X16286D1*
X16692D2*
X23165D1*
X23961D2*
X24142D1*
X24938D2*
X27380D1*
X28301D2*
X29048D1*
X29739D2*
X31833D1*
X32528D2*
X32751D1*
X34508D2*
X37126D1*
X38192D2*
X39029D1*
X4610Y29131D2*
X5919D1*
X6700D2*
X9931D1*
X10610D2*
X15263D1*
X16879D2*
X23185D1*
X23946D2*
X24158D1*
X24922D2*
X27517D1*
X28165D2*
X29255D1*
X30001D2*
X31607D1*
X32461D2*
X32829D1*
X34450D2*
X37220D1*
X38098D2*
X38771D1*
X4747Y28883D2*
X6111D1*
X6508D2*
X9931D1*
X10610D2*
X15329D1*
X15989D2*
X16127D1*
X16852D2*
X23189D1*
X23942D2*
X24165D1*
X24915D2*
X27431D1*
X28251D2*
X29247D1*
X30032D2*
X31626D1*
X32501D2*
X32775D1*
X34508D2*
X37400D1*
X37922D2*
X38634D1*
X4688Y28634D2*
X5919D1*
X6700D2*
X9931D1*
X10610D2*
X13040D1*
X13579D2*
X23177D1*
X23954D2*
X24154D1*
X24926D2*
X27376D1*
X28305D2*
X29431D1*
X29848D2*
X31857D1*
X32465D2*
X32790D1*
X34446D2*
X37169D1*
X38153D2*
X38693D1*
X4350Y28385D2*
X5947D1*
X6672D2*
X9931D1*
X10610D2*
X12911D1*
X13708D2*
X23201D1*
X23930D2*
X24173D1*
X24907D2*
X27478D1*
X28204D2*
X29712D1*
X29959D2*
X31732D1*
X32329D2*
X32775D1*
X34481D2*
X37126D1*
X38192D2*
X39029D1*
X4350Y28137D2*
X5943D1*
X6676D2*
X9931D1*
X10610D2*
X12978D1*
X13645D2*
X16126D1*
X16856D2*
X27431D1*
X28247D2*
X29490D1*
X30176D2*
X31689D1*
X32372D2*
X33009D1*
X33309D2*
X33470D1*
X33770D2*
X33877D1*
X34305D2*
X36193D1*
X36926D2*
X37216D1*
X38102D2*
X39029D1*
X4350Y27888D2*
X5923D1*
X6700D2*
X9931D1*
X10610D2*
X16103D1*
X16879D2*
X27025D1*
X28325D2*
X29544D1*
X30692D2*
X36173D1*
X36950D2*
X37411D1*
X37911D2*
X39029D1*
X4350Y27639D2*
X6130D1*
X6493D2*
X9931D1*
X10610D2*
X11599D1*
X25559D2*
X27001D1*
X28258D2*
X29939D1*
X30704D2*
X32431D1*
X33868D2*
X36380D1*
X36743D2*
X37169D1*
X38149D2*
X39029D1*
X4350Y27390D2*
X8161D1*
X8680D2*
X9122D1*
X9719D2*
X9931D1*
X10610D2*
X11572D1*
X25586D2*
X27060D1*
X27762D2*
X30189D1*
X30449D2*
X32404D1*
X34559D2*
X37126D1*
X38192D2*
X39029D1*
X4350Y27142D2*
X6111D1*
X6633D2*
X7939D1*
X10610D2*
X11572D1*
X25586D2*
X27048D1*
X27774D2*
X32954D1*
X33208D2*
X33521D1*
X33699D2*
X33810D1*
X34590D2*
X37216D1*
X38106D2*
X39029D1*
X4350Y26893D2*
X5708D1*
X7036D2*
X7911D1*
X10610D2*
X11572D1*
X25586D2*
X33994D1*
X34407D2*
X36396D1*
X37352D2*
X37438D1*
X37891D2*
X39029D1*
X4350Y26644D2*
X5548D1*
X7192D2*
X8021D1*
X8821D2*
X8994D1*
X9844D2*
X9931D1*
X10977D2*
X11572D1*
X25586D2*
X27497D1*
X27883D2*
X36275D1*
X38149D2*
X39029D1*
X4350Y26396D2*
X5486D1*
X7258D2*
X9931D1*
X11176D2*
X11572D1*
X25586D2*
X27361D1*
X28020D2*
X36306D1*
X38196D2*
X39029D1*
X4350Y26147D2*
X5497D1*
X7247D2*
X9931D1*
X11188D2*
X11572D1*
X25586D2*
X27365D1*
X28016D2*
X29900D1*
X30368D2*
X33951D1*
X34708D2*
X36271D1*
X38118D2*
X39029D1*
X4350Y25898D2*
X5587D1*
X7157D2*
X9931D1*
X11040D2*
X11572D1*
X25586D2*
X27009D1*
X27989D2*
X29740D1*
X30528D2*
X33951D1*
X34711D2*
X36259D1*
X37446D2*
X39029D1*
X4350Y25650D2*
X5790D1*
X6954D2*
X9931D1*
X11161D2*
X11572D1*
X25586D2*
X27013D1*
X27977D2*
X29783D1*
X30485D2*
X34247D1*
X34411D2*
X36298D1*
X37907D2*
X39029D1*
X4350Y25401D2*
X9931D1*
X11196D2*
X11572D1*
X25586D2*
X26857D1*
X27622D2*
X36435D1*
X38086D2*
X39029D1*
X4350Y25152D2*
X9931D1*
X11083D2*
X11572D1*
X25586D2*
X26857D1*
X27461D2*
X27982D1*
X28688D2*
X32197D1*
X32504D2*
X32589D1*
X32834D2*
X32966D1*
X33274D2*
X36462D1*
X38051D2*
X39029D1*
X4350Y24904D2*
X7263D1*
X7614D2*
X8052D1*
X8399D2*
X9931D1*
X11141D2*
X11572D1*
X25586D2*
X27974D1*
X28696D2*
X31966D1*
X33504D2*
X36404D1*
X38075D2*
X39029D1*
X4350Y24655D2*
X6970D1*
X8692D2*
X9931D1*
X11200D2*
X11572D1*
X25586D2*
X27884D1*
X28645D2*
X31978D1*
X33489D2*
X34021D1*
X34778D2*
X35220D1*
X36376D2*
X36483D1*
X37985D2*
X39029D1*
X4350Y24406D2*
X6919D1*
X8743D2*
X9931D1*
X11114D2*
X11572D1*
X25586D2*
X27974D1*
X28555D2*
X31951D1*
X33520D2*
X34021D1*
X34778D2*
X35033D1*
X36547D2*
X39029D1*
X4680Y24158D2*
X7001D1*
X8661D2*
X9931D1*
X11114D2*
X11572D1*
X25586D2*
X25814D1*
X26227D2*
X27884D1*
X28645D2*
X32079D1*
X33391D2*
X35064D1*
X36508D2*
X38701D1*
X4751Y23909D2*
X7236D1*
X7641D2*
X8021D1*
X8430D2*
X9931D1*
X26411D2*
X27943D1*
X28586D2*
X32474D1*
X33633D2*
X37392D1*
X37907D2*
X38630D1*
X4626Y23660D2*
X6966D1*
X8696D2*
X9931D1*
X26379D2*
X27888D1*
X28641D2*
X30283D1*
X31036D2*
X32376D1*
X33727D2*
X34786D1*
X36340D2*
X37158D1*
X38141D2*
X38755D1*
X4350Y23411D2*
X6919D1*
X8743D2*
X9931D1*
X11079D2*
X11197D1*
X25586D2*
X28056D1*
X28473D2*
X29497D1*
X30102D2*
X30273D1*
X31040D2*
X31970D1*
X33680D2*
X34775D1*
X36352D2*
X37119D1*
X38184D2*
X39029D1*
X4350Y23163D2*
X7009D1*
X8653D2*
X9931D1*
X11196D2*
X11572D1*
X25586D2*
X29497D1*
X30106D2*
X30556D1*
X30762D2*
X31013D1*
X31446D2*
X31822D1*
X33723D2*
X34369D1*
X34484D2*
X35017D1*
X35297D2*
X35458D1*
X35739D2*
X35825D1*
X36106D2*
X37208D1*
X38094D2*
X39029D1*
X4350Y22914D2*
X9290D1*
X11161D2*
X11572D1*
X25586D2*
X30837D1*
X31622D2*
X31872D1*
X33004D2*
X33103D1*
X33555D2*
X34048D1*
X34805D2*
X37411D1*
X37883D2*
X39029D1*
X4350Y22665D2*
X9181D1*
X10895D2*
X11572D1*
X25586D2*
X30872D1*
X31586D2*
X33345D1*
X33692D2*
X34048D1*
X34805D2*
X37161D1*
X38133D2*
X39029D1*
X4350Y22417D2*
X6173D1*
X6571D2*
X9263D1*
X10610D2*
X11572D1*
X25586D2*
X29138D1*
X29622D2*
X33189D1*
X33848D2*
X34361D1*
X34491D2*
X37115D1*
X38180D2*
X39029D1*
X4350Y22168D2*
X5720D1*
X7020D2*
X9931D1*
X10610D2*
X11572D1*
X25586D2*
X29033D1*
X29731D2*
X33294D1*
X33743D2*
X36294D1*
X36821D2*
X37197D1*
X38098D2*
X39029D1*
X4350Y21919D2*
X5556D1*
X7188D2*
X9931D1*
X10610D2*
X11478D1*
X25586D2*
X29154D1*
X29606D2*
X36161D1*
X36954D2*
X37423D1*
X37872D2*
X39029D1*
X4350Y21671D2*
X5486D1*
X7254D2*
X9931D1*
X10610D2*
X11259D1*
X25586D2*
X29115D1*
X29649D2*
X32833D1*
X34391D2*
X36220D1*
X36895D2*
X37161D1*
X38133D2*
X39029D1*
X4350Y21422D2*
X5494D1*
X7247D2*
X9931D1*
X10610D2*
X11228D1*
X25586D2*
X29033D1*
X29727D2*
X31822D1*
X32501D2*
X32736D1*
X34497D2*
X37115D1*
X38180D2*
X39029D1*
X4350Y21173D2*
X5579D1*
X7165D2*
X9931D1*
X10610D2*
X11341D1*
X25586D2*
X29193D1*
X30008D2*
X31603D1*
X32465D2*
X32829D1*
X34422D2*
X37193D1*
X38102D2*
X39029D1*
X4350Y20925D2*
X5771D1*
X6973D2*
X9931D1*
X10610D2*
X11447D1*
X25586D2*
X29259D1*
X30044D2*
X31603D1*
X32489D2*
X32759D1*
X34497D2*
X37435D1*
X37860D2*
X39029D1*
X4350Y20676D2*
X9931D1*
X10610D2*
X11240D1*
X25586D2*
X29439D1*
X29864D2*
X31841D1*
X32481D2*
X32786D1*
X34422D2*
X37165D1*
X38129D2*
X39029D1*
X4350Y20427D2*
X9931D1*
X10610D2*
X11208D1*
X25586D2*
X31181D1*
X31661D2*
X31768D1*
X32376D2*
X32755D1*
X34473D2*
X37115D1*
X38180D2*
X39029D1*
X4350Y20179D2*
X5158D1*
X5762D2*
X9931D1*
X10610D2*
X11310D1*
X25586D2*
X29482D1*
X30161D2*
X31025D1*
X32411D2*
X32947D1*
X34325D2*
X36193D1*
X36903D2*
X37189D1*
X38106D2*
X39029D1*
X4350Y19930D2*
X4990D1*
X5930D2*
X9931D1*
X10610D2*
X11458D1*
X25586D2*
X29517D1*
X30672D2*
X31072D1*
X31766D2*
X36154D1*
X36942D2*
X37451D1*
X37844D2*
X39029D1*
X4350Y19681D2*
X4994D1*
X5926D2*
X9931D1*
X10610D2*
X11244D1*
X25586D2*
X29919D1*
X30696D2*
X32427D1*
X33891D2*
X36326D1*
X36770D2*
X37169D1*
X38126D2*
X39029D1*
X4350Y19432D2*
X5169D1*
X5751D2*
X5894D1*
X6637D2*
X9931D1*
X10766D2*
X11208D1*
X25586D2*
X30119D1*
X30497D2*
X32365D1*
X34536D2*
X37111D1*
X38184D2*
X39029D1*
X4723Y19184D2*
X5005D1*
X6649D2*
X9638D1*
X10907D2*
X11306D1*
X25586D2*
X32880D1*
X33200D2*
X33790D1*
X34583D2*
X37189D1*
X38106D2*
X38658D1*
X4735Y18935D2*
X4982D1*
X5938D2*
X6119D1*
X6411D2*
X9521D1*
X10911D2*
X11572D1*
X25586D2*
X33943D1*
X34430D2*
X36411D1*
X37309D2*
X37486D1*
X37817D2*
X38646D1*
X4501Y18686D2*
X5119D1*
X5801D2*
X9404D1*
X10911D2*
X11572D1*
X25586D2*
X36263D1*
X38126D2*
X38880D1*
X4350Y18438D2*
X5021D1*
X5899D2*
X8591D1*
X9008D2*
X9263D1*
X10911D2*
X11576D1*
X25579D2*
X34052D1*
X34246D2*
X36306D1*
X38184D2*
X39029D1*
X4350Y18189D2*
X4978D1*
X5946D2*
X8408D1*
X9192D2*
X9318D1*
X10001D2*
X10232D1*
X10911D2*
X29927D1*
X30317D2*
X33771D1*
X34532D2*
X36255D1*
X38118D2*
X39029D1*
X4350Y17940D2*
X5079D1*
X5840D2*
X7583D1*
X8317D2*
X8443D1*
X9161D2*
X10232D1*
X10911D2*
X19759D1*
X20200D2*
X29732D1*
X30512D2*
X33775D1*
X34528D2*
X36251D1*
X37426D2*
X37547D1*
X37751D2*
X39029D1*
X4350Y17692D2*
X6228D1*
X6934D2*
X7564D1*
X8336D2*
X10232D1*
X10911D2*
X19587D1*
X20372D2*
X29759D1*
X30485D2*
X36275D1*
X37426D2*
X37515D1*
X37848D2*
X39029D1*
X4350Y17443D2*
X5150D1*
X5372D2*
X6185D1*
X6973D2*
X7783D1*
X8118D2*
X10232D1*
X10911D2*
X14900D1*
X15442D2*
X17958D1*
X18583D2*
X19626D1*
X20336D2*
X36427D1*
X38067D2*
X39029D1*
X4350Y17194D2*
X4829D1*
X5692D2*
X6353D1*
X6805D2*
X10232D1*
X10911D2*
X11587D1*
X12294D2*
X14771D1*
X15567D2*
X17869D1*
X18669D2*
X36439D1*
X38047D2*
X39029D1*
X4350Y16946D2*
X4786D1*
X5731D2*
X10232D1*
X10911D2*
X11548D1*
X12333D2*
X14837D1*
X15504D2*
X17970D1*
X18571D2*
X19244D1*
X19657D2*
X31958D1*
X33485D2*
X36392D1*
X38059D2*
X39029D1*
X4350Y16697D2*
X4900D1*
X5618D2*
X10232D1*
X10911D2*
X11716D1*
X12165D2*
X15275D1*
X16004D2*
X18978D1*
X19825D2*
X31958D1*
X33485D2*
X33861D1*
X34520D2*
X35255D1*
X36317D2*
X36454D1*
X37989D2*
X39029D1*
X4350Y16448D2*
X10232D1*
X10911D2*
X15290D1*
X15989D2*
X18712D1*
X19774D2*
X31939D1*
X33508D2*
X33790D1*
X34590D2*
X35025D1*
X36528D2*
X39029D1*
X4350Y16200D2*
X10232D1*
X10911D2*
X18736D1*
X19426D2*
X32040D1*
X33403D2*
X33915D1*
X34465D2*
X35040D1*
X36508D2*
X39029D1*
X4350Y15951D2*
X9927D1*
X10911D2*
X11247D1*
X11993D2*
X13767D1*
X14434D2*
X15411D1*
X15868D2*
X32497D1*
X33614D2*
X37443D1*
X37864D2*
X39029D1*
X4350Y15702D2*
X8036D1*
X8762D2*
X9697D1*
X10911D2*
X11236D1*
X18001D2*
X19177D1*
X19864D2*
X30294D1*
X31028D2*
X32380D1*
X33731D2*
X34798D1*
X36333D2*
X37173D1*
X38137D2*
X39029D1*
X4350Y15453D2*
X8048D1*
X8754D2*
X9712D1*
X10911D2*
X11372D1*
X18305D2*
X19040D1*
X19997D2*
X29513D1*
X30094D2*
X30275D1*
X31047D2*
X32005D1*
X33669D2*
X34771D1*
X36360D2*
X37119D1*
X38188D2*
X39029D1*
X4350Y15205D2*
X5005D1*
X5715D2*
X10232D1*
X10911D2*
X11372D1*
X18555D2*
X19064D1*
X19977D2*
X29490D1*
X30118D2*
X30490D1*
X30833D2*
X30923D1*
X31559D2*
X31829D1*
X33727D2*
X34966D1*
X36161D2*
X37197D1*
X38110D2*
X39029D1*
X4350Y14956D2*
X4966D1*
X5754D2*
X10232D1*
X10911D2*
X11372D1*
X18801D2*
X19259D1*
X19778D2*
X30841D1*
X31641D2*
X31865D1*
X33586D2*
X34060D1*
X34801D2*
X37470D1*
X37829D2*
X39029D1*
X4350Y14707D2*
X5146D1*
X5575D2*
X10232D1*
X10911D2*
X11372D1*
X19969D2*
X30947D1*
X31532D2*
X33439D1*
X33625D2*
X34044D1*
X34817D2*
X37173D1*
X38126D2*
X39029D1*
X4350Y14459D2*
X5119D1*
X5801D2*
X10232D1*
X10911D2*
X11372D1*
X19969D2*
X29169D1*
X29598D2*
X33204D1*
X33856D2*
X34275D1*
X34586D2*
X37115D1*
X38184D2*
X38806D1*
X4350Y14210D2*
X5064D1*
X5856D2*
X10232D1*
X10911D2*
X11372D1*
X19782D2*
X29033D1*
X29731D2*
X33275D1*
X33786D2*
X36326D1*
X36797D2*
X37185D1*
X38114D2*
X38638D1*
X4350Y13961D2*
X5208D1*
X5711D2*
X8271D1*
X19954D2*
X29134D1*
X29633D2*
X36165D1*
X36954D2*
X37486D1*
X37813D2*
X38677D1*
X4350Y13713D2*
X8259D1*
X19977D2*
X29138D1*
X29629D2*
X32857D1*
X34372D2*
X36212D1*
X36911D2*
X37177D1*
X38126D2*
X39029D1*
X4350Y13464D2*
X8259D1*
X19840D2*
X29033D1*
X29735D2*
X31865D1*
X32465D2*
X32740D1*
X34497D2*
X37115D1*
X38184D2*
X39029D1*
X4350Y13215D2*
X7927D1*
X19958D2*
X29165D1*
X29977D2*
X31576D1*
X32504D2*
X32814D1*
X34434D2*
X37185D1*
X38118D2*
X39029D1*
X4350Y12967D2*
X7900D1*
X20004D2*
X29244D1*
X30036D2*
X31556D1*
X32489D2*
X32759D1*
X34501D2*
X37509D1*
X37794D2*
X39029D1*
X4350Y12718D2*
X8091D1*
X19903D2*
X29380D1*
X29899D2*
X31837D1*
X32493D2*
X32802D1*
X34411D2*
X37181D1*
X38122D2*
X39029D1*
X4350Y12469D2*
X8259D1*
X19934D2*
X31337D1*
X31661D2*
X31779D1*
X32442D2*
X32755D1*
X34477D2*
X37115D1*
X38184D2*
X39029D1*
X4350Y12221D2*
X8259D1*
X20004D2*
X29490D1*
X30157D2*
X31115D1*
X32430D2*
X32915D1*
X34356D2*
X36208D1*
X36891D2*
X37181D1*
X38122D2*
X39029D1*
X4350Y11972D2*
X8259D1*
X19934D2*
X29505D1*
X30665D2*
X31130D1*
X31868D2*
X36154D1*
X36946D2*
X37517D1*
X37786D2*
X39029D1*
X4350Y11723D2*
X8259D1*
X19848D2*
X29915D1*
X30704D2*
X32529D1*
X33864D2*
X36298D1*
X36805D2*
X37181D1*
X38118D2*
X39029D1*
X4350Y11474D2*
X8259D1*
X19848D2*
X30083D1*
X30536D2*
X32454D1*
X34524D2*
X37115D1*
X38184D2*
X39029D1*
X4350Y11226D2*
X8259D1*
X23165D2*
X32677D1*
X33297D2*
X33505D1*
X33712D2*
X33794D1*
X34590D2*
X37177D1*
X38122D2*
X39029D1*
X4350Y10977D2*
X5271D1*
X5711D2*
X8259D1*
X23415D2*
X24142D1*
X24879D2*
X33919D1*
X34461D2*
X36447D1*
X37282D2*
X37494D1*
X37805D2*
X39029D1*
X4350Y10728D2*
X5044D1*
X5938D2*
X8259D1*
X19848D2*
X22861D1*
X23661D2*
X24122D1*
X24895D2*
X36271D1*
X38114D2*
X39029D1*
X4350Y10480D2*
X5025D1*
X5958D2*
X8259D1*
X19844D2*
X23111D1*
X23911D2*
X24353D1*
X24669D2*
X36306D1*
X38188D2*
X39029D1*
X4350Y10231D2*
X5169D1*
X5813D2*
X8259D1*
X17942D2*
X21329D1*
X21950D2*
X22728D1*
X24149D2*
X24388D1*
X25044D2*
X25181D1*
X25700D2*
X26728D1*
X27352D2*
X29978D1*
X30266D2*
X36255D1*
X38133D2*
X39029D1*
X4350Y9982D2*
X8259D1*
X17942D2*
X21263D1*
X22016D2*
X22661D1*
X23419D2*
X23607D1*
X24192D2*
X24318D1*
X25821D2*
X26642D1*
X27438D2*
X29740D1*
X30508D2*
X36263D1*
X37840D2*
X39029D1*
X4350Y9734D2*
X8259D1*
X17942D2*
X21408D1*
X21876D2*
X22806D1*
X23274D2*
X23611D1*
X24192D2*
X24439D1*
X24993D2*
X25150D1*
X25735D2*
X26744D1*
X27340D2*
X29751D1*
X30497D2*
X36267D1*
X37419D2*
X37587D1*
X37780D2*
X39029D1*
X4661Y9485D2*
X8259D1*
X17942D2*
X23505D1*
X24294D2*
X36435D1*
X38063D2*
X38712D1*
X4751Y9236D2*
X8259D1*
X17942D2*
X23548D1*
X27762D2*
X36431D1*
X38059D2*
X38630D1*
X4653Y8988D2*
X8259D1*
X17942D2*
X23935D1*
X27790D2*
X31970D1*
X33481D2*
X36400D1*
X38059D2*
X38736D1*
X4350Y8739D2*
X8259D1*
X17942D2*
X21283D1*
X21817D2*
X27201D1*
X27602D2*
X31954D1*
X33497D2*
X35658D1*
X35891D2*
X36027D1*
X36258D2*
X36443D1*
X38008D2*
X39029D1*
X4350Y8490D2*
X8396D1*
X17825D2*
X21169D1*
X21930D2*
X31939D1*
X33508D2*
X35036D1*
X36524D2*
X39029D1*
X4350Y8242D2*
X11892D1*
X12540D2*
X12900D1*
X13583D2*
X14009D1*
X14672D2*
X16552D1*
X17176D2*
X21263D1*
X21836D2*
X32025D1*
X33422D2*
X35036D1*
X36520D2*
X39029D1*
X4350Y7993D2*
X10833D1*
X11247D2*
X11818D1*
X12614D2*
X12845D1*
X13637D2*
X13943D1*
X14739D2*
X16466D1*
X17266D2*
X35349D1*
X35478D2*
X39029D1*
X4350Y7744D2*
X5974D1*
X6907D2*
X10650D1*
X11430D2*
X11931D1*
X12501D2*
X12986D1*
X13497D2*
X14068D1*
X14614D2*
X16568D1*
X17165D2*
X30974D1*
X31907D2*
X39029D1*
X4350Y7495D2*
X5533D1*
X7348D2*
X10681D1*
X11399D2*
X30533D1*
X32348D2*
X39029D1*
X4350Y7247D2*
X5298D1*
X7579D2*
X8365D1*
X9419D2*
X10357D1*
X10626D2*
X11357D1*
X11626D2*
X12357D1*
X12626D2*
X13560D1*
X14618D2*
X30298D1*
X32579D2*
X39029D1*
X4350Y6998D2*
X5158D1*
X7723D2*
X8083D1*
X9700D2*
X9990D1*
X12993D2*
X13279D1*
X14899D2*
X30158D1*
X32723D2*
X39029D1*
X4350Y6749D2*
X5076D1*
X7805D2*
X7943D1*
X15040D2*
X15435D1*
X16165D2*
X16435D1*
X17165D2*
X17654D1*
X18407D2*
X18654D1*
X19407D2*
X19923D1*
X20696D2*
X20923D1*
X21696D2*
X21951D1*
X22669D2*
X23384D1*
X24157D2*
X24384D1*
X25157D2*
X25411D1*
X26129D2*
X26724D1*
X27555D2*
X27724D1*
X28555D2*
X28724D1*
X29555D2*
X30076D1*
X32805D2*
X34841D1*
X35618D2*
X35841D1*
X36618D2*
X36841D1*
X37618D2*
X39029D1*
X4350Y6501D2*
X5040D1*
X15098D2*
X15283D1*
X17317D2*
X17509D1*
X19551D2*
X19786D1*
X22813D2*
X23247D1*
X26274D2*
X26611D1*
X29669D2*
X30040D1*
X32840D2*
X34708D1*
X37754D2*
X39029D1*
X4350Y6252D2*
X5052D1*
X9899D2*
X10107D1*
X10876D2*
X11107D1*
X11876D2*
X12107D1*
X12876D2*
X13079D1*
X15094D2*
X15279D1*
X17321D2*
X17513D1*
X19547D2*
X19794D1*
X22805D2*
X23255D1*
X26266D2*
X26634D1*
X29645D2*
X30052D1*
X32829D2*
X34712D1*
X37747D2*
X39029D1*
X4350Y6003D2*
X5111D1*
X7770D2*
X7954D1*
X9829D2*
X13150D1*
X15028D2*
X15419D1*
X16180D2*
X16419D1*
X17180D2*
X17661D1*
X18399D2*
X18661D1*
X19399D2*
X19954D1*
X20669D2*
X20954D1*
X21669D2*
X21986D1*
X22637D2*
X23411D1*
X24129D2*
X24411D1*
X25129D2*
X25443D1*
X26094D2*
X26822D1*
X27458D2*
X27822D1*
X28458D2*
X28822D1*
X29458D2*
X30111D1*
X32770D2*
X34872D1*
X35586D2*
X35872D1*
X36586D2*
X36872D1*
X37586D2*
X39029D1*
X4350Y5755D2*
X5220D1*
X7657D2*
X8107D1*
X9676D2*
X13302D1*
X14876D2*
X30220D1*
X32657D2*
X39029D1*
X4350Y5506D2*
X5404D1*
X7477D2*
X8419D1*
X9364D2*
X13615D1*
X14563D2*
X30404D1*
X32477D2*
X39029D1*
X4350Y5257D2*
X5712D1*
X7169D2*
X30712D1*
X32169D2*
X39029D1*
X4350Y5009D2*
X39029D1*
X4350Y4760D2*
X39029D1*
X4715Y4511D2*
X8935D1*
X9665D2*
X13896D1*
X14626D2*
X18845D1*
X19575D2*
X23806D1*
X24532D2*
X28755D1*
X29485D2*
X33708D1*
X34434D2*
X38665D1*
X5086Y33580D2*
X5082Y33569D1*
X5218Y33606D1*
X5343Y33613D1*
X5467Y33597D1*
X5585Y33557D1*
X5694Y33496D1*
X5789Y33415D1*
X5867Y33318D1*
X5901Y33265D1*
X5991Y33351D1*
X6100Y33411D1*
X6240Y33443D1*
X6657Y33446D1*
X7172Y33442D1*
X7293Y33411D1*
X7416Y33336D1*
X7505Y33405D1*
X7618Y33457D1*
X7760Y33483D1*
X8468Y33486D1*
X8534Y33482D1*
X8656Y33454D1*
X8768Y33400D1*
X8867Y33323D1*
X8945Y33226D1*
X9001Y33115D1*
X9032Y32994D1*
X9037Y32917D1*
X9023Y32793D1*
X8983Y32674D1*
X8918Y32568D1*
X8831Y32478D1*
X8727Y32410D1*
X8610Y32365D1*
X8468Y32347D1*
X7795Y32348D1*
X7693Y32357D1*
X7574Y32393D1*
X7465Y32455D1*
X7366Y32538D1*
X7253Y32487D1*
X7109Y32465D1*
X6279Y32466D1*
X6179Y32476D1*
X6061Y32518D1*
X5958Y32588D1*
X5899Y32655D1*
X5872Y32601D1*
X5795Y32503D1*
X5700Y32421D1*
X5593Y32358D1*
X5475Y32317D1*
X5351Y32299D1*
X5226Y32304D1*
X5105Y32333D1*
X4991Y32385D1*
X4889Y32457D1*
X4803Y32547D1*
X4735Y32651D1*
X4688Y32767D1*
X4663Y32889D1*
Y33014D1*
X4693Y33155D1*
X4550Y33135D1*
X4425Y33144D1*
X4325Y33175D1*
Y29215D1*
X4457Y29200D1*
X4568Y29145D1*
X4656Y29057D1*
X4710Y28945D1*
X4725Y28840D1*
X4705Y28717D1*
X4645Y28608D1*
X4553Y28525D1*
X4438Y28476D1*
X4326Y28468D1*
X4325Y24317D1*
X4457Y24300D1*
X4568Y24245D1*
X4656Y24157D1*
X4710Y24045D1*
X4725Y23940D1*
X4705Y23817D1*
X4645Y23708D1*
X4553Y23625D1*
X4438Y23576D1*
X4326Y23568D1*
X4325Y19411D1*
X4457Y19400D1*
X4568Y19345D1*
X4656Y19257D1*
X4710Y19145D1*
X4725Y19040D1*
X4705Y18917D1*
X4645Y18808D1*
X4553Y18725D1*
X4438Y18676D1*
X4326Y18668D1*
X4325Y9614D1*
X4457Y9600D1*
X4568Y9545D1*
X4656Y9457D1*
X4710Y9345D1*
X4725Y9240D1*
X4705Y9117D1*
X4645Y9008D1*
X4553Y8925D1*
X4438Y8876D1*
X4326Y8868D1*
X4325Y4723D1*
X4457Y4710D1*
X4568Y4655D1*
X4656Y4567D1*
X4710Y4455D1*
X4725Y4350D1*
X4721Y4323D1*
X8923Y4325D1*
X8932Y4422D1*
X8976Y4538D1*
X9055Y4634D1*
X9161Y4699D1*
X9283Y4725D1*
X9407Y4710D1*
X9518Y4655D1*
X9606Y4567D1*
X9660Y4455D1*
X9675Y4350D1*
X9671Y4323D1*
X12450Y4325D1*
X13884D1*
X13892Y4422D1*
X13936Y4538D1*
X14015Y4634D1*
X14121Y4699D1*
X14243Y4725D1*
X14367Y4710D1*
X14478Y4655D1*
X14566Y4567D1*
X14620Y4455D1*
X14635Y4350D1*
X14631Y4323D1*
X18575Y4325D1*
X18837D1*
X18842Y4422D1*
X18886Y4538D1*
X18965Y4634D1*
X19071Y4699D1*
X19193Y4725D1*
X19317Y4710D1*
X19428Y4655D1*
X19516Y4567D1*
X19570Y4455D1*
X19585Y4350D1*
X19581Y4323D1*
X23798Y4325D1*
X23802Y4422D1*
X23846Y4538D1*
X23925Y4634D1*
X24031Y4699D1*
X24153Y4725D1*
X24277Y4710D1*
X24388Y4655D1*
X24476Y4567D1*
X24530Y4455D1*
X24545Y4350D1*
X24541Y4323D1*
X27450Y4325D1*
X28743D1*
X28752Y4422D1*
X28796Y4538D1*
X28875Y4634D1*
X28981Y4699D1*
X29103Y4725D1*
X29227Y4710D1*
X29338Y4655D1*
X29426Y4567D1*
X29480Y4455D1*
X29495Y4350D1*
X29491Y4323D1*
X33696Y4325D1*
X33702Y4422D1*
X33746Y4538D1*
X33825Y4634D1*
X33931Y4699D1*
X34053Y4725D1*
X34177Y4710D1*
X34288Y4655D1*
X34376Y4567D1*
X34430Y4455D1*
X34445Y4350D1*
X34441Y4323D1*
X36700Y4325D1*
X38657D1*
X38662Y4422D1*
X38706Y4538D1*
X38785Y4634D1*
X38891Y4699D1*
X39013Y4725D1*
X39055Y4720D1*
Y8876D1*
X38994Y8877D1*
X38874Y8909D1*
X38771Y8979D1*
X38697Y9079D1*
X38659Y9197D1*
X38662Y9322D1*
X38706Y9438D1*
X38785Y9534D1*
X38891Y9599D1*
X39013Y9625D1*
X39055Y9620D1*
Y13767D1*
X38994D1*
X38874Y13799D1*
X38771Y13869D1*
X38697Y13969D1*
X38659Y14087D1*
X38662Y14212D1*
X38706Y14328D1*
X38785Y14424D1*
X38891Y14489D1*
X39013Y14515D1*
X39055Y14510D1*
Y18665D1*
X38994Y18667D1*
X38874Y18699D1*
X38771Y18769D1*
X38697Y18869D1*
X38659Y18987D1*
X38662Y19112D1*
X38706Y19228D1*
X38785Y19324D1*
X38891Y19389D1*
X39013Y19415D1*
X39055Y19410D1*
Y23563D1*
X38994Y23567D1*
X38874Y23599D1*
X38771Y23669D1*
X38697Y23769D1*
X38659Y23887D1*
X38662Y24012D1*
X38706Y24128D1*
X38785Y24224D1*
X38891Y24289D1*
X39013Y24315D1*
X39055Y24310D1*
Y28470D1*
X38994Y28467D1*
X38874Y28499D1*
X38771Y28569D1*
X38697Y28669D1*
X38659Y28787D1*
X38662Y28912D1*
X38706Y29028D1*
X38785Y29124D1*
X38891Y29189D1*
X39013Y29215D1*
X39055Y29210D1*
Y33353D1*
X38994Y33357D1*
X38874Y33389D1*
X38771Y33459D1*
X38697Y33559D1*
X38659Y33677D1*
X38662Y33802D1*
X38706Y33918D1*
X38785Y34014D1*
X38891Y34079D1*
X39013Y34105D1*
X39055Y34100D1*
Y38259D1*
X38994Y38257D1*
X38874Y38289D1*
X38771Y38359D1*
X38697Y38459D1*
X38659Y38577D1*
X38662Y38702D1*
X38706Y38818D1*
X38785Y38914D1*
X38891Y38979D1*
X39013Y39005D1*
X39055Y39000D1*
Y43157D1*
X38994D1*
X38874Y43189D1*
X38771Y43259D1*
X38697Y43359D1*
X38659Y43477D1*
X38661Y43559D1*
X37805Y43555D1*
X34442D1*
X34425Y43407D1*
X34365Y43298D1*
X34273Y43215D1*
X34158Y43166D1*
X34034Y43157D1*
X33914Y43189D1*
X33811Y43259D1*
X33737Y43359D1*
X33699Y43477D1*
X33701Y43559D1*
X33305Y43555D1*
X29497D1*
X29475Y43407D1*
X29415Y43298D1*
X29323Y43215D1*
X29208Y43166D1*
X29084Y43157D1*
X28964Y43189D1*
X28861Y43259D1*
X28787Y43359D1*
X28749Y43477D1*
X28751Y43559D1*
X28180Y43555D1*
X24543D1*
X24525Y43407D1*
X24465Y43298D1*
X24373Y43215D1*
X24258Y43166D1*
X24134Y43157D1*
X24014Y43189D1*
X23911Y43259D1*
X23837Y43359D1*
X23799Y43477D1*
X23801Y43559D1*
X22930Y43555D1*
X19583D1*
X19565Y43407D1*
X19505Y43298D1*
X19413Y43215D1*
X19298Y43166D1*
X19174Y43157D1*
X19054Y43189D1*
X18951Y43259D1*
X18877Y43359D1*
X18839Y43477D1*
X18841Y43559D1*
X18430Y43555D1*
X14637D1*
X14615Y43407D1*
X14555Y43298D1*
X14463Y43215D1*
X14348Y43166D1*
X14224Y43157D1*
X14104Y43189D1*
X14001Y43259D1*
X13927Y43359D1*
X13889Y43477D1*
X13891Y43559D1*
X13180Y43555D1*
X9676D1*
X9655Y43407D1*
X9595Y43298D1*
X9503Y43215D1*
X9388Y43166D1*
X9264Y43157D1*
X9144Y43189D1*
X9041Y43259D1*
X8967Y43359D1*
X8929Y43477D1*
X8931Y43559D1*
X8055Y43555D1*
X4723D1*
X4705Y43407D1*
X4645Y43298D1*
X4553Y43215D1*
X4438Y43166D1*
X4326Y43158D1*
X4325Y39004D1*
X4457Y38990D1*
X4568Y38935D1*
X4656Y38847D1*
X4710Y38735D1*
X4725Y38630D1*
X4705Y38507D1*
X4645Y38398D1*
X4553Y38315D1*
X4438Y38266D1*
X4326Y38258D1*
X4325Y34708D1*
X4473Y34743D1*
X4597Y34742D1*
X4692Y34720D1*
X4663Y34858D1*
Y34983D1*
X4686Y35105D1*
X4731Y35222D1*
X4798Y35327D1*
X4883Y35418D1*
X4984Y35491D1*
X5097Y35544D1*
X5218Y35575D1*
X5343Y35582D1*
X5467Y35565D1*
X5585Y35526D1*
X5694Y35464D1*
X5789Y35383D1*
X5867Y35286D1*
X5901Y35233D1*
X5991Y35319D1*
X6100Y35380D1*
X6240Y35411D1*
X6657Y35415D1*
X7172Y35411D1*
X7293Y35379D1*
X7371Y35336D1*
X7406Y35376D1*
X7505Y35452D1*
X7618Y35504D1*
X7760Y35530D1*
X8468Y35533D1*
X8534Y35529D1*
X8656Y35501D1*
X8768Y35447D1*
X8867Y35370D1*
X8945Y35273D1*
X9001Y35162D1*
X9032Y35041D1*
X9037Y34964D1*
X9023Y34840D1*
X8983Y34722D1*
X8918Y34615D1*
X8831Y34526D1*
X8727Y34457D1*
X8610Y34413D1*
X8468Y34394D1*
X7795Y34396D1*
X7693Y34404D1*
X7574Y34441D1*
X7465Y34502D1*
X7416Y34546D1*
X7366Y34507D1*
X7253Y34455D1*
X7109Y34434D1*
X6279Y34435D1*
X6179Y34445D1*
X6061Y34486D1*
X5958Y34556D1*
X5899Y34624D1*
X5872Y34569D1*
X5795Y34471D1*
X5700Y34389D1*
X5593Y34327D1*
X5475Y34286D1*
X5351Y34267D1*
X5226Y34273D1*
X5080Y34313D1*
X5100Y34176D1*
Y33704D1*
X5086Y33580D1*
X6114Y30745D2*
X6085Y30623D1*
X6038Y30508D1*
X5973Y30401D1*
X5893Y30305D1*
X5799Y30223D1*
X5693Y30156D1*
X5578Y30107D1*
X5458Y30076D1*
X5333Y30064D1*
X5209Y30071D1*
X5087Y30098D1*
X4970Y30143D1*
X4862Y30205D1*
X4765Y30284D1*
X4681Y30376D1*
X4612Y30481D1*
X4561Y30594D1*
X4527Y30715D1*
X4513Y30839D1*
X4518Y30963D1*
X4542Y31086D1*
X4585Y31203D1*
X4645Y31312D1*
X4722Y31411D1*
X4813Y31497D1*
X4916Y31567D1*
X5028Y31621D1*
X5148Y31657D1*
X5272Y31674D1*
X5397Y31671D1*
X5520Y31649D1*
X5638Y31609D1*
X5748Y31550D1*
X5848Y31476D1*
X5936Y31386D1*
X6008Y31285D1*
X6064Y31173D1*
X6102Y31054D1*
X6123Y30869D1*
X6114Y30745D1*
Y36887D2*
X6085Y36765D1*
X6038Y36649D1*
X5973Y36543D1*
X5893Y36447D1*
X5799Y36365D1*
X5693Y36298D1*
X5578Y36249D1*
X5458Y36218D1*
X5333Y36206D1*
X5209Y36213D1*
X5087Y36239D1*
X4970Y36284D1*
X4862Y36347D1*
X4765Y36425D1*
X4681Y36518D1*
X4612Y36622D1*
X4561Y36736D1*
X4527Y36856D1*
X4513Y36980D1*
X4518Y37105D1*
X4542Y37228D1*
X4585Y37345D1*
X4645Y37454D1*
X4722Y37553D1*
X4813Y37638D1*
X4916Y37709D1*
X5028Y37763D1*
X5148Y37798D1*
X5272Y37815D1*
X5397Y37813D1*
X5520Y37791D1*
X5638Y37750D1*
X5748Y37692D1*
X5848Y37617D1*
X5936Y37528D1*
X6008Y37426D1*
X6064Y37315D1*
X6102Y37196D1*
X6123Y37011D1*
X6114Y36887D1*
X9553Y30746D2*
X9506Y30630D1*
X9432Y30530D1*
X9335Y30451D1*
X9221Y30400D1*
X9078Y30379D1*
X8247Y30380D1*
X8147Y30390D1*
X8030Y30431D1*
X7927Y30501D1*
X7844Y30595D1*
X7788Y30706D1*
X7762Y30828D1*
X7768Y30953D1*
X7804Y31072D1*
X7870Y31178D1*
X7960Y31264D1*
X8069Y31325D1*
X8209Y31356D1*
X8626Y31360D1*
X9141Y31356D1*
X9261Y31324D1*
X9370Y31263D1*
X9460Y31177D1*
X9525Y31071D1*
X9561Y30951D1*
X9568Y30869D1*
X9553Y30746D1*
X9267Y36563D2*
X9221Y36542D1*
X9078Y36520D1*
X8247Y36522D1*
X8147Y36531D1*
X8030Y36573D1*
X7927Y36643D1*
X7844Y36737D1*
X7788Y36848D1*
X7762Y36970D1*
X7768Y37094D1*
X7804Y37214D1*
X7870Y37320D1*
X7960Y37406D1*
X8069Y37466D1*
X8209Y37498D1*
X8626Y37502D1*
X9141Y37498D1*
X9261Y37466D1*
X9370Y37405D1*
X9460Y37319D1*
X9525Y37212D1*
X9561Y37093D1*
X9568Y37011D1*
X9561Y36953D1*
X9623Y36965D1*
X9747Y36950D1*
X9834Y36907D1*
X9901Y36939D1*
X10023Y36965D1*
X10147Y36950D1*
X10255Y36897D1*
X10326Y36939D1*
X10448Y36965D1*
X10572Y36950D1*
X10683Y36895D1*
X10771Y36807D1*
X10825Y36695D1*
X10840Y36590D1*
X10820Y36467D1*
X10760Y36358D1*
X10668Y36275D1*
X10553Y36226D1*
X10429Y36217D1*
X10309Y36249D1*
X10254Y36286D1*
X10128Y36226D1*
X10004Y36217D1*
X9884Y36249D1*
X9842Y36278D1*
X9728Y36226D1*
X9604Y36217D1*
X9484Y36249D1*
X9381Y36319D1*
X9307Y36419D1*
X9269Y36557D1*
X7509Y31454D2*
X7472Y31334D1*
X7412Y31225D1*
X7332Y31129D1*
X7235Y31051D1*
X7124Y30994D1*
X7004Y30960D1*
X6880Y30950D1*
X6756Y30965D1*
X6637Y31004D1*
X6529Y31066D1*
X6435Y31148D1*
X6359Y31247D1*
X6304Y31359D1*
X6272Y31479D1*
X6265Y31604D1*
X6282Y31727D1*
X6324Y31845D1*
X6388Y31952D1*
X6472Y32045D1*
X6572Y32119D1*
X6685Y32171D1*
X6807Y32200D1*
X6931Y32205D1*
X7055Y32185D1*
X7171Y32141D1*
X7277Y32075D1*
X7368Y31989D1*
X7440Y31887D1*
X7490Y31773D1*
X7517Y31651D1*
X7521Y31578D1*
X7509Y31454D1*
X8704Y23324D2*
X8658Y23209D1*
X8585Y23108D1*
X8488Y23029D1*
X8375Y22977D1*
X8252Y22954D1*
X8128Y22963D1*
X8010Y23003D1*
X7905Y23071D1*
X7835Y23149D1*
X7701Y23029D1*
X7588Y22977D1*
X7465Y22954D1*
X7341Y22963D1*
X7222Y23003D1*
X7118Y23071D1*
X7034Y23163D1*
X6976Y23273D1*
X6947Y23395D1*
X6949Y23519D1*
X6982Y23639D1*
X7044Y23747D1*
X7132Y23836D1*
X7239Y23901D1*
X7358Y23936D1*
X7417Y23938D1*
X7341Y23947D1*
X7222Y23987D1*
X7118Y24055D1*
X7034Y24147D1*
X6976Y24258D1*
X6947Y24379D1*
X6949Y24503D1*
X6982Y24624D1*
X7044Y24732D1*
X7132Y24820D1*
X7239Y24885D1*
X7358Y24920D1*
X7483Y24925D1*
X7604Y24898D1*
X7716Y24842D1*
X7809Y24759D1*
X7832Y24732D1*
X7919Y24820D1*
X8026Y24885D1*
X8146Y24920D1*
X8270Y24925D1*
X8392Y24898D1*
X8503Y24842D1*
X8597Y24759D1*
X8667Y24656D1*
X8709Y24539D1*
X8720Y24432D1*
X8704Y24309D1*
X8658Y24193D1*
X8585Y24092D1*
X8488Y24013D1*
X8375Y23961D1*
X8264Y23941D1*
X8128Y23947D1*
X8010Y23987D1*
X7905Y24055D1*
X7835Y24133D1*
X7701Y24013D1*
X7588Y23961D1*
X7476Y23941D1*
X7604Y23914D1*
X7716Y23857D1*
X7809Y23775D1*
X7832Y23747D1*
X7919Y23836D1*
X8026Y23901D1*
X8146Y23936D1*
X8274Y23940D1*
X8392Y23914D1*
X8503Y23857D1*
X8597Y23775D1*
X8667Y23672D1*
X8709Y23554D1*
X8720Y23448D1*
X8704Y23324D1*
X7227Y26186D2*
X7200Y26064D1*
X7156Y25947D1*
X7095Y25838D1*
X7020Y25738D1*
X6930Y25651D1*
X6830Y25577D1*
X6719Y25519D1*
X6602Y25477D1*
X6479Y25452D1*
X6354Y25446D1*
X6230Y25457D1*
X6109Y25486D1*
X5993Y25533D1*
X5885Y25596D1*
X5787Y25673D1*
X5701Y25764D1*
X5629Y25866D1*
X5573Y25978D1*
X5534Y26096D1*
X5511Y26219D1*
X5507Y26344D1*
X5521Y26468D1*
X5553Y26589D1*
X5601Y26704D1*
X5666Y26811D1*
X5746Y26907D1*
X5838Y26991D1*
X5942Y27061D1*
X6054Y27115D1*
X6174Y27152D1*
X6297Y27172D1*
X6422Y27173D1*
X6546Y27157D1*
X6666Y27123D1*
X6780Y27072D1*
X6885Y27005D1*
X6980Y26924D1*
X7062Y26830D1*
X7130Y26725D1*
X7182Y26611D1*
X7217Y26491D1*
X7236Y26310D1*
X7227Y26186D1*
Y21446D2*
X7200Y21324D1*
X7156Y21207D1*
X7095Y21097D1*
X7020Y20998D1*
X6930Y20911D1*
X6830Y20837D1*
X6719Y20779D1*
X6602Y20737D1*
X6479Y20712D1*
X6354Y20706D1*
X6230Y20717D1*
X6109Y20746D1*
X5993Y20793D1*
X5885Y20855D1*
X5787Y20933D1*
X5701Y21024D1*
X5629Y21126D1*
X5573Y21238D1*
X5534Y21356D1*
X5511Y21479D1*
X5507Y21604D1*
X5521Y21728D1*
X5553Y21849D1*
X5601Y21964D1*
X5666Y22071D1*
X5746Y22167D1*
X5838Y22251D1*
X5942Y22321D1*
X6054Y22375D1*
X6174Y22412D1*
X6297Y22431D1*
X6422Y22433D1*
X6546Y22417D1*
X6666Y22383D1*
X6780Y22332D1*
X6885Y22265D1*
X6980Y22184D1*
X7062Y22090D1*
X7130Y21985D1*
X7182Y21871D1*
X7217Y21751D1*
X7236Y21570D1*
X7227Y21446D1*
X38155Y35366D2*
X38110Y35250D1*
X38039Y35148D1*
X37944Y35066D1*
X37833Y35010D1*
X37746Y34990D1*
X37877Y34949D1*
X37983Y34883D1*
X38070Y34794D1*
X38133Y34686D1*
X38167Y34566D1*
X38174Y34485D1*
X38158Y34362D1*
X38114Y34245D1*
X38042Y34143D1*
X37948Y34062D1*
X37836Y34005D1*
X37715Y33978D1*
X37590Y33980D1*
X37470Y34013D1*
X37385Y34061D1*
X37413Y33990D1*
X37428Y33885D1*
X37408Y33763D1*
X37395Y33739D1*
X37555Y33734D1*
X37676Y33760D1*
X37800Y33745D1*
X37912Y33690D1*
X37999Y33602D1*
X38053Y33490D1*
X38068Y33385D1*
X38048Y33263D1*
X37990Y33157D1*
X38033Y33060D1*
X38048Y32955D1*
X38028Y32833D1*
X37968Y32724D1*
X37876Y32640D1*
X37762Y32591D1*
X37637Y32582D1*
X37517Y32614D1*
X37469Y32647D1*
X37342Y32591D1*
X37217Y32582D1*
X37097Y32614D1*
X37036Y32656D1*
X37006Y32630D1*
X36892Y32581D1*
X36767Y32572D1*
X36647Y32604D1*
X36544Y32674D1*
X36470Y32774D1*
X36432Y32893D1*
X36435Y33017D1*
X36479Y33133D1*
X36511Y33172D1*
X36490Y33204D1*
X36452Y33323D1*
X36455Y33447D1*
X36492Y33545D1*
X36394Y33614D1*
X36320Y33714D1*
X36282Y33833D1*
X36285Y33957D1*
X36341Y34088D1*
X36292Y34233D1*
X36295Y34357D1*
X36351Y34488D1*
X36302Y34623D1*
X36305Y34747D1*
X36349Y34863D1*
X36428Y34959D1*
X36535Y35024D1*
X36656Y35050D1*
X36780Y35035D1*
X36867Y34992D1*
X36935Y35024D1*
X37056Y35050D1*
X37180Y35035D1*
X37292Y34980D1*
X37371Y34901D1*
X37511Y34972D1*
X37584Y34986D1*
X37467Y35018D1*
X37358Y35079D1*
X37267Y35165D1*
X37200Y35270D1*
X37160Y35388D1*
X37150Y35512D1*
X37171Y35635D1*
X37221Y35749D1*
X37297Y35848D1*
X37394Y35926D1*
X37508Y35977D1*
X37565Y35988D1*
X37467Y36018D1*
X37358Y36079D1*
X37267Y36165D1*
X37200Y36270D1*
X37160Y36388D1*
X37150Y36512D1*
X37171Y36635D1*
X37221Y36749D1*
X37297Y36848D1*
X37394Y36926D1*
X37508Y36977D1*
X37565Y36988D1*
X37467Y37018D1*
X37358Y37079D1*
X37267Y37165D1*
X37200Y37270D1*
X37160Y37388D1*
X37150Y37512D1*
X37171Y37635D1*
X37221Y37749D1*
X37297Y37848D1*
X37394Y37926D1*
X37508Y37977D1*
X37565Y37988D1*
X37467Y38018D1*
X37358Y38079D1*
X37267Y38165D1*
X37200Y38270D1*
X37160Y38388D1*
X37150Y38512D1*
X37171Y38635D1*
X37221Y38749D1*
X37297Y38848D1*
X37394Y38926D1*
X37508Y38977D1*
X37588Y38992D1*
X37470Y39023D1*
X37361Y39084D1*
X37270Y39170D1*
X37203Y39275D1*
X37163Y39393D1*
X37154Y39517D1*
X37174Y39640D1*
X37224Y39755D1*
X37300Y39854D1*
X37398Y39931D1*
X37511Y39982D1*
X37634Y40005D1*
X37758Y39997D1*
X37877Y39959D1*
X37983Y39893D1*
X38070Y39804D1*
X38133Y39696D1*
X38167Y39576D1*
X38174Y39495D1*
X38158Y39372D1*
X38114Y39255D1*
X38042Y39153D1*
X37948Y39072D1*
X37836Y39015D1*
X37755Y38992D1*
X37874Y38954D1*
X37980Y38888D1*
X38067Y38799D1*
X38129Y38691D1*
X38164Y38571D1*
X38170Y38490D1*
X38155Y38366D1*
X38110Y38250D1*
X38039Y38148D1*
X37944Y38066D1*
X37833Y38010D1*
X37753Y37992D1*
X37874Y37954D1*
X37980Y37888D1*
X38067Y37799D1*
X38129Y37691D1*
X38164Y37571D1*
X38170Y37490D1*
X38155Y37366D1*
X38110Y37250D1*
X38039Y37148D1*
X37944Y37066D1*
X37833Y37010D1*
X37753Y36992D1*
X37874Y36954D1*
X37980Y36888D1*
X38067Y36799D1*
X38129Y36691D1*
X38164Y36571D1*
X38170Y36490D1*
X38155Y36366D1*
X38110Y36250D1*
X38039Y36148D1*
X37944Y36066D1*
X37833Y36010D1*
X37753Y35992D1*
X37874Y35954D1*
X37980Y35888D1*
X38067Y35799D1*
X38129Y35691D1*
X38164Y35571D1*
X38170Y35490D1*
X38155Y35366D1*
Y27306D2*
X38110Y27190D1*
X38039Y27088D1*
X37944Y27006D1*
X37833Y26950D1*
X37746Y26930D1*
X37877Y26889D1*
X37983Y26823D1*
X38070Y26734D1*
X38133Y26626D1*
X38167Y26506D1*
X38174Y26425D1*
X38158Y26302D1*
X38114Y26185D1*
X38042Y26083D1*
X37948Y26002D1*
X37836Y25945D1*
X37715Y25918D1*
X37590Y25920D1*
X37470Y25953D1*
X37385Y26001D1*
X37413Y25930D1*
X37428Y25825D1*
X37408Y25703D1*
X37395Y25679D1*
X37555Y25674D1*
X37676Y25700D1*
X37800Y25685D1*
X37912Y25630D1*
X37999Y25542D1*
X38053Y25430D1*
X38068Y25325D1*
X38048Y25203D1*
X37990Y25097D1*
X38033Y25000D1*
X38048Y24895D1*
X38028Y24773D1*
X37968Y24664D1*
X37876Y24580D1*
X37762Y24531D1*
X37637Y24522D1*
X37517Y24554D1*
X37469Y24587D1*
X37342Y24531D1*
X37217Y24522D1*
X37097Y24554D1*
X37036Y24596D1*
X37006Y24570D1*
X36892Y24521D1*
X36767Y24512D1*
X36647Y24544D1*
X36544Y24614D1*
X36470Y24714D1*
X36432Y24833D1*
X36435Y24957D1*
X36479Y25073D1*
X36511Y25112D1*
X36490Y25144D1*
X36452Y25263D1*
X36455Y25387D1*
X36492Y25485D1*
X36394Y25554D1*
X36320Y25654D1*
X36282Y25773D1*
X36285Y25897D1*
X36341Y26028D1*
X36292Y26173D1*
X36295Y26297D1*
X36351Y26428D1*
X36302Y26563D1*
X36305Y26687D1*
X36349Y26803D1*
X36428Y26899D1*
X36535Y26964D1*
X36656Y26990D1*
X36780Y26975D1*
X36867Y26932D1*
X36935Y26964D1*
X37056Y26990D1*
X37180Y26975D1*
X37292Y26920D1*
X37371Y26841D1*
X37511Y26912D1*
X37584Y26926D1*
X37467Y26958D1*
X37358Y27019D1*
X37267Y27105D1*
X37200Y27210D1*
X37160Y27328D1*
X37150Y27452D1*
X37171Y27575D1*
X37221Y27689D1*
X37297Y27788D1*
X37394Y27866D1*
X37508Y27917D1*
X37565Y27928D1*
X37467Y27958D1*
X37358Y28019D1*
X37267Y28105D1*
X37200Y28210D1*
X37160Y28328D1*
X37150Y28452D1*
X37171Y28575D1*
X37221Y28689D1*
X37297Y28788D1*
X37394Y28866D1*
X37508Y28917D1*
X37565Y28928D1*
X37467Y28958D1*
X37358Y29019D1*
X37267Y29105D1*
X37200Y29210D1*
X37160Y29328D1*
X37150Y29452D1*
X37171Y29575D1*
X37221Y29689D1*
X37297Y29788D1*
X37394Y29866D1*
X37508Y29917D1*
X37565Y29928D1*
X37467Y29958D1*
X37358Y30019D1*
X37267Y30105D1*
X37200Y30210D1*
X37160Y30328D1*
X37150Y30452D1*
X37171Y30575D1*
X37221Y30689D1*
X37297Y30788D1*
X37394Y30866D1*
X37508Y30917D1*
X37588Y30932D1*
X37470Y30963D1*
X37361Y31024D1*
X37270Y31110D1*
X37203Y31215D1*
X37163Y31333D1*
X37154Y31457D1*
X37174Y31580D1*
X37224Y31695D1*
X37300Y31794D1*
X37398Y31871D1*
X37511Y31922D1*
X37634Y31945D1*
X37758Y31937D1*
X37877Y31899D1*
X37983Y31833D1*
X38070Y31744D1*
X38133Y31636D1*
X38167Y31516D1*
X38174Y31435D1*
X38158Y31312D1*
X38114Y31195D1*
X38042Y31093D1*
X37948Y31012D1*
X37836Y30955D1*
X37755Y30932D1*
X37874Y30894D1*
X37980Y30828D1*
X38067Y30739D1*
X38129Y30631D1*
X38164Y30511D1*
X38170Y30430D1*
X38155Y30306D1*
X38110Y30190D1*
X38039Y30088D1*
X37944Y30006D1*
X37833Y29950D1*
X37753Y29932D1*
X37874Y29894D1*
X37980Y29828D1*
X38067Y29739D1*
X38129Y29631D1*
X38164Y29511D1*
X38170Y29430D1*
X38155Y29306D1*
X38110Y29190D1*
X38039Y29088D1*
X37944Y29006D1*
X37833Y28950D1*
X37753Y28932D1*
X37874Y28894D1*
X37980Y28828D1*
X38067Y28739D1*
X38129Y28631D1*
X38164Y28511D1*
X38170Y28430D1*
X38155Y28306D1*
X38110Y28190D1*
X38039Y28088D1*
X37944Y28006D1*
X37833Y27950D1*
X37753Y27932D1*
X37874Y27894D1*
X37980Y27828D1*
X38067Y27739D1*
X38129Y27631D1*
X38164Y27511D1*
X38170Y27430D1*
X38155Y27306D1*
X38142Y19326D2*
X38098Y19209D1*
X38026Y19107D1*
X37932Y19026D1*
X37820Y18969D1*
X37733Y18950D1*
X37864Y18908D1*
X37970Y18843D1*
X38057Y18753D1*
X38120Y18645D1*
X38154Y18526D1*
X38161Y18445D1*
X38146Y18321D1*
X38101Y18205D1*
X38029Y18103D1*
X37935Y18021D1*
X37824Y17965D1*
X37702Y17937D1*
X37577Y17940D1*
X37457Y17973D1*
X37372Y18020D1*
X37401Y17950D1*
X37416Y17845D1*
X37395Y17722D1*
X37382Y17698D1*
X37542Y17693D1*
X37663Y17719D1*
X37787Y17704D1*
X37899Y17650D1*
X37987Y17562D1*
X38041Y17450D1*
X38056Y17345D1*
X38035Y17222D1*
X37977Y17116D1*
X38021Y17020D1*
X38036Y16915D1*
X38015Y16792D1*
X37955Y16683D1*
X37863Y16599D1*
X37749Y16550D1*
X37625Y16541D1*
X37505Y16574D1*
X37456Y16606D1*
X37329Y16550D1*
X37205Y16541D1*
X37085Y16574D1*
X37023Y16615D1*
X36993Y16589D1*
X36879Y16540D1*
X36755Y16531D1*
X36635Y16564D1*
X36532Y16634D1*
X36457Y16733D1*
X36419Y16852D1*
X36423Y16976D1*
X36466Y17093D1*
X36498Y17132D1*
X36477Y17163D1*
X36439Y17282D1*
X36443Y17406D1*
X36479Y17505D1*
X36382Y17574D1*
X36307Y17673D1*
X36269Y17792D1*
X36273Y17916D1*
X36329Y18048D1*
X36279Y18192D1*
X36283Y18316D1*
X36339Y18448D1*
X36289Y18582D1*
X36293Y18706D1*
X36336Y18823D1*
X36416Y18919D1*
X36522Y18983D1*
X36643Y19009D1*
X36767Y18994D1*
X36854Y18952D1*
X36922Y18983D1*
X37043Y19009D1*
X37167Y18994D1*
X37279Y18940D1*
X37358Y18860D1*
X37498Y18932D1*
X37571Y18945D1*
X37454Y18977D1*
X37345Y19038D1*
X37254Y19124D1*
X37187Y19229D1*
X37148Y19347D1*
X37138Y19471D1*
X37158Y19594D1*
X37208Y19709D1*
X37284Y19808D1*
X37382Y19885D1*
X37495Y19936D1*
X37553Y19947D1*
X37454Y19977D1*
X37345Y20038D1*
X37254Y20124D1*
X37187Y20229D1*
X37148Y20347D1*
X37138Y20471D1*
X37158Y20594D1*
X37208Y20709D1*
X37284Y20808D1*
X37382Y20885D1*
X37495Y20936D1*
X37553Y20947D1*
X37454Y20977D1*
X37345Y21038D1*
X37254Y21124D1*
X37187Y21229D1*
X37148Y21347D1*
X37138Y21471D1*
X37158Y21594D1*
X37208Y21709D1*
X37284Y21808D1*
X37382Y21885D1*
X37495Y21936D1*
X37553Y21947D1*
X37454Y21977D1*
X37345Y22038D1*
X37254Y22124D1*
X37187Y22229D1*
X37148Y22347D1*
X37138Y22471D1*
X37158Y22594D1*
X37208Y22709D1*
X37284Y22808D1*
X37382Y22885D1*
X37495Y22936D1*
X37576Y22951D1*
X37457Y22983D1*
X37348Y23044D1*
X37258Y23129D1*
X37190Y23234D1*
X37151Y23352D1*
X37141Y23477D1*
X37161Y23600D1*
X37211Y23714D1*
X37287Y23813D1*
X37385Y23890D1*
X37498Y23942D1*
X37621Y23964D1*
X37745Y23956D1*
X37864Y23918D1*
X37970Y23853D1*
X38057Y23763D1*
X38120Y23655D1*
X38154Y23536D1*
X38161Y23455D1*
X38146Y23331D1*
X38101Y23215D1*
X38029Y23113D1*
X37935Y23031D1*
X37824Y22975D1*
X37742Y22951D1*
X37861Y22913D1*
X37967Y22847D1*
X38054Y22758D1*
X38117Y22650D1*
X38151Y22530D1*
X38158Y22449D1*
X38142Y22326D1*
X38098Y22209D1*
X38026Y22107D1*
X37932Y22026D1*
X37820Y21969D1*
X37741Y21951D1*
X37861Y21913D1*
X37967Y21847D1*
X38054Y21758D1*
X38117Y21650D1*
X38151Y21530D1*
X38158Y21449D1*
X38142Y21326D1*
X38098Y21209D1*
X38026Y21107D1*
X37932Y21026D1*
X37820Y20969D1*
X37741Y20951D1*
X37861Y20913D1*
X37967Y20847D1*
X38054Y20758D1*
X38117Y20650D1*
X38151Y20530D1*
X38158Y20449D1*
X38142Y20326D1*
X38098Y20209D1*
X38026Y20107D1*
X37932Y20026D1*
X37820Y19969D1*
X37741Y19951D1*
X37861Y19913D1*
X37967Y19847D1*
X38054Y19758D1*
X38117Y19650D1*
X38151Y19530D1*
X38158Y19449D1*
X38142Y19326D1*
X38145Y11346D2*
X38100Y11230D1*
X38029Y11128D1*
X37934Y11046D1*
X37823Y10990D1*
X37736Y10970D1*
X37867Y10929D1*
X37973Y10863D1*
X38060Y10774D1*
X38123Y10666D1*
X38157Y10546D1*
X38164Y10465D1*
X38148Y10342D1*
X38104Y10225D1*
X38032Y10123D1*
X37938Y10042D1*
X37826Y9985D1*
X37705Y9958D1*
X37580Y9960D1*
X37460Y9993D1*
X37375Y10041D1*
X37403Y9970D1*
X37418Y9865D1*
X37398Y9743D1*
X37385Y9719D1*
X37545Y9714D1*
X37666Y9740D1*
X37790Y9725D1*
X37902Y9670D1*
X37989Y9582D1*
X38043Y9470D1*
X38058Y9365D1*
X38038Y9243D1*
X37980Y9137D1*
X38023Y9040D1*
X38038Y8935D1*
X38018Y8813D1*
X37958Y8704D1*
X37866Y8620D1*
X37752Y8571D1*
X37627Y8562D1*
X37507Y8594D1*
X37459Y8627D1*
X37332Y8571D1*
X37207Y8562D1*
X37087Y8594D1*
X37026Y8636D1*
X36996Y8610D1*
X36882Y8561D1*
X36757Y8552D1*
X36637Y8584D1*
X36534Y8654D1*
X36460Y8754D1*
X36422Y8873D1*
X36425Y8997D1*
X36469Y9113D1*
X36501Y9152D1*
X36480Y9184D1*
X36442Y9303D1*
X36445Y9427D1*
X36482Y9525D1*
X36384Y9594D1*
X36310Y9694D1*
X36272Y9813D1*
X36275Y9937D1*
X36331Y10068D1*
X36282Y10213D1*
X36285Y10337D1*
X36341Y10468D1*
X36292Y10603D1*
X36295Y10727D1*
X36339Y10843D1*
X36418Y10939D1*
X36525Y11004D1*
X36646Y11030D1*
X36770Y11015D1*
X36857Y10972D1*
X36925Y11004D1*
X37046Y11030D1*
X37170Y11015D1*
X37282Y10960D1*
X37361Y10881D1*
X37501Y10952D1*
X37574Y10966D1*
X37457Y10998D1*
X37348Y11059D1*
X37257Y11145D1*
X37190Y11250D1*
X37150Y11368D1*
X37140Y11492D1*
X37161Y11615D1*
X37211Y11729D1*
X37287Y11828D1*
X37384Y11906D1*
X37498Y11957D1*
X37555Y11968D1*
X37457Y11998D1*
X37348Y12059D1*
X37257Y12145D1*
X37190Y12250D1*
X37150Y12368D1*
X37140Y12492D1*
X37161Y12615D1*
X37211Y12729D1*
X37287Y12828D1*
X37384Y12906D1*
X37498Y12957D1*
X37555Y12968D1*
X37457Y12998D1*
X37348Y13059D1*
X37257Y13145D1*
X37190Y13250D1*
X37150Y13368D1*
X37140Y13492D1*
X37161Y13615D1*
X37211Y13729D1*
X37287Y13828D1*
X37384Y13906D1*
X37498Y13957D1*
X37555Y13968D1*
X37457Y13998D1*
X37348Y14059D1*
X37257Y14145D1*
X37190Y14250D1*
X37150Y14368D1*
X37140Y14492D1*
X37161Y14615D1*
X37211Y14729D1*
X37287Y14828D1*
X37384Y14906D1*
X37498Y14957D1*
X37578Y14972D1*
X37460Y15003D1*
X37351Y15064D1*
X37260Y15150D1*
X37193Y15255D1*
X37153Y15373D1*
X37144Y15497D1*
X37164Y15620D1*
X37214Y15735D1*
X37290Y15834D1*
X37388Y15911D1*
X37501Y15962D1*
X37624Y15985D1*
X37748Y15977D1*
X37867Y15939D1*
X37973Y15873D1*
X38060Y15784D1*
X38123Y15676D1*
X38157Y15556D1*
X38164Y15475D1*
X38148Y15352D1*
X38104Y15235D1*
X38032Y15133D1*
X37938Y15052D1*
X37826Y14995D1*
X37745Y14972D1*
X37864Y14934D1*
X37970Y14868D1*
X38057Y14779D1*
X38119Y14671D1*
X38154Y14551D1*
X38160Y14470D1*
X38145Y14346D1*
X38100Y14230D1*
X38029Y14128D1*
X37934Y14046D1*
X37823Y13990D1*
X37743Y13972D1*
X37864Y13934D1*
X37970Y13868D1*
X38057Y13779D1*
X38119Y13671D1*
X38154Y13551D1*
X38160Y13470D1*
X38145Y13346D1*
X38100Y13230D1*
X38029Y13128D1*
X37934Y13046D1*
X37823Y12990D1*
X37743Y12972D1*
X37864Y12934D1*
X37970Y12868D1*
X38057Y12779D1*
X38119Y12671D1*
X38154Y12551D1*
X38160Y12470D1*
X38145Y12346D1*
X38100Y12230D1*
X38029Y12128D1*
X37934Y12046D1*
X37823Y11990D1*
X37743Y11972D1*
X37864Y11934D1*
X37970Y11868D1*
X38057Y11779D1*
X38119Y11671D1*
X38154Y11551D1*
X38160Y11470D1*
X38145Y11346D1*
X10884Y41896D2*
X10852Y41775D1*
X10799Y41662D1*
X10727Y41560D1*
X10639Y41472D1*
X10537Y41400D1*
X10423Y41348D1*
X10303Y41316D1*
X10178Y41305D1*
X10054Y41316D1*
X9933Y41349D1*
X9820Y41402D1*
X9718Y41474D1*
X9631Y41563D1*
X9559Y41665D1*
X9507Y41779D1*
X9475Y41900D1*
X9465Y42024D1*
X9477Y42148D1*
X9510Y42269D1*
X9563Y42381D1*
X9635Y42483D1*
X9724Y42571D1*
X9827Y42642D1*
X9941Y42694D1*
X10061Y42725D1*
X10186Y42735D1*
X10310Y42723D1*
X10430Y42690D1*
X10543Y42636D1*
X10645Y42564D1*
X10732Y42475D1*
X10803Y42372D1*
X10854Y42258D1*
X10886Y42137D1*
X10895Y42020D1*
X10884Y41896D1*
X12444D2*
X12412Y41775D1*
X12359Y41662D1*
X12287Y41560D1*
X12199Y41472D1*
X12097Y41400D1*
X11983Y41348D1*
X11863Y41316D1*
X11738Y41305D1*
X11614Y41316D1*
X11493Y41349D1*
X11380Y41402D1*
X11278Y41474D1*
X11191Y41563D1*
X11119Y41665D1*
X11067Y41779D1*
X11035Y41900D1*
X11025Y42024D1*
X11037Y42148D1*
X11070Y42269D1*
X11123Y42381D1*
X11195Y42483D1*
X11284Y42571D1*
X11387Y42642D1*
X11501Y42694D1*
X11621Y42725D1*
X11746Y42735D1*
X11870Y42723D1*
X11990Y42690D1*
X12103Y42636D1*
X12205Y42564D1*
X12292Y42475D1*
X12363Y42372D1*
X12414Y42258D1*
X12446Y42137D1*
X12455Y42020D1*
X12444Y41896D1*
X17494D2*
X17462Y41775D1*
X17409Y41662D1*
X17337Y41560D1*
X17249Y41472D1*
X17147Y41400D1*
X17033Y41348D1*
X16913Y41316D1*
X16788Y41305D1*
X16664Y41316D1*
X16543Y41349D1*
X16430Y41402D1*
X16328Y41474D1*
X16241Y41563D1*
X16169Y41665D1*
X16117Y41779D1*
X16085Y41900D1*
X16075Y42024D1*
X16087Y42148D1*
X16120Y42269D1*
X16173Y42381D1*
X16245Y42483D1*
X16334Y42571D1*
X16437Y42642D1*
X16551Y42694D1*
X16671Y42725D1*
X16796Y42735D1*
X16920Y42723D1*
X17040Y42690D1*
X17153Y42636D1*
X17255Y42564D1*
X17342Y42475D1*
X17413Y42372D1*
X17464Y42258D1*
X17496Y42137D1*
X17505Y42020D1*
X17494Y41896D1*
X19054D2*
X19022Y41775D1*
X18969Y41662D1*
X18897Y41560D1*
X18809Y41472D1*
X18707Y41400D1*
X18593Y41348D1*
X18473Y41316D1*
X18348Y41305D1*
X18224Y41316D1*
X18103Y41349D1*
X17990Y41402D1*
X17888Y41474D1*
X17801Y41563D1*
X17729Y41665D1*
X17677Y41779D1*
X17645Y41900D1*
X17635Y42024D1*
X17647Y42148D1*
X17680Y42269D1*
X17733Y42381D1*
X17805Y42483D1*
X17894Y42571D1*
X17997Y42642D1*
X18111Y42694D1*
X18231Y42725D1*
X18356Y42735D1*
X18480Y42723D1*
X18600Y42690D1*
X18713Y42636D1*
X18815Y42564D1*
X18902Y42475D1*
X18973Y42372D1*
X19024Y42258D1*
X19056Y42137D1*
X19065Y42020D1*
X19054Y41896D1*
X20449Y41793D2*
X20400Y41650D1*
X20329Y41548D1*
X20234Y41466D1*
X20123Y41410D1*
X20002Y41382D1*
X19877Y41385D1*
X19757Y41418D1*
X19648Y41479D1*
X19557Y41565D1*
X19490Y41670D1*
X19450Y41788D1*
X19440Y41912D1*
X19461Y42035D1*
X19511Y42149D1*
X19587Y42248D1*
X19684Y42326D1*
X19798Y42377D1*
X19921Y42400D1*
X20045Y42392D1*
X20164Y42354D1*
X20270Y42288D1*
X20357Y42199D1*
X20419Y42091D1*
X20449Y41990D1*
X20511Y42149D1*
X20587Y42248D1*
X20684Y42326D1*
X20798Y42377D1*
X20921Y42400D1*
X21045Y42392D1*
X21164Y42354D1*
X21270Y42288D1*
X21357Y42199D1*
X21419Y42091D1*
X21454Y41971D1*
X21460Y41890D1*
X21445Y41766D1*
X21400Y41650D1*
X21329Y41548D1*
X21234Y41466D1*
X21123Y41410D1*
X21002Y41382D1*
X20877Y41385D1*
X20757Y41418D1*
X20648Y41479D1*
X20557Y41565D1*
X20490Y41670D1*
X20450Y41792D1*
X37725Y6266D2*
X37680Y6150D1*
X37609Y6048D1*
X37514Y5966D1*
X37403Y5910D1*
X37282Y5882D1*
X37157Y5885D1*
X37037Y5918D1*
X36928Y5979D1*
X36837Y6065D1*
X36770Y6170D1*
X36730Y6292D1*
X36680Y6150D1*
X36609Y6048D1*
X36514Y5966D1*
X36403Y5910D1*
X36282Y5882D1*
X36157Y5885D1*
X36037Y5918D1*
X35928Y5979D1*
X35837Y6065D1*
X35770Y6170D1*
X35730Y6292D1*
X35680Y6150D1*
X35609Y6048D1*
X35514Y5966D1*
X35403Y5910D1*
X35282Y5882D1*
X35157Y5885D1*
X35037Y5918D1*
X34928Y5979D1*
X34837Y6065D1*
X34770Y6170D1*
X34730Y6288D1*
X34720Y6412D1*
X34741Y6535D1*
X34791Y6649D1*
X34867Y6748D1*
X34964Y6826D1*
X35078Y6877D1*
X35201Y6900D1*
X35325Y6892D1*
X35444Y6854D1*
X35550Y6788D1*
X35637Y6699D1*
X35699Y6591D1*
X35729Y6490D1*
X35791Y6649D1*
X35867Y6748D1*
X35964Y6826D1*
X36078Y6877D1*
X36201Y6900D1*
X36325Y6892D1*
X36444Y6854D1*
X36550Y6788D1*
X36637Y6699D1*
X36699Y6591D1*
X36729Y6490D1*
X36791Y6649D1*
X36867Y6748D1*
X36964Y6826D1*
X37078Y6877D1*
X37201Y6900D1*
X37325Y6892D1*
X37444Y6854D1*
X37550Y6788D1*
X37637Y6699D1*
X37699Y6591D1*
X37734Y6471D1*
X37740Y6390D1*
X37725Y6266D1*
X29635Y6296D2*
X29590Y6180D1*
X29519Y6078D1*
X29424Y5996D1*
X29313Y5940D1*
X29192Y5912D1*
X29067Y5915D1*
X28947Y5948D1*
X28838Y6009D1*
X28747Y6095D1*
X28680Y6200D1*
X28640Y6322D1*
X28590Y6180D1*
X28519Y6078D1*
X28424Y5996D1*
X28313Y5940D1*
X28192Y5912D1*
X28067Y5915D1*
X27947Y5948D1*
X27838Y6009D1*
X27747Y6095D1*
X27680Y6200D1*
X27640Y6322D1*
X27590Y6180D1*
X27519Y6078D1*
X27424Y5996D1*
X27313Y5940D1*
X27192Y5912D1*
X27067Y5915D1*
X26947Y5948D1*
X26838Y6009D1*
X26747Y6095D1*
X26680Y6200D1*
X26640Y6318D1*
X26630Y6442D1*
X26651Y6565D1*
X26701Y6679D1*
X26777Y6778D1*
X26874Y6856D1*
X26988Y6907D1*
X27111Y6930D1*
X27235Y6922D1*
X27354Y6884D1*
X27460Y6818D1*
X27547Y6729D1*
X27609Y6621D1*
X27639Y6520D1*
X27701Y6679D1*
X27777Y6778D1*
X27874Y6856D1*
X27988Y6907D1*
X28111Y6930D1*
X28235Y6922D1*
X28354Y6884D1*
X28460Y6818D1*
X28547Y6729D1*
X28609Y6621D1*
X28639Y6520D1*
X28701Y6679D1*
X28777Y6778D1*
X28874Y6856D1*
X28988Y6907D1*
X29111Y6930D1*
X29235Y6922D1*
X29354Y6884D1*
X29460Y6818D1*
X29547Y6729D1*
X29609Y6621D1*
X29644Y6501D1*
X29650Y6420D1*
X29635Y6296D1*
X26245Y6267D2*
X26198Y6151D1*
X26124Y6051D1*
X26027Y5972D1*
X25913Y5921D1*
X25790Y5900D1*
X25666Y5911D1*
X25549Y5953D1*
X25445Y6023D1*
X25363Y6117D1*
X25307Y6228D1*
X25282Y6350D1*
X25287Y6474D1*
X25324Y6594D1*
X25390Y6700D1*
X25480Y6785D1*
X25589Y6846D1*
X25710Y6877D1*
X25835Y6876D1*
X25955Y6844D1*
X26064Y6783D1*
X26153Y6696D1*
X26218Y6590D1*
X26254Y6470D1*
X26260Y6390D1*
X26245Y6267D1*
X25280Y6386D2*
X25265Y6266D1*
X25220Y6150D1*
X25149Y6048D1*
X25054Y5966D1*
X24943Y5910D1*
X24822Y5882D1*
X24697Y5885D1*
X24577Y5918D1*
X24468Y5979D1*
X24377Y6065D1*
X24310Y6170D1*
X24270Y6292D1*
X24220Y6150D1*
X24149Y6048D1*
X24054Y5966D1*
X23943Y5910D1*
X23822Y5882D1*
X23697Y5885D1*
X23577Y5918D1*
X23468Y5979D1*
X23377Y6065D1*
X23310Y6170D1*
X23270Y6288D1*
X23260Y6412D1*
X23281Y6535D1*
X23331Y6649D1*
X23407Y6748D1*
X23504Y6826D1*
X23618Y6877D1*
X23741Y6900D1*
X23865Y6892D1*
X23984Y6854D1*
X24090Y6788D1*
X24177Y6699D1*
X24239Y6591D1*
X24269Y6490D1*
X24331Y6649D1*
X24407Y6748D1*
X24504Y6826D1*
X24618Y6877D1*
X24741Y6900D1*
X24865Y6892D1*
X24984Y6854D1*
X25090Y6788D1*
X25177Y6699D1*
X25239Y6591D1*
X25274Y6471D1*
X25280Y6393D1*
X22785Y6267D2*
X22738Y6151D1*
X22664Y6051D1*
X22567Y5972D1*
X22453Y5921D1*
X22330Y5900D1*
X22206Y5911D1*
X22089Y5953D1*
X21985Y6023D1*
X21903Y6117D1*
X21847Y6228D1*
X21822Y6350D1*
X21827Y6474D1*
X21864Y6594D1*
X21930Y6700D1*
X22020Y6785D1*
X22129Y6846D1*
X22250Y6877D1*
X22375Y6876D1*
X22495Y6844D1*
X22604Y6783D1*
X22693Y6696D1*
X22758Y6590D1*
X22794Y6470D1*
X22800Y6390D1*
X22785Y6267D1*
X21820Y6386D2*
X21805Y6266D1*
X21760Y6150D1*
X21689Y6048D1*
X21594Y5966D1*
X21483Y5910D1*
X21362Y5882D1*
X21237Y5885D1*
X21117Y5918D1*
X21008Y5979D1*
X20917Y6065D1*
X20850Y6170D1*
X20810Y6292D1*
X20760Y6150D1*
X20689Y6048D1*
X20594Y5966D1*
X20483Y5910D1*
X20362Y5882D1*
X20237Y5885D1*
X20117Y5918D1*
X20008Y5979D1*
X19917Y6065D1*
X19850Y6170D1*
X19810Y6288D1*
X19800Y6412D1*
X19821Y6535D1*
X19871Y6649D1*
X19947Y6748D1*
X20044Y6826D1*
X20158Y6877D1*
X20281Y6900D1*
X20405Y6892D1*
X20524Y6854D1*
X20630Y6788D1*
X20717Y6699D1*
X20779Y6591D1*
X20809Y6490D1*
X20871Y6649D1*
X20947Y6748D1*
X21044Y6826D1*
X21158Y6877D1*
X21281Y6900D1*
X21405Y6892D1*
X21524Y6854D1*
X21630Y6788D1*
X21717Y6699D1*
X21779Y6591D1*
X21814Y6471D1*
X21820Y6393D1*
X19525Y6256D2*
X19480Y6140D1*
X19409Y6038D1*
X19314Y5956D1*
X19203Y5900D1*
X19082Y5872D1*
X18957Y5875D1*
X18837Y5908D1*
X18728Y5969D1*
X18637Y6055D1*
X18570Y6160D1*
X18530Y6282D1*
X18480Y6140D1*
X18409Y6038D1*
X18314Y5956D1*
X18203Y5900D1*
X18082Y5872D1*
X17957Y5875D1*
X17837Y5908D1*
X17728Y5969D1*
X17637Y6055D1*
X17570Y6160D1*
X17530Y6278D1*
X17520Y6402D1*
X17541Y6525D1*
X17591Y6639D1*
X17667Y6738D1*
X17764Y6816D1*
X17878Y6867D1*
X18001Y6890D1*
X18125Y6882D1*
X18244Y6844D1*
X18350Y6778D1*
X18437Y6689D1*
X18499Y6581D1*
X18529Y6480D1*
X18591Y6639D1*
X18667Y6738D1*
X18764Y6816D1*
X18878Y6867D1*
X19001Y6890D1*
X19125Y6882D1*
X19244Y6844D1*
X19350Y6778D1*
X19437Y6689D1*
X19499Y6581D1*
X19534Y6461D1*
X19540Y6380D1*
X19525Y6256D1*
X17295Y6246D2*
X17250Y6130D1*
X17179Y6028D1*
X17084Y5946D1*
X16973Y5890D1*
X16852Y5862D1*
X16727Y5865D1*
X16607Y5898D1*
X16498Y5959D1*
X16407Y6045D1*
X16340Y6150D1*
X16300Y6272D1*
X16250Y6130D1*
X16179Y6028D1*
X16084Y5946D1*
X15973Y5890D1*
X15852Y5862D1*
X15727Y5865D1*
X15607Y5898D1*
X15498Y5959D1*
X15407Y6045D1*
X15340Y6150D1*
X15300Y6268D1*
X15290Y6392D1*
X15311Y6515D1*
X15361Y6629D1*
X15437Y6728D1*
X15534Y6806D1*
X15648Y6857D1*
X15771Y6880D1*
X15895Y6872D1*
X16014Y6834D1*
X16120Y6768D1*
X16207Y6679D1*
X16269Y6571D1*
X16299Y6470D1*
X16361Y6629D1*
X16437Y6728D1*
X16534Y6806D1*
X16648Y6857D1*
X16771Y6880D1*
X16895Y6872D1*
X17014Y6834D1*
X17120Y6768D1*
X17207Y6679D1*
X17269Y6571D1*
X17304Y6451D1*
X17310Y6370D1*
X17295Y6246D1*
X13044Y6566D2*
X13003Y6448D1*
X12938Y6342D1*
X12851Y6252D1*
X12747Y6184D1*
X12630Y6140D1*
X12506Y6123D1*
X12382Y6133D1*
X12263Y6170D1*
X12155Y6233D1*
X12063Y6317D1*
X11990Y6423D1*
X11938Y6342D1*
X11851Y6252D1*
X11747Y6184D1*
X11630Y6140D1*
X11506Y6123D1*
X11382Y6133D1*
X11263Y6170D1*
X11155Y6233D1*
X11063Y6317D1*
X10990Y6423D1*
X10938Y6342D1*
X10851Y6252D1*
X10747Y6184D1*
X10630Y6140D1*
X10506Y6123D1*
X10382Y6133D1*
X10263Y6170D1*
X10155Y6233D1*
X10063Y6317D1*
X9992Y6419D1*
X9944Y6535D1*
X9924Y6658D1*
X9930Y6782D1*
X9964Y6902D1*
X10023Y7012D1*
X10105Y7107D1*
X10205Y7181D1*
X10319Y7231D1*
X10442Y7255D1*
X10566Y7252D1*
X10687Y7222D1*
X10799Y7166D1*
X10895Y7087D1*
X10987Y6957D1*
X11105Y7107D1*
X11205Y7181D1*
X11319Y7231D1*
X11442Y7255D1*
X11566Y7252D1*
X11687Y7222D1*
X11799Y7166D1*
X11895Y7087D1*
X11987Y6957D1*
X12105Y7107D1*
X12205Y7181D1*
X12319Y7231D1*
X12442Y7255D1*
X12566Y7252D1*
X12687Y7222D1*
X12799Y7166D1*
X12895Y7087D1*
X12972Y6989D1*
X13026Y6876D1*
X13054Y6755D1*
X13058Y6690D1*
X13044Y6566D1*
X15073Y6266D2*
X15050Y6144D1*
X15011Y6025D1*
X14958Y5912D1*
X14891Y5806D1*
X14811Y5710D1*
X14720Y5625D1*
X14618Y5552D1*
X14509Y5492D1*
X14393Y5446D1*
X14271Y5415D1*
X14147Y5400D1*
X14023Y5401D1*
X13899Y5417D1*
X13778Y5448D1*
X13662Y5495D1*
X13553Y5556D1*
X13452Y5630D1*
X13361Y5716D1*
X13282Y5812D1*
X13216Y5918D1*
X13164Y6031D1*
X13126Y6150D1*
X13103Y6273D1*
X13096Y6398D1*
X13105Y6523D1*
X13129Y6645D1*
X13169Y6764D1*
X13223Y6876D1*
X13291Y6981D1*
X13371Y7077D1*
X13463Y7161D1*
X13565Y7234D1*
X13675Y7293D1*
X13791Y7338D1*
X13913Y7368D1*
X14037Y7382D1*
X14162Y7381D1*
X14285Y7364D1*
X14406Y7331D1*
X14522Y7284D1*
X14630Y7222D1*
X14731Y7148D1*
X14821Y7061D1*
X14899Y6964D1*
X14965Y6858D1*
X15016Y6744D1*
X15053Y6625D1*
X15075Y6501D1*
X15081Y6391D1*
X15073Y6266D1*
X9876D2*
X9853Y6144D1*
X9814Y6025D1*
X9761Y5912D1*
X9694Y5806D1*
X9614Y5710D1*
X9523Y5625D1*
X9422Y5552D1*
X9312Y5492D1*
X9196Y5446D1*
X9075Y5415D1*
X8951Y5400D1*
X8826Y5401D1*
X8702Y5417D1*
X8581Y5448D1*
X8465Y5495D1*
X8356Y5556D1*
X8255Y5630D1*
X8165Y5716D1*
X8085Y5812D1*
X8019Y5918D1*
X7967Y6031D1*
X7929Y6150D1*
X7906Y6273D1*
X7899Y6398D1*
X7908Y6523D1*
X7932Y6645D1*
X7972Y6764D1*
X8026Y6876D1*
X8094Y6981D1*
X8174Y7077D1*
X8266Y7161D1*
X8368Y7234D1*
X8478Y7293D1*
X8595Y7338D1*
X8716Y7368D1*
X8840Y7382D1*
X8965Y7381D1*
X9089Y7364D1*
X9209Y7331D1*
X9325Y7284D1*
X9434Y7222D1*
X9534Y7148D1*
X9624Y7061D1*
X9702Y6964D1*
X9768Y6858D1*
X9819Y6744D1*
X9856Y6625D1*
X9878Y6501D1*
X9884Y6391D1*
X9876Y6266D1*
X25089Y41813D2*
X25040Y41670D1*
X24969Y41568D1*
X24874Y41486D1*
X24763Y41430D1*
X24642Y41402D1*
X24517Y41405D1*
X24397Y41438D1*
X24288Y41499D1*
X24197Y41585D1*
X24130Y41690D1*
X24090Y41808D1*
X24080Y41932D1*
X24101Y42055D1*
X24151Y42169D1*
X24227Y42268D1*
X24324Y42346D1*
X24438Y42397D1*
X24561Y42420D1*
X24685Y42412D1*
X24804Y42374D1*
X24910Y42308D1*
X24997Y42219D1*
X25059Y42111D1*
X25089Y42010D1*
X25151Y42169D1*
X25227Y42268D1*
X25324Y42346D1*
X25438Y42397D1*
X25561Y42420D1*
X25685Y42412D1*
X25804Y42374D1*
X25910Y42308D1*
X25997Y42219D1*
X26059Y42111D1*
X26094Y41991D1*
X26100Y41910D1*
X26085Y41786D1*
X26040Y41670D1*
X25969Y41568D1*
X25874Y41486D1*
X25763Y41430D1*
X25642Y41402D1*
X25517Y41405D1*
X25397Y41438D1*
X25288Y41499D1*
X25197Y41585D1*
X25130Y41690D1*
X25090Y41812D1*
X22759Y41813D2*
X22710Y41670D1*
X22639Y41568D1*
X22544Y41486D1*
X22433Y41430D1*
X22312Y41402D1*
X22187Y41405D1*
X22067Y41438D1*
X21958Y41499D1*
X21867Y41585D1*
X21800Y41690D1*
X21760Y41808D1*
X21750Y41932D1*
X21771Y42055D1*
X21821Y42169D1*
X21897Y42268D1*
X21994Y42346D1*
X22108Y42397D1*
X22231Y42420D1*
X22355Y42412D1*
X22474Y42374D1*
X22580Y42308D1*
X22667Y42219D1*
X22729Y42111D1*
X22759Y42010D1*
X22821Y42169D1*
X22897Y42268D1*
X22994Y42346D1*
X23108Y42397D1*
X23231Y42420D1*
X23355Y42412D1*
X23474Y42374D1*
X23580Y42308D1*
X23667Y42219D1*
X23729Y42111D1*
X23764Y41991D1*
X23770Y41910D1*
X23755Y41786D1*
X23710Y41670D1*
X23639Y41568D1*
X23544Y41486D1*
X23433Y41430D1*
X23312Y41402D1*
X23187Y41405D1*
X23067Y41438D1*
X22958Y41499D1*
X22867Y41585D1*
X22800Y41690D1*
X22760Y41812D1*
X36929Y41833D2*
X36880Y41690D1*
X36809Y41588D1*
X36714Y41506D1*
X36603Y41450D1*
X36482Y41422D1*
X36357Y41425D1*
X36237Y41458D1*
X36128Y41519D1*
X36037Y41605D1*
X35970Y41710D1*
X35930Y41828D1*
X35920Y41952D1*
X35941Y42075D1*
X35991Y42189D1*
X36067Y42288D1*
X36164Y42366D1*
X36278Y42417D1*
X36401Y42440D1*
X36525Y42432D1*
X36644Y42394D1*
X36750Y42328D1*
X36837Y42239D1*
X36899Y42131D1*
X36929Y42030D1*
X36991Y42189D1*
X37067Y42288D1*
X37164Y42366D1*
X37278Y42417D1*
X37401Y42440D1*
X37525Y42432D1*
X37644Y42394D1*
X37750Y42328D1*
X37837Y42239D1*
X37899Y42131D1*
X37934Y42011D1*
X37940Y41930D1*
X37925Y41806D1*
X37880Y41690D1*
X37809Y41588D1*
X37714Y41506D1*
X37603Y41450D1*
X37482Y41422D1*
X37357Y41425D1*
X37237Y41458D1*
X37128Y41519D1*
X37037Y41605D1*
X36970Y41710D1*
X36930Y41832D1*
X34669Y41823D2*
X34620Y41680D1*
X34549Y41578D1*
X34454Y41496D1*
X34343Y41440D1*
X34222Y41412D1*
X34097Y41415D1*
X33977Y41448D1*
X33868Y41509D1*
X33777Y41595D1*
X33710Y41700D1*
X33670Y41818D1*
X33660Y41942D1*
X33681Y42065D1*
X33731Y42179D1*
X33807Y42278D1*
X33904Y42356D1*
X34018Y42407D1*
X34141Y42430D1*
X34265Y42422D1*
X34384Y42384D1*
X34490Y42318D1*
X34577Y42229D1*
X34639Y42121D1*
X34669Y42020D1*
X34731Y42179D1*
X34807Y42278D1*
X34904Y42356D1*
X35018Y42407D1*
X35141Y42430D1*
X35265Y42422D1*
X35384Y42384D1*
X35490Y42318D1*
X35577Y42229D1*
X35639Y42121D1*
X35674Y42001D1*
X35680Y41920D1*
X35665Y41796D1*
X35620Y41680D1*
X35549Y41578D1*
X35454Y41496D1*
X35343Y41440D1*
X35222Y41412D1*
X35097Y41415D1*
X34977Y41448D1*
X34868Y41509D1*
X34777Y41595D1*
X34710Y41700D1*
X34670Y41822D1*
X27999Y41833D2*
X27950Y41690D1*
X27879Y41588D1*
X27784Y41506D1*
X27673Y41450D1*
X27552Y41422D1*
X27427Y41425D1*
X27307Y41458D1*
X27198Y41519D1*
X27107Y41605D1*
X27040Y41710D1*
X27000Y41828D1*
X26990Y41952D1*
X27011Y42075D1*
X27061Y42189D1*
X27137Y42288D1*
X27234Y42366D1*
X27348Y42417D1*
X27471Y42440D1*
X27595Y42432D1*
X27714Y42394D1*
X27820Y42328D1*
X27907Y42239D1*
X27969Y42131D1*
X27999Y42030D1*
X28061Y42189D1*
X28137Y42288D1*
X28234Y42366D1*
X28348Y42417D1*
X28471Y42440D1*
X28595Y42432D1*
X28714Y42394D1*
X28820Y42328D1*
X28907Y42239D1*
X28969Y42131D1*
X29004Y42011D1*
X29010Y41930D1*
X28995Y41806D1*
X28950Y41690D1*
X28879Y41588D1*
X28784Y41506D1*
X28673Y41450D1*
X28552Y41422D1*
X28427Y41425D1*
X28307Y41458D1*
X28198Y41519D1*
X28107Y41605D1*
X28040Y41710D1*
X28000Y41832D1*
X7811Y6315D2*
X7766Y6070D1*
X7677Y5836D1*
X7548Y5623D1*
X7382Y5436D1*
X7185Y5283D1*
X6964Y5167D1*
X6725Y5094D1*
X6477Y5064D1*
X6228Y5080D1*
X5986Y5141D1*
X5759Y5244D1*
X5554Y5387D1*
X5378Y5565D1*
X5237Y5771D1*
X5136Y5999D1*
X5078Y6242D1*
X5065Y6491D1*
X5097Y6739D1*
X5173Y6977D1*
X5291Y7197D1*
X5446Y7392D1*
X5634Y7556D1*
X5849Y7683D1*
X6084Y7769D1*
X6330Y7812D1*
X6579Y7809D1*
X6824Y7762D1*
X7057Y7671D1*
X7269Y7539D1*
X7454Y7371D1*
X7605Y7173D1*
X7718Y6950D1*
X7790Y6711D1*
X7816Y6463D1*
X7811Y6315D1*
X32811D2*
X32766Y6070D1*
X32677Y5836D1*
X32548Y5623D1*
X32382Y5436D1*
X32185Y5283D1*
X31964Y5167D1*
X31725Y5094D1*
X31477Y5064D1*
X31228Y5080D1*
X30986Y5141D1*
X30759Y5244D1*
X30554Y5387D1*
X30378Y5565D1*
X30237Y5771D1*
X30136Y5999D1*
X30078Y6242D1*
X30065Y6491D1*
X30097Y6739D1*
X30173Y6977D1*
X30291Y7197D1*
X30446Y7392D1*
X30634Y7556D1*
X30849Y7683D1*
X31084Y7769D1*
X31330Y7812D1*
X31579Y7809D1*
X31824Y7762D1*
X32057Y7671D1*
X32269Y7539D1*
X32454Y7371D1*
X32605Y7173D1*
X32718Y6950D1*
X32790Y6711D1*
X32816Y6463D1*
X32811Y6315D1*
Y41315D2*
X32766Y41070D1*
X32677Y40836D1*
X32548Y40623D1*
X32382Y40436D1*
X32185Y40283D1*
X31964Y40167D1*
X31725Y40094D1*
X31477Y40064D1*
X31228Y40080D1*
X30986Y40141D1*
X30759Y40244D1*
X30554Y40387D1*
X30378Y40565D1*
X30237Y40771D1*
X30136Y40999D1*
X30078Y41242D1*
X30065Y41491D1*
X30097Y41739D1*
X30173Y41977D1*
X30291Y42197D1*
X30446Y42392D1*
X30634Y42556D1*
X30849Y42683D1*
X31084Y42769D1*
X31330Y42812D1*
X31579Y42809D1*
X31824Y42762D1*
X32057Y42671D1*
X32269Y42539D1*
X32454Y42371D1*
X32605Y42173D1*
X32718Y41950D1*
X32790Y41711D1*
X32816Y41463D1*
X32811Y41315D1*
X7811D2*
X7766Y41070D1*
X7677Y40836D1*
X7548Y40623D1*
X7382Y40436D1*
X7185Y40283D1*
X6964Y40167D1*
X6725Y40094D1*
X6477Y40064D1*
X6228Y40080D1*
X5986Y40141D1*
X5759Y40244D1*
X5554Y40387D1*
X5378Y40565D1*
X5237Y40771D1*
X5136Y40999D1*
X5078Y41242D1*
X5065Y41491D1*
X5097Y41739D1*
X5173Y41977D1*
X5291Y42197D1*
X5446Y42392D1*
X5634Y42556D1*
X5849Y42683D1*
X6084Y42769D1*
X6330Y42812D1*
X6579Y42809D1*
X6824Y42762D1*
X7057Y42671D1*
X7269Y42539D1*
X7454Y42371D1*
X7605Y42173D1*
X7718Y41950D1*
X7790Y41711D1*
X7816Y41463D1*
X7811Y41315D1*
X28301Y31005D2*
X28284Y30907D1*
X28247Y30814D1*
X28191Y30731D1*
X28119Y30663D1*
X28060Y30625D1*
X28115Y30588D1*
X28200Y30497D1*
X28257Y30386D1*
X28281Y30243D1*
X28264Y30119D1*
X28212Y30006D1*
X28131Y29911D1*
X28037Y29850D1*
X28115Y29800D1*
X28200Y29710D1*
X28257Y29599D1*
X28281Y29455D1*
X28264Y29332D1*
X28212Y29219D1*
X28131Y29124D1*
X28037Y29062D1*
X28115Y29013D1*
X28200Y28922D1*
X28257Y28812D1*
X28281Y28668D1*
X28264Y28545D1*
X28212Y28431D1*
X28131Y28337D1*
X28056Y28288D1*
X28141Y28230D1*
X28223Y28137D1*
X28278Y28025D1*
X28301Y27881D1*
X28284Y27757D1*
X28235Y27643D1*
X28157Y27546D1*
X28056Y27473D1*
X27939Y27430D1*
X27814Y27420D1*
X27711Y27440D1*
X27750Y27354D1*
X27765Y27250D1*
X27743Y27128D1*
X27681Y27020D1*
X27585Y26941D1*
X27468Y26900D1*
X27343Y26902D1*
X27227Y26946D1*
X27133Y27028D1*
X27074Y27137D1*
X27055Y27260D1*
X27080Y27382D1*
X27128Y27458D1*
X27057Y27559D1*
X27019Y27677D1*
X27022Y27802D1*
X27066Y27918D1*
X27145Y28014D1*
X27251Y28079D1*
X27373Y28105D1*
X27431Y28098D1*
X27474Y28161D1*
X27563Y28249D1*
X27627Y28285D1*
X27557Y28330D1*
X27474Y28422D1*
X27420Y28534D1*
X27399Y28657D1*
X27414Y28781D1*
X27462Y28896D1*
X27541Y28992D1*
X27641Y29061D1*
X27557Y29117D1*
X27474Y29210D1*
X27420Y29322D1*
X27399Y29445D1*
X27414Y29568D1*
X27462Y29683D1*
X27541Y29780D1*
X27641Y29848D1*
X27557Y29904D1*
X27474Y29997D1*
X27420Y30109D1*
X27399Y30232D1*
X27414Y30356D1*
X27462Y30471D1*
X27541Y30567D1*
X27621Y30622D1*
X27522Y30696D1*
X27458Y30772D1*
X27411Y30861D1*
X27385Y30957D1*
X27380Y31057D1*
X27396Y31155D1*
X27434Y31248D1*
X27499Y31340D1*
X27404Y31337D1*
X27284Y31369D1*
X27181Y31439D1*
X27107Y31539D1*
X27069Y31657D1*
X27072Y31782D1*
X27116Y31898D1*
X27195Y31994D1*
X27301Y32059D1*
X27423Y32085D1*
X27547Y32070D1*
X27658Y32015D1*
X27746Y31927D1*
X27800Y31815D1*
X27815Y31710D1*
X27795Y31587D1*
X27743Y31481D1*
X27842Y31491D1*
X27942Y31480D1*
X28036Y31448D1*
X28121Y31396D1*
X28193Y31327D1*
X28249Y31244D1*
X28285Y31151D1*
X28301Y31052D1*
Y31005D1*
Y36205D2*
X28284Y36107D1*
X28247Y36014D1*
X28191Y35931D1*
X28119Y35863D1*
X28060Y35825D1*
X28115Y35788D1*
X28200Y35697D1*
X28257Y35586D1*
X28281Y35443D1*
X28264Y35319D1*
X28212Y35206D1*
X28131Y35111D1*
X28037Y35050D1*
X28115Y35000D1*
X28200Y34910D1*
X28257Y34799D1*
X28281Y34655D1*
X28264Y34532D1*
X28212Y34419D1*
X28131Y34324D1*
X28037Y34262D1*
X28115Y34213D1*
X28200Y34122D1*
X28257Y34012D1*
X28281Y33868D1*
X28264Y33745D1*
X28212Y33631D1*
X28131Y33537D1*
X28056Y33488D1*
X28141Y33430D1*
X28223Y33337D1*
X28278Y33225D1*
X28301Y33081D1*
X28284Y32957D1*
X28235Y32843D1*
X28157Y32746D1*
X28056Y32673D1*
X27939Y32630D1*
X27803Y32622D1*
X27785Y32477D1*
X27725Y32368D1*
X27633Y32285D1*
X27518Y32236D1*
X27394Y32227D1*
X27274Y32259D1*
X27171Y32329D1*
X27097Y32429D1*
X27059Y32547D1*
X27062Y32672D1*
X27106Y32788D1*
X27185Y32884D1*
X27291Y32949D1*
X27394Y32971D1*
X27385Y33007D1*
X27382Y33132D1*
X27412Y33253D1*
X27474Y33361D1*
X27563Y33449D1*
X27627Y33485D1*
X27557Y33530D1*
X27474Y33622D1*
X27420Y33734D1*
X27399Y33857D1*
X27414Y33981D1*
X27462Y34096D1*
X27541Y34192D1*
X27641Y34261D1*
X27557Y34317D1*
X27474Y34410D1*
X27420Y34522D1*
X27399Y34645D1*
X27414Y34768D1*
X27462Y34883D1*
X27541Y34980D1*
X27641Y35048D1*
X27557Y35104D1*
X27474Y35197D1*
X27420Y35309D1*
X27399Y35432D1*
X27414Y35556D1*
X27462Y35671D1*
X27541Y35767D1*
X27621Y35822D1*
X27522Y35896D1*
X27458Y35972D1*
X27411Y36061D1*
X27385Y36157D1*
X27380Y36257D1*
X27396Y36355D1*
X27434Y36448D1*
X27490Y36530D1*
X27563Y36598D1*
X27648Y36649D1*
X27743Y36681D1*
X27842Y36691D1*
X27942Y36680D1*
X28036Y36648D1*
X28121Y36596D1*
X28193Y36527D1*
X28249Y36444D1*
X28285Y36351D1*
X28301Y36252D1*
Y36205D1*
X5904Y19687D2*
X5855Y19572D1*
X5777Y19475D1*
X5698Y19418D1*
X5761Y19371D1*
X5843Y19278D1*
X5898Y19166D1*
X5921Y19021D1*
X5904Y18898D1*
X5855Y18783D1*
X5777Y18686D1*
X5698Y18629D1*
X5761Y18582D1*
X5843Y18489D1*
X5898Y18377D1*
X5921Y18232D1*
X5904Y18109D1*
X5855Y17994D1*
X5777Y17897D1*
X5676Y17825D1*
X5559Y17782D1*
X5434Y17772D1*
X5312Y17796D1*
X5201Y17851D1*
X5108Y17935D1*
X5041Y18040D1*
X5005Y18159D1*
X5002Y18284D1*
X5032Y18404D1*
X5094Y18513D1*
X5183Y18600D1*
X5227Y18625D1*
X5108Y18724D1*
X5041Y18829D1*
X5005Y18948D1*
X5002Y19073D1*
X5032Y19193D1*
X5094Y19302D1*
X5183Y19389D1*
X5227Y19414D1*
X5108Y19513D1*
X5041Y19618D1*
X5005Y19737D1*
X5002Y19862D1*
X5032Y19982D1*
X5094Y20091D1*
X5183Y20178D1*
X5291Y20239D1*
X5413Y20269D1*
X5537Y20265D1*
X5656Y20228D1*
X5761Y20160D1*
X5843Y20067D1*
X5898Y19955D1*
X5921Y19810D1*
X5904Y19687D1*
X11176Y23075D2*
X11159Y22977D1*
X11122Y22884D1*
X11066Y22801D1*
X10994Y22733D1*
X10908Y22681D1*
X10814Y22650D1*
X10714Y22639D1*
X10615Y22650D1*
X10586Y22658D1*
X10585Y19604D1*
X10730Y19449D1*
X10760Y19396D1*
X10849Y19287D1*
X10880Y19196D1*
X10885Y18890D1*
Y14105D1*
X11395D1*
X11399Y15498D1*
X11287Y15639D1*
X11249Y15757D1*
X11252Y15882D1*
X11296Y15998D1*
X11375Y16094D1*
X11481Y16159D1*
X11603Y16185D1*
X11727Y16170D1*
X11838Y16115D1*
X11926Y16027D1*
X11980Y15915D1*
X11995Y15810D1*
X11978Y15707D1*
X13363Y15708D1*
X13726D1*
X13732Y15812D1*
X13776Y15928D1*
X13855Y16024D1*
X13961Y16089D1*
X14083Y16115D1*
X14207Y16100D1*
X14318Y16045D1*
X14406Y15957D1*
X14460Y15845D1*
X14475Y15740D1*
X14469Y15706D1*
X15288Y15707D1*
X15310Y15792D1*
X15376Y15897D1*
X15474Y15974D1*
X15592Y16012D1*
X15717Y16007D1*
X15832Y15959D1*
X15923Y15875D1*
X15980Y15764D1*
X15988Y15709D1*
X17940Y15705D1*
X18053Y15673D1*
X18181Y15554D1*
X19084Y14651D1*
X19142Y14811D1*
X19221Y14907D1*
X19301Y14962D1*
X19202Y15036D1*
X19138Y15112D1*
X19091Y15201D1*
X19065Y15297D1*
X19060Y15397D1*
X19076Y15495D1*
X19114Y15588D1*
X19170Y15670D1*
X19243Y15738D1*
X19328Y15789D1*
X19423Y15821D1*
X19522Y15831D1*
X19622Y15820D1*
X19716Y15788D1*
X19801Y15736D1*
X19873Y15667D1*
X19929Y15584D1*
X19965Y15491D1*
X19981Y15392D1*
X19975Y15295D1*
X19948Y15199D1*
X19902Y15111D1*
X19837Y15035D1*
X19757Y14975D1*
X19740Y14965D1*
X19795Y14928D1*
X19880Y14837D1*
X19937Y14726D1*
X19961Y14583D1*
X19944Y14459D1*
X19892Y14346D1*
X19811Y14251D1*
X19717Y14190D1*
X19795Y14140D1*
X19880Y14050D1*
X19937Y13939D1*
X19961Y13795D1*
X19944Y13672D1*
X19892Y13559D1*
X19814Y13467D1*
X19817Y13358D1*
X19903Y13264D1*
X19958Y13152D1*
X19981Y13008D1*
X19964Y12884D1*
X19915Y12770D1*
X19821Y12662D1*
Y12570D1*
X19903Y12477D1*
X19958Y12365D1*
X19981Y12221D1*
X19964Y12097D1*
X19915Y11983D1*
X19821Y11874D1*
X19822Y11405D1*
X22850D1*
X22971Y11376D1*
X23038Y11328D1*
X24088Y10278D1*
X24152Y10171D1*
X24165Y10090D1*
Y9688D1*
X24206Y9637D1*
X24260Y9525D1*
X24275Y9416D1*
X24361Y9334D1*
X27137Y9335D1*
X27261Y9419D1*
X27383Y9445D1*
X27507Y9430D1*
X27618Y9375D1*
X27706Y9287D1*
X27760Y9175D1*
X27775Y9070D1*
X27755Y8947D1*
X27695Y8838D1*
X27603Y8755D1*
X27488Y8706D1*
X27364Y8697D1*
X27244Y8729D1*
X27134Y8808D1*
X26025Y8805D1*
X24250D1*
X24129Y8834D1*
X24063Y8883D1*
X23900Y9046D1*
X23864Y9047D1*
X23744Y9079D1*
X23641Y9149D1*
X23567Y9249D1*
X23529Y9367D1*
X23532Y9492D1*
X23576Y9608D1*
X23638Y9683D1*
X23635Y9979D1*
X22738Y10877D1*
X21600Y10875D1*
X19823D1*
X19825Y10521D1*
X19790Y10403D1*
X19692Y10323D1*
X19611Y10305D1*
X17912Y10296D1*
X17915Y9635D1*
Y8680D1*
X17880Y8562D1*
X17782Y8482D1*
X17700Y8465D1*
X8500Y8475D1*
X8382Y8511D1*
X8302Y8609D1*
X8285Y8690D1*
Y12678D1*
X8254Y12677D1*
X8134Y12709D1*
X8031Y12779D1*
X7957Y12879D1*
X7919Y12997D1*
X7922Y13122D1*
X7966Y13238D1*
X8045Y13334D1*
X8151Y13399D1*
X8285Y13423D1*
Y13890D1*
X8320Y14008D1*
X8419Y14088D1*
X8500Y14105D1*
X10254D1*
X10255Y15264D1*
X10169Y15235D1*
X10045Y15226D1*
X9925Y15258D1*
X9822Y15328D1*
X9748Y15428D1*
X9710Y15546D1*
X9713Y15671D1*
X9757Y15787D1*
X9836Y15883D1*
X9942Y15948D1*
X10064Y15974D1*
X10187Y15959D1*
X10254Y15926D1*
X10255Y18225D1*
X10174Y18227D1*
X10054Y18259D1*
X10019Y18283D1*
X9955Y18158D1*
X9863Y18075D1*
X9748Y18026D1*
X9624Y18017D1*
X9504Y18049D1*
X9401Y18119D1*
X9327Y18219D1*
X9289Y18337D1*
X9292Y18462D1*
X9336Y18578D1*
X9415Y18674D1*
X9521Y18739D1*
X9578Y18751D1*
X9549Y18857D1*
X9552Y18982D1*
X9596Y19098D1*
X9675Y19194D1*
X9781Y19259D1*
X9903Y19285D1*
X10030Y19268D1*
X9979Y19351D1*
X9955Y19470D1*
Y29216D1*
X9899Y29367D1*
X9902Y29492D1*
X9946Y29608D1*
X10025Y29704D1*
X10131Y29769D1*
X10253Y29795D1*
X10377Y29780D1*
X10488Y29725D1*
X10576Y29637D1*
X10630Y29525D1*
X10645Y29420D1*
X10625Y29297D1*
X10585Y29226D1*
Y26690D1*
X10668Y26708D1*
X10792Y26704D1*
X10911Y26667D1*
X11016Y26599D1*
X11098Y26506D1*
X11153Y26394D1*
X11176Y26250D1*
X11159Y26126D1*
X11110Y26012D1*
X11032Y25915D1*
X10953Y25858D1*
X11016Y25812D1*
X11098Y25719D1*
X11153Y25607D1*
X11176Y25462D1*
X11159Y25339D1*
X11110Y25224D1*
X11032Y25127D1*
X10953Y25071D1*
X11016Y25025D1*
X11098Y24931D1*
X11153Y24819D1*
X11176Y24675D1*
X11159Y24551D1*
X11110Y24437D1*
X11032Y24340D1*
X10953Y24283D1*
X11016Y24237D1*
X11098Y24144D1*
X11155Y24021D1*
X11261Y24089D1*
X11383Y24115D1*
X11507Y24100D1*
X11594Y24057D1*
X11595Y27540D1*
X11634Y27657D1*
X11738Y27727D1*
X11915Y27735D1*
X16208D1*
X16157Y27809D1*
X16119Y27927D1*
X16122Y28052D1*
X16166Y28168D1*
X16245Y28264D1*
X16351Y28329D1*
X16473Y28355D1*
X16597Y28340D1*
X16708Y28285D1*
X16796Y28197D1*
X16850Y28085D1*
X16865Y27980D1*
X16845Y27857D1*
X16770Y27735D1*
X25365D1*
X25482Y27696D1*
X25552Y27592D1*
X25560Y27415D1*
Y24044D1*
X25630Y23919D1*
X25645Y23815D1*
X25623Y23693D1*
X25558Y23583D1*
X25560Y22290D1*
Y18490D1*
X25521Y18374D1*
X25417Y18303D1*
X25240Y18295D1*
X11790D1*
X11674Y18334D1*
X11603Y18438D1*
X11595Y18615D1*
Y19002D1*
X11547Y19018D1*
X11438Y19079D1*
X11347Y19165D1*
X11280Y19270D1*
X11240Y19388D1*
X11230Y19512D1*
X11251Y19635D1*
X11301Y19749D1*
X11377Y19848D1*
X11474Y19926D1*
X11592Y19978D1*
X11595Y20002D1*
X11547Y20018D1*
X11438Y20079D1*
X11347Y20165D1*
X11280Y20270D1*
X11240Y20388D1*
X11230Y20512D1*
X11251Y20635D1*
X11301Y20749D1*
X11377Y20848D1*
X11474Y20926D1*
X11592Y20978D1*
X11595Y21025D1*
X11519Y21053D1*
X11415Y21123D1*
X11333Y21217D1*
X11277Y21328D1*
X11252Y21450D1*
X11257Y21574D1*
X11294Y21694D1*
X11360Y21800D1*
X11450Y21885D1*
X11559Y21946D1*
X11593Y21955D1*
X11595Y23424D1*
X11488Y23376D1*
X11364Y23367D1*
X11244Y23399D1*
X11141Y23469D1*
X11061Y23587D1*
X11032Y23553D1*
X10955Y23494D1*
X11034Y23433D1*
X11098Y23357D1*
X11145Y23268D1*
X11171Y23172D1*
X11176Y23075D1*
X9915Y26836D2*
X9870Y26720D1*
X9799Y26618D1*
X9704Y26536D1*
X9593Y26480D1*
X9472Y26452D1*
X9347Y26455D1*
X9227Y26488D1*
X9118Y26549D1*
X9027Y26635D1*
X8960Y26740D1*
X8920Y26858D1*
X8910Y26982D1*
X8931Y27105D1*
X8981Y27219D1*
X9057Y27318D1*
X9154Y27396D1*
X9268Y27447D1*
X9391Y27470D1*
X9515Y27462D1*
X9634Y27424D1*
X9740Y27358D1*
X9827Y27269D1*
X9889Y27161D1*
X9924Y27041D1*
X9930Y26960D1*
X9915Y26836D1*
X8910Y26956D2*
X8895Y26837D1*
X8848Y26721D1*
X8774Y26621D1*
X8677Y26542D1*
X8563Y26491D1*
X8440Y26470D1*
X8316Y26481D1*
X8199Y26523D1*
X8095Y26593D1*
X8013Y26687D1*
X7957Y26798D1*
X7932Y26920D1*
X7937Y27044D1*
X7974Y27164D1*
X8040Y27270D1*
X8130Y27355D1*
X8239Y27416D1*
X8360Y27447D1*
X8485Y27446D1*
X8605Y27414D1*
X8714Y27353D1*
X8803Y27266D1*
X8868Y27160D1*
X8904Y27040D1*
X8910Y26963D1*
X6665Y29637D2*
X6605Y29528D1*
X6567Y29494D1*
X6616Y29437D1*
X6670Y29325D1*
X6685Y29220D1*
X6665Y29097D1*
X6605Y28988D1*
X6513Y28905D1*
X6473Y28888D1*
X6528Y28855D1*
X6616Y28767D1*
X6670Y28655D1*
X6685Y28550D1*
X6665Y28427D1*
X6605Y28318D1*
X6550Y28269D1*
X6616Y28197D1*
X6670Y28085D1*
X6685Y27980D1*
X6665Y27857D1*
X6605Y27748D1*
X6513Y27665D1*
X6398Y27616D1*
X6274Y27607D1*
X6154Y27639D1*
X6051Y27709D1*
X5977Y27809D1*
X5939Y27927D1*
X5942Y28052D1*
X5986Y28168D1*
X6068Y28266D1*
X5977Y28379D1*
X5939Y28497D1*
X5942Y28622D1*
X5986Y28738D1*
X6065Y28834D1*
X6148Y28884D1*
X6051Y28949D1*
X5977Y29049D1*
X5939Y29167D1*
X5942Y29292D1*
X5986Y29408D1*
X6053Y29489D1*
X5977Y29589D1*
X5939Y29707D1*
X5942Y29832D1*
X5986Y29948D1*
X6065Y30044D1*
X6171Y30109D1*
X6293Y30135D1*
X6417Y30120D1*
X6528Y30065D1*
X6616Y29977D1*
X6670Y29865D1*
X6685Y29760D1*
X6665Y29637D1*
X34465Y37327D2*
X34407Y37222D1*
X34470Y37095D1*
X34485Y36990D1*
X34465Y36867D1*
X34390Y36745D1*
X34450Y36625D1*
X34465Y36520D1*
X34445Y36397D1*
X34385Y36288D1*
X34293Y36205D1*
X34178Y36156D1*
X34054Y36147D1*
X33934Y36179D1*
X33834Y36247D1*
X33708Y36186D1*
X33584Y36177D1*
X33464Y36209D1*
X33397Y36255D1*
X33248Y36186D1*
X33124Y36177D1*
X33004Y36209D1*
X32901Y36279D1*
X32827Y36379D1*
X32789Y36497D1*
X32792Y36622D1*
X32836Y36738D1*
X32863Y36771D1*
X32837Y36819D1*
X32799Y36937D1*
X32802Y37062D1*
X32846Y37178D1*
X32873Y37211D1*
X32817Y37289D1*
X32779Y37407D1*
X32782Y37532D1*
X32826Y37648D1*
X32905Y37744D1*
X33011Y37809D1*
X33133Y37835D1*
X33257Y37820D1*
X33368Y37765D1*
X33388Y37746D1*
X33491Y37809D1*
X33613Y37835D1*
X33737Y37820D1*
X33848Y37765D1*
X33873Y37740D1*
X33971Y37799D1*
X34093Y37825D1*
X34217Y37810D1*
X34328Y37755D1*
X34416Y37667D1*
X34470Y37555D1*
X34485Y37450D1*
X34465Y37327D1*
X32910Y35253D2*
X32882Y35233D1*
X32761Y35205D1*
X32638Y35225D1*
X32532Y35289D1*
X32457Y35389D1*
X32426Y35509D1*
X32442Y35632D1*
X32503Y35741D1*
X32600Y35818D1*
X32719Y35854D1*
X32842Y35842D1*
X32922Y35801D1*
X33059Y35844D1*
X33182Y35832D1*
X33293Y35774D1*
X33335Y35724D1*
X33440Y35808D1*
X33559Y35844D1*
X33682Y35832D1*
X33793Y35774D1*
X33873Y35680D1*
X33912Y35562D1*
X33915Y35524D1*
X33955Y35564D1*
X34061Y35629D1*
X34183Y35655D1*
X34307Y35640D1*
X34418Y35585D1*
X34506Y35497D1*
X34560Y35385D1*
X34575Y35280D1*
X34555Y35157D1*
X34495Y35048D1*
X34403Y34965D1*
X34288Y34916D1*
X34164Y34907D1*
X34044Y34939D1*
X33941Y35009D1*
X33867Y35109D1*
X33829Y35227D1*
X33831Y35301D1*
X33722Y35223D1*
X33601Y35195D1*
X33478Y35215D1*
X33372Y35279D1*
X33342Y35320D1*
X33324Y35294D1*
X33222Y35223D1*
X33101Y35195D1*
X32978Y35215D1*
X32915Y35253D1*
X32371Y36198D2*
X32304Y36094D1*
X32202Y36023D1*
X32081Y35995D1*
X31958Y36015D1*
X31852Y36079D1*
X31822Y36120D1*
X31805Y36027D1*
X31745Y35918D1*
X31653Y35835D1*
X31538Y35786D1*
X31414Y35777D1*
X31294Y35809D1*
X31191Y35879D1*
X31117Y35979D1*
X31079Y36097D1*
X31082Y36222D1*
X31126Y36338D1*
X31205Y36434D1*
X31311Y36499D1*
X31433Y36525D1*
X31557Y36510D1*
X31668Y36455D1*
X31748Y36375D1*
X31762Y36422D1*
X31823Y36531D1*
X31920Y36608D1*
X31975Y36625D1*
X31887Y36739D1*
X31879Y36773D1*
X31828Y36785D1*
X31722Y36849D1*
X31647Y36949D1*
X31616Y37069D1*
X31632Y37192D1*
X31693Y37301D1*
X31793Y37379D1*
X31812Y37502D1*
X31873Y37611D1*
X31970Y37688D1*
X32089Y37724D1*
X32212Y37712D1*
X32323Y37654D1*
X32403Y37560D1*
X32442Y37442D1*
X32445Y37400D1*
X32421Y37278D1*
X32354Y37174D1*
X32338Y37163D1*
X32383Y37134D1*
X32463Y37040D1*
X32502Y36922D1*
X32505Y36880D1*
X32481Y36758D1*
X32414Y36654D1*
X32312Y36583D1*
X32270Y36573D1*
X32353Y36480D1*
X32392Y36362D1*
X32395Y36320D1*
X32371Y36198D1*
X33831Y38318D2*
X33764Y38214D1*
X33662Y38143D1*
X33541Y38115D1*
X33418Y38135D1*
X33312Y38199D1*
X33237Y38299D1*
X33206Y38419D1*
X33222Y38542D1*
X33283Y38651D1*
X33380Y38728D1*
X33499Y38764D1*
X33622Y38752D1*
X33733Y38694D1*
X33813Y38600D1*
X33852Y38482D1*
X33855Y38440D1*
X33831Y38318D1*
X34795Y38707D2*
X34735Y38598D1*
X34643Y38515D1*
X34528Y38466D1*
X34404Y38457D1*
X34284Y38489D1*
X34181Y38559D1*
X34107Y38659D1*
X34069Y38777D1*
X34072Y38902D1*
X34116Y39018D1*
X34195Y39114D1*
X34301Y39179D1*
X34423Y39205D1*
X34547Y39190D1*
X34658Y39135D1*
X34746Y39047D1*
X34800Y38935D1*
X34815Y38830D1*
X34795Y38707D1*
X32557Y38976D2*
X32525Y38918D1*
X32433Y38835D1*
X32318Y38786D1*
X32194Y38777D1*
X32074Y38809D1*
X31971Y38879D1*
X31897Y38979D1*
X31859Y39097D1*
X31862Y39222D1*
X31906Y39338D1*
X31985Y39434D1*
X32091Y39499D1*
X32213Y39525D1*
X32337Y39510D1*
X32457Y39447D1*
X32483Y39479D1*
X32457Y39529D1*
X32419Y39647D1*
X32422Y39772D1*
X32466Y39888D1*
X32545Y39984D1*
X32651Y40049D1*
X32773Y40075D1*
X32897Y40060D1*
X33008Y40005D1*
X33060Y39953D1*
X33095Y39984D1*
X33201Y40049D1*
X33323Y40075D1*
X33447Y40060D1*
X33558Y40005D1*
X33646Y39917D1*
X33700Y39805D1*
X33715Y39700D1*
X33695Y39577D1*
X33644Y39485D1*
X33700Y39375D1*
X33715Y39270D1*
X33695Y39147D1*
X33635Y39038D1*
X33543Y38955D1*
X33428Y38906D1*
X33304Y38897D1*
X33184Y38929D1*
X33069Y39015D1*
X32993Y38955D1*
X32878Y38906D1*
X32754Y38897D1*
X32634Y38929D1*
X32560Y38979D1*
X36925Y37797D2*
X36865Y37688D1*
X36773Y37605D1*
X36658Y37556D1*
X36534Y37547D1*
X36414Y37579D1*
X36311Y37649D1*
X36237Y37749D1*
X36199Y37867D1*
X36202Y37992D1*
X36246Y38108D1*
X36325Y38204D1*
X36431Y38269D1*
X36553Y38295D1*
X36677Y38280D1*
X36788Y38225D1*
X36876Y38137D1*
X36930Y38025D1*
X36945Y37920D1*
X36925Y37797D1*
X36915Y35917D2*
X36855Y35808D1*
X36763Y35725D1*
X36648Y35676D1*
X36524Y35667D1*
X36404Y35699D1*
X36301Y35769D1*
X36227Y35869D1*
X36189Y35987D1*
X36192Y36112D1*
X36236Y36228D1*
X36315Y36324D1*
X36421Y36389D1*
X36543Y36415D1*
X36667Y36400D1*
X36778Y36345D1*
X36866Y36257D1*
X36920Y36145D1*
X36935Y36040D1*
X36915Y35917D1*
X32528Y32174D2*
X32438Y32136D1*
X32314Y32127D1*
X32194Y32159D1*
X32091Y32229D1*
X32017Y32329D1*
X31979Y32447D1*
X31982Y32572D1*
X32022Y32677D1*
X31979Y32807D1*
X31982Y32932D1*
X32026Y33048D1*
X32105Y33144D1*
X32211Y33209D1*
X32333Y33235D1*
X32457Y33220D1*
X32537Y33181D1*
X32571Y33199D1*
X32693Y33225D1*
X32817Y33210D1*
X32904Y33167D1*
X32981Y33209D1*
X33103Y33235D1*
X33227Y33220D1*
X33338Y33165D1*
X33426Y33077D1*
X33480Y32965D1*
X33495Y32860D1*
X33475Y32737D1*
X33447Y32686D1*
X33480Y32605D1*
X33495Y32500D1*
X33475Y32377D1*
X33415Y32268D1*
X33323Y32185D1*
X33208Y32136D1*
X33084Y32127D1*
X32964Y32159D1*
X32922Y32188D1*
X32798Y32136D1*
X32674Y32127D1*
X32554Y32159D1*
X32532Y32174D1*
X36335Y39437D2*
X36275Y39328D1*
X36183Y39245D1*
X36068Y39196D1*
X35944Y39187D1*
X35824Y39219D1*
X35802Y39234D1*
X35698Y39196D1*
X35574Y39187D1*
X35454Y39219D1*
X35393Y39261D1*
X35258Y39196D1*
X35134Y39187D1*
X35014Y39219D1*
X34911Y39289D1*
X34837Y39389D1*
X34799Y39507D1*
X34802Y39632D1*
X34846Y39748D1*
X34925Y39844D1*
X35031Y39909D1*
X35153Y39935D1*
X35277Y39920D1*
X35391Y39862D1*
X35471Y39909D1*
X35593Y39935D1*
X35717Y39920D1*
X35790Y39884D1*
X35841Y39909D1*
X35963Y39935D1*
X36087Y39920D1*
X36198Y39865D1*
X36286Y39777D1*
X36340Y39665D1*
X36355Y39560D1*
X36335Y39437D1*
X31025Y39447D2*
X30965Y39338D1*
X30873Y39255D1*
X30758Y39206D1*
X30634Y39197D1*
X30514Y39229D1*
X30411Y39299D1*
X30337Y39399D1*
X30299Y39517D1*
X30302Y39642D1*
X30346Y39758D1*
X30425Y39854D1*
X30531Y39919D1*
X30653Y39945D1*
X30777Y39930D1*
X30888Y39875D1*
X30976Y39787D1*
X31030Y39675D1*
X31045Y39570D1*
X31025Y39447D1*
X29946Y35834D2*
X29844Y35811D1*
X29721Y35830D1*
X29615Y35895D1*
X29541Y35994D1*
X29509Y36114D1*
X29525Y36238D1*
X29586Y36346D1*
X29683Y36423D1*
X29802Y36459D1*
X29926Y36447D1*
X30036Y36390D1*
X30116Y36295D1*
X30158Y36147D1*
X30303Y36185D1*
X30427Y36170D1*
X30538Y36115D1*
X30626Y36027D1*
X30680Y35915D1*
X30695Y35810D1*
X30675Y35687D1*
X30615Y35578D1*
X30523Y35495D1*
X30408Y35446D1*
X30284Y35437D1*
X30164Y35469D1*
X30061Y35539D1*
X29987Y35639D1*
X29949Y35757D1*
X29951Y35831D1*
X29300Y37187D2*
X29281Y37190D1*
X29175Y37255D1*
X29101Y37354D1*
X29069Y37474D1*
X29085Y37598D1*
X29146Y37706D1*
X29243Y37783D1*
X29362Y37819D1*
X29486Y37807D1*
X29596Y37750D1*
X29676Y37655D1*
X29716Y37537D1*
X29718Y37495D1*
X29707Y37438D1*
X29767Y37430D1*
X29878Y37375D1*
X29966Y37287D1*
X30020Y37175D1*
X30035Y37070D1*
X30015Y36947D1*
X29955Y36838D1*
X29863Y36755D1*
X29748Y36706D1*
X29624Y36697D1*
X29504Y36729D1*
X29401Y36799D1*
X29327Y36899D1*
X29289Y37017D1*
X29292Y37142D1*
X29307Y37182D1*
X29695Y38094D2*
X29627Y37989D1*
X29525Y37918D1*
X29404Y37891D1*
X29281Y37910D1*
X29175Y37975D1*
X29101Y38074D1*
X29069Y38194D1*
X29085Y38318D1*
X29146Y38426D1*
X29243Y38503D1*
X29362Y38539D1*
X29486Y38527D1*
X29596Y38470D1*
X29676Y38375D1*
X29716Y38257D1*
X29718Y38215D1*
X29695Y38094D1*
X30115Y39204D2*
X30047Y39099D1*
X29945Y39028D1*
X29824Y39001D1*
X29701Y39020D1*
X29595Y39085D1*
X29521Y39184D1*
X29489Y39304D1*
X29505Y39428D1*
X29566Y39536D1*
X29663Y39613D1*
X29782Y39649D1*
X29906Y39637D1*
X30016Y39580D1*
X30096Y39485D1*
X30136Y39367D1*
X30138Y39325D1*
X30115Y39204D1*
X15109Y36528D2*
X15083Y36505D1*
X14968Y36456D1*
X14844Y36447D1*
X14724Y36479D1*
X14621Y36549D1*
X14547Y36649D1*
X14509Y36767D1*
X14512Y36892D1*
X14556Y37008D1*
X14635Y37104D1*
X14741Y37169D1*
X14863Y37195D1*
X14987Y37180D1*
X15098Y37125D1*
X15118Y37106D1*
X15211Y37159D1*
X15333Y37185D1*
X15457Y37170D1*
X15568Y37115D1*
X15604Y37079D1*
X15701Y37139D1*
X15823Y37165D1*
X15947Y37150D1*
X16058Y37095D1*
X16146Y37007D1*
X16200Y36895D1*
X16215Y36790D1*
X16195Y36667D1*
X16135Y36558D1*
X16043Y36475D1*
X15928Y36426D1*
X15804Y36417D1*
X15684Y36449D1*
X15584Y36517D1*
X15438Y36446D1*
X15314Y36437D1*
X15194Y36469D1*
X15114Y36524D1*
X17505Y35767D2*
X17445Y35658D1*
X17353Y35575D1*
X17238Y35526D1*
X17114Y35517D1*
X16994Y35549D1*
X16891Y35619D1*
X16817Y35719D1*
X16779Y35837D1*
X16782Y35962D1*
X16826Y36078D1*
X16905Y36174D1*
X17011Y36239D1*
X17133Y36265D1*
X17257Y36250D1*
X17368Y36195D1*
X17456Y36107D1*
X17510Y35995D1*
X17525Y35890D1*
X17505Y35767D1*
X16211Y33984D2*
X16165Y33898D1*
X16073Y33815D1*
X15958Y33766D1*
X15834Y33757D1*
X15714Y33789D1*
X15611Y33859D1*
X15537Y33959D1*
X15499Y34077D1*
X15502Y34202D1*
X15546Y34318D1*
X15625Y34414D1*
X15731Y34479D1*
X15853Y34505D1*
X15977Y34490D1*
X16088Y34435D1*
X16176Y34347D1*
X16201Y34294D1*
X16226Y34338D1*
X16305Y34434D1*
X16411Y34499D1*
X16533Y34525D1*
X16657Y34510D1*
X16768Y34455D1*
X16856Y34367D1*
X16910Y34255D1*
X16925Y34150D1*
X16905Y34027D1*
X16845Y33918D1*
X16753Y33835D1*
X16638Y33786D1*
X16514Y33777D1*
X16394Y33809D1*
X16291Y33879D1*
X16215Y33982D1*
X16895Y32967D2*
X16835Y32858D1*
X16743Y32775D1*
X16628Y32726D1*
X16504Y32717D1*
X16384Y32749D1*
X16281Y32819D1*
X16207Y32919D1*
X16169Y33037D1*
X16172Y33162D1*
X16216Y33278D1*
X16295Y33374D1*
X16401Y33439D1*
X16523Y33465D1*
X16647Y33450D1*
X16758Y33395D1*
X16846Y33307D1*
X16900Y33195D1*
X16915Y33090D1*
X16895Y32967D1*
X13735Y33397D2*
X13675Y33288D1*
X13583Y33205D1*
X13468Y33156D1*
X13344Y33147D1*
X13224Y33179D1*
X13121Y33249D1*
X13047Y33349D1*
X13009Y33467D1*
X13012Y33592D1*
X13056Y33708D1*
X13135Y33804D1*
X13241Y33869D1*
X13363Y33895D1*
X13487Y33880D1*
X13598Y33825D1*
X13686Y33737D1*
X13740Y33625D1*
X13755Y33520D1*
X13735Y33397D1*
X11761Y34642D2*
X11638Y34586D1*
X11514Y34577D1*
X11394Y34609D1*
X11291Y34679D1*
X11217Y34779D1*
X11179Y34897D1*
X11182Y35022D1*
X11226Y35138D1*
X11305Y35234D1*
X11411Y35299D1*
X11533Y35325D1*
X11657Y35310D1*
X11758Y35260D1*
X11831Y35299D1*
X11953Y35325D1*
X12077Y35310D1*
X12188Y35255D1*
X12276Y35167D1*
X12330Y35055D1*
X12345Y34950D1*
X12323Y34824D1*
X12423Y34845D1*
X12547Y34830D1*
X12658Y34775D1*
X12746Y34687D1*
X12800Y34575D1*
X12815Y34470D1*
X12795Y34347D1*
X12735Y34238D1*
X12709Y34215D1*
X12746Y34167D1*
X12800Y34055D1*
X12815Y33950D1*
X12795Y33827D1*
X12735Y33718D1*
X12703Y33690D1*
X12746Y33637D1*
X12800Y33525D1*
X12815Y33420D1*
X12795Y33297D1*
X12735Y33188D1*
X12643Y33105D1*
X12528Y33056D1*
X12404Y33047D1*
X12370Y33056D1*
X12375Y33020D1*
X12355Y32897D1*
X12295Y32788D1*
X12203Y32705D1*
X12088Y32656D1*
X11964Y32647D1*
X11844Y32679D1*
X11757Y32738D1*
X11618Y32676D1*
X11494Y32667D1*
X11374Y32699D1*
X11271Y32769D1*
X11197Y32869D1*
X11159Y32987D1*
X11162Y33112D1*
X11206Y33228D1*
X11285Y33324D1*
X11391Y33389D1*
X11513Y33415D1*
X11637Y33400D1*
X11748Y33345D1*
X11773Y33320D1*
X11861Y33369D1*
X11983Y33395D1*
X12064Y33385D1*
X12072Y33492D1*
X12116Y33608D1*
X12178Y33683D1*
X12107Y33779D1*
X12069Y33897D1*
X12072Y34022D1*
X12116Y34138D1*
X12173Y34207D1*
X12107Y34299D1*
X12069Y34417D1*
X12072Y34542D1*
X12092Y34596D1*
X12058Y34586D1*
X11934Y34577D1*
X11814Y34609D1*
X11766Y34642D1*
X14670Y39001D2*
X14643Y39002D1*
X14527Y39046D1*
X14433Y39128D1*
X14374Y39237D1*
X14355Y39360D1*
X14380Y39482D1*
X14446Y39587D1*
X14544Y39664D1*
X14662Y39702D1*
X14787Y39697D1*
X14902Y39649D1*
X14993Y39565D1*
X15050Y39454D1*
X15062Y39331D1*
X15147Y39320D1*
X15227Y39281D1*
X15393Y39325D1*
X15517Y39310D1*
X15590Y39274D1*
X15661Y39309D1*
X15783Y39335D1*
X15907Y39320D1*
X16018Y39265D1*
X16106Y39177D1*
X16160Y39065D1*
X16175Y38960D1*
X16155Y38837D1*
X16095Y38728D1*
X16003Y38645D1*
X15888Y38596D1*
X15764Y38587D1*
X15644Y38619D1*
X15613Y38635D1*
X15498Y38586D1*
X15374Y38577D1*
X15254Y38609D1*
X15219Y38633D1*
X15128Y38596D1*
X15004Y38587D1*
X14884Y38619D1*
X14781Y38689D1*
X14707Y38789D1*
X14669Y38907D1*
X14671Y38997D1*
X9279Y38573D2*
X9168Y38526D1*
X9044Y38517D1*
X8924Y38549D1*
X8821Y38619D1*
X8747Y38719D1*
X8709Y38837D1*
X8712Y38950D1*
X8667Y38976D1*
X8573Y39058D1*
X8514Y39167D1*
X8495Y39290D1*
X8520Y39412D1*
X8586Y39517D1*
X8684Y39594D1*
X8802Y39632D1*
X8830Y39631D1*
X8832Y39772D1*
X8876Y39888D1*
X8955Y39984D1*
X9061Y40049D1*
X9183Y40075D1*
X9307Y40060D1*
X9418Y40005D1*
X9506Y39917D1*
X9560Y39805D1*
X9575Y39700D1*
X9555Y39577D1*
X9495Y39468D1*
X9403Y39385D1*
X9288Y39336D1*
X9199Y39329D1*
Y39246D1*
X9341Y39239D1*
X9463Y39265D1*
X9587Y39250D1*
X9674Y39207D1*
X9731Y39239D1*
X9853Y39265D1*
X9977Y39250D1*
X10088Y39195D1*
X10176Y39107D1*
X10230Y38995D1*
X10245Y38890D1*
X10225Y38767D1*
X10165Y38658D1*
X10073Y38575D1*
X9958Y38526D1*
X9834Y38517D1*
X9714Y38549D1*
X9679Y38573D1*
X9568Y38526D1*
X9444Y38517D1*
X9324Y38549D1*
X9282Y38578D1*
X16845Y28927D2*
X16785Y28818D1*
X16693Y28735D1*
X16578Y28686D1*
X16454Y28677D1*
X16334Y28709D1*
X16231Y28779D1*
X16157Y28879D1*
X16119Y28997D1*
X16122Y29122D1*
X16166Y29238D1*
X16245Y29334D1*
X16351Y29399D1*
X16473Y29425D1*
X16597Y29410D1*
X16708Y29355D1*
X16796Y29267D1*
X16850Y29155D1*
X16865Y29050D1*
X16845Y28927D1*
X16015Y28977D2*
X15955Y28868D1*
X15863Y28785D1*
X15748Y28736D1*
X15624Y28727D1*
X15504Y28759D1*
X15401Y28829D1*
X15327Y28929D1*
X15289Y29047D1*
X15292Y29172D1*
X15336Y29288D1*
X15415Y29384D1*
X15521Y29449D1*
X15643Y29475D1*
X15767Y29460D1*
X15878Y29405D1*
X15966Y29317D1*
X16020Y29205D1*
X16035Y29100D1*
X16015Y28977D1*
X13665Y28227D2*
X13605Y28118D1*
X13513Y28035D1*
X13398Y27986D1*
X13274Y27977D1*
X13154Y28009D1*
X13051Y28079D1*
X12977Y28179D1*
X12939Y28297D1*
X12942Y28422D1*
X12986Y28538D1*
X13065Y28634D1*
X13171Y28699D1*
X13293Y28725D1*
X13417Y28710D1*
X13528Y28655D1*
X13616Y28567D1*
X13670Y28455D1*
X13685Y28350D1*
X13665Y28227D1*
X14869Y31483D2*
X14758Y31436D1*
X14634Y31427D1*
X14514Y31459D1*
X14411Y31529D1*
X14337Y31629D1*
X14299Y31747D1*
X14302Y31872D1*
X14346Y31988D1*
X14425Y32084D1*
X14531Y32149D1*
X14653Y32175D1*
X14777Y32160D1*
X14864Y32117D1*
X14931Y32149D1*
X15053Y32175D1*
X15177Y32160D1*
X15285Y32107D1*
X15341Y32139D1*
X15463Y32165D1*
X15587Y32150D1*
X15698Y32095D1*
X15786Y32007D1*
X15840Y31895D1*
X15855Y31790D1*
X15835Y31667D1*
X15775Y31558D1*
X15683Y31475D1*
X15568Y31426D1*
X15444Y31417D1*
X15324Y31449D1*
X15269Y31486D1*
X15158Y31436D1*
X15034Y31427D1*
X14914Y31459D1*
X14872Y31488D1*
X17165Y30817D2*
X17105Y30708D1*
X17013Y30625D1*
X16898Y30576D1*
X16774Y30567D1*
X16654Y30599D1*
X16551Y30669D1*
X16477Y30769D1*
X16439Y30887D1*
X16442Y31012D1*
X16486Y31128D1*
X16565Y31224D1*
X16671Y31289D1*
X16793Y31315D1*
X16917Y31300D1*
X17028Y31245D1*
X17116Y31157D1*
X17170Y31045D1*
X17185Y30940D1*
X17165Y30817D1*
X23105Y38707D2*
X23045Y38598D1*
X22953Y38515D1*
X22838Y38466D1*
X22714Y38457D1*
X22594Y38489D1*
X22491Y38559D1*
X22417Y38659D1*
X22379Y38777D1*
X22382Y38902D1*
X22426Y39018D1*
X22505Y39114D1*
X22611Y39179D1*
X22733Y39205D1*
X22857Y39190D1*
X22968Y39135D1*
X23056Y39047D1*
X23110Y38935D1*
X23125Y38830D1*
X23105Y38707D1*
X24015Y39417D2*
X23955Y39308D1*
X23863Y39225D1*
X23748Y39176D1*
X23624Y39167D1*
X23504Y39199D1*
X23401Y39269D1*
X23327Y39369D1*
X23289Y39487D1*
X23292Y39612D1*
X23336Y39728D1*
X23415Y39824D1*
X23521Y39889D1*
X23643Y39915D1*
X23767Y39900D1*
X23878Y39845D1*
X23966Y39757D1*
X24020Y39645D1*
X24035Y39540D1*
X24015Y39417D1*
X21635Y39507D2*
X21575Y39398D1*
X21483Y39315D1*
X21368Y39266D1*
X21318Y39262D1*
X21325Y39190D1*
X21305Y39067D1*
X21245Y38958D1*
X21153Y38875D1*
X21038Y38826D1*
X20914Y38817D1*
X20794Y38849D1*
X20691Y38919D1*
X20617Y39019D1*
X20579Y39137D1*
X20582Y39262D1*
X20626Y39378D1*
X20705Y39474D1*
X20811Y39539D1*
X20914Y39561D1*
X20912Y39702D1*
X20956Y39818D1*
X21035Y39914D1*
X21141Y39979D1*
X21263Y40005D1*
X21387Y39990D1*
X21498Y39935D1*
X21586Y39847D1*
X21640Y39735D1*
X21655Y39630D1*
X21635Y39507D1*
X26335Y39487D2*
X26275Y39378D1*
X26183Y39295D1*
X26068Y39246D1*
X26010Y39242D1*
X26015Y39170D1*
X25995Y39047D1*
X25935Y38938D1*
X25843Y38855D1*
X25728Y38806D1*
X25604Y38797D1*
X25484Y38829D1*
X25381Y38899D1*
X25307Y38999D1*
X25269Y39117D1*
X25272Y39242D1*
X25316Y39358D1*
X25395Y39454D1*
X25501Y39519D1*
X25612Y39542D1*
Y39682D1*
X25656Y39798D1*
X25735Y39894D1*
X25841Y39959D1*
X25963Y39985D1*
X26087Y39970D1*
X26198Y39915D1*
X26286Y39827D1*
X26340Y39715D1*
X26355Y39610D1*
X26335Y39487D1*
X22023Y37898D2*
X21961Y37790D1*
X21865Y37711D1*
X21748Y37670D1*
X21623Y37672D1*
X21507Y37716D1*
X21413Y37798D1*
X21354Y37907D1*
X21335Y38030D1*
X21360Y38152D1*
X21426Y38257D1*
X21524Y38334D1*
X21642Y38372D1*
X21767Y38367D1*
X21882Y38319D1*
X21973Y38235D1*
X22030Y38124D1*
X22045Y38020D1*
X22023Y37898D1*
X24383Y37928D2*
X24321Y37820D1*
X24225Y37741D1*
X24108Y37700D1*
X23983Y37702D1*
X23867Y37746D1*
X23773Y37828D1*
X23714Y37937D1*
X23695Y38060D1*
X23720Y38182D1*
X23786Y38287D1*
X23884Y38364D1*
X24002Y38402D1*
X24127Y38397D1*
X24242Y38349D1*
X24333Y38265D1*
X24390Y38154D1*
X24405Y38050D1*
X24383Y37928D1*
X35608Y32062D2*
X35512Y32021D1*
X35387Y32012D1*
X35267Y32044D1*
X35164Y32114D1*
X35090Y32214D1*
X35052Y32333D1*
X35055Y32457D1*
X35099Y32573D1*
X35178Y32669D1*
X35285Y32734D1*
X35406Y32760D1*
X35530Y32745D1*
X35589Y32716D1*
X35645Y32744D1*
X35766Y32770D1*
X35890Y32755D1*
X35963Y32719D1*
X36015Y32744D1*
X36136Y32770D1*
X36260Y32755D1*
X36372Y32700D1*
X36459Y32612D1*
X36513Y32500D1*
X36528Y32395D1*
X36508Y32273D1*
X36448Y32164D1*
X36356Y32080D1*
X36242Y32031D1*
X36117Y32022D1*
X35997Y32054D1*
X35975Y32070D1*
X35872Y32031D1*
X35747Y32022D1*
X35618Y32061D1*
X30488Y33773D2*
X30428Y33664D1*
X30336Y33580D1*
X30222Y33531D1*
X30097Y33522D1*
X29977Y33554D1*
X29874Y33624D1*
X29800Y33724D1*
X29762Y33843D1*
X29765Y33967D1*
X29809Y34083D1*
X29888Y34179D1*
X29995Y34244D1*
X30116Y34270D1*
X30240Y34255D1*
X30352Y34200D1*
X30439Y34112D1*
X30493Y34000D1*
X30508Y33895D1*
X30488Y33773D1*
X34465Y29267D2*
X34407Y29162D1*
X34470Y29035D1*
X34485Y28930D1*
X34465Y28807D1*
X34390Y28685D1*
X34450Y28565D1*
X34465Y28460D1*
X34445Y28337D1*
X34385Y28228D1*
X34293Y28145D1*
X34178Y28096D1*
X34054Y28087D1*
X33934Y28119D1*
X33834Y28187D1*
X33708Y28126D1*
X33584Y28117D1*
X33464Y28149D1*
X33397Y28195D1*
X33248Y28126D1*
X33124Y28117D1*
X33004Y28149D1*
X32901Y28219D1*
X32827Y28319D1*
X32789Y28437D1*
X32792Y28562D1*
X32836Y28678D1*
X32863Y28711D1*
X32837Y28759D1*
X32799Y28877D1*
X32802Y29002D1*
X32846Y29118D1*
X32873Y29151D1*
X32817Y29229D1*
X32779Y29347D1*
X32782Y29472D1*
X32826Y29588D1*
X32905Y29684D1*
X33011Y29749D1*
X33133Y29775D1*
X33257Y29760D1*
X33368Y29705D1*
X33388Y29686D1*
X33491Y29749D1*
X33613Y29775D1*
X33737Y29760D1*
X33848Y29705D1*
X33873Y29680D1*
X33971Y29739D1*
X34093Y29765D1*
X34217Y29750D1*
X34328Y29695D1*
X34416Y29607D1*
X34470Y29495D1*
X34485Y29390D1*
X34465Y29267D1*
X32881Y27190D2*
X32751Y27155D1*
X32628Y27175D1*
X32522Y27239D1*
X32447Y27339D1*
X32416Y27459D1*
X32432Y27582D1*
X32493Y27691D1*
X32590Y27768D1*
X32709Y27804D1*
X32832Y27792D1*
X32932Y27740D1*
X33049Y27774D1*
X33172Y27762D1*
X33283Y27704D1*
X33361Y27613D1*
X33434Y27689D1*
X33548Y27739D1*
X33672D1*
X33786Y27689D1*
X33871Y27598D1*
X33914Y27462D1*
X33955Y27504D1*
X34061Y27569D1*
X34183Y27595D1*
X34307Y27580D1*
X34418Y27525D1*
X34506Y27437D1*
X34560Y27325D1*
X34575Y27220D1*
X34555Y27097D1*
X34495Y26988D1*
X34403Y26905D1*
X34288Y26856D1*
X34164Y26847D1*
X34044Y26879D1*
X33941Y26949D1*
X33867Y27049D1*
X33829Y27167D1*
X33830Y27226D1*
X33712Y27153D1*
X33589Y27136D1*
X33470Y27169D1*
X33373Y27248D1*
X33357Y27279D1*
X33314Y27224D1*
X33212Y27153D1*
X33091Y27125D1*
X32968Y27145D1*
X32892Y27191D1*
X32331Y28088D2*
X32264Y27984D1*
X32162Y27913D1*
X32041Y27885D1*
X31918Y27905D1*
X31812Y27969D1*
X31737Y28069D1*
X31706Y28189D1*
X31722Y28312D1*
X31783Y28421D1*
X31880Y28498D1*
X31980Y28528D1*
X31942Y28559D1*
X31867Y28659D1*
X31853Y28715D1*
X31722Y28789D1*
X31647Y28889D1*
X31616Y29009D1*
X31632Y29132D1*
X31693Y29241D1*
X31790Y29318D1*
X31853Y29337D1*
X31872Y29432D1*
X31933Y29541D1*
X32030Y29618D1*
X32149Y29654D1*
X32272Y29642D1*
X32383Y29584D1*
X32463Y29490D1*
X32502Y29372D1*
X32505Y29330D1*
X32481Y29208D1*
X32414Y29104D1*
X32353Y29062D1*
X32443Y28960D1*
X32482Y28842D1*
X32485Y28800D1*
X32461Y28678D1*
X32394Y28574D1*
X32292Y28503D1*
X32205Y28483D1*
X32233Y28464D1*
X32313Y28370D1*
X32352Y28252D1*
X32355Y28210D1*
X32331Y28088D1*
X33831Y30258D2*
X33764Y30154D1*
X33662Y30083D1*
X33541Y30055D1*
X33418Y30075D1*
X33312Y30139D1*
X33237Y30239D1*
X33206Y30359D1*
X33222Y30482D1*
X33283Y30591D1*
X33380Y30668D1*
X33499Y30704D1*
X33622Y30692D1*
X33733Y30634D1*
X33813Y30540D1*
X33852Y30422D1*
X33855Y30380D1*
X33831Y30258D1*
X34795Y30647D2*
X34735Y30538D1*
X34643Y30455D1*
X34528Y30406D1*
X34404Y30397D1*
X34284Y30429D1*
X34181Y30499D1*
X34107Y30599D1*
X34069Y30717D1*
X34072Y30842D1*
X34116Y30958D1*
X34195Y31054D1*
X34301Y31119D1*
X34423Y31145D1*
X34547Y31130D1*
X34658Y31075D1*
X34746Y30987D1*
X34800Y30875D1*
X34815Y30770D1*
X34795Y30647D1*
X32557Y30916D2*
X32525Y30858D1*
X32433Y30775D1*
X32318Y30726D1*
X32194Y30717D1*
X32074Y30749D1*
X31971Y30819D1*
X31897Y30919D1*
X31859Y31037D1*
X31862Y31162D1*
X31906Y31278D1*
X31985Y31374D1*
X32091Y31439D1*
X32213Y31465D1*
X32337Y31450D1*
X32457Y31387D1*
X32483Y31419D1*
X32457Y31469D1*
X32419Y31587D1*
X32422Y31712D1*
X32466Y31828D1*
X32545Y31924D1*
X32651Y31989D1*
X32773Y32015D1*
X32897Y32000D1*
X33008Y31945D1*
X33060Y31893D1*
X33095Y31924D1*
X33201Y31989D1*
X33323Y32015D1*
X33447Y32000D1*
X33558Y31945D1*
X33646Y31857D1*
X33700Y31745D1*
X33715Y31640D1*
X33695Y31517D1*
X33644Y31425D1*
X33700Y31315D1*
X33715Y31210D1*
X33695Y31087D1*
X33635Y30978D1*
X33543Y30895D1*
X33428Y30846D1*
X33304Y30837D1*
X33184Y30869D1*
X33069Y30955D1*
X32993Y30895D1*
X32878Y30846D1*
X32754Y30837D1*
X32634Y30869D1*
X32560Y30919D1*
X36925Y29737D2*
X36865Y29628D1*
X36773Y29545D1*
X36658Y29496D1*
X36534Y29487D1*
X36414Y29519D1*
X36311Y29589D1*
X36237Y29689D1*
X36199Y29807D1*
X36202Y29932D1*
X36246Y30048D1*
X36325Y30144D1*
X36431Y30209D1*
X36553Y30235D1*
X36677Y30220D1*
X36788Y30165D1*
X36876Y30077D1*
X36930Y29965D1*
X36945Y29860D1*
X36925Y29737D1*
X36915Y27857D2*
X36855Y27748D1*
X36763Y27665D1*
X36648Y27616D1*
X36524Y27607D1*
X36404Y27639D1*
X36301Y27709D1*
X36227Y27809D1*
X36189Y27927D1*
X36192Y28052D1*
X36236Y28168D1*
X36315Y28264D1*
X36421Y28329D1*
X36543Y28355D1*
X36667Y28340D1*
X36778Y28285D1*
X36866Y28197D1*
X36920Y28085D1*
X36935Y27980D1*
X36915Y27857D1*
X32528Y24114D2*
X32438Y24076D1*
X32314Y24067D1*
X32194Y24099D1*
X32091Y24169D1*
X32017Y24269D1*
X31979Y24387D1*
X31982Y24512D1*
X32022Y24617D1*
X31979Y24747D1*
X31982Y24872D1*
X32026Y24988D1*
X32105Y25084D1*
X32211Y25149D1*
X32333Y25175D1*
X32457Y25160D1*
X32537Y25121D1*
X32571Y25139D1*
X32693Y25165D1*
X32817Y25150D1*
X32904Y25107D1*
X32981Y25149D1*
X33103Y25175D1*
X33227Y25160D1*
X33338Y25105D1*
X33426Y25017D1*
X33480Y24905D1*
X33495Y24800D1*
X33475Y24677D1*
X33447Y24626D1*
X33480Y24545D1*
X33495Y24440D1*
X33475Y24317D1*
X33415Y24208D1*
X33323Y24125D1*
X33208Y24076D1*
X33084Y24067D1*
X32964Y24099D1*
X32922Y24128D1*
X32798Y24076D1*
X32674Y24067D1*
X32554Y24099D1*
X32639Y24008D1*
X32760Y24034D1*
X32884Y24019D1*
X32996Y23964D1*
X33048Y23912D1*
X33082Y23943D1*
X33189Y24008D1*
X33310Y24034D1*
X33434Y24019D1*
X33546Y23964D1*
X33633Y23876D1*
X33687Y23764D1*
X33702Y23659D1*
X33682Y23537D1*
X33631Y23445D1*
X33687Y23334D1*
X33702Y23229D1*
X33682Y23107D1*
X33622Y22998D1*
X33530Y22914D1*
X33416Y22865D1*
X33292Y22856D1*
X33171Y22888D1*
X33057Y22974D1*
X32980Y22914D1*
X32866Y22865D1*
X32742Y22856D1*
X32621Y22888D1*
X32547Y22939D1*
X32512Y22878D1*
X32420Y22794D1*
X32306Y22745D1*
X32182Y22736D1*
X32061Y22768D1*
X31958Y22838D1*
X31884Y22938D1*
X31846Y23057D1*
X31849Y23181D1*
X31893Y23297D1*
X31972Y23393D1*
X32079Y23458D1*
X32200Y23484D1*
X32324Y23469D1*
X32444Y23406D1*
X32470Y23438D1*
X32444Y23488D1*
X32406Y23607D1*
X32409Y23731D1*
X32453Y23847D1*
X32532Y23943D1*
X32639Y24008D1*
X36335Y31377D2*
X36275Y31268D1*
X36183Y31185D1*
X36068Y31136D1*
X35944Y31127D1*
X35824Y31159D1*
X35802Y31174D1*
X35698Y31136D1*
X35574Y31127D1*
X35454Y31159D1*
X35393Y31201D1*
X35258Y31136D1*
X35134Y31127D1*
X35014Y31159D1*
X34911Y31229D1*
X34837Y31329D1*
X34799Y31447D1*
X34802Y31572D1*
X34846Y31688D1*
X34925Y31784D1*
X35031Y31849D1*
X35153Y31875D1*
X35277Y31860D1*
X35391Y31802D1*
X35471Y31849D1*
X35593Y31875D1*
X35717Y31860D1*
X35790Y31824D1*
X35841Y31849D1*
X35963Y31875D1*
X36087Y31860D1*
X36198Y31805D1*
X36286Y31717D1*
X36340Y31605D1*
X36355Y31500D1*
X36335Y31377D1*
X31025Y31387D2*
X30965Y31278D1*
X30873Y31195D1*
X30758Y31146D1*
X30634Y31137D1*
X30514Y31169D1*
X30411Y31239D1*
X30337Y31339D1*
X30299Y31457D1*
X30302Y31582D1*
X30346Y31698D1*
X30425Y31794D1*
X30531Y31859D1*
X30653Y31885D1*
X30777Y31870D1*
X30888Y31815D1*
X30976Y31727D1*
X31030Y31615D1*
X31045Y31510D1*
X31025Y31387D1*
X29946Y27774D2*
X29844Y27751D1*
X29721Y27770D1*
X29615Y27835D1*
X29541Y27934D1*
X29509Y28054D1*
X29525Y28178D1*
X29586Y28286D1*
X29683Y28363D1*
X29802Y28399D1*
X29926Y28387D1*
X30036Y28330D1*
X30116Y28235D1*
X30158Y28087D1*
X30303Y28125D1*
X30427Y28110D1*
X30538Y28055D1*
X30626Y27967D1*
X30680Y27855D1*
X30695Y27750D1*
X30675Y27627D1*
X30615Y27518D1*
X30523Y27435D1*
X30408Y27386D1*
X30284Y27377D1*
X30164Y27409D1*
X30061Y27479D1*
X29987Y27579D1*
X29949Y27697D1*
X29951Y27771D1*
X29308Y29126D2*
X29281Y29130D1*
X29175Y29195D1*
X29101Y29294D1*
X29069Y29414D1*
X29085Y29538D1*
X29146Y29646D1*
X29243Y29723D1*
X29362Y29759D1*
X29486Y29747D1*
X29596Y29690D1*
X29676Y29595D1*
X29716Y29477D1*
X29718Y29435D1*
X29698Y29333D1*
X29747Y29320D1*
X29858Y29265D1*
X29946Y29177D1*
X30000Y29065D1*
X30015Y28960D1*
X29995Y28837D1*
X29935Y28728D1*
X29843Y28645D1*
X29728Y28596D1*
X29604Y28587D1*
X29484Y28619D1*
X29381Y28689D1*
X29307Y28789D1*
X29269Y28907D1*
X29272Y29032D1*
X29306Y29123D1*
X29695Y30033D2*
X29627Y29929D1*
X29525Y29858D1*
X29404Y29831D1*
X29281Y29850D1*
X29175Y29915D1*
X29101Y30014D1*
X29069Y30134D1*
X29085Y30258D1*
X29146Y30366D1*
X29243Y30443D1*
X29362Y30479D1*
X29486Y30467D1*
X29596Y30410D1*
X29676Y30315D1*
X29716Y30197D1*
X29718Y30155D1*
X29695Y30033D1*
X30115Y31143D2*
X30047Y31039D1*
X29945Y30968D1*
X29824Y30941D1*
X29701Y30960D1*
X29595Y31025D1*
X29521Y31124D1*
X29489Y31244D1*
X29505Y31368D1*
X29566Y31476D1*
X29663Y31553D1*
X29782Y31589D1*
X29906Y31577D1*
X30016Y31520D1*
X30096Y31425D1*
X30136Y31307D1*
X30138Y31265D1*
X30115Y31143D1*
X35608Y24002D2*
X35512Y23961D1*
X35387Y23952D1*
X35267Y23984D1*
X35164Y24054D1*
X35090Y24154D1*
X35052Y24273D1*
X35055Y24397D1*
X35099Y24513D1*
X35178Y24609D1*
X35285Y24674D1*
X35406Y24700D1*
X35530Y24685D1*
X35589Y24656D1*
X35645Y24684D1*
X35766Y24710D1*
X35890Y24695D1*
X35963Y24659D1*
X36015Y24684D1*
X36136Y24710D1*
X36260Y24695D1*
X36372Y24640D1*
X36459Y24552D1*
X36513Y24440D1*
X36528Y24335D1*
X36508Y24213D1*
X36448Y24104D1*
X36356Y24020D1*
X36242Y23971D1*
X36117Y23962D1*
X35997Y23994D1*
X35975Y24010D1*
X35872Y23971D1*
X35747Y23962D1*
X35618Y24001D1*
X35580Y23894D1*
X35704Y23879D1*
X35777Y23843D1*
X35829Y23868D1*
X35950Y23894D1*
X36074Y23879D1*
X36186Y23824D1*
X36273Y23736D1*
X36327Y23624D1*
X36342Y23519D1*
X36322Y23397D1*
X36262Y23288D1*
X36170Y23204D1*
X36056Y23155D1*
X35932Y23146D1*
X35811Y23178D1*
X35789Y23194D1*
X35686Y23155D1*
X35562Y23146D1*
X35441Y23178D1*
X35380Y23220D1*
X35246Y23155D1*
X35122Y23146D1*
X35001Y23178D1*
X34898Y23248D1*
X34824Y23348D1*
X34786Y23467D1*
X34789Y23591D1*
X34833Y23707D1*
X34912Y23803D1*
X35019Y23868D1*
X35140Y23894D1*
X35264Y23879D1*
X35378Y23822D1*
X35459Y23868D1*
X35580Y23894D1*
X30488Y25713D2*
X30428Y25604D1*
X30336Y25520D1*
X30222Y25471D1*
X30097Y25462D1*
X29977Y25494D1*
X29874Y25564D1*
X29800Y25664D1*
X29762Y25783D1*
X29765Y25907D1*
X29809Y26023D1*
X29888Y26119D1*
X29995Y26184D1*
X30116Y26210D1*
X30240Y26195D1*
X30352Y26140D1*
X30439Y26052D1*
X30493Y25940D1*
X30508Y25835D1*
X30488Y25713D1*
X34452Y21287D2*
X34394Y21181D1*
X34457Y21054D1*
X34472Y20949D1*
X34452Y20827D1*
X34378Y20705D1*
X34437Y20584D1*
X34452Y20479D1*
X34432Y20357D1*
X34372Y20248D1*
X34280Y20164D1*
X34166Y20115D1*
X34042Y20106D1*
X33921Y20138D1*
X33822Y20206D1*
X33696Y20145D1*
X33572Y20136D1*
X33451Y20168D1*
X33384Y20214D1*
X33236Y20145D1*
X33112Y20136D1*
X32991Y20168D1*
X32888Y20238D1*
X32814Y20338D1*
X32776Y20457D1*
X32779Y20581D1*
X32823Y20697D1*
X32850Y20730D1*
X32824Y20778D1*
X32786Y20897D1*
X32789Y21021D1*
X32833Y21137D1*
X32860Y21170D1*
X32804Y21248D1*
X32766Y21367D1*
X32769Y21491D1*
X32813Y21607D1*
X32892Y21703D1*
X32999Y21768D1*
X33120Y21794D1*
X33244Y21779D1*
X33356Y21724D1*
X33375Y21705D1*
X33479Y21768D1*
X33600Y21794D1*
X33724Y21779D1*
X33836Y21724D1*
X33860Y21700D1*
X33959Y21758D1*
X34080Y21784D1*
X34204Y21769D1*
X34316Y21714D1*
X34403Y21626D1*
X34457Y21514D1*
X34472Y21409D1*
X34452Y21287D1*
X32835Y19229D2*
X32792Y19203D1*
X32669Y19186D1*
X32550Y19219D1*
X32453Y19298D1*
X32396Y19408D1*
X32388Y19532D1*
X32430Y19649D1*
X32514Y19739D1*
X32628Y19789D1*
X32752D1*
X32856Y19744D1*
X32890Y19768D1*
X33009Y19804D1*
X33132Y19792D1*
X33243Y19734D1*
X33323Y19640D1*
X33342Y19585D1*
X33370Y19649D1*
X33454Y19739D1*
X33568Y19789D1*
X33692D1*
X33806Y19739D1*
X33891Y19648D1*
X33933Y19515D1*
X34049Y19588D1*
X34170Y19614D1*
X34294Y19599D1*
X34406Y19544D1*
X34493Y19456D1*
X34547Y19344D1*
X34562Y19239D1*
X34542Y19117D1*
X34482Y19008D1*
X34390Y18924D1*
X34276Y18875D1*
X34152Y18866D1*
X34031Y18898D1*
X33928Y18968D1*
X33854Y19068D1*
X33816Y19187D1*
X33818Y19253D1*
X33732Y19203D1*
X33609Y19186D1*
X33490Y19219D1*
X33393Y19298D1*
X33349Y19384D1*
X33341Y19358D1*
X33274Y19254D1*
X33172Y19183D1*
X33051Y19155D1*
X32928Y19175D1*
X32845Y19225D1*
X32371Y20138D2*
X32304Y20034D1*
X32202Y19963D1*
X32081Y19935D1*
X31958Y19955D1*
X31852Y20019D1*
X31794Y20097D1*
X31775Y19997D1*
X31715Y19888D1*
X31623Y19805D1*
X31508Y19756D1*
X31384Y19747D1*
X31264Y19779D1*
X31161Y19849D1*
X31087Y19949D1*
X31049Y20067D1*
X31052Y20192D1*
X31096Y20308D1*
X31175Y20404D1*
X31281Y20469D1*
X31403Y20495D1*
X31527Y20480D1*
X31638Y20425D1*
X31726Y20337D1*
X31748Y20291D1*
X31762Y20362D1*
X31823Y20471D1*
X31920Y20548D1*
X31953Y20558D1*
X31867Y20669D1*
X31851Y20733D1*
X31815Y20744D1*
X31709Y20809D1*
X31635Y20908D1*
X31603Y21028D1*
X31619Y21152D1*
X31680Y21260D1*
X31777Y21337D1*
X31833Y21354D1*
X31852Y21442D1*
X31913Y21551D1*
X32010Y21628D1*
X32129Y21664D1*
X32252Y21652D1*
X32363Y21594D1*
X32443Y21500D1*
X32482Y21382D1*
X32485Y21340D1*
X32461Y21218D1*
X32394Y21114D1*
X32346Y21081D1*
X32443Y20970D1*
X32482Y20852D1*
X32485Y20810D1*
X32461Y20688D1*
X32394Y20584D1*
X32280Y20510D1*
X32353Y20420D1*
X32392Y20302D1*
X32395Y20260D1*
X32371Y20138D1*
X33797Y22278D2*
X33726Y22177D1*
X33619Y22112D1*
X33497Y22095D1*
X33377Y22129D1*
X33281Y22207D1*
X33224Y22317D1*
X33215Y22441D1*
X33257Y22558D1*
X33342Y22649D1*
X33456Y22698D1*
X33580D1*
X33693Y22648D1*
X33778Y22558D1*
X33820Y22441D1*
X33822Y22399D1*
X33797Y22278D1*
X34782Y22667D2*
X34722Y22558D1*
X34630Y22474D1*
X34516Y22425D1*
X34392Y22416D1*
X34271Y22448D1*
X34168Y22518D1*
X34094Y22618D1*
X34056Y22737D1*
X34059Y22861D1*
X34103Y22977D1*
X34182Y23073D1*
X34289Y23138D1*
X34410Y23164D1*
X34534Y23149D1*
X34646Y23094D1*
X34733Y23006D1*
X34787Y22894D1*
X34802Y22789D1*
X34782Y22667D1*
X36912Y21757D2*
X36852Y21648D1*
X36760Y21564D1*
X36646Y21515D1*
X36522Y21506D1*
X36401Y21538D1*
X36298Y21608D1*
X36224Y21708D1*
X36186Y21827D1*
X36189Y21951D1*
X36233Y22067D1*
X36312Y22163D1*
X36419Y22228D1*
X36540Y22254D1*
X36664Y22239D1*
X36776Y22184D1*
X36863Y22096D1*
X36917Y21984D1*
X36932Y21879D1*
X36912Y21757D1*
X36902Y19877D2*
X36842Y19768D1*
X36750Y19684D1*
X36636Y19635D1*
X36512Y19626D1*
X36391Y19658D1*
X36288Y19728D1*
X36214Y19828D1*
X36176Y19947D1*
X36179Y20071D1*
X36223Y20187D1*
X36302Y20283D1*
X36409Y20348D1*
X36530Y20374D1*
X36654Y20359D1*
X36766Y20304D1*
X36853Y20216D1*
X36907Y20104D1*
X36922Y19999D1*
X36902Y19877D1*
X32515Y16133D2*
X32426Y16095D1*
X32302Y16086D1*
X32181Y16118D1*
X32078Y16188D1*
X32004Y16288D1*
X31966Y16407D1*
X31969Y16531D1*
X32009Y16637D1*
X31966Y16767D1*
X31969Y16891D1*
X32013Y17007D1*
X32092Y17103D1*
X32199Y17168D1*
X32320Y17194D1*
X32444Y17179D1*
X32524Y17140D1*
X32559Y17158D1*
X32680Y17184D1*
X32804Y17169D1*
X32891Y17126D1*
X32969Y17168D1*
X33090Y17194D1*
X33214Y17179D1*
X33326Y17124D1*
X33413Y17036D1*
X33467Y16924D1*
X33482Y16819D1*
X33462Y16697D1*
X33434Y16646D1*
X33467Y16564D1*
X33482Y16459D1*
X33462Y16337D1*
X33402Y16228D1*
X33310Y16144D1*
X33196Y16095D1*
X33072Y16086D1*
X32951Y16118D1*
X32910Y16147D1*
X32786Y16095D1*
X32662Y16086D1*
X32541Y16118D1*
X32641Y16029D1*
X32763Y16055D1*
X32887Y16040D1*
X32998Y15985D1*
X33050Y15933D1*
X33085Y15964D1*
X33191Y16029D1*
X33313Y16055D1*
X33437Y16040D1*
X33548Y15985D1*
X33636Y15897D1*
X33690Y15785D1*
X33705Y15680D1*
X33685Y15557D1*
X33634Y15465D1*
X33690Y15355D1*
X33705Y15250D1*
X33685Y15127D1*
X33625Y15018D1*
X33533Y14935D1*
X33418Y14886D1*
X33294Y14877D1*
X33174Y14909D1*
X33059Y14995D1*
X32983Y14935D1*
X32868Y14886D1*
X32744Y14877D1*
X32624Y14909D1*
X32550Y14959D1*
X32515Y14898D1*
X32423Y14815D1*
X32308Y14766D1*
X32184Y14757D1*
X32064Y14789D1*
X31961Y14859D1*
X31887Y14959D1*
X31849Y15077D1*
X31852Y15202D1*
X31896Y15318D1*
X31975Y15414D1*
X32081Y15479D1*
X32203Y15505D1*
X32327Y15490D1*
X32447Y15427D1*
X32473Y15459D1*
X32447Y15509D1*
X32409Y15627D1*
X32412Y15752D1*
X32456Y15868D1*
X32535Y15964D1*
X32641Y16029D1*
X31012Y23407D2*
X30952Y23298D1*
X30860Y23214D1*
X30746Y23165D1*
X30622Y23156D1*
X30501Y23188D1*
X30398Y23258D1*
X30324Y23358D1*
X30286Y23477D1*
X30289Y23601D1*
X30333Y23717D1*
X30412Y23813D1*
X30519Y23878D1*
X30640Y23904D1*
X30764Y23889D1*
X30876Y23834D1*
X30963Y23746D1*
X31017Y23634D1*
X31032Y23529D1*
X31012Y23407D1*
X29933Y19793D2*
X29831Y19770D1*
X29708Y19790D1*
X29602Y19854D1*
X29528Y19954D1*
X29496Y20074D1*
X29512Y20197D1*
X29573Y20305D1*
X29670Y20383D1*
X29789Y20418D1*
X29913Y20406D1*
X30023Y20349D1*
X30104Y20255D1*
X30145Y20107D1*
X30290Y20144D1*
X30414Y20129D1*
X30526Y20074D1*
X30613Y19986D1*
X30667Y19874D1*
X30682Y19769D1*
X30662Y19647D1*
X30602Y19538D1*
X30510Y19454D1*
X30396Y19405D1*
X30272Y19396D1*
X30151Y19428D1*
X30048Y19498D1*
X29974Y19598D1*
X29936Y19717D1*
X29938Y19790D1*
X29303Y21144D2*
X29268Y21150D1*
X29162Y21214D1*
X29088Y21314D1*
X29056Y21434D1*
X29072Y21557D1*
X29133Y21665D1*
X29230Y21743D1*
X29349Y21778D1*
X29473Y21766D1*
X29583Y21709D1*
X29664Y21615D1*
X29703Y21497D1*
X29706Y21455D1*
X29690Y21375D1*
X29757Y21360D1*
X29868Y21305D1*
X29956Y21217D1*
X30010Y21105D1*
X30025Y21000D1*
X30005Y20877D1*
X29945Y20768D1*
X29853Y20685D1*
X29738Y20636D1*
X29614Y20627D1*
X29494Y20659D1*
X29391Y20729D1*
X29317Y20829D1*
X29279Y20947D1*
X29282Y21072D1*
X29308Y21141D1*
X29682Y22053D2*
X29614Y21949D1*
X29512Y21878D1*
X29391Y21850D1*
X29268Y21870D1*
X29162Y21934D1*
X29088Y22034D1*
X29056Y22154D1*
X29072Y22277D1*
X29133Y22385D1*
X29230Y22463D1*
X29349Y22498D1*
X29473Y22486D1*
X29583Y22429D1*
X29664Y22335D1*
X29703Y22217D1*
X29706Y22175D1*
X29682Y22053D1*
X30080Y23163D2*
X30009Y23062D1*
X29903Y22997D1*
X29780Y22980D1*
X29660Y23014D1*
X29564Y23092D1*
X29507Y23203D1*
X29498Y23326D1*
X29540Y23443D1*
X29625Y23534D1*
X29739Y23583D1*
X29863D1*
X29977Y23534D1*
X30061Y23443D1*
X30103Y23326D1*
X30106Y23285D1*
X30080Y23163D1*
X35595Y16022D2*
X35499Y15980D1*
X35375Y15971D1*
X35255Y16004D1*
X35152Y16074D1*
X35077Y16173D1*
X35039Y16292D1*
X35043Y16416D1*
X35086Y16533D1*
X35166Y16629D1*
X35272Y16693D1*
X35393Y16719D1*
X35517Y16704D1*
X35576Y16675D1*
X35632Y16703D1*
X35753Y16729D1*
X35877Y16714D1*
X35950Y16679D1*
X36002Y16703D1*
X36123Y16729D1*
X36247Y16714D1*
X36359Y16660D1*
X36447Y16572D1*
X36501Y16460D1*
X36516Y16355D1*
X36495Y16232D1*
X36435Y16123D1*
X36343Y16039D1*
X36229Y15990D1*
X36105Y15981D1*
X35985Y16014D1*
X35962Y16029D1*
X35859Y15990D1*
X35735Y15981D1*
X35605Y16020D1*
X35583Y15915D1*
X35707Y15900D1*
X35780Y15864D1*
X35831Y15889D1*
X35953Y15915D1*
X36077Y15900D1*
X36188Y15845D1*
X36276Y15757D1*
X36330Y15645D1*
X36345Y15540D1*
X36325Y15417D1*
X36265Y15308D1*
X36173Y15225D1*
X36058Y15176D1*
X35934Y15167D1*
X35814Y15199D1*
X35792Y15214D1*
X35688Y15176D1*
X35564Y15167D1*
X35444Y15199D1*
X35383Y15241D1*
X35248Y15176D1*
X35124Y15167D1*
X35004Y15199D1*
X34901Y15269D1*
X34827Y15369D1*
X34789Y15487D1*
X34792Y15612D1*
X34836Y15728D1*
X34915Y15824D1*
X35021Y15889D1*
X35143Y15915D1*
X35267Y15900D1*
X35381Y15842D1*
X35461Y15889D1*
X35583Y15915D1*
X30475Y17732D2*
X30415Y17623D1*
X30323Y17539D1*
X30209Y17490D1*
X30085Y17481D1*
X29965Y17514D1*
X29862Y17584D1*
X29787Y17683D1*
X29749Y17802D1*
X29753Y17926D1*
X29796Y18043D1*
X29876Y18139D1*
X29982Y18203D1*
X30103Y18229D1*
X30227Y18214D1*
X30339Y18160D1*
X30427Y18072D1*
X30481Y17960D1*
X30496Y17855D1*
X30475Y17732D1*
X34455Y13307D2*
X34397Y13202D1*
X34460Y13075D1*
X34475Y12970D1*
X34455Y12847D1*
X34380Y12725D1*
X34440Y12605D1*
X34455Y12500D1*
X34435Y12377D1*
X34375Y12268D1*
X34283Y12185D1*
X34168Y12136D1*
X34044Y12127D1*
X33924Y12159D1*
X33824Y12227D1*
X33698Y12166D1*
X33574Y12157D1*
X33454Y12189D1*
X33387Y12235D1*
X33238Y12166D1*
X33114Y12157D1*
X32994Y12189D1*
X32891Y12259D1*
X32817Y12359D1*
X32779Y12477D1*
X32782Y12602D1*
X32826Y12718D1*
X32853Y12751D1*
X32827Y12799D1*
X32789Y12917D1*
X32792Y13042D1*
X32836Y13158D1*
X32863Y13191D1*
X32807Y13269D1*
X32769Y13387D1*
X32772Y13512D1*
X32816Y13628D1*
X32895Y13724D1*
X33001Y13789D1*
X33123Y13815D1*
X33247Y13800D1*
X33358Y13745D1*
X33378Y13726D1*
X33481Y13789D1*
X33603Y13815D1*
X33727Y13800D1*
X33838Y13745D1*
X33863Y13720D1*
X33961Y13779D1*
X34083Y13805D1*
X34207Y13790D1*
X34318Y13735D1*
X34406Y13647D1*
X34460Y13535D1*
X34475Y13430D1*
X34455Y13307D1*
X32899Y11243D2*
X32882Y11233D1*
X32759Y11216D1*
X32640Y11249D1*
X32543Y11328D1*
X32486Y11438D1*
X32478Y11562D1*
X32520Y11679D1*
X32604Y11769D1*
X32718Y11819D1*
X32842D1*
X32931Y11780D1*
X33069Y11824D1*
X33192Y11812D1*
X33303Y11754D1*
X33355Y11692D1*
X33434Y11769D1*
X33548Y11819D1*
X33672D1*
X33786Y11769D1*
X33871Y11678D1*
X33912Y11561D1*
X33914Y11516D1*
X34051Y11609D1*
X34173Y11635D1*
X34297Y11620D1*
X34408Y11565D1*
X34496Y11477D1*
X34550Y11365D1*
X34565Y11260D1*
X34545Y11137D1*
X34485Y11028D1*
X34393Y10945D1*
X34278Y10896D1*
X34154Y10887D1*
X34034Y10919D1*
X33931Y10989D1*
X33857Y11089D1*
X33819Y11207D1*
X33821Y11297D1*
X33712Y11233D1*
X33589Y11216D1*
X33470Y11249D1*
X33377Y11325D1*
X33334Y11274D1*
X33232Y11203D1*
X33111Y11175D1*
X32988Y11195D1*
X32905Y11245D1*
X32411Y12238D2*
X32344Y12134D1*
X32242Y12063D1*
X32121Y12035D1*
X31998Y12055D1*
X31892Y12119D1*
X31875Y12141D1*
X31855Y11997D1*
X31795Y11888D1*
X31703Y11805D1*
X31588Y11756D1*
X31464Y11747D1*
X31344Y11779D1*
X31241Y11849D1*
X31167Y11949D1*
X31129Y12067D1*
X31132Y12192D1*
X31176Y12308D1*
X31255Y12404D1*
X31361Y12469D1*
X31483Y12495D1*
X31607Y12480D1*
X31718Y12425D1*
X31787Y12356D1*
X31802Y12462D1*
X31863Y12571D1*
X31926Y12622D1*
X31872Y12699D1*
X31862Y12740D1*
X31778Y12760D1*
X31672Y12824D1*
X31597Y12924D1*
X31566Y13044D1*
X31582Y13167D1*
X31643Y13276D1*
X31740Y13353D1*
X31857Y13392D1*
X31918Y13501D1*
X32015Y13578D1*
X32134Y13614D1*
X32257Y13602D1*
X32368Y13544D1*
X32448Y13450D1*
X32487Y13332D1*
X32490Y13290D1*
X32466Y13168D1*
X32401Y13067D1*
X32448Y13000D1*
X32487Y12882D1*
X32490Y12840D1*
X32466Y12718D1*
X32399Y12614D1*
X32351Y12581D1*
X32393Y12520D1*
X32432Y12402D1*
X32435Y12360D1*
X32411Y12238D1*
X33810Y14289D2*
X33738Y14187D1*
X33632Y14123D1*
X33509Y14106D1*
X33390Y14139D1*
X33293Y14218D1*
X33236Y14328D1*
X33228Y14452D1*
X33270Y14569D1*
X33354Y14659D1*
X33468Y14709D1*
X33592D1*
X33706Y14659D1*
X33791Y14568D1*
X33832Y14451D1*
X33835Y14410D1*
X33810Y14289D1*
X34785Y14687D2*
X34725Y14578D1*
X34633Y14495D1*
X34518Y14446D1*
X34394Y14437D1*
X34274Y14469D1*
X34171Y14539D1*
X34097Y14639D1*
X34059Y14757D1*
X34062Y14882D1*
X34106Y14998D1*
X34185Y15094D1*
X34291Y15159D1*
X34413Y15185D1*
X34537Y15170D1*
X34648Y15115D1*
X34736Y15027D1*
X34790Y14915D1*
X34805Y14810D1*
X34785Y14687D1*
X36915Y13777D2*
X36855Y13668D1*
X36763Y13585D1*
X36648Y13536D1*
X36524Y13527D1*
X36404Y13559D1*
X36301Y13629D1*
X36227Y13729D1*
X36189Y13847D1*
X36192Y13972D1*
X36236Y14088D1*
X36315Y14184D1*
X36421Y14249D1*
X36543Y14275D1*
X36667Y14260D1*
X36778Y14205D1*
X36866Y14117D1*
X36920Y14005D1*
X36935Y13900D1*
X36915Y13777D1*
X36905Y11897D2*
X36845Y11788D1*
X36753Y11705D1*
X36638Y11656D1*
X36514Y11647D1*
X36394Y11679D1*
X36291Y11749D1*
X36217Y11849D1*
X36179Y11967D1*
X36182Y12092D1*
X36226Y12208D1*
X36305Y12304D1*
X36411Y12369D1*
X36533Y12395D1*
X36657Y12380D1*
X36768Y12325D1*
X36856Y12237D1*
X36910Y12125D1*
X36925Y12020D1*
X36905Y11897D1*
X32518Y8154D2*
X32428Y8116D1*
X32304Y8107D1*
X32184Y8139D1*
X32081Y8209D1*
X32007Y8309D1*
X31969Y8427D1*
X31972Y8552D1*
X32012Y8657D1*
X31969Y8787D1*
X31972Y8912D1*
X32016Y9028D1*
X32095Y9124D1*
X32201Y9189D1*
X32323Y9215D1*
X32447Y9200D1*
X32527Y9161D1*
X32561Y9179D1*
X32683Y9205D1*
X32807Y9190D1*
X32894Y9147D1*
X32971Y9189D1*
X33093Y9215D1*
X33217Y9200D1*
X33328Y9145D1*
X33416Y9057D1*
X33470Y8945D1*
X33485Y8840D1*
X33465Y8717D1*
X33437Y8666D1*
X33470Y8585D1*
X33485Y8480D1*
X33465Y8357D1*
X33405Y8248D1*
X33313Y8165D1*
X33198Y8116D1*
X33074Y8107D1*
X32954Y8139D1*
X32912Y8168D1*
X32788Y8116D1*
X32664Y8107D1*
X32544Y8139D1*
X32522Y8154D1*
X31015Y15427D2*
X30955Y15318D1*
X30863Y15235D1*
X30748Y15186D1*
X30624Y15177D1*
X30504Y15209D1*
X30401Y15279D1*
X30327Y15379D1*
X30289Y15497D1*
X30292Y15622D1*
X30336Y15738D1*
X30415Y15834D1*
X30521Y15899D1*
X30643Y15925D1*
X30767Y15910D1*
X30878Y15855D1*
X30966Y15767D1*
X31020Y15655D1*
X31035Y15550D1*
X31015Y15427D1*
X29936Y11814D2*
X29834Y11791D1*
X29711Y11810D1*
X29605Y11875D1*
X29531Y11974D1*
X29499Y12094D1*
X29515Y12218D1*
X29576Y12326D1*
X29673Y12403D1*
X29792Y12439D1*
X29916Y12427D1*
X30026Y12370D1*
X30106Y12275D1*
X30148Y12127D1*
X30293Y12165D1*
X30417Y12150D1*
X30528Y12095D1*
X30616Y12007D1*
X30670Y11895D1*
X30685Y11790D1*
X30665Y11667D1*
X30605Y11558D1*
X30513Y11475D1*
X30398Y11426D1*
X30274Y11417D1*
X30154Y11449D1*
X30051Y11519D1*
X29977Y11619D1*
X29939Y11737D1*
X29941Y11811D1*
X29298Y13166D2*
X29271Y13170D1*
X29165Y13235D1*
X29091Y13334D1*
X29059Y13454D1*
X29075Y13578D1*
X29136Y13686D1*
X29233Y13763D1*
X29352Y13799D1*
X29476Y13787D1*
X29586Y13730D1*
X29666Y13635D1*
X29706Y13517D1*
X29708Y13475D1*
X29690Y13380D1*
X29747Y13370D1*
X29858Y13315D1*
X29946Y13227D1*
X30000Y13115D1*
X30015Y13010D1*
X29995Y12887D1*
X29935Y12778D1*
X29843Y12695D1*
X29728Y12646D1*
X29604Y12637D1*
X29484Y12669D1*
X29381Y12739D1*
X29307Y12839D1*
X29269Y12957D1*
X29272Y13082D1*
X29301Y13158D1*
X29685Y14073D2*
X29617Y13969D1*
X29515Y13898D1*
X29394Y13871D1*
X29271Y13890D1*
X29165Y13955D1*
X29091Y14054D1*
X29059Y14174D1*
X29075Y14298D1*
X29136Y14406D1*
X29233Y14483D1*
X29352Y14519D1*
X29476Y14507D1*
X29586Y14450D1*
X29666Y14355D1*
X29706Y14237D1*
X29708Y14195D1*
X29685Y14073D1*
X30083Y15184D2*
X30012Y15083D1*
X29905Y15018D1*
X29782Y15001D1*
X29663Y15035D1*
X29567Y15113D1*
X29510Y15223D1*
X29501Y15347D1*
X29543Y15464D1*
X29628Y15555D1*
X29742Y15604D1*
X29866D1*
X29979Y15554D1*
X30064Y15464D1*
X30106Y15347D1*
X30108Y15305D1*
X30083Y15184D1*
X35598Y8042D2*
X35502Y8001D1*
X35377Y7992D1*
X35257Y8024D1*
X35154Y8094D1*
X35080Y8194D1*
X35042Y8313D1*
X35045Y8437D1*
X35089Y8553D1*
X35168Y8649D1*
X35275Y8714D1*
X35396Y8740D1*
X35520Y8725D1*
X35579Y8696D1*
X35635Y8724D1*
X35756Y8750D1*
X35880Y8735D1*
X35953Y8699D1*
X36005Y8724D1*
X36126Y8750D1*
X36250Y8735D1*
X36362Y8680D1*
X36449Y8592D1*
X36503Y8480D1*
X36518Y8375D1*
X36498Y8253D1*
X36438Y8144D1*
X36346Y8060D1*
X36232Y8011D1*
X36107Y8002D1*
X35987Y8034D1*
X35965Y8050D1*
X35862Y8011D1*
X35737Y8002D1*
X35608Y8041D1*
X30478Y9753D2*
X30418Y9644D1*
X30326Y9560D1*
X30212Y9511D1*
X30087Y9502D1*
X29967Y9534D1*
X29864Y9604D1*
X29790Y9704D1*
X29752Y9823D1*
X29755Y9947D1*
X29799Y10063D1*
X29878Y10159D1*
X29985Y10224D1*
X30106Y10250D1*
X30230Y10235D1*
X30342Y10180D1*
X30429Y10092D1*
X30483Y9980D1*
X30498Y9875D1*
X30478Y9753D1*
X26803Y37948D2*
X26741Y37840D1*
X26645Y37761D1*
X26528Y37720D1*
X26403Y37722D1*
X26287Y37766D1*
X26193Y37848D1*
X26134Y37957D1*
X26115Y38080D1*
X26140Y38202D1*
X26206Y38307D1*
X26304Y38384D1*
X26422Y38422D1*
X26547Y38417D1*
X26662Y38369D1*
X26753Y38285D1*
X26810Y38174D1*
X26825Y38070D1*
X26803Y37948D1*
X23920Y34067D2*
X23888Y34009D1*
X23925Y33920D1*
X23940Y33815D1*
X23920Y33692D1*
X23860Y33583D1*
X23768Y33500D1*
X23653Y33451D1*
X23529Y33442D1*
X23409Y33474D1*
X23306Y33544D1*
X23232Y33644D1*
X23194Y33762D1*
X23197Y33887D1*
X23239Y33999D1*
X23194Y34137D1*
X23197Y34262D1*
X23239Y34374D1*
X23194Y34512D1*
X23197Y34637D1*
X23241Y34753D1*
X23320Y34849D1*
X23426Y34914D1*
X23548Y34940D1*
X23672Y34925D1*
X23783Y34870D1*
X23871Y34782D1*
X23925Y34670D1*
X23940Y34565D1*
X23920Y34442D1*
X23888Y34384D1*
X23925Y34295D1*
X23940Y34190D1*
X23920Y34067D1*
X24870D2*
X24838Y34009D1*
X24875Y33920D1*
X24890Y33815D1*
X24870Y33692D1*
X24810Y33583D1*
X24718Y33500D1*
X24603Y33451D1*
X24479Y33442D1*
X24359Y33474D1*
X24256Y33544D1*
X24182Y33644D1*
X24144Y33762D1*
X24147Y33887D1*
X24189Y33999D1*
X24144Y34137D1*
X24147Y34262D1*
X24189Y34374D1*
X24144Y34512D1*
X24147Y34637D1*
X24191Y34753D1*
X24270Y34849D1*
X24376Y34914D1*
X24498Y34940D1*
X24622Y34925D1*
X24733Y34870D1*
X24821Y34782D1*
X24875Y34670D1*
X24890Y34565D1*
X24870Y34442D1*
X24838Y34384D1*
X24875Y34295D1*
X24890Y34190D1*
X24870Y34067D1*
X25920Y37267D2*
X25860Y37158D1*
X25768Y37075D1*
X25653Y37026D1*
X25529Y37017D1*
X25409Y37049D1*
X25306Y37119D1*
X25232Y37219D1*
X25194Y37337D1*
X25197Y37462D1*
X25241Y37578D1*
X25320Y37674D1*
X25426Y37739D1*
X25548Y37765D1*
X25672Y37750D1*
X25783Y37695D1*
X25871Y37607D1*
X25925Y37495D1*
X25940Y37390D1*
X25920Y37267D1*
X23373Y9898D2*
X23311Y9790D1*
X23215Y9711D1*
X23098Y9670D1*
X22973Y9672D1*
X22857Y9716D1*
X22763Y9798D1*
X22704Y9907D1*
X22685Y10030D1*
X22710Y10152D1*
X22776Y10257D1*
X22874Y10334D1*
X22992Y10372D1*
X23117Y10367D1*
X23232Y10319D1*
X23323Y10235D1*
X23380Y10124D1*
X23395Y10020D1*
X23373Y9898D1*
X25773Y9843D2*
X25711Y9735D1*
X25615Y9656D1*
X25498Y9615D1*
X25373Y9617D1*
X25257Y9661D1*
X25163Y9743D1*
X25104Y9852D1*
X25087Y9963D1*
X25070Y9887D1*
X25010Y9778D1*
X24918Y9695D1*
X24803Y9646D1*
X24679Y9637D1*
X24559Y9669D1*
X24456Y9739D1*
X24382Y9839D1*
X24344Y9957D1*
X24347Y10082D1*
X24391Y10198D1*
X24470Y10294D1*
X24576Y10359D1*
X24698Y10385D1*
X24822Y10370D1*
X24933Y10315D1*
X25021Y10227D1*
X25075Y10115D1*
X25089Y10020D1*
X25110Y10097D1*
X25176Y10202D1*
X25274Y10279D1*
X25392Y10317D1*
X25517Y10312D1*
X25632Y10264D1*
X25723Y10180D1*
X25780Y10069D1*
X25795Y9965D1*
X25773Y9843D1*
X5715Y14907D2*
X5655Y14798D1*
X5563Y14715D1*
X5448Y14666D1*
X5324Y14657D1*
X5204Y14689D1*
X5101Y14759D1*
X5027Y14859D1*
X4989Y14977D1*
X4992Y15102D1*
X5036Y15218D1*
X5115Y15314D1*
X5221Y15379D1*
X5343Y15405D1*
X5467Y15390D1*
X5578Y15335D1*
X5666Y15247D1*
X5720Y15135D1*
X5735Y15030D1*
X5715Y14907D1*
X5815Y14137D2*
X5755Y14028D1*
X5663Y13945D1*
X5548Y13896D1*
X5424Y13887D1*
X5304Y13919D1*
X5201Y13989D1*
X5127Y14089D1*
X5089Y14207D1*
X5092Y14332D1*
X5136Y14448D1*
X5215Y14544D1*
X5321Y14609D1*
X5443Y14635D1*
X5567Y14620D1*
X5678Y14565D1*
X5766Y14477D1*
X5820Y14365D1*
X5835Y14260D1*
X5815Y14137D1*
X19783Y16518D2*
X19721Y16410D1*
X19625Y16331D1*
X19508Y16290D1*
X19434Y16291D1*
X19413Y16228D1*
X19351Y16120D1*
X19255Y16041D1*
X19138Y16000D1*
X19013Y16002D1*
X18897Y16046D1*
X18803Y16128D1*
X18744Y16237D1*
X18725Y16360D1*
X18750Y16482D1*
X18816Y16587D1*
X18914Y16664D1*
X19032Y16702D1*
X19098Y16699D1*
X19120Y16772D1*
X19186Y16877D1*
X19284Y16954D1*
X19402Y16992D1*
X19527Y16987D1*
X19642Y16939D1*
X19733Y16855D1*
X19790Y16744D1*
X19805Y16640D1*
X19783Y16518D1*
X15525Y17037D2*
X15465Y16928D1*
X15373Y16845D1*
X15258Y16796D1*
X15134Y16787D1*
X15014Y16819D1*
X14911Y16889D1*
X14837Y16989D1*
X14799Y17107D1*
X14802Y17232D1*
X14846Y17348D1*
X14925Y17444D1*
X15031Y17509D1*
X15153Y17535D1*
X15277Y17520D1*
X15388Y17465D1*
X15476Y17377D1*
X15530Y17265D1*
X15545Y17160D1*
X15525Y17037D1*
X18625Y17077D2*
X18565Y16968D1*
X18473Y16885D1*
X18358Y16836D1*
X18234Y16827D1*
X18114Y16859D1*
X18011Y16929D1*
X17937Y17029D1*
X17899Y17147D1*
X17902Y17272D1*
X17946Y17388D1*
X18025Y17484D1*
X18131Y17549D1*
X18253Y17575D1*
X18377Y17560D1*
X18488Y17505D1*
X18576Y17417D1*
X18630Y17305D1*
X18645Y17200D1*
X18625Y17077D1*
X12295Y16892D2*
X12235Y16783D1*
X12143Y16700D1*
X12028Y16651D1*
X11904Y16642D1*
X11784Y16674D1*
X11681Y16744D1*
X11607Y16844D1*
X11569Y16962D1*
X11572Y17087D1*
X11616Y17203D1*
X11695Y17299D1*
X11801Y17364D1*
X11923Y17390D1*
X12047Y17375D1*
X12158Y17320D1*
X12246Y17232D1*
X12300Y17120D1*
X12315Y17015D1*
X12295Y16892D1*
X24895Y29292D2*
X24855Y29221D1*
X24900Y29120D1*
X24915Y29015D1*
X24895Y28892D1*
X24832Y28781D1*
X24900Y28645D1*
X24915Y28540D1*
X24895Y28417D1*
X24835Y28308D1*
X24743Y28225D1*
X24628Y28176D1*
X24504Y28167D1*
X24384Y28199D1*
X24281Y28269D1*
X24207Y28369D1*
X24169Y28487D1*
X24172Y28612D1*
X24216Y28728D1*
X24253Y28773D1*
X24207Y28844D1*
X24169Y28962D1*
X24172Y29087D1*
X24223Y29212D1*
X24169Y29362D1*
X24172Y29487D1*
X24216Y29603D1*
X24295Y29699D1*
X24401Y29764D1*
X24523Y29790D1*
X24647Y29775D1*
X24758Y29720D1*
X24846Y29632D1*
X24900Y29520D1*
X24915Y29415D1*
X24895Y29292D1*
X23920D2*
X23880Y29221D1*
X23925Y29120D1*
X23940Y29015D1*
X23920Y28892D1*
X23857Y28781D1*
X23925Y28645D1*
X23940Y28540D1*
X23920Y28417D1*
X23860Y28308D1*
X23768Y28225D1*
X23653Y28176D1*
X23529Y28167D1*
X23409Y28199D1*
X23306Y28269D1*
X23232Y28369D1*
X23194Y28487D1*
X23197Y28612D1*
X23241Y28728D1*
X23278Y28773D1*
X23232Y28844D1*
X23194Y28962D1*
X23197Y29087D1*
X23248Y29212D1*
X23194Y29362D1*
X23197Y29487D1*
X23241Y29603D1*
X23320Y29699D1*
X23426Y29764D1*
X23548Y29790D1*
X23672Y29775D1*
X23783Y29720D1*
X23871Y29632D1*
X23925Y29520D1*
X23940Y29415D1*
X23920Y29292D1*
X25795Y32117D2*
X25735Y32008D1*
X25643Y31925D1*
X25528Y31876D1*
X25404Y31867D1*
X25284Y31899D1*
X25181Y31969D1*
X25107Y32069D1*
X25069Y32187D1*
X25072Y32312D1*
X25116Y32428D1*
X25195Y32524D1*
X25301Y32589D1*
X25423Y32615D1*
X25547Y32600D1*
X25658Y32545D1*
X25746Y32457D1*
X25800Y32345D1*
X25815Y32240D1*
X25795Y32117D1*
X14695Y7902D2*
X14635Y7793D1*
X14543Y7710D1*
X14428Y7661D1*
X14304Y7652D1*
X14184Y7684D1*
X14081Y7754D1*
X14007Y7854D1*
X13969Y7972D1*
X13972Y8097D1*
X14016Y8213D1*
X14095Y8309D1*
X14201Y8374D1*
X14323Y8400D1*
X14447Y8385D1*
X14558Y8330D1*
X14646Y8242D1*
X14700Y8130D1*
X14715Y8025D1*
X14695Y7902D1*
X17220Y7877D2*
X17160Y7768D1*
X17068Y7685D1*
X16953Y7636D1*
X16829Y7627D1*
X16709Y7659D1*
X16606Y7729D1*
X16532Y7829D1*
X16494Y7947D1*
X16497Y8072D1*
X16541Y8188D1*
X16620Y8284D1*
X16726Y8349D1*
X16848Y8375D1*
X16972Y8360D1*
X17083Y8305D1*
X17171Y8217D1*
X17225Y8105D1*
X17240Y8000D1*
X17220Y7877D1*
X9935Y22527D2*
X9875Y22418D1*
X9783Y22335D1*
X9668Y22286D1*
X9544Y22277D1*
X9424Y22309D1*
X9321Y22379D1*
X9247Y22479D1*
X9209Y22597D1*
X9212Y22722D1*
X9256Y22838D1*
X9335Y22934D1*
X9441Y22999D1*
X9563Y23025D1*
X9687Y23010D1*
X9798Y22955D1*
X9886Y22867D1*
X9940Y22755D1*
X9955Y22650D1*
X9935Y22527D1*
X6620Y19167D2*
X6560Y19058D1*
X6468Y18975D1*
X6353Y18926D1*
X6229Y18917D1*
X6109Y18949D1*
X6006Y19019D1*
X5932Y19119D1*
X5894Y19237D1*
X5897Y19362D1*
X5941Y19478D1*
X6020Y19574D1*
X6126Y19639D1*
X6248Y19665D1*
X6372Y19650D1*
X6483Y19595D1*
X6571Y19507D1*
X6625Y19395D1*
X6640Y19290D1*
X6620Y19167D1*
X27395Y9867D2*
X27335Y9758D1*
X27243Y9675D1*
X27128Y9626D1*
X27004Y9617D1*
X26884Y9649D1*
X26781Y9719D1*
X26707Y9819D1*
X26669Y9937D1*
X26672Y10062D1*
X26716Y10178D1*
X26795Y10274D1*
X26901Y10339D1*
X27023Y10365D1*
X27147Y10350D1*
X27258Y10295D1*
X27346Y10207D1*
X27400Y10095D1*
X27415Y9990D1*
X27395Y9867D1*
X11395Y7542D2*
X11335Y7433D1*
X11243Y7350D1*
X11128Y7301D1*
X11004Y7292D1*
X10884Y7324D1*
X10781Y7394D1*
X10707Y7494D1*
X10669Y7612D1*
X10672Y7737D1*
X10716Y7853D1*
X10795Y7949D1*
X10901Y8014D1*
X11023Y8040D1*
X11147Y8025D1*
X11258Y7970D1*
X11346Y7882D1*
X11400Y7770D1*
X11415Y7665D1*
X11395Y7542D1*
X12570Y7892D2*
X12510Y7783D1*
X12418Y7700D1*
X12303Y7651D1*
X12179Y7642D1*
X12059Y7674D1*
X11956Y7744D1*
X11882Y7844D1*
X11844Y7962D1*
X11847Y8087D1*
X11891Y8203D1*
X11970Y8299D1*
X12076Y8364D1*
X12198Y8390D1*
X12322Y8375D1*
X12433Y8320D1*
X12521Y8232D1*
X12575Y8120D1*
X12590Y8015D1*
X12570Y7892D1*
X13595Y7917D2*
X13535Y7808D1*
X13443Y7725D1*
X13328Y7676D1*
X13204Y7667D1*
X13084Y7699D1*
X12981Y7769D1*
X12907Y7869D1*
X12869Y7987D1*
X12872Y8112D1*
X12916Y8228D1*
X12995Y8324D1*
X13101Y8389D1*
X13223Y8415D1*
X13347Y8400D1*
X13458Y8345D1*
X13546Y8257D1*
X13600Y8145D1*
X13615Y8040D1*
X13595Y7917D1*
X10970Y32367D2*
X10910Y32258D1*
X10861Y32214D1*
X10946Y32132D1*
X11000Y32020D1*
X11015Y31915D1*
X10995Y31792D1*
X10935Y31683D1*
X10892Y31644D1*
X10946Y31582D1*
X11000Y31470D1*
X11015Y31365D1*
X10995Y31242D1*
X10935Y31133D1*
X10843Y31050D1*
X10728Y31001D1*
X10604Y30992D1*
X10484Y31024D1*
X10381Y31094D1*
X10307Y31194D1*
X10269Y31312D1*
X10272Y31437D1*
X10316Y31553D1*
X10388Y31640D1*
X10307Y31744D1*
X10269Y31862D1*
X10272Y31987D1*
X10316Y32103D1*
X10388Y32190D1*
X10282Y32319D1*
X10244Y32437D1*
X10247Y32562D1*
X10291Y32678D1*
X10370Y32774D1*
X10476Y32839D1*
X10598Y32865D1*
X10722Y32850D1*
X10833Y32795D1*
X10921Y32707D1*
X10975Y32595D1*
X10990Y32490D1*
X10970Y32367D1*
X10238Y35368D2*
X10218Y35350D1*
X10103Y35301D1*
X9979Y35292D1*
X9859Y35324D1*
X9817Y35353D1*
X9703Y35301D1*
X9579Y35292D1*
X9459Y35324D1*
X9356Y35394D1*
X9282Y35494D1*
X9244Y35612D1*
X9247Y35737D1*
X9291Y35853D1*
X9370Y35949D1*
X9476Y36014D1*
X9598Y36040D1*
X9722Y36025D1*
X9809Y35982D1*
X9876Y36014D1*
X9998Y36040D1*
X10122Y36025D1*
X10242Y35962D1*
X10326Y36014D1*
X10448Y36040D1*
X10572Y36025D1*
X10683Y35970D1*
X10771Y35882D1*
X10825Y35770D1*
X10840Y35665D1*
X10820Y35542D1*
X10760Y35433D1*
X10668Y35350D1*
X10553Y35301D1*
X10429Y35292D1*
X10309Y35324D1*
X10242Y35370D1*
X24865Y10707D2*
X24805Y10598D1*
X24713Y10515D1*
X24598Y10466D1*
X24474Y10457D1*
X24354Y10489D1*
X24251Y10559D1*
X24177Y10659D1*
X24139Y10777D1*
X24142Y10902D1*
X24186Y11018D1*
X24265Y11114D1*
X24371Y11179D1*
X24493Y11205D1*
X24617Y11190D1*
X24728Y11135D1*
X24816Y11047D1*
X24870Y10935D1*
X24885Y10830D1*
X24865Y10707D1*
X9155Y17987D2*
X9095Y17878D1*
X9003Y17795D1*
X8888Y17746D1*
X8764Y17737D1*
X8644Y17769D1*
X8541Y17839D1*
X8467Y17939D1*
X8429Y18057D1*
X8432Y18182D1*
X8476Y18298D1*
X8555Y18394D1*
X8661Y18459D1*
X8783Y18485D1*
X8907Y18470D1*
X9018Y18415D1*
X9106Y18327D1*
X9160Y18215D1*
X9175Y18110D1*
X9155Y17987D1*
X20335Y17497D2*
X20275Y17388D1*
X20183Y17305D1*
X20068Y17256D1*
X19944Y17247D1*
X19824Y17279D1*
X19721Y17349D1*
X19647Y17449D1*
X19609Y17567D1*
X19612Y17692D1*
X19656Y17808D1*
X19735Y17904D1*
X19841Y17969D1*
X19963Y17995D1*
X20087Y17980D1*
X20198Y17925D1*
X20286Y17837D1*
X20340Y17725D1*
X20355Y17620D1*
X20335Y17497D1*
X26375Y23707D2*
X26315Y23598D1*
X26223Y23515D1*
X26108Y23466D1*
X25984Y23457D1*
X25864Y23489D1*
X25761Y23559D1*
X25687Y23659D1*
X25649Y23777D1*
X25652Y23902D1*
X25696Y24018D1*
X25775Y24114D1*
X25881Y24179D1*
X26003Y24205D1*
X26127Y24190D1*
X26238Y24135D1*
X26326Y24047D1*
X26380Y23935D1*
X26395Y23830D1*
X26375Y23707D1*
X31595Y14847D2*
X31535Y14738D1*
X31443Y14655D1*
X31328Y14606D1*
X31204Y14597D1*
X31084Y14629D1*
X30981Y14699D1*
X30907Y14799D1*
X30869Y14917D1*
X30872Y15042D1*
X30916Y15158D1*
X30995Y15254D1*
X31101Y15319D1*
X31223Y15345D1*
X31347Y15330D1*
X31458Y15275D1*
X31546Y15187D1*
X31600Y15075D1*
X31615Y14970D1*
X31595Y14847D1*
X31585Y22717D2*
X31525Y22608D1*
X31433Y22525D1*
X31318Y22476D1*
X31194Y22467D1*
X31074Y22499D1*
X30971Y22569D1*
X30897Y22669D1*
X30859Y22787D1*
X30862Y22912D1*
X30906Y23028D1*
X30985Y23124D1*
X31091Y23189D1*
X31213Y23215D1*
X31337Y23200D1*
X31448Y23145D1*
X31536Y23057D1*
X31590Y22945D1*
X31605Y22840D1*
X31585Y22717D1*
X34545Y16357D2*
X34485Y16248D1*
X34393Y16165D1*
X34278Y16116D1*
X34154Y16107D1*
X34034Y16139D1*
X33931Y16209D1*
X33857Y16309D1*
X33819Y16427D1*
X33822Y16552D1*
X33866Y16668D1*
X33945Y16764D1*
X34051Y16829D1*
X34173Y16855D1*
X34297Y16840D1*
X34408Y16785D1*
X34496Y16697D1*
X34550Y16585D1*
X34565Y16480D1*
X34545Y16357D1*
X34505Y17947D2*
X34445Y17838D1*
X34353Y17755D1*
X34238Y17706D1*
X34114Y17697D1*
X33994Y17729D1*
X33891Y17799D1*
X33817Y17899D1*
X33779Y18017D1*
X33782Y18142D1*
X33826Y18258D1*
X33905Y18354D1*
X34011Y18419D1*
X34133Y18445D1*
X34257Y18430D1*
X34368Y18375D1*
X34456Y18287D1*
X34510Y18175D1*
X34525Y18070D1*
X34505Y17947D1*
X34755Y24407D2*
X34695Y24298D1*
X34603Y24215D1*
X34488Y24166D1*
X34364Y24157D1*
X34244Y24189D1*
X34141Y24259D1*
X34067Y24359D1*
X34029Y24477D1*
X34032Y24602D1*
X34076Y24718D1*
X34155Y24814D1*
X34261Y24879D1*
X34383Y24905D1*
X34507Y24890D1*
X34618Y24835D1*
X34706Y24747D1*
X34760Y24635D1*
X34775Y24530D1*
X34755Y24407D1*
X34685Y25897D2*
X34625Y25788D1*
X34533Y25705D1*
X34418Y25656D1*
X34294Y25647D1*
X34174Y25679D1*
X34071Y25749D1*
X33997Y25849D1*
X33959Y25967D1*
X33962Y26092D1*
X34006Y26208D1*
X34085Y26304D1*
X34191Y26369D1*
X34313Y26395D1*
X34437Y26380D1*
X34548Y26325D1*
X34636Y26237D1*
X34690Y26125D1*
X34705Y26020D1*
X34685Y25897D1*
X31635Y30677D2*
X31575Y30568D1*
X31483Y30485D1*
X31368Y30436D1*
X31244Y30427D1*
X31124Y30459D1*
X31021Y30529D1*
X30947Y30629D1*
X30909Y30747D1*
X30912Y30872D1*
X30956Y30988D1*
X31035Y31084D1*
X31141Y31149D1*
X31263Y31175D1*
X31387Y31160D1*
X31498Y31105D1*
X31586Y31017D1*
X31640Y30905D1*
X31655Y30800D1*
X31635Y30677D1*
X34645Y33917D2*
X34585Y33808D1*
X34493Y33725D1*
X34378Y33676D1*
X34254Y33667D1*
X34134Y33699D1*
X34031Y33769D1*
X33957Y33869D1*
X33919Y33987D1*
X33922Y34112D1*
X33966Y34228D1*
X34045Y34324D1*
X34151Y34389D1*
X34273Y34415D1*
X34397Y34400D1*
X34508Y34345D1*
X34596Y34257D1*
X34650Y34145D1*
X34665Y34040D1*
X34645Y33917D1*
X34695Y32417D2*
X34635Y32308D1*
X34543Y32225D1*
X34428Y32176D1*
X34304Y32167D1*
X34184Y32199D1*
X34081Y32269D1*
X34007Y32369D1*
X33969Y32487D1*
X33972Y32612D1*
X34016Y32728D1*
X34095Y32824D1*
X34201Y32889D1*
X34323Y32915D1*
X34447Y32900D1*
X34558Y32845D1*
X34646Y32757D1*
X34700Y32645D1*
X34715Y32540D1*
X34695Y32417D1*
X31655Y38787D2*
X31595Y38678D1*
X31503Y38595D1*
X31388Y38546D1*
X31264Y38537D1*
X31144Y38569D1*
X31041Y38639D1*
X30967Y38739D1*
X30929Y38857D1*
X30932Y38982D1*
X30976Y39098D1*
X31055Y39194D1*
X31161Y39259D1*
X31283Y39285D1*
X31407Y39270D1*
X31518Y39215D1*
X31606Y39127D1*
X31660Y39015D1*
X31675Y38910D1*
X31655Y38787D1*
X8733Y15468D2*
X8671Y15360D1*
X8575Y15281D1*
X8458Y15240D1*
X8333Y15242D1*
X8217Y15286D1*
X8123Y15368D1*
X8064Y15477D1*
X8045Y15600D1*
X8070Y15722D1*
X8136Y15827D1*
X8234Y15904D1*
X8352Y15942D1*
X8477Y15937D1*
X8592Y15889D1*
X8683Y15805D1*
X8740Y15694D1*
X8755Y15590D1*
X8733Y15468D1*
X27970Y26269D2*
X27954Y26246D1*
X27992Y26131D1*
X27995Y26090D1*
X27970Y25969D1*
X27945Y25934D1*
X27982Y25831D1*
X27985Y25790D1*
X27960Y25669D1*
X27888Y25567D1*
X27782Y25503D1*
X27659Y25486D1*
X27626Y25495D1*
X27600Y25409D1*
X27528Y25307D1*
X27465Y25269D1*
X27440Y25159D1*
X27368Y25057D1*
X27262Y24993D1*
X27139Y24976D1*
X27020Y25009D1*
X26923Y25088D1*
X26866Y25198D1*
X26858Y25322D1*
X26900Y25439D1*
X26984Y25529D1*
X27016Y25543D1*
X27018Y25572D1*
X27058Y25685D1*
X27036Y25738D1*
X27028Y25862D1*
X27070Y25979D1*
X27154Y26069D1*
X27268Y26119D1*
X27389D1*
X27426Y26238D1*
X27396Y26308D1*
X27388Y26432D1*
X27430Y26549D1*
X27514Y26639D1*
X27628Y26689D1*
X27752D1*
X27866Y26639D1*
X27951Y26548D1*
X27992Y26431D1*
X27995Y26390D1*
X27970Y26269D1*
X5694Y16877D2*
X5644Y16763D1*
X5564Y16667D1*
X5462Y16596D1*
X5343Y16557D1*
X5219Y16551D1*
X5098Y16579D1*
X4989Y16640D1*
X4901Y16728D1*
X4840Y16836D1*
X4811Y16958D1*
X4816Y17082D1*
X4856Y17200D1*
X4926Y17303D1*
X5022Y17383D1*
X5135Y17434D1*
X5259Y17451D1*
X5382Y17435D1*
X5496Y17385D1*
X5593Y17305D1*
X5663Y17203D1*
X5703Y17085D1*
X5711Y17000D1*
X5694Y16877D1*
X5924Y10447D2*
X5874Y10333D1*
X5794Y10237D1*
X5692Y10166D1*
X5573Y10127D1*
X5449Y10121D1*
X5328Y10149D1*
X5219Y10210D1*
X5131Y10298D1*
X5070Y10406D1*
X5041Y10528D1*
X5046Y10652D1*
X5086Y10770D1*
X5156Y10873D1*
X5252Y10953D1*
X5365Y11004D1*
X5489Y11021D1*
X5612Y11005D1*
X5726Y10955D1*
X5823Y10875D1*
X5893Y10773D1*
X5933Y10655D1*
X5941Y10570D1*
X5924Y10447D1*
X6935Y17387D2*
X6875Y17278D1*
X6783Y17195D1*
X6668Y17146D1*
X6544Y17137D1*
X6424Y17169D1*
X6321Y17239D1*
X6247Y17339D1*
X6209Y17457D1*
X6212Y17582D1*
X6256Y17698D1*
X6335Y17794D1*
X6441Y17859D1*
X6563Y17885D1*
X6687Y17870D1*
X6798Y17815D1*
X6886Y17727D1*
X6940Y17615D1*
X6955Y17510D1*
X6935Y17387D1*
X23899Y9049D2*
X23864Y9047D1*
X23744Y9079D1*
X23641Y9149D1*
X23567Y9249D1*
X23529Y9367D1*
X23532Y9492D1*
X23576Y9608D1*
X23638Y9683D1*
X28598Y23593D2*
X28536Y23485D1*
X28440Y23406D1*
X28323Y23365D1*
X28198Y23367D1*
X28082Y23411D1*
X27988Y23493D1*
X27929Y23602D1*
X27910Y23725D1*
X27935Y23847D1*
X27988Y23943D1*
X27929Y24052D1*
X27910Y24175D1*
X27935Y24297D1*
X28004Y24405D1*
X27988Y24418D1*
X27929Y24527D1*
X27910Y24650D1*
X27935Y24772D1*
X28010Y24885D1*
X27999Y24907D1*
X27980Y25030D1*
X28005Y25152D1*
X28071Y25257D1*
X28169Y25334D1*
X28287Y25372D1*
X28412Y25367D1*
X28527Y25319D1*
X28618Y25235D1*
X28675Y25124D1*
X28690Y25020D1*
X28668Y24898D1*
X28591Y24778D1*
X28605Y24744D1*
X28620Y24640D1*
X28598Y24518D1*
X28527Y24403D1*
X28548Y24380D1*
X28605Y24269D1*
X28620Y24165D1*
X28598Y24043D1*
X28538Y23939D1*
X28605Y23819D1*
X28620Y23715D1*
X28598Y23593D1*
X15973Y16468D2*
X15911Y16360D1*
X15815Y16281D1*
X15698Y16240D1*
X15573Y16242D1*
X15457Y16286D1*
X15363Y16368D1*
X15304Y16477D1*
X15285Y16600D1*
X15310Y16722D1*
X15376Y16827D1*
X15474Y16904D1*
X15592Y16942D1*
X15717Y16937D1*
X15832Y16889D1*
X15923Y16805D1*
X15980Y16694D1*
X15995Y16590D1*
X15973Y16468D1*
X21973Y9898D2*
X21911Y9790D1*
X21815Y9711D1*
X21698Y9670D1*
X21573Y9672D1*
X21457Y9716D1*
X21363Y9798D1*
X21304Y9907D1*
X21285Y10030D1*
X21310Y10152D1*
X21376Y10257D1*
X21474Y10334D1*
X21592Y10372D1*
X21717Y10367D1*
X21832Y10319D1*
X21923Y10235D1*
X21980Y10124D1*
X21995Y10020D1*
X21973Y9898D1*
X13235Y35767D2*
X13175Y35658D1*
X13083Y35575D1*
X12968Y35526D1*
X12844Y35517D1*
X12724Y35549D1*
X12621Y35619D1*
X12547Y35719D1*
X12509Y35837D1*
X12512Y35962D1*
X12556Y36078D1*
X12635Y36174D1*
X12741Y36239D1*
X12863Y36265D1*
X12987Y36250D1*
X13098Y36195D1*
X13186Y36107D1*
X13240Y35995D1*
X13255Y35890D1*
X13235Y35767D1*
X21883Y8358D2*
X21821Y8250D1*
X21725Y8171D1*
X21608Y8130D1*
X21483Y8132D1*
X21367Y8176D1*
X21273Y8258D1*
X21214Y8367D1*
X21195Y8490D1*
X21220Y8612D1*
X21286Y8717D1*
X21384Y8794D1*
X21502Y8832D1*
X21627Y8827D1*
X21742Y8779D1*
X21833Y8695D1*
X21890Y8584D1*
X21905Y8480D1*
X21883Y8358D1*
X12820Y30742D2*
X12760Y30633D1*
X12668Y30550D1*
X12553Y30501D1*
X12429Y30492D1*
X12309Y30524D1*
X12206Y30594D1*
X12132Y30694D1*
X12094Y30812D1*
X12097Y30937D1*
X12141Y31053D1*
X12220Y31149D1*
X12326Y31214D1*
X12448Y31240D1*
X12572Y31225D1*
X12683Y31170D1*
X12771Y31082D1*
X12825Y30970D1*
X12840Y30865D1*
X12820Y30742D1*
X8305Y17667D2*
X8245Y17558D1*
X8153Y17475D1*
X8038Y17426D1*
X7914Y17417D1*
X7794Y17449D1*
X7691Y17519D1*
X7617Y17619D1*
X7579Y17737D1*
X7582Y17862D1*
X7626Y17978D1*
X7705Y18074D1*
X7811Y18139D1*
X7933Y18165D1*
X8057Y18150D1*
X8168Y18095D1*
X8256Y18007D1*
X8310Y17895D1*
X8325Y17790D1*
X8305Y17667D1*
X27514Y31356D2*
D23*
X28166Y30704D1*
Y31356D2*
X27514Y30704D1*
Y36556D2*
X28166Y35904D1*
Y36556D2*
X27514Y35904D1*
X10715Y23100D2*
X11041Y22774D1*
Y23426D2*
X10715Y23100D1*
X19194Y15696D2*
X19846Y15044D1*
Y15696D2*
X19194Y15044D1*
X11761Y15120D2*
D22*
X12067D1*
X15144D2*
X18110D1*
X11761Y14872D2*
X12020D1*
X15191D2*
X18356D1*
X11761Y14623D2*
X12090D1*
X15121D2*
X18606D1*
X11761Y14374D2*
X12290D1*
X12922D2*
X13290D1*
X13922D2*
X14290D1*
X14922D2*
X18856D1*
X11761Y14126D2*
X12071D1*
X15140D2*
X15313D1*
X16070D2*
X19102D1*
X11758Y13877D2*
X12020D1*
X16140D2*
X18989D1*
X8650Y13628D2*
X12086D1*
X15121D2*
X15333D1*
X16051D2*
X19012D1*
X8650Y13379D2*
X12360D1*
X12847D2*
X13360D1*
X13847D2*
X14360D1*
X15703D2*
X19145D1*
X8734Y13131D2*
X14590D1*
X15851D2*
X19001D1*
X8707Y12882D2*
X14653D1*
X15824D2*
X19001D1*
X9312Y12633D2*
X13458D1*
X14496D2*
X14629D1*
X15519D2*
X19149D1*
X9445Y12385D2*
X13321D1*
X14633D2*
X14786D1*
X15355D2*
X19012D1*
X9410Y12136D2*
X13356D1*
X14601D2*
X18993D1*
X8650Y11887D2*
X10711D1*
X11328D2*
X13348D1*
X14636D2*
X14946D1*
X15484D2*
X19106D1*
X8650Y11639D2*
X10575D1*
X11465D2*
X13379D1*
X14590D2*
X14778D1*
X15652D2*
X19458D1*
X8650Y11390D2*
X10610D1*
X11429D2*
X14794D1*
X15636D2*
X19458D1*
X8650Y11141D2*
X10883D1*
X11215D2*
X15044D1*
X15386D2*
X15520D1*
X15682D2*
X19458D1*
X8650Y10893D2*
X10629D1*
X11472D2*
X13200D1*
X16015D2*
X19458D1*
X8650Y10644D2*
X10610D1*
X11488D2*
X13129D1*
X16043D2*
X19340D1*
X8650Y10395D2*
X10778D1*
X11324D2*
X13223D1*
X15219D2*
X15302D1*
X15898D2*
X17551D1*
X8650Y10147D2*
X17551D1*
X8650Y9898D2*
X17551D1*
X8650Y9649D2*
X17551D1*
X8650Y9400D2*
X9825D1*
X10097D2*
X17551D1*
X8650Y9152D2*
X9544D1*
X10379D2*
X17551D1*
X8650Y8903D2*
X9520D1*
X10402D2*
X17551D1*
X13104Y13643D2*
X13045Y13548D1*
X12957Y13459D1*
X12852Y13392D1*
X12734Y13350D1*
X12610Y13335D1*
X12486Y13348D1*
X12368Y13388D1*
X12262Y13453D1*
X12172Y13540D1*
X12104Y13644D1*
X12061Y13761D1*
X12045Y13885D1*
X12057Y14009D1*
X12095Y14128D1*
X12160Y14235D1*
X12246Y14325D1*
X12353Y14395D1*
X12262Y14453D1*
X12172Y14540D1*
X12104Y14644D1*
X12061Y14761D1*
X12045Y14885D1*
X12057Y15009D1*
X12095Y15128D1*
X12160Y15235D1*
X12246Y15325D1*
X12314Y15370D1*
X11737Y15369D1*
X11735Y13890D1*
X11674Y13785D1*
X11610Y13765D1*
X8625D1*
Y13308D1*
X8681Y13216D1*
X8713Y13095D1*
X8715Y13050D1*
X8697Y12927D1*
X8644Y12814D1*
X8625Y12794D1*
Y12519D1*
X8670Y12588D1*
X8762Y12672D1*
X8874Y12726D1*
X8997Y12745D1*
X9121Y12728D1*
X9234Y12675D1*
X9327Y12592D1*
X9391Y12486D1*
X9423Y12365D1*
X9425Y12320D1*
X9407Y12197D1*
X9354Y12084D1*
X9270Y11992D1*
X9163Y11928D1*
X9043Y11897D1*
X8918Y11903D1*
X8801Y11945D1*
X8701Y12019D1*
X8625Y12122D1*
Y8815D1*
X9575Y8814D1*
X9544Y8906D1*
X9537Y9030D1*
X9567Y9151D1*
X9630Y9258D1*
X9722Y9342D1*
X9834Y9396D1*
X9957Y9415D1*
X10081Y9398D1*
X10194Y9345D1*
X10287Y9262D1*
X10351Y9156D1*
X10383Y9035D1*
X10385Y8990D1*
X10367Y8867D1*
X10342Y8814D1*
X17575Y8805D1*
Y10510D1*
X17636Y10616D1*
X17700Y10635D1*
X19485Y10645D1*
X19482Y11711D1*
X19328Y11747D1*
X19219Y11808D1*
X19128Y11893D1*
X19060Y11998D1*
X19020Y12116D1*
X19009Y12240D1*
X19029Y12363D1*
X19078Y12478D1*
X19154Y12577D1*
X19199Y12614D1*
X19128Y12680D1*
X19060Y12785D1*
X19020Y12903D1*
X19009Y13027D1*
X19029Y13150D1*
X19078Y13265D1*
X19154Y13364D1*
X19199Y13401D1*
X19128Y13468D1*
X19060Y13573D1*
X19020Y13691D1*
X19009Y13815D1*
X19029Y13938D1*
X19078Y14052D1*
X19133Y14124D1*
X17888Y15365D1*
X15944Y15366D1*
X15910Y15332D1*
X15803Y15268D1*
X15683Y15237D1*
X15558Y15243D1*
X15441Y15285D1*
X15334Y15368D1*
X14905Y15367D1*
X15032Y15258D1*
X15101Y15155D1*
X15147Y15039D1*
X15165Y14895D1*
X15152Y14771D1*
X15111Y14653D1*
X15045Y14548D1*
X14957Y14459D1*
X14855Y14394D1*
X14941Y14344D1*
X15032Y14258D1*
X15101Y14155D1*
X15147Y14039D1*
X15165Y13895D1*
X15152Y13771D1*
X15111Y13653D1*
X15042Y13545D1*
X15161Y13528D1*
X15274Y13475D1*
X15294Y13457D1*
X15407Y13475D1*
X15531Y13458D1*
X15644Y13405D1*
X15737Y13322D1*
X15801Y13216D1*
X15833Y13095D1*
X15835Y13050D1*
X15817Y12927D1*
X15764Y12814D1*
X15680Y12722D1*
X15573Y12658D1*
X15487Y12636D1*
X15424Y12484D1*
X15340Y12392D1*
X15233Y12328D1*
X15113Y12297D1*
X14988Y12303D1*
X14871Y12345D1*
X14771Y12419D1*
X14696Y12518D1*
X14654Y12636D1*
X14647Y12760D1*
X14683Y12891D1*
X14624Y13036D1*
X14617Y13160D1*
X14647Y13281D1*
X14680Y13338D1*
X14610Y13335D1*
X14486Y13348D1*
X14368Y13388D1*
X14262Y13453D1*
X14172Y13540D1*
X14106Y13641D1*
X14045Y13548D1*
X13957Y13459D1*
X13852Y13392D1*
X13734Y13350D1*
X13610Y13335D1*
X13486Y13348D1*
X13368Y13388D1*
X13262Y13453D1*
X13172Y13540D1*
X13106Y13641D1*
X12857Y14393D2*
X12941Y14344D1*
X13032Y14258D1*
X13106Y14144D1*
X13160Y14235D1*
X13246Y14325D1*
X13353Y14395D1*
X13262Y14453D1*
X13172Y14540D1*
X13106Y14641D1*
X13045Y14548D1*
X12957Y14459D1*
X12855Y14394D1*
X13857Y14393D2*
X13941Y14344D1*
X14032Y14258D1*
X14106Y14144D1*
X14160Y14235D1*
X14246Y14325D1*
X14353Y14395D1*
X14262Y14453D1*
X14172Y14540D1*
X14106Y14641D1*
X14045Y14548D1*
X13957Y14459D1*
X13855Y14394D1*
X14190Y10300D2*
X14153Y10278D1*
X14033Y10247D1*
X13908Y10253D1*
X13795Y10293D1*
X13743Y10268D1*
X13623Y10237D1*
X13498Y10243D1*
X13381Y10285D1*
X13281Y10359D1*
X13206Y10458D1*
X13164Y10576D1*
X13157Y10700D1*
X13187Y10821D1*
X13250Y10928D1*
X13342Y11012D1*
X13454Y11066D1*
X13577Y11085D1*
X13701Y11068D1*
X13775Y11033D1*
X13864Y11076D1*
X13987Y11095D1*
X14111Y11078D1*
X14238Y11012D1*
X14314Y11046D1*
X14437Y11065D1*
X14561Y11048D1*
X14621Y11020D1*
X14754Y11086D1*
X14877Y11105D1*
X15001Y11088D1*
X15114Y11035D1*
X15207Y10952D1*
X15225Y10922D1*
X15270Y10988D1*
X15362Y11072D1*
X15474Y11126D1*
X15597Y11145D1*
X15721Y11128D1*
X15834Y11075D1*
X15927Y10992D1*
X15991Y10886D1*
X16023Y10765D1*
X16025Y10720D1*
X16007Y10597D1*
X15954Y10484D1*
X15870Y10392D1*
X15763Y10328D1*
X15643Y10297D1*
X15518Y10303D1*
X15401Y10345D1*
X15301Y10419D1*
X15256Y10478D1*
X15150Y10352D1*
X15043Y10288D1*
X14923Y10257D1*
X14798Y10263D1*
X14692Y10301D1*
X14603Y10248D1*
X14483Y10217D1*
X14358Y10223D1*
X14241Y10265D1*
X14194Y10299D1*
X15622Y11417D2*
X15569Y11304D1*
X15485Y11212D1*
X15378Y11148D1*
X15258Y11117D1*
X15133Y11123D1*
X15016Y11165D1*
X14916Y11239D1*
X14841Y11338D1*
X14799Y11456D1*
X14792Y11580D1*
X14822Y11701D1*
X14885Y11808D1*
X14977Y11892D1*
X15089Y11946D1*
X15212Y11965D1*
X15336Y11948D1*
X15449Y11895D1*
X15542Y11812D1*
X15606Y11706D1*
X15638Y11585D1*
X15640Y11540D1*
X15622Y11417D1*
X13435Y12054D2*
X13391Y12113D1*
X13349Y12231D1*
X13342Y12355D1*
X13372Y12476D1*
X13435Y12583D1*
X13527Y12667D1*
X13639Y12721D1*
X13762Y12740D1*
X13886Y12723D1*
X13974Y12682D1*
X14064Y12721D1*
X14187Y12740D1*
X14311Y12723D1*
X14424Y12670D1*
X14517Y12587D1*
X14581Y12481D1*
X14613Y12360D1*
X14615Y12315D1*
X14597Y12192D1*
X14541Y12076D1*
X14581Y12006D1*
X14613Y11885D1*
X14615Y11840D1*
X14597Y11717D1*
X14544Y11604D1*
X14460Y11512D1*
X14353Y11448D1*
X14233Y11417D1*
X14108Y11423D1*
X14017Y11456D1*
X13953Y11423D1*
X13833Y11392D1*
X13708Y11398D1*
X13591Y11440D1*
X13491Y11514D1*
X13416Y11613D1*
X13374Y11731D1*
X13367Y11855D1*
X13397Y11976D1*
X13438Y12046D1*
X16097Y13767D2*
X16044Y13654D1*
X15960Y13562D1*
X15853Y13498D1*
X15733Y13467D1*
X15608Y13473D1*
X15491Y13515D1*
X15391Y13589D1*
X15316Y13688D1*
X15274Y13806D1*
X15267Y13930D1*
X15297Y14051D1*
X15360Y14158D1*
X15452Y14242D1*
X15564Y14296D1*
X15687Y14315D1*
X15811Y14298D1*
X15924Y14245D1*
X16017Y14162D1*
X16081Y14056D1*
X16113Y13935D1*
X16115Y13890D1*
X16097Y13767D1*
X11457Y10617D2*
X11404Y10504D1*
X11320Y10412D1*
X11213Y10348D1*
X11093Y10317D1*
X10968Y10323D1*
X10851Y10365D1*
X10751Y10439D1*
X10676Y10538D1*
X10634Y10656D1*
X10627Y10780D1*
X10657Y10901D1*
X10720Y11008D1*
X10812Y11092D1*
X10924Y11146D1*
X10951Y11150D1*
X10821Y11195D1*
X10721Y11269D1*
X10646Y11368D1*
X10604Y11486D1*
X10597Y11610D1*
X10627Y11731D1*
X10690Y11838D1*
X10782Y11922D1*
X10894Y11976D1*
X11017Y11995D1*
X11141Y11978D1*
X11254Y11925D1*
X11347Y11842D1*
X11411Y11736D1*
X11443Y11615D1*
X11445Y11570D1*
X11427Y11447D1*
X11374Y11334D1*
X11290Y11242D1*
X11183Y11178D1*
X11112Y11160D1*
X11171Y11148D1*
X11284Y11095D1*
X11377Y11012D1*
X11441Y10906D1*
X11473Y10785D1*
X11475Y10740D1*
X11457Y10617D1*
X11940Y27166D2*
X12517D1*
X13415D2*
X15619D1*
X16313D2*
X17982D1*
X18337D2*
X19587D1*
X20430D2*
X25216D1*
X11940Y26918D2*
X12615D1*
X13317D2*
X14267D1*
X15063D2*
X15298D1*
X18583D2*
X19849D1*
X20173D2*
X25216D1*
X11940Y26669D2*
X14216D1*
X15114D2*
X15218D1*
X18598D2*
X25216D1*
X11940Y26420D2*
X14334D1*
X14997D2*
X15294D1*
X18426D2*
X20740D1*
X21239D2*
X25216D1*
X11940Y26172D2*
X13709D1*
X13969D2*
X14123D1*
X14380D2*
X20009D1*
X21426D2*
X25216D1*
X11940Y25923D2*
X13423D1*
X14669D2*
X19970D1*
X21419D2*
X25216D1*
X11940Y25674D2*
X13400D1*
X14692D2*
X20099D1*
X22454D2*
X25216D1*
X11940Y25426D2*
X12896D1*
X13344D2*
X13552D1*
X14536D2*
X20419D1*
X22649D2*
X25216D1*
X11940Y25177D2*
X12689D1*
X13551D2*
X20447D1*
X22622D2*
X25216D1*
X11940Y24928D2*
X12689D1*
X13551D2*
X25216D1*
X11940Y24680D2*
X12888D1*
X13352D2*
X15533D1*
X16165D2*
X17666D1*
X18356D2*
X25216D1*
X11940Y24431D2*
X15404D1*
X16298D2*
X17560D1*
X18458D2*
X25216D1*
X11940Y24182D2*
X15443D1*
X16255D2*
X17619D1*
X18399D2*
X23271D1*
X23731D2*
X25216D1*
X11940Y23934D2*
X23068D1*
X23930D2*
X25216D1*
X11940Y23685D2*
X16626D1*
X17173D2*
X23068D1*
X23930D2*
X25216D1*
X11940Y23436D2*
X13044D1*
X13786D2*
X16462D1*
X17341D2*
X22685D1*
X23727D2*
X25216D1*
X11940Y23187D2*
X12849D1*
X13864D2*
X16478D1*
X17321D2*
X21845D1*
X22384D2*
X22548D1*
X23434D2*
X23533D1*
X13782Y22939D2*
X16736D1*
X17063D2*
X21677D1*
X13837Y22690D2*
X21693D1*
X12735Y22441D2*
X12947D1*
X13852D2*
X15459D1*
X16161D2*
X17642D1*
X18380D2*
X21943D1*
X24407D2*
X24623D1*
X11940Y22193D2*
X13146D1*
X13684D2*
X15361D1*
X16259D2*
X17560D1*
X18462D2*
X22115D1*
X23118D2*
X25216D1*
X12094Y21944D2*
X12388D1*
X13594D2*
X15427D1*
X16196D2*
X17638D1*
X18380D2*
X21865D1*
X23219D2*
X25216D1*
X13759Y21695D2*
X21701D1*
X23157D2*
X25216D1*
X13880Y21447D2*
X21720D1*
X22911D2*
X25216D1*
X13911Y21198D2*
X21978D1*
X22930D2*
X25216D1*
X12087Y20949D2*
X12396D1*
X13938D2*
X22212D1*
X22770D2*
X25216D1*
X14106Y20701D2*
X20646D1*
X21813D2*
X25216D1*
X13325Y20452D2*
X13517D1*
X14360D2*
X20525D1*
X22001D2*
X25216D1*
X13247Y20203D2*
X13501D1*
X14380D2*
X20568D1*
X21993D2*
X25216D1*
X12079Y19955D2*
X12404D1*
X13079D2*
X13669D1*
X14212D2*
X20814D1*
X22102D2*
X25216D1*
X13282Y19706D2*
X13931D1*
X14598D2*
X14735D1*
X15919D2*
X16013D1*
X16567D2*
X17263D1*
X17817D2*
X18244D1*
X18759D2*
X20998D1*
X22344D2*
X25216D1*
X13325Y19457D2*
X13818D1*
X16731D2*
X16880D1*
X18938D2*
X21482D1*
X22356D2*
X25216D1*
X13251Y19208D2*
X13869D1*
X18926D2*
X21310D1*
X22184D2*
X25216D1*
X11946Y18960D2*
X12537D1*
X12946D2*
X13162D1*
X13868D2*
X14865D1*
X15794D2*
X16138D1*
X16442D2*
X16818D1*
X19196D2*
X21142D1*
X22016D2*
X25216D1*
X11940Y18711D2*
X13064D1*
X13966D2*
X17615D1*
X19235D2*
X21158D1*
X22005D2*
X25216D1*
X12239Y21238D2*
X12180Y21143D1*
X12092Y21054D1*
X11990Y20989D1*
X12076Y20939D1*
X12167Y20853D1*
X12241Y20739D1*
X12295Y20830D1*
X12381Y20920D1*
X12488Y20990D1*
X12397Y21048D1*
X12307Y21135D1*
X12241Y21236D1*
X11912Y22020D2*
X11968Y22002D1*
X12076Y21939D1*
X12167Y21853D1*
X12241Y21739D1*
X12295Y21830D1*
X12381Y21920D1*
X12485Y21989D1*
X12601Y22033D1*
X12725Y22050D1*
X12849Y22040D1*
X12968Y22002D1*
X13066Y21945D1*
X13194Y22006D1*
X13317Y22025D1*
X13441Y22008D1*
X13554Y21955D1*
X13647Y21872D1*
X13711Y21766D1*
X13743Y21645D1*
X13742Y21581D1*
X13826Y21497D1*
X13880Y21385D1*
X13895Y21280D1*
X13869Y21147D1*
X13900Y21075D1*
X13915Y20970D1*
X13895Y20847D1*
X13835Y20738D1*
X13792Y20699D1*
X13937Y20725D1*
X14061Y20708D1*
X14174Y20655D1*
X14267Y20572D1*
X14331Y20466D1*
X14363Y20345D1*
X14365Y20300D1*
X14347Y20177D1*
X14294Y20064D1*
X14210Y19972D1*
X14103Y19908D1*
X13983Y19877D1*
X13858Y19883D1*
X13741Y19925D1*
X13641Y19999D1*
X13566Y20098D1*
X13524Y20216D1*
X13517Y20340D1*
X13547Y20461D1*
X13610Y20568D1*
X13665Y20618D1*
X13628Y20606D1*
X13504Y20597D1*
X13384Y20629D1*
X13281Y20699D1*
X13214Y20789D1*
X13282Y20634D1*
X13300Y20490D1*
X13287Y20366D1*
X13246Y20248D1*
X13180Y20143D1*
X13092Y20054D1*
X12990Y19989D1*
X13076Y19939D1*
X13167Y19853D1*
X13236Y19750D1*
X13282Y19634D1*
X13300Y19490D1*
X13287Y19366D1*
X13246Y19248D1*
X13180Y19143D1*
X13092Y19054D1*
X12987Y18987D1*
X12869Y18945D1*
X12745Y18930D1*
X12621Y18943D1*
X12503Y18983D1*
X12397Y19048D1*
X12307Y19135D1*
X12241Y19236D1*
X12180Y19143D1*
X12092Y19054D1*
X11987Y18987D1*
X11917Y18962D1*
X11915Y18615D1*
X13099D1*
X13092Y18730D1*
X13122Y18851D1*
X13185Y18958D1*
X13277Y19042D1*
X13389Y19096D1*
X13512Y19115D1*
X13636Y19098D1*
X13749Y19045D1*
X13842Y18962D1*
X13906Y18856D1*
X13938Y18735D1*
X13929Y18617D1*
X17661Y18615D1*
X17644Y18676D1*
X17639Y18765D1*
X17541Y18839D1*
X17520Y18867D1*
X17378Y18773D1*
X17258Y18742D1*
X17133Y18748D1*
X17016Y18790D1*
X16916Y18864D1*
X16841Y18963D1*
X16799Y19081D1*
X16792Y19205D1*
X16822Y19326D1*
X16885Y19433D1*
X16977Y19517D1*
X17089Y19571D1*
X17178Y19585D1*
X17210Y19633D1*
X17302Y19717D1*
X17414Y19771D1*
X17537Y19790D1*
X17661Y19773D1*
X17774Y19720D1*
X17867Y19637D1*
X17913Y19561D1*
X18074Y19495D1*
X18094Y19477D1*
X18170Y19618D1*
X18262Y19702D1*
X18374Y19756D1*
X18497Y19775D1*
X18621Y19758D1*
X18734Y19705D1*
X18827Y19622D1*
X18891Y19516D1*
X18923Y19395D1*
X18925Y19350D1*
X18907Y19227D1*
X18885Y19181D1*
X18911Y19178D1*
X19024Y19125D1*
X19117Y19042D1*
X19181Y18936D1*
X19213Y18815D1*
X19215Y18770D1*
X19197Y18647D1*
X19182Y18615D1*
X21232D1*
X21206Y18658D1*
X21164Y18776D1*
X21157Y18900D1*
X21187Y19021D1*
X21250Y19128D1*
X21342Y19212D1*
X21454Y19266D1*
X21597Y19282D1*
X21546Y19358D1*
X21504Y19476D1*
X21497Y19600D1*
X21527Y19721D1*
X21556Y19771D1*
X21520Y19737D1*
X21413Y19673D1*
X21293Y19642D1*
X21168Y19648D1*
X21051Y19690D1*
X20951Y19764D1*
X20876Y19863D1*
X20833Y20000D1*
X20771Y20025D1*
X20671Y20099D1*
X20596Y20198D1*
X20554Y20316D1*
X20547Y20440D1*
X20577Y20561D1*
X20640Y20668D1*
X20732Y20752D1*
X20844Y20806D1*
X20967Y20825D1*
X21091Y20808D1*
X21204Y20755D1*
X21299Y20669D1*
X21327Y20692D1*
X21439Y20746D1*
X21562Y20765D1*
X21686Y20748D1*
X21799Y20695D1*
X21892Y20612D1*
X21956Y20506D1*
X21988Y20385D1*
X21990Y20340D1*
X21972Y20217D1*
X21919Y20104D1*
X21835Y20012D1*
X21728Y19948D1*
X21649Y19928D1*
X21682Y19912D1*
X21794Y19966D1*
X21917Y19985D1*
X22041Y19968D1*
X22154Y19915D1*
X22247Y19832D1*
X22311Y19726D1*
X22343Y19605D1*
X22345Y19560D1*
X22327Y19437D1*
X22274Y19324D1*
X22190Y19232D1*
X22083Y19168D1*
X21963Y19137D1*
X21897Y19140D1*
X21971Y19026D1*
X22003Y18905D1*
X22005Y18860D1*
X21987Y18737D1*
X21926Y18616D1*
X25240Y18615D1*
Y22353D1*
X25144Y22320D1*
X25020Y22305D1*
X24896Y22318D1*
X24778Y22358D1*
X24672Y22423D1*
X24582Y22510D1*
X24516Y22611D1*
X24455Y22518D1*
X24367Y22429D1*
X24262Y22362D1*
X24144Y22320D1*
X24020Y22305D1*
X23896Y22318D1*
X23778Y22358D1*
X23672Y22423D1*
X23580Y22513D1*
X23534Y22414D1*
X23450Y22322D1*
X23343Y22258D1*
X23223Y22227D1*
X23098Y22233D1*
X23014Y22263D1*
X23097Y22187D1*
X23161Y22081D1*
X23193Y21960D1*
X23195Y21915D1*
X23177Y21792D1*
X23124Y21679D1*
X23040Y21587D1*
X22933Y21523D1*
X22854Y21503D1*
X22881Y21456D1*
X22913Y21335D1*
X22915Y21290D1*
X22897Y21167D1*
X22844Y21054D1*
X22760Y20962D1*
X22653Y20898D1*
X22533Y20867D1*
X22408Y20873D1*
X22291Y20915D1*
X22191Y20989D1*
X22116Y21088D1*
X22083Y21180D1*
X21941Y21225D1*
X21841Y21299D1*
X21766Y21399D1*
X21724Y21516D1*
X21717Y21640D1*
X21747Y21761D1*
X21810Y21869D1*
X21902Y21953D1*
X22014Y22007D1*
X22137Y22026D1*
X22261Y22008D1*
X22349Y21967D1*
X22387Y22093D1*
X22333Y22098D1*
X22216Y22140D1*
X22116Y22214D1*
X22041Y22313D1*
X21998Y22434D1*
X21916Y22465D1*
X21816Y22539D1*
X21741Y22638D1*
X21699Y22756D1*
X21692Y22880D1*
X21722Y23001D1*
X21785Y23108D1*
X21877Y23192D1*
X21989Y23246D1*
X22112Y23265D1*
X22236Y23248D1*
X22349Y23195D1*
X22442Y23112D1*
X22506Y23006D1*
X22527Y22927D1*
X22638Y22875D1*
X22574Y23031D1*
X22567Y23155D1*
X22597Y23276D1*
X22660Y23383D1*
X22752Y23467D1*
X22864Y23521D1*
X22987Y23540D1*
X23111Y23523D1*
X23224Y23470D1*
X23317Y23387D1*
X23381Y23281D1*
X23413Y23160D1*
X23415Y23115D1*
X23400Y23011D1*
X23463Y22961D1*
X23505Y23098D1*
X23570Y23205D1*
X23656Y23295D1*
X23760Y23364D1*
X23876Y23408D1*
X24000Y23426D1*
X24124Y23415D1*
X24243Y23377D1*
X24351Y23314D1*
X24442Y23229D1*
X24516Y23114D1*
X24570Y23205D1*
X24656Y23295D1*
X24760Y23364D1*
X24876Y23408D1*
X25000Y23426D1*
X25124Y23415D1*
X25239Y23378D1*
X25240Y27415D1*
X20424D1*
X20435Y27320D1*
X20417Y27197D1*
X20364Y27084D1*
X20280Y26992D1*
X20173Y26928D1*
X20053Y26897D1*
X19928Y26903D1*
X19811Y26945D1*
X19711Y27019D1*
X19636Y27118D1*
X19594Y27236D1*
X19587Y27360D1*
X19601Y27417D1*
X13322Y27415D1*
X13356Y27356D1*
X13388Y27235D1*
X13390Y27190D1*
X13372Y27067D1*
X13319Y26954D1*
X13235Y26862D1*
X13128Y26798D1*
X13008Y26767D1*
X12883Y26773D1*
X12766Y26815D1*
X12666Y26889D1*
X12591Y26988D1*
X12549Y27106D1*
X12542Y27230D1*
X12572Y27351D1*
X12609Y27415D1*
X11915D1*
Y22021D1*
X12239Y20238D2*
X12180Y20143D1*
X12092Y20054D1*
X11990Y19989D1*
X12076Y19939D1*
X12167Y19853D1*
X12241Y19739D1*
X12295Y19830D1*
X12381Y19920D1*
X12488Y19990D1*
X12397Y20048D1*
X12307Y20135D1*
X12241Y20236D1*
X20952Y24999D2*
X20898Y24976D1*
X20774Y24967D1*
X20654Y24999D1*
X20551Y25069D1*
X20477Y25169D1*
X20439Y25287D1*
X20442Y25412D1*
X20486Y25528D1*
X20523Y25573D1*
X20458Y25562D1*
X20333Y25568D1*
X20216Y25610D1*
X20116Y25684D1*
X20041Y25783D1*
X19999Y25901D1*
X19992Y26025D1*
X20022Y26146D1*
X20085Y26253D1*
X20177Y26337D1*
X20289Y26391D1*
X20412Y26410D1*
X20536Y26393D1*
X20663Y26327D1*
X20752Y26412D1*
X20864Y26466D1*
X20987Y26485D1*
X21111Y26468D1*
X21224Y26415D1*
X21317Y26332D1*
X21381Y26226D1*
X21413Y26105D1*
X21415Y26060D1*
X21397Y25937D1*
X21344Y25824D1*
X21260Y25732D1*
X21217Y25700D1*
X21248Y25684D1*
X21383Y25715D1*
X21507Y25700D1*
X21541Y25689D1*
X21663Y25715D1*
X21787Y25700D1*
X21821Y25689D1*
X21943Y25715D1*
X22067Y25700D1*
X22105Y25681D1*
X22243Y25715D1*
X22367Y25700D1*
X22478Y25645D1*
X22566Y25557D1*
X22620Y25445D1*
X22635Y25340D1*
X22615Y25217D1*
X22555Y25108D1*
X22463Y25025D1*
X22348Y24976D1*
X22224Y24967D1*
X22108Y24998D1*
X22048Y24976D1*
X21924Y24967D1*
X21823Y24994D1*
X21768Y24976D1*
X21644Y24967D1*
X21543Y24994D1*
X21488Y24976D1*
X21364Y24967D1*
X21255Y24996D1*
X21198Y24976D1*
X21074Y24967D1*
X20958Y24998D1*
X15965Y19098D2*
X15910Y19037D1*
X15803Y18973D1*
X15724Y18953D1*
X15694Y18904D1*
X15610Y18812D1*
X15503Y18748D1*
X15383Y18717D1*
X15258Y18723D1*
X15141Y18765D1*
X15041Y18839D1*
X14965Y18942D1*
X14816Y18990D1*
X14716Y19064D1*
X14641Y19163D1*
X14629Y19196D1*
X14535Y19087D1*
X14428Y19023D1*
X14308Y18992D1*
X14183Y18998D1*
X14066Y19040D1*
X13966Y19114D1*
X13891Y19213D1*
X13849Y19331D1*
X13842Y19455D1*
X13872Y19576D1*
X13935Y19683D1*
X14027Y19767D1*
X14139Y19821D1*
X14262Y19840D1*
X14386Y19823D1*
X14499Y19770D1*
X14592Y19687D1*
X14654Y19584D1*
X14685Y19633D1*
X14777Y19717D1*
X14889Y19771D1*
X15012Y19790D1*
X15136Y19773D1*
X15249Y19720D1*
X15327Y19650D1*
X15402Y19717D1*
X15514Y19771D1*
X15637Y19790D1*
X15761Y19773D1*
X15874Y19720D1*
X15964Y19640D1*
X16052Y19717D1*
X16164Y19771D1*
X16287Y19790D1*
X16411Y19773D1*
X16524Y19720D1*
X16617Y19637D1*
X16681Y19531D1*
X16713Y19410D1*
X16715Y19365D1*
X16697Y19242D1*
X16644Y19129D1*
X16560Y19037D1*
X16453Y18973D1*
X16333Y18942D1*
X16208Y18948D1*
X16091Y18990D1*
X15991Y19064D1*
X15970Y19092D1*
X14657Y25637D2*
X14604Y25524D1*
X14520Y25432D1*
X14413Y25368D1*
X14293Y25337D1*
X14168Y25343D1*
X14048Y25387D1*
X13883Y25337D1*
X13758Y25343D1*
X13641Y25385D1*
X13541Y25459D1*
X13466Y25558D1*
X13424Y25676D1*
X13417Y25800D1*
X13447Y25921D1*
X13510Y26028D1*
X13602Y26112D1*
X13714Y26166D1*
X13837Y26185D1*
X13961Y26168D1*
X14042Y26130D1*
X14124Y26166D1*
X14247Y26185D1*
X14371Y26168D1*
X14484Y26115D1*
X14577Y26032D1*
X14641Y25926D1*
X14673Y25805D1*
X14675Y25760D1*
X14657Y25637D1*
X15072Y26592D2*
X15019Y26479D1*
X14935Y26387D1*
X14828Y26323D1*
X14708Y26292D1*
X14583Y26298D1*
X14466Y26340D1*
X14366Y26414D1*
X14291Y26513D1*
X14249Y26631D1*
X14242Y26755D1*
X14272Y26876D1*
X14335Y26983D1*
X14427Y27067D1*
X14539Y27121D1*
X14662Y27140D1*
X14786Y27123D1*
X14899Y27070D1*
X14992Y26987D1*
X15056Y26881D1*
X15088Y26760D1*
X15090Y26715D1*
X15072Y26592D1*
X15985Y26392D2*
X15935Y26337D1*
X15828Y26273D1*
X15708Y26242D1*
X15583Y26248D1*
X15466Y26290D1*
X15366Y26364D1*
X15291Y26463D1*
X15249Y26581D1*
X15242Y26705D1*
X15272Y26826D1*
X15335Y26933D1*
X15427Y27017D1*
X15539Y27071D1*
X15582Y27078D1*
X15635Y27158D1*
X15727Y27242D1*
X15839Y27296D1*
X15962Y27315D1*
X16086Y27298D1*
X16199Y27245D1*
X16292Y27162D1*
X16356Y27056D1*
X16377Y26977D1*
X16435Y26951D1*
X16471Y26969D1*
X16593Y26995D1*
X16717Y26980D1*
X16769Y26954D1*
X16903Y26985D1*
X17027Y26970D1*
X17072Y26948D1*
X17213Y26985D1*
X17337Y26970D1*
X17382Y26948D1*
X17533Y26985D1*
X17657Y26970D1*
X17709Y26944D1*
X17778Y26961D1*
X17830Y27038D1*
X17922Y27122D1*
X18034Y27176D1*
X18157Y27195D1*
X18281Y27178D1*
X18394Y27125D1*
X18487Y27042D1*
X18551Y26936D1*
X18583Y26815D1*
X18585Y26770D1*
X18567Y26647D1*
X18514Y26534D1*
X18430Y26442D1*
X18323Y26378D1*
X18203Y26347D1*
X18137Y26350D1*
X18063Y26285D1*
X17948Y26236D1*
X17824Y26227D1*
X17694Y26266D1*
X17638Y26246D1*
X17514Y26237D1*
X17391Y26271D1*
X17318Y26246D1*
X17194Y26237D1*
X17078Y26268D1*
X17008Y26246D1*
X16884Y26237D1*
X16754Y26276D1*
X16698Y26256D1*
X16574Y26247D1*
X16465Y26276D1*
X16378Y26246D1*
X16254Y26237D1*
X16134Y26269D1*
X16031Y26339D1*
X15992Y26392D1*
X13822Y22417D2*
X13769Y22304D1*
X13685Y22212D1*
X13578Y22148D1*
X13458Y22117D1*
X13333Y22123D1*
X13216Y22165D1*
X13116Y22239D1*
X13041Y22338D1*
X13008Y22430D1*
X12921Y22465D1*
X12821Y22539D1*
X12772Y22604D1*
X12757Y22547D1*
X12704Y22434D1*
X12620Y22342D1*
X12513Y22278D1*
X12393Y22247D1*
X12268Y22253D1*
X12151Y22295D1*
X12051Y22369D1*
X11976Y22468D1*
X11934Y22586D1*
X11927Y22710D1*
X11957Y22831D1*
X12020Y22938D1*
X12112Y23022D1*
X12224Y23076D1*
X12347Y23095D1*
X12471Y23078D1*
X12584Y23025D1*
X12677Y22942D1*
X12699Y22906D1*
X12727Y23001D1*
X12790Y23108D1*
X12882Y23192D1*
X12991Y23244D1*
X13022Y23351D1*
X13085Y23458D1*
X13177Y23542D1*
X13289Y23596D1*
X13412Y23615D1*
X13536Y23598D1*
X13649Y23545D1*
X13742Y23462D1*
X13806Y23356D1*
X13838Y23235D1*
X13840Y23190D1*
X13822Y23067D1*
X13769Y22954D1*
X13688Y22865D1*
X13742Y22812D1*
X13806Y22706D1*
X13838Y22585D1*
X13840Y22540D1*
X13822Y22417D1*
X23907Y23687D2*
X23854Y23574D1*
X23770Y23482D1*
X23663Y23418D1*
X23543Y23387D1*
X23418Y23393D1*
X23301Y23435D1*
X23201Y23509D1*
X23126Y23608D1*
X23084Y23726D1*
X23077Y23850D1*
X23107Y23971D1*
X23170Y24078D1*
X23262Y24162D1*
X23374Y24216D1*
X23497Y24235D1*
X23621Y24218D1*
X23734Y24165D1*
X23827Y24082D1*
X23891Y23976D1*
X23923Y23855D1*
X23925Y23810D1*
X23907Y23687D1*
X13527Y24927D2*
X13474Y24814D1*
X13390Y24722D1*
X13283Y24658D1*
X13163Y24627D1*
X13038Y24633D1*
X12921Y24675D1*
X12821Y24749D1*
X12746Y24848D1*
X12704Y24966D1*
X12697Y25090D1*
X12727Y25211D1*
X12790Y25318D1*
X12882Y25402D1*
X12994Y25456D1*
X13117Y25475D1*
X13241Y25458D1*
X13354Y25405D1*
X13447Y25322D1*
X13511Y25216D1*
X13543Y25095D1*
X13545Y25050D1*
X13527Y24927D1*
X17307Y23217D2*
X17254Y23104D1*
X17170Y23012D1*
X17063Y22948D1*
X16943Y22917D1*
X16818Y22923D1*
X16701Y22965D1*
X16601Y23039D1*
X16526Y23138D1*
X16484Y23256D1*
X16477Y23380D1*
X16507Y23501D1*
X16570Y23608D1*
X16662Y23692D1*
X16774Y23746D1*
X16897Y23765D1*
X17021Y23748D1*
X17134Y23695D1*
X17227Y23612D1*
X17291Y23506D1*
X17323Y23385D1*
X17325Y23340D1*
X17307Y23217D1*
X16257Y24247D2*
X16204Y24134D1*
X16120Y24042D1*
X16013Y23978D1*
X15893Y23947D1*
X15768Y23953D1*
X15651Y23995D1*
X15551Y24069D1*
X15476Y24168D1*
X15434Y24286D1*
X15427Y24410D1*
X15457Y24531D1*
X15520Y24638D1*
X15612Y24722D1*
X15724Y24776D1*
X15847Y24795D1*
X15971Y24778D1*
X16084Y24725D1*
X16177Y24642D1*
X16241Y24536D1*
X16273Y24415D1*
X16275Y24370D1*
X16257Y24247D1*
X18417Y24277D2*
X18364Y24164D1*
X18280Y24072D1*
X18173Y24008D1*
X18053Y23977D1*
X17928Y23983D1*
X17811Y24025D1*
X17711Y24099D1*
X17636Y24198D1*
X17594Y24316D1*
X17587Y24440D1*
X17617Y24561D1*
X17680Y24668D1*
X17772Y24752D1*
X17884Y24806D1*
X18007Y24825D1*
X18131Y24808D1*
X18244Y24755D1*
X18337Y24672D1*
X18401Y24566D1*
X18433Y24445D1*
X18435Y24400D1*
X18417Y24277D1*
Y22067D2*
X18364Y21954D1*
X18280Y21862D1*
X18173Y21798D1*
X18053Y21767D1*
X17928Y21773D1*
X17811Y21815D1*
X17711Y21889D1*
X17636Y21988D1*
X17594Y22106D1*
X17587Y22230D1*
X17617Y22351D1*
X17680Y22458D1*
X17772Y22542D1*
X17884Y22596D1*
X18007Y22615D1*
X18131Y22598D1*
X18244Y22545D1*
X18337Y22462D1*
X18401Y22356D1*
X18433Y22235D1*
X18435Y22190D1*
X18417Y22067D1*
X16217Y22047D2*
X16164Y21934D1*
X16080Y21842D1*
X15973Y21778D1*
X15853Y21747D1*
X15728Y21753D1*
X15611Y21795D1*
X15511Y21869D1*
X15436Y21968D1*
X15394Y22086D1*
X15387Y22210D1*
X15417Y22331D1*
X15480Y22438D1*
X15572Y22522D1*
X15684Y22576D1*
X15807Y22595D1*
X15931Y22578D1*
X16044Y22525D1*
X16137Y22442D1*
X16201Y22336D1*
X16233Y22215D1*
X16235Y22170D1*
X16217Y22047D1*
X11740Y21490D2*
D23*
X12136Y21094D1*
Y21886D2*
X11740Y21490D1*
X4531Y33704D2*
D32*
Y34176D1*
X7109Y34924D2*
D34*
X6282D1*
X8468Y32917D2*
D32*
X7798D1*
X8468Y34964D2*
X7798D1*
X7109Y32956D2*
D34*
X6282D1*
D37*
X5318Y30869D3*
Y37011D3*
X9078Y30869D2*
D34*
X8251D1*
X9078Y37011D2*
X8251D1*
D39*
X6893Y31578D3*
D41*
X8226Y23448D3*
Y24432D3*
X7438D3*
Y23448D3*
D43*
X6371Y26310D3*
Y21570D3*
D45*
X37660Y35490D3*
Y36490D3*
Y37490D3*
Y38490D3*
Y27430D3*
Y28430D3*
Y29430D3*
Y30430D3*
X37647Y19449D3*
Y20449D3*
Y21449D3*
Y22449D3*
X37650Y11470D3*
Y12470D3*
Y13470D3*
Y14470D3*
D48*
X10180Y42020D3*
X11740D3*
X16790D3*
X18350D3*
D45*
X19950Y41890D3*
X20950D3*
X37230Y6390D3*
X36230D3*
X35230D3*
X29140Y6420D3*
X28140D3*
X27140D3*
X25770Y6390D3*
X24770D3*
X23770D3*
X22310D3*
X21310D3*
X20310D3*
X19030Y6380D3*
X18030D3*
X16800Y6370D3*
X15800D3*
D51*
X12490Y6690D3*
X11490D3*
X10490D3*
D45*
X24590Y41910D3*
X25590D3*
X22260D3*
X23260D3*
X36430Y41930D3*
X37430D3*
X34170Y41920D3*
X35170D3*
X27500Y41930D3*
X28500D3*
D63*
X27840Y31030D3*
Y30243D3*
Y29455D3*
Y28668D3*
Y27881D3*
Y36230D3*
Y35443D3*
Y34655D3*
Y33868D3*
Y33081D3*
X5460Y19810D3*
Y19021D3*
Y18232D3*
X10715Y23100D3*
Y23888D3*
Y24675D3*
Y25462D3*
Y26250D3*
D45*
X11740Y21490D3*
X12740D3*
X11740Y20490D3*
X12740D3*
X11740Y19490D3*
X12740D3*
X24015Y22865D3*
X25015D3*
X12605Y13895D3*
Y14895D3*
X13605Y13895D3*
Y14895D3*
X14605Y13895D3*
Y14895D3*
X9420Y26960D3*
X8420D3*
D63*
X19520Y15370D3*
Y14583D3*
Y13795D3*
Y13008D3*
Y12221D3*
D45*
X37663Y34485D3*
Y39495D3*
Y26425D3*
Y31435D3*
X37651Y18445D3*
Y23455D3*
X37653Y10465D3*
Y15475D3*
D76*
X5260Y17000D3*
X5490Y10570D3*
M02*
