G04 DipTrace 2.4.0.1*
%INBottomPaste.gbr*%
%MOIN*%
%ADD44R,0.0591X0.0591*%
%ADD46C,0.0591*%
%ADD115C,0.014*%
%ADD116C,0.024*%
%ADD156C,0.0392*%
%ADD174C,0.0412*%
%ADD176C,0.0412*%
%ADD178R,0.0412X0.0412*%
%ADD202C,0.0625*%
%ADD204C,0.092*%
%ADD208R,0.092X0.092*%
%ADD210C,0.0511*%
%ADD211C,0.0511*%
%ADD213R,0.0511X0.0511*%
%ADD217C,0.1219*%
%ADD221C,0.0479*%
%ADD224C,0.0747*%
%ADD228C,0.1101*%
%ADD230O,0.1298X0.0629*%
%ADD233O,0.1298X0.0471*%
%ADD237O,0.0629X0.1101*%
%FSLAX44Y44*%
G04*
G70*
G90*
G75*
G01*
%LNBotPaste*%
%LPD*%
D116*
X4493Y10413D3*
X5000Y13610D3*
X7420Y9880D3*
X6330Y25480D3*
X19960Y5480D3*
X23460Y5130D3*
X19960Y5480D3*
X17040Y16340D3*
X24325Y19775D3*
Y20225D3*
X17350Y16080D3*
X18830Y17975D3*
X6020Y5050D3*
X6900Y16650D3*
X9460Y17950D3*
X11700Y11720D3*
X11660Y12750D3*
X4430Y12590D3*
X10830Y16570D3*
X17700Y6080D3*
X18200Y17660D3*
X17950Y15680D3*
X8870Y31500D3*
X17610Y4540D3*
X18550Y17350D3*
X17680Y16380D3*
X8525Y26925D3*
X6700Y7200D3*
X6760Y8060D3*
X5360Y14280D3*
X7371Y12359D3*
X23500Y27770D3*
X16475Y22045D3*
X23490Y28660D3*
X23470Y23310D3*
X17050Y22120D3*
X23450Y23790D3*
X24325Y20700D3*
X24395Y21080D3*
X2370Y25820D3*
Y25280D3*
X4930Y15390D3*
X7790Y33160D3*
X30170Y33510D3*
Y33050D3*
X30150Y32580D3*
X29690Y33080D3*
Y33520D3*
X29680Y32610D3*
X29220D3*
X29230Y33050D3*
X29210Y33520D3*
D115*
X28810Y31590D3*
X29150Y31580D3*
X29650D3*
X28130Y32380D3*
X28240Y32940D3*
X28000Y33150D3*
X28180Y33460D3*
X29590Y34500D3*
D116*
X30500Y34890D3*
X28290Y35210D3*
X32630Y33980D3*
X32620Y32100D3*
X30260Y31340D3*
X28410Y28560D3*
Y28920D3*
X29180D3*
X28770Y28560D3*
Y28910D3*
X29180Y28560D3*
X29400Y35330D3*
X28850D3*
X29400Y35760D3*
X28850D3*
X32040Y35620D3*
X31670D3*
X31230D3*
X26730Y35630D3*
D115*
X25893Y32195D3*
X25453Y33555D3*
Y34275D3*
X25873Y35385D3*
D116*
X26380Y31870D3*
X9890Y6790D3*
X10940Y32880D3*
X11410Y32870D3*
X11900Y32850D3*
X13210Y31950D3*
X11930Y30190D3*
X12610Y30210D3*
X12600Y29150D3*
X9440Y29580D3*
X7610Y31010D3*
X8030D3*
X7590Y29100D3*
X8060Y29080D3*
X7700Y29670D3*
Y30080D3*
X7710Y30490D3*
X10770Y35410D3*
X11100Y35020D3*
X11470Y35010D3*
X11860Y35020D3*
X5140Y34950D3*
X5540D3*
X5930D3*
X4910Y35340D3*
X12550Y25110D3*
Y24040D3*
X11720Y25160D3*
X9370Y24410D3*
X9400Y6790D3*
X10730Y27860D3*
X11130D3*
X11540Y27850D3*
X12870Y27000D3*
X18810Y34890D3*
X19720Y35600D3*
X17340Y35690D3*
X17010Y35250D3*
X22040Y35670D3*
X21700Y35230D3*
X17750Y34080D3*
X20110Y34110D3*
X33133Y30735D3*
X33123Y30345D3*
X33113Y29945D3*
X32733Y30735D3*
X32723Y30345D3*
X32713Y29945D3*
X32883Y29435D3*
X33753Y29445D3*
X33333D3*
X32863Y29005D3*
X33733Y29015D3*
X33313D3*
X31483Y28445D3*
X32213Y28455D3*
X31843D3*
X26953Y28475D3*
X27683Y28485D3*
X27313D3*
X33133Y22675D3*
X26193Y29955D3*
X33123Y22285D3*
X33113Y21885D3*
X32733Y22675D3*
X32723Y22285D3*
X32713Y21885D3*
X32883Y21375D3*
X33753Y21385D3*
X33333D3*
X30170Y25450D3*
Y24990D3*
X30150Y24520D3*
X29690Y25020D3*
Y25460D3*
X29680Y24550D3*
X29220D3*
X29230Y24990D3*
X29210Y25460D3*
D115*
X28800Y23540D3*
X29140Y23510D3*
X29670Y23500D3*
X28090Y24270D3*
X28220Y24860D3*
X28000Y25090D3*
X28240Y25390D3*
X29590Y26440D3*
D116*
X30500Y26830D3*
X28290Y27150D3*
X32630Y25920D3*
X32620Y24040D3*
X30260Y23280D3*
X28410Y20500D3*
Y20860D3*
X29180D3*
X28770Y20500D3*
Y20850D3*
X29180Y20500D3*
X29400Y27270D3*
X28850D3*
X29400Y27700D3*
X28850D3*
X32040Y27560D3*
X31670D3*
X31230D3*
X26730Y27570D3*
D115*
X25893Y24135D3*
X25453Y25495D3*
Y26215D3*
X25873Y27325D3*
D116*
X26380Y23810D3*
X32863Y20945D3*
X33733Y20955D3*
X33313D3*
X31483Y20385D3*
X32213Y20395D3*
X31843D3*
X26953Y20415D3*
X27683Y20425D3*
X27313D3*
X26193Y21895D3*
X33120Y14695D3*
X33110Y14305D3*
X33100Y13905D3*
X32720Y14695D3*
X32710Y14305D3*
X32700Y13905D3*
X32870Y13395D3*
X33740Y13405D3*
X33320D3*
X30157Y17469D3*
Y17009D3*
X30137Y16539D3*
X29677Y17039D3*
Y17479D3*
X29667Y16569D3*
X29207D3*
X29217Y17009D3*
X29197Y17479D3*
D115*
X28750Y15550D3*
X29100Y15540D3*
X29690Y15550D3*
X28130Y16320D3*
X28220Y16870D3*
X27987Y17109D3*
X28220Y17400D3*
X29577Y18459D3*
D116*
X30487Y18849D3*
X28277Y19169D3*
X32617Y17939D3*
X32607Y16059D3*
X30247Y15299D3*
X28397Y12519D3*
Y12879D3*
X29167D3*
X28757Y12519D3*
Y12869D3*
X29167Y12519D3*
X29387Y19289D3*
X28837D3*
X29387Y19719D3*
X28837D3*
X32027Y19579D3*
X31657D3*
X31217D3*
X26717Y19589D3*
D115*
X25880Y16155D3*
X25440Y17515D3*
Y18235D3*
X25860Y19345D3*
D116*
X26367Y15829D3*
X32850Y12965D3*
X33720Y12975D3*
X33300D3*
X31470Y12405D3*
X32200Y12415D3*
X31830D3*
X26940Y12435D3*
X27670Y12445D3*
X27300D3*
X26180Y13915D3*
X33123Y6715D3*
X33113Y6325D3*
X33103Y5925D3*
X32723Y6715D3*
X32713Y6325D3*
X32703Y5925D3*
X32873Y5415D3*
X33743Y5425D3*
X33323D3*
X30160Y9490D3*
Y9030D3*
X30140Y8560D3*
X29680Y9060D3*
Y9500D3*
X29670Y8590D3*
X29210D3*
X29220Y9030D3*
X29200Y9500D3*
D115*
X28840Y7580D3*
X29160Y7560D3*
X29670Y7580D3*
X28170Y8420D3*
X28225Y8900D3*
X27950Y9125D3*
X28225Y9350D3*
X29590Y10470D3*
D116*
X30490Y10870D3*
X28280Y11190D3*
X32620Y9960D3*
X32610Y8080D3*
X30250Y7320D3*
X28400Y4540D3*
Y4900D3*
X29170D3*
X28760Y4540D3*
Y4890D3*
X29170Y4540D3*
X29390Y11310D3*
X28840D3*
X29390Y11740D3*
X28840D3*
X32030Y11600D3*
X31660D3*
X31220D3*
X26720Y11610D3*
D115*
X25883Y8175D3*
X25443Y9535D3*
Y10255D3*
X25863Y11365D3*
D116*
X26370Y7850D3*
X32853Y4985D3*
X33723Y4995D3*
X33303D3*
X31473Y4425D3*
X32203Y4435D3*
X31833D3*
X26943Y4455D3*
X27673Y4465D3*
X27303D3*
X26183Y5935D3*
X22530Y34130D3*
X19625Y30250D3*
X20575D3*
Y29875D3*
X19625D3*
X20575Y30625D3*
X19625D3*
X21625Y33450D3*
X410Y39590D3*
X8140Y33150D3*
X19100Y6080D3*
X21500Y6025D3*
X10390Y6790D3*
X10880Y6780D3*
X8490Y33150D3*
X11275Y7600D3*
X11130Y8780D3*
X11680Y9090D3*
X11100Y9180D3*
X9825Y8375D3*
X4520Y11260D3*
X8840Y33140D3*
X15510Y12700D3*
X15140Y12410D3*
X14850Y14830D3*
X14560Y15410D3*
X14120Y14820D3*
X13900Y15200D3*
X13600Y15425D3*
X13300Y14970D3*
X11700Y15425D3*
X12350D3*
X12025Y15225D3*
X11230Y13220D3*
X14330Y13260D3*
X8540Y13150D3*
X20600Y25475D3*
Y25075D3*
Y24600D3*
X19625Y25475D3*
Y25075D3*
Y24600D3*
X21500Y28300D3*
X21150Y27675D3*
X21475D3*
X21800D3*
X22125D3*
X21150Y27350D3*
X21475D3*
X21800D3*
X22125D3*
X10310Y21820D3*
X9900D3*
X14575Y23275D3*
X10250Y8375D3*
Y7900D3*
X19050Y19175D3*
X18175Y18900D3*
X18475Y18575D3*
X9850Y7875D3*
X10725Y22775D3*
X11725Y22725D3*
X12025Y22950D3*
X14220Y22830D3*
X16070Y23380D3*
X9025Y23250D3*
X9475Y18600D3*
X9180Y18900D3*
X11390Y15200D3*
X11075Y15425D3*
X5375Y16175D3*
X20775Y6070D3*
X16730Y6130D3*
X15225Y5210D3*
X30260Y2460D3*
X24040Y5080D3*
X21555Y4550D3*
X16340Y5020D3*
X13200Y10590D3*
X12850Y6260D3*
X10030Y3800D3*
X12925Y4060D3*
X19560Y19870D3*
X21350Y19875D3*
X19740Y21390D3*
X9675Y15450D3*
X10325Y15475D3*
X9125Y22325D3*
X21860Y21360D3*
X5700Y16360D3*
X5980Y14970D3*
X5640Y18710D3*
X2325Y15350D3*
X23100Y6050D3*
X6990Y3825D3*
X8255Y4075D3*
X9300Y4100D3*
X7410Y11010D3*
X10675Y14100D3*
X9575Y14750D3*
X9180Y21110D3*
X9475Y19250D3*
X7670Y8700D3*
X6675Y28550D3*
X6700Y27975D3*
Y27425D3*
X6100Y32650D3*
X6075Y31725D3*
X6525D3*
Y32650D3*
X5700D3*
X5675Y31725D3*
X410Y410D3*
X35090Y39590D3*
Y410D3*
X4930Y5460D3*
X6970Y5920D3*
X8790Y5140D3*
X13860Y11520D3*
X12870Y5560D3*
X14110Y7490D3*
X6430Y9880D3*
X12960Y19400D3*
X11910Y20430D3*
X14070Y20460D3*
Y18250D3*
X11870Y18230D3*
X410Y5300D3*
Y15100D3*
Y20000D3*
Y24900D3*
Y34690D3*
X35090D3*
Y29790D3*
Y24900D3*
X5360Y39590D3*
X35090Y20000D3*
Y15100D3*
Y10200D3*
Y5310D3*
X10320Y39590D3*
X15270D3*
X20230D3*
X25180D3*
X30130D3*
X5360Y410D3*
X10320D3*
X15270D3*
X20230D3*
X25180D3*
X30130D3*
X20570Y6890D3*
X7210Y11880D3*
X16040Y13680D3*
X17640Y14920D3*
D115*
X16870Y21400D3*
D116*
X19240Y18710D3*
X22080Y19890D3*
X25700Y9070D3*
X27560Y8180D3*
X27300Y11030D3*
X25710Y17060D3*
X27290Y18900D3*
X30250Y12540D3*
X30210Y14130D3*
X27480Y16180D3*
X30460Y20590D3*
X30390Y22080D3*
X25700Y25020D3*
X27340Y26860D3*
X30350Y30100D3*
X30400Y28600D3*
X25720Y33130D3*
X27360Y34970D3*
X27510Y32210D3*
X5260Y35760D3*
X7460Y19800D3*
X8410Y18730D3*
X2370Y24610D3*
Y24040D3*
D115*
X12350Y22670D3*
X12670Y22680D3*
X12980Y22670D3*
X13290D3*
X13610D3*
X13920Y22660D3*
X9560Y17360D3*
X9600Y17030D3*
X17170Y21400D3*
X17460D3*
X18020D3*
X17740D3*
X18320D3*
X23750Y22450D3*
Y22150D3*
X23740Y21850D3*
X23390Y21880D3*
X23380Y21590D3*
X23220Y21340D3*
D237*
X590Y30000D3*
D233*
X2756Y30984D3*
D230*
X4193Y28976D3*
Y31024D3*
D233*
X2756Y29016D3*
D228*
X1378Y26929D3*
Y33071D3*
D233*
X4724Y26929D3*
Y33071D3*
D224*
X2953Y27638D3*
D221*
X4285Y19508D3*
Y20492D3*
X3498D3*
Y19508D3*
D217*
X2431Y22370D3*
Y17630D3*
D213*
X33720Y31550D3*
D210*
Y32550D3*
Y33550D3*
Y34550D3*
D213*
Y23490D3*
D210*
Y24490D3*
Y25490D3*
Y26490D3*
D213*
X33707Y15509D3*
D210*
Y16509D3*
Y17509D3*
Y18509D3*
D213*
X33710Y7530D3*
D210*
Y8530D3*
Y9530D3*
Y10530D3*
D208*
X6240Y38080D3*
D204*
X7800D3*
D208*
X12850D3*
D204*
X14410D3*
D213*
X16010Y37950D3*
D210*
X17010D3*
D213*
X33290Y2450D3*
D210*
X32290D3*
X31290D3*
D213*
X25200Y2480D3*
D210*
X24200D3*
X23200D3*
D213*
X21830Y2450D3*
D210*
X20830D3*
X19830D3*
D213*
X18370D3*
D210*
X17370D3*
X16370D3*
D213*
X15090Y2440D3*
D210*
X14090D3*
D213*
X12860Y2430D3*
D210*
X11860D3*
D202*
X8550Y2750D3*
X7550D3*
X6550D3*
D213*
X20650Y37970D3*
D210*
X21650D3*
D213*
X18320D3*
D210*
X19320D3*
D213*
X32490Y37990D3*
D210*
X33490D3*
D213*
X30230Y37980D3*
D210*
X31230D3*
D213*
X23560Y37990D3*
D210*
X24560D3*
D178*
X23900Y27090D3*
D174*
Y26303D3*
Y25515D3*
D176*
Y24728D3*
Y23940D3*
D178*
Y32290D3*
D174*
Y31503D3*
Y30715D3*
D176*
Y29928D3*
Y29140D3*
D178*
X1520Y15870D3*
D174*
Y15081D3*
Y14292D3*
D178*
X6775Y19230D3*
D174*
Y20017D3*
Y20805D3*
D176*
Y21592D3*
Y22380D3*
D44*
X7840Y17300D3*
D46*
X8840D3*
X7840Y16300D3*
X8840D3*
X7840Y15300D3*
X8840D3*
D213*
X20075Y18925D3*
D210*
X21075D3*
D44*
X8540Y11010D3*
D46*
Y12010D3*
X9540Y11010D3*
Y12010D3*
X10540Y11010D3*
Y12010D3*
D213*
X5460Y23020D3*
D210*
X4460D3*
D178*
X15580Y11430D3*
D174*
Y10643D3*
Y9855D3*
D176*
Y9068D3*
Y8280D3*
D211*
X33723Y30545D3*
Y35555D3*
Y22485D3*
Y27495D3*
X33710Y14505D3*
Y19515D3*
X33713Y6525D3*
Y11535D3*
D156*
X4630Y6150D3*
X5420Y6160D3*
M02*
