G04 DipTrace 2.4.0.1*
%INTopAssy.gbr*%
%MOIN*%
%ADD10C,0.0098*%
%ADD12C,0.003*%
%ADD24C,0.004*%
%ADD254C,0.0062*%
%FSLAX44Y44*%
G04*
G70*
G90*
G75*
G01*
%LNTopAssy*%
%LPD*%
X18820Y24700D2*
D24*
Y26590D1*
X19490Y27260D1*
X20710D1*
X21380Y26590D1*
Y24700D1*
X18820D1*
X19214Y25153D2*
X20966D1*
X18880Y25980D2*
G02X18880Y25980I1220J0D01*
G01*
G36*
X20238Y24543D2*
X19962D1*
Y24779D1*
X20238D1*
Y24543D1*
G37*
G36*
Y27181D2*
X19962D1*
Y27417D1*
X20238D1*
Y27181D1*
G37*
G36*
X19253Y25134D2*
X19470Y24957D1*
X19746Y24838D1*
X20100Y24779D1*
X20474Y24838D1*
X20749Y24976D1*
X20947Y25134D1*
X19273D1*
X19253D1*
G37*
X18830Y29895D2*
D24*
Y31785D1*
X19500Y32455D1*
X20720D1*
X21390Y31785D1*
Y29895D1*
X18830D1*
X19224Y30348D2*
X20976D1*
X18890Y31175D2*
G02X18890Y31175I1220J0D01*
G01*
G36*
X20248Y29738D2*
X19972D1*
Y29974D1*
X20248D1*
Y29738D1*
G37*
G36*
Y32376D2*
X19972D1*
Y32612D1*
X20248D1*
Y32376D1*
G37*
G36*
X19263Y30329D2*
X19480Y30152D1*
X19756Y30033D1*
X20110Y29974D1*
X20484Y30033D1*
X20759Y30171D1*
X20957Y30329D1*
X19283D1*
X19263D1*
G37*
X6185Y33480D2*
D24*
X8075D1*
X8745Y32810D1*
Y31590D1*
X8075Y30920D1*
X6185D1*
Y33480D1*
X6638Y33086D2*
Y31334D1*
X6245Y32200D2*
G02X6245Y32200I1220J0D01*
G01*
G36*
X6028Y32062D2*
X6264D1*
Y32338D1*
X6028D1*
Y32062D1*
G37*
G36*
X8666D2*
X8902D1*
Y32338D1*
X8666D1*
Y32062D1*
G37*
G36*
X6619Y33047D2*
X6442Y32830D1*
X6323Y32554D1*
X6264Y32200D1*
X6323Y31826D1*
X6461Y31551D1*
X6619Y31353D1*
Y33027D1*
Y33047D1*
G37*
X28995Y30820D2*
D24*
X30885D1*
X31555Y30150D1*
Y28930D1*
X30885Y28260D1*
X28995D1*
Y30820D1*
X29448Y30426D2*
Y28674D1*
X29055Y29540D2*
G02X29055Y29540I1220J0D01*
G01*
G36*
X28838Y29402D2*
X29074D1*
Y29678D1*
X28838D1*
Y29402D1*
G37*
G36*
X31476D2*
X31712D1*
Y29678D1*
X31476D1*
Y29402D1*
G37*
G36*
X29429Y30387D2*
X29252Y30170D1*
X29133Y29894D1*
X29074Y29540D1*
X29133Y29166D1*
X29271Y28891D1*
X29429Y28693D1*
Y30367D1*
Y30387D1*
G37*
X28995Y22760D2*
D24*
X30885D1*
X31555Y22090D1*
Y20870D1*
X30885Y20200D1*
X28995D1*
Y22760D1*
X29448Y22366D2*
Y20614D1*
X29055Y21480D2*
G02X29055Y21480I1220J0D01*
G01*
G36*
X28838Y21342D2*
X29074D1*
Y21618D1*
X28838D1*
Y21342D1*
G37*
G36*
X31476D2*
X31712D1*
Y21618D1*
X31476D1*
Y21342D1*
G37*
G36*
X29429Y22327D2*
X29252Y22110D1*
X29133Y21834D1*
X29074Y21480D1*
X29133Y21106D1*
X29271Y20831D1*
X29429Y20633D1*
Y22307D1*
Y22327D1*
G37*
X28983Y14779D2*
D24*
X30873D1*
X31542Y14110D1*
Y12889D1*
X30873Y12220D1*
X28983D1*
Y14779D1*
X29436Y14385D2*
Y12633D1*
X29042Y13499D2*
G02X29042Y13499I1220J0D01*
G01*
G36*
X28826Y13362D2*
X29062D1*
Y13637D1*
X28826D1*
Y13362D1*
G37*
G36*
X31463D2*
X31699D1*
Y13637D1*
X31463D1*
Y13362D1*
G37*
G36*
X29416Y14346D2*
X29239Y14129D1*
X29121Y13854D1*
X29062Y13499D1*
X29121Y13125D1*
X29258Y12850D1*
X29416Y12653D1*
Y14326D1*
Y14346D1*
G37*
X28985Y6800D2*
D24*
X30875D1*
X31545Y6130D1*
Y4910D1*
X30875Y4240D1*
X28985D1*
Y6800D1*
X29438Y6406D2*
Y4654D1*
X29045Y5520D2*
G02X29045Y5520I1220J0D01*
G01*
G36*
X28828Y5382D2*
X29064D1*
Y5658D1*
X28828D1*
Y5382D1*
G37*
G36*
X31466D2*
X31702D1*
Y5658D1*
X31466D1*
Y5382D1*
G37*
G36*
X29419Y6367D2*
X29242Y6150D1*
X29123Y5874D1*
X29064Y5520D1*
X29123Y5146D1*
X29261Y4871D1*
X29419Y4673D1*
Y6347D1*
Y6367D1*
G37*
X5118Y33150D2*
D10*
X-1575D1*
Y26850D1*
X5118D1*
Y33150D1*
X4823Y22321D2*
X-1575D1*
Y17680D1*
X4823D1*
Y22321D1*
X2910Y6360D2*
D12*
X3660D1*
X2900Y6330D2*
X3704D1*
X2891Y6300D2*
X3741D1*
X2885Y6270D2*
X3772D1*
X2881Y6240D2*
X3795D1*
X2876Y6210D2*
X3813D1*
X2868Y6180D2*
X3826D1*
X2860Y6150D2*
X3834D1*
X2855Y6120D2*
X3837D1*
X2852Y6090D2*
X3839D1*
X2850Y6060D2*
X3840D1*
X2845Y6030D2*
X3840D1*
X2838Y6000D2*
X3209D1*
X3276D2*
X3840D1*
X2830Y5970D2*
X3205D1*
X3358D2*
X3840D1*
X2825Y5940D2*
X3198D1*
X3395D2*
X3840D1*
X2821Y5910D2*
X3190D1*
X3408D2*
X3840D1*
X2816Y5880D2*
X3185D1*
X3415D2*
X3840D1*
X2808Y5850D2*
X3182D1*
X3418D2*
X3839D1*
X2800Y5820D2*
X3181D1*
X3419D2*
X3835D1*
X2795Y5790D2*
X3180D1*
X3420D2*
X3827D1*
X2792Y5760D2*
X3180D1*
X3419D2*
X3815D1*
X2790Y5730D2*
X3179D1*
X3414D2*
X3803D1*
X2785Y5700D2*
X3175D1*
X3404D2*
X3791D1*
X2778Y5670D2*
X3168D1*
X3378D2*
X3779D1*
X2770Y5640D2*
X3159D1*
X3316D2*
X3764D1*
X2765Y5610D2*
X3150D1*
X3227D2*
X3743D1*
X2761Y5580D2*
X3717D1*
X2756Y5550D2*
X3688D1*
X2748Y5520D2*
X3655D1*
X2740Y5490D2*
X3617D1*
X2735Y5460D2*
X3579D1*
X2732Y5430D2*
X3540D1*
X2730Y5400D2*
X3584D1*
X2725Y5370D2*
X3621D1*
X2718Y5340D2*
X3651D1*
X2710Y5310D2*
X3674D1*
X2705Y5280D2*
X3682D1*
X2702Y5250D2*
X3687D1*
X2700Y5220D2*
X3089D1*
X3264D2*
X3689D1*
X2695Y5190D2*
X3085D1*
X3282D2*
X3688D1*
X2688Y5160D2*
X3078D1*
X3292D2*
X3685D1*
X2680Y5130D2*
X3070D1*
X3296D2*
X3678D1*
X2675Y5100D2*
X3065D1*
X3298D2*
X3670D1*
X2671Y5070D2*
X3061D1*
X3295D2*
X3665D1*
X2666Y5040D2*
X3056D1*
X3288D2*
X3662D1*
X2658Y5010D2*
X3048D1*
X3280D2*
X3661D1*
X2650Y4980D2*
X3040D1*
X3275D2*
X3660D1*
X2645Y4950D2*
X3035D1*
X3272D2*
X3659D1*
X2642Y4920D2*
X3031D1*
X3271D2*
X3655D1*
X2640Y4890D2*
X3026D1*
X3269D2*
X3648D1*
X2635Y4860D2*
X3018D1*
X3265D2*
X3640D1*
X2628Y4830D2*
X3010D1*
X3258D2*
X3635D1*
X2620Y4800D2*
X3005D1*
X3250D2*
X3632D1*
X2615Y4770D2*
X3002D1*
X3245D2*
X3631D1*
X2611Y4740D2*
X3000D1*
X3242D2*
X3630D1*
X2606Y4710D2*
X2995D1*
X3241D2*
X3630D1*
X2598Y4680D2*
X2988D1*
X3239D2*
X3630D1*
X2590Y4650D2*
X2980D1*
X3235D2*
X3630D1*
X2585Y4620D2*
X2975D1*
X3228D2*
X3630D1*
X2582Y4590D2*
X2972D1*
X3220D2*
X3630D1*
X2581Y4560D2*
X2971D1*
X3214D2*
X3630D1*
X2580Y4530D2*
X2970D1*
X3210D2*
X3630D1*
X2910Y6360D2*
X2900Y6330D1*
X2891Y6300D1*
X2885Y6270D1*
X2881Y6240D1*
X2876Y6210D1*
X2868Y6180D1*
X2860Y6150D1*
X2855Y6120D1*
X2852Y6090D1*
X2850Y6060D1*
X2845Y6030D1*
X2838Y6000D1*
X2830Y5970D1*
X2825Y5940D1*
X2821Y5910D1*
X2816Y5880D1*
X2808Y5850D1*
X2800Y5820D1*
X2795Y5790D1*
X2792Y5760D1*
X2790Y5730D1*
X2785Y5700D1*
X2778Y5670D1*
X2770Y5640D1*
X2765Y5610D1*
X2761Y5580D1*
X2756Y5550D1*
X2748Y5520D1*
X2740Y5490D1*
X2735Y5460D1*
X2732Y5430D1*
X2730Y5400D1*
X2725Y5370D1*
X2718Y5340D1*
X2710Y5310D1*
X2705Y5280D1*
X2702Y5250D1*
X2700Y5220D1*
X2695Y5190D1*
X2688Y5160D1*
X2680Y5130D1*
X2675Y5100D1*
X2671Y5070D1*
X2666Y5040D1*
X2658Y5010D1*
X2650Y4980D1*
X2645Y4950D1*
X2642Y4920D1*
X2640Y4890D1*
X2635Y4860D1*
X2628Y4830D1*
X2620Y4800D1*
X2615Y4770D1*
X2611Y4740D1*
X2606Y4710D1*
X2598Y4680D1*
X2590Y4650D1*
X2585Y4620D1*
X2582Y4590D1*
X2581Y4560D1*
X2580Y4530D1*
X3660Y6360D2*
X3704Y6330D1*
X3741Y6300D1*
X3772Y6270D1*
X3795Y6240D1*
X3813Y6210D1*
X3826Y6180D1*
X3834Y6150D1*
X3837Y6120D1*
X3839Y6090D1*
X3840Y6060D1*
Y6030D1*
Y6000D1*
Y5970D1*
Y5940D1*
Y5910D1*
Y5880D1*
X3839Y5850D1*
X3835Y5820D1*
X3827Y5790D1*
X3815Y5760D1*
X3803Y5730D1*
X3791Y5700D1*
X3779Y5670D1*
X3764Y5640D1*
X3743Y5610D1*
X3717Y5580D1*
X3688Y5550D1*
X3655Y5520D1*
X3617Y5490D1*
X3579Y5460D1*
X3540Y5430D1*
X3584Y5400D1*
X3621Y5370D1*
X3651Y5340D1*
X3674Y5310D1*
X3682Y5280D1*
X3687Y5250D1*
X3689Y5220D1*
X3688Y5190D1*
X3685Y5160D1*
X3678Y5130D1*
X3670Y5100D1*
X3665Y5070D1*
X3662Y5040D1*
X3661Y5010D1*
X3660Y4980D1*
X3659Y4950D1*
X3655Y4920D1*
X3648Y4890D1*
X3640Y4860D1*
X3635Y4830D1*
X3632Y4800D1*
X3631Y4770D1*
X3630Y4740D1*
Y4710D1*
Y4680D1*
Y4650D1*
Y4620D1*
Y4590D1*
Y4560D1*
Y4530D1*
X3210Y6030D2*
X3209Y6000D1*
X3205Y5970D1*
X3198Y5940D1*
X3190Y5910D1*
X3185Y5880D1*
X3182Y5850D1*
X3181Y5820D1*
X3180Y5790D1*
Y5760D1*
X3179Y5730D1*
X3175Y5700D1*
X3168Y5670D1*
X3159Y5640D1*
X3150Y5610D1*
X3270Y5580D1*
X3180Y6030D2*
X3276Y6000D1*
X3358Y5970D1*
X3395Y5940D1*
X3408Y5910D1*
X3415Y5880D1*
X3418Y5850D1*
X3419Y5820D1*
X3420Y5790D1*
X3419Y5760D1*
X3414Y5730D1*
X3404Y5700D1*
X3378Y5670D1*
X3316Y5640D1*
X3227Y5610D1*
X3120Y5580D1*
X3090Y5250D2*
X3089Y5220D1*
X3085Y5190D1*
X3078Y5160D1*
X3070Y5130D1*
X3065Y5100D1*
X3061Y5070D1*
X3056Y5040D1*
X3048Y5010D1*
X3040Y4980D1*
X3035Y4950D1*
X3031Y4920D1*
X3026Y4890D1*
X3018Y4860D1*
X3010Y4830D1*
X3005Y4800D1*
X3002Y4770D1*
X3000Y4740D1*
X2995Y4710D1*
X2988Y4680D1*
X2980Y4650D1*
X2975Y4620D1*
X2972Y4590D1*
X2971Y4560D1*
X2970Y4530D1*
X3240Y5250D2*
X3264Y5220D1*
X3282Y5190D1*
X3292Y5160D1*
X3296Y5130D1*
X3298Y5100D1*
X3295Y5070D1*
X3288Y5040D1*
X3280Y5010D1*
X3275Y4980D1*
X3272Y4950D1*
X3271Y4920D1*
X3269Y4890D1*
X3265Y4860D1*
X3258Y4830D1*
X3250Y4800D1*
X3245Y4770D1*
X3242Y4740D1*
X3241Y4710D1*
X3239Y4680D1*
X3235Y4650D1*
X3228Y4620D1*
X3220Y4590D1*
X3214Y4560D1*
X3210Y4530D1*
X-16130Y19665D2*
D254*
X-16034Y19263D1*
X-15939Y19665D1*
X-15843Y19263D1*
X-15747Y19665D1*
X-15624D2*
Y19263D1*
Y19455D2*
X-15566Y19512D1*
X-15528Y19531D1*
X-15470D1*
X-15432Y19512D1*
X-15413Y19455D1*
Y19263D1*
X-15060Y19531D2*
Y19263D1*
Y19474D2*
X-15098Y19512D1*
X-15137Y19531D1*
X-15194D1*
X-15232Y19512D1*
X-15270Y19474D1*
X-15290Y19416D1*
Y19378D1*
X-15270Y19321D1*
X-15232Y19283D1*
X-15194Y19263D1*
X-15137D1*
X-15098Y19283D1*
X-15060Y19321D1*
X-14879Y19665D2*
Y19340D1*
X-14860Y19283D1*
X-14822Y19263D1*
X-14784D1*
X-14937Y19531D2*
X-14803D1*
X-14271Y19665D2*
Y19263D1*
Y19455D2*
X-14214Y19512D1*
X-14175Y19531D1*
X-14118D1*
X-14080Y19512D1*
X-14061Y19455D1*
Y19263D1*
X-13708Y19531D2*
Y19263D1*
Y19474D2*
X-13746Y19512D1*
X-13784Y19531D1*
X-13841D1*
X-13880Y19512D1*
X-13918Y19474D1*
X-13937Y19416D1*
Y19378D1*
X-13918Y19321D1*
X-13880Y19283D1*
X-13841Y19263D1*
X-13784D1*
X-13746Y19283D1*
X-13708Y19321D1*
X-13584Y19531D2*
Y19129D1*
Y19474D2*
X-13546Y19512D1*
X-13508Y19531D1*
X-13450D1*
X-13412Y19512D1*
X-13374Y19474D1*
X-13354Y19416D1*
Y19378D1*
X-13374Y19321D1*
X-13412Y19282D1*
X-13450Y19263D1*
X-13508D1*
X-13546Y19282D1*
X-13584Y19321D1*
X-13231Y19531D2*
Y19129D1*
Y19474D2*
X-13192Y19512D1*
X-13154Y19531D1*
X-13097D1*
X-13058Y19512D1*
X-13020Y19474D1*
X-13001Y19416D1*
Y19378D1*
X-13020Y19321D1*
X-13058Y19282D1*
X-13097Y19263D1*
X-13154D1*
X-13192Y19282D1*
X-13231Y19321D1*
X-12877Y19416D2*
X-12648D1*
Y19455D1*
X-12667Y19493D1*
X-12686Y19512D1*
X-12724Y19531D1*
X-12782D1*
X-12820Y19512D1*
X-12858Y19474D1*
X-12877Y19416D1*
Y19378D1*
X-12858Y19321D1*
X-12820Y19283D1*
X-12782Y19263D1*
X-12724D1*
X-12686Y19283D1*
X-12648Y19321D1*
X-12524Y19531D2*
Y19263D1*
Y19455D2*
X-12467Y19512D1*
X-12429Y19531D1*
X-12371D1*
X-12333Y19512D1*
X-12314Y19455D1*
Y19263D1*
X-12190Y19416D2*
X-11961D1*
Y19455D1*
X-11980Y19493D1*
X-11999Y19512D1*
X-12037Y19531D1*
X-12095D1*
X-12133Y19512D1*
X-12171Y19474D1*
X-12190Y19416D1*
Y19378D1*
X-12171Y19321D1*
X-12133Y19283D1*
X-12095Y19263D1*
X-12037D1*
X-11999Y19283D1*
X-11961Y19321D1*
X-11608Y19665D2*
Y19263D1*
Y19474D2*
X-11646Y19512D1*
X-11685Y19531D1*
X-11742D1*
X-11780Y19512D1*
X-11818Y19474D1*
X-11837Y19416D1*
Y19378D1*
X-11818Y19321D1*
X-11780Y19283D1*
X-11742Y19263D1*
X-11685D1*
X-11646Y19283D1*
X-11608Y19321D1*
X-11038Y19665D2*
Y19340D1*
X-11019Y19283D1*
X-10981Y19263D1*
X-10943D1*
X-11096Y19531D2*
X-10962D1*
X-10724D2*
X-10762Y19512D1*
X-10800Y19474D1*
X-10819Y19416D1*
Y19378D1*
X-10800Y19321D1*
X-10762Y19283D1*
X-10724Y19263D1*
X-10666D1*
X-10628Y19283D1*
X-10590Y19321D1*
X-10570Y19378D1*
Y19416D1*
X-10590Y19474D1*
X-10628Y19512D1*
X-10666Y19531D1*
X-10724D1*
X-10000Y19665D2*
Y19340D1*
X-9981Y19283D1*
X-9943Y19263D1*
X-9905D1*
X-10058Y19531D2*
X-9924D1*
X-9781Y19665D2*
Y19263D1*
Y19455D2*
X-9724Y19512D1*
X-9685Y19531D1*
X-9628D1*
X-9590Y19512D1*
X-9571Y19455D1*
Y19263D1*
X-9447Y19416D2*
X-9218D1*
Y19455D1*
X-9237Y19493D1*
X-9256Y19512D1*
X-9294Y19531D1*
X-9352D1*
X-9390Y19512D1*
X-9428Y19474D1*
X-9447Y19416D1*
Y19378D1*
X-9428Y19321D1*
X-9390Y19283D1*
X-9352Y19263D1*
X-9294D1*
X-9256Y19283D1*
X-9218Y19321D1*
X-8706Y19665D2*
Y19378D1*
X-8687Y19321D1*
X-8648Y19283D1*
X-8591Y19263D1*
X-8553D1*
X-8495Y19283D1*
X-8457Y19321D1*
X-8438Y19378D1*
Y19665D1*
X-8046Y19608D2*
X-8084Y19646D1*
X-8142Y19665D1*
X-8218D1*
X-8276Y19646D1*
X-8314Y19608D1*
Y19570D1*
X-8295Y19531D1*
X-8276Y19512D1*
X-8238Y19493D1*
X-8123Y19455D1*
X-8084Y19436D1*
X-8065Y19416D1*
X-8046Y19378D1*
Y19321D1*
X-8084Y19283D1*
X-8142Y19263D1*
X-8218D1*
X-8276Y19283D1*
X-8314Y19321D1*
X-7923Y19665D2*
Y19263D1*
X-7750D1*
X-7693Y19283D1*
X-7674Y19302D1*
X-7655Y19340D1*
Y19397D1*
X-7674Y19436D1*
X-7693Y19455D1*
X-7750Y19474D1*
X-7693Y19493D1*
X-7674Y19512D1*
X-7655Y19550D1*
Y19589D1*
X-7674Y19627D1*
X-7693Y19646D1*
X-7750Y19665D1*
X-7923D1*
Y19474D2*
X-7750D1*
X-7027Y19665D2*
X-7066Y19646D1*
X-7104Y19608D1*
X-7123Y19570D1*
X-7142Y19512D1*
Y19416D1*
X-7123Y19359D1*
X-7104Y19321D1*
X-7066Y19283D1*
X-7027Y19263D1*
X-6951D1*
X-6913Y19283D1*
X-6875Y19321D1*
X-6856Y19359D1*
X-6836Y19416D1*
Y19512D1*
X-6856Y19570D1*
X-6875Y19608D1*
X-6913Y19646D1*
X-6951Y19665D1*
X-7027D1*
X-6713Y19531D2*
X-6598Y19263D1*
X-6483Y19531D1*
X-6360Y19416D2*
X-6131D1*
Y19455D1*
X-6150Y19493D1*
X-6169Y19512D1*
X-6207Y19531D1*
X-6264D1*
X-6303Y19512D1*
X-6341Y19474D1*
X-6360Y19416D1*
Y19378D1*
X-6341Y19321D1*
X-6303Y19283D1*
X-6264Y19263D1*
X-6207D1*
X-6169Y19283D1*
X-6131Y19321D1*
X-6007Y19531D2*
Y19263D1*
Y19416D2*
X-5988Y19474D1*
X-5950Y19512D1*
X-5911Y19531D1*
X-5854D1*
X-5730Y19665D2*
Y19263D1*
X-5377Y19531D2*
Y19263D1*
Y19474D2*
X-5415Y19512D1*
X-5454Y19531D1*
X-5511D1*
X-5549Y19512D1*
X-5587Y19474D1*
X-5607Y19416D1*
Y19378D1*
X-5587Y19321D1*
X-5549Y19283D1*
X-5511Y19263D1*
X-5454D1*
X-5415Y19283D1*
X-5377Y19321D1*
X-5234Y19531D2*
X-5120Y19263D1*
X-5158Y19187D1*
X-5196Y19148D1*
X-5234Y19129D1*
X-5254D1*
X-5005Y19531D2*
X-5120Y19263D1*
X-4416Y19666D2*
X-4396Y19647D1*
X-4377Y19666D1*
X-4396Y19685D1*
X-4416Y19666D1*
X-4396Y19532D2*
Y19206D1*
X-4416Y19149D1*
X-4454Y19130D1*
X-4492D1*
X-4254Y19531D2*
Y19340D1*
X-4235Y19283D1*
X-4196Y19263D1*
X-4139D1*
X-4101Y19283D1*
X-4043Y19340D1*
Y19531D2*
Y19263D1*
X-3920Y19531D2*
Y19263D1*
Y19455D2*
X-3862Y19512D1*
X-3824Y19531D1*
X-3767D1*
X-3728Y19512D1*
X-3709Y19455D1*
Y19263D1*
Y19455D2*
X-3652Y19512D1*
X-3613Y19531D1*
X-3556D1*
X-3518Y19512D1*
X-3498Y19455D1*
Y19263D1*
X-3375Y19531D2*
Y19129D1*
Y19474D2*
X-3336Y19512D1*
X-3298Y19531D1*
X-3241D1*
X-3202Y19512D1*
X-3164Y19474D1*
X-3145Y19416D1*
Y19378D1*
X-3164Y19321D1*
X-3202Y19282D1*
X-3241Y19263D1*
X-3298D1*
X-3336Y19282D1*
X-3375Y19321D1*
X-3022Y19416D2*
X-2792D1*
Y19455D1*
X-2811Y19493D1*
X-2830Y19512D1*
X-2869Y19531D1*
X-2926D1*
X-2964Y19512D1*
X-3002Y19474D1*
X-3022Y19416D1*
Y19378D1*
X-3002Y19321D1*
X-2964Y19283D1*
X-2926Y19263D1*
X-2869D1*
X-2830Y19283D1*
X-2792Y19321D1*
X-2669Y19531D2*
Y19263D1*
Y19416D2*
X-2649Y19474D1*
X-2611Y19512D1*
X-2573Y19531D1*
X-2515D1*
X-2392Y19569D2*
Y19588D1*
X-2373Y19627D1*
X-2353Y19646D1*
X-2315Y19665D1*
X-2239D1*
X-2200Y19646D1*
X-2181Y19627D1*
X-2162Y19588D1*
Y19550D1*
X-2181Y19512D1*
X-2200Y19493D1*
X-2277Y19455D1*
Y19397D1*
Y19302D2*
X-2296Y19282D1*
X-2277Y19263D1*
X-2258Y19282D1*
X-2277Y19302D1*
M02*
