G04 DipTrace 2.4.0.1*
%INTopSilk.gbr*%
%MOIN*%
%ADD10C,0.0098*%
%ADD12C,0.003*%
%ADD17C,0.006*%
%ADD24C,0.004*%
%ADD52C,0.0157*%
%ADD67C,0.0154*%
%ADD72C,0.0236*%
%ADD78C,0.0153*%
%ADD250C,0.0046*%
%ADD251C,0.0077*%
%ADD252C,0.0262*%
%ADD253C,0.0093*%
%FSLAX44Y44*%
G04*
G70*
G90*
G75*
G01*
%LNTopSilk*%
%LPD*%
X19726Y24700D2*
D24*
X18820D1*
Y26590D1*
X19490Y27260D1*
X19726D1*
X20474D2*
X20710D1*
X21380Y26590D1*
Y24700D1*
X20474D1*
X19726Y27142D2*
G03X19726Y24819I374J-1161D01*
G01*
X20474D2*
G03X20474Y27142I-374J1161D01*
G01*
X19736Y29895D2*
X18830D1*
Y31785D1*
X19500Y32455D1*
X19736D1*
X20484D2*
X20720D1*
X21390Y31785D1*
Y29895D1*
X20484D1*
X19736Y32337D2*
G03X19736Y30014I374J-1161D01*
G01*
X20484D2*
G03X20484Y32337I-374J1161D01*
G01*
X10742Y23565D2*
D10*
Y22935D1*
X10817Y23565D2*
Y22935D1*
Y23565D2*
X10581D1*
X10817Y22935D2*
X10581D1*
X7953Y14554D2*
X8267D1*
X6185Y32574D2*
D24*
Y33480D1*
X8075D1*
X8745Y32810D1*
Y32574D1*
Y31826D2*
Y31590D1*
X8075Y30920D1*
X6185D1*
Y31826D1*
X8627Y32574D2*
G03X6304Y32574I-1161J-374D01*
G01*
Y31826D2*
G03X8627Y31826I1161J374D01*
G01*
X8224Y28687D2*
D10*
Y28373D1*
X12806Y10023D2*
Y10337D1*
X8224Y28127D2*
Y27813D1*
X11074Y4327D2*
Y4013D1*
X13979Y4667D2*
Y4353D1*
X3467Y16190D2*
Y15560D1*
X3542Y16190D2*
Y15560D1*
Y16190D2*
X3306D1*
X3542Y15560D2*
X3306D1*
X6680Y4917D2*
X7310D1*
X6680Y4992D2*
X7310D1*
X6680D2*
Y4756D1*
X7310Y4992D2*
Y4756D1*
X11124Y14932D2*
Y14618D1*
X14626Y23153D2*
Y23467D1*
X8234Y27577D2*
Y27263D1*
X11384Y29965D2*
Y29335D1*
X11459Y29965D2*
Y29335D1*
Y29965D2*
X11223D1*
X11459Y29335D2*
X11223D1*
X21860Y25642D2*
X22490D1*
X21860Y25717D2*
X22490D1*
X21860D2*
Y25481D1*
X22490Y25717D2*
Y25481D1*
X9963Y24052D2*
X9648D1*
X10604Y28497D2*
Y28183D1*
X13257Y26858D2*
X13572D1*
X11262Y24885D2*
Y24255D1*
X11337Y24885D2*
Y24255D1*
Y24885D2*
X11101D1*
X11337Y24255D2*
X11101D1*
X21715Y30902D2*
X22345D1*
X21715Y30977D2*
X22345D1*
X21715D2*
Y30741D1*
X22345Y30977D2*
Y30741D1*
X10050Y29226D2*
X9735D1*
X11064Y33617D2*
Y33303D1*
X13515Y31894D2*
X13830D1*
X9143Y5526D2*
X9457D1*
X8093Y5501D2*
X8407D1*
X13397Y5206D2*
X13083D1*
X14268Y14674D2*
X14582D1*
X3467Y15115D2*
Y14485D1*
X3542Y15115D2*
Y14485D1*
Y15115D2*
X3306D1*
X3542Y14485D2*
X3306D1*
X9682Y22026D2*
X9368D1*
X14514Y23447D2*
Y23133D1*
X11068Y14624D2*
X11382D1*
X6444Y18267D2*
Y17953D1*
X28113Y32074D2*
X28427D1*
X29424Y34857D2*
Y34543D1*
X29803Y35624D2*
X30117D1*
X28034Y33707D2*
Y33393D1*
X27693Y35574D2*
X28007D1*
X28995Y29914D2*
D24*
Y30820D1*
X30885D1*
X31555Y30150D1*
Y29914D1*
Y29166D2*
Y28930D1*
X30885Y28260D1*
X28995D1*
Y29166D1*
X31437Y29914D2*
G03X29114Y29914I-1161J-374D01*
G01*
Y29166D2*
G03X31437Y29166I1161J374D01*
G01*
X28113Y24014D2*
D10*
X28427D1*
X29424Y26797D2*
Y26483D1*
X29803Y27564D2*
X30117D1*
X28034Y25647D2*
Y25333D1*
X27693Y27514D2*
X28007D1*
X28995Y21854D2*
D24*
Y22760D1*
X30885D1*
X31555Y22090D1*
Y21854D1*
Y21106D2*
Y20870D1*
X30885Y20200D1*
X28995D1*
Y21106D1*
X31437Y21854D2*
G03X29114Y21854I-1161J-374D01*
G01*
Y21106D2*
G03X31437Y21106I1161J374D01*
G01*
X28100Y16033D2*
D10*
X28415D1*
X29411Y18817D2*
Y18502D1*
X29790Y19583D2*
X30105D1*
X28021Y17667D2*
Y17352D1*
X27680Y19533D2*
X27995D1*
X28983Y13873D2*
D24*
Y14779D1*
X30873D1*
X31542Y14110D1*
Y13873D1*
Y13125D2*
Y12889D1*
X30873Y12220D1*
X28983D1*
Y13125D1*
X31424Y13873D2*
G03X29101Y13873I-1161J-374D01*
G01*
Y13125D2*
G03X31424Y13125I1161J374D01*
G01*
X28103Y8054D2*
D10*
X28417D1*
X29414Y10837D2*
Y10523D1*
X29793Y11604D2*
X30107D1*
X28024Y9687D2*
Y9373D1*
X27683Y11554D2*
X27997D1*
X28985Y5894D2*
D24*
Y6800D1*
X30875D1*
X31545Y6130D1*
Y5894D1*
Y5146D2*
Y4910D1*
X30875Y4240D1*
X28985D1*
Y5146D1*
X31427Y5894D2*
G03X29104Y5894I-1161J-374D01*
G01*
Y5146D2*
G03X31427Y5146I1161J374D01*
G01*
X0Y33150D2*
D10*
Y26850D1*
X3740Y33150D2*
X2165D1*
X5118Y32460D2*
Y27540D1*
X3740Y26850D2*
X2165D1*
X3219Y22419D2*
X4921D1*
Y17581D1*
X3219D1*
X35049Y35070D2*
X32450D1*
X35049Y31030D2*
Y35070D1*
Y31030D2*
X32450D1*
Y35070D1*
X35049Y27010D2*
X32450D1*
X35049Y22970D2*
Y27010D1*
Y22970D2*
X32450D1*
Y27010D1*
X35036Y19029D2*
X32438D1*
X35036Y14990D2*
Y19029D1*
Y14990D2*
X32438D1*
Y19029D1*
X35039Y11050D2*
X32440D1*
X35039Y7010D2*
Y11050D1*
Y7010D2*
X32440D1*
Y11050D1*
X5460Y39880D2*
X8580D1*
Y36880D1*
X5460D1*
Y39880D1*
X12070D2*
X15190D1*
Y36880D1*
X12070D1*
Y39880D1*
X17530Y36621D2*
Y39220D1*
X15490Y36621D2*
X17530D1*
X15490D2*
Y39220D1*
X17530D1*
X30770Y3779D2*
Y1180D1*
X33810Y3779D2*
X30770D1*
X33810D2*
Y1180D1*
X30770D1*
X22680Y3809D2*
Y1210D1*
X25720Y3809D2*
X22680D1*
X25720D2*
Y1210D1*
X22680D1*
X19310Y3779D2*
Y1180D1*
X22350Y3779D2*
X19310D1*
X22350D2*
Y1180D1*
X19310D1*
X15850Y3779D2*
Y1180D1*
X18890Y3779D2*
X15850D1*
X18890D2*
Y1180D1*
X15850D1*
X13570Y3769D2*
Y1170D1*
X15610Y3769D2*
X13570D1*
X15610D2*
Y1170D1*
X13570D1*
X11340Y3759D2*
Y1160D1*
X13380Y3759D2*
X11340D1*
X13380D2*
Y1160D1*
X11340D1*
X11093Y1152D2*
X4007D1*
Y3750D1*
X11093D1*
Y1152D1*
X22170Y36641D2*
Y39240D1*
X20130Y36641D2*
X22170D1*
X20130D2*
Y39240D1*
X22170D1*
X19840Y36641D2*
Y39240D1*
X17800Y36641D2*
X19840D1*
X17800D2*
Y39240D1*
X19840D1*
X34010Y36661D2*
Y39260D1*
X31970Y36661D2*
X34010D1*
X31970D2*
Y39260D1*
X34010D1*
X31750Y36651D2*
Y39250D1*
X29710Y36651D2*
X31750D1*
X29710D2*
Y39250D1*
X31750D1*
X25080Y36661D2*
Y39260D1*
X23040Y36661D2*
X25080D1*
X23040D2*
Y39260D1*
X25080D1*
X21385Y28482D2*
Y28168D1*
X13615Y29280D2*
X12906D1*
X13615Y30160D2*
X12906D1*
D52*
X14429Y29720D3*
X13544Y24122D2*
D10*
X12836D1*
X13544Y25002D2*
X12836D1*
D52*
X14358Y24562D3*
X21354Y33597D2*
D10*
Y33283D1*
X11545Y10973D2*
Y11287D1*
X11855Y12363D2*
Y12677D1*
X6490Y9998D2*
Y10706D1*
X7370Y9998D2*
Y10706D1*
D52*
X6930Y9184D3*
X6557Y30739D2*
D10*
X8132D1*
X6557Y29321D2*
X8132D1*
X1836Y34547D2*
X1995D1*
X1836Y34153D2*
X1995D1*
X1836D2*
Y34547D1*
X1912Y34153D2*
Y34547D1*
X5577Y17264D2*
Y17105D1*
X5183Y17264D2*
Y17105D1*
Y17264D2*
X5577D1*
X5183Y17188D2*
X5577D1*
X3136Y34567D2*
X3295D1*
X3136Y34173D2*
X3295D1*
X3136D2*
Y34567D1*
X3212Y34173D2*
Y34567D1*
X-561Y12972D2*
X-559Y9607D1*
X-835Y7028D2*
Y8425D1*
X-775Y7028D2*
X425D1*
X1390Y6968D2*
X5327D1*
Y8819D1*
X-559Y9607D2*
G02X-835Y8425I-3659J231D01*
G01*
X1390Y13031D2*
X4343D1*
X-559Y12972D2*
X524D1*
X24590Y27877D2*
X22720D1*
Y23153D1*
X24590D1*
Y27877D1*
Y33077D2*
X22720D1*
Y28353D1*
X24590D1*
Y33077D1*
X2208Y16735D2*
X339D1*
Y13427D1*
X2208D1*
Y16735D1*
X6085Y18443D2*
X7955D1*
Y23167D1*
X6085D1*
Y18443D1*
X7340Y16717D2*
Y14800D1*
Y17800D2*
Y14800D1*
X9340Y17800D2*
Y14800D1*
X7340Y17800D2*
X9340D1*
X7340Y14800D2*
X9340D1*
X21575Y18425D2*
Y19425D1*
X19575Y18425D2*
X21575D1*
X19575D2*
Y19425D1*
X21575D1*
X9123Y10510D2*
X11040D1*
X8040D2*
X11040D1*
X8040Y12510D2*
X11040D1*
X8040Y10510D2*
Y12510D1*
X11040Y10510D2*
Y12510D1*
X3960Y23520D2*
Y22520D1*
X5960Y23520D2*
X3960D1*
X5960D2*
Y22520D1*
X3960D1*
X16270Y12217D2*
X14400D1*
Y7493D1*
X16270D1*
Y12217D1*
X14457Y27464D2*
Y28488D1*
X18473D1*
Y27464D1*
X14457Y25496D2*
Y24472D1*
X18473D1*
Y25496D1*
X14507Y32634D2*
Y33658D1*
X18523D1*
Y32634D1*
X14507Y30666D2*
Y29642D1*
X18523D1*
Y30666D1*
D67*
X21667Y5903D3*
X21759Y6404D2*
D10*
X22940D1*
Y6601D1*
X21759D1*
Y6404D1*
D67*
X19367Y5928D3*
X19459Y6429D2*
D10*
X20640D1*
Y6626D1*
X19459D1*
Y6429D1*
X15408Y36660D2*
X10841D1*
Y34220D1*
X15408D1*
Y36660D1*
X9488Y36570D2*
X4921D1*
Y34130D1*
X9488D1*
Y36570D1*
D67*
X5983Y5197D3*
X5891Y4696D2*
D10*
X4710D1*
Y4499D1*
X5891D1*
Y4696D1*
D67*
X18028Y36287D3*
X17936Y35786D2*
D10*
X16755D1*
Y35589D1*
X17936D1*
Y35786D1*
D67*
X22728Y36277D3*
X22636Y35776D2*
D10*
X21455D1*
Y35579D1*
X22636D1*
Y35776D1*
D67*
X20388Y36257D3*
X20296Y35756D2*
D10*
X19115D1*
Y35559D1*
X20296D1*
Y35756D1*
X26692Y29545D2*
Y31317D1*
X24723Y29545D2*
Y31317D1*
X26692D2*
X26298D1*
X25117D2*
X24723D1*
D72*
X26140Y28620D3*
X26692Y21485D2*
D10*
Y23257D1*
X24723Y21485D2*
Y23257D1*
X26692D2*
X26298D1*
X25117D2*
X24723D1*
D72*
X26140Y20560D3*
X26679Y13505D2*
D10*
Y15276D1*
X24710Y13505D2*
Y15276D1*
X26679D2*
X26285D1*
X25104D2*
X24710D1*
D72*
X26128Y12579D3*
X26682Y5525D2*
D10*
Y7297D1*
X24713Y5525D2*
Y7297D1*
X26682D2*
X26288D1*
X25107D2*
X24713D1*
D72*
X26130Y4600D3*
X25430Y33410D2*
D17*
Y34410D1*
X26230Y33410D2*
G02X26130Y33310I-100J0D01*
G01*
Y34510D2*
G02X26230Y34410I0J-100D01*
G01*
X25530Y34510D2*
G03X25430Y34410I0J-100D01*
G01*
Y33410D2*
G03X25530Y33310I100J0D01*
G01*
X26130D1*
X25530Y34510D2*
X26130D1*
X26230Y34410D2*
Y33410D1*
X25430Y25350D2*
Y26350D1*
X26230Y25350D2*
G02X26130Y25250I-100J0D01*
G01*
Y26450D2*
G02X26230Y26350I0J-100D01*
G01*
X25530Y26450D2*
G03X25430Y26350I0J-100D01*
G01*
Y25350D2*
G03X25530Y25250I100J0D01*
G01*
X26130D1*
X25530Y26450D2*
X26130D1*
X26230Y26350D2*
Y25350D1*
X25417Y17369D2*
Y18369D1*
X26217Y17369D2*
G02X26117Y17269I-100J0D01*
G01*
Y18469D2*
G02X26217Y18369I0J-100D01*
G01*
X25517Y18469D2*
G03X25417Y18369I0J-100D01*
G01*
Y17369D2*
G03X25517Y17269I100J0D01*
G01*
X26117D1*
X25517Y18469D2*
X26117D1*
X26217Y18369D2*
Y17369D1*
X25420Y9390D2*
Y10390D1*
X26220Y9390D2*
G02X26120Y9290I-100J0D01*
G01*
Y10490D2*
G02X26220Y10390I0J-100D01*
G01*
X25520Y10490D2*
G03X25420Y10390I0J-100D01*
G01*
Y9390D2*
G03X25520Y9290I100J0D01*
G01*
X26120D1*
X25520Y10490D2*
X26120D1*
X26220Y10390D2*
Y9390D1*
X10582Y21637D2*
D10*
X15700D1*
Y16518D1*
X10582D1*
Y21637D1*
D78*
X10063Y21751D3*
G36*
X10582Y21637D2*
Y21243D1*
X10975Y21637D1*
X10582D1*
G37*
X11192Y17760D2*
D10*
Y17622D1*
X11329D1*
X14596Y21165D2*
X14733D1*
Y21027D2*
Y21165D1*
X14596Y17622D2*
X14733D1*
Y17760D1*
X11152Y21047D2*
X11309Y21205D1*
D52*
X10882Y20870D3*
X9478Y7336D2*
D10*
X9281Y7532D1*
X10856Y7336D2*
Y7532D1*
Y7336D2*
X10659D1*
X10856Y8713D2*
Y8911D1*
X10659D1*
X9281D2*
X9478D1*
X9281D2*
Y8713D1*
X9673Y7105D3*
D67*
X13969Y7828D3*
X13838Y7405D2*
D10*
X13050D1*
Y7169D1*
X13838D1*
Y7405D1*
X11632Y27920D2*
X10608D1*
X11317Y25460D2*
X11632D1*
X10923D2*
X10608D1*
D67*
X12112Y25663D3*
X11908Y27920D2*
D10*
X10333D1*
Y27684D1*
X11908Y27920D2*
Y27684D1*
Y25460D2*
X10332D1*
X10333Y25696D1*
X11908Y25460D2*
Y25696D1*
X11912Y32990D2*
X10888D1*
X11597Y30530D2*
X11912D1*
X11203D2*
X10888D1*
D67*
X12392Y30733D3*
X12188Y32990D2*
D10*
X10613D1*
Y32754D1*
X12188Y32990D2*
Y32754D1*
Y30530D2*
X10612D1*
X10613Y30766D1*
X12188Y30530D2*
Y30766D1*
D67*
X9697Y13042D3*
X9196Y13134D2*
D10*
Y14315D1*
X8999D1*
Y13134D1*
X9196D1*
X5233Y13932D2*
X7202D1*
X5233Y15192D2*
X7202D1*
Y13932D2*
Y15192D1*
X5233Y13932D2*
Y14365D1*
Y14759D2*
Y15192D1*
Y14365D2*
G03X5233Y14759I0J197D01*
G01*
D52*
X30383Y34370D3*
X30679Y33898D2*
D10*
X30541Y34055D1*
X30679Y32244D2*
Y32067D1*
X30541D1*
X28710Y33878D2*
Y34055D1*
X28848D1*
X28867Y32047D2*
X28690D1*
Y32185D1*
D52*
X30383Y26310D3*
X30679Y25838D2*
D10*
X30541Y25995D1*
X30679Y24184D2*
Y24007D1*
X30541D1*
X28710Y25818D2*
Y25995D1*
X28848D1*
X28867Y23987D2*
X28690D1*
Y24125D1*
D52*
X30371Y18329D3*
X30666Y17857D2*
D10*
X30528Y18014D1*
X30666Y16203D2*
Y16026D1*
X30528D1*
X28697Y17837D2*
Y18014D1*
X28835D1*
X28855Y16006D2*
X28678D1*
Y16144D1*
D52*
X30373Y10350D3*
X30669Y9878D2*
D10*
X30531Y10035D1*
X30669Y8224D2*
Y8047D1*
X30531D1*
X28700Y9858D2*
Y10035D1*
X28838D1*
X28857Y8027D2*
X28680D1*
Y8165D1*
X5721Y23628D2*
Y26227D1*
X2965Y23628D2*
X5721D1*
X2965D2*
Y23707D1*
Y26227D2*
X5721D1*
X2965D2*
Y26148D1*
D67*
X6871Y23638D3*
X7621Y6781D2*
D10*
X12659D1*
X7621Y9300D2*
X12659D1*
Y6781D2*
Y9300D1*
X7621Y6781D2*
Y7726D1*
Y8356D2*
Y9300D1*
Y7726D2*
G03X7621Y8356I-1J315D01*
G01*
D52*
X14157Y14025D3*
X13999Y13434D2*
D10*
Y13316D1*
X11637D1*
Y13434D1*
X13999Y14616D2*
Y14734D1*
X11637D1*
Y14616D1*
G36*
X16390Y15220D2*
X19600D1*
Y7990D1*
X16390D1*
Y15220D1*
G37*
X22310Y21570D2*
D12*
X22670D1*
X23180D2*
X23480D1*
X22309Y21540D2*
X22655D1*
X23127D2*
X23527D1*
X22305Y21510D2*
X22642D1*
X23087D2*
X23569D1*
X22298Y21480D2*
X22630D1*
X23056D2*
X23603D1*
X22290Y21450D2*
X22616D1*
X23029D2*
X23629D1*
X22284Y21420D2*
X22603D1*
X23004D2*
X23650D1*
X22277Y21390D2*
X22591D1*
X22983D2*
X23670D1*
X22269Y21360D2*
X22581D1*
X22966D2*
X23689D1*
X22260Y21330D2*
X22570D1*
X22952D2*
X23705D1*
X22255Y21300D2*
X22560D1*
X22941D2*
X23718D1*
X22252Y21270D2*
X22550D1*
X22929D2*
X23729D1*
X22250Y21240D2*
X22540D1*
X22916D2*
X23740D1*
X22245Y21210D2*
X22531D1*
X22903D2*
X23750D1*
X22238Y21180D2*
X22524D1*
X22892D2*
X23760D1*
X22230Y21150D2*
X22517D1*
X22886D2*
X23769D1*
X22225Y21120D2*
X22509D1*
X22882D2*
X23775D1*
X22222Y21090D2*
X22500D1*
X22881D2*
X23265D1*
X23414D2*
X23778D1*
X22221Y21060D2*
X22495D1*
X22880D2*
X23258D1*
X23433D2*
X23780D1*
X22220Y21030D2*
X22492D1*
X22880D2*
X23249D1*
X23447D2*
X23785D1*
X22220Y21000D2*
X22491D1*
X22879D2*
X23240D1*
X23459D2*
X23792D1*
X22220Y20970D2*
X22490D1*
X22875D2*
X23230D1*
X23469D2*
X23800D1*
X22220Y20940D2*
X22490D1*
X22868D2*
X23221D1*
X23476D2*
X23805D1*
X22220Y20910D2*
X22490D1*
X22860D2*
X23214D1*
X23483D2*
X23808D1*
X22220Y20880D2*
X22490D1*
X22855D2*
X23207D1*
X23491D2*
X23809D1*
X22220Y20850D2*
X22490D1*
X22851D2*
X23199D1*
X23500D2*
X23810D1*
X22220Y20820D2*
X22490D1*
X22846D2*
X23190D1*
X23505D2*
X23810D1*
X22220Y20790D2*
X22490D1*
X22838D2*
X23185D1*
X23508D2*
X23810D1*
X22220Y20760D2*
X22490D1*
X22830D2*
X23182D1*
X23508D2*
X23809D1*
X22220Y20730D2*
X22491D1*
X22824D2*
X23180D1*
X23505D2*
X23805D1*
X22220Y20700D2*
X22495D1*
X22817D2*
X23175D1*
X23498D2*
X23798D1*
X22220Y20670D2*
X22503D1*
X22807D2*
X23168D1*
X23490D2*
X23790D1*
X22220Y20640D2*
X22517D1*
X22794D2*
X23160D1*
X23485D2*
X23785D1*
X22220Y20610D2*
X22534D1*
X22777D2*
X23155D1*
X23482D2*
X23782D1*
X22220Y20580D2*
X22579D1*
X22732D2*
X23151D1*
X23481D2*
X23781D1*
X22221Y20550D2*
X22647D1*
X22663D2*
X23146D1*
X23479D2*
X23780D1*
X22225Y20520D2*
X23138D1*
X23475D2*
X23780D1*
X22232Y20490D2*
X23130D1*
X23468D2*
X23779D1*
X22240Y20460D2*
X23124D1*
X23460D2*
X23775D1*
X22246Y20430D2*
X23117D1*
X23455D2*
X23768D1*
X22253Y20400D2*
X23107D1*
X23452D2*
X23760D1*
X22263Y20370D2*
X23095D1*
X23451D2*
X23755D1*
X22275Y20340D2*
X23083D1*
X23449D2*
X23752D1*
X22287Y20310D2*
X23072D1*
X23445D2*
X23750D1*
X22299Y20280D2*
X23064D1*
X23437D2*
X23745D1*
X22311Y20250D2*
X23056D1*
X23424D2*
X23738D1*
X22327Y20220D2*
X23042D1*
X23408D2*
X23729D1*
X22352Y20190D2*
X23021D1*
X23390D2*
X23720D1*
X22386Y20160D2*
X22991D1*
X22425Y20130D2*
X22954D1*
X22473Y20100D2*
X22908D1*
X22537Y20070D2*
X22852D1*
X22610Y20040D2*
X22790D1*
X22670Y19860D2*
X22970D1*
X22592Y19830D2*
X23032D1*
X22531Y19800D2*
X23087D1*
X22482Y19770D2*
X23133D1*
X22441Y19740D2*
X23172D1*
X22406Y19710D2*
X23206D1*
X22377Y19680D2*
X23234D1*
X22354Y19650D2*
X23256D1*
X22336Y19620D2*
X23275D1*
X22323Y19590D2*
X23291D1*
X22311Y19560D2*
X23307D1*
X22300Y19530D2*
X23322D1*
X22290Y19500D2*
X23336D1*
X22280Y19470D2*
X23349D1*
X22270Y19440D2*
X23359D1*
X22260Y19410D2*
X23370D1*
X22250Y19380D2*
X23379D1*
X22240Y19350D2*
X22701D1*
X22866D2*
X23385D1*
X22231Y19320D2*
X22646D1*
X22952D2*
X23389D1*
X22225Y19290D2*
X22599D1*
X23013D2*
X23394D1*
X22222Y19260D2*
X22560D1*
X23054D2*
X23402D1*
X22221Y19230D2*
X22530D1*
X23083D2*
X23410D1*
X22220Y19200D2*
X22506D1*
X23103D2*
X23415D1*
X22220Y19170D2*
X22498D1*
X23117D2*
X23418D1*
X22220Y19140D2*
X22493D1*
X23129D2*
X23419D1*
X22220Y19110D2*
X22491D1*
X23139D2*
X23420D1*
X22220Y19080D2*
X22490D1*
X23145D2*
X23420D1*
X22220Y19050D2*
X22490D1*
X23147D2*
X23420D1*
X22220Y19020D2*
X22490D1*
X23144D2*
X23420D1*
X22220Y18990D2*
X22490D1*
X23137D2*
X23420D1*
X22220Y18960D2*
X22491D1*
X23129D2*
X23420D1*
X22220Y18930D2*
X22495D1*
X23119D2*
X23419D1*
X22220Y18900D2*
X22505D1*
X23105D2*
X23415D1*
X22220Y18870D2*
X22519D1*
X23086D2*
X23408D1*
X22221Y18840D2*
X22552D1*
X23060D2*
X23400D1*
X22225Y18810D2*
X22601D1*
X23024D2*
X23395D1*
X22232Y18780D2*
X22675D1*
X22923D2*
X23391D1*
X22240Y18750D2*
X22783D1*
X22780D2*
X23386D1*
X22246Y18720D2*
X23378D1*
X22253Y18690D2*
X23369D1*
X22263Y18660D2*
X23360D1*
X22275Y18630D2*
X23349D1*
X22287Y18600D2*
X23336D1*
X22299Y18570D2*
X23322D1*
X22309Y18540D2*
X23307D1*
X22321Y18510D2*
X23292D1*
X22335Y18480D2*
X23276D1*
X22353Y18450D2*
X23257D1*
X22377Y18420D2*
X23234D1*
X22406Y18390D2*
X23206D1*
X22440Y18360D2*
X23174D1*
X22476Y18330D2*
X23135D1*
X22520Y18300D2*
X23088D1*
X22576Y18270D2*
X23032D1*
X22640Y18240D2*
X22970D1*
X22250Y18030D2*
X23840D1*
X22250Y18000D2*
X23840D1*
X22250Y17970D2*
X23840D1*
X22250Y17940D2*
X23840D1*
X22250Y17910D2*
X23840D1*
X22250Y17880D2*
X23840D1*
X22250Y17850D2*
X23840D1*
X22250Y17820D2*
X23840D1*
X22250Y17790D2*
X23840D1*
X22250Y17760D2*
X23840D1*
X22250Y17730D2*
X23840D1*
X22250Y17700D2*
X23840D1*
X22250Y17670D2*
X23840D1*
X22250Y17640D2*
X23840D1*
X22250Y17610D2*
X23840D1*
X22250Y17580D2*
X23840D1*
X22250Y17550D2*
X23840D1*
X22250Y17250D2*
X23390D1*
X23540D2*
X23840D1*
X22250Y17220D2*
X23390D1*
X23540D2*
X23840D1*
X22250Y17190D2*
X23390D1*
X23540D2*
X23840D1*
X22250Y17160D2*
X23390D1*
X23540D2*
X23840D1*
X22250Y17130D2*
X23390D1*
X23540D2*
X23840D1*
X22250Y17100D2*
X23390D1*
X23540D2*
X23840D1*
X22250Y17070D2*
X23390D1*
X23540D2*
X23840D1*
X22250Y17040D2*
X23390D1*
X23540D2*
X23840D1*
X22250Y17010D2*
X23390D1*
X23540D2*
X23840D1*
X22250Y16980D2*
X23390D1*
X23540D2*
X23840D1*
X22250Y16950D2*
X23390D1*
X23540D2*
X23840D1*
X22250Y16920D2*
X23390D1*
X23540D2*
X23840D1*
X22250Y16890D2*
X23390D1*
X23540D2*
X23840D1*
X22250Y16860D2*
X23390D1*
X23540D2*
X23840D1*
X22250Y16830D2*
X23390D1*
X23540D2*
X23840D1*
X22250Y16800D2*
X23390D1*
X23540D2*
X23840D1*
X22250Y16770D2*
X23390D1*
X23540D2*
X23840D1*
X22700Y16440D2*
X22910D1*
X22628Y16410D2*
X22986D1*
X22568Y16380D2*
X23051D1*
X22519Y16350D2*
X23105D1*
X22477Y16320D2*
X23153D1*
X22439Y16290D2*
X23195D1*
X22405Y16260D2*
X23228D1*
X22377Y16230D2*
X23250D1*
X22354Y16200D2*
X23267D1*
X22336Y16170D2*
X23283D1*
X22322Y16140D2*
X23302D1*
X22311Y16110D2*
X23319D1*
X22299Y16080D2*
X23335D1*
X22286Y16050D2*
X23348D1*
X22273Y16020D2*
X23359D1*
X22262Y15990D2*
X23370D1*
X22255Y15960D2*
X23379D1*
X22247Y15930D2*
X22735D1*
X22880D2*
X23386D1*
X22239Y15900D2*
X22712D1*
X22909D2*
X23393D1*
X22230Y15870D2*
X22691D1*
X22935D2*
X23401D1*
X22225Y15840D2*
X22671D1*
X22957D2*
X23410D1*
X22222Y15810D2*
X22656D1*
X22974D2*
X23415D1*
X22221Y15780D2*
X22648D1*
X22985D2*
X23418D1*
X22220Y15750D2*
X22644D1*
X22992D2*
X23419D1*
X22220Y15720D2*
X22645D1*
X22985D2*
X23419D1*
X22221Y15690D2*
X22657D1*
X22973D2*
X23415D1*
X22225Y15660D2*
X22674D1*
X22956D2*
X23408D1*
X22232Y15630D2*
X22696D1*
X22929D2*
X23400D1*
X22240Y15600D2*
X22726D1*
X22884D2*
X23395D1*
X22246Y15570D2*
X22797D1*
X22814D2*
X23392D1*
X22253Y15540D2*
X23810D1*
X22263Y15510D2*
X23835D1*
X22275Y15480D2*
X23857D1*
X22287Y15450D2*
X23874D1*
X22298Y15420D2*
X23886D1*
X22306Y15390D2*
X23894D1*
X22314Y15360D2*
X23897D1*
X22328Y15330D2*
X23899D1*
X22348Y15300D2*
X23900D1*
X22373Y15270D2*
X23900D1*
X22401Y15240D2*
X23899D1*
X22432Y15210D2*
X23894D1*
X22467Y15180D2*
X23883D1*
X22510Y15150D2*
X23867D1*
X22564Y15120D2*
X23849D1*
X22629Y15090D2*
X23830D1*
X22700Y15060D2*
X23810D1*
X22670Y14760D2*
X22940D1*
X22597Y14730D2*
X23012D1*
X22534Y14700D2*
X23081D1*
X22482Y14670D2*
X23143D1*
X22440Y14640D2*
X23192D1*
X22404Y14610D2*
X23227D1*
X22373Y14580D2*
X23250D1*
X22347Y14550D2*
X23267D1*
X22327Y14520D2*
X23283D1*
X22313Y14490D2*
X23302D1*
X22301Y14460D2*
X23319D1*
X22290Y14430D2*
X23335D1*
X22280Y14400D2*
X23348D1*
X22270Y14370D2*
X23359D1*
X22260Y14340D2*
X23370D1*
X22250Y14310D2*
X23379D1*
X22240Y14280D2*
X22731D1*
X22880D2*
X23385D1*
X22231Y14250D2*
X22705D1*
X22909D2*
X23389D1*
X22225Y14220D2*
X22683D1*
X22935D2*
X23394D1*
X22222Y14190D2*
X22666D1*
X22956D2*
X23402D1*
X22221Y14160D2*
X22654D1*
X22973D2*
X23410D1*
X22220Y14130D2*
X22646D1*
X22985D2*
X23414D1*
X22220Y14100D2*
X22644D1*
X22982D2*
X23413D1*
X22220Y14070D2*
X22647D1*
X22976D2*
X23407D1*
X22220Y14040D2*
X22658D1*
X22968D2*
X23400D1*
X22221Y14010D2*
X22675D1*
X22955D2*
X23395D1*
X22225Y13980D2*
X22700D1*
X22924D2*
X23392D1*
X22232Y13950D2*
X22742D1*
X22877D2*
X23390D1*
X22241Y13920D2*
X22805D1*
X22809D2*
X23385D1*
X22250Y13890D2*
X23377D1*
X22261Y13860D2*
X23365D1*
X22274Y13830D2*
X23352D1*
X22287Y13800D2*
X23337D1*
X22299Y13770D2*
X23322D1*
X22309Y13740D2*
X23307D1*
X22321Y13710D2*
X23292D1*
X22335Y13680D2*
X23276D1*
X22353Y13650D2*
X23257D1*
X22377Y13620D2*
X23234D1*
X22406Y13590D2*
X23206D1*
X22440Y13560D2*
X23174D1*
X22476Y13530D2*
X23136D1*
X22521Y13500D2*
X23091D1*
X22585Y13470D2*
X23035D1*
X22668Y13440D2*
X22962D1*
X22760Y13410D2*
X22880D1*
X22790Y13140D2*
X22850D1*
X22690Y13110D2*
X22943D1*
X22609Y13080D2*
X23021D1*
X22547Y13050D2*
X23082D1*
X22497Y13020D2*
X23132D1*
X22454Y12990D2*
X23172D1*
X22417Y12960D2*
X23206D1*
X22388Y12930D2*
X23234D1*
X22364Y12900D2*
X23256D1*
X22342Y12870D2*
X23275D1*
X22326Y12840D2*
X23291D1*
X22313Y12810D2*
X23307D1*
X22300Y12780D2*
X23322D1*
X22286Y12750D2*
X23337D1*
X22273Y12720D2*
X23352D1*
X22261Y12690D2*
X23366D1*
X22251Y12660D2*
X23377D1*
X22240Y12630D2*
X22806D1*
X22855D2*
X23384D1*
X22231Y12600D2*
X22749D1*
X22891D2*
X23388D1*
X22225Y12570D2*
X22708D1*
X22924D2*
X23390D1*
X22222Y12540D2*
X22678D1*
X22948D2*
X23395D1*
X22221Y12510D2*
X22656D1*
X22964D2*
X23402D1*
X22220Y12480D2*
X22648D1*
X22977D2*
X23410D1*
X22220Y12450D2*
X22644D1*
X22986D2*
X23414D1*
X22220Y12420D2*
X22646D1*
X22982D2*
X23413D1*
X22220Y12390D2*
X22654D1*
X22972D2*
X23407D1*
X22221Y12360D2*
X22666D1*
X22955D2*
X23400D1*
X22225Y12330D2*
X22680D1*
X22933D2*
X23395D1*
X22232Y12300D2*
X22709D1*
X22879D2*
X23391D1*
X22240Y12270D2*
X22774D1*
X22799D2*
X23386D1*
X22246Y12240D2*
X23378D1*
X22253Y12210D2*
X23369D1*
X22263Y12180D2*
X23360D1*
X22275Y12150D2*
X23349D1*
X22287Y12120D2*
X23335D1*
X22299Y12090D2*
X23318D1*
X22311Y12060D2*
X23300D1*
X22326Y12030D2*
X23285D1*
X22347Y12000D2*
X23271D1*
X22373Y11970D2*
X23254D1*
X22402Y11940D2*
X23231D1*
X22437Y11910D2*
X23197D1*
X22480Y11880D2*
X23152D1*
X22534Y11850D2*
X23098D1*
X22599Y11820D2*
X23036D1*
X22670Y11790D2*
X22970D1*
X22730Y11490D2*
X22880D1*
X22648Y11460D2*
X22966D1*
X22578Y11430D2*
X23039D1*
X22524Y11400D2*
X23096D1*
X22479Y11370D2*
X23144D1*
X22440Y11340D2*
X23187D1*
X22406Y11310D2*
X23222D1*
X22377Y11280D2*
X23247D1*
X22354Y11250D2*
X23266D1*
X22336Y11220D2*
X23283D1*
X22322Y11190D2*
X23302D1*
X22311Y11160D2*
X23319D1*
X22299Y11130D2*
X23335D1*
X22286Y11100D2*
X23348D1*
X22273Y11070D2*
X23359D1*
X22262Y11040D2*
X23370D1*
X22255Y11010D2*
X23379D1*
X22247Y10980D2*
X22771D1*
X22880D2*
X23386D1*
X22239Y10950D2*
X22732D1*
X22909D2*
X23393D1*
X22230Y10920D2*
X22703D1*
X22935D2*
X23401D1*
X22225Y10890D2*
X22682D1*
X22957D2*
X23410D1*
X22222Y10860D2*
X22665D1*
X22974D2*
X23415D1*
X22221Y10830D2*
X22653D1*
X22985D2*
X23418D1*
X22220Y10800D2*
X22647D1*
X22992D2*
X23419D1*
X22220Y10770D2*
X22648D1*
X22985D2*
X23419D1*
X22221Y10740D2*
X22654D1*
X22973D2*
X23415D1*
X22225Y10710D2*
X22667D1*
X22956D2*
X23408D1*
X22232Y10680D2*
X22684D1*
X22929D2*
X23400D1*
X22240Y10650D2*
X22729D1*
X22884D2*
X23395D1*
X22246Y10620D2*
X22797D1*
X22814D2*
X23392D1*
X22253Y10590D2*
X23810D1*
X22263Y10560D2*
X23830D1*
X22275Y10530D2*
X23850D1*
X22287Y10500D2*
X23869D1*
X22298Y10470D2*
X23884D1*
X22306Y10440D2*
X23893D1*
X22314Y10410D2*
X23897D1*
X22328Y10380D2*
X23899D1*
X22348Y10350D2*
X23900D1*
X22373Y10320D2*
X23900D1*
X22401Y10290D2*
X23899D1*
X22431Y10260D2*
X23895D1*
X22463Y10230D2*
X23887D1*
X22503Y10200D2*
X23874D1*
X22557Y10170D2*
X23857D1*
X22625Y10140D2*
X23834D1*
X22700Y10110D2*
X23810D1*
X22370Y9840D2*
X23780D1*
X22331Y9810D2*
X23813D1*
X22301Y9780D2*
X23842D1*
X22278Y9750D2*
X23866D1*
X22260Y9720D2*
X23882D1*
X22244Y9690D2*
X23892D1*
X22233Y9660D2*
X23897D1*
X22226Y9630D2*
X23899D1*
X22223Y9600D2*
X23900D1*
X22222Y9570D2*
X23900D1*
X22225Y9540D2*
X23899D1*
X22234Y9510D2*
X23895D1*
X22246Y9480D2*
X23887D1*
X22262Y9450D2*
X23874D1*
X22280Y9420D2*
X23857D1*
X22296Y9390D2*
X23834D1*
X22310Y9360D2*
X23810D1*
X22730Y9120D2*
X22880D1*
X22645Y9090D2*
X22963D1*
X22575Y9060D2*
X23032D1*
X22522Y9030D2*
X23088D1*
X22479Y9000D2*
X23134D1*
X22440Y8970D2*
X23173D1*
X22406Y8940D2*
X23206D1*
X22377Y8910D2*
X23234D1*
X22354Y8880D2*
X23256D1*
X22336Y8850D2*
X23275D1*
X22322Y8820D2*
X23291D1*
X22311Y8790D2*
X23307D1*
X22299Y8760D2*
X23322D1*
X22286Y8730D2*
X23337D1*
X22273Y8700D2*
X23352D1*
X22261Y8670D2*
X23366D1*
X22251Y8640D2*
X23377D1*
X22240Y8610D2*
X22773D1*
X22880D2*
X23384D1*
X22231Y8580D2*
X22735D1*
X22909D2*
X23388D1*
X22225Y8550D2*
X22720D1*
X22934D2*
X23390D1*
X22222Y8520D2*
X22740D1*
X22953D2*
X23395D1*
X22221Y8490D2*
X22765D1*
X22967D2*
X23402D1*
X22220Y8460D2*
X22792D1*
X22978D2*
X23410D1*
X22220Y8430D2*
X22820D1*
X22986D2*
X23414D1*
X22220Y8400D2*
X22846D1*
X22983D2*
X23413D1*
X22220Y8370D2*
X22874D1*
X22967D2*
X23407D1*
X22220Y8340D2*
X22905D1*
X22941D2*
X23400D1*
X22220Y8310D2*
X23395D1*
X22220Y8280D2*
X23391D1*
X22220Y8250D2*
X23386D1*
X22220Y8220D2*
X23378D1*
X22220Y8190D2*
X23369D1*
X22220Y8160D2*
X23360D1*
X22220Y8130D2*
X23349D1*
X22220Y8100D2*
X23335D1*
X22220Y8070D2*
X23318D1*
X22220Y8040D2*
X23300D1*
X22220Y8010D2*
X23285D1*
X22221Y7980D2*
X23271D1*
X22225Y7950D2*
X22609D1*
X22665D2*
X23253D1*
X22233Y7920D2*
X22605D1*
X22688D2*
X23228D1*
X22246Y7890D2*
X22596D1*
X22710D2*
X23194D1*
X22263Y7860D2*
X22582D1*
X22736D2*
X23153D1*
X22284Y7830D2*
X22561D1*
X22768D2*
X23103D1*
X22334Y7800D2*
X22487D1*
X22807D2*
X23031D1*
X22416Y7770D2*
X22368D1*
X22850D2*
X22922D1*
X22310Y21570D2*
X22309Y21540D1*
X22305Y21510D1*
X22298Y21480D1*
X22290Y21450D1*
X22284Y21420D1*
X22277Y21390D1*
X22269Y21360D1*
X22260Y21330D1*
X22255Y21300D1*
X22252Y21270D1*
X22250Y21240D1*
X22245Y21210D1*
X22238Y21180D1*
X22230Y21150D1*
X22225Y21120D1*
X22222Y21090D1*
X22221Y21060D1*
X22220Y21030D1*
Y21000D1*
Y20970D1*
Y20940D1*
Y20910D1*
Y20880D1*
Y20850D1*
Y20820D1*
Y20790D1*
Y20760D1*
Y20730D1*
Y20700D1*
Y20670D1*
Y20640D1*
Y20610D1*
Y20580D1*
X22221Y20550D1*
X22225Y20520D1*
X22232Y20490D1*
X22240Y20460D1*
X22246Y20430D1*
X22253Y20400D1*
X22263Y20370D1*
X22275Y20340D1*
X22287Y20310D1*
X22299Y20280D1*
X22311Y20250D1*
X22327Y20220D1*
X22352Y20190D1*
X22386Y20160D1*
X22425Y20130D1*
X22473Y20100D1*
X22537Y20070D1*
X22610Y20040D1*
X22670Y21570D2*
X22655Y21540D1*
X22642Y21510D1*
X22630Y21480D1*
X22616Y21450D1*
X22603Y21420D1*
X22591Y21390D1*
X22581Y21360D1*
X22570Y21330D1*
X22560Y21300D1*
X22550Y21270D1*
X22540Y21240D1*
X22531Y21210D1*
X22524Y21180D1*
X22517Y21150D1*
X22509Y21120D1*
X22500Y21090D1*
X22495Y21060D1*
X22492Y21030D1*
X22491Y21000D1*
X22490Y20970D1*
Y20940D1*
Y20910D1*
Y20880D1*
Y20850D1*
Y20820D1*
Y20790D1*
Y20760D1*
X22491Y20730D1*
X22495Y20700D1*
X22503Y20670D1*
X22517Y20640D1*
X22534Y20610D1*
X22579Y20580D1*
X22647Y20550D1*
X22730Y20520D1*
X23180Y21570D2*
X23127Y21540D1*
X23087Y21510D1*
X23056Y21480D1*
X23029Y21450D1*
X23004Y21420D1*
X22983Y21390D1*
X22966Y21360D1*
X22952Y21330D1*
X22941Y21300D1*
X22929Y21270D1*
X22916Y21240D1*
X22903Y21210D1*
X22892Y21180D1*
X22886Y21150D1*
X22882Y21120D1*
X22881Y21090D1*
X22880Y21060D1*
Y21030D1*
X22879Y21000D1*
X22875Y20970D1*
X22868Y20940D1*
X22860Y20910D1*
X22855Y20880D1*
X22851Y20850D1*
X22846Y20820D1*
X22838Y20790D1*
X22830Y20760D1*
X22824Y20730D1*
X22817Y20700D1*
X22807Y20670D1*
X22794Y20640D1*
X22777Y20610D1*
X22732Y20580D1*
X22663Y20550D1*
X22580Y20520D1*
X23480Y21570D2*
X23527Y21540D1*
X23569Y21510D1*
X23603Y21480D1*
X23629Y21450D1*
X23650Y21420D1*
X23670Y21390D1*
X23689Y21360D1*
X23705Y21330D1*
X23718Y21300D1*
X23729Y21270D1*
X23740Y21240D1*
X23750Y21210D1*
X23760Y21180D1*
X23769Y21150D1*
X23775Y21120D1*
X23778Y21090D1*
X23780Y21060D1*
X23785Y21030D1*
X23792Y21000D1*
X23800Y20970D1*
X23805Y20940D1*
X23808Y20910D1*
X23809Y20880D1*
X23810Y20850D1*
Y20820D1*
Y20790D1*
X23809Y20760D1*
X23805Y20730D1*
X23798Y20700D1*
X23790Y20670D1*
X23785Y20640D1*
X23782Y20610D1*
X23781Y20580D1*
X23780Y20550D1*
Y20520D1*
X23779Y20490D1*
X23775Y20460D1*
X23768Y20430D1*
X23760Y20400D1*
X23755Y20370D1*
X23752Y20340D1*
X23750Y20310D1*
X23745Y20280D1*
X23738Y20250D1*
X23729Y20220D1*
X23720Y20190D1*
X23270Y21120D2*
X23265Y21090D1*
X23258Y21060D1*
X23249Y21030D1*
X23240Y21000D1*
X23230Y20970D1*
X23221Y20940D1*
X23214Y20910D1*
X23207Y20880D1*
X23199Y20850D1*
X23190Y20820D1*
X23185Y20790D1*
X23182Y20760D1*
X23180Y20730D1*
X23175Y20700D1*
X23168Y20670D1*
X23160Y20640D1*
X23155Y20610D1*
X23151Y20580D1*
X23146Y20550D1*
X23138Y20520D1*
X23130Y20490D1*
X23124Y20460D1*
X23117Y20430D1*
X23107Y20400D1*
X23095Y20370D1*
X23083Y20340D1*
X23072Y20310D1*
X23064Y20280D1*
X23056Y20250D1*
X23042Y20220D1*
X23021Y20190D1*
X22991Y20160D1*
X22954Y20130D1*
X22908Y20100D1*
X22852Y20070D1*
X22790Y20040D1*
X23390Y21120D2*
X23414Y21090D1*
X23433Y21060D1*
X23447Y21030D1*
X23459Y21000D1*
X23469Y20970D1*
X23476Y20940D1*
X23483Y20910D1*
X23491Y20880D1*
X23500Y20850D1*
X23505Y20820D1*
X23508Y20790D1*
Y20760D1*
X23505Y20730D1*
X23498Y20700D1*
X23490Y20670D1*
X23485Y20640D1*
X23482Y20610D1*
X23481Y20580D1*
X23479Y20550D1*
X23475Y20520D1*
X23468Y20490D1*
X23460Y20460D1*
X23455Y20430D1*
X23452Y20400D1*
X23451Y20370D1*
X23449Y20340D1*
X23445Y20310D1*
X23437Y20280D1*
X23424Y20250D1*
X23408Y20220D1*
X23390Y20190D1*
X22670Y19860D2*
X22592Y19830D1*
X22531Y19800D1*
X22482Y19770D1*
X22441Y19740D1*
X22406Y19710D1*
X22377Y19680D1*
X22354Y19650D1*
X22336Y19620D1*
X22323Y19590D1*
X22311Y19560D1*
X22300Y19530D1*
X22290Y19500D1*
X22280Y19470D1*
X22270Y19440D1*
X22260Y19410D1*
X22250Y19380D1*
X22240Y19350D1*
X22231Y19320D1*
X22225Y19290D1*
X22222Y19260D1*
X22221Y19230D1*
X22220Y19200D1*
Y19170D1*
Y19140D1*
Y19110D1*
Y19080D1*
Y19050D1*
Y19020D1*
Y18990D1*
Y18960D1*
Y18930D1*
Y18900D1*
Y18870D1*
X22221Y18840D1*
X22225Y18810D1*
X22232Y18780D1*
X22240Y18750D1*
X22246Y18720D1*
X22253Y18690D1*
X22263Y18660D1*
X22275Y18630D1*
X22287Y18600D1*
X22299Y18570D1*
X22309Y18540D1*
X22321Y18510D1*
X22335Y18480D1*
X22353Y18450D1*
X22377Y18420D1*
X22406Y18390D1*
X22440Y18360D1*
X22476Y18330D1*
X22520Y18300D1*
X22576Y18270D1*
X22640Y18240D1*
X22970Y19860D2*
X23032Y19830D1*
X23087Y19800D1*
X23133Y19770D1*
X23172Y19740D1*
X23206Y19710D1*
X23234Y19680D1*
X23256Y19650D1*
X23275Y19620D1*
X23291Y19590D1*
X23307Y19560D1*
X23322Y19530D1*
X23336Y19500D1*
X23349Y19470D1*
X23359Y19440D1*
X23370Y19410D1*
X23379Y19380D1*
X23385Y19350D1*
X23389Y19320D1*
X23394Y19290D1*
X23402Y19260D1*
X23410Y19230D1*
X23415Y19200D1*
X23418Y19170D1*
X23419Y19140D1*
X23420Y19110D1*
Y19080D1*
Y19050D1*
Y19020D1*
Y18990D1*
Y18960D1*
X23419Y18930D1*
X23415Y18900D1*
X23408Y18870D1*
X23400Y18840D1*
X23395Y18810D1*
X23391Y18780D1*
X23386Y18750D1*
X23378Y18720D1*
X23369Y18690D1*
X23360Y18660D1*
X23349Y18630D1*
X23336Y18600D1*
X23322Y18570D1*
X23307Y18540D1*
X23292Y18510D1*
X23276Y18480D1*
X23257Y18450D1*
X23234Y18420D1*
X23206Y18390D1*
X23174Y18360D1*
X23135Y18330D1*
X23088Y18300D1*
X23032Y18270D1*
X22970Y18240D1*
X22760Y19380D2*
X22701Y19350D1*
X22646Y19320D1*
X22599Y19290D1*
X22560Y19260D1*
X22530Y19230D1*
X22506Y19200D1*
X22498Y19170D1*
X22493Y19140D1*
X22491Y19110D1*
X22490Y19080D1*
Y19050D1*
Y19020D1*
Y18990D1*
X22491Y18960D1*
X22495Y18930D1*
X22505Y18900D1*
X22519Y18870D1*
X22552Y18840D1*
X22601Y18810D1*
X22675Y18780D1*
X22783Y18750D1*
X22910Y18720D1*
X22760Y19380D2*
X22866Y19350D1*
X22952Y19320D1*
X23013Y19290D1*
X23054Y19260D1*
X23083Y19230D1*
X23103Y19200D1*
X23117Y19170D1*
X23129Y19140D1*
X23139Y19110D1*
X23145Y19080D1*
X23147Y19050D1*
X23144Y19020D1*
X23137Y18990D1*
X23129Y18960D1*
X23119Y18930D1*
X23105Y18900D1*
X23086Y18870D1*
X23060Y18840D1*
X23024Y18810D1*
X22923Y18780D1*
X22780Y18750D1*
X22610Y18720D1*
X22250Y18030D2*
Y18000D1*
Y17970D1*
Y17940D1*
Y17910D1*
Y17880D1*
Y17850D1*
Y17820D1*
Y17790D1*
Y17760D1*
Y17730D1*
Y17700D1*
Y17670D1*
Y17640D1*
Y17610D1*
Y17580D1*
Y17550D1*
X23840Y18030D2*
Y18000D1*
Y17970D1*
Y17940D1*
Y17910D1*
Y17880D1*
Y17850D1*
Y17820D1*
Y17790D1*
Y17760D1*
Y17730D1*
Y17700D1*
Y17670D1*
Y17640D1*
Y17610D1*
Y17580D1*
Y17550D1*
X22250Y17250D2*
Y17220D1*
Y17190D1*
Y17160D1*
Y17130D1*
Y17100D1*
Y17070D1*
Y17040D1*
Y17010D1*
Y16980D1*
Y16950D1*
Y16920D1*
Y16890D1*
Y16860D1*
Y16830D1*
Y16800D1*
Y16770D1*
X23390Y17250D2*
Y17220D1*
Y17190D1*
Y17160D1*
Y17130D1*
Y17100D1*
Y17070D1*
Y17040D1*
Y17010D1*
Y16980D1*
Y16950D1*
Y16920D1*
Y16890D1*
Y16860D1*
Y16830D1*
Y16800D1*
Y16770D1*
X23540Y17250D2*
Y17220D1*
Y17190D1*
Y17160D1*
Y17130D1*
Y17100D1*
Y17070D1*
Y17040D1*
Y17010D1*
Y16980D1*
Y16950D1*
Y16920D1*
Y16890D1*
Y16860D1*
Y16830D1*
Y16800D1*
Y16770D1*
X23840Y17250D2*
Y17220D1*
Y17190D1*
Y17160D1*
Y17130D1*
Y17100D1*
Y17070D1*
Y17040D1*
Y17010D1*
Y16980D1*
Y16950D1*
Y16920D1*
Y16890D1*
Y16860D1*
Y16830D1*
Y16800D1*
Y16770D1*
X22700Y16440D2*
X22628Y16410D1*
X22568Y16380D1*
X22519Y16350D1*
X22477Y16320D1*
X22439Y16290D1*
X22405Y16260D1*
X22377Y16230D1*
X22354Y16200D1*
X22336Y16170D1*
X22322Y16140D1*
X22311Y16110D1*
X22299Y16080D1*
X22286Y16050D1*
X22273Y16020D1*
X22262Y15990D1*
X22255Y15960D1*
X22247Y15930D1*
X22239Y15900D1*
X22230Y15870D1*
X22225Y15840D1*
X22222Y15810D1*
X22221Y15780D1*
X22220Y15750D1*
Y15720D1*
X22221Y15690D1*
X22225Y15660D1*
X22232Y15630D1*
X22240Y15600D1*
X22246Y15570D1*
X22253Y15540D1*
X22263Y15510D1*
X22275Y15480D1*
X22287Y15450D1*
X22298Y15420D1*
X22306Y15390D1*
X22314Y15360D1*
X22328Y15330D1*
X22348Y15300D1*
X22373Y15270D1*
X22401Y15240D1*
X22432Y15210D1*
X22467Y15180D1*
X22510Y15150D1*
X22564Y15120D1*
X22629Y15090D1*
X22700Y15060D1*
X22910Y16440D2*
X22986Y16410D1*
X23051Y16380D1*
X23105Y16350D1*
X23153Y16320D1*
X23195Y16290D1*
X23228Y16260D1*
X23250Y16230D1*
X23267Y16200D1*
X23283Y16170D1*
X23302Y16140D1*
X23319Y16110D1*
X23335Y16080D1*
X23348Y16050D1*
X23359Y16020D1*
X23370Y15990D1*
X23379Y15960D1*
X23386Y15930D1*
X23393Y15900D1*
X23401Y15870D1*
X23410Y15840D1*
X23415Y15810D1*
X23418Y15780D1*
X23419Y15750D1*
Y15720D1*
X23415Y15690D1*
X23408Y15660D1*
X23400Y15630D1*
X23395Y15600D1*
X23392Y15570D1*
X23390Y15540D1*
X22760Y15960D2*
X22735Y15930D1*
X22712Y15900D1*
X22691Y15870D1*
X22671Y15840D1*
X22656Y15810D1*
X22648Y15780D1*
X22644Y15750D1*
X22645Y15720D1*
X22657Y15690D1*
X22674Y15660D1*
X22696Y15630D1*
X22726Y15600D1*
X22797Y15570D1*
X22880Y15540D1*
X22850Y15960D2*
X22880Y15930D1*
X22909Y15900D1*
X22935Y15870D1*
X22957Y15840D1*
X22974Y15810D1*
X22985Y15780D1*
X22992Y15750D1*
X22985Y15720D1*
X22973Y15690D1*
X22956Y15660D1*
X22929Y15630D1*
X22884Y15600D1*
X22814Y15570D1*
X22730Y15540D1*
X23810D2*
X23835Y15510D1*
X23857Y15480D1*
X23874Y15450D1*
X23886Y15420D1*
X23894Y15390D1*
X23897Y15360D1*
X23899Y15330D1*
X23900Y15300D1*
Y15270D1*
X23899Y15240D1*
X23894Y15210D1*
X23883Y15180D1*
X23867Y15150D1*
X23849Y15120D1*
X23830Y15090D1*
X23810Y15060D1*
X22670Y14760D2*
X22597Y14730D1*
X22534Y14700D1*
X22482Y14670D1*
X22440Y14640D1*
X22404Y14610D1*
X22373Y14580D1*
X22347Y14550D1*
X22327Y14520D1*
X22313Y14490D1*
X22301Y14460D1*
X22290Y14430D1*
X22280Y14400D1*
X22270Y14370D1*
X22260Y14340D1*
X22250Y14310D1*
X22240Y14280D1*
X22231Y14250D1*
X22225Y14220D1*
X22222Y14190D1*
X22221Y14160D1*
X22220Y14130D1*
Y14100D1*
Y14070D1*
Y14040D1*
X22221Y14010D1*
X22225Y13980D1*
X22232Y13950D1*
X22241Y13920D1*
X22250Y13890D1*
X22261Y13860D1*
X22274Y13830D1*
X22287Y13800D1*
X22299Y13770D1*
X22309Y13740D1*
X22321Y13710D1*
X22335Y13680D1*
X22353Y13650D1*
X22377Y13620D1*
X22406Y13590D1*
X22440Y13560D1*
X22476Y13530D1*
X22521Y13500D1*
X22585Y13470D1*
X22668Y13440D1*
X22760Y13410D1*
X22940Y14760D2*
X23012Y14730D1*
X23081Y14700D1*
X23143Y14670D1*
X23192Y14640D1*
X23227Y14610D1*
X23250Y14580D1*
X23267Y14550D1*
X23283Y14520D1*
X23302Y14490D1*
X23319Y14460D1*
X23335Y14430D1*
X23348Y14400D1*
X23359Y14370D1*
X23370Y14340D1*
X23379Y14310D1*
X23385Y14280D1*
X23389Y14250D1*
X23394Y14220D1*
X23402Y14190D1*
X23410Y14160D1*
X23414Y14130D1*
X23413Y14100D1*
X23407Y14070D1*
X23400Y14040D1*
X23395Y14010D1*
X23392Y13980D1*
X23390Y13950D1*
X23385Y13920D1*
X23377Y13890D1*
X23365Y13860D1*
X23352Y13830D1*
X23337Y13800D1*
X23322Y13770D1*
X23307Y13740D1*
X23292Y13710D1*
X23276Y13680D1*
X23257Y13650D1*
X23234Y13620D1*
X23206Y13590D1*
X23174Y13560D1*
X23136Y13530D1*
X23091Y13500D1*
X23035Y13470D1*
X22962Y13440D1*
X22880Y13410D1*
X22760Y14310D2*
X22731Y14280D1*
X22705Y14250D1*
X22683Y14220D1*
X22666Y14190D1*
X22654Y14160D1*
X22646Y14130D1*
X22644Y14100D1*
X22647Y14070D1*
X22658Y14040D1*
X22675Y14010D1*
X22700Y13980D1*
X22742Y13950D1*
X22805Y13920D1*
X22880Y13890D1*
X22850Y14310D2*
X22880Y14280D1*
X22909Y14250D1*
X22935Y14220D1*
X22956Y14190D1*
X22973Y14160D1*
X22985Y14130D1*
X22982Y14100D1*
X22976Y14070D1*
X22968Y14040D1*
X22955Y14010D1*
X22924Y13980D1*
X22877Y13950D1*
X22809Y13920D1*
X22730Y13890D1*
X22790Y13140D2*
X22690Y13110D1*
X22609Y13080D1*
X22547Y13050D1*
X22497Y13020D1*
X22454Y12990D1*
X22417Y12960D1*
X22388Y12930D1*
X22364Y12900D1*
X22342Y12870D1*
X22326Y12840D1*
X22313Y12810D1*
X22300Y12780D1*
X22286Y12750D1*
X22273Y12720D1*
X22261Y12690D1*
X22251Y12660D1*
X22240Y12630D1*
X22231Y12600D1*
X22225Y12570D1*
X22222Y12540D1*
X22221Y12510D1*
X22220Y12480D1*
Y12450D1*
Y12420D1*
Y12390D1*
X22221Y12360D1*
X22225Y12330D1*
X22232Y12300D1*
X22240Y12270D1*
X22246Y12240D1*
X22253Y12210D1*
X22263Y12180D1*
X22275Y12150D1*
X22287Y12120D1*
X22299Y12090D1*
X22311Y12060D1*
X22326Y12030D1*
X22347Y12000D1*
X22373Y11970D1*
X22402Y11940D1*
X22437Y11910D1*
X22480Y11880D1*
X22534Y11850D1*
X22599Y11820D1*
X22670Y11790D1*
X22850Y13140D2*
X22943Y13110D1*
X23021Y13080D1*
X23082Y13050D1*
X23132Y13020D1*
X23172Y12990D1*
X23206Y12960D1*
X23234Y12930D1*
X23256Y12900D1*
X23275Y12870D1*
X23291Y12840D1*
X23307Y12810D1*
X23322Y12780D1*
X23337Y12750D1*
X23352Y12720D1*
X23366Y12690D1*
X23377Y12660D1*
X23384Y12630D1*
X23388Y12600D1*
X23390Y12570D1*
X23395Y12540D1*
X23402Y12510D1*
X23410Y12480D1*
X23414Y12450D1*
X23413Y12420D1*
X23407Y12390D1*
X23400Y12360D1*
X23395Y12330D1*
X23391Y12300D1*
X23386Y12270D1*
X23378Y12240D1*
X23369Y12210D1*
X23360Y12180D1*
X23349Y12150D1*
X23335Y12120D1*
X23318Y12090D1*
X23300Y12060D1*
X23285Y12030D1*
X23271Y12000D1*
X23254Y11970D1*
X23231Y11940D1*
X23197Y11910D1*
X23152Y11880D1*
X23098Y11850D1*
X23036Y11820D1*
X22970Y11790D1*
X22880Y12660D2*
X22806Y12630D1*
X22749Y12600D1*
X22708Y12570D1*
X22678Y12540D1*
X22656Y12510D1*
X22648Y12480D1*
X22644Y12450D1*
X22646Y12420D1*
X22654Y12390D1*
X22666Y12360D1*
X22680Y12330D1*
X22709Y12300D1*
X22774Y12270D1*
X22850Y12240D1*
X22820Y12660D2*
X22855Y12630D1*
X22891Y12600D1*
X22924Y12570D1*
X22948Y12540D1*
X22964Y12510D1*
X22977Y12480D1*
X22986Y12450D1*
X22982Y12420D1*
X22972Y12390D1*
X22955Y12360D1*
X22933Y12330D1*
X22879Y12300D1*
X22799Y12270D1*
X22700Y12240D1*
X22730Y11490D2*
X22648Y11460D1*
X22578Y11430D1*
X22524Y11400D1*
X22479Y11370D1*
X22440Y11340D1*
X22406Y11310D1*
X22377Y11280D1*
X22354Y11250D1*
X22336Y11220D1*
X22322Y11190D1*
X22311Y11160D1*
X22299Y11130D1*
X22286Y11100D1*
X22273Y11070D1*
X22262Y11040D1*
X22255Y11010D1*
X22247Y10980D1*
X22239Y10950D1*
X22230Y10920D1*
X22225Y10890D1*
X22222Y10860D1*
X22221Y10830D1*
X22220Y10800D1*
Y10770D1*
X22221Y10740D1*
X22225Y10710D1*
X22232Y10680D1*
X22240Y10650D1*
X22246Y10620D1*
X22253Y10590D1*
X22263Y10560D1*
X22275Y10530D1*
X22287Y10500D1*
X22298Y10470D1*
X22306Y10440D1*
X22314Y10410D1*
X22328Y10380D1*
X22348Y10350D1*
X22373Y10320D1*
X22401Y10290D1*
X22431Y10260D1*
X22463Y10230D1*
X22503Y10200D1*
X22557Y10170D1*
X22625Y10140D1*
X22700Y10110D1*
X22880Y11490D2*
X22966Y11460D1*
X23039Y11430D1*
X23096Y11400D1*
X23144Y11370D1*
X23187Y11340D1*
X23222Y11310D1*
X23247Y11280D1*
X23266Y11250D1*
X23283Y11220D1*
X23302Y11190D1*
X23319Y11160D1*
X23335Y11130D1*
X23348Y11100D1*
X23359Y11070D1*
X23370Y11040D1*
X23379Y11010D1*
X23386Y10980D1*
X23393Y10950D1*
X23401Y10920D1*
X23410Y10890D1*
X23415Y10860D1*
X23418Y10830D1*
X23419Y10800D1*
Y10770D1*
X23415Y10740D1*
X23408Y10710D1*
X23400Y10680D1*
X23395Y10650D1*
X23392Y10620D1*
X23390Y10590D1*
X22820Y11010D2*
X22771Y10980D1*
X22732Y10950D1*
X22703Y10920D1*
X22682Y10890D1*
X22665Y10860D1*
X22653Y10830D1*
X22647Y10800D1*
X22648Y10770D1*
X22654Y10740D1*
X22667Y10710D1*
X22684Y10680D1*
X22729Y10650D1*
X22797Y10620D1*
X22880Y10590D1*
X22850Y11010D2*
X22880Y10980D1*
X22909Y10950D1*
X22935Y10920D1*
X22957Y10890D1*
X22974Y10860D1*
X22985Y10830D1*
X22992Y10800D1*
X22985Y10770D1*
X22973Y10740D1*
X22956Y10710D1*
X22929Y10680D1*
X22884Y10650D1*
X22814Y10620D1*
X22730Y10590D1*
X23810D2*
X23830Y10560D1*
X23850Y10530D1*
X23869Y10500D1*
X23884Y10470D1*
X23893Y10440D1*
X23897Y10410D1*
X23899Y10380D1*
X23900Y10350D1*
Y10320D1*
X23899Y10290D1*
X23895Y10260D1*
X23887Y10230D1*
X23874Y10200D1*
X23857Y10170D1*
X23834Y10140D1*
X23810Y10110D1*
X22370Y9840D2*
X22331Y9810D1*
X22301Y9780D1*
X22278Y9750D1*
X22260Y9720D1*
X22244Y9690D1*
X22233Y9660D1*
X22226Y9630D1*
X22223Y9600D1*
X22222Y9570D1*
X22225Y9540D1*
X22234Y9510D1*
X22246Y9480D1*
X22262Y9450D1*
X22280Y9420D1*
X22296Y9390D1*
X22310Y9360D1*
X23780Y9840D2*
X23813Y9810D1*
X23842Y9780D1*
X23866Y9750D1*
X23882Y9720D1*
X23892Y9690D1*
X23897Y9660D1*
X23899Y9630D1*
X23900Y9600D1*
Y9570D1*
X23899Y9540D1*
X23895Y9510D1*
X23887Y9480D1*
X23874Y9450D1*
X23857Y9420D1*
X23834Y9390D1*
X23810Y9360D1*
X22730Y9120D2*
X22645Y9090D1*
X22575Y9060D1*
X22522Y9030D1*
X22479Y9000D1*
X22440Y8970D1*
X22406Y8940D1*
X22377Y8910D1*
X22354Y8880D1*
X22336Y8850D1*
X22322Y8820D1*
X22311Y8790D1*
X22299Y8760D1*
X22286Y8730D1*
X22273Y8700D1*
X22261Y8670D1*
X22251Y8640D1*
X22240Y8610D1*
X22231Y8580D1*
X22225Y8550D1*
X22222Y8520D1*
X22221Y8490D1*
X22220Y8460D1*
Y8430D1*
Y8400D1*
Y8370D1*
Y8340D1*
Y8310D1*
Y8280D1*
Y8250D1*
Y8220D1*
Y8190D1*
Y8160D1*
Y8130D1*
Y8100D1*
Y8070D1*
Y8040D1*
Y8010D1*
X22221Y7980D1*
X22225Y7950D1*
X22233Y7920D1*
X22246Y7890D1*
X22263Y7860D1*
X22284Y7830D1*
X22334Y7800D1*
X22416Y7770D1*
X22520Y7740D1*
X22880Y9120D2*
X22963Y9090D1*
X23032Y9060D1*
X23088Y9030D1*
X23134Y9000D1*
X23173Y8970D1*
X23206Y8940D1*
X23234Y8910D1*
X23256Y8880D1*
X23275Y8850D1*
X23291Y8820D1*
X23307Y8790D1*
X23322Y8760D1*
X23337Y8730D1*
X23352Y8700D1*
X23366Y8670D1*
X23377Y8640D1*
X23384Y8610D1*
X23388Y8580D1*
X23390Y8550D1*
X23395Y8520D1*
X23402Y8490D1*
X23410Y8460D1*
X23414Y8430D1*
X23413Y8400D1*
X23407Y8370D1*
X23400Y8340D1*
X23395Y8310D1*
X23391Y8280D1*
X23386Y8250D1*
X23378Y8220D1*
X23369Y8190D1*
X23360Y8160D1*
X23349Y8130D1*
X23335Y8100D1*
X23318Y8070D1*
X23300Y8040D1*
X23285Y8010D1*
X23271Y7980D1*
X23253Y7950D1*
X23228Y7920D1*
X23194Y7890D1*
X23153Y7860D1*
X23103Y7830D1*
X23031Y7800D1*
X22922Y7770D1*
X22790Y7740D1*
X22820Y8640D2*
X22773Y8610D1*
X22735Y8580D1*
X22720Y8550D1*
X22740Y8520D1*
X22765Y8490D1*
X22792Y8460D1*
X22820Y8430D1*
X22846Y8400D1*
X22874Y8370D1*
X22905Y8340D1*
X22940Y8310D1*
X22850Y8640D2*
X22880Y8610D1*
X22909Y8580D1*
X22934Y8550D1*
X22953Y8520D1*
X22967Y8490D1*
X22978Y8460D1*
X22986Y8430D1*
X22983Y8400D1*
X22967Y8370D1*
X22941Y8340D1*
X22910Y8310D1*
X22610Y7980D2*
X22609Y7950D1*
X22605Y7920D1*
X22596Y7890D1*
X22582Y7860D1*
X22561Y7830D1*
X22487Y7800D1*
X22368Y7770D1*
X22220Y7740D1*
X22640Y7980D2*
X22665Y7950D1*
X22688Y7920D1*
X22710Y7890D1*
X22736Y7860D1*
X22768Y7830D1*
X22807Y7800D1*
X22850Y7770D1*
X20125Y27883D2*
D250*
X20111Y27912D1*
X20082Y27941D1*
X20054Y27955D1*
X19996D1*
X19967Y27941D1*
X19939Y27912D1*
X19924Y27883D1*
X19910Y27840D1*
Y27768D1*
X19924Y27725D1*
X19939Y27697D1*
X19967Y27668D1*
X19996Y27653D1*
X20054D1*
X20082Y27668D1*
X20111Y27697D1*
X20125Y27725D1*
X20218Y27897D2*
X20247Y27912D1*
X20290Y27955D1*
Y27653D1*
X20071Y33078D2*
X20057Y33107D1*
X20028Y33136D1*
X19999Y33150D1*
X19942D1*
X19913Y33136D1*
X19884Y33107D1*
X19870Y33078D1*
X19856Y33035D1*
Y32963D1*
X19870Y32920D1*
X19884Y32892D1*
X19913Y32863D1*
X19942Y32848D1*
X19999D1*
X20028Y32863D1*
X20057Y32892D1*
X20071Y32920D1*
X20178Y33078D2*
Y33092D1*
X20192Y33121D1*
X20207Y33135D1*
X20235Y33150D1*
X20293D1*
X20321Y33135D1*
X20336Y33121D1*
X20350Y33092D1*
Y33064D1*
X20336Y33035D1*
X20307Y32992D1*
X20163Y32848D1*
X20364D1*
X10660Y23972D2*
X10645Y24001D1*
X10617Y24029D1*
X10588Y24044D1*
X10531D1*
X10502Y24029D1*
X10473Y24001D1*
X10459Y23972D1*
X10444Y23929D1*
Y23857D1*
X10459Y23814D1*
X10473Y23785D1*
X10502Y23757D1*
X10531Y23742D1*
X10588D1*
X10617Y23757D1*
X10645Y23785D1*
X10660Y23814D1*
X10781Y24043D2*
X10939D1*
X10853Y23929D1*
X10896D1*
X10924Y23914D1*
X10939Y23900D1*
X10953Y23857D1*
Y23828D1*
X10939Y23785D1*
X10910Y23756D1*
X10867Y23742D1*
X10824D1*
X10781Y23756D1*
X10767Y23771D1*
X10752Y23800D1*
X7517Y13902D2*
X7503Y13930D1*
X7474Y13959D1*
X7445Y13973D1*
X7388D1*
X7359Y13959D1*
X7330Y13930D1*
X7316Y13902D1*
X7302Y13859D1*
Y13787D1*
X7316Y13744D1*
X7330Y13715D1*
X7359Y13686D1*
X7388Y13672D1*
X7445D1*
X7474Y13686D1*
X7503Y13715D1*
X7517Y13744D1*
X7753Y13672D2*
Y13973D1*
X7609Y13772D1*
X7825D1*
X7426Y33847D2*
X7412Y33876D1*
X7383Y33905D1*
X7354Y33919D1*
X7297D1*
X7268Y33905D1*
X7240Y33876D1*
X7225Y33847D1*
X7211Y33804D1*
Y33732D1*
X7225Y33689D1*
X7240Y33661D1*
X7268Y33632D1*
X7297Y33617D1*
X7354D1*
X7383Y33632D1*
X7412Y33661D1*
X7426Y33689D1*
X7691Y33919D2*
X7547D1*
X7533Y33790D1*
X7547Y33804D1*
X7591Y33818D1*
X7633D1*
X7676Y33804D1*
X7705Y33775D1*
X7720Y33732D1*
Y33704D1*
X7705Y33661D1*
X7676Y33632D1*
X7633Y33617D1*
X7591D1*
X7547Y33632D1*
X7533Y33646D1*
X7519Y33675D1*
X6492Y28655D2*
X6478Y28683D1*
X6449Y28712D1*
X6420Y28726D1*
X6363D1*
X6334Y28712D1*
X6306Y28683D1*
X6291Y28655D1*
X6277Y28611D1*
Y28539D1*
X6291Y28497D1*
X6306Y28468D1*
X6334Y28439D1*
X6363Y28425D1*
X6420D1*
X6449Y28439D1*
X6478Y28468D1*
X6492Y28497D1*
X6757Y28683D2*
X6743Y28712D1*
X6699Y28726D1*
X6671D1*
X6628Y28712D1*
X6599Y28668D1*
X6585Y28597D1*
Y28525D1*
X6599Y28468D1*
X6628Y28439D1*
X6671Y28425D1*
X6685D1*
X6728Y28439D1*
X6757Y28468D1*
X6771Y28511D1*
Y28525D1*
X6757Y28568D1*
X6728Y28597D1*
X6685Y28611D1*
X6671D1*
X6628Y28597D1*
X6599Y28568D1*
X6585Y28525D1*
X13397Y10745D2*
X13383Y10773D1*
X13354Y10802D1*
X13325Y10816D1*
X13268D1*
X13239Y10802D1*
X13211Y10773D1*
X13196Y10745D1*
X13182Y10701D1*
Y10629D1*
X13196Y10587D1*
X13211Y10558D1*
X13239Y10529D1*
X13268Y10515D1*
X13325D1*
X13354Y10529D1*
X13383Y10558D1*
X13397Y10587D1*
X13547Y10515D2*
X13690Y10816D1*
X13490D1*
X6475Y28075D2*
X6461Y28103D1*
X6432Y28132D1*
X6403Y28146D1*
X6346D1*
X6317Y28132D1*
X6289Y28103D1*
X6274Y28075D1*
X6260Y28031D1*
Y27959D1*
X6274Y27917D1*
X6289Y27888D1*
X6317Y27859D1*
X6346Y27845D1*
X6403D1*
X6432Y27859D1*
X6461Y27888D1*
X6475Y27917D1*
X6639Y28146D2*
X6596Y28132D1*
X6582Y28103D1*
Y28074D1*
X6596Y28046D1*
X6625Y28031D1*
X6682Y28017D1*
X6725Y28003D1*
X6754Y27974D1*
X6768Y27945D1*
Y27902D1*
X6754Y27874D1*
X6740Y27859D1*
X6697Y27845D1*
X6639D1*
X6596Y27859D1*
X6582Y27874D1*
X6568Y27902D1*
Y27945D1*
X6582Y27974D1*
X6611Y28003D1*
X6653Y28017D1*
X6711Y28031D1*
X6740Y28046D1*
X6754Y28074D1*
Y28103D1*
X6740Y28132D1*
X6697Y28146D1*
X6639D1*
X10412Y4735D2*
X10398Y4763D1*
X10369Y4792D1*
X10340Y4806D1*
X10283D1*
X10254Y4792D1*
X10226Y4763D1*
X10211Y4735D1*
X10197Y4691D1*
Y4619D1*
X10211Y4577D1*
X10226Y4548D1*
X10254Y4519D1*
X10283Y4505D1*
X10340D1*
X10369Y4519D1*
X10398Y4548D1*
X10412Y4577D1*
X10691Y4706D2*
X10677Y4663D1*
X10648Y4634D1*
X10605Y4619D1*
X10591D1*
X10548Y4634D1*
X10519Y4663D1*
X10505Y4706D1*
Y4720D1*
X10519Y4763D1*
X10548Y4792D1*
X10591Y4806D1*
X10605D1*
X10648Y4792D1*
X10677Y4763D1*
X10691Y4706D1*
Y4634D1*
X10677Y4562D1*
X10648Y4519D1*
X10605Y4505D1*
X10576D1*
X10533Y4519D1*
X10519Y4548D1*
X13227Y5075D2*
X13213Y5103D1*
X13184Y5132D1*
X13156Y5146D1*
X13098D1*
X13070Y5132D1*
X13041Y5103D1*
X13026Y5075D1*
X13012Y5031D1*
Y4959D1*
X13026Y4917D1*
X13041Y4888D1*
X13070Y4859D1*
X13098Y4845D1*
X13156D1*
X13184Y4859D1*
X13213Y4888D1*
X13227Y4917D1*
X13320Y5088D2*
X13349Y5103D1*
X13392Y5146D1*
Y4845D1*
X13571Y5146D2*
X13528Y5132D1*
X13499Y5088D1*
X13485Y5017D1*
Y4974D1*
X13499Y4902D1*
X13528Y4859D1*
X13571Y4845D1*
X13599D1*
X13643Y4859D1*
X13671Y4902D1*
X13686Y4974D1*
Y5017D1*
X13671Y5088D1*
X13643Y5132D1*
X13599Y5146D1*
X13571D1*
X13671Y5088D2*
X13499Y4902D1*
X4677Y15982D2*
X4663Y16011D1*
X4634Y16039D1*
X4605Y16054D1*
X4548D1*
X4519Y16039D1*
X4490Y16011D1*
X4476Y15982D1*
X4462Y15939D1*
Y15867D1*
X4476Y15824D1*
X4490Y15795D1*
X4519Y15767D1*
X4548Y15752D1*
X4605D1*
X4634Y15767D1*
X4663Y15795D1*
X4677Y15824D1*
X4769Y15996D2*
X4798Y16011D1*
X4841Y16053D1*
Y15752D1*
X4934Y15996D2*
X4963Y16011D1*
X5006Y16053D1*
Y15752D1*
X6273Y4752D2*
X6244Y4738D1*
X6216Y4709D1*
X6201Y4681D1*
Y4623D1*
X6216Y4594D1*
X6244Y4566D1*
X6273Y4551D1*
X6316Y4537D1*
X6388D1*
X6431Y4551D1*
X6460Y4566D1*
X6488Y4594D1*
X6503Y4623D1*
Y4681D1*
X6488Y4709D1*
X6460Y4738D1*
X6431Y4752D1*
X6259Y4845D2*
X6244Y4874D1*
X6202Y4917D1*
X6503D1*
X6273Y5024D2*
X6259D1*
X6230Y5038D1*
X6216Y5053D1*
X6202Y5082D1*
Y5139D1*
X6216Y5167D1*
X6230Y5182D1*
X6259Y5196D1*
X6288D1*
X6316Y5182D1*
X6359Y5153D1*
X6503Y5010D1*
Y5211D1*
X10372Y15340D2*
X10358Y15368D1*
X10329Y15397D1*
X10301Y15411D1*
X10243D1*
X10215Y15397D1*
X10186Y15368D1*
X10171Y15340D1*
X10157Y15296D1*
Y15224D1*
X10171Y15182D1*
X10186Y15153D1*
X10215Y15124D1*
X10243Y15110D1*
X10301D1*
X10329Y15124D1*
X10358Y15153D1*
X10372Y15182D1*
X10465Y15353D2*
X10494Y15368D1*
X10537Y15411D1*
Y15110D1*
X10659Y15411D2*
X10816D1*
X10730Y15296D1*
X10773D1*
X10802Y15282D1*
X10816Y15268D1*
X10831Y15224D1*
Y15196D1*
X10816Y15153D1*
X10788Y15124D1*
X10744Y15110D1*
X10701D1*
X10659Y15124D1*
X10644Y15139D1*
X10630Y15167D1*
X15127Y23875D2*
X15113Y23903D1*
X15084Y23932D1*
X15056Y23946D1*
X14998D1*
X14970Y23932D1*
X14941Y23903D1*
X14926Y23875D1*
X14912Y23831D1*
Y23759D1*
X14926Y23717D1*
X14941Y23688D1*
X14970Y23659D1*
X14998Y23645D1*
X15056D1*
X15084Y23659D1*
X15113Y23688D1*
X15127Y23717D1*
X15220Y23888D2*
X15249Y23903D1*
X15292Y23946D1*
Y23645D1*
X15528D2*
Y23946D1*
X15385Y23745D1*
X15600D1*
X6362Y27545D2*
X6348Y27573D1*
X6319Y27602D1*
X6291Y27616D1*
X6233D1*
X6205Y27602D1*
X6176Y27573D1*
X6161Y27545D1*
X6147Y27501D1*
Y27429D1*
X6161Y27387D1*
X6176Y27358D1*
X6205Y27329D1*
X6233Y27315D1*
X6291D1*
X6319Y27329D1*
X6348Y27358D1*
X6362Y27387D1*
X6455Y27558D2*
X6484Y27573D1*
X6527Y27616D1*
Y27315D1*
X6792Y27616D2*
X6649D1*
X6634Y27487D1*
X6649Y27501D1*
X6692Y27516D1*
X6734D1*
X6778Y27501D1*
X6806Y27473D1*
X6821Y27429D1*
Y27401D1*
X6806Y27358D1*
X6778Y27329D1*
X6734Y27315D1*
X6692D1*
X6649Y27329D1*
X6634Y27344D1*
X6620Y27372D1*
X11227Y30372D2*
X11213Y30401D1*
X11184Y30429D1*
X11155Y30444D1*
X11098D1*
X11069Y30429D1*
X11041Y30401D1*
X11026Y30372D1*
X11012Y30329D1*
Y30257D1*
X11026Y30214D1*
X11041Y30185D1*
X11069Y30157D1*
X11098Y30142D1*
X11155D1*
X11184Y30157D1*
X11213Y30185D1*
X11227Y30214D1*
X11320Y30386D2*
X11348Y30401D1*
X11392Y30443D1*
Y30142D1*
X11656Y30401D2*
X11642Y30429D1*
X11599Y30443D1*
X11570D1*
X11527Y30429D1*
X11498Y30386D1*
X11484Y30314D1*
Y30243D1*
X11498Y30185D1*
X11527Y30156D1*
X11570Y30142D1*
X11585D1*
X11627Y30156D1*
X11656Y30185D1*
X11671Y30228D1*
Y30243D1*
X11656Y30286D1*
X11627Y30314D1*
X11585Y30329D1*
X11570D1*
X11527Y30314D1*
X11498Y30286D1*
X11484Y30243D1*
X21453Y25477D2*
X21424Y25463D1*
X21396Y25434D1*
X21381Y25406D1*
Y25348D1*
X21396Y25319D1*
X21424Y25291D1*
X21453Y25276D1*
X21496Y25262D1*
X21568D1*
X21611Y25276D1*
X21640Y25291D1*
X21668Y25319D1*
X21683Y25348D1*
Y25406D1*
X21668Y25434D1*
X21640Y25463D1*
X21611Y25477D1*
X21439Y25570D2*
X21424Y25599D1*
X21382Y25642D1*
X21683D1*
Y25792D2*
X21382Y25936D1*
Y25735D1*
X9241Y24560D2*
X9212Y24546D1*
X9183Y24517D1*
X9169Y24488D1*
Y24431D1*
X9183Y24402D1*
X9212Y24374D1*
X9241Y24359D1*
X9284Y24345D1*
X9356D1*
X9399Y24359D1*
X9427Y24374D1*
X9456Y24402D1*
X9470Y24431D1*
Y24488D1*
X9456Y24517D1*
X9427Y24546D1*
X9399Y24560D1*
X9227Y24653D2*
X9212Y24681D1*
X9169Y24725D1*
X9470D1*
X9169Y24889D2*
X9184Y24846D1*
X9212Y24831D1*
X9241D1*
X9270Y24846D1*
X9284Y24875D1*
X9298Y24932D1*
X9313Y24975D1*
X9341Y25004D1*
X9370Y25018D1*
X9413D1*
X9442Y25004D1*
X9456Y24989D1*
X9470Y24946D1*
Y24889D1*
X9456Y24846D1*
X9442Y24831D1*
X9413Y24817D1*
X9370D1*
X9341Y24831D1*
X9313Y24860D1*
X9298Y24903D1*
X9284Y24960D1*
X9270Y24989D1*
X9241Y25004D1*
X9212D1*
X9184Y24989D1*
X9169Y24946D1*
Y24889D1*
X9860Y28905D2*
X9845Y28933D1*
X9816Y28962D1*
X9788Y28976D1*
X9731D1*
X9702Y28962D1*
X9673Y28933D1*
X9659Y28905D1*
X9644Y28861D1*
Y28789D1*
X9659Y28747D1*
X9673Y28718D1*
X9702Y28689D1*
X9731Y28675D1*
X9788D1*
X9816Y28689D1*
X9845Y28718D1*
X9860Y28747D1*
X9952Y28918D2*
X9981Y28933D1*
X10024Y28976D1*
Y28675D1*
X10304Y28876D2*
X10289Y28833D1*
X10260Y28804D1*
X10217Y28789D1*
X10203D1*
X10160Y28804D1*
X10131Y28833D1*
X10117Y28876D1*
Y28890D1*
X10131Y28933D1*
X10160Y28962D1*
X10203Y28976D1*
X10217D1*
X10260Y28962D1*
X10289Y28933D1*
X10304Y28876D1*
Y28804D1*
X10289Y28732D1*
X10260Y28689D1*
X10217Y28675D1*
X10189D1*
X10146Y28689D1*
X10131Y28718D1*
X12850Y26043D2*
X12822Y26028D1*
X12793Y26000D1*
X12779Y25971D1*
Y25914D1*
X12793Y25885D1*
X12822Y25856D1*
X12850Y25842D1*
X12893Y25827D1*
X12965D1*
X13008Y25842D1*
X13037Y25856D1*
X13065Y25885D1*
X13080Y25914D1*
Y25971D1*
X13065Y26000D1*
X13037Y26028D1*
X13008Y26043D1*
X12851Y26150D2*
X12836D1*
X12807Y26164D1*
X12793Y26178D1*
X12779Y26207D1*
Y26265D1*
X12793Y26293D1*
X12807Y26307D1*
X12836Y26322D1*
X12865D1*
X12894Y26307D1*
X12936Y26279D1*
X13080Y26135D1*
Y26336D1*
X12779Y26515D2*
X12793Y26472D1*
X12836Y26443D1*
X12908Y26429D1*
X12951D1*
X13023Y26443D1*
X13066Y26472D1*
X13080Y26515D1*
Y26544D1*
X13066Y26587D1*
X13023Y26615D1*
X12951Y26630D1*
X12908D1*
X12836Y26615D1*
X12793Y26587D1*
X12779Y26544D1*
Y26515D1*
X12836Y26615D2*
X13023Y26443D1*
X11097Y25292D2*
X11083Y25321D1*
X11054Y25349D1*
X11026Y25364D1*
X10968D1*
X10939Y25349D1*
X10911Y25321D1*
X10896Y25292D1*
X10882Y25249D1*
Y25177D1*
X10896Y25134D1*
X10911Y25105D1*
X10939Y25077D1*
X10968Y25062D1*
X11026D1*
X11054Y25077D1*
X11083Y25105D1*
X11097Y25134D1*
X11205Y25292D2*
Y25306D1*
X11219Y25335D1*
X11233Y25349D1*
X11262Y25363D1*
X11319D1*
X11348Y25349D1*
X11362Y25335D1*
X11377Y25306D1*
Y25277D1*
X11362Y25249D1*
X11334Y25206D1*
X11190Y25062D1*
X11391D1*
X11484Y25306D2*
X11512Y25321D1*
X11556Y25363D1*
Y25062D1*
X21878Y32153D2*
X21849Y32139D1*
X21821Y32110D1*
X21806Y32081D1*
Y32024D1*
X21821Y31995D1*
X21849Y31966D1*
X21878Y31952D1*
X21921Y31938D1*
X21993D1*
X22036Y31952D1*
X22065Y31966D1*
X22093Y31995D1*
X22108Y32024D1*
Y32081D1*
X22093Y32110D1*
X22065Y32139D1*
X22036Y32153D1*
X21878Y32260D2*
X21864D1*
X21835Y32274D1*
X21821Y32289D1*
X21807Y32317D1*
Y32375D1*
X21821Y32403D1*
X21835Y32418D1*
X21864Y32432D1*
X21893D1*
X21921Y32418D1*
X21964Y32389D1*
X22108Y32245D1*
Y32446D1*
X21878Y32554D2*
X21864D1*
X21835Y32568D1*
X21821Y32582D1*
X21807Y32611D1*
Y32668D1*
X21821Y32697D1*
X21835Y32711D1*
X21864Y32726D1*
X21893D1*
X21921Y32711D1*
X21964Y32683D1*
X22108Y32539D1*
Y32740D1*
X9318Y30020D2*
X9289Y30006D1*
X9260Y29977D1*
X9246Y29948D1*
Y29891D1*
X9260Y29862D1*
X9289Y29834D1*
X9318Y29819D1*
X9361Y29805D1*
X9433D1*
X9476Y29819D1*
X9505Y29834D1*
X9533Y29862D1*
X9548Y29891D1*
Y29948D1*
X9533Y29977D1*
X9505Y30006D1*
X9476Y30020D1*
X9318Y30127D2*
X9304D1*
X9275Y30142D1*
X9261Y30156D1*
X9247Y30185D1*
Y30242D1*
X9261Y30271D1*
X9275Y30285D1*
X9304Y30299D1*
X9332D1*
X9361Y30285D1*
X9404Y30256D1*
X9548Y30113D1*
Y30314D1*
X9247Y30435D2*
Y30593D1*
X9361Y30507D1*
Y30550D1*
X9376Y30578D1*
X9390Y30593D1*
X9433Y30607D1*
X9461D1*
X9505Y30593D1*
X9533Y30564D1*
X9548Y30521D1*
Y30478D1*
X9533Y30435D1*
X9519Y30421D1*
X9490Y30406D1*
X10241Y34025D2*
X10227Y34053D1*
X10198Y34082D1*
X10169Y34096D1*
X10112D1*
X10083Y34082D1*
X10054Y34053D1*
X10040Y34025D1*
X10026Y33981D1*
Y33909D1*
X10040Y33867D1*
X10054Y33838D1*
X10083Y33809D1*
X10112Y33795D1*
X10169D1*
X10198Y33809D1*
X10227Y33838D1*
X10241Y33867D1*
X10348Y34024D2*
Y34038D1*
X10362Y34067D1*
X10377Y34082D1*
X10405Y34096D1*
X10463D1*
X10491Y34082D1*
X10506Y34067D1*
X10520Y34038D1*
Y34010D1*
X10506Y33981D1*
X10477Y33938D1*
X10333Y33795D1*
X10534D1*
X10771D2*
Y34096D1*
X10627Y33895D1*
X10842D1*
X13108Y31078D2*
X13079Y31064D1*
X13050Y31035D1*
X13036Y31006D1*
Y30949D1*
X13050Y30920D1*
X13079Y30892D1*
X13108Y30877D1*
X13151Y30863D1*
X13223D1*
X13266Y30877D1*
X13295Y30892D1*
X13323Y30920D1*
X13338Y30949D1*
Y31006D1*
X13323Y31035D1*
X13295Y31064D1*
X13266Y31078D1*
X13108Y31185D2*
X13094D1*
X13065Y31199D1*
X13051Y31214D1*
X13037Y31243D1*
Y31300D1*
X13051Y31328D1*
X13065Y31343D1*
X13094Y31357D1*
X13122D1*
X13151Y31343D1*
X13194Y31314D1*
X13338Y31171D1*
Y31372D1*
X13037Y31636D2*
Y31493D1*
X13166Y31479D1*
X13151Y31493D1*
X13137Y31536D1*
Y31579D1*
X13151Y31622D1*
X13180Y31651D1*
X13223Y31665D1*
X13251D1*
X13295Y31651D1*
X13323Y31622D1*
X13338Y31579D1*
Y31536D1*
X13323Y31493D1*
X13309Y31479D1*
X13280Y31464D1*
X8735Y4717D2*
X8707Y4703D1*
X8678Y4674D1*
X8664Y4646D1*
Y4588D1*
X8678Y4560D1*
X8707Y4531D1*
X8735Y4516D1*
X8779Y4502D1*
X8851D1*
X8893Y4516D1*
X8922Y4531D1*
X8951Y4560D1*
X8965Y4588D1*
Y4646D1*
X8951Y4674D1*
X8922Y4703D1*
X8893Y4717D1*
X8736Y4825D2*
X8722D1*
X8693Y4839D1*
X8678Y4853D1*
X8664Y4882D1*
Y4939D1*
X8678Y4968D1*
X8693Y4982D1*
X8722Y4997D1*
X8750D1*
X8779Y4982D1*
X8822Y4954D1*
X8965Y4810D1*
Y5011D1*
X8707Y5276D2*
X8678Y5261D1*
X8664Y5218D1*
Y5190D1*
X8678Y5147D1*
X8722Y5118D1*
X8793Y5104D1*
X8865D1*
X8922Y5118D1*
X8951Y5147D1*
X8965Y5190D1*
Y5204D1*
X8951Y5247D1*
X8922Y5276D1*
X8879Y5290D1*
X8865D1*
X8822Y5276D1*
X8793Y5247D1*
X8779Y5204D1*
Y5190D1*
X8793Y5147D1*
X8822Y5118D1*
X8865Y5104D1*
X7760Y4785D2*
X7732Y4771D1*
X7703Y4742D1*
X7689Y4713D1*
Y4656D1*
X7703Y4627D1*
X7732Y4599D1*
X7760Y4584D1*
X7804Y4570D1*
X7876D1*
X7918Y4584D1*
X7947Y4599D1*
X7976Y4627D1*
X7990Y4656D1*
Y4713D1*
X7976Y4742D1*
X7947Y4771D1*
X7918Y4785D1*
X7761Y4892D2*
X7747D1*
X7718Y4907D1*
X7703Y4921D1*
X7689Y4950D1*
Y5007D1*
X7703Y5036D1*
X7718Y5050D1*
X7747Y5064D1*
X7775D1*
X7804Y5050D1*
X7847Y5021D1*
X7990Y4878D1*
Y5079D1*
Y5229D2*
X7689Y5372D1*
Y5171D1*
X12675Y5650D2*
X12647Y5636D1*
X12618Y5607D1*
X12604Y5579D1*
Y5521D1*
X12618Y5492D1*
X12647Y5464D1*
X12675Y5449D1*
X12719Y5435D1*
X12791D1*
X12833Y5449D1*
X12862Y5464D1*
X12891Y5492D1*
X12905Y5521D1*
Y5579D1*
X12891Y5607D1*
X12862Y5636D1*
X12833Y5650D1*
X12676Y5757D2*
X12662D1*
X12633Y5772D1*
X12618Y5786D1*
X12604Y5815D1*
Y5872D1*
X12618Y5901D1*
X12633Y5915D1*
X12662Y5930D1*
X12690D1*
X12719Y5915D1*
X12762Y5886D1*
X12905Y5743D1*
Y5944D1*
X12604Y6108D2*
X12618Y6065D1*
X12647Y6051D1*
X12676D1*
X12704Y6065D1*
X12719Y6094D1*
X12733Y6151D1*
X12747Y6194D1*
X12776Y6223D1*
X12805Y6237D1*
X12848D1*
X12876Y6223D1*
X12891Y6209D1*
X12905Y6165D1*
Y6108D1*
X12891Y6065D1*
X12876Y6051D1*
X12848Y6036D1*
X12805D1*
X12776Y6051D1*
X12747Y6080D1*
X12733Y6122D1*
X12719Y6180D1*
X12704Y6209D1*
X12676Y6223D1*
X12647D1*
X12618Y6209D1*
X12604Y6165D1*
Y6108D1*
X14835Y13883D2*
X14807Y13869D1*
X14778Y13840D1*
X14764Y13811D1*
Y13754D1*
X14778Y13725D1*
X14807Y13697D1*
X14835Y13682D1*
X14879Y13668D1*
X14951D1*
X14993Y13682D1*
X15022Y13697D1*
X15051Y13725D1*
X15065Y13754D1*
Y13811D1*
X15051Y13840D1*
X15022Y13869D1*
X14993Y13883D1*
X14764Y14004D2*
Y14162D1*
X14879Y14076D1*
Y14119D1*
X14893Y14148D1*
X14907Y14162D1*
X14951Y14177D1*
X14979D1*
X15022Y14162D1*
X15051Y14133D1*
X15065Y14090D1*
Y14047D1*
X15051Y14004D1*
X15036Y13990D1*
X15008Y13976D1*
X14836Y14284D2*
X14822D1*
X14793Y14298D1*
X14778Y14312D1*
X14764Y14341D1*
Y14399D1*
X14778Y14427D1*
X14793Y14441D1*
X14822Y14456D1*
X14850D1*
X14879Y14441D1*
X14922Y14413D1*
X15065Y14269D1*
Y14470D1*
X4538Y14867D2*
X4524Y14896D1*
X4495Y14924D1*
X4466Y14939D1*
X4409D1*
X4380Y14924D1*
X4351Y14896D1*
X4337Y14867D1*
X4323Y14824D1*
Y14752D1*
X4337Y14709D1*
X4351Y14680D1*
X4380Y14652D1*
X4409Y14637D1*
X4466D1*
X4495Y14652D1*
X4524Y14680D1*
X4538Y14709D1*
X4659Y14938D2*
X4817D1*
X4731Y14824D1*
X4774D1*
X4803Y14809D1*
X4817Y14795D1*
X4831Y14752D1*
Y14723D1*
X4817Y14680D1*
X4788Y14651D1*
X4745Y14637D1*
X4702D1*
X4659Y14651D1*
X4645Y14666D1*
X4630Y14695D1*
X4953Y14938D2*
X5110D1*
X5025Y14824D1*
X5068D1*
X5096Y14809D1*
X5110Y14795D1*
X5125Y14752D1*
Y14723D1*
X5110Y14680D1*
X5082Y14651D1*
X5039Y14637D1*
X4996D1*
X4953Y14651D1*
X4939Y14666D1*
X4924Y14695D1*
X8960Y22738D2*
X8932Y22724D1*
X8903Y22695D1*
X8889Y22666D1*
Y22609D1*
X8903Y22580D1*
X8932Y22552D1*
X8960Y22537D1*
X9004Y22523D1*
X9076D1*
X9118Y22537D1*
X9147Y22552D1*
X9176Y22580D1*
X9190Y22609D1*
Y22666D1*
X9176Y22695D1*
X9147Y22724D1*
X9118Y22738D1*
X8889Y22859D2*
Y23017D1*
X9004Y22931D1*
Y22974D1*
X9018Y23003D1*
X9032Y23017D1*
X9076Y23032D1*
X9104D1*
X9147Y23017D1*
X9176Y22988D1*
X9190Y22945D1*
Y22902D1*
X9176Y22859D1*
X9161Y22845D1*
X9133Y22831D1*
X9190Y23268D2*
X8889D1*
X9090Y23124D1*
Y23339D1*
X13698Y23855D2*
X13684Y23883D1*
X13655Y23912D1*
X13626Y23926D1*
X13569D1*
X13540Y23912D1*
X13512Y23883D1*
X13497Y23855D1*
X13483Y23811D1*
Y23739D1*
X13497Y23697D1*
X13512Y23668D1*
X13540Y23639D1*
X13569Y23625D1*
X13626D1*
X13655Y23639D1*
X13684Y23668D1*
X13698Y23697D1*
X13819Y23926D2*
X13977D1*
X13891Y23811D1*
X13934D1*
X13963Y23797D1*
X13977Y23783D1*
X13992Y23739D1*
Y23711D1*
X13977Y23668D1*
X13948Y23639D1*
X13905Y23625D1*
X13862D1*
X13819Y23639D1*
X13805Y23654D1*
X13791Y23682D1*
X14256Y23926D2*
X14113D1*
X14099Y23797D1*
X14113Y23811D1*
X14156Y23826D1*
X14199D1*
X14242Y23811D1*
X14271Y23783D1*
X14285Y23739D1*
Y23711D1*
X14271Y23668D1*
X14242Y23639D1*
X14199Y23625D1*
X14156D1*
X14113Y23639D1*
X14099Y23654D1*
X14084Y23682D1*
X10660Y13815D2*
X10632Y13801D1*
X10603Y13772D1*
X10589Y13744D1*
Y13686D1*
X10603Y13657D1*
X10632Y13629D1*
X10660Y13614D1*
X10704Y13600D1*
X10776D1*
X10818Y13614D1*
X10847Y13629D1*
X10876Y13657D1*
X10890Y13686D1*
Y13744D1*
X10876Y13772D1*
X10847Y13801D1*
X10818Y13815D1*
X10589Y13937D2*
Y14094D1*
X10704Y14008D1*
Y14051D1*
X10718Y14080D1*
X10732Y14094D1*
X10776Y14109D1*
X10804D1*
X10847Y14094D1*
X10876Y14066D1*
X10890Y14023D1*
Y13980D1*
X10876Y13937D1*
X10861Y13922D1*
X10833Y13908D1*
X10632Y14374D2*
X10603Y14359D1*
X10589Y14316D1*
Y14288D1*
X10603Y14245D1*
X10647Y14216D1*
X10718Y14201D1*
X10790D1*
X10847Y14216D1*
X10876Y14245D1*
X10890Y14288D1*
Y14302D1*
X10876Y14345D1*
X10847Y14374D1*
X10804Y14388D1*
X10790D1*
X10747Y14374D1*
X10718Y14345D1*
X10704Y14302D1*
Y14288D1*
X10718Y14245D1*
X10747Y14216D1*
X10790Y14201D1*
X5978Y17725D2*
X5964Y17753D1*
X5935Y17782D1*
X5906Y17796D1*
X5849D1*
X5820Y17782D1*
X5792Y17753D1*
X5777Y17725D1*
X5763Y17681D1*
Y17609D1*
X5777Y17567D1*
X5792Y17538D1*
X5820Y17509D1*
X5849Y17495D1*
X5906D1*
X5935Y17509D1*
X5964Y17538D1*
X5978Y17567D1*
X6099Y17796D2*
X6257D1*
X6171Y17681D1*
X6214D1*
X6243Y17667D1*
X6257Y17653D1*
X6272Y17609D1*
Y17581D1*
X6257Y17538D1*
X6228Y17509D1*
X6185Y17495D1*
X6142D1*
X6099Y17509D1*
X6085Y17524D1*
X6071Y17552D1*
X6422Y17495D2*
X6565Y17796D1*
X6364D1*
X28077Y30641D2*
X28063Y30669D1*
X28034Y30698D1*
X28005Y30712D1*
X27948D1*
X27919Y30698D1*
X27891Y30669D1*
X27876Y30641D1*
X27862Y30598D1*
Y30526D1*
X27876Y30483D1*
X27891Y30454D1*
X27919Y30426D1*
X27948Y30411D1*
X28005D1*
X28034Y30426D1*
X28063Y30454D1*
X28077Y30483D1*
X28313Y30411D2*
Y30712D1*
X28170Y30511D1*
X28385D1*
X28564Y30712D2*
X28520Y30698D1*
X28492Y30655D1*
X28477Y30583D1*
Y30540D1*
X28492Y30468D1*
X28520Y30425D1*
X28564Y30411D1*
X28592D1*
X28635Y30425D1*
X28664Y30468D1*
X28678Y30540D1*
Y30583D1*
X28664Y30655D1*
X28635Y30698D1*
X28592Y30712D1*
X28564D1*
X28664Y30655D2*
X28492Y30468D1*
X28665Y35265D2*
X28651Y35293D1*
X28622Y35322D1*
X28594Y35336D1*
X28536D1*
X28507Y35322D1*
X28479Y35293D1*
X28464Y35265D1*
X28450Y35221D1*
Y35150D1*
X28464Y35107D1*
X28479Y35078D1*
X28507Y35049D1*
X28536Y35035D1*
X28594D1*
X28622Y35049D1*
X28651Y35078D1*
X28665Y35107D1*
X28902Y35035D2*
Y35336D1*
X28758Y35135D1*
X28973D1*
X29066Y35279D2*
X29095Y35293D1*
X29138Y35336D1*
Y35035D1*
X30355Y34761D2*
X30327Y34747D1*
X30298Y34718D1*
X30284Y34689D1*
Y34632D1*
X30298Y34603D1*
X30327Y34574D1*
X30355Y34560D1*
X30399Y34546D1*
X30471D1*
X30513Y34560D1*
X30542Y34574D1*
X30571Y34603D1*
X30585Y34632D1*
Y34689D1*
X30571Y34718D1*
X30542Y34747D1*
X30513Y34761D1*
X30585Y34997D2*
X30284D1*
X30485Y34853D1*
Y35069D1*
X30356Y35176D2*
X30342D1*
X30313Y35190D1*
X30298Y35204D1*
X30284Y35233D1*
Y35291D1*
X30298Y35319D1*
X30313Y35333D1*
X30342Y35348D1*
X30370D1*
X30399Y35333D1*
X30442Y35305D1*
X30585Y35161D1*
Y35362D1*
X27211Y34115D2*
X27197Y34143D1*
X27168Y34172D1*
X27139Y34186D1*
X27082D1*
X27053Y34172D1*
X27024Y34143D1*
X27010Y34115D1*
X26996Y34071D1*
Y34000D1*
X27010Y33957D1*
X27024Y33928D1*
X27053Y33899D1*
X27082Y33885D1*
X27139D1*
X27168Y33899D1*
X27197Y33928D1*
X27211Y33957D1*
X27447Y33885D2*
Y34186D1*
X27303Y33985D1*
X27519D1*
X27640Y34186D2*
X27798D1*
X27712Y34071D1*
X27755D1*
X27783Y34057D1*
X27798Y34043D1*
X27812Y34000D1*
Y33971D1*
X27798Y33928D1*
X27769Y33899D1*
X27726Y33885D1*
X27683D1*
X27640Y33899D1*
X27626Y33914D1*
X27611Y33942D1*
X27030Y34931D2*
X27015Y34959D1*
X26987Y34988D1*
X26958Y35002D1*
X26901D1*
X26872Y34988D1*
X26843Y34959D1*
X26829Y34931D1*
X26815Y34888D1*
Y34816D1*
X26829Y34773D1*
X26843Y34744D1*
X26872Y34716D1*
X26901Y34701D1*
X26958D1*
X26987Y34716D1*
X27015Y34744D1*
X27030Y34773D1*
X27266Y34701D2*
Y35002D1*
X27122Y34801D1*
X27338D1*
X27574Y34701D2*
Y35002D1*
X27430Y34801D1*
X27645D1*
X30082Y31187D2*
X30068Y31216D1*
X30039Y31245D1*
X30010Y31259D1*
X29953D1*
X29924Y31245D1*
X29896Y31216D1*
X29881Y31187D1*
X29867Y31144D1*
Y31072D1*
X29881Y31029D1*
X29896Y31001D1*
X29924Y30972D1*
X29953Y30957D1*
X30010D1*
X30039Y30972D1*
X30068Y31001D1*
X30082Y31029D1*
X30318Y30957D2*
Y31259D1*
X30175Y31058D1*
X30390D1*
X30655Y31259D2*
X30511D1*
X30497Y31130D1*
X30511Y31144D1*
X30554Y31158D1*
X30597D1*
X30640Y31144D1*
X30669Y31115D1*
X30683Y31072D1*
Y31044D1*
X30669Y31001D1*
X30640Y30972D1*
X30597Y30957D1*
X30554D1*
X30511Y30972D1*
X30497Y30986D1*
X30482Y31015D1*
X28084Y22581D2*
X28070Y22609D1*
X28041Y22638D1*
X28013Y22652D1*
X27955D1*
X27926Y22638D1*
X27898Y22609D1*
X27883Y22581D1*
X27869Y22538D1*
Y22466D1*
X27883Y22423D1*
X27898Y22394D1*
X27926Y22366D1*
X27955Y22351D1*
X28013D1*
X28041Y22366D1*
X28070Y22394D1*
X28084Y22423D1*
X28320Y22351D2*
Y22652D1*
X28177Y22451D1*
X28392D1*
X28657Y22609D2*
X28643Y22638D1*
X28599Y22652D1*
X28571D1*
X28528Y22638D1*
X28499Y22595D1*
X28485Y22523D1*
Y22451D1*
X28499Y22394D1*
X28528Y22365D1*
X28571Y22351D1*
X28585D1*
X28628Y22365D1*
X28657Y22394D1*
X28671Y22437D1*
Y22451D1*
X28657Y22495D1*
X28628Y22523D1*
X28585Y22537D1*
X28571D1*
X28528Y22523D1*
X28499Y22495D1*
X28485Y22451D1*
X28601Y27205D2*
X28587Y27233D1*
X28558Y27262D1*
X28529Y27276D1*
X28472D1*
X28443Y27262D1*
X28414Y27233D1*
X28400Y27205D1*
X28386Y27161D1*
Y27089D1*
X28400Y27047D1*
X28414Y27018D1*
X28443Y26989D1*
X28472Y26975D1*
X28529D1*
X28558Y26989D1*
X28587Y27018D1*
X28601Y27047D1*
X28837Y26975D2*
Y27276D1*
X28693Y27075D1*
X28909D1*
X29059Y26975D2*
X29202Y27276D1*
X29001D1*
X30275Y26691D2*
X30247Y26677D1*
X30218Y26648D1*
X30204Y26619D1*
Y26562D1*
X30218Y26533D1*
X30247Y26505D1*
X30275Y26490D1*
X30319Y26476D1*
X30391D1*
X30433Y26490D1*
X30462Y26505D1*
X30491Y26533D1*
X30505Y26562D1*
Y26619D1*
X30491Y26648D1*
X30462Y26677D1*
X30433Y26691D1*
X30505Y26927D2*
X30204D1*
X30405Y26784D1*
Y26999D1*
X30204Y27163D2*
X30218Y27120D1*
X30247Y27106D1*
X30276D1*
X30304Y27120D1*
X30319Y27149D1*
X30333Y27206D1*
X30347Y27249D1*
X30376Y27278D1*
X30405Y27292D1*
X30448D1*
X30476Y27278D1*
X30491Y27264D1*
X30505Y27220D1*
Y27163D1*
X30491Y27120D1*
X30476Y27106D1*
X30448Y27091D1*
X30405D1*
X30376Y27106D1*
X30347Y27135D1*
X30333Y27177D1*
X30319Y27235D1*
X30304Y27264D1*
X30276Y27278D1*
X30247D1*
X30218Y27264D1*
X30204Y27220D1*
Y27163D1*
X27218Y26055D2*
X27204Y26083D1*
X27175Y26112D1*
X27146Y26126D1*
X27089D1*
X27060Y26112D1*
X27032Y26083D1*
X27017Y26055D1*
X27003Y26011D1*
Y25939D1*
X27017Y25897D1*
X27032Y25868D1*
X27060Y25839D1*
X27089Y25825D1*
X27146D1*
X27175Y25839D1*
X27204Y25868D1*
X27218Y25897D1*
X27454Y25825D2*
Y26126D1*
X27311Y25925D1*
X27526D1*
X27805Y26026D2*
X27791Y25983D1*
X27762Y25954D1*
X27719Y25939D1*
X27705D1*
X27662Y25954D1*
X27633Y25983D1*
X27618Y26026D1*
Y26040D1*
X27633Y26083D1*
X27662Y26112D1*
X27705Y26126D1*
X27719D1*
X27762Y26112D1*
X27791Y26083D1*
X27805Y26026D1*
Y25954D1*
X27791Y25882D1*
X27762Y25839D1*
X27719Y25825D1*
X27690D1*
X27647Y25839D1*
X27633Y25868D1*
X27014Y26891D2*
X27000Y26919D1*
X26971Y26948D1*
X26942Y26962D1*
X26885D1*
X26856Y26948D1*
X26828Y26919D1*
X26813Y26891D1*
X26799Y26848D1*
Y26776D1*
X26813Y26733D1*
X26828Y26704D1*
X26856Y26676D1*
X26885Y26661D1*
X26942D1*
X26971Y26676D1*
X27000Y26704D1*
X27014Y26733D1*
X27279Y26962D2*
X27136D1*
X27121Y26833D1*
X27136Y26847D1*
X27179Y26862D1*
X27221D1*
X27264Y26847D1*
X27293Y26819D1*
X27308Y26776D1*
Y26747D1*
X27293Y26704D1*
X27264Y26675D1*
X27221Y26661D1*
X27179D1*
X27136Y26675D1*
X27121Y26690D1*
X27107Y26718D1*
X27486Y26962D2*
X27443Y26948D1*
X27415Y26905D1*
X27400Y26833D1*
Y26790D1*
X27415Y26718D1*
X27443Y26675D1*
X27486Y26661D1*
X27515D1*
X27558Y26675D1*
X27587Y26718D1*
X27601Y26790D1*
Y26833D1*
X27587Y26905D1*
X27558Y26948D1*
X27515Y26962D1*
X27486D1*
X27587Y26905D2*
X27415Y26718D1*
X30154Y23127D2*
X30139Y23156D1*
X30111Y23185D1*
X30082Y23199D1*
X30025D1*
X29996Y23185D1*
X29967Y23156D1*
X29953Y23127D1*
X29938Y23084D1*
Y23012D1*
X29953Y22969D1*
X29967Y22941D1*
X29996Y22912D1*
X30025Y22897D1*
X30082D1*
X30111Y22912D1*
X30139Y22941D1*
X30154Y22969D1*
X30418Y23199D2*
X30275D1*
X30261Y23070D1*
X30275Y23084D1*
X30318Y23098D1*
X30361D1*
X30404Y23084D1*
X30433Y23055D1*
X30447Y23012D1*
Y22984D1*
X30433Y22941D1*
X30404Y22912D1*
X30361Y22897D1*
X30318D1*
X30275Y22912D1*
X30261Y22926D1*
X30246Y22955D1*
X30540Y23141D2*
X30569Y23156D1*
X30612Y23199D1*
Y22897D1*
X28071Y14600D2*
X28057Y14629D1*
X28028Y14657D1*
X28000Y14672D1*
X27942D1*
X27913Y14657D1*
X27885Y14629D1*
X27870Y14600D1*
X27856Y14557D1*
Y14485D1*
X27870Y14442D1*
X27885Y14413D1*
X27913Y14385D1*
X27942Y14370D1*
X28000D1*
X28028Y14385D1*
X28057Y14413D1*
X28071Y14442D1*
X28336Y14671D2*
X28193D1*
X28178Y14542D1*
X28193Y14557D1*
X28236Y14571D1*
X28279D1*
X28322Y14557D1*
X28351Y14528D1*
X28365Y14485D1*
Y14457D1*
X28351Y14413D1*
X28322Y14385D1*
X28279Y14370D1*
X28236D1*
X28193Y14385D1*
X28178Y14399D1*
X28164Y14428D1*
X28472Y14600D2*
Y14614D1*
X28486Y14643D1*
X28501Y14657D1*
X28529Y14671D1*
X28587D1*
X28615Y14657D1*
X28630Y14643D1*
X28644Y14614D1*
Y14586D1*
X28630Y14557D1*
X28601Y14514D1*
X28457Y14370D1*
X28658D1*
X28595Y19224D2*
X28581Y19252D1*
X28552Y19281D1*
X28524Y19295D1*
X28466D1*
X28437Y19281D1*
X28409Y19252D1*
X28394Y19224D1*
X28380Y19181D1*
Y19109D1*
X28394Y19066D1*
X28409Y19037D1*
X28437Y19009D1*
X28466Y18994D1*
X28524D1*
X28552Y19009D1*
X28581Y19037D1*
X28595Y19066D1*
X28860Y19295D2*
X28717D1*
X28702Y19166D1*
X28717Y19180D1*
X28760Y19195D1*
X28803D1*
X28846Y19180D1*
X28875Y19152D1*
X28889Y19109D1*
Y19080D1*
X28875Y19037D1*
X28846Y19008D1*
X28803Y18994D1*
X28760D1*
X28717Y19008D1*
X28702Y19023D1*
X28688Y19051D1*
X29010Y19295D2*
X29168D1*
X29082Y19180D1*
X29125D1*
X29154Y19166D1*
X29168Y19152D1*
X29182Y19109D1*
Y19080D1*
X29168Y19037D1*
X29139Y19008D1*
X29096Y18994D1*
X29053D1*
X29010Y19008D1*
X28996Y19023D1*
X28981Y19051D1*
X30333Y18720D2*
X30304Y18706D1*
X30275Y18677D1*
X30261Y18648D1*
Y18591D1*
X30275Y18562D1*
X30304Y18534D1*
X30333Y18519D1*
X30376Y18505D1*
X30448D1*
X30491Y18519D1*
X30519Y18534D1*
X30548Y18562D1*
X30562Y18591D1*
Y18648D1*
X30548Y18677D1*
X30519Y18706D1*
X30491Y18720D1*
X30261Y18985D2*
Y18842D1*
X30390Y18827D1*
X30376Y18842D1*
X30362Y18885D1*
Y18928D1*
X30376Y18971D1*
X30405Y18999D1*
X30448Y19014D1*
X30476D1*
X30519Y18999D1*
X30548Y18971D1*
X30562Y18928D1*
Y18885D1*
X30548Y18842D1*
X30534Y18827D1*
X30505Y18813D1*
X30562Y19250D2*
X30261D1*
X30462Y19106D1*
Y19322D1*
X27205Y18074D2*
X27191Y18102D1*
X27162Y18131D1*
X27134Y18145D1*
X27076D1*
X27047Y18131D1*
X27019Y18102D1*
X27004Y18074D1*
X26990Y18031D1*
Y17959D1*
X27004Y17916D1*
X27019Y17887D1*
X27047Y17859D1*
X27076Y17844D1*
X27134D1*
X27162Y17859D1*
X27191Y17887D1*
X27205Y17916D1*
X27470Y18145D2*
X27327D1*
X27312Y18016D1*
X27327Y18030D1*
X27370Y18045D1*
X27413D1*
X27456Y18030D1*
X27485Y18002D1*
X27499Y17959D1*
Y17930D1*
X27485Y17887D1*
X27456Y17858D1*
X27413Y17844D1*
X27370D1*
X27327Y17858D1*
X27312Y17873D1*
X27298Y17901D1*
X27764Y18145D2*
X27620D1*
X27606Y18016D1*
X27620Y18030D1*
X27663Y18045D1*
X27706D1*
X27749Y18030D1*
X27778Y18002D1*
X27792Y17959D1*
Y17930D1*
X27778Y17887D1*
X27749Y17858D1*
X27706Y17844D1*
X27663D1*
X27620Y17858D1*
X27606Y17873D1*
X27591Y17901D1*
X27029Y18910D2*
X27014Y18939D1*
X26985Y18967D1*
X26957Y18982D1*
X26900D1*
X26871Y18967D1*
X26842Y18939D1*
X26828Y18910D1*
X26813Y18867D1*
Y18795D1*
X26828Y18752D1*
X26842Y18723D1*
X26871Y18695D1*
X26900Y18680D1*
X26957D1*
X26985Y18695D1*
X27014Y18723D1*
X27029Y18752D1*
X27293Y18981D2*
X27150D1*
X27136Y18852D1*
X27150Y18867D1*
X27193Y18881D1*
X27236D1*
X27279Y18867D1*
X27308Y18838D1*
X27322Y18795D1*
Y18767D1*
X27308Y18723D1*
X27279Y18695D1*
X27236Y18680D1*
X27193D1*
X27150Y18695D1*
X27136Y18709D1*
X27121Y18738D1*
X27587Y18939D2*
X27573Y18967D1*
X27530Y18981D1*
X27501D1*
X27458Y18967D1*
X27429Y18924D1*
X27415Y18852D1*
Y18781D1*
X27429Y18723D1*
X27458Y18695D1*
X27501Y18680D1*
X27515D1*
X27558Y18695D1*
X27587Y18723D1*
X27601Y18767D1*
Y18781D1*
X27587Y18824D1*
X27558Y18852D1*
X27515Y18867D1*
X27501D1*
X27458Y18852D1*
X27429Y18824D1*
X27415Y18781D1*
X30076Y15147D2*
X30062Y15175D1*
X30033Y15204D1*
X30005Y15218D1*
X29947D1*
X29919Y15204D1*
X29890Y15175D1*
X29875Y15147D1*
X29861Y15103D1*
Y15031D1*
X29875Y14989D1*
X29890Y14960D1*
X29919Y14931D1*
X29947Y14917D1*
X30005D1*
X30033Y14931D1*
X30062Y14960D1*
X30076Y14989D1*
X30341Y15218D2*
X30198D1*
X30184Y15089D1*
X30198Y15103D1*
X30241Y15118D1*
X30284D1*
X30327Y15103D1*
X30356Y15075D1*
X30370Y15031D1*
Y15003D1*
X30356Y14960D1*
X30327Y14931D1*
X30284Y14917D1*
X30241D1*
X30198Y14931D1*
X30184Y14946D1*
X30169Y14974D1*
X30520Y14917D2*
X30664Y15218D1*
X30463D1*
X28074Y6621D2*
X28060Y6649D1*
X28031Y6678D1*
X28003Y6692D1*
X27945D1*
X27916Y6678D1*
X27888Y6649D1*
X27873Y6621D1*
X27859Y6578D1*
Y6506D1*
X27873Y6463D1*
X27888Y6434D1*
X27916Y6406D1*
X27945Y6391D1*
X28003D1*
X28031Y6406D1*
X28060Y6434D1*
X28074Y6463D1*
X28339Y6692D2*
X28196D1*
X28181Y6563D1*
X28196Y6577D1*
X28239Y6592D1*
X28282D1*
X28325Y6577D1*
X28354Y6549D1*
X28368Y6506D1*
Y6477D1*
X28354Y6434D1*
X28325Y6405D1*
X28282Y6391D1*
X28239D1*
X28196Y6405D1*
X28181Y6420D1*
X28167Y6448D1*
X28532Y6692D2*
X28489Y6678D1*
X28475Y6649D1*
Y6620D1*
X28489Y6592D1*
X28518Y6577D1*
X28575Y6563D1*
X28618Y6549D1*
X28647Y6520D1*
X28661Y6491D1*
Y6448D1*
X28647Y6420D1*
X28633Y6405D1*
X28589Y6391D1*
X28532D1*
X28489Y6405D1*
X28475Y6420D1*
X28460Y6448D1*
Y6491D1*
X28475Y6520D1*
X28504Y6549D1*
X28546Y6563D1*
X28604Y6577D1*
X28633Y6592D1*
X28647Y6620D1*
Y6649D1*
X28633Y6678D1*
X28589Y6692D1*
X28532D1*
X28605Y11245D2*
X28591Y11273D1*
X28562Y11302D1*
X28533Y11316D1*
X28476D1*
X28447Y11302D1*
X28419Y11273D1*
X28404Y11245D1*
X28390Y11201D1*
Y11129D1*
X28404Y11087D1*
X28419Y11058D1*
X28447Y11029D1*
X28476Y11015D1*
X28533D1*
X28562Y11029D1*
X28591Y11058D1*
X28605Y11087D1*
X28870Y11316D2*
X28727D1*
X28712Y11187D1*
X28727Y11201D1*
X28770Y11216D1*
X28812D1*
X28856Y11201D1*
X28884Y11173D1*
X28899Y11129D1*
Y11101D1*
X28884Y11058D1*
X28856Y11029D1*
X28812Y11015D1*
X28770D1*
X28727Y11029D1*
X28712Y11044D1*
X28698Y11072D1*
X29178Y11216D2*
X29163Y11173D1*
X29135Y11144D1*
X29092Y11129D1*
X29078D1*
X29034Y11144D1*
X29006Y11173D1*
X28991Y11216D1*
Y11230D1*
X29006Y11273D1*
X29034Y11302D1*
X29078Y11316D1*
X29092D1*
X29135Y11302D1*
X29163Y11273D1*
X29178Y11216D1*
Y11144D1*
X29163Y11072D1*
X29135Y11029D1*
X29092Y11015D1*
X29063D1*
X29020Y11029D1*
X29006Y11058D1*
X30385Y10855D2*
X30357Y10841D1*
X30328Y10812D1*
X30314Y10784D1*
Y10726D1*
X30328Y10697D1*
X30357Y10669D1*
X30385Y10654D1*
X30429Y10640D1*
X30501D1*
X30543Y10654D1*
X30572Y10669D1*
X30601Y10697D1*
X30615Y10726D1*
Y10784D1*
X30601Y10812D1*
X30572Y10841D1*
X30543Y10855D1*
X30357Y11120D2*
X30328Y11106D1*
X30314Y11063D1*
Y11034D1*
X30328Y10991D1*
X30372Y10962D1*
X30443Y10948D1*
X30515D1*
X30572Y10962D1*
X30601Y10991D1*
X30615Y11034D1*
Y11048D1*
X30601Y11091D1*
X30572Y11120D1*
X30529Y11134D1*
X30515D1*
X30472Y11120D1*
X30443Y11091D1*
X30429Y11048D1*
Y11034D1*
X30443Y10991D1*
X30472Y10962D1*
X30515Y10948D1*
X30314Y11313D2*
X30328Y11270D1*
X30372Y11241D1*
X30443Y11227D1*
X30486D1*
X30558Y11241D1*
X30601Y11270D1*
X30615Y11313D1*
Y11342D1*
X30601Y11385D1*
X30558Y11413D1*
X30486Y11428D1*
X30443D1*
X30372Y11413D1*
X30328Y11385D1*
X30314Y11342D1*
Y11313D1*
X30372Y11413D2*
X30558Y11241D1*
X27280Y10095D2*
X27265Y10123D1*
X27237Y10152D1*
X27208Y10166D1*
X27151D1*
X27122Y10152D1*
X27093Y10123D1*
X27079Y10095D1*
X27065Y10051D1*
Y9979D1*
X27079Y9937D1*
X27093Y9908D1*
X27122Y9879D1*
X27151Y9865D1*
X27208D1*
X27237Y9879D1*
X27265Y9908D1*
X27280Y9937D1*
X27544Y10123D2*
X27530Y10152D1*
X27487Y10166D1*
X27459D1*
X27415Y10152D1*
X27387Y10108D1*
X27372Y10037D1*
Y9965D1*
X27387Y9908D1*
X27415Y9879D1*
X27459Y9865D1*
X27473D1*
X27516Y9879D1*
X27544Y9908D1*
X27559Y9951D1*
Y9965D1*
X27544Y10008D1*
X27516Y10037D1*
X27473Y10051D1*
X27459D1*
X27415Y10037D1*
X27387Y10008D1*
X27372Y9965D1*
X27651Y10108D2*
X27680Y10123D1*
X27723Y10166D1*
Y9865D1*
X27001Y10911D2*
X26987Y10939D1*
X26958Y10968D1*
X26930Y10982D1*
X26872D1*
X26843Y10968D1*
X26815Y10939D1*
X26800Y10911D1*
X26786Y10868D1*
Y10796D1*
X26800Y10753D1*
X26815Y10724D1*
X26843Y10696D1*
X26872Y10681D1*
X26930D1*
X26958Y10696D1*
X26987Y10724D1*
X27001Y10753D1*
X27266Y10939D2*
X27252Y10968D1*
X27209Y10982D1*
X27180D1*
X27137Y10968D1*
X27108Y10925D1*
X27094Y10853D1*
Y10781D1*
X27108Y10724D1*
X27137Y10695D1*
X27180Y10681D1*
X27194D1*
X27237Y10695D1*
X27266Y10724D1*
X27280Y10767D1*
Y10781D1*
X27266Y10825D1*
X27237Y10853D1*
X27194Y10867D1*
X27180D1*
X27137Y10853D1*
X27108Y10825D1*
X27094Y10781D1*
X27388Y10910D2*
Y10925D1*
X27402Y10954D1*
X27416Y10968D1*
X27445Y10982D1*
X27502D1*
X27531Y10968D1*
X27545Y10954D1*
X27560Y10925D1*
Y10896D1*
X27545Y10867D1*
X27517Y10825D1*
X27373Y10681D1*
X27574D1*
X30086Y7167D2*
X30072Y7196D1*
X30043Y7225D1*
X30015Y7239D1*
X29957D1*
X29929Y7225D1*
X29900Y7196D1*
X29885Y7167D1*
X29871Y7124D1*
Y7052D1*
X29885Y7009D1*
X29900Y6981D1*
X29929Y6952D1*
X29957Y6937D1*
X30015D1*
X30043Y6952D1*
X30072Y6981D1*
X30086Y7009D1*
X30351Y7196D2*
X30337Y7224D1*
X30294Y7239D1*
X30265D1*
X30222Y7224D1*
X30193Y7181D1*
X30179Y7110D1*
Y7038D1*
X30193Y6981D1*
X30222Y6952D1*
X30265Y6937D1*
X30280D1*
X30322Y6952D1*
X30351Y6981D1*
X30365Y7024D1*
Y7038D1*
X30351Y7081D1*
X30322Y7110D1*
X30280Y7124D1*
X30265D1*
X30222Y7110D1*
X30193Y7081D1*
X30179Y7038D1*
X30487Y7239D2*
X30644D1*
X30559Y7124D1*
X30602D1*
X30630Y7110D1*
X30644Y7095D1*
X30659Y7052D1*
Y7024D1*
X30644Y6981D1*
X30616Y6952D1*
X30573Y6937D1*
X30530D1*
X30487Y6952D1*
X30473Y6966D1*
X30458Y6995D1*
X2508Y33739D2*
X2493Y33768D1*
X2464Y33796D1*
X2436Y33811D1*
X2379D1*
X2350Y33796D1*
X2321Y33768D1*
X2307Y33739D1*
X2292Y33696D1*
Y33624D1*
X2307Y33581D1*
X2321Y33552D1*
X2350Y33524D1*
X2379Y33509D1*
X2436D1*
X2464Y33524D1*
X2493Y33552D1*
X2508Y33581D1*
X2801Y33811D2*
Y33509D1*
X2600Y33811D1*
Y33509D1*
X2894Y33753D2*
X2923Y33768D1*
X2966Y33810D1*
Y33509D1*
X1487Y23387D2*
X1473Y23416D1*
X1444Y23445D1*
X1416Y23459D1*
X1358D1*
X1329Y23445D1*
X1301Y23416D1*
X1286Y23387D1*
X1272Y23344D1*
Y23272D1*
X1286Y23230D1*
X1301Y23201D1*
X1329Y23172D1*
X1358Y23158D1*
X1416D1*
X1444Y23172D1*
X1473Y23201D1*
X1487Y23230D1*
X1781Y23459D2*
Y23158D1*
X1580Y23459D1*
Y23158D1*
X1888Y23387D2*
Y23401D1*
X1902Y23430D1*
X1917Y23444D1*
X1945Y23459D1*
X2003D1*
X2031Y23444D1*
X2046Y23430D1*
X2060Y23401D1*
Y23373D1*
X2046Y23344D1*
X2017Y23301D1*
X1873Y23158D1*
X2074D1*
X34374Y35537D2*
X34359Y35566D1*
X34330Y35595D1*
X34302Y35609D1*
X34245D1*
X34216Y35595D1*
X34187Y35566D1*
X34173Y35537D1*
X34158Y35494D1*
Y35422D1*
X34173Y35380D1*
X34187Y35351D1*
X34216Y35322D1*
X34245Y35308D1*
X34302D1*
X34330Y35322D1*
X34359Y35351D1*
X34374Y35380D1*
X34667Y35609D2*
Y35308D1*
X34466Y35609D1*
Y35308D1*
X34789Y35609D2*
X34946D1*
X34860Y35494D1*
X34903D1*
X34932Y35480D1*
X34946Y35465D1*
X34961Y35422D1*
Y35394D1*
X34946Y35351D1*
X34918Y35322D1*
X34875Y35308D1*
X34831D1*
X34789Y35322D1*
X34774Y35336D1*
X34760Y35365D1*
X34336Y27497D2*
X34322Y27526D1*
X34293Y27555D1*
X34265Y27569D1*
X34207D1*
X34179Y27555D1*
X34150Y27526D1*
X34135Y27497D1*
X34121Y27454D1*
Y27382D1*
X34135Y27340D1*
X34150Y27311D1*
X34179Y27282D1*
X34207Y27268D1*
X34265D1*
X34293Y27282D1*
X34322Y27311D1*
X34336Y27340D1*
X34630Y27569D2*
Y27268D1*
X34429Y27569D1*
Y27268D1*
X34866D2*
Y27569D1*
X34723Y27368D1*
X34938D1*
X34331Y19437D2*
X34317Y19465D1*
X34288Y19494D1*
X34259Y19508D1*
X34202D1*
X34173Y19494D1*
X34144Y19465D1*
X34130Y19437D1*
X34116Y19394D1*
Y19322D1*
X34130Y19279D1*
X34144Y19250D1*
X34173Y19221D1*
X34202Y19207D1*
X34259D1*
X34288Y19221D1*
X34317Y19250D1*
X34331Y19279D1*
X34624Y19508D2*
Y19207D1*
X34423Y19508D1*
Y19207D1*
X34889Y19508D2*
X34746D1*
X34732Y19379D1*
X34746Y19393D1*
X34789Y19408D1*
X34832D1*
X34875Y19393D1*
X34904Y19365D1*
X34918Y19322D1*
Y19293D1*
X34904Y19250D1*
X34875Y19221D1*
X34832Y19207D1*
X34789D1*
X34746Y19221D1*
X34732Y19236D1*
X34717Y19264D1*
X34371Y11537D2*
X34357Y11566D1*
X34328Y11595D1*
X34299Y11609D1*
X34242D1*
X34213Y11595D1*
X34184Y11566D1*
X34170Y11537D1*
X34156Y11494D1*
Y11422D1*
X34170Y11380D1*
X34184Y11351D1*
X34213Y11322D1*
X34242Y11308D1*
X34299D1*
X34328Y11322D1*
X34357Y11351D1*
X34371Y11380D1*
X34664Y11609D2*
Y11308D1*
X34463Y11609D1*
Y11308D1*
X34929Y11566D2*
X34915Y11594D1*
X34872Y11609D1*
X34843D1*
X34800Y11594D1*
X34771Y11551D1*
X34757Y11480D1*
Y11408D1*
X34771Y11351D1*
X34800Y11322D1*
X34843Y11308D1*
X34858D1*
X34900Y11322D1*
X34929Y11351D1*
X34943Y11394D1*
Y11408D1*
X34929Y11451D1*
X34900Y11480D1*
X34858Y11494D1*
X34843D1*
X34800Y11480D1*
X34771Y11451D1*
X34757Y11408D1*
X9034Y39648D2*
X9020Y39676D1*
X8991Y39705D1*
X8962Y39719D1*
X8905D1*
X8876Y39705D1*
X8848Y39676D1*
X8833Y39648D1*
X8819Y39605D1*
Y39533D1*
X8833Y39490D1*
X8848Y39461D1*
X8876Y39432D1*
X8905Y39418D1*
X8962D1*
X8991Y39432D1*
X9020Y39461D1*
X9034Y39490D1*
X9328Y39719D2*
Y39418D1*
X9127Y39719D1*
Y39418D1*
X9478D2*
X9621Y39719D1*
X9420D1*
X11274Y39718D2*
X11260Y39746D1*
X11231Y39775D1*
X11203Y39789D1*
X11145D1*
X11116Y39775D1*
X11088Y39746D1*
X11073Y39718D1*
X11059Y39675D1*
Y39603D1*
X11073Y39560D1*
X11088Y39531D1*
X11116Y39502D1*
X11145Y39488D1*
X11203D1*
X11231Y39502D1*
X11260Y39531D1*
X11274Y39560D1*
X11568Y39789D2*
Y39488D1*
X11367Y39789D1*
Y39488D1*
X11732Y39789D2*
X11689Y39775D1*
X11675Y39746D1*
Y39717D1*
X11689Y39689D1*
X11718Y39674D1*
X11775Y39660D1*
X11818Y39646D1*
X11847Y39617D1*
X11861Y39588D1*
Y39545D1*
X11847Y39517D1*
X11833Y39502D1*
X11789Y39488D1*
X11732D1*
X11689Y39502D1*
X11675Y39517D1*
X11660Y39545D1*
Y39588D1*
X11675Y39617D1*
X11704Y39646D1*
X11746Y39660D1*
X11804Y39674D1*
X11833Y39689D1*
X11847Y39717D1*
Y39746D1*
X11833Y39775D1*
X11789Y39789D1*
X11732D1*
X16126Y36437D2*
X16112Y36466D1*
X16083Y36495D1*
X16055Y36509D1*
X15997D1*
X15968Y36495D1*
X15940Y36466D1*
X15925Y36437D1*
X15911Y36394D1*
Y36322D1*
X15925Y36280D1*
X15940Y36251D1*
X15968Y36222D1*
X15997Y36208D1*
X16055D1*
X16083Y36222D1*
X16112Y36251D1*
X16126Y36280D1*
X16420Y36509D2*
Y36208D1*
X16219Y36509D1*
Y36208D1*
X16699Y36409D2*
X16684Y36365D1*
X16656Y36337D1*
X16613Y36322D1*
X16599D1*
X16555Y36337D1*
X16527Y36365D1*
X16512Y36409D1*
Y36423D1*
X16527Y36466D1*
X16555Y36494D1*
X16599Y36509D1*
X16613D1*
X16656Y36494D1*
X16684Y36466D1*
X16699Y36409D1*
Y36337D1*
X16684Y36265D1*
X16656Y36222D1*
X16613Y36208D1*
X16584D1*
X16541Y36222D1*
X16527Y36251D1*
X32022Y4146D2*
X32007Y4175D1*
X31979Y4204D1*
X31950Y4218D1*
X31893D1*
X31864Y4204D1*
X31835Y4175D1*
X31821Y4146D1*
X31806Y4103D1*
Y4031D1*
X31821Y3989D1*
X31835Y3960D1*
X31864Y3931D1*
X31893Y3917D1*
X31950D1*
X31979Y3931D1*
X32007Y3960D1*
X32022Y3989D1*
X32315Y4218D2*
Y3917D1*
X32114Y4218D1*
Y3917D1*
X32408Y4160D2*
X32437Y4175D1*
X32480Y4218D1*
Y3917D1*
X32659Y4218D2*
X32616Y4203D1*
X32587Y4160D1*
X32573Y4089D1*
Y4046D1*
X32587Y3974D1*
X32616Y3931D1*
X32659Y3917D1*
X32687D1*
X32730Y3931D1*
X32759Y3974D1*
X32774Y4046D1*
Y4089D1*
X32759Y4160D1*
X32730Y4203D1*
X32687Y4218D1*
X32659D1*
X32759Y4160D2*
X32587Y3974D1*
X23646Y4146D2*
X23632Y4175D1*
X23603Y4204D1*
X23575Y4218D1*
X23517D1*
X23488Y4204D1*
X23460Y4175D1*
X23445Y4146D1*
X23431Y4103D1*
Y4031D1*
X23445Y3989D1*
X23460Y3960D1*
X23488Y3931D1*
X23517Y3917D1*
X23575D1*
X23603Y3931D1*
X23632Y3960D1*
X23646Y3989D1*
X23940Y4218D2*
Y3917D1*
X23739Y4218D1*
Y3917D1*
X24032Y4160D2*
X24061Y4175D1*
X24104Y4218D1*
Y3917D1*
X24197Y4160D2*
X24226Y4175D1*
X24269Y4218D1*
Y3917D1*
X20562Y4146D2*
X20547Y4175D1*
X20519Y4204D1*
X20490Y4218D1*
X20433D1*
X20404Y4204D1*
X20375Y4175D1*
X20361Y4146D1*
X20346Y4103D1*
Y4031D1*
X20361Y3989D1*
X20375Y3960D1*
X20404Y3931D1*
X20433Y3917D1*
X20490D1*
X20519Y3931D1*
X20547Y3960D1*
X20562Y3989D1*
X20855Y4218D2*
Y3917D1*
X20654Y4218D1*
Y3917D1*
X20948Y4160D2*
X20977Y4175D1*
X21020Y4218D1*
Y3917D1*
X21127Y4146D2*
Y4160D1*
X21141Y4189D1*
X21156Y4203D1*
X21185Y4218D1*
X21242D1*
X21270Y4203D1*
X21285Y4189D1*
X21299Y4160D1*
Y4132D1*
X21285Y4103D1*
X21256Y4060D1*
X21113Y3917D1*
X21314D1*
X17102Y4146D2*
X17087Y4175D1*
X17059Y4204D1*
X17030Y4218D1*
X16973D1*
X16944Y4204D1*
X16915Y4175D1*
X16901Y4146D1*
X16886Y4103D1*
Y4031D1*
X16901Y3989D1*
X16915Y3960D1*
X16944Y3931D1*
X16973Y3917D1*
X17030D1*
X17059Y3931D1*
X17087Y3960D1*
X17102Y3989D1*
X17395Y4218D2*
Y3917D1*
X17194Y4218D1*
Y3917D1*
X17488Y4160D2*
X17517Y4175D1*
X17560Y4218D1*
Y3917D1*
X17681Y4218D2*
X17839D1*
X17753Y4103D1*
X17796D1*
X17825Y4089D1*
X17839Y4074D1*
X17854Y4031D1*
Y4003D1*
X17839Y3960D1*
X17810Y3931D1*
X17767Y3917D1*
X17724D1*
X17681Y3931D1*
X17667Y3945D1*
X17653Y3974D1*
X14315Y4136D2*
X14300Y4165D1*
X14271Y4194D1*
X14243Y4208D1*
X14186D1*
X14157Y4194D1*
X14128Y4165D1*
X14114Y4136D1*
X14099Y4093D1*
Y4021D1*
X14114Y3979D1*
X14128Y3950D1*
X14157Y3921D1*
X14186Y3907D1*
X14243D1*
X14271Y3921D1*
X14300Y3950D1*
X14315Y3979D1*
X14608Y4208D2*
Y3907D1*
X14407Y4208D1*
Y3907D1*
X14701Y4150D2*
X14730Y4165D1*
X14773Y4208D1*
Y3907D1*
X15009D2*
Y4208D1*
X14865Y4007D1*
X15081D1*
X12092Y4126D2*
X12077Y4155D1*
X12049Y4184D1*
X12020Y4198D1*
X11963D1*
X11934Y4184D1*
X11905Y4155D1*
X11891Y4126D1*
X11876Y4083D1*
Y4011D1*
X11891Y3969D1*
X11905Y3940D1*
X11934Y3911D1*
X11963Y3897D1*
X12020D1*
X12049Y3911D1*
X12077Y3940D1*
X12092Y3969D1*
X12385Y4198D2*
Y3897D1*
X12184Y4198D1*
Y3897D1*
X12478Y4140D2*
X12507Y4155D1*
X12550Y4198D1*
Y3897D1*
X12815Y4198D2*
X12671D1*
X12657Y4069D1*
X12671Y4083D1*
X12715Y4098D1*
X12757D1*
X12800Y4083D1*
X12829Y4054D1*
X12844Y4011D1*
Y3983D1*
X12829Y3940D1*
X12800Y3911D1*
X12757Y3897D1*
X12715D1*
X12671Y3911D1*
X12657Y3925D1*
X12643Y3954D1*
X8539Y4068D2*
X8525Y4096D1*
X8496Y4125D1*
X8467Y4139D1*
X8410D1*
X8381Y4125D1*
X8353Y4096D1*
X8338Y4068D1*
X8324Y4025D1*
Y3953D1*
X8338Y3910D1*
X8353Y3881D1*
X8381Y3852D1*
X8410Y3838D1*
X8467D1*
X8496Y3852D1*
X8525Y3881D1*
X8539Y3910D1*
X8833Y4139D2*
Y3838D1*
X8632Y4139D1*
Y3838D1*
X8925Y4082D2*
X8954Y4096D1*
X8997Y4139D1*
Y3838D1*
X9262Y4096D2*
X9248Y4125D1*
X9205Y4139D1*
X9176D1*
X9133Y4125D1*
X9104Y4082D1*
X9090Y4010D1*
Y3938D1*
X9104Y3881D1*
X9133Y3852D1*
X9176Y3838D1*
X9190D1*
X9233Y3852D1*
X9262Y3881D1*
X9276Y3924D1*
Y3938D1*
X9262Y3981D1*
X9233Y4010D1*
X9190Y4024D1*
X9176D1*
X9133Y4010D1*
X9104Y3981D1*
X9090Y3938D1*
X20782Y36432D2*
X20767Y36461D1*
X20739Y36490D1*
X20710Y36504D1*
X20653D1*
X20624Y36490D1*
X20595Y36461D1*
X20581Y36432D1*
X20566Y36389D1*
Y36317D1*
X20581Y36275D1*
X20595Y36246D1*
X20624Y36217D1*
X20653Y36203D1*
X20710D1*
X20739Y36217D1*
X20767Y36246D1*
X20782Y36275D1*
X21075Y36504D2*
Y36203D1*
X20874Y36504D1*
Y36203D1*
X21168Y36446D2*
X21197Y36461D1*
X21240Y36504D1*
Y36203D1*
X21390D2*
X21534Y36504D1*
X21333D1*
X18377Y36482D2*
X18363Y36511D1*
X18334Y36540D1*
X18305Y36554D1*
X18248D1*
X18219Y36540D1*
X18191Y36511D1*
X18176Y36482D1*
X18162Y36439D1*
Y36367D1*
X18176Y36325D1*
X18191Y36296D1*
X18219Y36267D1*
X18248Y36253D1*
X18305D1*
X18334Y36267D1*
X18363Y36296D1*
X18377Y36325D1*
X18670Y36554D2*
Y36253D1*
X18470Y36554D1*
Y36253D1*
X18763Y36496D2*
X18792Y36511D1*
X18835Y36554D1*
Y36253D1*
X18999Y36554D2*
X18957Y36539D1*
X18942Y36511D1*
Y36482D1*
X18957Y36454D1*
X18985Y36439D1*
X19042Y36425D1*
X19086Y36410D1*
X19114Y36382D1*
X19128Y36353D1*
Y36310D1*
X19114Y36281D1*
X19100Y36267D1*
X19057Y36253D1*
X18999D1*
X18957Y36267D1*
X18942Y36281D1*
X18928Y36310D1*
Y36353D1*
X18942Y36382D1*
X18971Y36410D1*
X19014Y36425D1*
X19071Y36439D1*
X19100Y36454D1*
X19114Y36482D1*
Y36511D1*
X19100Y36539D1*
X19057Y36554D1*
X18999D1*
X32729Y36467D2*
X32715Y36496D1*
X32686Y36525D1*
X32657Y36539D1*
X32600D1*
X32571Y36525D1*
X32542Y36496D1*
X32528Y36467D1*
X32514Y36424D1*
Y36352D1*
X32528Y36310D1*
X32542Y36281D1*
X32571Y36252D1*
X32600Y36238D1*
X32657D1*
X32686Y36252D1*
X32715Y36281D1*
X32729Y36310D1*
X33022Y36539D2*
Y36238D1*
X32821Y36539D1*
Y36238D1*
X33115Y36481D2*
X33144Y36496D1*
X33187Y36539D1*
Y36238D1*
X33466Y36439D2*
X33452Y36395D1*
X33423Y36367D1*
X33380Y36352D1*
X33366D1*
X33323Y36367D1*
X33294Y36395D1*
X33280Y36439D1*
Y36453D1*
X33294Y36496D1*
X33323Y36524D1*
X33366Y36539D1*
X33380D1*
X33423Y36524D1*
X33452Y36496D1*
X33466Y36439D1*
Y36367D1*
X33452Y36295D1*
X33423Y36252D1*
X33380Y36238D1*
X33352D1*
X33309Y36252D1*
X33294Y36281D1*
X30477Y36467D2*
X30463Y36496D1*
X30434Y36525D1*
X30406Y36539D1*
X30348D1*
X30319Y36525D1*
X30291Y36496D1*
X30276Y36467D1*
X30262Y36424D1*
Y36352D1*
X30276Y36310D1*
X30291Y36281D1*
X30319Y36252D1*
X30348Y36238D1*
X30406D1*
X30434Y36252D1*
X30463Y36281D1*
X30477Y36310D1*
X30771Y36539D2*
Y36238D1*
X30570Y36539D1*
Y36238D1*
X30878Y36467D2*
Y36481D1*
X30892Y36510D1*
X30907Y36524D1*
X30935Y36539D1*
X30993D1*
X31021Y36524D1*
X31036Y36510D1*
X31050Y36481D1*
Y36453D1*
X31036Y36424D1*
X31007Y36381D1*
X30863Y36238D1*
X31064D1*
X31243Y36539D2*
X31200Y36524D1*
X31171Y36481D1*
X31157Y36410D1*
Y36367D1*
X31171Y36295D1*
X31200Y36252D1*
X31243Y36238D1*
X31272D1*
X31315Y36252D1*
X31343Y36295D1*
X31358Y36367D1*
Y36410D1*
X31343Y36481D1*
X31315Y36524D1*
X31272Y36539D1*
X31243D1*
X31343Y36481D2*
X31171Y36295D1*
X23692Y36477D2*
X23677Y36506D1*
X23649Y36535D1*
X23620Y36549D1*
X23563D1*
X23534Y36535D1*
X23505Y36506D1*
X23491Y36477D1*
X23476Y36434D1*
Y36362D1*
X23491Y36320D1*
X23505Y36291D1*
X23534Y36262D1*
X23563Y36248D1*
X23620D1*
X23649Y36262D1*
X23677Y36291D1*
X23692Y36320D1*
X23985Y36549D2*
Y36248D1*
X23784Y36549D1*
Y36248D1*
X24093Y36477D2*
Y36491D1*
X24107Y36520D1*
X24121Y36534D1*
X24150Y36549D1*
X24207D1*
X24236Y36534D1*
X24250Y36520D1*
X24265Y36491D1*
Y36463D1*
X24250Y36434D1*
X24222Y36391D1*
X24078Y36248D1*
X24279D1*
X24372Y36491D2*
X24400Y36506D1*
X24444Y36549D1*
Y36248D1*
X20592Y28961D2*
Y28660D1*
X20692D1*
X20735Y28674D1*
X20764Y28703D1*
X20778Y28732D1*
X20793Y28774D1*
Y28846D1*
X20778Y28890D1*
X20764Y28918D1*
X20735Y28947D1*
X20692Y28961D1*
X20592D1*
X20885Y28903D2*
X20914Y28918D1*
X20957Y28961D1*
Y28660D1*
X13222Y30599D2*
Y30298D1*
X13323D1*
X13366Y30312D1*
X13395Y30341D1*
X13409Y30370D1*
X13423Y30413D1*
Y30485D1*
X13409Y30528D1*
X13395Y30556D1*
X13366Y30585D1*
X13323Y30599D1*
X13222D1*
X13530Y30527D2*
Y30542D1*
X13545Y30570D1*
X13559Y30585D1*
X13588Y30599D1*
X13645D1*
X13674Y30585D1*
X13688Y30570D1*
X13702Y30542D1*
Y30513D1*
X13688Y30484D1*
X13659Y30441D1*
X13516Y30298D1*
X13717D1*
X13152Y25441D2*
Y25140D1*
X13252D1*
X13295Y25155D1*
X13324Y25183D1*
X13339Y25212D1*
X13353Y25255D1*
Y25327D1*
X13339Y25370D1*
X13324Y25398D1*
X13295Y25427D1*
X13252Y25441D1*
X13152D1*
X13474D2*
X13632D1*
X13546Y25326D1*
X13589D1*
X13618Y25312D1*
X13632Y25298D1*
X13646Y25255D1*
Y25226D1*
X13632Y25183D1*
X13603Y25154D1*
X13560Y25140D1*
X13517D1*
X13474Y25154D1*
X13460Y25169D1*
X13445Y25197D1*
X20489Y34076D2*
Y33775D1*
X20590D1*
X20633Y33789D1*
X20662Y33818D1*
X20676Y33847D1*
X20690Y33889D1*
Y33961D1*
X20676Y34005D1*
X20662Y34033D1*
X20633Y34062D1*
X20590Y34076D1*
X20489D1*
X20926Y33775D2*
Y34076D1*
X20783Y33875D1*
X20998D1*
X11908Y11766D2*
Y11465D1*
X12009D1*
X12052Y11479D1*
X12081Y11508D1*
X12095Y11537D1*
X12109Y11579D1*
Y11651D1*
X12095Y11695D1*
X12081Y11723D1*
X12052Y11752D1*
X12009Y11766D1*
X11908D1*
X12374D2*
X12231D1*
X12216Y11637D1*
X12231Y11651D1*
X12274Y11666D1*
X12317D1*
X12360Y11651D1*
X12389Y11623D1*
X12403Y11579D1*
Y11551D1*
X12389Y11508D1*
X12360Y11479D1*
X12317Y11465D1*
X12274D1*
X12231Y11479D1*
X12216Y11494D1*
X12202Y11522D1*
X12276Y12226D2*
Y11925D1*
X12376D1*
X12419Y11939D1*
X12448Y11968D1*
X12462Y11997D1*
X12477Y12039D1*
Y12111D1*
X12462Y12155D1*
X12448Y12183D1*
X12419Y12212D1*
X12376Y12226D1*
X12276D1*
X12741Y12183D2*
X12727Y12212D1*
X12684Y12226D1*
X12655D1*
X12612Y12212D1*
X12583Y12168D1*
X12569Y12097D1*
Y12025D1*
X12583Y11968D1*
X12612Y11939D1*
X12655Y11925D1*
X12670D1*
X12712Y11939D1*
X12741Y11968D1*
X12756Y12011D1*
Y12025D1*
X12741Y12068D1*
X12712Y12097D1*
X12670Y12111D1*
X12655D1*
X12612Y12097D1*
X12583Y12068D1*
X12569Y12025D1*
X6683Y11620D2*
Y11319D1*
X6783D1*
X6826Y11333D1*
X6855Y11362D1*
X6870Y11391D1*
X6884Y11433D1*
Y11505D1*
X6870Y11549D1*
X6855Y11577D1*
X6826Y11606D1*
X6783Y11620D1*
X6683D1*
X7048D2*
X7005Y11606D1*
X6991Y11577D1*
Y11548D1*
X7005Y11520D1*
X7034Y11505D1*
X7091Y11491D1*
X7134Y11477D1*
X7163Y11448D1*
X7177Y11419D1*
Y11376D1*
X7163Y11348D1*
X7149Y11333D1*
X7105Y11319D1*
X7048D1*
X7005Y11333D1*
X6991Y11348D1*
X6976Y11376D1*
Y11419D1*
X6991Y11448D1*
X7020Y11477D1*
X7062Y11491D1*
X7120Y11505D1*
X7149Y11520D1*
X7163Y11548D1*
Y11577D1*
X7149Y11606D1*
X7105Y11620D1*
X7048D1*
X5555Y30718D2*
X5369D1*
Y30417D1*
Y30574D2*
X5483D1*
X5648Y30660D2*
X5677Y30675D1*
X5720Y30718D1*
Y30417D1*
X1780Y35026D2*
X1593D1*
Y34724D1*
Y34882D2*
X1708D1*
X1872Y35026D2*
Y34724D1*
X2002D1*
X2045Y34739D1*
X2059Y34753D1*
X2073Y34781D1*
Y34825D1*
X2059Y34853D1*
X2045Y34868D1*
X2002Y34882D1*
X2045Y34897D1*
X2059Y34911D1*
X2073Y34939D1*
Y34968D1*
X2059Y34997D1*
X2045Y35011D1*
X2002Y35026D1*
X1872D1*
Y34882D2*
X2002D1*
X2166Y34968D2*
X2195Y34982D1*
X2238Y35025D1*
Y34724D1*
X4684Y16449D2*
Y16262D1*
X4986D1*
X4828D2*
Y16377D1*
X4684Y16542D2*
X4986D1*
Y16671D1*
X4971Y16714D1*
X4957Y16729D1*
X4929Y16743D1*
X4885D1*
X4857Y16729D1*
X4842Y16714D1*
X4828Y16671D1*
X4813Y16714D1*
X4799Y16729D1*
X4771Y16743D1*
X4742D1*
X4713Y16729D1*
X4699Y16714D1*
X4684Y16671D1*
Y16542D1*
X4828D2*
Y16671D1*
X4756Y16850D2*
X4742D1*
X4713Y16864D1*
X4699Y16879D1*
X4685Y16907D1*
Y16965D1*
X4699Y16993D1*
X4713Y17008D1*
X4742Y17022D1*
X4771D1*
X4800Y17008D1*
X4842Y16979D1*
X4986Y16835D1*
Y17036D1*
X3015Y35046D2*
X2829D1*
Y34744D1*
Y34902D2*
X2943D1*
X3108Y35046D2*
Y34744D1*
X3237D1*
X3280Y34759D1*
X3295Y34773D1*
X3309Y34801D1*
Y34845D1*
X3295Y34873D1*
X3280Y34888D1*
X3237Y34902D1*
X3280Y34917D1*
X3295Y34931D1*
X3309Y34959D1*
Y34988D1*
X3295Y35017D1*
X3280Y35031D1*
X3237Y35046D1*
X3108D1*
Y34902D2*
X3237D1*
X3430Y35045D2*
X3588D1*
X3502Y34930D1*
X3545D1*
X3574Y34916D1*
X3588Y34902D1*
X3603Y34859D1*
Y34830D1*
X3588Y34787D1*
X3559Y34758D1*
X3516Y34744D1*
X3473D1*
X3430Y34758D1*
X3416Y34773D1*
X3402Y34801D1*
X2309Y13707D2*
Y13478D1*
X2295Y13434D1*
X2281Y13420D1*
X2252Y13406D1*
X2223D1*
X2195Y13420D1*
X2180Y13434D1*
X2166Y13478D1*
Y13506D1*
X2402Y13649D2*
X2431Y13664D1*
X2474Y13707D1*
Y13406D1*
X22286Y26940D2*
X22516D1*
X22559Y26926D1*
X22573Y26911D1*
X22588Y26883D1*
Y26854D1*
X22573Y26825D1*
X22559Y26811D1*
X22516Y26797D1*
X22487D1*
X22358Y27047D2*
X22344D1*
X22315Y27062D1*
X22301Y27076D1*
X22287Y27105D1*
Y27162D1*
X22301Y27191D1*
X22315Y27205D1*
X22344Y27220D1*
X22372D1*
X22401Y27205D1*
X22444Y27176D1*
X22588Y27033D1*
Y27234D1*
X22236Y28580D2*
X22466D1*
X22509Y28566D1*
X22523Y28551D1*
X22538Y28523D1*
Y28494D1*
X22523Y28465D1*
X22509Y28451D1*
X22466Y28437D1*
X22437D1*
X22237Y28702D2*
Y28859D1*
X22351Y28773D1*
Y28816D1*
X22366Y28845D1*
X22380Y28859D1*
X22423Y28874D1*
X22451D1*
X22495Y28859D1*
X22523Y28831D1*
X22538Y28788D1*
Y28744D1*
X22523Y28702D1*
X22509Y28687D1*
X22480Y28673D1*
X1074Y16999D2*
X1304D1*
X1347Y16985D1*
X1361Y16970D1*
X1376Y16942D1*
Y16913D1*
X1361Y16884D1*
X1347Y16870D1*
X1304Y16855D1*
X1275D1*
X1376Y17235D2*
X1075D1*
X1275Y17092D1*
Y17307D1*
X6863Y23606D2*
Y23377D1*
X6848Y23334D1*
X6834Y23319D1*
X6805Y23305D1*
X6776D1*
X6748Y23319D1*
X6734Y23334D1*
X6719Y23377D1*
Y23405D1*
X6955Y23448D2*
X7085D1*
X7127Y23463D1*
X7142Y23477D1*
X7156Y23506D1*
Y23549D1*
X7142Y23577D1*
X7127Y23592D1*
X7085Y23606D1*
X6955D1*
Y23305D1*
X7249Y23549D2*
X7278Y23563D1*
X7321Y23606D1*
Y23305D1*
X8508Y18309D2*
Y18080D1*
X8494Y18037D1*
X8479Y18022D1*
X8451Y18008D1*
X8422D1*
X8393Y18022D1*
X8379Y18037D1*
X8365Y18080D1*
Y18108D1*
X8601Y18151D2*
X8730D1*
X8773Y18166D1*
X8788Y18180D1*
X8802Y18209D1*
Y18252D1*
X8788Y18280D1*
X8773Y18295D1*
X8730Y18309D1*
X8601D1*
Y18008D1*
X8909Y18237D2*
Y18252D1*
X8923Y18280D1*
X8938Y18295D1*
X8966Y18309D1*
X9024D1*
X9052Y18295D1*
X9067Y18280D1*
X9081Y18252D1*
Y18223D1*
X9067Y18194D1*
X9038Y18151D1*
X8894Y18008D1*
X9095D1*
X20253Y18115D2*
Y17885D1*
X20239Y17842D1*
X20224Y17828D1*
X20196Y17813D1*
X20167D1*
X20138Y17828D1*
X20124Y17842D1*
X20110Y17885D1*
Y17914D1*
X20346Y17957D2*
X20475D1*
X20518Y17971D1*
X20533Y17986D1*
X20547Y18014D1*
Y18057D1*
X20533Y18086D1*
X20518Y18100D1*
X20475Y18115D1*
X20346D1*
Y17813D1*
X20668Y18114D2*
X20826D1*
X20740Y18000D1*
X20783D1*
X20812Y17985D1*
X20826Y17971D1*
X20840Y17928D1*
Y17899D1*
X20826Y17856D1*
X20797Y17827D1*
X20754Y17813D1*
X20711D1*
X20668Y17827D1*
X20654Y17842D1*
X20639Y17871D1*
X9311Y12949D2*
Y12720D1*
X9297Y12677D1*
X9282Y12662D1*
X9254Y12648D1*
X9225D1*
X9196Y12662D1*
X9182Y12677D1*
X9167Y12720D1*
Y12748D1*
X9404Y12791D2*
X9533D1*
X9576Y12806D1*
X9590Y12820D1*
X9605Y12849D1*
Y12892D1*
X9590Y12920D1*
X9576Y12935D1*
X9533Y12949D1*
X9404D1*
Y12648D1*
X9841D2*
Y12949D1*
X9697Y12748D1*
X9913D1*
X3235Y23139D2*
Y22909D1*
X3221Y22866D1*
X3207Y22852D1*
X3178Y22837D1*
X3149D1*
X3121Y22852D1*
X3106Y22866D1*
X3092Y22909D1*
Y22938D1*
X3328Y22981D2*
X3457D1*
X3500Y22995D1*
X3515Y23010D1*
X3529Y23038D1*
Y23081D1*
X3515Y23110D1*
X3500Y23125D1*
X3457Y23139D1*
X3328D1*
Y22837D1*
X3794Y23096D2*
X3780Y23124D1*
X3736Y23138D1*
X3708D1*
X3665Y23124D1*
X3636Y23081D1*
X3622Y23009D1*
Y22938D1*
X3636Y22880D1*
X3665Y22852D1*
X3708Y22837D1*
X3722D1*
X3765Y22852D1*
X3794Y22880D1*
X3808Y22924D1*
Y22938D1*
X3794Y22981D1*
X3765Y23009D1*
X3722Y23024D1*
X3708D1*
X3665Y23009D1*
X3636Y22981D1*
X3622Y22938D1*
X15876Y12503D2*
X16106D1*
X16149Y12489D1*
X16163Y12475D1*
X16178Y12446D1*
Y12417D1*
X16163Y12389D1*
X16149Y12374D1*
X16106Y12360D1*
X16077D1*
X16034Y12596D2*
Y12725D1*
X16020Y12768D1*
X16005Y12783D1*
X15977Y12797D1*
X15934D1*
X15905Y12783D1*
X15890Y12768D1*
X15876Y12725D1*
Y12596D1*
X16178D1*
Y12947D2*
X15877Y13091D1*
Y12890D1*
X16296Y28927D2*
Y28626D1*
X16469D1*
X16561Y28870D2*
X16590Y28884D1*
X16633Y28927D1*
Y28626D1*
X16282Y34097D2*
Y33796D1*
X16454D1*
X16561Y34025D2*
Y34040D1*
X16576Y34068D1*
X16590Y34083D1*
X16619Y34097D1*
X16676D1*
X16705Y34083D1*
X16719Y34068D1*
X16733Y34040D1*
Y34011D1*
X16719Y33982D1*
X16690Y33939D1*
X16547Y33796D1*
X16748D1*
X22154Y7602D2*
X22125Y7588D1*
X22096Y7559D1*
X22082Y7530D1*
X22067Y7487D1*
Y7415D1*
X22082Y7372D1*
X22096Y7344D1*
X22125Y7315D1*
X22154Y7300D1*
X22211D1*
X22240Y7315D1*
X22268Y7344D1*
X22283Y7372D1*
X22297Y7415D1*
Y7487D1*
X22283Y7530D1*
X22268Y7559D1*
X22240Y7588D1*
X22211Y7602D1*
X22154D1*
X22197Y7358D2*
X22283Y7272D1*
X22390Y7544D2*
X22419Y7558D1*
X22462Y7601D1*
Y7300D1*
X19789Y7627D2*
X19761Y7613D1*
X19732Y7584D1*
X19717Y7555D1*
X19703Y7512D1*
Y7440D1*
X19717Y7397D1*
X19732Y7369D1*
X19761Y7340D1*
X19789Y7325D1*
X19846D1*
X19875Y7340D1*
X19904Y7369D1*
X19918Y7397D1*
X19933Y7440D1*
Y7512D1*
X19918Y7555D1*
X19904Y7584D1*
X19875Y7613D1*
X19846Y7627D1*
X19789D1*
X19832Y7383D2*
X19918Y7297D1*
X20040Y7555D2*
Y7569D1*
X20054Y7598D1*
X20068Y7612D1*
X20097Y7626D1*
X20155D1*
X20183Y7612D1*
X20197Y7598D1*
X20212Y7569D1*
Y7540D1*
X20197Y7511D1*
X20169Y7469D1*
X20025Y7325D1*
X20226D1*
X14689Y34130D2*
X14660Y34116D1*
X14632Y34087D1*
X14617Y34058D1*
X14603Y34015D1*
Y33943D1*
X14617Y33900D1*
X14632Y33872D1*
X14660Y33843D1*
X14689Y33829D1*
X14746D1*
X14775Y33843D1*
X14804Y33872D1*
X14818Y33900D1*
X14833Y33943D1*
Y34015D1*
X14818Y34058D1*
X14804Y34087D1*
X14775Y34116D1*
X14746Y34130D1*
X14689D1*
X14732Y33886D2*
X14818Y33800D1*
X14954Y34129D2*
X15112D1*
X15026Y34015D1*
X15069D1*
X15097Y34000D1*
X15112Y33986D1*
X15126Y33943D1*
Y33915D1*
X15112Y33871D1*
X15083Y33843D1*
X15040Y33828D1*
X14997D1*
X14954Y33843D1*
X14940Y33857D1*
X14925Y33886D1*
X8102Y34040D2*
X8073Y34026D1*
X8045Y33997D1*
X8030Y33968D1*
X8016Y33925D1*
Y33853D1*
X8030Y33810D1*
X8045Y33782D1*
X8073Y33753D1*
X8102Y33739D1*
X8159D1*
X8188Y33753D1*
X8217Y33782D1*
X8231Y33810D1*
X8245Y33853D1*
Y33925D1*
X8231Y33968D1*
X8217Y33997D1*
X8188Y34026D1*
X8159Y34040D1*
X8102D1*
X8145Y33796D2*
X8231Y33710D1*
X8482Y33738D2*
Y34039D1*
X8338Y33839D1*
X8553D1*
X5210Y5714D2*
X5181Y5700D1*
X5153Y5671D1*
X5138Y5642D1*
X5124Y5599D1*
Y5527D1*
X5138Y5484D1*
X5153Y5456D1*
X5181Y5427D1*
X5210Y5412D1*
X5267D1*
X5296Y5427D1*
X5325Y5456D1*
X5339Y5484D1*
X5354Y5527D1*
Y5599D1*
X5339Y5642D1*
X5325Y5671D1*
X5296Y5700D1*
X5267Y5714D1*
X5210D1*
X5253Y5470D2*
X5339Y5384D1*
X5618Y5713D2*
X5475D1*
X5461Y5584D1*
X5475Y5598D1*
X5518Y5613D1*
X5561D1*
X5604Y5598D1*
X5633Y5570D1*
X5647Y5527D1*
Y5498D1*
X5633Y5455D1*
X5604Y5426D1*
X5561Y5412D1*
X5518D1*
X5475Y5426D1*
X5461Y5441D1*
X5446Y5469D1*
X16162Y35864D2*
X16134Y35850D1*
X16105Y35821D1*
X16091Y35792D1*
X16076Y35749D1*
Y35677D1*
X16091Y35634D1*
X16105Y35606D1*
X16134Y35577D1*
X16162Y35562D1*
X16220D1*
X16249Y35577D1*
X16277Y35606D1*
X16291Y35634D1*
X16306Y35677D1*
Y35749D1*
X16291Y35792D1*
X16277Y35821D1*
X16249Y35850D1*
X16220Y35864D1*
X16162D1*
X16205Y35620D2*
X16291Y35534D1*
X16571Y35820D2*
X16556Y35849D1*
X16513Y35863D1*
X16485D1*
X16442Y35849D1*
X16413Y35806D1*
X16399Y35734D1*
Y35663D1*
X16413Y35605D1*
X16442Y35576D1*
X16485Y35562D1*
X16499D1*
X16542Y35576D1*
X16571Y35605D1*
X16585Y35648D1*
Y35663D1*
X16571Y35706D1*
X16542Y35734D1*
X16499Y35748D1*
X16485D1*
X16442Y35734D1*
X16413Y35706D1*
X16399Y35663D1*
X22895Y35804D2*
X22866Y35790D1*
X22838Y35761D1*
X22823Y35732D1*
X22809Y35689D1*
Y35617D1*
X22823Y35574D1*
X22838Y35546D1*
X22866Y35517D1*
X22895Y35502D1*
X22952D1*
X22981Y35517D1*
X23010Y35546D1*
X23024Y35574D1*
X23039Y35617D1*
Y35689D1*
X23024Y35732D1*
X23010Y35761D1*
X22981Y35790D1*
X22952Y35804D1*
X22895D1*
X22938Y35560D2*
X23024Y35474D1*
X23189Y35502D2*
X23332Y35803D1*
X23131D1*
X20455Y35814D2*
X20427Y35800D1*
X20398Y35771D1*
X20384Y35742D1*
X20369Y35699D1*
Y35627D1*
X20384Y35584D1*
X20398Y35556D1*
X20427Y35527D1*
X20455Y35512D1*
X20513D1*
X20541Y35527D1*
X20570Y35556D1*
X20584Y35584D1*
X20599Y35627D1*
Y35699D1*
X20584Y35742D1*
X20570Y35771D1*
X20541Y35800D1*
X20513Y35814D1*
X20455D1*
X20498Y35570D2*
X20584Y35484D1*
X20763Y35813D2*
X20720Y35799D1*
X20706Y35770D1*
Y35742D1*
X20720Y35713D1*
X20749Y35698D1*
X20806Y35684D1*
X20849Y35670D1*
X20878Y35641D1*
X20892Y35613D1*
Y35569D1*
X20878Y35541D1*
X20863Y35526D1*
X20820Y35512D1*
X20763D1*
X20720Y35526D1*
X20706Y35541D1*
X20691Y35569D1*
Y35613D1*
X20706Y35641D1*
X20734Y35670D1*
X20777Y35684D1*
X20835Y35698D1*
X20863Y35713D1*
X20878Y35742D1*
Y35770D1*
X20863Y35799D1*
X20820Y35813D1*
X20763D1*
X13342Y11643D2*
X13471D1*
X13514Y11657D1*
X13529Y11671D1*
X13543Y11700D1*
Y11729D1*
X13529Y11757D1*
X13514Y11772D1*
X13471Y11786D1*
X13342D1*
Y11485D1*
X13442Y11643D2*
X13543Y11485D1*
X13635Y11728D2*
X13664Y11743D1*
X13707Y11786D1*
Y11485D1*
X4017Y35807D2*
Y35936D1*
X4003Y35979D1*
X3989Y35994D1*
X3960Y36008D1*
X3931D1*
X3903Y35994D1*
X3888Y35979D1*
X3874Y35936D1*
Y35807D1*
X4175D1*
X4017Y35908D2*
X4175Y36008D1*
X3946Y36116D2*
X3932D1*
X3903Y36130D1*
X3888Y36144D1*
X3874Y36173D1*
Y36230D1*
X3888Y36259D1*
X3903Y36273D1*
X3932Y36288D1*
X3960D1*
X3989Y36273D1*
X4032Y36245D1*
X4175Y36101D1*
Y36302D1*
X9907Y34497D2*
Y34626D1*
X9893Y34669D1*
X9879Y34684D1*
X9850Y34698D1*
X9821D1*
X9793Y34684D1*
X9778Y34669D1*
X9764Y34626D1*
Y34497D1*
X10065D1*
X9907Y34598D2*
X10065Y34698D1*
X9764Y34820D2*
Y34977D1*
X9879Y34891D1*
Y34935D1*
X9893Y34963D1*
X9907Y34977D1*
X9951Y34992D1*
X9979D1*
X10022Y34977D1*
X10051Y34949D1*
X10065Y34906D1*
Y34863D1*
X10051Y34820D1*
X10036Y34806D1*
X10008Y34791D1*
X20450Y34543D2*
X20579D1*
X20622Y34557D1*
X20637Y34571D1*
X20651Y34600D1*
Y34629D1*
X20637Y34657D1*
X20622Y34672D1*
X20579Y34686D1*
X20450D1*
Y34385D1*
X20551Y34543D2*
X20651Y34385D1*
X20887D2*
Y34686D1*
X20744Y34485D1*
X20959D1*
X31443Y32697D2*
X31572D1*
X31615Y32712D1*
X31629Y32726D1*
X31644Y32754D1*
Y32783D1*
X31629Y32812D1*
X31615Y32826D1*
X31572Y32841D1*
X31443D1*
Y32539D1*
X31543Y32697D2*
X31644Y32539D1*
X31908Y32840D2*
X31765D1*
X31751Y32711D1*
X31765Y32726D1*
X31808Y32740D1*
X31851D1*
X31894Y32726D1*
X31923Y32697D1*
X31937Y32654D1*
Y32625D1*
X31923Y32582D1*
X31894Y32553D1*
X31851Y32539D1*
X31808D1*
X31765Y32553D1*
X31751Y32568D1*
X31736Y32597D1*
X31454Y34571D2*
X31583D1*
X31626Y34586D1*
X31641Y34600D1*
X31655Y34628D1*
Y34657D1*
X31641Y34686D1*
X31626Y34700D1*
X31583Y34715D1*
X31454D1*
Y34413D1*
X31555Y34571D2*
X31655Y34413D1*
X31920Y34672D2*
X31905Y34700D1*
X31862Y34714D1*
X31834D1*
X31791Y34700D1*
X31762Y34657D1*
X31748Y34585D1*
Y34514D1*
X31762Y34456D1*
X31791Y34427D1*
X31834Y34413D1*
X31848D1*
X31891Y34427D1*
X31920Y34456D1*
X31934Y34499D1*
Y34514D1*
X31920Y34557D1*
X31891Y34585D1*
X31848Y34600D1*
X31834D1*
X31791Y34585D1*
X31762Y34557D1*
X31748Y34514D1*
X9743Y16393D2*
X9872D1*
X9915Y16407D1*
X9930Y16421D1*
X9944Y16450D1*
Y16479D1*
X9930Y16507D1*
X9915Y16522D1*
X9872Y16536D1*
X9743D1*
Y16235D1*
X9844Y16393D2*
X9944Y16235D1*
X10094D2*
X10238Y16536D1*
X10037D1*
X20213Y20368D2*
X20342D1*
X20385Y20382D1*
X20399Y20396D1*
X20413Y20425D1*
Y20454D1*
X20399Y20482D1*
X20385Y20497D1*
X20342Y20511D1*
X20213D1*
Y20210D1*
X20313Y20368D2*
X20413Y20210D1*
X20578Y20511D2*
X20535Y20497D1*
X20520Y20468D1*
Y20439D1*
X20535Y20411D1*
X20563Y20396D1*
X20621Y20382D1*
X20664Y20368D1*
X20692Y20339D1*
X20707Y20310D1*
Y20267D1*
X20692Y20239D1*
X20678Y20224D1*
X20635Y20210D1*
X20578D1*
X20535Y20224D1*
X20520Y20239D1*
X20506Y20267D1*
Y20310D1*
X20520Y20339D1*
X20549Y20368D1*
X20592Y20382D1*
X20649Y20396D1*
X20678Y20411D1*
X20692Y20439D1*
Y20468D1*
X20678Y20497D1*
X20635Y20511D1*
X20578D1*
X11417Y5175D2*
Y5304D1*
X11403Y5347D1*
X11389Y5362D1*
X11360Y5376D1*
X11331D1*
X11303Y5362D1*
X11288Y5347D1*
X11274Y5304D1*
Y5175D1*
X11575D1*
X11417Y5276D2*
X11575Y5376D1*
X11374Y5656D2*
X11417Y5641D1*
X11446Y5612D1*
X11461Y5569D1*
Y5555D1*
X11446Y5512D1*
X11417Y5483D1*
X11374Y5469D1*
X11360D1*
X11317Y5483D1*
X11288Y5512D1*
X11274Y5555D1*
Y5569D1*
X11288Y5612D1*
X11317Y5641D1*
X11374Y5656D1*
X11446D1*
X11518Y5641D1*
X11561Y5612D1*
X11575Y5569D1*
Y5541D1*
X11561Y5498D1*
X11532Y5483D1*
X8256Y19668D2*
X8385D1*
X8428Y19682D1*
X8442Y19697D1*
X8457Y19725D1*
Y19754D1*
X8442Y19783D1*
X8428Y19797D1*
X8385Y19811D1*
X8256D1*
Y19510D1*
X8356Y19668D2*
X8457Y19510D1*
X8549Y19754D2*
X8578Y19768D1*
X8621Y19811D1*
Y19510D1*
X8800Y19811D2*
X8757Y19797D1*
X8728Y19754D1*
X8714Y19682D1*
Y19639D1*
X8728Y19567D1*
X8757Y19524D1*
X8800Y19510D1*
X8829D1*
X8872Y19524D1*
X8900Y19567D1*
X8915Y19639D1*
Y19682D1*
X8900Y19754D1*
X8872Y19797D1*
X8829Y19811D1*
X8800D1*
X8900Y19754D2*
X8728Y19567D1*
X31425Y24637D2*
X31554D1*
X31597Y24652D1*
X31612Y24666D1*
X31626Y24694D1*
Y24723D1*
X31612Y24752D1*
X31597Y24766D1*
X31554Y24781D1*
X31425D1*
Y24479D1*
X31525Y24637D2*
X31626Y24479D1*
X31719Y24723D2*
X31747Y24737D1*
X31790Y24780D1*
Y24479D1*
X31883Y24723D2*
X31912Y24737D1*
X31955Y24780D1*
Y24479D1*
X18145Y34543D2*
X18274D1*
X18317Y34557D1*
X18332Y34571D1*
X18346Y34600D1*
Y34629D1*
X18332Y34657D1*
X18317Y34672D1*
X18274Y34686D1*
X18145D1*
Y34385D1*
X18246Y34543D2*
X18346Y34385D1*
X18439Y34628D2*
X18468Y34643D1*
X18511Y34686D1*
Y34385D1*
X18618Y34614D2*
Y34628D1*
X18632Y34657D1*
X18646Y34672D1*
X18675Y34686D1*
X18733D1*
X18761Y34672D1*
X18775Y34657D1*
X18790Y34628D1*
Y34600D1*
X18775Y34571D1*
X18747Y34528D1*
X18603Y34385D1*
X18804D1*
X6010Y9218D2*
X6139D1*
X6182Y9232D1*
X6197Y9246D1*
X6211Y9275D1*
Y9304D1*
X6197Y9332D1*
X6182Y9347D1*
X6139Y9361D1*
X6010D1*
Y9060D1*
X6111Y9218D2*
X6211Y9060D1*
X6304Y9303D2*
X6333Y9318D1*
X6376Y9361D1*
Y9060D1*
X6497Y9361D2*
X6655D1*
X6569Y9246D1*
X6612D1*
X6640Y9232D1*
X6655Y9218D1*
X6669Y9174D1*
Y9146D1*
X6655Y9103D1*
X6626Y9074D1*
X6583Y9060D1*
X6540D1*
X6497Y9074D1*
X6483Y9089D1*
X6468Y9117D1*
X31357Y26511D2*
X31486D1*
X31529Y26526D1*
X31544Y26540D1*
X31558Y26568D1*
Y26597D1*
X31544Y26626D1*
X31529Y26640D1*
X31486Y26655D1*
X31357D1*
Y26353D1*
X31458Y26511D2*
X31558Y26353D1*
X31651Y26597D2*
X31680Y26612D1*
X31723Y26654D1*
Y26353D1*
X31959D2*
Y26654D1*
X31816Y26454D1*
X32031D1*
X31348Y16656D2*
X31477D1*
X31520Y16671D1*
X31534Y16685D1*
X31549Y16714D1*
Y16743D1*
X31534Y16771D1*
X31520Y16786D1*
X31477Y16800D1*
X31348D1*
Y16498D1*
X31448Y16656D2*
X31549Y16498D1*
X31641Y16742D2*
X31670Y16757D1*
X31713Y16800D1*
Y16498D1*
X31978Y16800D2*
X31835D1*
X31820Y16671D1*
X31835Y16685D1*
X31878Y16699D1*
X31921D1*
X31964Y16685D1*
X31993Y16656D1*
X32007Y16613D1*
Y16585D1*
X31993Y16542D1*
X31964Y16513D1*
X31921Y16498D1*
X31878D1*
X31835Y16513D1*
X31820Y16527D1*
X31806Y16556D1*
X31359Y18530D2*
X31488D1*
X31531Y18545D1*
X31546Y18559D1*
X31560Y18588D1*
Y18617D1*
X31546Y18645D1*
X31531Y18660D1*
X31488Y18674D1*
X31359D1*
Y18372D1*
X31459Y18530D2*
X31560Y18372D1*
X31653Y18616D2*
X31681Y18631D1*
X31725Y18674D1*
Y18372D1*
X31989Y18631D2*
X31975Y18659D1*
X31932Y18674D1*
X31903D1*
X31860Y18659D1*
X31831Y18616D1*
X31817Y18545D1*
Y18473D1*
X31831Y18416D1*
X31860Y18387D1*
X31903Y18372D1*
X31918D1*
X31960Y18387D1*
X31989Y18416D1*
X32004Y18459D1*
Y18473D1*
X31989Y18516D1*
X31960Y18545D1*
X31918Y18559D1*
X31903D1*
X31860Y18545D1*
X31831Y18516D1*
X31817Y18473D1*
X31350Y8677D2*
X31479D1*
X31523Y8692D1*
X31537Y8706D1*
X31551Y8734D1*
Y8763D1*
X31537Y8792D1*
X31523Y8806D1*
X31479Y8821D1*
X31350D1*
Y8519D1*
X31451Y8677D2*
X31551Y8519D1*
X31644Y8763D2*
X31673Y8777D1*
X31716Y8820D1*
Y8519D1*
X31866D2*
X32010Y8820D1*
X31809D1*
X31355Y10551D2*
X31484D1*
X31527Y10566D1*
X31541Y10580D1*
X31556Y10608D1*
Y10637D1*
X31541Y10666D1*
X31527Y10680D1*
X31484Y10695D1*
X31355D1*
Y10393D1*
X31455Y10551D2*
X31556Y10393D1*
X31648Y10637D2*
X31677Y10652D1*
X31720Y10694D1*
Y10393D1*
X31884Y10694D2*
X31842Y10680D1*
X31827Y10652D1*
Y10623D1*
X31842Y10594D1*
X31870Y10580D1*
X31928Y10565D1*
X31971Y10551D1*
X31999Y10522D1*
X32013Y10494D1*
Y10451D1*
X31999Y10422D1*
X31985Y10407D1*
X31942Y10393D1*
X31884D1*
X31842Y10407D1*
X31827Y10422D1*
X31813Y10451D1*
Y10494D1*
X31827Y10522D1*
X31856Y10551D1*
X31899Y10565D1*
X31956Y10580D1*
X31985Y10594D1*
X31999Y10623D1*
Y10652D1*
X31985Y10680D1*
X31942Y10694D1*
X31884D1*
X4017Y34382D2*
Y34511D1*
X4003Y34554D1*
X3989Y34569D1*
X3960Y34583D1*
X3931D1*
X3903Y34569D1*
X3888Y34554D1*
X3874Y34511D1*
Y34382D1*
X4175D1*
X4017Y34483D2*
X4175Y34583D1*
X3932Y34676D2*
X3917Y34705D1*
X3874Y34748D1*
X4175D1*
X3974Y35027D2*
X4017Y35013D1*
X4046Y34984D1*
X4061Y34941D1*
Y34927D1*
X4046Y34884D1*
X4017Y34855D1*
X3974Y34840D1*
X3960D1*
X3917Y34855D1*
X3888Y34884D1*
X3874Y34927D1*
Y34941D1*
X3888Y34984D1*
X3917Y35013D1*
X3974Y35027D1*
X4046D1*
X4118Y35013D1*
X4161Y34984D1*
X4175Y34941D1*
Y34912D1*
X4161Y34869D1*
X4132Y34855D1*
X29762Y2876D2*
Y3005D1*
X29747Y3048D1*
X29733Y3063D1*
X29705Y3077D1*
X29676D1*
X29647Y3063D1*
X29633Y3048D1*
X29618Y3005D1*
Y2876D1*
X29920D1*
X29762Y2976D2*
X29920Y3077D1*
X29690Y3184D2*
X29676D1*
X29647Y3198D1*
X29633Y3213D1*
X29619Y3241D1*
Y3299D1*
X29633Y3327D1*
X29647Y3342D1*
X29676Y3356D1*
X29705D1*
X29734Y3342D1*
X29776Y3313D1*
X29920Y3170D1*
Y3370D1*
X29619Y3549D2*
X29633Y3506D1*
X29676Y3477D1*
X29748Y3463D1*
X29791D1*
X29863Y3477D1*
X29906Y3506D1*
X29920Y3549D1*
Y3578D1*
X29906Y3621D1*
X29863Y3649D1*
X29791Y3664D1*
X29748D1*
X29676Y3649D1*
X29633Y3621D1*
X29619Y3578D1*
Y3549D1*
X29676Y3649D2*
X29863Y3477D1*
X23326Y5003D2*
X23455D1*
X23498Y5017D1*
X23512Y5031D1*
X23527Y5060D1*
Y5089D1*
X23512Y5117D1*
X23498Y5132D1*
X23455Y5146D1*
X23326D1*
Y4845D1*
X23426Y5003D2*
X23527Y4845D1*
X23634Y5074D2*
Y5088D1*
X23648Y5117D1*
X23662Y5132D1*
X23691Y5146D1*
X23749D1*
X23777Y5132D1*
X23791Y5117D1*
X23806Y5088D1*
Y5060D1*
X23791Y5031D1*
X23763Y4988D1*
X23619Y4845D1*
X23820D1*
X23913Y5088D2*
X23942Y5103D1*
X23985Y5146D1*
Y4845D1*
X20396Y5018D2*
X20525D1*
X20568Y5032D1*
X20582Y5046D1*
X20597Y5075D1*
Y5104D1*
X20582Y5132D1*
X20568Y5147D1*
X20525Y5161D1*
X20396D1*
Y4860D1*
X20496Y5018D2*
X20597Y4860D1*
X20704Y5089D2*
Y5103D1*
X20718Y5132D1*
X20732Y5147D1*
X20761Y5161D1*
X20818D1*
X20847Y5147D1*
X20861Y5132D1*
X20876Y5103D1*
Y5075D1*
X20861Y5046D1*
X20833Y5003D1*
X20689Y4860D1*
X20890D1*
X20997Y5089D2*
Y5103D1*
X21012Y5132D1*
X21026Y5147D1*
X21055Y5161D1*
X21112D1*
X21141Y5147D1*
X21155Y5132D1*
X21169Y5103D1*
Y5075D1*
X21155Y5046D1*
X21126Y5003D1*
X20983Y4860D1*
X21184D1*
X16341Y5073D2*
X16470D1*
X16513Y5087D1*
X16527Y5101D1*
X16542Y5130D1*
Y5159D1*
X16527Y5187D1*
X16513Y5202D1*
X16470Y5216D1*
X16341D1*
Y4915D1*
X16441Y5073D2*
X16542Y4915D1*
X16649Y5144D2*
Y5158D1*
X16663Y5187D1*
X16677Y5202D1*
X16706Y5216D1*
X16763D1*
X16792Y5202D1*
X16806Y5187D1*
X16821Y5158D1*
Y5130D1*
X16806Y5101D1*
X16778Y5058D1*
X16634Y4915D1*
X16835D1*
X16957Y5216D2*
X17114D1*
X17028Y5101D1*
X17071D1*
X17100Y5087D1*
X17114Y5073D1*
X17129Y5029D1*
Y5001D1*
X17114Y4958D1*
X17086Y4929D1*
X17043Y4915D1*
X16999D1*
X16957Y4929D1*
X16942Y4944D1*
X16928Y4972D1*
X13033Y28783D2*
X13162D1*
X13206Y28797D1*
X13220Y28811D1*
X13234Y28840D1*
Y28869D1*
X13220Y28897D1*
X13206Y28912D1*
X13162Y28926D1*
X13033D1*
Y28625D1*
X13134Y28783D2*
X13234Y28625D1*
X13342Y28854D2*
Y28868D1*
X13356Y28897D1*
X13370Y28912D1*
X13399Y28926D1*
X13456D1*
X13485Y28912D1*
X13499Y28897D1*
X13514Y28868D1*
Y28840D1*
X13499Y28811D1*
X13471Y28768D1*
X13327Y28625D1*
X13528D1*
X13764D2*
Y28926D1*
X13621Y28725D1*
X13836D1*
X11681Y28783D2*
X11810D1*
X11853Y28797D1*
X11867Y28811D1*
X11882Y28840D1*
Y28869D1*
X11867Y28897D1*
X11853Y28912D1*
X11810Y28926D1*
X11681D1*
Y28625D1*
X11781Y28783D2*
X11882Y28625D1*
X11989Y28854D2*
Y28868D1*
X12003Y28897D1*
X12017Y28912D1*
X12046Y28926D1*
X12103D1*
X12132Y28912D1*
X12146Y28897D1*
X12161Y28868D1*
Y28840D1*
X12146Y28811D1*
X12118Y28768D1*
X11974Y28625D1*
X12175D1*
X12440Y28926D2*
X12297D1*
X12282Y28797D1*
X12297Y28811D1*
X12340Y28826D1*
X12383D1*
X12426Y28811D1*
X12454Y28783D1*
X12469Y28739D1*
Y28711D1*
X12454Y28668D1*
X12426Y28639D1*
X12383Y28625D1*
X12340D1*
X12297Y28639D1*
X12282Y28654D1*
X12268Y28682D1*
X8557Y27589D2*
Y27718D1*
X8543Y27761D1*
X8529Y27775D1*
X8500Y27790D1*
X8471D1*
X8443Y27775D1*
X8428Y27761D1*
X8414Y27718D1*
Y27589D1*
X8715D1*
X8557Y27689D2*
X8715Y27790D1*
X8486Y27897D2*
X8472D1*
X8443Y27911D1*
X8428Y27925D1*
X8414Y27954D1*
Y28012D1*
X8428Y28040D1*
X8443Y28054D1*
X8472Y28069D1*
X8500D1*
X8529Y28054D1*
X8572Y28026D1*
X8715Y27882D1*
Y28083D1*
X8457Y28348D2*
X8428Y28334D1*
X8414Y28291D1*
Y28262D1*
X8428Y28219D1*
X8472Y28190D1*
X8543Y28176D1*
X8615D1*
X8672Y28190D1*
X8701Y28219D1*
X8715Y28262D1*
Y28276D1*
X8701Y28319D1*
X8672Y28348D1*
X8629Y28362D1*
X8615D1*
X8572Y28348D1*
X8543Y28319D1*
X8529Y28276D1*
Y28262D1*
X8543Y28219D1*
X8572Y28190D1*
X8615Y28176D1*
X8547Y26171D2*
Y26300D1*
X8533Y26343D1*
X8519Y26358D1*
X8490Y26372D1*
X8461D1*
X8433Y26358D1*
X8418Y26343D1*
X8404Y26300D1*
Y26171D1*
X8705D1*
X8547Y26272D2*
X8705Y26372D1*
X8476Y26479D2*
X8462D1*
X8433Y26494D1*
X8418Y26508D1*
X8404Y26537D1*
Y26594D1*
X8418Y26623D1*
X8433Y26637D1*
X8462Y26652D1*
X8490D1*
X8519Y26637D1*
X8562Y26608D1*
X8705Y26465D1*
Y26666D1*
Y26816D2*
X8404Y26959D1*
Y26758D1*
X13201Y33873D2*
X13330D1*
X13373Y33887D1*
X13387Y33901D1*
X13402Y33930D1*
Y33959D1*
X13387Y33987D1*
X13373Y34002D1*
X13330Y34016D1*
X13201D1*
Y33715D1*
X13301Y33873D2*
X13402Y33715D1*
X13509Y33944D2*
Y33958D1*
X13523Y33987D1*
X13537Y34002D1*
X13566Y34016D1*
X13624D1*
X13652Y34002D1*
X13666Y33987D1*
X13681Y33958D1*
Y33930D1*
X13666Y33901D1*
X13638Y33858D1*
X13494Y33715D1*
X13695D1*
X13860Y34016D2*
X13817Y34002D1*
X13802Y33973D1*
Y33944D1*
X13817Y33916D1*
X13845Y33901D1*
X13903Y33887D1*
X13946Y33873D1*
X13974Y33844D1*
X13989Y33815D1*
Y33772D1*
X13974Y33744D1*
X13960Y33729D1*
X13917Y33715D1*
X13860D1*
X13817Y33729D1*
X13802Y33744D1*
X13788Y33772D1*
Y33815D1*
X13802Y33844D1*
X13831Y33873D1*
X13874Y33887D1*
X13931Y33901D1*
X13960Y33916D1*
X13974Y33944D1*
Y33973D1*
X13960Y34002D1*
X13917Y34016D1*
X13860D1*
X11988Y33873D2*
X12117D1*
X12160Y33887D1*
X12174Y33901D1*
X12189Y33930D1*
Y33959D1*
X12174Y33987D1*
X12160Y34002D1*
X12117Y34016D1*
X11988D1*
Y33715D1*
X12088Y33873D2*
X12189Y33715D1*
X12296Y33944D2*
Y33958D1*
X12310Y33987D1*
X12324Y34002D1*
X12353Y34016D1*
X12411D1*
X12439Y34002D1*
X12453Y33987D1*
X12468Y33958D1*
Y33930D1*
X12453Y33901D1*
X12425Y33858D1*
X12281Y33715D1*
X12482D1*
X12762Y33916D2*
X12747Y33873D1*
X12718Y33844D1*
X12675Y33829D1*
X12661D1*
X12618Y33844D1*
X12589Y33873D1*
X12575Y33916D1*
Y33930D1*
X12589Y33973D1*
X12618Y34002D1*
X12661Y34016D1*
X12675D1*
X12718Y34002D1*
X12747Y33973D1*
X12762Y33916D1*
Y33844D1*
X12747Y33772D1*
X12718Y33729D1*
X12675Y33715D1*
X12647D1*
X12604Y33729D1*
X12589Y33758D1*
X8937Y32661D2*
Y32790D1*
X8923Y32833D1*
X8909Y32848D1*
X8880Y32862D1*
X8851D1*
X8823Y32848D1*
X8808Y32833D1*
X8794Y32790D1*
Y32661D1*
X9095D1*
X8937Y32762D2*
X9095Y32862D1*
X8794Y32984D2*
Y33141D1*
X8909Y33055D1*
Y33098D1*
X8923Y33127D1*
X8937Y33141D1*
X8981Y33156D1*
X9009D1*
X9052Y33141D1*
X9081Y33113D1*
X9095Y33070D1*
Y33027D1*
X9081Y32984D1*
X9066Y32969D1*
X9038Y32955D1*
X8794Y33335D2*
X8808Y33292D1*
X8852Y33263D1*
X8923Y33248D1*
X8966D1*
X9038Y33263D1*
X9081Y33292D1*
X9095Y33335D1*
Y33363D1*
X9081Y33406D1*
X9038Y33435D1*
X8966Y33449D1*
X8923D1*
X8852Y33435D1*
X8808Y33406D1*
X8794Y33363D1*
Y33335D1*
X8852Y33435D2*
X9038Y33263D1*
X8937Y30786D2*
Y30915D1*
X8923Y30958D1*
X8909Y30972D1*
X8880Y30987D1*
X8851D1*
X8823Y30972D1*
X8808Y30958D1*
X8794Y30915D1*
Y30786D1*
X9095D1*
X8937Y30886D2*
X9095Y30987D1*
X8794Y31108D2*
Y31266D1*
X8909Y31180D1*
Y31223D1*
X8923Y31251D1*
X8937Y31266D1*
X8981Y31280D1*
X9009D1*
X9052Y31266D1*
X9081Y31237D1*
X9095Y31194D1*
Y31151D1*
X9081Y31108D1*
X9066Y31094D1*
X9038Y31079D1*
X8852Y31373D2*
X8837Y31402D1*
X8794Y31445D1*
X9095D1*
X18896Y28818D2*
X19025D1*
X19068Y28832D1*
X19083Y28846D1*
X19097Y28875D1*
Y28904D1*
X19083Y28932D1*
X19068Y28947D1*
X19025Y28961D1*
X18896D1*
Y28660D1*
X18997Y28818D2*
X19097Y28660D1*
X19219Y28961D2*
X19376D1*
X19290Y28846D1*
X19333D1*
X19362Y28832D1*
X19376Y28818D1*
X19391Y28774D1*
Y28746D1*
X19376Y28703D1*
X19348Y28674D1*
X19305Y28660D1*
X19262D1*
X19219Y28674D1*
X19204Y28689D1*
X19190Y28717D1*
X19498Y28889D2*
Y28903D1*
X19512Y28932D1*
X19527Y28947D1*
X19555Y28961D1*
X19613D1*
X19641Y28947D1*
X19656Y28932D1*
X19670Y28903D1*
Y28875D1*
X19656Y28846D1*
X19627Y28803D1*
X19483Y28660D1*
X19684D1*
X18981Y33913D2*
X19110D1*
X19153Y33927D1*
X19167Y33941D1*
X19182Y33970D1*
Y33999D1*
X19167Y34027D1*
X19153Y34042D1*
X19110Y34056D1*
X18981D1*
Y33755D1*
X19081Y33913D2*
X19182Y33755D1*
X19303Y34056D2*
X19461D1*
X19375Y33941D1*
X19418D1*
X19446Y33927D1*
X19461Y33913D1*
X19475Y33869D1*
Y33841D1*
X19461Y33798D1*
X19432Y33769D1*
X19389Y33755D1*
X19346D1*
X19303Y33769D1*
X19289Y33784D1*
X19274Y33812D1*
X19597Y34056D2*
X19754D1*
X19668Y33941D1*
X19711D1*
X19740Y33927D1*
X19754Y33913D1*
X19769Y33869D1*
Y33841D1*
X19754Y33798D1*
X19726Y33769D1*
X19683Y33755D1*
X19639D1*
X19597Y33769D1*
X19582Y33784D1*
X19568Y33812D1*
X21958Y5593D2*
X22087D1*
X22131Y5607D1*
X22145Y5621D1*
X22159Y5650D1*
Y5679D1*
X22145Y5707D1*
X22131Y5722D1*
X22087Y5736D1*
X21958D1*
Y5435D1*
X22059Y5593D2*
X22159Y5435D1*
X22281Y5736D2*
X22438D1*
X22353Y5621D1*
X22396D1*
X22424Y5607D1*
X22438Y5593D1*
X22453Y5549D1*
Y5521D1*
X22438Y5478D1*
X22410Y5449D1*
X22367Y5435D1*
X22324D1*
X22281Y5449D1*
X22267Y5464D1*
X22252Y5492D1*
X22689Y5435D2*
Y5736D1*
X22546Y5535D1*
X22761D1*
X10089Y12911D2*
X10218D1*
X10262Y12925D1*
X10276Y12940D1*
X10290Y12968D1*
Y12997D1*
X10276Y13025D1*
X10262Y13040D1*
X10218Y13054D1*
X10089D1*
Y12753D1*
X10190Y12911D2*
X10290Y12753D1*
X10412Y13054D2*
X10569D1*
X10484Y12939D1*
X10527D1*
X10555Y12925D1*
X10569Y12911D1*
X10584Y12868D1*
Y12839D1*
X10569Y12796D1*
X10541Y12767D1*
X10498Y12753D1*
X10455D1*
X10412Y12767D1*
X10398Y12782D1*
X10383Y12810D1*
X10849Y13054D2*
X10705D1*
X10691Y12925D1*
X10705Y12939D1*
X10749Y12954D1*
X10791D1*
X10834Y12939D1*
X10863Y12911D1*
X10878Y12868D1*
Y12839D1*
X10863Y12796D1*
X10834Y12767D1*
X10791Y12753D1*
X10749D1*
X10705Y12767D1*
X10691Y12782D1*
X10677Y12810D1*
X7319Y12453D2*
X7448D1*
X7491Y12467D1*
X7505Y12481D1*
X7520Y12510D1*
Y12539D1*
X7505Y12567D1*
X7491Y12582D1*
X7448Y12596D1*
X7319D1*
Y12295D1*
X7419Y12453D2*
X7520Y12295D1*
X7641Y12596D2*
X7799D1*
X7713Y12481D1*
X7756D1*
X7784Y12467D1*
X7799Y12453D1*
X7813Y12409D1*
Y12381D1*
X7799Y12338D1*
X7770Y12309D1*
X7727Y12295D1*
X7684D1*
X7641Y12309D1*
X7627Y12324D1*
X7612Y12352D1*
X8078Y12553D2*
X8064Y12582D1*
X8021Y12596D1*
X7992D1*
X7949Y12582D1*
X7920Y12538D1*
X7906Y12467D1*
Y12395D1*
X7920Y12338D1*
X7949Y12309D1*
X7992Y12295D1*
X8006D1*
X8049Y12309D1*
X8078Y12338D1*
X8092Y12381D1*
Y12395D1*
X8078Y12438D1*
X8049Y12467D1*
X8006Y12481D1*
X7992D1*
X7949Y12467D1*
X7920Y12438D1*
X7906Y12395D1*
X9907Y35681D2*
Y35810D1*
X9893Y35853D1*
X9879Y35867D1*
X9850Y35882D1*
X9821D1*
X9793Y35867D1*
X9778Y35853D1*
X9764Y35810D1*
Y35681D1*
X10065D1*
X9907Y35781D2*
X10065Y35882D1*
X9764Y36003D2*
Y36161D1*
X9879Y36075D1*
Y36118D1*
X9893Y36146D1*
X9907Y36161D1*
X9951Y36175D1*
X9979D1*
X10022Y36161D1*
X10051Y36132D1*
X10065Y36089D1*
Y36046D1*
X10051Y36003D1*
X10036Y35989D1*
X10008Y35974D1*
X10065Y36325D2*
X9764Y36469D1*
Y36268D1*
X22851Y34583D2*
X22980D1*
X23023Y34597D1*
X23037Y34611D1*
X23052Y34640D1*
Y34669D1*
X23037Y34697D1*
X23023Y34712D1*
X22980Y34726D1*
X22851D1*
Y34425D1*
X22951Y34583D2*
X23052Y34425D1*
X23173Y34726D2*
X23331D1*
X23245Y34611D1*
X23288D1*
X23316Y34597D1*
X23331Y34583D1*
X23345Y34539D1*
Y34511D1*
X23331Y34468D1*
X23302Y34439D1*
X23259Y34425D1*
X23216D1*
X23173Y34439D1*
X23159Y34454D1*
X23144Y34482D1*
X23510Y34726D2*
X23467Y34712D1*
X23452Y34683D1*
Y34654D1*
X23467Y34626D1*
X23495Y34611D1*
X23553Y34597D1*
X23596Y34583D1*
X23624Y34554D1*
X23639Y34525D1*
Y34482D1*
X23624Y34454D1*
X23610Y34439D1*
X23567Y34425D1*
X23510D1*
X23467Y34439D1*
X23452Y34454D1*
X23438Y34482D1*
Y34525D1*
X23452Y34554D1*
X23481Y34583D1*
X23524Y34597D1*
X23581Y34611D1*
X23610Y34626D1*
X23624Y34654D1*
Y34683D1*
X23610Y34712D1*
X23567Y34726D1*
X23510D1*
X12817Y8818D2*
Y8947D1*
X12803Y8991D1*
X12789Y9005D1*
X12760Y9019D1*
X12731D1*
X12703Y9005D1*
X12688Y8991D1*
X12674Y8947D1*
Y8818D1*
X12975D1*
X12817Y8919D2*
X12975Y9019D1*
X12674Y9141D2*
Y9298D1*
X12789Y9212D1*
Y9256D1*
X12803Y9284D1*
X12817Y9298D1*
X12861Y9313D1*
X12889D1*
X12932Y9298D1*
X12961Y9270D1*
X12975Y9227D1*
Y9184D1*
X12961Y9141D1*
X12946Y9127D1*
X12918Y9112D1*
X12774Y9592D2*
X12817Y9578D1*
X12846Y9549D1*
X12861Y9506D1*
Y9492D1*
X12846Y9449D1*
X12817Y9420D1*
X12774Y9406D1*
X12760D1*
X12717Y9420D1*
X12688Y9449D1*
X12674Y9492D1*
Y9506D1*
X12688Y9549D1*
X12717Y9578D1*
X12774Y9592D1*
X12846D1*
X12918Y9578D1*
X12961Y9549D1*
X12975Y9506D1*
Y9478D1*
X12961Y9434D1*
X12932Y9420D1*
X18313Y35264D2*
Y35393D1*
X18298Y35436D1*
X18284Y35450D1*
X18255Y35465D1*
X18227D1*
X18198Y35450D1*
X18183Y35436D1*
X18169Y35393D1*
Y35264D1*
X18471D1*
X18313Y35364D2*
X18471Y35465D1*
Y35701D2*
X18169D1*
X18370Y35557D1*
Y35773D1*
X18169Y35951D2*
X18184Y35908D1*
X18227Y35880D1*
X18298Y35865D1*
X18342D1*
X18413Y35880D1*
X18456Y35908D1*
X18471Y35951D1*
Y35980D1*
X18456Y36023D1*
X18413Y36052D1*
X18342Y36066D1*
X18298D1*
X18227Y36052D1*
X18184Y36023D1*
X18169Y35980D1*
Y35951D1*
X18227Y36052D2*
X18413Y35880D1*
X14177Y8919D2*
Y9048D1*
X14163Y9091D1*
X14149Y9105D1*
X14120Y9120D1*
X14091D1*
X14063Y9105D1*
X14048Y9091D1*
X14034Y9048D1*
Y8919D1*
X14335D1*
X14177Y9019D2*
X14335Y9120D1*
Y9356D2*
X14034D1*
X14235Y9212D1*
Y9427D1*
X14092Y9520D2*
X14077Y9549D1*
X14034Y9592D1*
X14335D1*
X17633Y5973D2*
X17762D1*
X17806Y5987D1*
X17820Y6001D1*
X17834Y6030D1*
Y6059D1*
X17820Y6087D1*
X17806Y6102D1*
X17762Y6116D1*
X17633D1*
Y5815D1*
X17734Y5973D2*
X17834Y5815D1*
X18071D2*
Y6116D1*
X17927Y5915D1*
X18142D1*
X18249Y6044D2*
Y6058D1*
X18264Y6087D1*
X18278Y6102D1*
X18307Y6116D1*
X18364D1*
X18393Y6102D1*
X18407Y6087D1*
X18422Y6058D1*
Y6030D1*
X18407Y6001D1*
X18378Y5958D1*
X18235Y5815D1*
X18436D1*
X13323Y12033D2*
X13452D1*
X13496Y12047D1*
X13510Y12061D1*
X13524Y12090D1*
Y12119D1*
X13510Y12147D1*
X13496Y12162D1*
X13452Y12176D1*
X13323D1*
Y11875D1*
X13424Y12033D2*
X13524Y11875D1*
X13761D2*
Y12176D1*
X13617Y11975D1*
X13832D1*
X13954Y12176D2*
X14111D1*
X14025Y12061D1*
X14068D1*
X14097Y12047D1*
X14111Y12033D1*
X14126Y11989D1*
Y11961D1*
X14111Y11918D1*
X14083Y11889D1*
X14040Y11875D1*
X13997D1*
X13954Y11889D1*
X13939Y11904D1*
X13925Y11932D1*
X5927Y8135D2*
X6056D1*
X6099Y8150D1*
X6114Y8164D1*
X6128Y8193D1*
Y8221D1*
X6114Y8250D1*
X6099Y8265D1*
X6056Y8279D1*
X5927D1*
Y7977D1*
X6027Y8135D2*
X6128Y7977D1*
X6364D2*
Y8278D1*
X6221Y8078D1*
X6436D1*
X6672Y7977D2*
Y8278D1*
X6528Y8078D1*
X6744D1*
X28131Y32339D2*
Y32468D1*
X28117Y32511D1*
X28102Y32526D1*
X28074Y32540D1*
X28045D1*
X28016Y32526D1*
X28002Y32511D1*
X27988Y32468D1*
Y32339D1*
X28289D1*
X28131Y32439D2*
X28289Y32540D1*
Y32776D2*
X27988D1*
X28189Y32632D1*
Y32848D1*
X27988Y33112D2*
Y32969D1*
X28117Y32955D1*
X28103Y32969D1*
X28088Y33012D1*
Y33055D1*
X28103Y33098D1*
X28131Y33127D1*
X28174Y33141D1*
X28203D1*
X28246Y33127D1*
X28275Y33098D1*
X28289Y33055D1*
Y33012D1*
X28275Y32969D1*
X28260Y32955D1*
X28232Y32940D1*
X25091Y33043D2*
X25220D1*
X25263Y33057D1*
X25277Y33071D1*
X25292Y33100D1*
Y33129D1*
X25277Y33157D1*
X25263Y33172D1*
X25220Y33186D1*
X25091D1*
Y32885D1*
X25191Y33043D2*
X25292Y32885D1*
X25528D2*
Y33186D1*
X25384Y32985D1*
X25600D1*
X25864Y33143D2*
X25850Y33172D1*
X25807Y33186D1*
X25778D1*
X25735Y33172D1*
X25706Y33129D1*
X25692Y33057D1*
Y32985D1*
X25706Y32928D1*
X25735Y32899D1*
X25778Y32885D1*
X25793D1*
X25835Y32899D1*
X25864Y32928D1*
X25879Y32971D1*
Y32985D1*
X25864Y33028D1*
X25835Y33057D1*
X25793Y33071D1*
X25778D1*
X25735Y33057D1*
X25706Y33028D1*
X25692Y32985D1*
X25104Y35503D2*
X25233D1*
X25276Y35517D1*
X25291Y35531D1*
X25305Y35560D1*
Y35589D1*
X25291Y35617D1*
X25276Y35632D1*
X25233Y35646D1*
X25104D1*
Y35345D1*
X25205Y35503D2*
X25305Y35345D1*
X25541D2*
Y35646D1*
X25398Y35445D1*
X25613D1*
X25763Y35345D2*
X25907Y35646D1*
X25706D1*
X24822Y31409D2*
Y31538D1*
X24807Y31581D1*
X24793Y31596D1*
X24765Y31610D1*
X24736D1*
X24707Y31596D1*
X24693Y31581D1*
X24678Y31538D1*
Y31409D1*
X24980D1*
X24822Y31509D2*
X24980Y31610D1*
Y31846D2*
X24679D1*
X24879Y31703D1*
Y31918D1*
X24679Y32082D2*
X24693Y32039D1*
X24721Y32025D1*
X24750D1*
X24779Y32039D1*
X24793Y32068D1*
X24808Y32125D1*
X24822Y32168D1*
X24851Y32197D1*
X24879Y32211D1*
X24922D1*
X24951Y32197D1*
X24965Y32183D1*
X24980Y32139D1*
Y32082D1*
X24965Y32039D1*
X24951Y32025D1*
X24922Y32010D1*
X24879D1*
X24851Y32025D1*
X24822Y32054D1*
X24808Y32096D1*
X24793Y32154D1*
X24779Y32183D1*
X24750Y32197D1*
X24721D1*
X24693Y32183D1*
X24679Y32139D1*
Y32082D1*
X26843Y30382D2*
X26972D1*
X27015Y30396D1*
X27030Y30411D1*
X27044Y30439D1*
Y30468D1*
X27030Y30496D1*
X27015Y30511D1*
X26972Y30525D1*
X26843D1*
Y30224D1*
X26944Y30382D2*
X27044Y30224D1*
X27281D2*
Y30525D1*
X27137Y30324D1*
X27352D1*
X27631Y30425D2*
X27617Y30382D1*
X27588Y30353D1*
X27545Y30339D1*
X27531D1*
X27488Y30353D1*
X27459Y30382D1*
X27445Y30425D1*
Y30439D1*
X27459Y30482D1*
X27488Y30511D1*
X27531Y30525D1*
X27545D1*
X27588Y30511D1*
X27617Y30482D1*
X27631Y30425D1*
Y30353D1*
X27617Y30281D1*
X27588Y30238D1*
X27545Y30224D1*
X27517D1*
X27474Y30238D1*
X27459Y30267D1*
X5941Y7215D2*
X6070D1*
X6113Y7230D1*
X6128Y7244D1*
X6142Y7273D1*
Y7301D1*
X6128Y7330D1*
X6113Y7345D1*
X6070Y7359D1*
X5941D1*
Y7057D1*
X6042Y7215D2*
X6142Y7057D1*
X6407Y7358D2*
X6264D1*
X6249Y7229D1*
X6264Y7244D1*
X6307Y7258D1*
X6350D1*
X6393Y7244D1*
X6422Y7215D1*
X6436Y7172D1*
Y7144D1*
X6422Y7100D1*
X6393Y7072D1*
X6350Y7057D1*
X6307D1*
X6264Y7072D1*
X6249Y7086D1*
X6235Y7115D1*
X6615Y7358D2*
X6572Y7344D1*
X6543Y7301D1*
X6528Y7229D1*
Y7186D1*
X6543Y7115D1*
X6572Y7072D1*
X6615Y7057D1*
X6643D1*
X6686Y7072D1*
X6715Y7115D1*
X6729Y7186D1*
Y7229D1*
X6715Y7301D1*
X6686Y7344D1*
X6643Y7358D1*
X6615D1*
X6715Y7301D2*
X6543Y7115D1*
X14367Y4536D2*
Y4665D1*
X14353Y4708D1*
X14339Y4722D1*
X14310Y4737D1*
X14281D1*
X14253Y4722D1*
X14238Y4708D1*
X14224Y4665D1*
Y4536D1*
X14525D1*
X14367Y4636D2*
X14525Y4737D1*
X14224Y5001D2*
Y4858D1*
X14353Y4844D1*
X14339Y4858D1*
X14324Y4901D1*
Y4944D1*
X14339Y4987D1*
X14367Y5016D1*
X14411Y5030D1*
X14439D1*
X14482Y5016D1*
X14511Y4987D1*
X14525Y4944D1*
Y4901D1*
X14511Y4858D1*
X14496Y4844D1*
X14468Y4829D1*
X14282Y5123D2*
X14267Y5152D1*
X14224Y5195D1*
X14525D1*
X28131Y24286D2*
Y24415D1*
X28117Y24458D1*
X28102Y24473D1*
X28074Y24487D1*
X28045D1*
X28016Y24473D1*
X28002Y24458D1*
X27988Y24415D1*
Y24286D1*
X28289D1*
X28131Y24386D2*
X28289Y24487D1*
X27988Y24752D2*
Y24608D1*
X28117Y24594D1*
X28103Y24608D1*
X28088Y24651D1*
Y24694D1*
X28103Y24737D1*
X28131Y24766D1*
X28174Y24780D1*
X28203D1*
X28246Y24766D1*
X28275Y24737D1*
X28289Y24694D1*
Y24651D1*
X28275Y24608D1*
X28260Y24594D1*
X28232Y24580D1*
X28060Y24888D2*
X28045D1*
X28016Y24902D1*
X28002Y24916D1*
X27988Y24945D1*
Y25002D1*
X28002Y25031D1*
X28016Y25045D1*
X28045Y25060D1*
X28074D1*
X28103Y25045D1*
X28145Y25017D1*
X28289Y24873D1*
Y25074D1*
X25091Y24983D2*
X25220D1*
X25263Y24997D1*
X25277Y25011D1*
X25292Y25040D1*
Y25069D1*
X25277Y25097D1*
X25263Y25112D1*
X25220Y25126D1*
X25091D1*
Y24825D1*
X25191Y24983D2*
X25292Y24825D1*
X25556Y25126D2*
X25413D1*
X25399Y24997D1*
X25413Y25011D1*
X25456Y25026D1*
X25499D1*
X25542Y25011D1*
X25571Y24983D1*
X25585Y24939D1*
Y24911D1*
X25571Y24868D1*
X25542Y24839D1*
X25499Y24825D1*
X25456D1*
X25413Y24839D1*
X25399Y24854D1*
X25384Y24882D1*
X25707Y25126D2*
X25864D1*
X25778Y25011D1*
X25821D1*
X25850Y24997D1*
X25864Y24983D1*
X25879Y24939D1*
Y24911D1*
X25864Y24868D1*
X25836Y24839D1*
X25793Y24825D1*
X25749D1*
X25707Y24839D1*
X25692Y24854D1*
X25678Y24882D1*
X25104Y27443D2*
X25233D1*
X25276Y27457D1*
X25291Y27471D1*
X25305Y27500D1*
Y27529D1*
X25291Y27557D1*
X25276Y27572D1*
X25233Y27586D1*
X25104D1*
Y27285D1*
X25205Y27443D2*
X25305Y27285D1*
X25570Y27586D2*
X25427D1*
X25412Y27457D1*
X25427Y27471D1*
X25470Y27486D1*
X25512D1*
X25556Y27471D1*
X25584Y27443D1*
X25599Y27399D1*
Y27371D1*
X25584Y27328D1*
X25556Y27299D1*
X25512Y27285D1*
X25470D1*
X25427Y27299D1*
X25412Y27314D1*
X25398Y27342D1*
X25835Y27285D2*
Y27586D1*
X25691Y27385D1*
X25907D1*
X24562Y20026D2*
Y20155D1*
X24547Y20198D1*
X24533Y20213D1*
X24505Y20227D1*
X24476D1*
X24447Y20213D1*
X24433Y20198D1*
X24418Y20155D1*
Y20026D1*
X24720D1*
X24562Y20126D2*
X24720Y20227D1*
X24419Y20492D2*
Y20348D1*
X24548Y20334D1*
X24533Y20348D1*
X24519Y20391D1*
Y20434D1*
X24533Y20477D1*
X24562Y20506D1*
X24605Y20520D1*
X24634D1*
X24677Y20506D1*
X24705Y20477D1*
X24720Y20434D1*
Y20391D1*
X24705Y20348D1*
X24691Y20334D1*
X24662Y20320D1*
X24419Y20785D2*
Y20642D1*
X24548Y20628D1*
X24533Y20642D1*
X24519Y20685D1*
Y20728D1*
X24533Y20771D1*
X24562Y20800D1*
X24605Y20814D1*
X24634D1*
X24677Y20800D1*
X24705Y20771D1*
X24720Y20728D1*
Y20685D1*
X24705Y20642D1*
X24691Y20628D1*
X24662Y20613D1*
X26851Y22242D2*
X26980D1*
X27023Y22256D1*
X27037Y22271D1*
X27052Y22299D1*
Y22328D1*
X27037Y22356D1*
X27023Y22371D1*
X26980Y22385D1*
X26851D1*
Y22084D1*
X26951Y22242D2*
X27052Y22084D1*
X27316Y22385D2*
X27173D1*
X27159Y22256D1*
X27173Y22270D1*
X27216Y22285D1*
X27259D1*
X27302Y22270D1*
X27331Y22242D1*
X27345Y22199D1*
Y22170D1*
X27331Y22127D1*
X27302Y22098D1*
X27259Y22084D1*
X27216D1*
X27173Y22098D1*
X27159Y22113D1*
X27144Y22141D1*
X27610Y22342D2*
X27596Y22371D1*
X27553Y22385D1*
X27524D1*
X27481Y22371D1*
X27452Y22328D1*
X27438Y22256D1*
Y22184D1*
X27452Y22127D1*
X27481Y22098D1*
X27524Y22084D1*
X27538D1*
X27581Y22098D1*
X27610Y22127D1*
X27624Y22170D1*
Y22184D1*
X27610Y22227D1*
X27581Y22256D1*
X27538Y22270D1*
X27524D1*
X27481Y22256D1*
X27452Y22227D1*
X27438Y22184D1*
X8191Y21073D2*
X8320D1*
X8363Y21087D1*
X8378Y21101D1*
X8392Y21130D1*
Y21159D1*
X8378Y21187D1*
X8363Y21202D1*
X8320Y21216D1*
X8191D1*
Y20915D1*
X8292Y21073D2*
X8392Y20915D1*
X8657Y21216D2*
X8514D1*
X8499Y21087D1*
X8514Y21101D1*
X8557Y21116D1*
X8600D1*
X8643Y21101D1*
X8672Y21073D1*
X8686Y21029D1*
Y21001D1*
X8672Y20958D1*
X8643Y20929D1*
X8600Y20915D1*
X8557D1*
X8514Y20929D1*
X8499Y20944D1*
X8485Y20972D1*
X8836Y20915D2*
X8979Y21216D1*
X8778D1*
X8232Y21496D2*
Y21625D1*
X8218Y21669D1*
X8204Y21683D1*
X8175Y21697D1*
X8146D1*
X8118Y21683D1*
X8103Y21669D1*
X8089Y21625D1*
Y21496D1*
X8390D1*
X8232Y21597D2*
X8390Y21697D1*
X8089Y21962D2*
Y21819D1*
X8218Y21805D1*
X8204Y21819D1*
X8189Y21862D1*
Y21905D1*
X8204Y21948D1*
X8232Y21977D1*
X8276Y21991D1*
X8304D1*
X8347Y21977D1*
X8376Y21948D1*
X8390Y21905D1*
Y21862D1*
X8376Y21819D1*
X8361Y21805D1*
X8333Y21790D1*
X8089Y22155D2*
X8103Y22112D1*
X8132Y22098D1*
X8161D1*
X8189Y22112D1*
X8204Y22141D1*
X8218Y22198D1*
X8232Y22241D1*
X8261Y22270D1*
X8290Y22284D1*
X8333D1*
X8361Y22270D1*
X8376Y22256D1*
X8390Y22213D1*
Y22155D1*
X8376Y22112D1*
X8361Y22098D1*
X8333Y22084D1*
X8290D1*
X8261Y22098D1*
X8232Y22127D1*
X8218Y22170D1*
X8204Y22227D1*
X8189Y22256D1*
X8161Y22270D1*
X8132D1*
X8103Y22256D1*
X8089Y22213D1*
Y22155D1*
X28118Y16312D2*
Y16441D1*
X28104Y16484D1*
X28090Y16499D1*
X28061Y16513D1*
X28032D1*
X28004Y16499D1*
X27989Y16484D1*
X27975Y16441D1*
Y16312D1*
X28276D1*
X28118Y16413D2*
X28276Y16513D1*
X27975Y16778D2*
Y16635D1*
X28104Y16621D1*
X28090Y16635D1*
X28075Y16678D1*
Y16721D1*
X28090Y16764D1*
X28118Y16793D1*
X28162Y16807D1*
X28190D1*
X28233Y16793D1*
X28262Y16764D1*
X28276Y16721D1*
Y16678D1*
X28262Y16635D1*
X28247Y16621D1*
X28219Y16606D1*
X28075Y17086D2*
X28118Y17072D1*
X28147Y17043D1*
X28162Y17000D1*
Y16986D1*
X28147Y16943D1*
X28118Y16914D1*
X28075Y16900D1*
X28061D1*
X28018Y16914D1*
X27989Y16943D1*
X27975Y16986D1*
Y17000D1*
X27989Y17043D1*
X28018Y17072D1*
X28075Y17086D1*
X28147D1*
X28219Y17072D1*
X28262Y17043D1*
X28276Y17000D1*
Y16972D1*
X28262Y16928D1*
X28233Y16914D1*
X25085Y17002D2*
X25214D1*
X25257Y17016D1*
X25272Y17031D1*
X25286Y17059D1*
Y17088D1*
X25272Y17117D1*
X25257Y17131D1*
X25214Y17145D1*
X25085D1*
Y16844D1*
X25186Y17002D2*
X25286Y16844D1*
X25551Y17102D2*
X25537Y17131D1*
X25493Y17145D1*
X25465D1*
X25422Y17131D1*
X25393Y17088D1*
X25379Y17016D1*
Y16945D1*
X25393Y16887D1*
X25422Y16858D1*
X25465Y16844D1*
X25479D1*
X25522Y16858D1*
X25551Y16887D1*
X25565Y16930D1*
Y16945D1*
X25551Y16988D1*
X25522Y17016D1*
X25479Y17030D1*
X25465D1*
X25422Y17016D1*
X25393Y16988D1*
X25379Y16945D1*
X25744Y17145D2*
X25701Y17131D1*
X25672Y17088D1*
X25658Y17016D1*
Y16973D1*
X25672Y16901D1*
X25701Y16858D1*
X25744Y16844D1*
X25772D1*
X25816Y16858D1*
X25844Y16901D1*
X25859Y16973D1*
Y17016D1*
X25844Y17088D1*
X25816Y17131D1*
X25772Y17145D1*
X25744D1*
X25844Y17088D2*
X25672Y16901D1*
X25170Y19462D2*
X25299D1*
X25342Y19476D1*
X25357Y19491D1*
X25371Y19519D1*
Y19548D1*
X25357Y19577D1*
X25342Y19591D1*
X25299Y19605D1*
X25170D1*
Y19304D1*
X25271Y19462D2*
X25371Y19304D1*
X25636Y19562D2*
X25622Y19591D1*
X25579Y19605D1*
X25550D1*
X25507Y19591D1*
X25478Y19548D1*
X25464Y19476D1*
Y19405D1*
X25478Y19347D1*
X25507Y19318D1*
X25550Y19304D1*
X25564D1*
X25607Y19318D1*
X25636Y19347D1*
X25650Y19390D1*
Y19405D1*
X25636Y19448D1*
X25607Y19476D1*
X25564Y19490D1*
X25550D1*
X25507Y19476D1*
X25478Y19448D1*
X25464Y19405D1*
X25743Y19548D2*
X25772Y19562D1*
X25815Y19605D1*
Y19304D1*
X24529Y12073D2*
Y12202D1*
X24515Y12245D1*
X24500Y12259D1*
X24472Y12273D1*
X24443D1*
X24414Y12259D1*
X24400Y12245D1*
X24386Y12202D1*
Y12073D1*
X24687D1*
X24529Y12173D2*
X24687Y12273D1*
X24429Y12538D2*
X24400Y12524D1*
X24386Y12481D1*
Y12452D1*
X24400Y12409D1*
X24443Y12380D1*
X24515Y12366D1*
X24586D1*
X24644Y12380D1*
X24673Y12409D1*
X24687Y12452D1*
Y12467D1*
X24673Y12509D1*
X24644Y12538D1*
X24601Y12552D1*
X24586D1*
X24543Y12538D1*
X24515Y12509D1*
X24501Y12467D1*
Y12452D1*
X24515Y12409D1*
X24543Y12380D1*
X24586Y12366D1*
X24457Y12660D2*
X24443D1*
X24414Y12674D1*
X24400Y12688D1*
X24386Y12717D1*
Y12774D1*
X24400Y12803D1*
X24414Y12817D1*
X24443Y12832D1*
X24472D1*
X24501Y12817D1*
X24543Y12789D1*
X24687Y12645D1*
Y12846D1*
X26848Y14191D2*
X26977D1*
X27020Y14206D1*
X27035Y14220D1*
X27049Y14248D1*
Y14277D1*
X27035Y14306D1*
X27020Y14320D1*
X26977Y14335D1*
X26848D1*
Y14033D1*
X26948Y14191D2*
X27049Y14033D1*
X27314Y14291D2*
X27299Y14320D1*
X27256Y14334D1*
X27228D1*
X27185Y14320D1*
X27156Y14277D1*
X27141Y14205D1*
Y14134D1*
X27156Y14076D1*
X27185Y14047D1*
X27228Y14033D1*
X27242D1*
X27285Y14047D1*
X27314Y14076D1*
X27328Y14119D1*
Y14134D1*
X27314Y14177D1*
X27285Y14205D1*
X27242Y14219D1*
X27228D1*
X27185Y14205D1*
X27156Y14177D1*
X27141Y14134D1*
X27449Y14334D2*
X27607D1*
X27521Y14219D1*
X27564D1*
X27593Y14205D1*
X27607Y14191D1*
X27621Y14148D1*
Y14119D1*
X27607Y14076D1*
X27578Y14047D1*
X27535Y14033D1*
X27492D1*
X27449Y14047D1*
X27435Y14062D1*
X27420Y14090D1*
X20476Y20933D2*
X20605D1*
X20649Y20947D1*
X20663Y20961D1*
X20677Y20990D1*
Y21019D1*
X20663Y21047D1*
X20649Y21062D1*
X20605Y21076D1*
X20476D1*
Y20775D1*
X20577Y20933D2*
X20677Y20775D1*
X20942Y21033D2*
X20928Y21062D1*
X20885Y21076D1*
X20856D1*
X20813Y21062D1*
X20784Y21018D1*
X20770Y20947D1*
Y20875D1*
X20784Y20818D1*
X20813Y20789D1*
X20856Y20775D1*
X20871D1*
X20913Y20789D1*
X20942Y20818D1*
X20956Y20861D1*
Y20875D1*
X20942Y20918D1*
X20913Y20947D1*
X20871Y20961D1*
X20856D1*
X20813Y20947D1*
X20784Y20918D1*
X20770Y20875D1*
X21193Y20775D2*
Y21076D1*
X21049Y20875D1*
X21264D1*
X28121Y8341D2*
Y8470D1*
X28107Y8513D1*
X28092Y8527D1*
X28064Y8541D1*
X28035D1*
X28006Y8527D1*
X27992Y8513D1*
X27978Y8470D1*
Y8341D1*
X28279D1*
X28121Y8441D2*
X28279Y8541D1*
X28021Y8806D2*
X27992Y8792D1*
X27978Y8749D1*
Y8720D1*
X27992Y8677D1*
X28035Y8648D1*
X28107Y8634D1*
X28179D1*
X28236Y8648D1*
X28265Y8677D1*
X28279Y8720D1*
Y8735D1*
X28265Y8777D1*
X28236Y8806D1*
X28193Y8820D1*
X28179D1*
X28135Y8806D1*
X28107Y8777D1*
X28093Y8735D1*
Y8720D1*
X28107Y8677D1*
X28135Y8648D1*
X28179Y8634D1*
X28021Y9085D2*
X27992Y9071D1*
X27978Y9028D1*
Y8999D1*
X27992Y8956D1*
X28035Y8927D1*
X28107Y8913D1*
X28179D1*
X28236Y8927D1*
X28265Y8956D1*
X28279Y8999D1*
Y9014D1*
X28265Y9056D1*
X28236Y9085D1*
X28193Y9099D1*
X28179D1*
X28135Y9085D1*
X28107Y9056D1*
X28093Y9014D1*
Y8999D1*
X28107Y8956D1*
X28135Y8927D1*
X28179Y8913D1*
X25088Y9023D2*
X25217D1*
X25260Y9037D1*
X25275Y9051D1*
X25289Y9080D1*
Y9109D1*
X25275Y9137D1*
X25260Y9152D1*
X25217Y9166D1*
X25088D1*
Y8865D1*
X25188Y9023D2*
X25289Y8865D1*
X25554Y9123D2*
X25539Y9152D1*
X25496Y9166D1*
X25468D1*
X25425Y9152D1*
X25396Y9108D1*
X25381Y9037D1*
Y8965D1*
X25396Y8908D1*
X25425Y8879D1*
X25468Y8865D1*
X25482D1*
X25525Y8879D1*
X25554Y8908D1*
X25568Y8951D1*
Y8965D1*
X25554Y9008D1*
X25525Y9037D1*
X25482Y9051D1*
X25468D1*
X25425Y9037D1*
X25396Y9008D1*
X25381Y8965D1*
X25718Y8865D2*
X25861Y9166D1*
X25660D1*
X25109Y11483D2*
X25238D1*
X25281Y11497D1*
X25295Y11511D1*
X25310Y11540D1*
Y11569D1*
X25295Y11597D1*
X25281Y11612D1*
X25238Y11626D1*
X25109D1*
Y11325D1*
X25209Y11483D2*
X25310Y11325D1*
X25574Y11583D2*
X25560Y11612D1*
X25517Y11626D1*
X25489D1*
X25445Y11612D1*
X25417Y11568D1*
X25402Y11497D1*
Y11425D1*
X25417Y11368D1*
X25445Y11339D1*
X25489Y11325D1*
X25503D1*
X25546Y11339D1*
X25574Y11368D1*
X25589Y11411D1*
Y11425D1*
X25574Y11468D1*
X25546Y11497D1*
X25503Y11511D1*
X25489D1*
X25445Y11497D1*
X25417Y11468D1*
X25402Y11425D1*
X25753Y11626D2*
X25710Y11612D1*
X25696Y11583D1*
Y11554D1*
X25710Y11526D1*
X25739Y11511D1*
X25796Y11497D1*
X25839Y11483D1*
X25868Y11454D1*
X25882Y11425D1*
Y11382D1*
X25868Y11354D1*
X25853Y11339D1*
X25810Y11325D1*
X25753D1*
X25710Y11339D1*
X25696Y11354D1*
X25681Y11382D1*
Y11425D1*
X25696Y11454D1*
X25724Y11483D1*
X25767Y11497D1*
X25825Y11511D1*
X25853Y11526D1*
X25868Y11554D1*
Y11583D1*
X25853Y11612D1*
X25810Y11626D1*
X25753D1*
X24512Y4100D2*
Y4229D1*
X24497Y4272D1*
X24483Y4287D1*
X24455Y4301D1*
X24426D1*
X24397Y4287D1*
X24383Y4272D1*
X24368Y4229D1*
Y4100D1*
X24670D1*
X24512Y4201D2*
X24670Y4301D1*
X24411Y4566D2*
X24383Y4552D1*
X24369Y4509D1*
Y4480D1*
X24383Y4437D1*
X24426Y4408D1*
X24498Y4394D1*
X24569D1*
X24627Y4408D1*
X24655Y4437D1*
X24670Y4480D1*
Y4494D1*
X24655Y4537D1*
X24627Y4566D1*
X24584Y4580D1*
X24569D1*
X24526Y4566D1*
X24498Y4537D1*
X24483Y4494D1*
Y4480D1*
X24498Y4437D1*
X24526Y4408D1*
X24569Y4394D1*
X24469Y4860D2*
X24512Y4845D1*
X24541Y4817D1*
X24555Y4773D1*
Y4759D1*
X24541Y4716D1*
X24512Y4688D1*
X24469Y4673D1*
X24455D1*
X24411Y4688D1*
X24383Y4716D1*
X24369Y4759D1*
Y4773D1*
X24383Y4817D1*
X24411Y4845D1*
X24469Y4860D1*
X24541D1*
X24612Y4845D1*
X24655Y4817D1*
X24670Y4773D1*
Y4745D1*
X24655Y4702D1*
X24627Y4688D1*
X26833Y6412D2*
X26962D1*
X27005Y6426D1*
X27020Y6441D1*
X27034Y6469D1*
Y6498D1*
X27020Y6526D1*
X27005Y6541D1*
X26962Y6555D1*
X26833D1*
Y6254D1*
X26934Y6412D2*
X27034Y6254D1*
X27184D2*
X27328Y6555D1*
X27127D1*
X27507D2*
X27464Y6541D1*
X27435Y6498D1*
X27421Y6426D1*
Y6383D1*
X27435Y6311D1*
X27464Y6268D1*
X27507Y6254D1*
X27535D1*
X27578Y6268D1*
X27607Y6311D1*
X27621Y6383D1*
Y6426D1*
X27607Y6498D1*
X27578Y6541D1*
X27535Y6555D1*
X27507D1*
X27607Y6498D2*
X27435Y6311D1*
X25034Y33810D2*
X25005Y33782D1*
X24991Y33738D1*
Y33681D1*
X25005Y33638D1*
X25034Y33609D1*
X25062D1*
X25091Y33624D1*
X25105Y33638D1*
X25120Y33666D1*
X25149Y33753D1*
X25163Y33782D1*
X25177Y33796D1*
X25206Y33810D1*
X25249D1*
X25278Y33782D1*
X25292Y33738D1*
Y33681D1*
X25278Y33638D1*
X25249Y33609D1*
X24991Y34046D2*
X25220D1*
X25263Y34032D1*
X25278Y34017D1*
X25292Y33989D1*
Y33960D1*
X25278Y33932D1*
X25263Y33917D1*
X25220Y33903D1*
X25192D1*
X25048Y34139D2*
X25034Y34168D1*
X24991Y34211D1*
X25292D1*
X25034Y25686D2*
X25005Y25657D1*
X24991Y25614D1*
Y25557D1*
X25005Y25513D1*
X25034Y25485D1*
X25062D1*
X25091Y25499D1*
X25105Y25513D1*
X25120Y25542D1*
X25149Y25628D1*
X25163Y25657D1*
X25177Y25671D1*
X25206Y25686D1*
X25249D1*
X25278Y25657D1*
X25292Y25614D1*
Y25557D1*
X25278Y25513D1*
X25249Y25485D1*
X24991Y25922D2*
X25220D1*
X25263Y25908D1*
X25278Y25893D1*
X25292Y25864D1*
Y25836D1*
X25278Y25807D1*
X25263Y25793D1*
X25220Y25778D1*
X25192D1*
X25063Y26029D2*
X25048D1*
X25020Y26043D1*
X25005Y26058D1*
X24991Y26086D1*
Y26144D1*
X25005Y26172D1*
X25020Y26187D1*
X25048Y26201D1*
X25077D1*
X25106Y26187D1*
X25149Y26158D1*
X25292Y26014D1*
Y26215D1*
X25021Y17705D2*
X24992Y17676D1*
X24978Y17633D1*
Y17576D1*
X24992Y17533D1*
X25021Y17504D1*
X25050D1*
X25078Y17519D1*
X25093Y17533D1*
X25107Y17561D1*
X25136Y17648D1*
X25150Y17676D1*
X25165Y17691D1*
X25193Y17705D1*
X25236D1*
X25265Y17676D1*
X25279Y17633D1*
Y17576D1*
X25265Y17533D1*
X25236Y17504D1*
X24978Y17941D2*
X25207D1*
X25250Y17927D1*
X25265Y17912D1*
X25279Y17884D1*
Y17855D1*
X25265Y17826D1*
X25250Y17812D1*
X25207Y17798D1*
X25179D1*
X24978Y18063D2*
Y18220D1*
X25093Y18134D1*
Y18177D1*
X25107Y18206D1*
X25121Y18220D1*
X25165Y18235D1*
X25193D1*
X25236Y18220D1*
X25265Y18192D1*
X25279Y18148D1*
Y18105D1*
X25265Y18063D1*
X25250Y18048D1*
X25222Y18034D1*
X25024Y9718D2*
X24995Y9690D1*
X24981Y9647D1*
Y9589D1*
X24995Y9546D1*
X25024Y9517D1*
X25052D1*
X25081Y9532D1*
X25095Y9546D1*
X25110Y9575D1*
X25139Y9661D1*
X25153Y9690D1*
X25167Y9704D1*
X25196Y9718D1*
X25239D1*
X25268Y9690D1*
X25282Y9647D1*
Y9589D1*
X25268Y9546D1*
X25239Y9517D1*
X24981Y9955D2*
X25210D1*
X25253Y9940D1*
X25268Y9926D1*
X25282Y9897D1*
Y9868D1*
X25268Y9840D1*
X25253Y9826D1*
X25210Y9811D1*
X25182D1*
X25282Y10191D2*
X24981D1*
X25182Y10047D1*
Y10263D1*
X4321Y6846D2*
Y6544D1*
X4220Y6846D2*
X4421D1*
X4514Y6688D2*
X4643D1*
X4686Y6702D1*
X4701Y6717D1*
X4715Y6745D1*
Y6788D1*
X4701Y6817D1*
X4686Y6831D1*
X4643Y6846D1*
X4514D1*
Y6544D1*
X4808Y6788D2*
X4836Y6802D1*
X4880Y6845D1*
Y6544D1*
X5126Y6836D2*
Y6534D1*
X5026Y6836D2*
X5227D1*
X5320Y6678D2*
X5449D1*
X5492Y6692D1*
X5506Y6707D1*
X5520Y6735D1*
Y6778D1*
X5506Y6807D1*
X5492Y6821D1*
X5449Y6836D1*
X5320D1*
Y6534D1*
X5628Y6764D2*
Y6778D1*
X5642Y6807D1*
X5656Y6821D1*
X5685Y6835D1*
X5742D1*
X5771Y6821D1*
X5785Y6807D1*
X5800Y6778D1*
Y6749D1*
X5785Y6720D1*
X5757Y6678D1*
X5613Y6534D1*
X5814D1*
X12958Y22942D2*
Y22727D1*
X12972Y22684D1*
X13001Y22655D1*
X13044Y22641D1*
X13073D1*
X13116Y22655D1*
X13145Y22684D1*
X13159Y22727D1*
Y22942D1*
X13252Y22885D2*
X13281Y22899D1*
X13324Y22942D1*
Y22641D1*
X12595Y21752D2*
Y21537D1*
X12609Y21494D1*
X12638Y21465D1*
X12681Y21451D1*
X12710D1*
X12753Y21465D1*
X12782Y21494D1*
X12796Y21537D1*
Y21752D1*
X12903Y21680D2*
Y21695D1*
X12918Y21723D1*
X12932Y21738D1*
X12961Y21752D1*
X13018D1*
X13047Y21738D1*
X13061Y21723D1*
X13075Y21695D1*
Y21666D1*
X13061Y21637D1*
X13032Y21594D1*
X12889Y21451D1*
X13090D1*
X9821Y9478D2*
Y9263D1*
X9836Y9219D1*
X9865Y9191D1*
X9908Y9176D1*
X9936D1*
X9979Y9191D1*
X10008Y9219D1*
X10022Y9263D1*
Y9478D1*
X10144Y9477D2*
X10301D1*
X10215Y9363D1*
X10259D1*
X10287Y9348D1*
X10301Y9334D1*
X10316Y9291D1*
Y9263D1*
X10301Y9219D1*
X10273Y9191D1*
X10230Y9176D1*
X10187D1*
X10144Y9191D1*
X10130Y9205D1*
X10115Y9234D1*
X13294Y8344D2*
Y8129D1*
X13308Y8086D1*
X13337Y8058D1*
X13380Y8043D1*
X13409D1*
X13452Y8058D1*
X13481Y8086D1*
X13495Y8129D1*
Y8344D1*
X13731Y8043D2*
Y8344D1*
X13587Y8144D1*
X13803D1*
X10873Y28360D2*
Y28144D1*
X10887Y28101D1*
X10916Y28073D1*
X10959Y28058D1*
X10988D1*
X11031Y28073D1*
X11060Y28101D1*
X11074Y28144D1*
Y28360D1*
X11339Y28359D2*
X11195D1*
X11181Y28230D1*
X11195Y28244D1*
X11238Y28259D1*
X11281D1*
X11324Y28244D1*
X11353Y28216D1*
X11367Y28173D1*
Y28144D1*
X11353Y28101D1*
X11324Y28072D1*
X11281Y28058D1*
X11238D1*
X11195Y28072D1*
X11181Y28087D1*
X11166Y28115D1*
X11160Y33430D2*
Y33214D1*
X11174Y33171D1*
X11203Y33143D1*
X11246Y33128D1*
X11275D1*
X11318Y33143D1*
X11347Y33171D1*
X11361Y33214D1*
Y33430D1*
X11626Y33386D2*
X11612Y33415D1*
X11568Y33429D1*
X11540D1*
X11497Y33415D1*
X11468Y33372D1*
X11454Y33300D1*
Y33229D1*
X11468Y33171D1*
X11497Y33142D1*
X11540Y33128D1*
X11554D1*
X11597Y33142D1*
X11626Y33171D1*
X11640Y33214D1*
Y33229D1*
X11626Y33272D1*
X11597Y33300D1*
X11554Y33314D1*
X11540D1*
X11497Y33300D1*
X11468Y33272D1*
X11454Y33229D1*
X8859Y14754D2*
Y14539D1*
X8873Y14496D1*
X8902Y14467D1*
X8945Y14452D1*
X8973D1*
X9017Y14467D1*
X9045Y14496D1*
X9060Y14539D1*
Y14754D1*
X9210Y14452D2*
X9353Y14754D1*
X9152D1*
X5971Y16497D2*
Y16282D1*
X5985Y16239D1*
X6014Y16210D1*
X6057Y16196D1*
X6085D1*
X6128Y16210D1*
X6157Y16239D1*
X6172Y16282D1*
Y16497D1*
X6336D2*
X6293Y16483D1*
X6278Y16454D1*
Y16425D1*
X6293Y16397D1*
X6322Y16382D1*
X6379Y16368D1*
X6422Y16354D1*
X6451Y16325D1*
X6465Y16296D1*
Y16253D1*
X6451Y16225D1*
X6436Y16210D1*
X6393Y16196D1*
X6336D1*
X6293Y16210D1*
X6278Y16225D1*
X6264Y16253D1*
Y16296D1*
X6278Y16325D1*
X6307Y16354D1*
X6350Y16368D1*
X6407Y16382D1*
X6436Y16397D1*
X6451Y16425D1*
Y16454D1*
X6436Y16483D1*
X6393Y16497D1*
X6336D1*
X30974Y33208D2*
Y32992D1*
X30988Y32949D1*
X31017Y32921D1*
X31060Y32906D1*
X31089D1*
X31132Y32921D1*
X31161Y32949D1*
X31175Y32992D1*
Y33208D1*
X31454Y33107D2*
X31440Y33064D1*
X31411Y33035D1*
X31368Y33021D1*
X31354D1*
X31311Y33035D1*
X31282Y33064D1*
X31268Y33107D1*
Y33121D1*
X31282Y33165D1*
X31311Y33193D1*
X31354Y33207D1*
X31368D1*
X31411Y33193D1*
X31440Y33165D1*
X31454Y33107D1*
Y33035D1*
X31440Y32964D1*
X31411Y32920D1*
X31368Y32906D1*
X31340D1*
X31297Y32920D1*
X31282Y32949D1*
X30985Y25188D2*
Y24972D1*
X30999Y24929D1*
X31028Y24901D1*
X31071Y24886D1*
X31099D1*
X31143Y24901D1*
X31171Y24929D1*
X31186Y24972D1*
Y25188D1*
X31278Y25130D2*
X31307Y25145D1*
X31350Y25187D1*
Y24886D1*
X31529Y25187D2*
X31486Y25173D1*
X31457Y25130D1*
X31443Y25058D1*
Y25015D1*
X31457Y24944D1*
X31486Y24900D1*
X31529Y24886D1*
X31558D1*
X31601Y24900D1*
X31629Y24944D1*
X31644Y25015D1*
Y25058D1*
X31629Y25130D1*
X31601Y25173D1*
X31558Y25187D1*
X31529D1*
X31629Y25130D2*
X31457Y24944D1*
X30956Y17167D2*
Y16952D1*
X30971Y16909D1*
X31000Y16880D1*
X31043Y16865D1*
X31071D1*
X31114Y16880D1*
X31143Y16909D1*
X31157Y16952D1*
Y17167D1*
X31250Y17109D2*
X31279Y17124D1*
X31322Y17167D1*
Y16865D1*
X31415Y17109D2*
X31443Y17124D1*
X31487Y17167D1*
Y16865D1*
X31015Y9168D2*
Y8952D1*
X31029Y8909D1*
X31058Y8881D1*
X31101Y8866D1*
X31129D1*
X31173Y8881D1*
X31201Y8909D1*
X31216Y8952D1*
Y9168D1*
X31308Y9110D2*
X31337Y9125D1*
X31380Y9167D1*
Y8866D1*
X31487Y9096D2*
Y9110D1*
X31502Y9139D1*
X31516Y9153D1*
X31545Y9167D1*
X31602D1*
X31631Y9153D1*
X31645Y9139D1*
X31660Y9110D1*
Y9081D1*
X31645Y9053D1*
X31616Y9010D1*
X31473Y8866D1*
X31674D1*
X2142Y24564D2*
X2357D1*
X2401Y24578D1*
X2429Y24607D1*
X2444Y24650D1*
Y24679D1*
X2429Y24722D1*
X2401Y24751D1*
X2357Y24765D1*
X2142D1*
X2200Y24858D2*
X2185Y24887D1*
X2143Y24930D1*
X2444D1*
X2143Y25051D2*
Y25209D1*
X2257Y25123D1*
Y25166D1*
X2272Y25194D1*
X2286Y25209D1*
X2329Y25223D1*
X2357D1*
X2401Y25209D1*
X2429Y25180D1*
X2444Y25137D1*
Y25094D1*
X2429Y25051D1*
X2415Y25037D1*
X2386Y25022D1*
X8333Y8229D2*
Y8014D1*
X8348Y7971D1*
X8376Y7942D1*
X8420Y7928D1*
X8448D1*
X8491Y7942D1*
X8520Y7971D1*
X8534Y8014D1*
Y8229D1*
X8627Y8171D2*
X8656Y8186D1*
X8699Y8229D1*
Y7928D1*
X8935D2*
Y8229D1*
X8791Y8028D1*
X9007D1*
X12678Y13148D2*
X12879Y12847D1*
Y13148D2*
X12678Y12847D1*
X12972Y13090D2*
X13001Y13105D1*
X13044Y13148D1*
Y12847D1*
X5628Y941D2*
D251*
Y439D1*
X5843D1*
X5915Y463D1*
X5939Y487D1*
X5963Y535D1*
Y606D1*
X5939Y654D1*
X5915Y678D1*
X5843Y702D1*
X5915Y726D1*
X5939Y750D1*
X5963Y798D1*
Y846D1*
X5939Y893D1*
X5915Y918D1*
X5843Y941D1*
X5628D1*
Y702D2*
X5843D1*
X6117Y774D2*
Y535D1*
X6141Y463D1*
X6189Y439D1*
X6261D1*
X6308Y463D1*
X6380Y535D1*
Y774D2*
Y439D1*
X6606Y941D2*
Y535D1*
X6630Y463D1*
X6678Y439D1*
X6726D1*
X6535Y774D2*
X6702D1*
X6952Y941D2*
Y535D1*
X6976Y463D1*
X7024Y439D1*
X7071D1*
X6880Y774D2*
X7048D1*
X7345D2*
X7298Y750D1*
X7250Y702D1*
X7226Y630D1*
Y583D1*
X7250Y511D1*
X7298Y463D1*
X7345Y439D1*
X7417D1*
X7465Y463D1*
X7513Y511D1*
X7537Y583D1*
Y630D1*
X7513Y702D1*
X7465Y750D1*
X7417Y774D1*
X7345D1*
X7691D2*
Y439D1*
Y678D2*
X7763Y750D1*
X7811Y774D1*
X7883D1*
X7931Y750D1*
X7954Y678D1*
Y439D1*
X8595Y941D2*
Y439D1*
X8882D1*
X9347Y941D2*
X9036D1*
Y439D1*
X9347D1*
X9036Y702D2*
X9227D1*
X9501Y941D2*
Y439D1*
X9669D1*
X9740Y463D1*
X9788Y511D1*
X9812Y559D1*
X9836Y630D1*
Y750D1*
X9812Y822D1*
X9788Y869D1*
X9740Y918D1*
X9669Y941D1*
X9501D1*
X30938Y971D2*
X31273Y469D1*
Y971D2*
X30938Y469D1*
X31427Y720D2*
X31703D1*
X32193Y899D2*
X32145Y948D1*
X32073Y971D1*
X31978D1*
X31906Y948D1*
X31858Y899D1*
Y852D1*
X31882Y804D1*
X31906Y780D1*
X31953Y756D1*
X32097Y708D1*
X32145Y684D1*
X32169Y660D1*
X32193Y613D1*
Y541D1*
X32145Y493D1*
X32073Y469D1*
X31978D1*
X31906Y493D1*
X31858Y541D1*
X32515Y971D2*
Y469D1*
X32347Y971D2*
X32682D1*
X32980D2*
X32932Y948D1*
X32885Y899D1*
X32860Y852D1*
X32836Y780D1*
Y660D1*
X32860Y589D1*
X32885Y541D1*
X32932Y493D1*
X32980Y469D1*
X33076D1*
X33123Y493D1*
X33171Y541D1*
X33195Y589D1*
X33219Y660D1*
Y780D1*
X33195Y852D1*
X33171Y899D1*
X33123Y948D1*
X33076Y971D1*
X32980D1*
X33373Y708D2*
X33589D1*
X33660Y732D1*
X33684Y756D1*
X33708Y804D1*
Y876D1*
X33684Y923D1*
X33660Y948D1*
X33589Y971D1*
X33373D1*
Y469D1*
X22968Y981D2*
X23159Y742D1*
Y479D1*
X23350Y981D2*
X23159Y742D1*
X23505Y730D2*
X23781D1*
X24270Y909D2*
X24223Y958D1*
X24151Y981D1*
X24055D1*
X23983Y958D1*
X23935Y909D1*
Y862D1*
X23960Y814D1*
X23983Y790D1*
X24031Y766D1*
X24175Y718D1*
X24223Y694D1*
X24246Y670D1*
X24270Y623D1*
Y551D1*
X24223Y503D1*
X24151Y479D1*
X24055D1*
X23983Y503D1*
X23935Y551D1*
X24592Y981D2*
Y479D1*
X24425Y981D2*
X24760D1*
X25058D2*
X25010Y958D1*
X24962Y909D1*
X24938Y862D1*
X24914Y790D1*
Y670D1*
X24938Y599D1*
X24962Y551D1*
X25010Y503D1*
X25058Y479D1*
X25153D1*
X25201Y503D1*
X25249Y551D1*
X25273Y599D1*
X25296Y670D1*
Y790D1*
X25273Y862D1*
X25249Y909D1*
X25201Y958D1*
X25153Y981D1*
X25058D1*
X25451Y718D2*
X25666D1*
X25738Y742D1*
X25762Y766D1*
X25786Y814D1*
Y886D1*
X25762Y933D1*
X25738Y958D1*
X25666Y981D1*
X25451D1*
Y479D1*
X19618Y951D2*
X19953D1*
X19618Y449D1*
X19953D1*
X20107Y700D2*
X20383D1*
X20873Y879D2*
X20825Y928D1*
X20753Y951D1*
X20658D1*
X20586Y928D1*
X20538Y879D1*
Y832D1*
X20562Y784D1*
X20586Y760D1*
X20633Y736D1*
X20777Y688D1*
X20825Y664D1*
X20849Y640D1*
X20873Y593D1*
Y521D1*
X20825Y473D1*
X20753Y449D1*
X20658D1*
X20586Y473D1*
X20538Y521D1*
X21195Y951D2*
Y449D1*
X21027Y951D2*
X21362D1*
X21660D2*
X21612Y928D1*
X21565Y879D1*
X21540Y832D1*
X21516Y760D1*
Y640D1*
X21540Y569D1*
X21565Y521D1*
X21612Y473D1*
X21660Y449D1*
X21756D1*
X21803Y473D1*
X21851Y521D1*
X21875Y569D1*
X21899Y640D1*
Y760D1*
X21875Y832D1*
X21851Y879D1*
X21803Y928D1*
X21756Y951D1*
X21660D1*
X22053Y688D2*
X22269D1*
X22340Y712D1*
X22364Y736D1*
X22388Y784D1*
Y856D1*
X22364Y903D1*
X22340Y928D1*
X22269Y951D1*
X22053D1*
Y449D1*
X16438Y931D2*
X16128D1*
Y429D1*
X16438D1*
X16128Y692D2*
X16319D1*
X16593Y680D2*
X16869D1*
X17358Y859D2*
X17311Y908D1*
X17239Y931D1*
X17143D1*
X17072Y908D1*
X17023Y859D1*
Y812D1*
X17048Y764D1*
X17072Y740D1*
X17119Y716D1*
X17263Y668D1*
X17311Y644D1*
X17335Y620D1*
X17358Y573D1*
Y501D1*
X17311Y453D1*
X17239Y429D1*
X17143D1*
X17072Y453D1*
X17023Y501D1*
X17680Y931D2*
Y429D1*
X17513Y931D2*
X17848D1*
X18146D2*
X18098Y908D1*
X18050Y859D1*
X18026Y812D1*
X18002Y740D1*
Y620D1*
X18026Y549D1*
X18050Y501D1*
X18098Y453D1*
X18146Y429D1*
X18241D1*
X18289Y453D1*
X18337Y501D1*
X18361Y549D1*
X18385Y620D1*
Y740D1*
X18361Y812D1*
X18337Y859D1*
X18289Y908D1*
X18241Y931D1*
X18146D1*
X18539Y668D2*
X18755D1*
X18826Y692D1*
X18850Y716D1*
X18874Y764D1*
Y836D1*
X18850Y883D1*
X18826Y908D1*
X18755Y931D1*
X18539D1*
Y429D1*
X13718Y941D2*
X13408D1*
Y439D1*
X13718D1*
X13408Y702D2*
X13599D1*
X13873Y690D2*
X14149D1*
X14471Y941D2*
Y439D1*
X14303Y941D2*
X14638D1*
X15175Y439D2*
Y941D1*
X14984Y439D1*
X14793Y941D1*
Y439D1*
X15330Y678D2*
X15545D1*
X15616Y702D1*
X15641Y726D1*
X15665Y774D1*
Y846D1*
X15641Y893D1*
X15616Y918D1*
X15545Y941D1*
X15330D1*
Y439D1*
X10848Y941D2*
Y439D1*
X11063D1*
X11135Y463D1*
X11159Y487D1*
X11183Y535D1*
Y606D1*
X11159Y654D1*
X11135Y678D1*
X11063Y702D1*
X11135Y726D1*
X11159Y750D1*
X11183Y798D1*
Y846D1*
X11159Y893D1*
X11135Y918D1*
X11063Y941D1*
X10848D1*
Y702D2*
X11063D1*
X11337Y690D2*
X11613D1*
X11935Y941D2*
Y439D1*
X11768Y941D2*
X12103D1*
X12640Y439D2*
Y941D1*
X12448Y439D1*
X12257Y941D1*
Y439D1*
X12794Y678D2*
X13010D1*
X13081Y702D1*
X13105Y726D1*
X13129Y774D1*
Y846D1*
X13105Y893D1*
X13081Y918D1*
X13010Y941D1*
X12794D1*
Y439D1*
X34936Y6595D2*
D252*
X34190D1*
Y5390D1*
X34936D1*
X34190Y6021D2*
X34649D1*
X34230Y14605D2*
X35034D1*
X34230Y13400D1*
X35034D1*
X34210Y22595D2*
X34669Y22021D1*
Y21390D1*
X35128Y22595D2*
X34669Y22021D1*
X34200Y30655D2*
X35004Y29450D1*
Y30655D2*
X34200Y29450D1*
X8821Y37065D2*
D251*
X9323D1*
X8821Y37400D2*
X9323D1*
X9060Y37065D2*
Y37400D1*
X9073Y37555D2*
Y37831D1*
X8821Y38296D2*
Y37985D1*
X9323D1*
Y38296D1*
X9060Y37985D2*
Y38177D1*
X8821Y38785D2*
X9323D1*
X8821Y38450D1*
X9323D1*
X8821Y38940D2*
X9323D1*
Y39107D1*
X9299Y39179D1*
X9252Y39227D1*
X9204Y39251D1*
X9132Y39275D1*
X9012D1*
X8940Y39251D1*
X8893Y39227D1*
X8845Y39179D1*
X8821Y39107D1*
Y38940D1*
X11201Y37095D2*
X11703D1*
X11201Y37430D2*
X11703D1*
X11440Y37095D2*
Y37430D1*
X11453Y37585D2*
Y37861D1*
X11201Y38015D2*
X11703D1*
Y38231D1*
X11679Y38303D1*
X11655Y38327D1*
X11608Y38350D1*
X11536D1*
X11488Y38327D1*
X11464Y38303D1*
X11440Y38231D1*
X11416Y38303D1*
X11392Y38327D1*
X11345Y38350D1*
X11297D1*
X11249Y38327D1*
X11225Y38303D1*
X11201Y38231D1*
Y38015D1*
X11440D2*
Y38231D1*
X11201Y38815D2*
Y38505D1*
X11703D1*
Y38815D1*
X11440Y38505D2*
Y38696D1*
X11201Y38970D2*
X11703D1*
Y39137D1*
X11679Y39209D1*
X11632Y39257D1*
X11584Y39281D1*
X11512Y39305D1*
X11392D1*
X11320Y39281D1*
X11273Y39257D1*
X11225Y39209D1*
X11201Y39137D1*
Y38970D1*
X15948Y39851D2*
Y39349D1*
X16235D1*
X16700Y39851D2*
X16389D1*
Y39349D1*
X16700D1*
X16389Y39612D2*
X16580D1*
X16854Y39851D2*
Y39349D1*
X17021D1*
X17093Y39373D1*
X17141Y39421D1*
X17165Y39469D1*
X17189Y39540D1*
Y39660D1*
X17165Y39732D1*
X17141Y39779D1*
X17093Y39828D1*
X17021Y39851D1*
X16854D1*
X20428Y39638D2*
X20643D1*
X20715Y39662D1*
X20739Y39686D1*
X20763Y39734D1*
Y39806D1*
X20739Y39853D1*
X20715Y39878D1*
X20643Y39901D1*
X20428D1*
Y39399D1*
X20917Y39901D2*
X21037Y39399D1*
X21156Y39901D1*
X21276Y39399D1*
X21396Y39901D1*
X21933Y39399D2*
Y39901D1*
X21741Y39399D1*
X21550Y39901D1*
Y39399D1*
X18499Y39851D2*
X18188D1*
Y39349D1*
Y39612D2*
X18379D1*
X19036Y39349D2*
X18845Y39851D1*
X18653Y39349D1*
X18725Y39516D2*
X18964D1*
X19526Y39851D2*
Y39349D1*
X19191Y39851D1*
Y39349D1*
X23699Y39881D2*
X23388D1*
Y39379D1*
Y39642D2*
X23579D1*
X24236Y39379D2*
X24045Y39881D1*
X23853Y39379D1*
X23925Y39546D2*
X24164D1*
X24726Y39881D2*
Y39379D1*
X24391Y39881D1*
Y39379D1*
X30429Y39941D2*
X30118D1*
Y39439D1*
Y39702D2*
X30309D1*
X30966Y39439D2*
X30775Y39941D1*
X30583Y39439D1*
X30655Y39606D2*
X30894D1*
X31456Y39941D2*
Y39439D1*
X31121Y39941D1*
Y39439D1*
X32529Y39881D2*
X32218D1*
Y39379D1*
Y39642D2*
X32409D1*
X33066Y39379D2*
X32875Y39881D1*
X32683Y39379D1*
X32755Y39546D2*
X32994D1*
X33556Y39881D2*
Y39379D1*
X33221Y39881D1*
Y39379D1*
X20809Y11994D2*
D253*
Y11736D1*
X20838Y11650D1*
X20867Y11620D1*
X20924Y11592D1*
X20982D1*
X21039Y11620D1*
X21068Y11650D1*
X21096Y11736D1*
Y11994D1*
X20494D1*
X20809Y11793D2*
X20494Y11592D1*
X21096Y11034D2*
Y11407D1*
X20494D1*
Y11034D1*
X20809Y11407D2*
Y11177D1*
X21096Y10849D2*
X20494Y10619D1*
X21096Y10390D1*
X20953Y9191D2*
X21010Y9219D1*
X21068Y9277D1*
X21096Y9334D1*
Y9449D1*
X21068Y9506D1*
X21010Y9563D1*
X20953Y9593D1*
X20867Y9621D1*
X20723D1*
X20638Y9593D1*
X20580Y9563D1*
X20523Y9506D1*
X20494Y9449D1*
Y9334D1*
X20523Y9277D1*
X20580Y9219D1*
X20638Y9191D1*
X20494Y8546D2*
X21096Y8776D1*
X20494Y9005D1*
X20695Y8919D2*
Y8632D1*
X20933Y17020D2*
X20961D1*
X21019Y16992D1*
X21047Y16963D1*
X21076Y16905D1*
Y16791D1*
X21047Y16734D1*
X21019Y16705D1*
X20961Y16676D1*
X20904D1*
X20846Y16705D1*
X20761Y16762D1*
X20474Y17049D1*
Y16647D1*
X21076Y16290D2*
X21047Y16376D1*
X20961Y16434D1*
X20818Y16462D1*
X20732D1*
X20588Y16434D1*
X20502Y16376D1*
X20474Y16290D1*
Y16233D1*
X20502Y16146D1*
X20588Y16089D1*
X20732Y16060D1*
X20818D1*
X20961Y16089D1*
X21047Y16146D1*
X21076Y16233D1*
Y16290D1*
X20961Y16089D2*
X20588Y16434D1*
X20961Y15875D2*
X20990Y15817D1*
X21076Y15731D1*
X20474D1*
Y15259D2*
X21076D1*
X20675Y15546D1*
Y15115D1*
X20990Y13778D2*
X21048Y13835D1*
X21076Y13921D1*
Y14036D1*
X21048Y14122D1*
X20990Y14180D1*
X20933D1*
X20876Y14151D1*
X20847Y14122D1*
X20818Y14065D1*
X20761Y13893D1*
X20732Y13835D1*
X20703Y13807D1*
X20646Y13778D1*
X20560D1*
X20503Y13835D1*
X20474Y13921D1*
Y14036D1*
X20503Y14122D1*
X20560Y14180D1*
X21076Y13593D2*
X20474D1*
Y13392D1*
X20503Y13306D1*
X20560Y13248D1*
X20618Y13220D1*
X20703Y13191D1*
X20847D1*
X20933Y13220D1*
X20990Y13248D1*
X21048Y13306D1*
X21076Y13392D1*
Y13593D1*
Y12662D2*
Y12948D1*
X20818Y12977D1*
X20846Y12948D1*
X20876Y12862D1*
Y12776D1*
X20846Y12690D1*
X20789Y12632D1*
X20703Y12604D1*
X20646D1*
X20560Y12632D1*
X20502Y12690D1*
X20474Y12776D1*
Y12862D1*
X20502Y12948D1*
X20531Y12977D1*
X20588Y13006D1*
X19310Y16303D2*
X19368Y16361D1*
X19396Y16447D1*
Y16561D1*
X19368Y16648D1*
X19310Y16705D1*
X19253D1*
X19196Y16676D1*
X19167Y16648D1*
X19138Y16591D1*
X19081Y16418D1*
X19052Y16361D1*
X19023Y16332D1*
X18966Y16303D1*
X18880D1*
X18823Y16361D1*
X18794Y16447D1*
Y16561D1*
X18823Y16648D1*
X18880Y16705D1*
X19396Y15716D2*
X18794D1*
X19396Y16118D1*
X18794D1*
X19196Y15502D2*
X19166Y15531D1*
X19138Y15502D1*
X19166Y15473D1*
X19196Y15502D1*
X18851D2*
X18822Y15531D1*
X18794Y15502D1*
X18822Y15473D1*
X18851Y15502D1*
M02*
